<?xml version="1.0" encoding="utf-8"?>
<!-- Generator: Adobe Illustrator 25.2.0, SVG Export Plug-In . SVG Version: 6.00 Build 0)  -->
<svg version="1.1" id="Layer_2_1_" xmlns="http://www.w3.org/2000/svg" xmlns:xlink="http://www.w3.org/1999/xlink" x="0px" y="0px"
	 width="1080px" height="270px" viewBox="0 0 1080 270" style="enable-background:new 0 0 1080 270;" xml:space="preserve">
<style type="text/css">
	.st0{fill:#ED5A36;}
	.st1{fill:none;stroke:#CCCCCC;stroke-width:2;stroke-miterlimit:10;}
</style>
<path class="st0" d="M49.1,104.3L72,115v6.8l-23,10.7v-7.3l16-6.8l-16-6.8L49.1,104.3z"/>
<path class="st0" d="M79.8,98.6c4-5.6,10.4-8.9,17.3-8.8c10.6,0,17.2,6.7,17.2,16.4c0,6.2-3.2,10.5-7.3,14.8l-10.9,11.3h19.4v9.2
	H82.1v-7.7l18-18.4c2.7-2.7,4.2-5.5,4.2-8.7c0-4.4-3.1-7.6-7.8-7.6s-7.7,2.6-10.3,5.6L79.8,98.6z"/>
<path class="st0" d="M165.8,116.2c0,16.4-9.8,26.3-21.9,26.3s-21.8-9.9-21.8-26.3s9.7-26.3,21.9-26.3S165.8,99.7,165.8,116.2z
	 M132.2,116.2c0,11.1,5.2,16.9,11.7,16.9s11.7-5.8,11.7-16.9s-5.1-16.9-11.7-16.9S132.2,105.1,132.2,116.2L132.2,116.2z"/>
<path class="st0" d="M217,116.2c0,16.4-9.8,26.3-21.9,26.3s-21.9-9.9-21.9-26.3s9.7-26.3,21.9-26.3S217,99.7,217,116.2z
	 M183.4,116.2c0,11.1,5.2,16.9,11.7,16.9s11.7-5.8,11.7-16.9s-5.1-16.9-11.7-16.9S183.4,105.1,183.4,116.2z"/>
<path class="st0" d="M253.1,116.6c0.1,5.2-3.9,9.5-9.1,9.6s-9.5-3.9-9.6-9.1c-0.1-5.2,3.9-9.5,9.1-9.6h0.2c4.9-0.2,9.1,3.6,9.3,8.5
	c0,0,0,0.1,0,0.1C253.1,116.3,253.1,116.4,253.1,116.6z M239.8,116.6c0.1,2.2,1.9,4,4.1,3.9c2.2-0.1,4-1.9,3.9-4.1
	c-0.1-2.2-1.8-3.9-4-3.9c-2.2,0-4,1.8-4,4C239.8,116.5,239.8,116.6,239.8,116.6C239.7,116.5,239.7,116.6,239.8,116.6z M248.2,141.6
	H242l22.4-33.5h6.2L248.2,141.6z M278.2,133.1c0.1,5.1-4,9.4-9.1,9.5c-5.1,0.1-9.4-4-9.5-9.1c-0.1-5.1,4-9.4,9.1-9.5h0.2
	c5-0.2,9.2,3.6,9.4,8.6c0,0,0,0,0,0C278.2,132.7,278.3,132.9,278.2,133.1z M264.9,133.1c0.1,2.2,1.9,4,4.1,3.9
	c2.2-0.1,4-1.9,3.9-4.1c-0.1-2.2-1.8-3.9-4-3.9c-2.2,0-4,1.7-4,3.9c0,0,0,0,0,0V133.1z"/>
<line class="st1" x1="338.6" y1="18.8" x2="338.6" y2="252.5"/>
<line class="st1" x1="717.1" y1="18.8" x2="717.1" y2="252.5"/>
<path d="M28.3,35.8H17.5V20.4h1.9V34h8.8C28.2,34,28.3,35.8,28.3,35.8z"/>
<path d="M30.5,20l-1.2,5.7h-1.6l0.6-5.7H30.5z"/>
<path d="M42,35.8h-1.8v-1.4c-0.9,1.1-2.3,1.7-3.7,1.6c-2.9,0-5.2-2.3-5.2-5.2c0-0.1,0-0.1,0-0.2c-0.1-2.8,2.1-5.3,4.9-5.4
	c0.1,0,0.2,0,0.3,0c1.4-0.1,2.8,0.5,3.7,1.6v-1.4H42V35.8z M33.1,30.6c-0.1,2,1.5,3.7,3.5,3.8c0,0,0.1,0,0.1,0c2,0,3.6-1.6,3.6-3.6
	c0-0.1,0-0.2,0-0.2c0.1-2-1.5-3.7-3.5-3.8c0,0-0.1,0-0.1,0c-2,0-3.6,1.6-3.6,3.5C33.1,30.4,33.1,30.5,33.1,30.6z"/>
<path d="M53.9,26.8L52.7,28c-0.8-0.7-1.7-1.2-2.8-1.2c-2,0-3.5,1.6-3.5,3.6c0,0.1,0,0.1,0,0.2c-0.1,2,1.3,3.7,3.3,3.8
	c0.1,0,0.1,0,0.2,0c1.1,0,2.1-0.4,2.8-1.2l1.1,1.2c-1,1.1-2.4,1.7-3.8,1.6c-2.9,0.1-5.3-2.1-5.4-5c0-0.1,0-0.3,0-0.4
	c-0.1-2.9,2.1-5.3,5-5.4c0.1,0,0.3,0,0.4,0C51.5,25.1,52.9,25.7,53.9,26.8z"/>
<path d="M63.4,27H59v5.1c0,1.6,0.8,2.3,2,2.3c0.8,0,1.5-0.3,2.1-0.7L64,35c-0.9,0.7-2,1-3.1,1c-2.3,0-3.6-1.2-3.6-3.9V27H55v-1.6
	h2.2v-3.3H59v3.3h4.4V27z"/>
<path d="M68,21.7c0,0.7-0.6,1.3-1.3,1.3c-0.7,0-1.3-0.5-1.3-1.2c0,0,0-0.1,0-0.1c0-0.7,0.6-1.3,1.3-1.3C67.4,20.4,68,21,68,21.7
	C68,21.7,68,21.7,68,21.7z M67.6,35.8h-1.8V25.4h1.8L67.6,35.8z"/>
<path d="M77.8,27h-4v8.8H72V27h-2.3v-1.6H72v-1.8c0-2.2,1-3.8,3.5-3.8c1,0,2,0.3,2.9,0.8L77.7,22c-0.6-0.4-1.4-0.6-2.1-0.6
	c-1.2,0-1.8,0.8-1.8,2.1v1.8h4L77.8,27z"/>
<path d="M93.3,26.8v-1.4h1.8v9.7c0,3.4-2.3,5.3-5.6,5.3c-1.6,0-3.1-0.5-4.4-1.4l0.8-1.5c1,0.8,2.3,1.2,3.6,1.2
	c1.9,0.2,3.6-1.2,3.8-3.1c0-0.2,0-0.3,0-0.5v-0.9c-0.9,1.1-2.2,1.7-3.6,1.6c-2.8,0-5.2-2.2-5.2-5.1c0-0.1,0-0.2,0-0.3
	c-0.2-2.8,2-5.2,4.8-5.4c0.1,0,0.3,0,0.4,0C91.1,25.1,92.4,25.7,93.3,26.8z M86.4,30.5c-0.1,1.9,1.4,3.6,3.4,3.7c0,0,0.1,0,0.1,0
	c1.9,0,3.5-1.5,3.5-3.4c0-0.1,0-0.2,0-0.3c0.1-1.9-1.3-3.6-3.2-3.8S86.5,28,86.4,30C86.4,30.1,86.4,30.3,86.4,30.5z"/>
<path d="M107.8,30.6v0.7h-8.2c0.1,1.9,1.7,3.3,3.6,3.2c1.2,0,2.3-0.5,3.2-1.2l1,1.2c-1.2,1.1-2.7,1.6-4.3,1.6
	c-2.8,0.1-5.2-2.1-5.3-4.9c0-0.2,0-0.3,0-0.5c-0.2-2.8,2-5.2,4.8-5.4c0.1,0,0.3,0,0.4,0C105.7,25.2,107.8,27.4,107.8,30.6z
	 M99.6,29.8h6.4c0-1.7-1.4-3-3.1-3C101,26.7,99.9,28,99.6,29.8z M101.4,23.8l2.3-3.3h2.3l-2.8,3.3H101.4z"/>
<path d="M117.1,25.5l-0.4,1.8c-0.6-0.3-1.2-0.4-1.8-0.4c-1.6,0-2.7,1.2-2.7,3.1v5.8h-1.8V25.4h1.8v1.4c0.7-1,1.9-1.6,3.1-1.6
	C115.9,25.1,116.5,25.2,117.1,25.5z"/>
<path d="M128,30.6v0.7h-8.2c0.1,1.9,1.7,3.3,3.6,3.2c1.2,0,2.3-0.5,3.2-1.2l1,1.2c-1.2,1.1-2.7,1.6-4.3,1.6
	c-2.8,0.1-5.2-2.1-5.3-4.9c0-0.2,0-0.3,0-0.5c-0.2-2.8,2-5.2,4.8-5.4c0.1,0,0.3,0,0.4,0C126,25.2,128,27.4,128,30.6z M119.8,29.8
	h6.4c0-1.7-1.4-3-3.1-3C121.2,26.7,120.1,28,119.8,29.8z M121.6,23.8l2.3-3.3h2.3l-2.8,3.3H121.6z"/>
<path d="M143.1,27.7c-1-0.7-2.2-1-3.4-1c-1.4,0-2.4,0.6-2.4,1.6c0,0.8,0.8,1.2,2,1.4l1.2,0.2c2.2,0.3,3.5,1.2,3.5,3
	c0,2-1.8,3.3-4.6,3.3c-1.6,0-3.1-0.4-4.4-1.3l0.8-1.3c1,0.8,2.3,1.2,3.6,1.1c1.7,0,2.8-0.6,2.8-1.6c0-0.8-0.7-1.3-2.1-1.4l-1.2-0.1
	c-2.3-0.3-3.5-1.3-3.5-2.9c0-2,1.7-3.2,4.2-3.2c1.5-0.1,2.9,0.3,4.2,1.1L143.1,27.7z"/>
<path d="M149.4,20v5.7h-1.8V20H149.4z"/>
<path d="M156.1,21.7c0,0.7-0.6,1.3-1.3,1.3c-0.7,0-1.3-0.5-1.3-1.2c0,0,0-0.1,0-0.1c0-0.7,0.6-1.3,1.3-1.3S156.1,21,156.1,21.7z
	 M155.7,35.8h-1.8V25.4h1.8V35.8z"/>
<path d="M168.7,29.3v6.5h-1.8v-5.9c0.2-1.5-0.9-2.9-2.5-3.1c-0.1,0-0.3,0-0.4,0c-1.7-0.1-3,1.2-3.1,2.9c0,0.1,0,0.1,0,0.2v5.9h-1.8
	V25.4h1.8v1.4c0.8-1.1,2.1-1.6,3.4-1.6C166.9,25.2,168.7,26.8,168.7,29.3z"/>
<path d="M179,27.7c-1-0.7-2.2-1-3.4-1c-1.4,0-2.4,0.6-2.4,1.6c0,0.8,0.8,1.2,2,1.4l1.2,0.2c2.2,0.3,3.5,1.2,3.5,3
	c0,2-1.8,3.3-4.6,3.3c-1.6,0-3.1-0.4-4.4-1.3l0.8-1.3c1,0.8,2.3,1.2,3.6,1.1c1.7,0,2.8-0.6,2.8-1.6c0-0.8-0.7-1.3-2.1-1.4l-1.2-0.1
	c-2.3-0.3-3.5-1.3-3.5-2.9c0-2,1.7-3.2,4.2-3.2c1.5-0.1,2.9,0.3,4.2,1.1L179,27.7z"/>
<path d="M190.9,26.8l-1.2,1.2c-0.8-0.7-1.7-1.2-2.8-1.2c-2,0-3.5,1.6-3.5,3.6c0,0.1,0,0.1,0,0.2c-0.1,2,1.3,3.7,3.3,3.8
	c0.1,0,0.1,0,0.2,0c1.1,0,2.1-0.4,2.8-1.2l1.1,1.2c-1,1.1-2.4,1.7-3.9,1.6c-2.9,0.1-5.3-2.1-5.4-5c0-0.1,0-0.3,0-0.4
	c-0.1-2.9,2.1-5.3,5-5.4c0.1,0,0.3,0,0.4,0C188.4,25.1,189.9,25.7,190.9,26.8z"/>
<path d="M200,25.5l-0.4,1.8c-0.6-0.3-1.2-0.4-1.8-0.4c-1.6,0-2.7,1.2-2.7,3.1v5.8h-1.8V25.4h1.8v1.4c0.7-1,1.9-1.6,3.1-1.6
	C198.8,25.2,199.4,25.3,200,25.5z"/>
<path d="M204.2,21.7c0,0.7-0.6,1.3-1.3,1.3c-0.7,0-1.3-0.5-1.3-1.2c0,0,0-0.1,0-0.1c0-0.7,0.6-1.3,1.3-1.3S204.2,21,204.2,21.7z
	 M203.8,35.8H202V25.4h1.8V35.8z"/>
<path d="M212.1,35.8H210l-4.4-10.5h2l3.5,8.6l3.5-8.6h1.9L212.1,35.8z"/>
<path d="M228,35.8h-1.8v-1.4c-0.9,1.1-2.3,1.7-3.7,1.6c-2.9,0-5.2-2.3-5.2-5.2c0-0.1,0-0.1,0-0.2c-0.1-2.8,2.1-5.3,4.9-5.4
	c0.1,0,0.2,0,0.3,0c1.4-0.1,2.8,0.5,3.7,1.6v-1.4h1.8V35.8z M219.2,30.6c-0.1,2,1.5,3.7,3.5,3.8c0,0,0.1,0,0.1,0
	c2,0,3.6-1.6,3.6-3.6c0-0.1,0-0.2,0-0.2c0.1-2-1.5-3.7-3.5-3.8c0,0-0.1,0-0.1,0c-2,0-3.6,1.6-3.6,3.5
	C219.2,30.4,219.2,30.5,219.2,30.6z"/>
<path d="M241,29.3v6.5h-1.8v-5.9c0.2-1.5-0.9-2.9-2.5-3.1c-0.1,0-0.3,0-0.4,0c-1.7-0.1-3,1.2-3.1,2.9c0,0.1,0,0.1,0,0.2v5.9h-1.8
	V25.4h1.8v1.4c0.8-1.1,2.1-1.6,3.4-1.6C239.2,25.2,241,26.8,241,29.3z"/>
<path d="M251.2,27h-4.4v5.1c0,1.6,0.8,2.3,2,2.3c0.8,0,1.5-0.3,2.1-0.7l0.8,1.4c-0.9,0.7-2,1-3.1,1c-2.3,0-3.6-1.2-3.6-3.9V27h-2.2
	v-1.6h2.2v-3.3h1.8v3.3h4.4V27z"/>
<path d="M267.2,26.8V20h1.8v15.8h-1.8v-1.4c-0.9,1.1-2.3,1.7-3.7,1.6c-2.9,0-5.2-2.3-5.2-5.2c0-0.1,0-0.1,0-0.2
	c-0.1-2.8,2.1-5.3,4.9-5.4c0.1,0,0.2,0,0.3,0C264.9,25.1,266.3,25.7,267.2,26.8z M260.1,30.6c-0.1,2,1.5,3.7,3.5,3.8
	c0,0,0.1,0,0.1,0c2,0,3.6-1.6,3.6-3.6c0-0.1,0-0.2,0-0.2c0.1-2-1.5-3.7-3.5-3.8c0,0-0.1,0-0.1,0c-2,0-3.6,1.6-3.6,3.5
	C260.1,30.4,260.1,30.5,260.1,30.6z"/>
<path d="M282.3,35.8h-1.8v-1.4c-0.9,1.1-2.3,1.7-3.7,1.6c-2.9,0-5.2-2.3-5.2-5.2c0-0.1,0-0.1,0-0.2c-0.1-2.8,2.1-5.3,4.9-5.4
	c0.1,0,0.2,0,0.3,0c1.4-0.1,2.8,0.5,3.7,1.6v-1.4h1.8V35.8z M273.4,30.6c-0.1,2,1.5,3.7,3.5,3.8c0,0,0.1,0,0.1,0
	c2,0,3.6-1.6,3.6-3.6c0-0.1,0-0.2,0-0.2c0.1-2-1.5-3.7-3.5-3.8c0,0-0.1,0-0.1,0c-2,0-3.6,1.6-3.6,3.5
	C273.4,30.4,273.4,30.5,273.4,30.6z"/>
<path d="M295.2,29.3v6.5h-1.8v-5.9c0.2-1.5-0.9-2.9-2.5-3.1c-0.1,0-0.3,0-0.4,0c-1.7-0.1-3,1.2-3.1,2.9c0,0.1,0,0.1,0,0.2v5.9h-1.8
	V25.4h1.8v1.4c0.8-1.1,2.1-1.6,3.4-1.6C293.4,25.2,295.2,26.8,295.2,29.3z"/>
<path d="M305.5,27.7c-1-0.7-2.2-1-3.4-1c-1.4,0-2.4,0.6-2.4,1.6c0,0.8,0.8,1.2,2,1.4l1.2,0.2c2.2,0.3,3.5,1.2,3.5,3
	c0,2-1.8,3.3-4.6,3.3c-1.6,0-3.1-0.4-4.4-1.3l0.8-1.3c1,0.8,2.3,1.2,3.6,1.1c1.7,0,2.8-0.6,2.8-1.6c0-0.8-0.7-1.3-2.1-1.4l-1.2-0.1
	c-2.3-0.3-3.5-1.3-3.5-2.9c0-2,1.7-3.2,4.2-3.2c1.5-0.1,2.9,0.3,4.2,1.1L305.5,27.7z"/>
<path d="M18.9,62.2h-1.8V46.4h1.8V62.2z"/>
<path d="M31.6,57v0.7h-8.2c0.1,1.9,1.7,3.3,3.6,3.2c1.2,0,2.3-0.5,3.2-1.2l1,1.2c-1.2,1.1-2.7,1.6-4.3,1.6c-2.8,0.1-5.2-2.1-5.3-4.9
	c0-0.2,0-0.3,0-0.5c-0.2-2.8,2-5.2,4.8-5.4c0.1,0,0.3,0,0.4,0C29.5,51.6,31.5,53.8,31.6,57z M23.3,56.2h6.4c0-1.7-1.4-3-3.1-3
	C24.8,53.1,23.6,54.4,23.3,56.2z"/>
<path d="M48.1,53.2l-1.2,1.2c-0.8-0.7-1.7-1.2-2.8-1.2c-2.1,0.2-3.7,2-3.5,4.1c0.1,1.9,1.6,3.4,3.5,3.5c1.1,0,2.1-0.4,2.8-1.2
	l1.1,1.2c-1,1.1-2.4,1.7-3.9,1.6c-3,0-5.4-2.4-5.4-5.4c0-3,2.4-5.4,5.4-5.4C45.6,51.5,47.1,52.1,48.1,53.2z"/>
<path d="M57.2,51.9l-0.4,1.8c-0.6-0.3-1.2-0.4-1.8-0.4c-1.6,0-2.7,1.2-2.7,3.1v5.8h-1.8V51.8h1.8v1.4c0.7-1,1.9-1.6,3.1-1.6
	C56,51.6,56.6,51.7,57.2,51.9z"/>
<path d="M68.1,57v0.7h-8.2c0.1,1.9,1.7,3.3,3.6,3.2c1.2,0,2.3-0.5,3.2-1.2l1,1.2c-1.2,1.1-2.7,1.6-4.3,1.6c-2.8,0.1-5.2-2.1-5.3-4.9
	c0-0.2,0-0.3,0-0.5c-0.2-2.8,2-5.2,4.8-5.4c0.1,0,0.3,0,0.4,0C66,51.6,68,53.8,68.1,57z M59.8,56.2h6.4c0-1.7-1.4-3-3.1-3
	C61.3,53.1,60.1,54.4,59.8,56.2z M61.6,50.2l2.3-3.3h2.3l-2.8,3.3H61.6z"/>
<path d="M78.8,53.2v-6.8h1.8v15.8h-1.8v-1.4c-0.9,1.1-2.3,1.7-3.7,1.6c-2.9,0-5.2-2.3-5.2-5.2c0-0.1,0-0.1,0-0.2
	c-0.1-2.8,2.1-5.3,4.9-5.4c0.1,0,0.2,0,0.3,0C76.5,51.6,77.9,52.1,78.8,53.2z M71.7,57c-0.1,2,1.5,3.7,3.5,3.8c0,0,0.1,0,0.1,0
	c2,0,3.6-1.6,3.6-3.6c0-0.1,0-0.2,0-0.2c0.1-2-1.5-3.7-3.5-3.8c0,0-0.1,0-0.1,0c-2,0-3.6,1.6-3.6,3.5C71.7,56.8,71.7,56.9,71.7,57z"
	/>
<path d="M86.1,48.1c0,0.7-0.6,1.3-1.3,1.3c-0.7,0-1.3-0.5-1.3-1.2c0,0,0-0.1,0-0.1c0-0.7,0.6-1.3,1.3-1.3
	C85.5,46.8,86.1,47.4,86.1,48.1C86.1,48.1,86.1,48.1,86.1,48.1z M85.7,62.2h-1.8V51.8h1.8L85.7,62.2z"/>
<path d="M96.2,53.4h-4.4v5.1c0,1.6,0.8,2.3,2,2.3c0.8,0,1.5-0.3,2.1-0.7l0.8,1.4c-0.9,0.7-2,1-3.1,1c-2.3,0-3.6-1.2-3.6-3.9v-5.1
	h-2.2v-1.6H90v-3.3h1.8v3.3h4.4L96.2,53.4z"/>
<path d="M114.8,57c0.1,2.8-2.1,5.3-4.9,5.4c-0.1,0-0.2,0-0.3,0c-1.4,0.1-2.8-0.5-3.7-1.6v5.8h-1.8V51.8h1.8v1.4
	c0.9-1.1,2.3-1.7,3.7-1.6c2.8,0,5.2,2.2,5.2,5.1C114.8,56.8,114.8,56.9,114.8,57z M105.8,57c-0.1,2,1.5,3.7,3.5,3.8c0,0,0.1,0,0.1,0
	c2,0,3.6-1.6,3.6-3.5c0-0.1,0-0.2,0-0.3c0.1-2-1.5-3.7-3.5-3.8c0,0-0.1,0-0.1,0c-2,0-3.6,1.6-3.6,3.5
	C105.8,56.8,105.8,56.9,105.8,57z"/>
<path d="M124.1,51.9l-0.4,1.8c-0.6-0.3-1.2-0.4-1.8-0.4c-1.6,0-2.7,1.2-2.7,3.1v5.8h-1.8V51.8h1.8v1.4c0.7-1,1.9-1.6,3.1-1.6
	C122.9,51.6,123.5,51.7,124.1,51.9z"/>
<path d="M128.3,48.1c0,0.7-0.6,1.3-1.3,1.3c-0.7,0-1.3-0.5-1.3-1.2c0,0,0-0.1,0-0.1c0-0.7,0.6-1.3,1.3-1.3S128.3,47.4,128.3,48.1
	L128.3,48.1z M127.9,62.2h-1.8V51.8h1.8V62.2z"/>
<path d="M136.2,62.2h-2.1l-4.4-10.5h2l3.5,8.6l3.5-8.6h1.9L136.2,62.2z"/>
<path d="M151.5,57v0.7h-8.2c0.1,1.9,1.7,3.3,3.6,3.2c1.2,0,2.3-0.5,3.2-1.2l1,1.2c-1.2,1.1-2.7,1.6-4.3,1.6
	c-2.8,0.1-5.2-2.1-5.3-4.9c0-0.2,0-0.3,0-0.5c-0.2-2.8,2-5.2,4.8-5.4c0.1,0,0.3,0,0.4,0C149.5,51.6,151.5,53.8,151.5,57z
	 M143.3,56.2h6.4c0-1.7-1.4-3-3.1-3C144.7,53.1,143.6,54.4,143.3,56.2z M145.1,50.2l2.3-3.3h2.3l-2.8,3.3H145.1z"/>
<path d="M169.5,62.2h-1.8v-1.4c-0.9,1.1-2.3,1.7-3.7,1.6c-2.9,0-5.2-2.3-5.2-5.2c0-0.1,0-0.1,0-0.2c-0.1-2.8,2.1-5.3,4.9-5.4
	c0.1,0,0.2,0,0.3,0c1.4-0.1,2.8,0.5,3.7,1.6v-1.4h1.8V62.2z M160.6,57c-0.1,2,1.5,3.7,3.5,3.8c0,0,0.1,0,0.1,0c2,0,3.6-1.6,3.6-3.6
	c0-0.1,0-0.2,0-0.2c0.1-2-1.5-3.7-3.5-3.8c0,0-0.1,0-0.1,0c-2,0-3.6,1.6-3.6,3.5C160.6,56.8,160.6,56.9,160.6,57z"/>
<path d="M188.2,62.2h-1.8v-1.4c-0.9,1.1-2.3,1.7-3.7,1.6c-2.9,0-5.2-2.3-5.2-5.2c0-0.1,0-0.1,0-0.2c-0.1-2.8,2.1-5.3,4.9-5.4
	c0.1,0,0.2,0,0.3,0c1.4-0.1,2.8,0.5,3.7,1.6v-1.4h1.8V62.2z M179.3,57c-0.1,2,1.5,3.7,3.5,3.8c0,0,0.1,0,0.1,0c2,0,3.6-1.6,3.6-3.6
	c0-0.1,0-0.2,0-0.2c0.1-2-1.5-3.7-3.5-3.8c0,0-0.1,0-0.1,0c-2,0-3.6,1.6-3.6,3.5C179.3,56.8,179.3,56.9,179.3,57z"/>
<path d="M201,57.8c0,3.2-2.3,4.6-4.8,4.6s-4.8-1.4-4.8-4.6v-6.1h1.8v5.9c-0.2,1.5,1,2.9,2.5,3.1c0.2,0,0.3,0,0.5,0
	c1.5,0.1,2.9-1,3-2.5c0-0.2,0-0.4,0-0.6v-5.9h1.8V57.8z"/>
<path d="M212.2,53.2v-1.4h1.8v9.7c0,3.4-2.3,5.3-5.6,5.3c-1.6,0-3.1-0.5-4.4-1.4l0.8-1.5c1,0.8,2.3,1.2,3.6,1.2
	c1.9,0.2,3.6-1.2,3.8-3.1c0-0.2,0-0.3,0-0.5v-0.9c-0.9,1.1-2.2,1.7-3.6,1.6c-2.8,0-5.2-2.2-5.2-5.1c0-0.1,0-0.2,0-0.3
	c-0.2-2.8,2-5.2,4.8-5.4c0.1,0,0.3,0,0.4,0C210,51.5,211.3,52.1,212.2,53.2z M205.3,56.9c-0.1,1.9,1.4,3.6,3.4,3.7c0,0,0.1,0,0.1,0
	c1.9,0,3.5-1.5,3.5-3.4c0-0.1,0-0.2,0-0.3c0.1-1.9-1.3-3.6-3.2-3.8c-1.9-0.1-3.6,1.3-3.8,3.2C205.3,56.5,205.3,56.7,205.3,56.9z"/>
<path d="M234.7,55.7v6.5h-1.8v-5.9c0.2-1.5-0.9-2.9-2.5-3.1c-0.1,0-0.3,0-0.4,0c-1.7-0.1-3,1.2-3.1,2.9c0,0.1,0,0.1,0,0.2v5.9h-1.8
	v-5.9c0.2-1.5-0.9-2.9-2.5-3.1c-0.1,0-0.3,0-0.4,0c-1.7-0.1-3,1.2-3.1,2.9c0,0.1,0,0.1,0,0.2v5.9h-1.8V51.8h1.8v1.4
	c0.8-1.1,2.1-1.6,3.4-1.6c1.6-0.1,3.1,0.7,3.9,2.1c0.8-1.4,2.3-2.2,3.9-2.1C232.9,51.6,234.7,53.2,234.7,55.7z"/>
<path d="M247.3,57v0.7H239c0.1,1.9,1.7,3.3,3.6,3.2c1.2,0,2.3-0.5,3.2-1.2l1,1.2c-1.2,1.1-2.7,1.6-4.3,1.6c-2.8,0.1-5.2-2.1-5.3-4.9
	c0-0.2,0-0.3,0-0.5c-0.2-2.8,2-5.2,4.8-5.4c0.1,0,0.3,0,0.4,0C245.2,51.6,247.3,53.8,247.3,57z M239.1,56.2h6.4
	c-0.1-1.8-1.7-3.1-3.5-2.9C240.5,53.4,239.2,54.6,239.1,56.2z"/>
<path d="M259.4,55.7v6.5h-1.8v-5.9c0.2-1.5-0.9-2.9-2.5-3.1c-0.1,0-0.3,0-0.4,0c-1.7-0.1-3,1.2-3.1,2.9c0,0.1,0,0.1,0,0.2v5.9h-1.8
	V51.8h1.8v1.4c0.8-1.1,2.1-1.6,3.4-1.6C257.6,51.6,259.4,53.2,259.4,55.7z"/>
<path d="M269.6,53.4h-4.4v5.1c0,1.6,0.8,2.3,2,2.3c0.8,0,1.5-0.3,2.1-0.7l0.8,1.4c-0.9,0.7-2,1-3.1,1c-2.3,0-3.6-1.2-3.6-3.9v-5.1
	h-2.2v-1.6h2.2v-3.3h1.8v3.3h4.4L269.6,53.4L269.6,53.4z"/>
<path d="M281.4,57v0.7h-8.2c0.1,1.9,1.7,3.3,3.6,3.2c1.2,0,2.3-0.5,3.2-1.2l1,1.2c-1.2,1.1-2.7,1.6-4.3,1.6
	c-2.8,0.1-5.2-2.1-5.3-4.9c0-0.2,0-0.3,0-0.5c-0.2-2.8,2-5.2,4.8-5.4c0.1,0,0.3,0,0.4,0C279.3,51.6,281.3,53.8,281.4,57z
	 M273.1,56.2h6.4c0-1.7-1.4-3-3.1-3C274.6,53.1,273.4,54.4,273.1,56.2z M274.9,50.2l2.3-3.3h2.3l-2.8,3.3H274.9z"/>
<path d="M297.5,53.2v-6.8h1.8v15.8h-1.8v-1.4c-0.9,1.1-2.3,1.7-3.7,1.6c-2.9,0-5.2-2.3-5.2-5.2c0-0.1,0-0.1,0-0.2
	c-0.1-2.8,2.1-5.3,4.9-5.4c0.1,0,0.2,0,0.3,0C295.2,51.5,296.6,52.1,297.5,53.2z M290.4,57c-0.1,2,1.5,3.7,3.5,3.8c0,0,0.1,0,0.1,0
	c2,0,3.6-1.6,3.6-3.6c0-0.1,0-0.2,0-0.2c0.1-2-1.5-3.7-3.5-3.8c0,0-0.1,0-0.1,0c-2,0-3.6,1.6-3.6,3.5
	C290.4,56.8,290.4,56.9,290.4,57z"/>
<path d="M312,57v0.7h-8.2c0.1,1.9,1.7,3.3,3.6,3.2c1.2,0,2.3-0.5,3.2-1.2l1,1.2c-1.2,1.1-2.7,1.6-4.3,1.6c-2.8,0.1-5.2-2.1-5.3-4.9
	c0-0.2,0-0.3,0-0.5c-0.2-2.8,2-5.2,4.8-5.4c0.1,0,0.3,0,0.4,0C309.9,51.6,312,53.8,312,57z M303.8,56.2h6.4
	c-0.1-1.8-1.7-3.1-3.5-2.9C305.2,53.4,303.9,54.6,303.8,56.2z"/>
<path d="M385.5,35.8h-10.8V20.4h1.9V34h8.8v1.8H385.5z"/>
<path d="M387.7,20l-1.2,5.7H385l0.6-5.7H387.7z"/>
<path d="M399.2,35.8h-1.8v-1.4c-0.9,1.1-2.3,1.7-3.7,1.6c-2.9,0-5.2-2.3-5.2-5.2c0-0.1,0-0.1,0-0.2c-0.1-2.8,2.1-5.3,4.9-5.4
	c0.1,0,0.2,0,0.3,0c1.4-0.1,2.8,0.5,3.7,1.6v-1.4h1.8V35.8z M390.3,30.6c-0.1,2,1.5,3.7,3.5,3.8c0,0,0.1,0,0.1,0
	c2,0,3.6-1.6,3.6-3.6c0-0.1,0-0.2,0-0.2c0.1-2-1.3-3.7-3.3-3.9c-2-0.1-3.7,1.3-3.9,3.3C390.3,30.2,390.3,30.4,390.3,30.6z"/>
<path d="M411.1,26.8l-1.2,1.2c-0.8-0.7-1.7-1.2-2.8-1.2c-2,0-3.5,1.6-3.5,3.6c0,0.1,0,0.1,0,0.2c-0.1,2,1.3,3.7,3.3,3.8
	c0.1,0,0.1,0,0.2,0c1.1,0,2.1-0.4,2.8-1.2l1.1,1.2c-1,1.1-2.4,1.7-3.9,1.6c-2.9,0.1-5.3-2.1-5.4-5c0-0.1,0-0.3,0-0.4
	c-0.1-2.9,2.1-5.3,5-5.4c0.1,0,0.3,0,0.4,0C408.6,25.1,410.1,25.7,411.1,26.8z"/>
<path d="M420.7,27h-4.4v5.1c0,1.6,0.8,2.3,2,2.3c0.8,0,1.5-0.3,2.1-0.7l0.8,1.4c-0.9,0.7-2,1-3.1,1c-2.3,0-3.6-1.2-3.6-3.9V27h-2.2
	v-1.6h2.2v-3.3h1.8v3.3h4.4L420.7,27L420.7,27z"/>
<path d="M425.3,21.7c0,0.7-0.6,1.3-1.3,1.3c-0.7,0-1.3-0.5-1.3-1.2c0,0,0-0.1,0-0.1c0-0.7,0.6-1.3,1.3-1.3
	C424.7,20.4,425.3,21,425.3,21.7L425.3,21.7z M424.9,35.8h-1.8V25.4h1.8V35.8z"/>
<path d="M435.1,27h-4v8.8h-1.8V27H427v-1.6h2.3v-1.8c0-2.2,1-3.8,3.5-3.8c1,0,2,0.3,2.9,0.8l-0.6,1.5c-0.6-0.4-1.4-0.6-2.1-0.6
	c-1.2,0-1.8,0.8-1.8,2.1v1.8h4L435.1,27L435.1,27z"/>
<path d="M450.6,26.8v-1.4h1.8v9.7c0,3.4-2.3,5.3-5.6,5.3c-1.6,0-3.1-0.5-4.4-1.4l0.8-1.5c1,0.8,2.3,1.2,3.6,1.2
	c1.9,0.2,3.6-1.2,3.8-3.1c0-0.2,0-0.3,0-0.5v-0.9c-0.9,1.1-2.2,1.7-3.6,1.6c-2.8,0-5.2-2.2-5.2-5.1c0-0.1,0-0.2,0-0.3
	c-0.2-2.8,2-5.2,4.8-5.4c0.1,0,0.3,0,0.4,0C448.4,25.1,449.7,25.7,450.6,26.8z M443.6,30.5c-0.1,1.9,1.4,3.6,3.4,3.7
	c0,0,0.1,0,0.1,0c1.9,0,3.5-1.5,3.5-3.4c0-0.1,0-0.2,0-0.3c0.1-1.9-1.3-3.6-3.2-3.8c-1.9-0.1-3.6,1.3-3.8,3.2
	C443.6,30.1,443.6,30.3,443.6,30.5z"/>
<path d="M465,30.6v0.7h-8.2c0.1,1.9,1.7,3.3,3.6,3.2c1.2,0,2.3-0.5,3.2-1.2l1,1.2c-1.2,1.1-2.7,1.6-4.3,1.6
	c-2.8,0.1-5.2-2.1-5.3-4.9c0-0.2,0-0.3,0-0.5c-0.2-2.8,2-5.2,4.8-5.4c0.1,0,0.3,0,0.4,0C463,25.2,465,27.4,465,30.6z M456.8,29.8
	h6.4c0-1.7-1.4-3-3.1-3C458.3,26.7,457.1,28,456.8,29.8z M458.6,23.8l2.3-3.3h2.3l-2.8,3.3H458.6z"/>
<path d="M474.4,25.5l-0.4,1.8c-0.6-0.3-1.2-0.4-1.8-0.4c-1.6,0-2.7,1.2-2.7,3.1v5.8h-1.8V25.4h1.8v1.4c0.7-1,1.9-1.6,3.1-1.6
	C473.2,25.2,473.8,25.3,474.4,25.5z"/>
<path d="M485.3,30.6v0.7H477c0.1,1.9,1.7,3.3,3.6,3.2c1.2,0,2.3-0.5,3.2-1.2l1,1.2c-1.2,1.1-2.7,1.6-4.3,1.6
	c-2.8,0.1-5.2-2.1-5.3-4.9c0-0.2,0-0.3,0-0.5c-0.2-2.8,2-5.2,4.8-5.4c0.1,0,0.3,0,0.4,0C483.2,25.2,485.3,27.4,485.3,30.6z
	 M477,29.8h6.4c0-1.7-1.4-3-3.1-3C478.5,26.7,477.3,28,477,29.8z M478.8,23.8l2.3-3.3h2.3l-2.8,3.3H478.8z"/>
<path d="M501.4,26.8V20h1.8v15.8h-1.8v-1.4c-0.9,1.1-2.3,1.7-3.7,1.6c-2.9,0-5.2-2.3-5.2-5.2c0-0.1,0-0.1,0-0.2
	c-0.1-2.8,2.1-5.3,4.9-5.4c0.1,0,0.2,0,0.3,0C499.1,25.1,500.5,25.7,501.4,26.8z M494.3,30.6c-0.1,2,1.5,3.7,3.5,3.8
	c0,0,0.1,0,0.1,0c2,0,3.6-1.6,3.6-3.6c0-0.1,0-0.2,0-0.2c0.1-2-1.3-3.7-3.3-3.9c-2-0.1-3.7,1.3-3.9,3.3
	C494.3,30.2,494.3,30.4,494.3,30.6z"/>
<path d="M515.9,30.6v0.7h-8.2c0.1,1.9,1.7,3.3,3.6,3.2c1.2,0,2.3-0.5,3.2-1.2l1,1.2c-1.2,1.1-2.7,1.6-4.3,1.6
	c-2.8,0.1-5.2-2.1-5.3-4.9c0-0.2,0-0.3,0-0.5c-0.2-2.8,2-5.2,4.8-5.4c0.1,0,0.3,0,0.4,0C513.8,25.2,515.9,27.4,515.9,30.6z
	 M507.7,29.8h6.4c-0.1-1.8-1.7-3.1-3.5-2.9C509.1,27,507.8,28.2,507.7,29.8L507.7,29.8z"/>
<path d="M523.2,35.8h-2.1l-4.4-10.5h2l3.5,8.6l3.5-8.6h1.9L523.2,35.8z"/>
<path d="M536.2,25.5l-0.4,1.8c-0.6-0.3-1.2-0.4-1.8-0.4c-1.6,0-2.7,1.2-2.7,3.1v5.8h-1.8V25.4h1.8v1.4c0.7-1,1.9-1.6,3.1-1.6
	C535,25.2,535.6,25.3,536.2,25.5z"/>
<path d="M547.7,35.8h-1.8v-1.4c-0.9,1.1-2.3,1.7-3.7,1.6c-2.9,0-5.2-2.3-5.2-5.2c0-0.1,0-0.1,0-0.2c-0.1-2.8,2.1-5.3,4.9-5.4
	c0.1,0,0.2,0,0.3,0c1.4-0.1,2.8,0.5,3.7,1.6v-1.4h1.8V35.8z M538.8,30.6c-0.1,2,1.5,3.7,3.5,3.8c0,0,0.1,0,0.1,0
	c2,0,3.6-1.6,3.6-3.6c0-0.1,0-0.2,0-0.2c0.1-2-1.5-3.7-3.5-3.8c0,0-0.1,0-0.1,0c-2,0-3.6,1.6-3.6,3.5
	C538.8,30.4,538.8,30.5,538.8,30.6z"/>
<path d="M553.2,21.7c0,0.7-0.6,1.3-1.3,1.3c-0.7,0-1.3-0.6-1.3-1.3c0-0.7,0.6-1.3,1.3-1.3C552.6,20.4,553.2,21,553.2,21.7z
	 M552.8,35.8H551V25.4h1.8V35.8z"/>
<path d="M563.3,27h-4.4v5.1c0,1.6,0.8,2.3,2,2.3c0.8,0,1.5-0.3,2.1-0.7l0.8,1.4c-0.9,0.7-2,1-3.1,1c-2.3,0-3.6-1.2-3.6-3.9V27h-2.2
	v-1.6h2.2v-3.3h1.8v3.3h4.4V27z"/>
<path d="M581.1,35.8h-1.8v-1.4c-0.9,1.1-2.3,1.7-3.7,1.6c-2.9,0-5.2-2.3-5.2-5.2c0-0.1,0-0.1,0-0.2c-0.1-2.8,2.1-5.3,4.9-5.4
	c0.1,0,0.2,0,0.3,0c1.4-0.1,2.8,0.5,3.7,1.6v-1.4h1.8V35.8z M572.2,30.6c-0.1,2,1.5,3.7,3.5,3.8c0,0,0.1,0,0.1,0
	c2,0,3.6-1.6,3.6-3.6c0-0.1,0-0.2,0-0.2c0.1-2-1.5-3.7-3.5-3.8c0,0-0.1,0-0.1,0c-2,0-3.6,1.6-3.6,3.5
	C572.2,30.4,572.2,30.5,572.2,30.6L572.2,30.6z"/>
<path d="M591.6,27h-4.4v5.1c0,1.6,0.8,2.3,2,2.3c0.8,0,1.5-0.3,2.1-0.7l0.8,1.4c-0.9,0.7-2,1-3.1,1c-2.3,0-3.6-1.2-3.6-3.9V27h-2.2
	v-1.6h2.2v-3.3h1.8v3.3h4.4V27z"/>
<path d="M600.9,27h-4.4v5.1c0,1.6,0.8,2.3,2,2.3c0.8,0,1.5-0.3,2.1-0.7l0.8,1.4c-0.9,0.7-2,1-3.1,1c-2.3,0-3.6-1.2-3.6-3.9V27h-2.2
	v-1.6h2.2v-3.3h1.8v3.3h4.4V27z"/>
<path d="M612.6,30.6v0.7h-8.2c0.1,1.9,1.7,3.3,3.6,3.2c1.2,0,2.3-0.5,3.2-1.2l1,1.2c-1.2,1.1-2.7,1.6-4.3,1.6
	c-2.8,0.1-5.2-2.1-5.3-4.9c0-0.2,0-0.3,0-0.5c-0.2-2.8,2-5.2,4.8-5.4c0.1,0,0.3,0,0.4,0C610.6,25.2,612.6,27.4,612.6,30.6z
	 M604.4,29.8h6.4c0-1.7-1.4-3-3.1-3C605.8,26.7,604.7,28,604.4,29.8L604.4,29.8z"/>
<path d="M617.4,21.7c0,0.7-0.6,1.3-1.3,1.3c-0.7,0-1.3-0.6-1.3-1.3c0-0.7,0.6-1.3,1.3-1.3C616.8,20.4,617.4,21,617.4,21.7z
	 M617,35.8h-1.8V25.4h1.8V35.8z"/>
<path d="M629.9,29.3v6.5h-1.8v-5.9c0.2-1.5-0.9-2.9-2.5-3.1c-0.1,0-0.3,0-0.4,0c-1.7-0.1-3,1.2-3.1,2.9c0,0.1,0,0.1,0,0.2v5.9h-1.8
	V25.4h1.8v1.4c0.8-1.1,2.1-1.6,3.4-1.6C628.2,25.2,629.9,26.8,629.9,29.3z"/>
<path d="M641.3,26.8V20h1.8v15.8h-1.8v-1.4c-0.9,1.1-2.3,1.7-3.7,1.6c-2.9,0-5.2-2.3-5.2-5.2c0-0.1,0-0.1,0-0.2
	c-0.1-2.8,2.1-5.3,4.9-5.4c0.1,0,0.2,0,0.3,0C639,25.1,640.4,25.7,641.3,26.8z M634.2,30.6c-0.1,2,1.5,3.7,3.5,3.8c0,0,0.1,0,0.1,0
	c2,0,3.6-1.6,3.6-3.6c0-0.1,0-0.2,0-0.2c0.1-2-1.3-3.7-3.3-3.9c-2-0.1-3.7,1.3-3.9,3.3C634.2,30.2,634.2,30.4,634.2,30.6L634.2,30.6
	z"/>
<path d="M653.2,25.5l-0.4,1.8c-0.6-0.3-1.2-0.4-1.8-0.4c-1.6,0-2.7,1.2-2.7,3.1v5.8h-1.8V25.4h1.8v1.4c0.7-1,1.9-1.6,3.1-1.6
	C652,25.1,652.6,25.2,653.2,25.5z"/>
<path d="M664.1,30.6v0.7h-8.2c0.1,1.9,1.7,3.3,3.6,3.2c1.2,0,2.3-0.5,3.2-1.2l1,1.2c-1.2,1.1-2.7,1.6-4.3,1.6
	c-2.8,0.1-5.2-2.1-5.3-4.9c0-0.2,0-0.3,0-0.5c-0.2-2.8,2-5.2,4.8-5.4c0.1,0,0.3,0,0.4,0C662.1,25.2,664.1,27.4,664.1,30.6z
	 M655.9,29.8h6.4c0-1.7-1.4-3-3.1-3C657.3,26.7,656.2,28,655.9,29.8L655.9,29.8z"/>
<path class="st0" d="M472.1,93.7h-6.7v-26l-8.4,3.4v-6.8l15.1-6.1V93.7z"/>
<path class="st0" d="M519.3,76.2c0,11.3-6.7,18.1-15.1,18.1s-15.1-6.8-15.1-18.1s6.7-18.1,15.1-18.1S519.3,64.9,519.3,76.2z
	 M496.1,76.2c0,7.6,3.6,11.6,8,11.6s8-4,8-11.6s-3.5-11.6-8-11.6S496.1,68.6,496.1,76.2L496.1,76.2z"/>
<path class="st0" d="M553.6,76.2c0,11.3-6.7,18.1-15.1,18.1s-15.1-6.8-15.1-18.1s6.7-18.1,15.1-18.1S553.6,64.9,553.6,76.2z
	 M530.4,76.2c0,7.6,3.6,11.6,8,11.6s8-4,8-11.6s-3.5-11.6-8-11.6S530.4,68.6,530.4,76.2L530.4,76.2z"/>
<path class="st0" d="M587.9,76.2c0,11.3-6.7,18.1-15.1,18.1s-15.1-6.8-15.1-18.1s6.7-18.1,15.1-18.1S587.9,64.9,587.9,76.2z
	 M564.7,76.2c0,7.6,3.6,11.6,8,11.6s8-4,8-11.6s-3.5-11.6-8-11.6S564.7,68.6,564.7,76.2z"/>
<path class="st0" d="M415,125.5v15.4h-6.5v-13.3c0-3.5-1.8-5.4-4.7-5.4s-5.1,1.8-5.1,5.5V141h-6.5v-13.3c0-3.5-1.8-5.4-4.7-5.4
	s-5.1,1.8-5.1,5.5v13.3h-6.5v-24.2h6.3v2.8c1.6-2.3,4.3-3.7,7.1-3.5c3.2-0.1,6.2,1.4,8,4.1c1.9-3.1,5-4.1,8.2-4.1
	C411.1,116.1,415,119.9,415,125.5z"/>
<path class="st0" d="M428,108.8c0,2.3-1.8,4.1-4.1,4.1c0,0-0.1,0-0.1,0c-2.2,0.1-4-1.7-4.1-3.9c0-0.1,0-0.1,0-0.2
	c0-2.3,1.9-4.2,4.1-4.2C426.1,104.6,428,106.5,428,108.8C428,108.8,428,108.8,428,108.8L428,108.8z M427.2,140.9h-6.5v-24.2h6.5
	V140.9z"/>
<path class="st0" d="M439.5,140.9H433v-36h6.5V140.9z"/>
<path class="st0" d="M451.9,140.9h-6.5v-36h6.5V140.9z"/>
<path class="st0" d="M465.2,108.8c0,2.3-1.8,4.1-4.1,4.1c0,0-0.1,0-0.1,0c-2.2,0.1-4-1.7-4.1-3.9c0-0.1,0-0.1,0-0.2
	c0-2.3,1.9-4.2,4.1-4.2C463.3,104.6,465.2,106.5,465.2,108.8C465.2,108.8,465.2,108.8,465.2,108.8L465.2,108.8z M464.3,140.9h-6.5
	v-24.2h6.5V140.9z"/>
<path class="st0" d="M494,140.9h-6.4v-2.7c-1.8,2.2-4.4,3.4-7.2,3.3c-6.7,0-11.7-5.5-11.7-12.7s5-12.7,11.7-12.7
	c2.8-0.1,5.4,1.1,7.2,3.3v-2.7h6.4V140.9z M475.3,128.8c0,3.7,2.4,6.7,6.2,6.7s6.2-2.8,6.2-6.7s-2.5-6.7-6.2-6.7
	S475.3,125.1,475.3,128.8L475.3,128.8z"/>
<path class="st0" d="M516.4,116.6l-1,6.5c-1.2-0.5-2.6-0.8-3.9-0.8c-3,0-5.1,1.8-5.1,5.4v13.2h-6.5v-24.2h6.3v2.6
	c1.5-2.3,3.8-3.3,6.8-3.3C514.2,116.1,515.3,116.3,516.4,116.6z"/>
<path class="st0" d="M536.4,119.2v-14.3h6.5v36h-6.4v-2.7c-1.8,2.2-4.4,3.4-7.2,3.3c-6.7,0-11.7-5.5-11.7-12.7s5-12.7,11.7-12.7
	C532,116,534.6,117.1,536.4,119.2z M524.2,128.8c0,3.7,2.4,6.7,6.2,6.7s6.2-2.8,6.2-6.7s-2.5-6.7-6.2-6.7S524.2,125.1,524.2,128.8z"
	/>
<path class="st0" d="M566.1,123.5c-2.4-1.1-5-1.8-7.7-2c-2.5,0-3.7,0.9-3.7,2.2s1.8,1.7,3.9,2.1l2.1,0.3c5.2,0.8,8.2,3.1,8.2,7.2
	c0,5-4.1,8.2-11.1,8.2c-3.3,0-7.6-0.6-10.8-2.8l2.6-4.9c2.4,1.6,5.3,2.5,8.2,2.4c3,0,4.5-0.8,4.5-2.3c0-1.2-1.2-1.8-4-2.2l-2-0.3
	c-5.6-0.8-8.4-3.2-8.4-7.3c0-5,3.8-7.9,10.2-7.9c3.5-0.1,7,0.7,10.1,2.3L566.1,123.5z"/>
<path class="st0" d="M601.8,101.8v4.6c3.7,0.3,7.3,1.5,10.4,3.5l-3.1,5.3c-2.2-1.4-4.7-2.3-7.3-2.7v8c6.1,1,10.9,3.6,10.7,9.3
	c-0.1,6.2-4.9,9.5-10.7,10.4v4.9h-5.5v-4.8c-4.4-0.4-8.9-1.8-11.9-4.2l3.4-5.3c2.5,1.8,5.4,3,8.5,3.4v-8H596
	c-6.1-1-10.5-3.6-10.4-9.6c0.1-5.6,4.5-9.3,10.7-10.1v-4.7L601.8,101.8z M596.2,119.6v-6.9c-2.3,0.5-3.8,1.8-3.8,3.6
	S593.8,119,596.2,119.6z M601.8,127.2v6.9c2.3-0.5,3.8-1.8,3.9-3.6C605.7,128.9,604.3,127.9,601.8,127.2z"/>
<path class="st0" d="M648.7,127c0,9.7-6.2,14.6-15.1,14.6s-15.1-4.9-15.1-14.6v-21h7v20.7c0,5.7,3.2,8.3,8.1,8.3s8.1-2.5,8.1-8.3
	V106h7V127z"/>
<path class="st0" d="M679,114.8c-3-1.9-6.4-2.9-9.9-3c-3.9,0-6.7,1.5-6.7,4.2s3,3.3,7.2,4l2,0.3c6.2,1,11.1,3.7,11.1,9.8
	c0,7.7-6.8,11.4-14.3,11.4c-5.3,0-11-1.5-14.7-4.6l3.6-5.6c3.2,2.4,7.1,3.8,11.1,3.8c3.9,0,6.9-1.5,6.9-4.2c0-2.4-2.5-3.3-7.4-4.1
	l-2.2-0.4c-6.2-1-10.7-3.7-10.7-10c0-7.3,6.5-11.1,13.9-11.1c4.7-0.1,9.4,1.2,13.4,3.7L679,114.8z"/>
<path class="st0" d="M778.6,125.3h6.2v8.1h-6.2v8.2H770v-8.2h-19.9v-6.3l15.7-30.3h9.6l-15,28.5h9.5v-11.9h8.6v11.9H778.6z"/>
<path class="st0" d="M804.7,112c0,0.7,0,1.3-0.1,2h-15.5c0.6,3,2.8,4.3,5.5,4.3c2,0,3.9-0.7,5.4-2.1l3.7,3.9c-2.6,2.3-6,3.6-9.5,3.4
	c-6.8,0-11.5-4.6-11.5-11.6s4.6-11.7,11.2-11.7C800.3,100.4,804.7,105.1,804.7,112z M789.1,109.9h9.4c-0.6-2.7-2.2-4.2-4.6-4.2
	C791.2,105.7,789.6,107.3,789.1,109.9L789.1,109.9z"/>
<path class="st0" d="M846.3,115.6l-6,5c-1.6-2-4.1-3.1-6.6-3.1c-4.3,0-7.8,3.4-7.8,8.5c0,5.1,3.4,8.5,7.7,8.5c2.6,0,5.1-1.2,6.8-3.1
	l6,5.1c-3,3.8-7.6,5.9-12.4,5.8c-9.9,0-16.5-6.9-16.5-16.3s6.6-16.3,16.5-16.3C838.8,109.6,843.3,111.8,846.3,115.6z"/>
<path class="st0" d="M878.3,141.6h-8.2v-3.4c-2.3,2.8-5.7,4.4-9.3,4.2c-8.5,0-15-7-15-16.3s6.5-16.3,15-16.3
	c3.6-0.1,7.1,1.5,9.3,4.3v-3.4h8.2V141.6z M854.4,126.1c0,4.7,3.1,8.5,8,8.5s8-3.6,8-8.5s-3.2-8.5-8-8.5S854.4,121.3,854.4,126.1
	L854.4,126.1z"/>
<path class="st0" d="M905.8,118h-11.2v11.3c0,3.9,2,5.3,4.6,5.3c2.1-0.2,4.1-0.9,5.8-2l3.1,6.5c-3,2.2-6.6,3.3-10.3,3.3
	c-7.7,0-11.6-4.4-11.6-12.4v-12h-6v-7.4h6v-9.2h8.4v9.2h11.2V118z"/>
<path class="st0" d="M937.7,126c0,0.9-0.1,1.9-0.2,2.8h-22c0.9,4.5,4,6.4,8,6.4c2.9-0.1,5.6-1.1,7.8-3l4.9,5.4
	c-3.5,3.2-8,4.7-13.2,4.7c-9.5,0-16.1-6.5-16.1-16.2s6.4-16.4,15.7-16.4C931.6,109.7,937.7,116.4,937.7,126z M915.6,123.1h13.7
	c-0.8-4-3.2-6.2-6.8-6.2C918.7,116.9,916.4,119.3,915.6,123.1L915.6,123.1z M917,106.1l6.4-10.1h10l-8.4,10.1H917z"/>
<path class="st0" d="M962.7,114v-3.5h8.2V139c0,10-6.5,16-16.7,16c-4.9,0-10.1-1.3-13.6-3.7l3-6.8c3,2,6.6,3.2,10.2,3.2
	c5.2,0,8.8-2.9,8.8-8.2v-2.2c-2.3,2.8-5.8,4.4-9.5,4.2c-7.6,0-14.3-6.3-14.3-15.8s6.7-15.8,14.3-15.8
	C956.8,109.6,960.4,111.1,962.7,114z M947.4,125.6c0,4.5,3,8.1,7.8,8.1c4.6,0,7.8-3.5,7.8-8.1s-3.1-8.2-7.8-8.2
	S947.4,121.1,947.4,125.6z"/>
<path class="st0" d="M1007.4,126.1c0,9.3-7.1,16.3-16.8,16.3s-16.7-7-16.7-16.3s7.1-16.3,16.7-16.3S1007.4,116.7,1007.4,126.1z
	 M982.4,126.1c0,5,3.5,8.5,8.2,8.5c4.7,0,8.5-3.8,8.5-8.5c0-4.7-3.8-8.5-8.5-8.5C985.9,117.5,982.4,121,982.4,126.1z"/>
<path class="st0" d="M1031.6,110.4l-1.2,8.3c-1.6-0.6-3.4-1-5.1-1c-3.9,0-6.5,2.4-6.5,7v16.9h-8.4v-31h8.1v3.4
	c2-2.9,4.9-4.2,8.7-4.2C1028.7,109.7,1030.2,109.9,1031.6,110.4z"/>
<path class="st0" d="M1042.9,100.4c0,2.9-2.4,5.3-5.3,5.3c-2.9,0-5.3-2.4-5.3-5.3c0-2.9,2.4-5.3,5.3-5.3
	C1040.5,95.1,1042.9,97.4,1042.9,100.4C1042.9,100.4,1042.9,100.4,1042.9,100.4z M1041.8,141.6h-8.4v-31h8.4V141.6z"/>
<path class="st0" d="M1075.5,126c0,0.9-0.1,1.9-0.2,2.8h-22c0.9,4.5,4,6.4,8,6.4c2.9-0.1,5.6-1.1,7.8-3l4.9,5.4
	c-3.5,3.2-8,4.7-13.2,4.7c-9.5,0-16.1-6.5-16.1-16.2s6.4-16.4,15.7-16.4C1069.4,109.7,1075.5,116.4,1075.5,126z M1053.4,123.1h13.7
	c-0.8-4-3.2-6.2-6.8-6.2C1056.5,116.9,1054.2,119.3,1053.4,123.1z"/>
<path d="M377.8,175.5l-1.2,1.2c-0.8-0.7-1.7-1.2-2.8-1.2c-2.1,0.2-3.7,2-3.5,4.1c0.1,1.9,1.6,3.4,3.5,3.5c1.1,0,2.1-0.4,2.8-1.2
	l1.1,1.2c-1,1.1-2.4,1.7-3.9,1.6c-3,0-5.4-2.4-5.4-5.4c0-3,2.4-5.4,5.4-5.4l0,0C375.3,173.8,376.8,174.4,377.8,175.5z"/>
<path d="M389.8,184.5H388v-1.4c-0.9,1.1-2.3,1.7-3.7,1.6c-3,0-5.4-2.4-5.4-5.4c0-3,2.4-5.4,5.4-5.4l0,0c1.4-0.1,2.8,0.5,3.7,1.6V174
	h1.8V184.5z M380.9,179.3c-0.1,2,1.5,3.7,3.5,3.8c0,0,0.1,0,0.1,0c2,0,3.6-1.6,3.6-3.6c0-0.1,0-0.2,0-0.2c0.1-2-1.3-3.7-3.3-3.9
	s-3.7,1.3-3.9,3.3C380.9,178.9,380.9,179.1,380.9,179.3z"/>
<path d="M399.9,174.2l-0.4,1.8c-0.6-0.3-1.2-0.4-1.8-0.4c-1.6,0-2.7,1.2-2.7,3.1v5.8h-1.8V174h1.8v1.4c0.7-1,1.9-1.6,3.1-1.6
	C398.7,173.8,399.3,173.9,399.9,174.2z"/>
<path d="M409,184.5h-1.8v-15.8h1.8V184.5z"/>
<path d="M421.6,179.2v0.7h-8.2c0.1,1.9,1.7,3.3,3.6,3.2c1.2,0,2.3-0.5,3.2-1.2l1,1.2c-1.2,1.1-2.7,1.6-4.3,1.6c-3,0-5.4-2.4-5.5-5.4
	c0-3,2.4-5.4,5.4-5.4C419.6,173.8,421.6,176,421.6,179.2z M413.4,178.5h6.4c0-1.7-1.4-3-3.1-3C414.8,175.4,413.7,176.7,413.4,178.5z
	"/>
<path d="M431.3,176.4c-1-0.7-2.2-1-3.4-1c-1.4,0-2.4,0.6-2.4,1.6c0,0.8,0.8,1.2,2,1.4l1.2,0.2c2.2,0.3,3.5,1.2,3.5,3
	c0,2-1.8,3.3-4.6,3.3c-1.6,0-3.1-0.4-4.4-1.3l0.8-1.3c1,0.8,2.3,1.2,3.6,1.1c1.7,0,2.8-0.6,2.8-1.6c0-0.8-0.7-1.3-2.1-1.4l-1.2-0.1
	c-2.3-0.3-3.5-1.3-3.5-2.9c0-2,1.7-3.2,4.2-3.2c1.5-0.1,2.9,0.3,4.2,1.1L431.3,176.4z"/>
<path d="M442.3,170.4c0,0.7-0.6,1.3-1.3,1.3c-0.7,0-1.3-0.5-1.3-1.2c0,0,0-0.1,0-0.1c0-0.7,0.6-1.3,1.3-1.3
	C441.7,169.1,442.3,169.6,442.3,170.4C442.3,170.3,442.3,170.4,442.3,170.4z M441.9,184.5h-1.8V174h1.8V184.5z"/>
<path d="M454.9,178v6.5h-1.8v-5.9c0.2-1.5-0.9-2.9-2.5-3.1c-0.1,0-0.3,0-0.4,0c-1.7-0.1-3,1.2-3.1,2.9c0,0.1,0,0.1,0,0.2v5.9h-1.8
	V174h1.8v1.4c1.6-1.9,4.3-2.1,6.2-0.6C454.3,175.6,454.8,176.8,454.9,178z"/>
<path d="M462.8,184.5h-2.1l-4.4-10.5h2l3.5,8.6l3.5-8.6h1.9L462.8,184.5z"/>
<path d="M478.2,179.2v0.7H470c0.1,1.9,1.7,3.3,3.6,3.2c1.2,0,2.3-0.5,3.2-1.2l1,1.2c-1.2,1.1-2.7,1.6-4.3,1.6c-3,0-5.4-2.4-5.5-5.4
	c0-3,2.4-5.4,5.4-5.4C476.1,173.8,478.1,176,478.2,179.2z M469.9,178.5h6.4c0-1.7-1.4-3-3.1-3C471.4,175.4,470.2,176.7,469.9,178.5
	L469.9,178.5z"/>
<path d="M487.8,176.4c-1-0.7-2.2-1-3.4-1c-1.4,0-2.4,0.6-2.4,1.6c0,0.8,0.8,1.2,2,1.4l1.2,0.2c2.2,0.3,3.5,1.2,3.5,3
	c0,2-1.8,3.3-4.6,3.3c-1.6,0-3.1-0.4-4.4-1.3l0.8-1.3c1,0.8,2.3,1.2,3.6,1.1c1.7,0,2.8-0.6,2.8-1.6c0-0.8-0.7-1.3-2.1-1.4l-1.2-0.1
	c-2.3-0.3-3.5-1.3-3.5-2.9c0-2,1.7-3.2,4.2-3.2c1.5-0.1,2.9,0.3,4.2,1.1L487.8,176.4z"/>
<path d="M498.3,175.7h-4.4v5.1c0,1.6,0.8,2.3,2,2.3c0.8,0,1.5-0.3,2.1-0.7l0.8,1.4c-0.9,0.7-2,1-3.1,1c-2.3,0-3.6-1.2-3.6-3.9v-5.1
	h-2.2V174h2.2v-3.3h1.8v3.3h4.4L498.3,175.7L498.3,175.7z"/>
<path d="M502.9,170.4c0,0.7-0.6,1.3-1.3,1.3c-0.7,0-1.3-0.6-1.3-1.3s0.6-1.3,1.3-1.3c0.7-0.1,1.2,0.4,1.3,1.1
	C502.9,170.3,502.9,170.3,502.9,170.4z M502.6,184.5h-1.8V174h1.8V184.5z"/>
<path d="M513,176.4c-1-0.7-2.2-1-3.4-1c-1.4,0-2.4,0.6-2.4,1.6c0,0.8,0.8,1.2,2,1.4l1.2,0.2c2.2,0.3,3.5,1.2,3.5,3
	c0,2-1.8,3.3-4.6,3.3c-1.6,0-3.1-0.4-4.4-1.3l0.8-1.3c1,0.8,2.3,1.2,3.6,1.1c1.7,0,2.8-0.6,2.8-1.6c0-0.8-0.7-1.3-2.1-1.4l-1.2-0.1
	c-2.3-0.3-3.5-1.3-3.5-2.9c0-2,1.7-3.2,4.2-3.2c1.5-0.1,2.9,0.3,4.2,1.1L513,176.4z"/>
<path d="M523.5,176.4c-1-0.7-2.2-1-3.4-1c-1.4,0-2.4,0.6-2.4,1.6c0,0.8,0.8,1.2,2,1.4l1.2,0.2c2.2,0.3,3.5,1.2,3.5,3
	c0,2-1.8,3.3-4.6,3.3c-1.6,0-3.1-0.4-4.4-1.3l0.8-1.3c1,0.8,2.3,1.2,3.6,1.1c1.7,0,2.8-0.6,2.8-1.6c0-0.8-0.7-1.3-2.1-1.4l-1.2-0.1
	c-2.3-0.3-3.5-1.3-3.5-2.9c0-2,1.7-3.2,4.2-3.2c1.5-0.1,2.9,0.3,4.2,1.1L523.5,176.4z"/>
<path d="M536.2,179.2v0.7H528c0.1,1.9,1.7,3.3,3.6,3.2c1.2,0,2.3-0.5,3.2-1.2l1,1.2c-1.2,1.1-2.7,1.6-4.3,1.6c-3,0-5.4-2.4-5.5-5.4
	c0-3,2.4-5.4,5.4-5.4C534.2,173.8,536.2,176,536.2,179.2z M528,178.5h6.4c0-1.7-1.4-3-3.1-3C529.4,175.4,528.3,176.7,528,178.5z"/>
<path d="M548.2,180.1c0,3.2-2.3,4.6-4.8,4.6s-4.8-1.4-4.8-4.6V174h1.8v5.9c-0.2,1.5,1,2.9,2.5,3.1c0.2,0,0.3,0,0.5,0
	c1.5,0.1,2.9-1,3-2.5c0-0.2,0-0.4,0-0.6V174h1.8V180.1z"/>
<path d="M558.2,174.2l-0.4,1.8c-0.6-0.3-1.2-0.4-1.8-0.4c-1.6,0-2.7,1.2-2.7,3.1v5.8h-1.8V174h1.8v1.4c0.7-1,1.9-1.6,3.1-1.6
	C557,173.8,557.6,173.9,558.2,174.2z"/>
<path d="M567.1,176.4c-1-0.7-2.2-1-3.4-1c-1.4,0-2.4,0.6-2.4,1.6c0,0.8,0.8,1.2,2,1.4l1.2,0.2c2.2,0.3,3.5,1.2,3.5,3
	c0,2-1.8,3.3-4.6,3.3c-1.6,0-3.1-0.4-4.4-1.3l0.8-1.3c1,0.8,2.3,1.2,3.6,1.1c1.7,0,2.8-0.6,2.8-1.6c0-0.8-0.7-1.3-2.1-1.4L563,180
	c-2.3-0.3-3.5-1.3-3.5-2.9c0-2,1.7-3.2,4.2-3.2c1.5-0.1,2.9,0.3,4.2,1.1L567.1,176.4z"/>
<path d="M584.5,175.5l-1.2,1.2c-0.8-0.7-1.7-1.2-2.8-1.2c-2.1,0.2-3.7,2-3.5,4.1c0.1,1.9,1.6,3.4,3.5,3.5c1.1,0,2.1-0.4,2.8-1.2
	l1.1,1.2c-1,1.1-2.4,1.7-3.9,1.6c-3,0-5.4-2.4-5.4-5.4c0-3,2.4-5.4,5.4-5.4C582,173.7,583.5,174.3,584.5,175.5z"/>
<path d="M596.9,179.3c0,2.9-2.3,5.4-5.3,5.4c-0.1,0-0.1,0-0.2,0c-2.9,0.1-5.4-2.1-5.5-5.1c0-0.1,0-0.2,0-0.3c0-2.9,2.3-5.4,5.3-5.4
	c0.1,0,0.1,0,0.2,0c2.9-0.2,5.3,2.1,5.5,4.9C596.9,179,596.9,179.1,596.9,179.3z M587.7,179.3c0.1,2,1.8,3.7,3.8,3.6
	c2-0.1,3.7-1.8,3.6-3.8c-0.1-2-1.7-3.6-3.7-3.6c-2,0-3.7,1.6-3.7,3.6C587.7,179.2,587.7,179.2,587.7,179.3z"/>
<path d="M609.1,178v6.5h-1.8v-5.9c0.2-1.5-0.9-2.9-2.5-3.1c-0.1,0-0.3,0-0.4,0c-1.7-0.1-3,1.2-3.1,2.9c0,0.1,0,0.1,0,0.2v5.9h-1.8
	V174h1.8v1.4c1.6-1.9,4.3-2.1,6.2-0.6C608.5,175.6,609,176.8,609.1,178z"/>
<path d="M619.3,175.7h-4.4v5.1c0,1.6,0.8,2.3,2,2.3c0.8,0,1.5-0.3,2.1-0.7l0.8,1.4c-0.9,0.7-2,1-3.1,1c-2.3,0-3.6-1.2-3.6-3.9v-5.1
	h-2.2V174h2.2v-3.3h1.8v3.3h4.4V175.7z"/>
<path d="M623.9,170.4c0,0.7-0.6,1.3-1.3,1.3c-0.7,0-1.3-0.6-1.3-1.3c0-0.7,0.6-1.3,1.3-1.3C623.3,169.1,623.9,169.7,623.9,170.4
	C623.9,170.4,623.9,170.4,623.9,170.4z M623.5,184.5h-1.8V174h1.8V184.5z"/>
<path d="M636.4,178v6.5h-1.8v-5.9c0.2-1.5-0.9-2.9-2.5-3.1c-0.1,0-0.3,0-0.4,0c-1.7-0.1-3,1.2-3.1,2.9c0,0.1,0,0.1,0,0.2v5.9h-1.8
	V174h1.8v1.4c1.6-1.9,4.3-2.1,6.2-0.6C635.8,175.6,636.3,176.8,636.4,178z"/>
<path d="M649.1,180.1c0,3.2-2.3,4.6-4.8,4.6s-4.8-1.4-4.8-4.6V174h1.8v5.9c-0.2,1.5,1,2.9,2.5,3.1c0.2,0,0.3,0,0.5,0
	c1.5,0.1,2.9-1,3-2.5c0-0.2,0-0.4,0-0.6V174h1.8V180.1z"/>
<path d="M661.7,179.2v0.7h-8.2c0.1,1.9,1.7,3.3,3.6,3.2c1.2,0,2.3-0.5,3.2-1.2l1,1.2c-1.2,1.1-2.7,1.6-4.3,1.6c-3,0-5.4-2.4-5.5-5.4
	c0-3,2.4-5.4,5.4-5.4C659.6,173.8,661.7,176,661.7,179.2z M653.4,178.5h6.4c0-1.7-1.4-3-3.1-3C654.9,175.4,653.7,176.7,653.4,178.5z
	"/>
<path d="M673.8,178v6.5H672v-5.9c0.2-1.5-0.9-2.9-2.5-3.1c-0.1,0-0.3,0-0.4,0c-1.7-0.1-3,1.2-3.1,2.9c0,0.1,0,0.1,0,0.2v5.9h-1.8
	V174h1.8v1.4c1.6-1.9,4.3-2.1,6.2-0.6C673.2,175.6,673.7,176.8,673.8,178z"/>
<path d="M684,175.7h-4.4v5.1c0,1.6,0.8,2.3,2,2.3c0.8,0,1.5-0.3,2.1-0.7l0.8,1.4c-0.9,0.7-2,1-3.1,1c-2.3,0-3.6-1.2-3.6-3.9v-5.1
	h-2.2V174h2.2v-3.3h1.8v3.3h4.4V175.7z"/>
<path d="M389.3,201.9v-6.8h1.8v15.8h-1.8v-1.4c-0.9,1.1-2.3,1.7-3.7,1.6c-2.9,0-5.2-2.3-5.2-5.2c0-0.1,0-0.1,0-0.2
	c-0.1-2.8,2.1-5.3,4.9-5.4c0.1,0,0.2,0,0.3,0C387,200.2,388.4,200.8,389.3,201.9z M382.2,205.7c-0.1,2,1.5,3.7,3.5,3.8
	c0,0,0.1,0,0.1,0c2,0,3.6-1.6,3.6-3.6c0-0.1,0-0.2,0-0.2c0.1-2-1.5-3.7-3.5-3.8c0,0-0.1,0-0.1,0c-2,0-3.6,1.6-3.6,3.5
	C382.2,205.5,382.2,205.6,382.2,205.7L382.2,205.7z"/>
<path d="M403.8,205.6v0.7h-8.2c0.1,1.9,1.7,3.3,3.6,3.2c1.2,0,2.3-0.5,3.2-1.2l1,1.2c-1.2,1.1-2.7,1.6-4.3,1.6c-3,0-5.4-2.4-5.5-5.4
	c0-3,2.4-5.4,5.4-5.4C401.7,200.2,403.7,202.4,403.8,205.6z M395.5,204.9h6.4c0-1.7-1.4-3-3.1-3C397,201.8,395.8,203.1,395.5,204.9
	L395.5,204.9z"/>
<path d="M418.5,200.6l-0.4,1.8c-0.6-0.3-1.2-0.4-1.8-0.4c-1.6,0-2.7,1.2-2.7,3.1v5.8h-1.8v-10.5h1.8v1.4c0.7-1,1.9-1.6,3.1-1.6
	C417.3,200.2,417.9,200.3,418.5,200.6z"/>
<path d="M429.4,205.6v0.7h-8.2c0.1,1.9,1.7,3.3,3.6,3.2c1.2,0,2.3-0.5,3.2-1.2l1,1.2c-1.2,1.1-2.7,1.6-4.3,1.6c-3,0-5.4-2.4-5.5-5.4
	c0-3,2.4-5.4,5.4-5.4C427.4,200.2,429.4,202.4,429.4,205.6z M421.2,204.9h6.4c0-1.7-1.4-3-3.1-3
	C422.6,201.8,421.5,203.1,421.2,204.9L421.2,204.9z"/>
<path d="M440.5,201.9l-1.2,1.2c-0.8-0.7-1.7-1.2-2.8-1.2c-2.1,0.2-3.7,2-3.5,4.1c0.1,1.9,1.6,3.4,3.5,3.5c1.1,0,2.1-0.4,2.8-1.2
	l1.1,1.2c-1,1.1-2.4,1.7-3.9,1.6c-3,0-5.4-2.4-5.4-5.4c0-3,2.4-5.4,5.4-5.4C438,200.1,439.5,200.7,440.5,201.9z"/>
<path d="M444.6,201.8c1.6-1.9,4.3-2.1,6.2-0.6c1,0.8,1.5,1.9,1.6,3.2v6.5h-1.8V205c0.2-1.5-0.9-2.9-2.5-3.1c-0.1,0-0.3,0-0.4,0
	c-1.7-0.1-3,1.2-3.1,2.9c0,0.1,0,0.1,0,0.2v5.9h-1.8v-15.8h1.8V201.8z"/>
<path d="M465,205.6v0.7h-8.2c0.1,1.9,1.7,3.3,3.6,3.2c1.2,0,2.3-0.5,3.2-1.2l1,1.2c-1.2,1.1-2.7,1.6-4.3,1.6c-3,0-5.4-2.4-5.5-5.4
	c0-3,2.4-5.4,5.4-5.4C462.9,200.2,465,202.4,465,205.6z M456.8,204.9h6.4c-0.1-1.8-1.7-3.1-3.5-2.9
	C458.2,202.1,456.9,203.3,456.8,204.9z"/>
<path d="M474.3,200.6l-0.4,1.8c-0.6-0.3-1.2-0.4-1.8-0.4c-1.6,0-2.7,1.2-2.7,3.1v5.8h-1.8v-10.5h1.8v1.4c0.7-1,1.9-1.6,3.1-1.6
	C473.1,200.2,473.7,200.3,474.3,200.6z"/>
<path d="M484.4,201.9l-1.2,1.2c-0.8-0.7-1.7-1.2-2.8-1.2c-2.1,0.2-3.7,2-3.5,4.1c0.1,1.9,1.6,3.4,3.5,3.5c1.1,0,2.1-0.4,2.8-1.2
	l1.1,1.2c-1,1.1-2.4,1.7-3.9,1.6c-3,0-5.4-2.4-5.4-5.4c0-3,2.4-5.4,5.4-5.4C481.9,200.1,483.4,200.7,484.4,201.9z"/>
<path d="M488.5,201.8c1.6-1.9,4.3-2.1,6.2-0.6c1,0.8,1.5,1.9,1.6,3.2v6.5h-1.8V205c0.2-1.5-0.9-2.9-2.5-3.1c-0.1,0-0.3,0-0.4,0
	c-1.7-0.1-3,1.2-3.1,2.9c0,0.1,0,0.1,0,0.2v5.9h-1.8v-15.8h1.8V201.8z"/>
<path d="M508.9,205.6v0.7h-8.2c0.1,1.9,1.7,3.3,3.6,3.2c1.2,0,2.3-0.5,3.2-1.2l1,1.2c-1.2,1.1-2.7,1.6-4.3,1.6c-3,0-5.4-2.4-5.5-5.4
	c0-3,2.4-5.4,5.4-5.4C506.8,200.2,508.8,202.4,508.9,205.6z M500.6,204.9h6.4c0-1.7-1.4-3-3.1-3
	C502.1,201.8,500.9,203.1,500.6,204.9L500.6,204.9z"/>
<path d="M518.2,200.6l-0.4,1.8c-0.6-0.3-1.2-0.4-1.8-0.4c-1.6,0-2.7,1.2-2.7,3.1v5.8h-1.8v-10.5h1.8v1.4c0.7-1,1.9-1.6,3.1-1.6
	C517,200.2,517.6,200.3,518.2,200.6z"/>
<path d="M533.5,201.9v-6.8h1.8v15.8h-1.8v-1.4c-0.9,1.1-2.3,1.7-3.7,1.6c-2.9,0-5.2-2.3-5.2-5.2c0-0.1,0-0.1,0-0.2
	c-0.1-2.8,2.1-5.3,4.9-5.4c0.1,0,0.2,0,0.3,0C531.2,200.2,532.6,200.8,533.5,201.9z M526.5,205.7c-0.1,2,1.5,3.7,3.5,3.8
	c0,0,0.1,0,0.1,0c2,0,3.6-1.6,3.6-3.6c0-0.1,0-0.2,0-0.2c0.1-2-1.5-3.7-3.5-3.8c0,0-0.1,0-0.1,0c-2,0-3.6,1.6-3.6,3.5
	C526.5,205.5,526.5,205.6,526.5,205.7z"/>
<path d="M548,205.6v0.7h-8.2c0.1,1.9,1.7,3.3,3.6,3.2c1.2,0,2.3-0.5,3.2-1.2l1,1.2c-1.2,1.1-2.7,1.6-4.3,1.6c-3,0-5.4-2.4-5.5-5.4
	c0-3,2.4-5.4,5.4-5.4C546,200.2,548,202.4,548,205.6z M539.8,204.9h6.4c0-1.7-1.4-3-3.1-3C541.2,201.8,540.1,203.1,539.8,204.9
	L539.8,204.9z"/>
<path d="M557.6,202.8c-1-0.7-2.2-1-3.4-1c-1.4,0-2.4,0.6-2.4,1.6c0,0.8,0.8,1.2,2,1.4l1.2,0.2c2.2,0.3,3.5,1.2,3.5,3
	c0,2-1.8,3.3-4.6,3.3c-1.6,0-3.1-0.4-4.4-1.3l0.8-1.3c1,0.8,2.3,1.2,3.6,1.1c1.7,0,2.8-0.6,2.8-1.6c0-0.8-0.7-1.3-2.1-1.4l-1.2-0.1
	c-2.3-0.3-3.5-1.3-3.5-2.9c0-2,1.7-3.2,4.2-3.2c1.5-0.1,2.9,0.3,4.2,1.1L557.6,202.8z"/>
<path d="M573.6,202.8c-1-0.7-2.2-1-3.4-1c-1.4,0-2.4,0.6-2.4,1.6c0,0.8,0.8,1.2,2,1.4l1.2,0.2c2.2,0.3,3.5,1.2,3.5,3
	c0,2-1.8,3.3-4.6,3.3c-1.6,0-3.1-0.4-4.4-1.3l0.8-1.3c1,0.8,2.3,1.2,3.6,1.1c1.7,0,2.8-0.6,2.8-1.6c0-0.8-0.7-1.3-2.1-1.4l-1.2-0.1
	c-2.3-0.3-3.5-1.3-3.5-2.9c0-2,1.7-3.2,4.2-3.2c1.5-0.1,2.9,0.3,4.2,1.1L573.6,202.8z"/>
<path d="M587.3,205.7c0,2.9-2.3,5.4-5.3,5.4c-0.1,0-0.1,0-0.2,0c-2.9,0.1-5.4-2.1-5.5-5.1c0-0.1,0-0.2,0-0.3c0-2.9,2.3-5.4,5.3-5.4
	c0.1,0,0.1,0,0.2,0c2.9-0.1,5.4,2.1,5.5,5.1C587.3,205.5,587.3,205.6,587.3,205.7z M578.1,205.7c0.1,2,1.8,3.7,3.8,3.6
	c2-0.1,3.7-1.8,3.6-3.8c-0.1-2-1.7-3.6-3.7-3.6c-2,0-3.7,1.6-3.7,3.6C578.1,205.6,578.1,205.6,578.1,205.7z"/>
<path d="M599.3,206.5c0,3.2-2.3,4.6-4.8,4.6s-4.8-1.4-4.8-4.6v-6.1h1.8v5.9c-0.2,1.5,1,2.9,2.5,3.1c0.2,0,0.3,0,0.5,0
	c1.5,0.1,2.9-1,3-2.5c0-0.2,0-0.4,0-0.6v-5.9h1.8V206.5z"/>
<path d="M609.3,200.6l-0.4,1.8c-0.6-0.3-1.2-0.4-1.8-0.4c-1.6,0-2.7,1.2-2.7,3.1v5.8h-1.8v-10.5h1.8v1.4c0.7-1,1.9-1.6,3.1-1.6
	C608.1,200.2,608.7,200.3,609.3,200.6z"/>
<path d="M619.4,201.9l-1.2,1.2c-0.8-0.7-1.7-1.2-2.8-1.2c-2.1,0.2-3.7,2-3.5,4.1c0.1,1.9,1.6,3.4,3.5,3.5c1.1,0,2.1-0.4,2.8-1.2
	l1.1,1.2c-1,1.1-2.4,1.7-3.9,1.6c-3,0-5.4-2.4-5.4-5.4c0-3,2.4-5.4,5.4-5.4C616.9,200.1,618.4,200.7,619.4,201.9z"/>
<path d="M630.8,205.6v0.7h-8.2c0.1,1.9,1.7,3.3,3.6,3.2c1.2,0,2.3-0.5,3.2-1.2l1,1.2c-1.2,1.1-2.7,1.6-4.3,1.6c-3,0-5.4-2.4-5.5-5.4
	c0-3,2.4-5.4,5.4-5.4C628.8,200.2,630.8,202.4,630.8,205.6z M622.6,204.9h6.4c0-1.7-1.4-3-3.1-3
	C624.1,201.8,622.9,203.1,622.6,204.9L622.6,204.9z"/>
<path d="M640.5,202.8c-1-0.7-2.2-1-3.4-1c-1.4,0-2.4,0.6-2.4,1.6c0,0.8,0.8,1.2,2,1.4l1.2,0.2c2.2,0.3,3.5,1.2,3.5,3
	c0,2-1.8,3.3-4.6,3.3c-1.6,0-3.1-0.4-4.4-1.3l0.8-1.3c1,0.8,2.3,1.2,3.6,1.1c1.7,0,2.8-0.6,2.8-1.6c0-0.8-0.7-1.3-2.1-1.4l-1.2-0.1
	c-2.3-0.3-3.5-1.3-3.5-2.9c0-2,1.7-3.2,4.2-3.2c1.5-0.1,2.9,0.3,4.2,1.1L640.5,202.8z"/>
<path d="M657.5,201.9v-6.8h1.8v15.8h-1.8v-1.4c-0.9,1.1-2.3,1.7-3.7,1.6c-2.9,0-5.2-2.3-5.2-5.2c0-0.1,0-0.1,0-0.2
	c-0.1-2.8,2.1-5.3,4.9-5.4c0.1,0,0.2,0,0.3,0C655.2,200.2,656.6,200.8,657.5,201.9z M650.4,205.7c-0.1,2,1.5,3.7,3.5,3.8
	c0,0,0.1,0,0.1,0c2,0,3.6-1.6,3.6-3.6c0-0.1,0-0.2,0-0.2c0.1-2-1.5-3.7-3.5-3.8c0,0-0.1,0-0.1,0c-2,0-3.6,1.6-3.6,3.5
	C650.4,205.5,650.4,205.6,650.4,205.7z"/>
<path d="M672,205.6v0.7h-8.2c0.1,1.9,1.7,3.3,3.6,3.2c1.2,0,2.3-0.5,3.2-1.2l1,1.2c-1.2,1.1-2.7,1.6-4.3,1.6c-3,0-5.4-2.4-5.5-5.4
	c0-3,2.4-5.4,5.4-5.4C669.9,200.2,671.9,202.4,672,205.6z M663.7,204.9h6.4c0-1.7-1.4-3-3.1-3C665.2,201.8,664,203.1,663.7,204.9
	L663.7,204.9z"/>
<path d="M370.1,227l-0.4,1.8c-0.6-0.3-1.2-0.4-1.8-0.4c-1.6,0-2.7,1.2-2.7,3.1v5.8h-1.8v-10.5h1.8v1.4c0.7-1,1.9-1.6,3.1-1.6
	C368.9,226.6,369.5,226.7,370.1,227z"/>
<path d="M381,232v0.7h-8.2c0.1,1.9,1.7,3.3,3.6,3.2c1.2,0,2.3-0.5,3.2-1.2l1,1.2c-1.2,1.1-2.7,1.6-4.3,1.6c-3,0-5.4-2.4-5.5-5.4
	c0-3,2.4-5.4,5.4-5.4C379,226.6,381,228.8,381,232z M372.8,231.3h6.4c0-1.7-1.4-3-3.1-3C374.2,228.2,373.1,229.5,372.8,231.3z"/>
<path d="M393.2,230.8v6.5h-1.8v-5.9c0.2-1.5-0.9-2.9-2.5-3.1c-0.1,0-0.3,0-0.4,0c-1.7-0.1-3,1.2-3.1,2.9c0,0.1,0,0.1,0,0.2v5.9h-1.8
	v-10.5h1.8v1.4c1.6-1.9,4.3-2.1,6.2-0.6C392.6,228.4,393.1,229.6,393.2,230.8z"/>
<path d="M404.6,228.3v-6.8h1.8v15.8h-1.8v-1.4c-0.9,1.1-2.3,1.7-3.7,1.6c-2.9,0-5.2-2.3-5.2-5.2c0-0.1,0-0.1,0-0.2
	c-0.1-2.8,2.1-5.3,4.9-5.4c0.1,0,0.2,0,0.3,0C402.3,226.6,403.7,227.2,404.6,228.3z M397.5,232.1c-0.1,2,1.5,3.7,3.5,3.8
	c0,0,0.1,0,0.1,0c2,0,3.6-1.6,3.6-3.6c0-0.1,0-0.2,0-0.2c0.1-2-1.5-3.7-3.5-3.8c0,0-0.1,0-0.1,0c-2,0-3.6,1.6-3.6,3.5
	C397.5,231.9,397.5,232,397.5,232.1z"/>
<path d="M419,232v0.7h-8.2c0.1,1.9,1.7,3.3,3.6,3.2c1.2,0,2.3-0.5,3.2-1.2l1,1.2c-1.2,1.1-2.7,1.6-4.3,1.6c-3,0-5.4-2.4-5.5-5.4
	c0-3,2.4-5.4,5.4-5.4C417,226.6,419,228.8,419,232z M410.8,231.3h6.4c0-1.7-1.4-3-3.1-3C412.2,228.2,411.1,229.5,410.8,231.3z"/>
<path d="M438.9,230.8v6.5h-1.8v-5.9c0.2-1.5-0.9-2.9-2.5-3.1c-0.1,0-0.3,0-0.4,0c-1.7-0.1-3,1.2-3.1,2.9c0,0.1,0,0.1,0,0.2v5.9h-1.8
	v-5.9c0.2-1.5-0.9-2.9-2.5-3.1c-0.1,0-0.3,0-0.4,0c-1.7-0.1-3,1.2-3.1,2.9c0,0.1,0,0.1,0,0.2v5.9h-1.8v-10.5h1.8v1.4
	c0.8-1.1,2.1-1.6,3.4-1.6c1.6-0.1,3.1,0.7,3.9,2.1c0.8-1.4,2.3-2.2,3.9-2.1c2.2-0.2,4.2,1.4,4.4,3.6
	C438.9,230.4,438.9,230.6,438.9,230.8z"/>
<path d="M451.5,232v0.7h-8.2c0.1,1.9,1.7,3.3,3.6,3.2c1.2,0,2.3-0.5,3.2-1.2l1,1.2c-1.2,1.1-2.7,1.6-4.3,1.6c-3,0-5.4-2.4-5.5-5.4
	c0-3,2.4-5.4,5.4-5.4C449.4,226.6,451.5,228.8,451.5,232z M443.3,231.3h6.4c-0.1-1.8-1.7-3.1-3.5-2.9
	C444.7,228.5,443.4,229.7,443.3,231.3z"/>
<path d="M463.6,230.8v6.5h-1.8v-5.9c0.2-1.5-0.9-2.9-2.5-3.1c-0.1,0-0.3,0-0.4,0c-1.7-0.1-3,1.2-3.1,2.9c0,0.1,0,0.1,0,0.2v5.9H454
	v-10.5h1.8v1.4c0.8-1.1,2.1-1.6,3.4-1.6c2.2-0.2,4.2,1.4,4.4,3.6C463.6,230.4,463.6,230.6,463.6,230.8z"/>
<path d="M473.8,228.5h-4.4v5.1c0,1.6,0.8,2.3,2,2.3c0.8,0,1.5-0.3,2.1-0.7l0.8,1.4c-0.9,0.7-2,1-3.1,1c-2.3,0-3.6-1.2-3.6-3.9v-5.1
	h-2.2V227h2.2v-3.3h1.8v3.3h4.4L473.8,228.5L473.8,228.5z"/>
<path d="M491.7,237.3h-1.8v-1.4c-0.9,1.1-2.3,1.7-3.7,1.6c-2.9,0-5.2-2.3-5.2-5.2c0-0.1,0-0.1,0-0.2c-0.1-2.8,2.1-5.3,4.9-5.4
	c0.1,0,0.2,0,0.3,0c1.4-0.1,2.8,0.5,3.7,1.6v-1.4h1.8V237.3z M482.8,232.1c-0.1,2,1.5,3.7,3.5,3.8c0,0,0.1,0,0.1,0
	c2,0,3.6-1.6,3.6-3.6c0-0.1,0-0.2,0-0.2c0.1-2-1.5-3.7-3.5-3.8c0,0-0.1,0-0.1,0c-2,0-3.6,1.6-3.6,3.5
	C482.8,231.9,482.8,232,482.8,232.1L482.8,232.1z"/>
<path d="M504.4,232.9c0,3.2-2.3,4.6-4.8,4.6s-4.8-1.4-4.8-4.6v-6.1h1.8v5.9c-0.2,1.5,1,2.9,2.5,3.1c0.2,0,0.3,0,0.5,0
	c1.5,0.1,2.9-1,3-2.5c0-0.2,0-0.4,0-0.6v-5.9h1.8V232.9z"/>
<path d="M513.5,232.3h-6.2v-1.6h6.2V232.3z"/>
<path d="M524.6,228.3v-6.8h1.8v15.8h-1.8v-1.4c-0.9,1.1-2.3,1.7-3.7,1.6c-2.9,0-5.2-2.3-5.2-5.2c0-0.1,0-0.1,0-0.2
	c-0.1-2.8,2.1-5.3,4.9-5.4c0.1,0,0.2,0,0.3,0C522.3,226.6,523.7,227.2,524.6,228.3z M517.6,232.1c-0.1,2,1.5,3.7,3.5,3.8
	c0,0,0.1,0,0.1,0c2,0,3.6-1.6,3.6-3.6c0-0.1,0-0.2,0-0.2c0.1-2-1.5-3.7-3.5-3.8c0,0-0.1,0-0.1,0c-2,0-3.6,1.6-3.6,3.5
	C517.6,231.9,517.6,232,517.6,232.1z"/>
<path d="M539.1,232v0.7h-8.2c0.1,1.9,1.7,3.3,3.6,3.2c1.2,0,2.3-0.5,3.2-1.2l1,1.2c-1.2,1.1-2.7,1.6-4.3,1.6c-3,0-5.4-2.4-5.5-5.4
	c0-3,2.4-5.4,5.4-5.4C537,226.6,539.1,228.8,539.1,232z M530.9,231.3h6.4c0-1.7-1.4-3-3.1-3C532.3,228.2,531.2,229.5,530.9,231.3
	L530.9,231.3z"/>
<path d="M543.5,237.3h-1.8v-15.8h1.8V237.3z"/>
<path d="M556.8,237.3H555v-1.4c-0.9,1.1-2.3,1.7-3.7,1.6c-2.9,0-5.2-2.3-5.2-5.2c0-0.1,0-0.1,0-0.2c-0.1-2.8,2.1-5.3,4.9-5.4
	c0.1,0,0.2,0,0.3,0c1.4-0.1,2.8,0.5,3.7,1.6v-1.4h1.8V237.3z M547.9,232.1c-0.1,2,1.5,3.7,3.5,3.8c0,0,0.1,0,0.1,0
	c2,0,3.6-1.6,3.6-3.6c0-0.1,0-0.2,0-0.2c0.1-2-1.5-3.7-3.5-3.8c0,0-0.1,0-0.1,0c-2,0-3.6,1.6-3.6,3.5
	C547.9,231.9,547.9,232,547.9,232.1L547.9,232.1z M548.5,221.9h2.3l2.2,3.3h-1.8L548.5,221.9z"/>
<path d="M573.7,228.3v-6.8h1.8v15.8h-1.8v-1.4c-0.9,1.1-2.3,1.7-3.7,1.6c-2.9,0-5.2-2.3-5.2-5.2c0-0.1,0-0.1,0-0.2
	c-0.1-2.8,2.1-5.3,4.9-5.4c0.1,0,0.2,0,0.3,0C571.4,226.6,572.8,227.2,573.7,228.3z M566.6,232.1c-0.1,2,1.5,3.7,3.5,3.8
	c0,0,0.1,0,0.1,0c2,0,3.6-1.6,3.6-3.6c0-0.1,0-0.2,0-0.2c0.1-2-1.5-3.7-3.5-3.8c0,0-0.1,0-0.1,0c-2,0-3.6,1.6-3.6,3.5
	C566.6,231.9,566.6,232,566.6,232.1L566.6,232.1z"/>
<path d="M588.2,232v0.7H580c0.1,1.9,1.7,3.3,3.6,3.2c1.2,0,2.3-0.5,3.2-1.2l1,1.2c-1.2,1.1-2.7,1.6-4.3,1.6c-3,0-5.4-2.4-5.5-5.4
	c0-3,2.4-5.4,5.4-5.4C586.1,226.6,588.2,228.8,588.2,232z M580,231.3h6.4c-0.1-1.8-1.7-3.1-3.5-2.9
	C581.4,228.5,580.1,229.7,580,231.3z"/>
<path d="M597.8,229.2c-1-0.7-2.2-1-3.4-1c-1.4,0-2.4,0.6-2.4,1.6c0,0.8,0.8,1.2,2,1.4l1.2,0.2c2.2,0.3,3.5,1.2,3.5,3
	c0,2-1.8,3.3-4.6,3.3c-1.6,0-3.1-0.4-4.4-1.3l0.8-1.3c1,0.8,2.3,1.2,3.6,1.1c1.7,0,2.8-0.6,2.8-1.6c0-0.8-0.7-1.3-2.1-1.4l-1.2-0.1
	c-2.3-0.3-3.5-1.3-3.5-2.9c0-2,1.7-3.2,4.2-3.2c1.5-0.1,2.9,0.3,4.2,1.1L597.8,229.2z"/>
<path d="M617.4,232.1c0.1,2.8-2.1,5.3-4.9,5.4c-0.1,0-0.2,0-0.3,0c-1.4,0.1-2.8-0.5-3.7-1.6v5.8h-1.8v-14.9h1.8v1.4
	c0.9-1.1,2.3-1.7,3.7-1.6c2.9,0,5.2,2.4,5.2,5.3C617.4,231.9,617.4,232,617.4,232.1z M608.4,232.1c-0.1,2,1.5,3.7,3.5,3.8
	c0,0,0.1,0,0.1,0c2,0,3.6-1.6,3.6-3.5c0-0.1,0-0.2,0-0.3c0.1-2-1.5-3.7-3.5-3.8c0,0-0.1,0-0.1,0c-2,0-3.6,1.6-3.6,3.6
	C608.4,231.9,608.4,232,608.4,232.1z"/>
<path d="M626.7,227l-0.4,1.8c-0.6-0.3-1.2-0.4-1.8-0.4c-1.6,0-2.7,1.2-2.7,3.1v5.8H620v-10.5h1.8v1.4c0.7-1,1.9-1.6,3.1-1.6
	C625.5,226.6,626.1,226.7,626.7,227z"/>
<path d="M638.6,232.1c0,2.9-2.3,5.4-5.3,5.4c-0.1,0-0.1,0-0.2,0c-2.9,0.1-5.4-2.1-5.5-5.1c0-0.1,0-0.2,0-0.3c0-2.9,2.3-5.4,5.3-5.4
	c0.1,0,0.1,0,0.2,0c2.9-0.1,5.4,2.1,5.5,5.1C638.6,231.9,638.6,232,638.6,232.1z M629.4,232.1c0.1,2,1.8,3.7,3.8,3.6
	c2-0.1,3.7-1.8,3.6-3.8c-0.1-2-1.7-3.6-3.7-3.6c-2-0.1-3.6,1.5-3.7,3.5C629.4,231.9,629.4,232,629.4,232.1L629.4,232.1z"/>
<path d="M649.3,228.3v-6.8h1.8v15.8h-1.8v-1.4c-0.9,1.1-2.3,1.7-3.7,1.6c-2.9,0-5.2-2.3-5.2-5.2c0-0.1,0-0.1,0-0.2
	c-0.1-2.8,2.1-5.3,4.9-5.4c0.1,0,0.2,0,0.3,0C647,226.6,648.4,227.2,649.3,228.3z M642.2,232.1c-0.1,2,1.5,3.7,3.5,3.8
	c0,0,0.1,0,0.1,0c2,0,3.6-1.6,3.6-3.6c0-0.1,0-0.2,0-0.2c0.1-2-1.5-3.7-3.5-3.8c0,0-0.1,0-0.1,0c-2,0-3.6,1.6-3.6,3.5
	C642.2,231.9,642.2,232,642.2,232.1z"/>
<path d="M663.9,232.9c0,3.2-2.3,4.6-4.8,4.6s-4.8-1.4-4.8-4.6v-6.1h1.8v5.9c-0.2,1.5,1,2.9,2.5,3.1c0.2,0,0.3,0,0.5,0
	c1.5,0.1,2.9-1,3-2.5c0-0.2,0-0.4,0-0.6v-5.9h1.8V232.9z"/>
<path d="M669.3,223.2c0,0.7-0.6,1.3-1.3,1.3c-0.7,0-1.3-0.5-1.3-1.2c0,0,0-0.1,0-0.1c0-0.7,0.6-1.3,1.3-1.3
	C668.7,221.9,669.3,222.4,669.3,223.2C669.3,223.1,669.3,223.2,669.3,223.2z M668.9,237.3h-1.8v-10.5h1.8V237.3z"/>
<path d="M679.4,228.5H675v5.1c0,1.6,0.8,2.3,2,2.3c0.8,0,1.5-0.3,2.1-0.7l0.8,1.4c-0.9,0.7-2,1-3.1,1c-2.3,0-3.6-1.2-3.6-3.9v-5.1
	H671V227h2.2v-3.3h1.8v3.3h4.4V228.5z"/>
<path d="M688.9,229.2c-1-0.7-2.2-1-3.4-1c-1.4,0-2.4,0.6-2.4,1.6c0,0.8,0.8,1.2,2,1.4l1.2,0.2c2.2,0.3,3.5,1.2,3.5,3
	c0,2-1.8,3.3-4.6,3.3c-1.6,0-3.1-0.4-4.4-1.3l0.8-1.3c1,0.8,2.3,1.2,3.6,1.1c1.7,0,2.8-0.6,2.8-1.6c0-0.8-0.7-1.3-2.1-1.4l-1.2-0.1
	c-2.3-0.3-3.5-1.3-3.5-2.9c0-2,1.7-3.2,4.2-3.2c1.5-0.1,2.9,0.3,4.2,1.1L688.9,229.2z"/>
<path d="M422.5,254.7v-6.8h1.8v15.8h-1.8v-1.4c-0.9,1.1-2.3,1.7-3.7,1.6c-2.9,0-5.2-2.3-5.2-5.2c0-0.1,0-0.1,0-0.2
	c-0.1-2.8,2.1-5.3,4.9-5.4c0.1,0,0.2,0,0.3,0C420.2,253,421.6,253.6,422.5,254.7z M415.4,258.5c-0.1,2,1.5,3.7,3.5,3.8
	c0,0,0.1,0,0.1,0c2,0,3.6-1.6,3.6-3.6c0-0.1,0-0.2,0-0.2c0.1-2-1.5-3.7-3.5-3.8c0,0-0.1,0-0.1,0c-2,0-3.6,1.6-3.6,3.5
	C415.4,258.3,415.4,258.4,415.4,258.5z"/>
<path d="M437,258.4v0.7h-8.2c0.1,1.9,1.7,3.3,3.6,3.2c1.2,0,2.3-0.5,3.2-1.2l1,1.2c-1.2,1.1-2.7,1.6-4.3,1.6c-3,0-5.4-2.4-5.5-5.4
	c0-3,2.4-5.4,5.4-5.4C434.9,253,437,255.2,437,258.4z M428.7,257.7h6.4c0-1.7-1.4-3-3.1-3C430.2,254.6,429,255.9,428.7,257.7
	L428.7,257.7z"/>
<path d="M453.5,254.7l-1.2,1.2c-0.8-0.7-1.7-1.2-2.8-1.2c-2.1,0.2-3.7,2-3.5,4.1c0.1,1.9,1.6,3.4,3.5,3.5c1.1,0,2.1-0.4,2.8-1.2
	l1.1,1.2c-1,1.1-2.4,1.7-3.9,1.6c-3,0-5.4-2.4-5.4-5.4c0-3,2.4-5.4,5.4-5.4C451,252.9,452.5,253.5,453.5,254.7z"/>
<path d="M462.6,253.4l-0.4,1.8c-0.6-0.3-1.2-0.4-1.8-0.4c-1.6,0-2.7,1.2-2.7,3.1v5.8h-1.8v-10.5h1.8v1.4c0.7-1,1.9-1.6,3.1-1.6
	C461.4,253,462,253.1,462.6,253.4z"/>
<path d="M473.5,258.4v0.7h-8.2c0.1,1.9,1.7,3.3,3.6,3.2c1.2,0,2.3-0.5,3.2-1.2l1,1.2c-1.2,1.1-2.7,1.6-4.3,1.6c-3,0-5.4-2.4-5.5-5.4
	c0-3,2.4-5.4,5.4-5.4C471.4,253,473.5,255.2,473.5,258.4z M465.3,257.7h6.4c-0.1-1.8-1.7-3.1-3.5-2.9
	C466.7,254.9,465.4,256.1,465.3,257.7z M467,251.6l2.3-3.3h2.3l-2.8,3.3H467z"/>
<path d="M484.2,254.7v-6.8h1.8v15.8h-1.8v-1.4c-0.9,1.1-2.3,1.7-3.7,1.6c-2.9,0-5.2-2.3-5.2-5.2c0-0.1,0-0.1,0-0.2
	c-0.1-2.8,2.1-5.3,4.9-5.4c0.1,0,0.2,0,0.3,0C481.9,253,483.3,253.6,484.2,254.7z M477.1,258.5c-0.1,2,1.5,3.7,3.5,3.8
	c0,0,0.1,0,0.1,0c2,0,3.6-1.6,3.6-3.6c0-0.1,0-0.2,0-0.2c0.1-2-1.5-3.7-3.5-3.8c0,0-0.1,0-0.1,0c-2,0-3.6,1.6-3.6,3.5
	C477.1,258.3,477.1,258.4,477.1,258.5z"/>
<path d="M491.5,249.6c0,0.7-0.6,1.3-1.3,1.3c-0.7,0-1.3-0.5-1.3-1.2c0,0,0-0.1,0-0.1c0-0.7,0.6-1.3,1.3-1.3
	C490.9,248.3,491.5,248.8,491.5,249.6C491.5,249.5,491.5,249.6,491.5,249.6z M491.1,263.7h-1.8v-10.5h1.8V263.7z"/>
<path d="M501.6,254.9h-4.4v5.1c0,1.6,0.8,2.3,2,2.3c0.8,0,1.5-0.3,2.1-0.7l0.8,1.4c-0.9,0.7-2,1-3.1,1c-2.3,0-3.6-1.2-3.6-3.9V255
	h-2.2v-1.6h2.2V250h1.8v3.3h4.4L501.6,254.9L501.6,254.9z"/>
<path d="M516.4,254.9H512v5.1c0,1.6,0.8,2.3,2,2.3c0.8,0,1.5-0.3,2.1-0.7l0.8,1.4c-0.9,0.7-2,1-3.1,1c-2.3,0-3.6-1.2-3.6-3.9V255
	H508v-1.6h2.2V250h1.8v3.3h4.4V254.9z"/>
<path d="M525.6,253.4l-0.4,1.8c-0.6-0.3-1.2-0.4-1.8-0.4c-1.6,0-2.7,1.2-2.7,3.1v5.8h-1.8v-10.5h1.8v1.4c0.7-1,1.9-1.6,3.1-1.6
	C524.4,253,525,253.1,525.6,253.4z"/>
<path d="M537.1,263.7h-1.8v-1.4c-0.9,1.1-2.3,1.7-3.7,1.6c-2.9,0-5.2-2.3-5.2-5.2c0-0.1,0-0.1,0-0.2c-0.1-2.8,2.1-5.3,4.9-5.4
	c0.1,0,0.2,0,0.3,0c1.4-0.1,2.8,0.5,3.7,1.6v-1.4h1.8V263.7z M528.2,258.5c-0.1,2,1.5,3.7,3.5,3.8c0,0,0.1,0,0.1,0
	c2,0,3.6-1.6,3.6-3.6c0-0.1,0-0.2,0-0.2c0.1-2-1.3-3.7-3.3-3.9c-2-0.1-3.7,1.3-3.9,3.3C528.2,258.1,528.2,258.3,528.2,258.5
	L528.2,258.5z"/>
<path d="M548.6,254.7v-6.8h1.8v15.8h-1.8v-1.4c-0.9,1.1-2.3,1.7-3.7,1.6c-2.9,0-5.2-2.3-5.2-5.2c0-0.1,0-0.1,0-0.2
	c-0.1-2.8,2.1-5.3,4.9-5.4c0.1,0,0.2,0,0.3,0C546.3,253,547.7,253.6,548.6,254.7z M541.5,258.5c-0.1,2,1.5,3.7,3.5,3.8
	c0,0,0.1,0,0.1,0c2,0,3.6-1.6,3.6-3.6c0-0.1,0-0.2,0-0.2c0.1-2-1.5-3.7-3.5-3.8c0,0-0.1,0-0.1,0c-2,0-3.6,1.6-3.6,3.5
	C541.5,258.3,541.5,258.4,541.5,258.5z"/>
<path d="M555.9,249.6c0,0.7-0.6,1.3-1.3,1.3c-0.7,0-1.3-0.6-1.3-1.3s0.6-1.3,1.3-1.3c0.7-0.1,1.2,0.4,1.3,1.1
	C555.9,249.5,555.9,249.5,555.9,249.6z M555.6,263.7h-1.8v-10.5h1.8V263.7z"/>
<path d="M566,254.9h-4.4v5.1c0,1.6,0.8,2.3,2,2.3c0.8,0,1.5-0.3,2.1-0.7l0.8,1.4c-0.9,0.7-2,1-3.1,1c-2.3,0-3.6-1.2-3.6-3.9V255
	h-2.2v-1.6h2.2V250h1.8v3.3h4.4V254.9z"/>
<path d="M570.6,249.6c0,0.7-0.6,1.3-1.3,1.3c-0.7,0-1.3-0.6-1.3-1.3s0.6-1.3,1.3-1.3c0.7-0.1,1.2,0.4,1.3,1.1
	C570.6,249.5,570.6,249.5,570.6,249.6z M570.3,263.7h-1.8v-10.5h1.8V263.7z"/>
<path d="M583.9,258.5c0,2.9-2.3,5.4-5.3,5.4c-0.1,0-0.1,0-0.2,0c-2.9,0.1-5.4-2.1-5.5-5.1c0-0.1,0-0.2,0-0.3c0-2.9,2.3-5.4,5.3-5.4
	c0.1,0,0.1,0,0.2,0c2.9-0.1,5.4,2.1,5.5,5.1C583.9,258.3,583.9,258.4,583.9,258.5z M574.7,258.5c0.1,2,1.8,3.7,3.8,3.6
	c2-0.1,3.7-1.8,3.6-3.8c-0.1-2-1.7-3.6-3.7-3.6c-2-0.1-3.6,1.5-3.7,3.5C574.7,258.3,574.7,258.4,574.7,258.5z"/>
<path d="M596,257.2v6.5h-1.8v-5.9c0.2-1.5-0.9-2.9-2.5-3.1c-0.1,0-0.3,0-0.4,0c-1.7-0.1-3,1.2-3.1,2.9c0,0.1,0,0.1,0,0.2v5.9h-1.8
	v-10.5h1.8v1.4c1.6-1.9,4.3-2.1,6.2-0.6C595.4,254.8,595.9,256,596,257.2L596,257.2z"/>
<path d="M608.8,257.2v6.5H607v-5.9c0.2-1.5-0.9-2.9-2.5-3.1c-0.1,0-0.3,0-0.4,0c-1.7-0.1-3,1.2-3.1,2.9c0,0.1,0,0.1,0,0.2v5.9h-1.8
	v-10.5h1.8v1.4c0.8-1.1,2.1-1.6,3.4-1.6c2.2-0.2,4.2,1.4,4.4,3.6C608.8,256.8,608.8,257,608.8,257.2z"/>
<path d="M621.4,258.4v0.7h-8.2c0.1,1.9,1.7,3.3,3.6,3.2c1.2,0,2.3-0.5,3.2-1.2l1,1.2c-1.2,1.1-2.7,1.6-4.3,1.6c-3,0-5.4-2.4-5.5-5.4
	c0-3,2.4-5.4,5.4-5.4C619.3,253,621.4,255.2,621.4,258.4z M613.2,257.7h6.4c0-1.7-1.4-3-3.1-3C614.6,254.6,613.5,255.9,613.2,257.7
	L613.2,257.7z"/>
<path d="M625.8,263.7H624v-15.8h1.8V263.7z"/>
<path d="M636.2,255.6c-1-0.7-2.2-1-3.4-1c-1.4,0-2.4,0.6-2.4,1.6c0,0.8,0.8,1.2,2,1.4l1.2,0.2c2.2,0.3,3.5,1.2,3.5,3
	c0,2-1.8,3.3-4.6,3.3c-1.6,0-3.1-0.4-4.4-1.3l0.8-1.3c1,0.8,2.3,1.2,3.6,1.1c1.7,0,2.8-0.6,2.8-1.6c0-0.8-0.7-1.3-2.1-1.4l-1.2-0.1
	c-2.3-0.3-3.5-1.3-3.5-2.9c0-2,1.7-3.2,4.2-3.2c1.5-0.1,2.9,0.3,4.2,1.1L636.2,255.6z"/>
<path d="M638.4,249.7c0.7-0.9,1.8-1.5,3-1.5c1.4-0.1,2.7,0.9,2.9,2.3c0,0.1,0,0.2,0,0.4c-0.1,1-0.5,2-1.3,2.6l-2.1,2.1h3.7v1.4h-5.8
	v-1.2l3.2-3.2c0.5-0.4,0.8-1,0.8-1.6c0-0.8-0.6-1.4-1.4-1.4c0,0-0.1,0-0.1,0c-0.7,0-1.4,0.4-1.9,1L638.4,249.7z"/>
<path d="M759,184.5h-1.8v-15.8h1.8V184.5z"/>
<path d="M772.3,184.5h-1.8v-1.4c-0.9,1.1-2.3,1.7-3.7,1.6c-3,0-5.4-2.4-5.4-5.4c0-3,2.4-5.4,5.4-5.4l0,0c1.4-0.1,2.8,0.5,3.7,1.6
	V174h1.8V184.5z M763.5,179.3c-0.1,2,1.5,3.7,3.5,3.8c0,0,0.1,0,0.1,0c2,0,3.6-1.6,3.6-3.6c0-0.1,0-0.2,0-0.2c0.1-2-1.5-3.7-3.5-3.8
	c0,0-0.1,0-0.1,0c-2,0-3.6,1.6-3.6,3.5C763.5,179.1,763.5,179.2,763.5,179.3z"/>
<path d="M791.8,179.3c0.1,2.8-2.1,5.3-4.9,5.4c-0.1,0-0.2,0-0.3,0c-1.4,0.1-2.8-0.5-3.7-1.6v5.8h-1.8V174h1.8v1.4
	c0.9-1.1,2.3-1.7,3.7-1.6c2.9,0,5.2,2.4,5.2,5.3C791.8,179.1,791.8,179.2,791.8,179.3z M782.8,179.3c-0.1,2,1.5,3.7,3.5,3.8
	c0,0,0.1,0,0.1,0c2,0,3.6-1.6,3.6-3.5c0-0.1,0-0.2,0-0.3c0.1-2-1.5-3.7-3.5-3.8c0,0-0.1,0-0.1,0c-2,0-3.6,1.6-3.6,3.6
	C782.8,179.1,782.8,179.2,782.8,179.3z"/>
<path d="M796.2,184.5h-1.8v-15.8h1.8V184.5z"/>
<path d="M809,180.1c0,3.2-2.3,4.6-4.8,4.6s-4.8-1.4-4.8-4.6V174h1.8v5.9c-0.2,1.5,1,2.9,2.5,3.1c0.2,0,0.3,0,0.5,0
	c1.5,0.1,2.9-1,3-2.5c0-0.2,0-0.4,0-0.6V174h1.8V180.1z"/>
<path d="M819.3,176.4c-1-0.7-2.2-1-3.4-1c-1.4,0-2.4,0.6-2.4,1.6c0,0.8,0.8,1.2,2,1.4l1.2,0.2c2.2,0.3,3.5,1.2,3.5,3
	c0,2-1.8,3.3-4.6,3.3c-1.6,0-3.1-0.4-4.4-1.3l0.8-1.3c1,0.8,2.3,1.2,3.6,1.1c1.7,0,2.8-0.6,2.8-1.6c0-0.8-0.7-1.3-2.1-1.4l-1.2-0.1
	c-2.3-0.3-3.5-1.3-3.5-2.9c0-2,1.7-3.2,4.2-3.2c1.5-0.1,2.9,0.3,4.2,1.1L819.3,176.4z"/>
<path d="M838.9,179.3c0.1,2.8-2.1,5.3-4.9,5.4c-0.1,0-0.2,0-0.3,0c-1.4,0.1-2.8-0.5-3.7-1.6v5.8h-1.8V174h1.8v1.4
	c0.9-1.1,2.3-1.7,3.7-1.6c2.9,0,5.2,2.4,5.2,5.3C838.9,179.1,838.9,179.2,838.9,179.3z M829.9,179.3c-0.1,2,1.5,3.7,3.5,3.8
	c0,0,0.1,0,0.1,0c2,0,3.6-1.6,3.6-3.5c0-0.1,0-0.2,0-0.3c0.1-2-1.5-3.7-3.5-3.8c0,0-0.1,0-0.1,0c-2,0-3.6,1.6-3.6,3.6
	C829.9,179.1,829.9,179.2,829.9,179.3z"/>
<path d="M848.2,174.2l-0.4,1.8c-0.6-0.3-1.2-0.4-1.8-0.4c-1.6,0-2.7,1.2-2.7,3.1v5.8h-1.8V174h1.8v1.4c0.7-1,1.9-1.6,3.1-1.6
	C847,173.8,847.6,173.9,848.2,174.2z"/>
<path d="M852.4,170.4c0,0.7-0.6,1.3-1.3,1.3c-0.7,0-1.3-0.6-1.3-1.3c0-0.7,0.6-1.3,1.3-1.3C851.8,169.1,852.4,169.7,852.4,170.4
	C852.4,170.4,852.4,170.4,852.4,170.4z M852,184.5h-1.8V174h1.8V184.5z"/>
<path d="M862.5,176.4c-1-0.7-2.2-1-3.4-1c-1.4,0-2.4,0.6-2.4,1.6c0,0.8,0.8,1.2,2,1.4l1.2,0.2c2.2,0.3,3.5,1.2,3.5,3
	c0,2-1.8,3.3-4.6,3.3c-1.6,0-3.1-0.4-4.4-1.3l0.8-1.3c1,0.8,2.3,1.2,3.6,1.1c1.7,0,2.8-0.6,2.8-1.6c0-0.8-0.7-1.3-2.1-1.4l-1.2-0.1
	c-2.3-0.3-3.5-1.3-3.5-2.9c0-2,1.7-3.2,4.2-3.2c1.5-0.1,2.9,0.3,4.2,1.1L862.5,176.4z"/>
<path d="M875.2,179.2v0.7H867c0.1,1.9,1.7,3.3,3.6,3.2c1.2,0,2.3-0.5,3.2-1.2l1,1.2c-1.2,1.1-2.7,1.6-4.3,1.6c-3,0-5.4-2.4-5.5-5.4
	c0-3,2.4-5.4,5.4-5.4C873.2,173.8,875.2,176,875.2,179.2z M867,178.5h6.4c0-1.7-1.4-3-3.1-3C868.4,175.4,867.3,176.7,867,178.5z
	 M868.8,172.4l2.3-3.3h2.3l-2.8,3.3H868.8z"/>
<path d="M887.1,179.2v0.7h-8.2c0.1,1.9,1.7,3.3,3.6,3.2c1.2,0,2.3-0.5,3.2-1.2l1,1.2c-1.2,1.1-2.7,1.6-4.3,1.6c-3,0-5.4-2.4-5.5-5.4
	c0-3,2.4-5.4,5.4-5.4C885,173.8,887.1,176,887.1,179.2z M878.9,178.5h6.4c0-1.7-1.4-3-3.1-3C880.3,175.4,879.2,176.7,878.9,178.5
	L878.9,178.5z"/>
<path d="M905.8,179.3c0.1,2.8-2.1,5.3-4.9,5.4c-0.1,0-0.2,0-0.3,0c-1.4,0.1-2.8-0.5-3.7-1.6v5.8h-1.8V174h1.8v1.4
	c0.9-1.1,2.3-1.7,3.7-1.6c2.9,0,5.2,2.4,5.2,5.3C905.8,179.1,905.8,179.2,905.8,179.3z M896.8,179.3c-0.1,2,1.5,3.7,3.5,3.8
	c0,0,0.1,0,0.1,0c2,0,3.6-1.6,3.6-3.5c0-0.1,0-0.2,0-0.3c0.1-2-1.5-3.7-3.5-3.8c0,0-0.1,0-0.1,0c-2,0-3.6,1.6-3.6,3.6
	C896.8,179.1,896.8,179.2,896.8,179.3z"/>
<path d="M918.3,184.5h-1.8v-1.4c-0.9,1.1-2.3,1.7-3.7,1.6c-3,0-5.4-2.4-5.4-5.4c0-3,2.4-5.4,5.4-5.4l0,0c1.4-0.1,2.8,0.5,3.7,1.6
	V174h1.8V184.5z M909.5,179.3c-0.1,2,1.5,3.7,3.5,3.8c0,0,0.1,0,0.1,0c2,0,3.6-1.6,3.6-3.6c0-0.1,0-0.2,0-0.2c0.1-2-1.5-3.7-3.5-3.8
	c0,0-0.1,0-0.1,0c-2,0-3.6,1.6-3.6,3.5C909.5,179.1,909.5,179.2,909.5,179.3z"/>
<path d="M928.4,174.2L928,176c-0.6-0.3-1.2-0.4-1.8-0.4c-1.6,0-2.7,1.2-2.7,3.1v5.8h-1.8V174h1.8v1.4c0.7-1,1.9-1.6,3.1-1.6
	C927.2,173.8,927.8,173.9,928.4,174.2z"/>
<path d="M937.5,184.5h-1.8v-15.8h1.8V184.5z"/>
<path d="M950.2,179.2v0.7H942c0.1,1.9,1.7,3.3,3.6,3.2c1.2,0,2.3-0.5,3.2-1.2l1,1.2c-1.2,1.1-2.7,1.6-4.3,1.6c-3,0-5.4-2.4-5.5-5.4
	c0-3,2.4-5.4,5.4-5.4C948.1,173.8,950.1,176,950.2,179.2z M941.9,178.5h6.4c0-1.7-1.4-3-3.1-3C943.4,175.4,942.2,176.7,941.9,178.5z
	"/>
<path d="M959.8,176.4c-1-0.7-2.2-1-3.4-1c-1.4,0-2.4,0.6-2.4,1.6c0,0.8,0.8,1.2,2,1.4l1.2,0.2c2.2,0.3,3.5,1.2,3.5,3
	c0,2-1.8,3.3-4.6,3.3c-1.6,0-3.1-0.4-4.4-1.3l0.8-1.3c1,0.8,2.3,1.2,3.6,1.1c1.7,0,2.8-0.6,2.8-1.6c0-0.8-0.7-1.3-2.1-1.4l-1.2-0.1
	c-2.3-0.3-3.5-1.3-3.5-2.9c0-2,1.7-3.2,4.2-3.2c1.5-0.1,2.9,0.3,4.2,1.1L959.8,176.4z"/>
<path d="M977.2,175.5l-1.2,1.2c-0.8-0.7-1.7-1.2-2.8-1.2c-2.1,0.2-3.7,2-3.5,4.1c0.1,1.9,1.6,3.4,3.5,3.5c1.1,0,2.1-0.4,2.8-1.2
	l1.1,1.2c-1,1.1-2.4,1.7-3.9,1.6c-3,0-5.4-2.4-5.4-5.4c0-3,2.4-5.4,5.4-5.4l0,0C974.7,173.8,976.2,174.4,977.2,175.5z"/>
<path d="M989.6,179.3c0,2.9-2.3,5.4-5.3,5.4c-0.1,0-0.1,0-0.2,0c-2.9,0.1-5.4-2.1-5.5-5.1c0-0.1,0-0.2,0-0.3c0-2.9,2.3-5.4,5.3-5.4
	c0.1,0,0.1,0,0.2,0c2.9-0.1,5.4,2.1,5.5,5.1C989.6,179.1,989.6,179.2,989.6,179.3z M980.4,179.3c0.1,2,1.8,3.7,3.8,3.6
	c2-0.1,3.7-1.8,3.6-3.8c-0.1-2-1.7-3.6-3.7-3.6c-2-0.1-3.6,1.5-3.7,3.5C980.4,179.1,980.4,179.2,980.4,179.3L980.4,179.3z"/>
<path d="M1001.7,178v6.5h-1.8v-5.9c0.2-1.5-0.9-2.9-2.5-3.1c-0.1,0-0.3,0-0.4,0c-1.7-0.1-3,1.2-3.1,2.9c0,0.1,0,0.1,0,0.2v5.9h-1.8
	V174h1.8v1.4c1.6-1.9,4.3-2.1,6.2-0.6C1001.1,175.6,1001.6,176.8,1001.7,178z"/>
<path d="M1012,176.4c-1-0.7-2.2-1-3.4-1c-1.4,0-2.4,0.6-2.4,1.6c0,0.8,0.8,1.2,2,1.4l1.2,0.2c2.2,0.3,3.5,1.2,3.5,3
	c0,2-1.8,3.3-4.6,3.3c-1.6,0-3.1-0.4-4.4-1.3l0.8-1.3c1,0.8,2.3,1.2,3.6,1.1c1.7,0,2.8-0.6,2.8-1.6c0-0.8-0.7-1.3-2.1-1.4l-1.2-0.1
	c-2.3-0.3-3.5-1.3-3.5-2.9c0-2,1.7-3.2,4.2-3.2c1.5-0.1,2.9,0.3,4.2,1.1L1012,176.4z"/>
<path d="M1024.8,179.2v0.7h-8.2c0.1,1.9,1.7,3.3,3.6,3.2c1.2,0,2.3-0.5,3.2-1.2l1,1.2c-1.2,1.1-2.7,1.6-4.3,1.6
	c-3,0-5.4-2.4-5.5-5.4c0-3,2.4-5.4,5.4-5.4C1022.7,173.8,1024.8,176,1024.8,179.2z M1016.5,178.5h6.4c0-1.7-1.4-3-3.1-3
	C1018,175.4,1016.8,176.7,1016.5,178.5L1016.5,178.5z"/>
<path d="M1029.5,170.4c0,0.7-0.6,1.3-1.3,1.3c-0.7,0-1.3-0.6-1.3-1.3s0.6-1.3,1.3-1.3C1028.9,169.1,1029.5,169.7,1029.5,170.4z
	 M1029.1,184.5h-1.8V174h1.8V184.5z"/>
<path d="M1034.3,184.5h-1.8v-15.8h1.8V184.5z"/>
<path d="M1039.5,184.5h-1.8v-15.8h1.8V184.5z"/>
<path d="M1052.1,179.2v0.7h-8.2c0.1,1.9,1.7,3.3,3.6,3.2c1.2,0,2.3-0.5,3.2-1.2l1,1.2c-1.2,1.1-2.7,1.6-4.3,1.6
	c-3,0-5.4-2.4-5.4-5.4c0-3,2.4-5.4,5.3-5.4C1050.1,173.8,1052.1,176,1052.1,179.2z M1043.9,178.5h6.4c0-1.7-1.4-3-3.1-3
	C1045.3,175.4,1044.2,176.7,1043.9,178.5z"/>
<path d="M1061.5,174.2l-0.4,1.8c-0.6-0.3-1.2-0.4-1.8-0.4c-1.6,0-2.7,1.2-2.7,3.1v5.8h-1.8V174h1.8v1.4c0.7-1,1.9-1.6,3.1-1.6
	C1060.3,173.8,1060.9,173.9,1061.5,174.2z"/>
<path d="M1070.3,176.4c-1-0.7-2.2-1-3.4-1c-1.4,0-2.4,0.6-2.4,1.6c0,0.8,0.8,1.2,2,1.4l1.2,0.2c2.2,0.3,3.5,1.2,3.5,3
	c0,2-1.8,3.3-4.6,3.3c-1.6,0-3.1-0.4-4.4-1.3l0.8-1.3c1,0.8,2.3,1.2,3.6,1.1c1.7,0,2.8-0.6,2.8-1.6c0-0.8-0.7-1.3-2.1-1.4l-1.2-0.1
	c-2.3-0.3-3.5-1.3-3.5-2.9c0-2,1.7-3.2,4.2-3.2c1.5-0.1,2.9,0.3,4.2,1.1L1070.3,176.4z"/>
<path d="M773.9,202.1h-4v8.8h-1.8v-8.8h-2.3v-1.6h2.3v-1.8c0-2.2,1-3.8,3.5-3.8c1,0,2,0.3,2.9,0.8l-0.6,1.5
	c-0.6-0.4-1.4-0.6-2.1-0.6c-1.2,0-1.8,0.8-1.8,2.1v1.8h4v1.6H773.9z"/>
<path d="M778.2,196.8c0,0.7-0.6,1.3-1.3,1.3c-0.7,0-1.3-0.5-1.3-1.2c0,0,0-0.1,0-0.1c0-0.7,0.6-1.3,1.3-1.3
	C777.6,195.5,778.2,196,778.2,196.8C778.2,196.7,778.2,196.8,778.2,196.8z M777.9,210.9h-1.8v-10.5h1.8V210.9z"/>
<path d="M790.8,204.4v6.5H789V205c0.2-1.5-0.9-2.9-2.5-3.1c-0.1,0-0.3,0-0.4,0c-1.7-0.1-3,1.2-3.1,2.9c0,0.1,0,0.1,0,0.2v5.9h-1.8
	v-10.5h1.8v1.4c1.6-1.9,4.3-2.1,6.2-0.6C790.2,202,790.7,203.2,790.8,204.4z"/>
<path d="M804,210.9h-1.8v-1.4c-0.9,1.1-2.3,1.7-3.7,1.6c-2.9,0-5.2-2.3-5.2-5.2c0-0.1,0-0.1,0-0.2c-0.1-2.8,2.1-5.3,4.9-5.4
	c0.1,0,0.2,0,0.3,0c1.4-0.1,2.8,0.5,3.7,1.6v-1.4h1.8V210.9z M795.1,205.7c-0.1,2,1.5,3.7,3.5,3.8c0,0,0.1,0,0.1,0
	c2,0,3.6-1.6,3.6-3.6c0-0.1,0-0.2,0-0.2c0.1-2-1.5-3.7-3.5-3.8c0,0-0.1,0-0.1,0c-2,0-3.6,1.6-3.6,3.5
	C795.1,205.5,795.1,205.6,795.1,205.7z"/>
<path d="M816.9,204.4v6.5h-1.8V205c0.2-1.5-0.9-2.9-2.5-3.1c-0.1,0-0.3,0-0.4,0c-1.7-0.1-3,1.2-3.1,2.9c0,0.1,0,0.1,0,0.2v5.9h-1.8
	v-10.5h1.8v1.4c1.6-1.9,4.3-2.1,6.2-0.6C816.3,202,816.8,203.2,816.9,204.4z"/>
<path d="M828.7,201.9l-1.2,1.2c-0.8-0.7-1.7-1.2-2.8-1.2c-2.1,0.2-3.7,2-3.5,4.1c0.1,1.9,1.6,3.4,3.5,3.5c1.1,0,2.1-0.4,2.8-1.2
	l1.1,1.2c-1,1.1-2.4,1.7-3.9,1.6c-3,0-5.4-2.4-5.4-5.4c0-3,2.4-5.4,5.4-5.4C826.2,200.2,827.7,200.8,828.7,201.9z"/>
<path d="M833.2,196.8c0,0.7-0.6,1.3-1.3,1.3c-0.7,0-1.3-0.5-1.3-1.2c0,0,0-0.1,0-0.1c0-0.7,0.6-1.3,1.3-1.3
	C832.6,195.5,833.2,196,833.2,196.8C833.2,196.7,833.2,196.8,833.2,196.8z M832.8,210.9H831v-10.5h1.8V210.9z"/>
<path d="M845.5,205.6v0.7h-8.2c0.1,1.9,1.7,3.3,3.6,3.2c1.2,0,2.3-0.5,3.2-1.2l1,1.2c-1.2,1.1-2.7,1.6-4.3,1.6c-3,0-5.4-2.4-5.5-5.4
	c0-3,2.4-5.4,5.4-5.4C843.4,200.2,845.4,202.4,845.5,205.6z M837.2,204.9h6.4c0-1.7-1.4-3-3.1-3
	C838.7,201.8,837.5,203.1,837.2,204.9L837.2,204.9z"/>
<path d="M854.8,200.6l-0.4,1.8c-0.6-0.3-1.2-0.4-1.8-0.4c-1.6,0-2.7,1.2-2.7,3.1v5.8H848v-10.5h1.8v1.4c0.7-1,1.9-1.6,3.1-1.6
	C853.6,200.2,854.2,200.3,854.8,200.6z"/>
<path d="M863.7,202.8c-1-0.7-2.2-1-3.4-1c-1.4,0-2.4,0.6-2.4,1.6c0,0.8,0.8,1.2,2,1.4l1.2,0.2c2.2,0.3,3.5,1.2,3.5,3
	c0,2-1.8,3.3-4.6,3.3c-1.6,0-3.1-0.4-4.4-1.3l0.8-1.3c1,0.8,2.3,1.2,3.6,1.1c1.7,0,2.8-0.6,2.8-1.6c0-0.8-0.7-1.3-2.1-1.4l-1.2-0.1
	c-2.3-0.3-3.5-1.3-3.5-2.9c0-2,1.7-3.2,4.2-3.2c1.5-0.1,2.9,0.3,4.2,1.1L863.7,202.8z"/>
<path d="M882.5,210.9h-1.8v-1.4c-0.9,1.1-2.3,1.7-3.7,1.6c-2.9,0-5.2-2.3-5.2-5.2c0-0.1,0-0.1,0-0.2c-0.1-2.8,2.1-5.3,4.9-5.4
	c0.1,0,0.2,0,0.3,0c1.4-0.1,2.8,0.5,3.7,1.6v-1.4h1.8V210.9z M873.6,205.7c-0.1,2,1.5,3.7,3.5,3.8c0,0,0.1,0,0.1,0
	c2,0,3.6-1.6,3.6-3.6c0-0.1,0-0.2,0-0.2c0.1-2-1.5-3.7-3.5-3.8c0,0-0.1,0-0.1,0c-2,0-3.6,1.6-3.6,3.5
	C873.6,205.5,873.6,205.6,873.6,205.7z"/>
<path d="M895.3,206.5c0,3.2-2.3,4.6-4.8,4.6s-4.8-1.4-4.8-4.6v-6.1h1.8v5.9c-0.2,1.5,1,2.9,2.5,3.1c0.2,0,0.3,0,0.5,0
	c1.5,0.1,2.9-1,3-2.5c0-0.2,0-0.4,0-0.6v-5.9h1.8V206.5z"/>
<path d="M917.7,198.5l-1.6,1.1c-1.1-1.5-2.8-2.4-4.7-2.4c-3.4,0-6.1,2.7-6.1,6.1c0,3.4,2.7,6.1,6.1,6.1c1.9,0,3.6-0.9,4.7-2.4
	l1.6,1.2c-1.5,2-3.8,3.2-6.3,3.1c-4.4,0-7.9-3.5-7.9-7.9c0-4.4,3.5-7.9,7.9-7.9l0,0C913.9,195.2,916.3,196.4,917.7,198.5z"/>
<path d="M930.1,210.9h-1.8v-1.4c-0.9,1.1-2.3,1.7-3.7,1.6c-2.9,0-5.2-2.3-5.2-5.2c0-0.1,0-0.1,0-0.2c-0.1-2.8,2.1-5.3,4.9-5.4
	c0.1,0,0.2,0,0.3,0c1.4-0.1,2.8,0.5,3.7,1.6v-1.4h1.8V210.9z M921.2,205.7c-0.1,2,1.5,3.7,3.5,3.8c0,0,0.1,0,0.1,0
	c2,0,3.6-1.6,3.6-3.6c0-0.1,0-0.2,0-0.2c0.1-2-1.3-3.7-3.3-3.9c-2-0.1-3.7,1.3-3.9,3.3C921.2,205.3,921.2,205.5,921.2,205.7
	L921.2,205.7z"/>
<path d="M943,204.4v6.5h-1.8V205c0.2-1.5-0.9-2.9-2.5-3.1c-0.1,0-0.3,0-0.4,0c-1.7-0.1-3,1.2-3.1,2.9c0,0.1,0,0.1,0,0.2v5.9h-1.8
	v-10.5h1.8v1.4c0.8-1.1,2.1-1.6,3.4-1.6c2.2-0.2,4.2,1.4,4.4,3.6C943,204,943,204.2,943,204.4z"/>
<path d="M956.2,210.9h-1.8v-1.4c-0.9,1.1-2.3,1.7-3.7,1.6c-2.9,0-5.2-2.3-5.2-5.2c0-0.1,0-0.1,0-0.2c-0.1-2.8,2.1-5.3,4.9-5.4
	c0.1,0,0.2,0,0.3,0c1.4-0.1,2.8,0.5,3.7,1.6v-1.4h1.8V210.9z M947.3,205.7c-0.1,2,1.5,3.7,3.5,3.8c0,0,0.1,0,0.1,0
	c2,0,3.6-1.6,3.6-3.6c0-0.1,0-0.2,0-0.2c0.1-2-1.3-3.7-3.3-3.9c-2-0.1-3.7,1.3-3.9,3.3C947.3,205.3,947.3,205.5,947.3,205.7
	L947.3,205.7z"/>
<path d="M967.7,201.9v-6.8h1.8v15.8h-1.8v-1.4c-0.9,1.1-2.3,1.7-3.7,1.6c-2.9,0-5.2-2.3-5.2-5.2c0-0.1,0-0.1,0-0.2
	c-0.1-2.8,2.1-5.3,4.9-5.4c0.1,0,0.2,0,0.3,0C965.4,200.2,966.8,200.8,967.7,201.9z M960.6,205.7c-0.1,2,1.5,3.7,3.5,3.8
	c0,0,0.1,0,0.1,0c2,0,3.6-1.6,3.6-3.6c0-0.1,0-0.2,0-0.2c0.1-2-1.5-3.7-3.5-3.8c0,0-0.1,0-0.1,0c-2,0-3.6,1.6-3.6,3.5
	C960.6,205.5,960.6,205.6,960.6,205.7L960.6,205.7z"/>
<path d="M982.8,210.9H981v-1.4c-0.9,1.1-2.3,1.7-3.7,1.6c-2.9,0-5.2-2.3-5.2-5.2c0-0.1,0-0.1,0-0.2c-0.1-2.8,2.1-5.3,4.9-5.4
	c0.1,0,0.2,0,0.3,0c1.4-0.1,2.8,0.5,3.7,1.6v-1.4h1.8V210.9z M973.9,205.7c-0.1,2,1.5,3.7,3.5,3.8c0,0,0.1,0,0.1,0
	c2,0,3.6-1.6,3.6-3.6c0-0.1,0-0.2,0-0.2c0.1-2-1.5-3.7-3.5-3.8c0,0-0.1,0-0.1,0c-2,0-3.6,1.6-3.6,3.5
	C973.9,205.5,973.9,205.6,973.9,205.7L973.9,205.7z"/>
<path d="M999.7,201.9v-6.8h1.8v15.8h-1.8v-1.4c-0.9,1.1-2.3,1.7-3.7,1.6c-2.9,0-5.2-2.3-5.2-5.2c0-0.1,0-0.1,0-0.2
	c-0.1-2.8,2.1-5.3,4.9-5.4c0.1,0,0.2,0,0.3,0C997.4,200.2,998.8,200.8,999.7,201.9z M992.6,205.7c-0.1,2,1.5,3.7,3.5,3.8
	c0,0,0.1,0,0.1,0c2,0,3.6-1.6,3.6-3.6c0-0.1,0-0.2,0-0.2c0.1-2-1.3-3.7-3.3-3.9c-2-0.1-3.7,1.3-3.9,3.3
	C992.6,205.3,992.6,205.5,992.6,205.7L992.6,205.7z"/>
<path d="M1014.8,210.9h-1.8v-1.4c-0.9,1.1-2.3,1.7-3.7,1.6c-2.9,0-5.2-2.3-5.2-5.2c0-0.1,0-0.1,0-0.2c-0.1-2.8,2.1-5.3,4.9-5.4
	c0.1,0,0.2,0,0.3,0c1.4-0.1,2.8,0.5,3.7,1.6v-1.4h1.8V210.9z M1005.9,205.7c-0.1,2,1.5,3.7,3.5,3.8c0,0,0.1,0,0.1,0
	c2,0,3.6-1.6,3.6-3.6c0-0.1,0-0.2,0-0.2c0.1-2-1.3-3.7-3.3-3.9c-2-0.1-3.7,1.3-3.9,3.3C1005.9,205.3,1005.9,205.5,1005.9,205.7
	L1005.9,205.7z"/>
<path d="M1027.7,204.4v6.5h-1.8V205c0.2-1.5-0.9-2.9-2.5-3.1c-0.1,0-0.3,0-0.4,0c-1.7-0.1-3,1.2-3.1,2.9c0,0.1,0,0.1,0,0.2v5.9h-1.8
	v-10.5h1.8v1.4c0.8-1.1,2.1-1.6,3.4-1.6c2.2-0.2,4.2,1.4,4.4,3.6C1027.7,204,1027.7,204.2,1027.7,204.4z"/>
<path d="M1038,202.8c-1-0.7-2.2-1-3.4-1c-1.4,0-2.4,0.6-2.4,1.6c0,0.8,0.8,1.2,2,1.4l1.2,0.2c2.2,0.3,3.5,1.2,3.5,3
	c0,2-1.8,3.3-4.6,3.3c-1.6,0-3.1-0.4-4.4-1.3l0.8-1.3c1,0.8,2.3,1.2,3.6,1.1c1.7,0,2.8-0.6,2.8-1.6c0-0.8-0.7-1.3-2.1-1.4l-1.2-0.1
	c-2.3-0.3-3.5-1.3-3.5-2.9c0-2,1.7-3.2,4.2-3.2c1.5-0.1,2.9,0.3,4.2,1.1L1038,202.8z"/>
<path d="M1048.7,210.9h-1.8v-15.8h1.8V210.9z"/>
<path d="M1061.4,205.6v0.7h-8.2c0.1,1.9,1.7,3.3,3.6,3.2c1.2,0,2.3-0.5,3.2-1.2l1,1.2c-1.2,1.1-2.7,1.6-4.3,1.6
	c-3,0-5.4-2.4-5.4-5.4c0-3,2.4-5.4,5.3-5.4C1059.3,200.2,1061.4,202.4,1061.4,205.6z M1053.2,204.9h6.4c0-1.7-1.4-3-3.1-3
	C1054.6,201.8,1053.5,203.1,1053.2,204.9L1053.2,204.9z"/>
<path d="M772.6,228.3l-1.2,1.2c-0.8-0.7-1.7-1.2-2.8-1.2c-2.1,0.2-3.7,2-3.5,4.1c0.1,1.9,1.6,3.4,3.5,3.5c1.1,0,2.1-0.4,2.8-1.2
	l1.1,1.2c-1,1.1-2.4,1.7-3.9,1.6c-3,0-5.4-2.4-5.4-5.4c0-3,2.4-5.4,5.4-5.4C770.1,226.6,771.6,227.2,772.6,228.3z"/>
<path d="M784.6,237.3h-1.8v-1.4c-0.9,1.1-2.3,1.7-3.7,1.6c-2.9,0-5.2-2.3-5.2-5.2c0-0.1,0-0.1,0-0.2c-0.1-2.8,2.1-5.3,4.9-5.4
	c0.1,0,0.2,0,0.3,0c1.4-0.1,2.8,0.5,3.7,1.6v-1.4h1.8V237.3z M775.8,232.1c-0.1,2,1.5,3.7,3.5,3.8c0,0,0.1,0,0.1,0
	c2,0,3.6-1.6,3.6-3.6c0-0.1,0-0.2,0-0.2c0.1-2-1.5-3.7-3.5-3.8c0,0-0.1,0-0.1,0c-2,0-3.6,1.6-3.6,3.5
	C775.8,231.9,775.8,232,775.8,232.1z"/>
<path d="M796.1,228.3v-6.8h1.8v15.8h-1.8v-1.4c-0.9,1.1-2.3,1.7-3.7,1.6c-2.9,0-5.2-2.3-5.2-5.2c0-0.1,0-0.1,0-0.2
	c-0.1-2.8,2.1-5.3,4.9-5.4c0.1,0,0.2,0,0.3,0C793.8,226.6,795.2,227.2,796.1,228.3z M789,232.1c-0.1,2,1.5,3.7,3.5,3.8
	c0,0,0.1,0,0.1,0c2,0,3.6-1.6,3.6-3.6c0-0.1,0-0.2,0-0.2c0.1-2-1.3-3.7-3.3-3.9c-2-0.1-3.7,1.3-3.9,3.3
	C789,231.7,789,231.9,789,232.1L789,232.1z"/>
<path d="M808,227l-0.4,1.8c-0.6-0.3-1.2-0.4-1.8-0.4c-1.6,0-2.7,1.2-2.7,3.1v5.8h-1.8v-10.5h1.8v1.4c0.7-1,1.9-1.6,3.1-1.6
	C806.8,226.6,807.4,226.7,808,227z"/>
<path d="M818.9,232v0.7h-8.2c0.1,1.9,1.7,3.3,3.6,3.2c1.2,0,2.3-0.5,3.2-1.2l1,1.2c-1.2,1.1-2.7,1.6-4.3,1.6c-3,0-5.4-2.4-5.5-5.4
	c0-3,2.4-5.4,5.4-5.4C816.9,226.6,818.9,228.8,818.9,232z M810.7,231.3h6.4c0-1.7-1.4-3-3.1-3C812.1,228.2,811,229.5,810.7,231.3z"
	/>
<path d="M835.1,228.3v-6.8h1.8v15.8h-1.8v-1.4c-0.9,1.1-2.3,1.7-3.7,1.6c-2.9,0-5.2-2.3-5.2-5.2c0-0.1,0-0.1,0-0.2
	c-0.1-2.8,2.1-5.3,4.9-5.4c0.1,0,0.2,0,0.3,0C832.8,226.6,834.2,227.2,835.1,228.3z M828,232.1c-0.1,2,1.5,3.7,3.5,3.8
	c0,0,0.1,0,0.1,0c2,0,3.6-1.6,3.6-3.6c0-0.1,0-0.2,0-0.2c0.1-2-1.5-3.7-3.5-3.8c0,0-0.1,0-0.1,0c-2,0-3.6,1.6-3.6,3.5
	C828,231.9,828,232,828,232.1z"/>
<path d="M849.6,232v0.7h-8.2c0.1,1.9,1.7,3.3,3.6,3.2c1.2,0,2.3-0.5,3.2-1.2l1,1.2c-1.2,1.1-2.7,1.6-4.3,1.6c-3,0-5.4-2.4-5.5-5.4
	c0-3,2.4-5.4,5.4-5.4C847.5,226.6,849.5,228.8,849.6,232z M841.3,231.3h6.4c0-1.7-1.4-3-3.1-3C842.8,228.2,841.6,229.5,841.3,231.3z
	"/>
<path d="M859.2,229.2c-1-0.7-2.2-1-3.4-1c-1.4,0-2.4,0.6-2.4,1.6c0,0.8,0.8,1.2,2,1.4l1.2,0.2c2.2,0.3,3.5,1.2,3.5,3
	c0,2-1.8,3.3-4.6,3.3c-1.6,0-3.1-0.4-4.4-1.3l0.8-1.3c1,0.8,2.3,1.2,3.6,1.1c1.7,0,2.8-0.6,2.8-1.6c0-0.8-0.7-1.3-2.1-1.4l-1.2-0.1
	c-2.3-0.3-3.5-1.3-3.5-2.9c0-2,1.7-3.2,4.2-3.2c1.5-0.1,2.9,0.3,4.2,1.1L859.2,229.2z"/>
<path d="M874.7,228.5h-4v8.8h-1.8v-8.8h-2.3v-1.6h2.3v-1.8c0-2.2,1-3.8,3.5-3.8c1,0,2,0.3,2.9,0.8l-0.6,1.5
	c-0.6-0.4-1.4-0.6-2.1-0.6c-1.2,0-1.8,0.8-1.8,2.1v1.8h4v1.6H874.7z"/>
<path d="M886.8,232.1c0,2.9-2.3,5.4-5.3,5.4c-0.1,0-0.1,0-0.2,0c-2.9,0.1-5.4-2.1-5.5-5.1c0-0.1,0-0.2,0-0.3c0-2.9,2.3-5.4,5.3-5.4
	c0.1,0,0.1,0,0.2,0c2.9-0.1,5.4,2.1,5.5,5.1C886.8,231.9,886.8,232,886.8,232.1z M877.5,232.1c0.1,2,1.8,3.7,3.8,3.6
	c2-0.1,3.7-1.8,3.6-3.8c-0.1-2-1.7-3.6-3.7-3.6c-2,0-3.7,1.6-3.7,3.6C877.5,232,877.5,232,877.5,232.1z"/>
<path d="M898.9,230.8v6.5h-1.8v-5.9c0.2-1.5-0.9-2.9-2.5-3.1c-0.1,0-0.3,0-0.4,0c-1.7-0.1-3,1.2-3.1,2.9c0,0.1,0,0.1,0,0.2v5.9h-1.8
	v-10.5h1.8v1.4c1.6-1.9,4.3-2.1,6.2-0.6C898.3,228.4,898.8,229.6,898.9,230.8z"/>
<path d="M910.3,228.3v-6.8h1.8v15.8h-1.8v-1.4c-0.9,1.1-2.3,1.7-3.7,1.6c-2.9,0-5.2-2.3-5.2-5.2c0-0.1,0-0.1,0-0.2
	c-0.1-2.8,2.1-5.3,4.9-5.4c0.1,0,0.2,0,0.3,0C908,226.6,909.4,227.2,910.3,228.3z M903.2,232.1c-0.1,2,1.5,3.7,3.5,3.8
	c0,0,0.1,0,0.1,0c2,0,3.6-1.6,3.6-3.6c0-0.1,0-0.2,0-0.2c0.1-2-1.5-3.7-3.5-3.8c0,0-0.1,0-0.1,0c-2,0-3.6,1.6-3.6,3.5
	C903.2,231.9,903.2,232,903.2,232.1z"/>
<path d="M922.5,229.2c-1-0.7-2.2-1-3.4-1c-1.4,0-2.4,0.6-2.4,1.6c0,0.8,0.8,1.2,2,1.4l1.2,0.2c2.2,0.3,3.5,1.2,3.5,3
	c0,2-1.8,3.3-4.6,3.3c-1.6,0-3.1-0.4-4.4-1.3l0.8-1.3c1,0.8,2.3,1.2,3.6,1.1c1.7,0,2.8-0.6,2.8-1.6c0-0.8-0.7-1.3-2.1-1.4l-1.2-0.1
	c-2.3-0.3-3.5-1.3-3.5-2.9c0-2,1.7-3.2,4.2-3.2c1.5-0.1,2.9,0.3,4.2,1.1L922.5,229.2z"/>
<path d="M939.5,228.3v-6.8h1.8v15.8h-1.8v-1.4c-0.9,1.1-2.3,1.7-3.7,1.6c-2.9,0-5.2-2.3-5.2-5.2c0-0.1,0-0.1,0-0.2
	c-0.1-2.8,2.1-5.3,4.9-5.4c0.1,0,0.2,0,0.3,0C937.2,226.6,938.6,227.2,939.5,228.3z M932.4,232.1c-0.1,2,1.5,3.7,3.5,3.8
	c0,0,0.1,0,0.1,0c2,0,3.6-1.6,3.6-3.6c0-0.1,0-0.2,0-0.2c0.1-2-1.5-3.7-3.5-3.8c0,0-0.1,0-0.1,0c-2,0-3.6,1.6-3.6,3.5
	C932.4,231.9,932.4,232,932.4,232.1z"/>
<path d="M954,232v0.7h-8.2c0.1,1.9,1.7,3.3,3.6,3.2c1.2,0,2.3-0.5,3.2-1.2l1,1.2c-1.2,1.1-2.7,1.6-4.3,1.6c-3,0-5.4-2.4-5.5-5.4
	c0-3,2.4-5.4,5.4-5.4C951.9,226.6,954,228.8,954,232z M945.8,231.3h6.4c-0.1-1.8-1.7-3.1-3.5-2.9
	C947.2,228.5,945.9,229.7,945.8,231.3z"/>
<path d="M970.5,228.3l-1.2,1.2c-0.8-0.7-1.7-1.2-2.8-1.2c-2.1,0.2-3.7,2-3.5,4.1c0.1,1.9,1.6,3.4,3.5,3.5c1.1,0,2.1-0.4,2.8-1.2
	l1.1,1.2c-1,1.1-2.4,1.7-3.9,1.6c-3,0-5.4-2.4-5.4-5.4c0-3,2.4-5.4,5.4-5.4l0,0C968,226.5,969.5,227.1,970.5,228.3z"/>
<path d="M982.9,232.1c0,2.9-2.3,5.4-5.3,5.4c-0.1,0-0.1,0-0.2,0c-2.9,0.1-5.4-2.1-5.5-5.1c0-0.1,0-0.2,0-0.3c0-2.9,2.3-5.4,5.3-5.4
	c0.1,0,0.1,0,0.2,0c2.9-0.1,5.4,2.1,5.5,5.1C982.9,231.9,982.9,232,982.9,232.1z M973.7,232.1c0.1,2,1.8,3.7,3.8,3.6
	c2-0.1,3.7-1.8,3.6-3.8c-0.1-2-1.7-3.6-3.7-3.6c-2,0-3.7,1.6-3.7,3.6C973.7,232,973.7,232,973.7,232.1z"/>
<path d="M994.9,232.9c0,3.2-2.3,4.6-4.8,4.6s-4.8-1.4-4.8-4.6v-6.1h1.8v5.9c-0.2,1.5,1,2.9,2.5,3.1c0.2,0,0.3,0,0.5,0
	c1.5,0.1,2.9-1,3-2.5c0-0.2,0-0.4,0-0.6v-5.9h1.8V232.9z"/>
<path d="M1003.1,237.3h-2.1l-4.4-10.5h2l3.5,8.6l3.5-8.6h1.9L1003.1,237.3z"/>
<path d="M1018.4,232v0.7h-8.2c0.1,1.9,1.7,3.3,3.6,3.2c1.2,0,2.3-0.5,3.2-1.2l1,1.2c-1.2,1.1-2.7,1.6-4.3,1.6c-3,0-5.4-2.4-5.5-5.4
	c0-3,2.4-5.4,5.4-5.4C1016.4,226.6,1018.4,228.8,1018.4,232z M1010.2,231.3h6.4c0-1.7-1.4-3-3.1-3
	C1011.6,228.2,1010.5,229.5,1010.2,231.3z"/>
<path d="M1027.7,227l-0.4,1.8c-0.6-0.3-1.2-0.4-1.8-0.4c-1.6,0-2.7,1.2-2.7,3.1v5.8h-1.8v-10.5h1.8v1.4c0.7-1,1.9-1.6,3.1-1.6
	C1026.5,226.6,1027.1,226.7,1027.7,227z"/>
<path d="M1037.1,228.5h-4.4v5.1c0,1.6,0.8,2.3,2,2.3c0.8,0,1.5-0.3,2.1-0.7l0.8,1.4c-0.9,0.7-2,1-3.1,1c-2.3,0-3.6-1.2-3.6-3.9v-5.1
	h-2.2V227h2.2v-3.3h1.8v3.3h4.4L1037.1,228.5L1037.1,228.5z"/>
<path d="M1049,232.9c0,3.2-2.3,4.6-4.8,4.6s-4.8-1.4-4.8-4.6v-6.1h1.8v5.9c-0.2,1.5,1,2.9,2.5,3.1c0.2,0,0.3,0,0.5,0
	c1.5,0.1,2.9-1,3-2.5c0-0.2,0-0.4,0-0.6v-5.9h1.8V232.9z"/>
<path d="M1059,227l-0.4,1.8c-0.6-0.3-1.2-0.4-1.8-0.4c-1.6,0-2.7,1.2-2.7,3.1v5.8h-1.8v-10.5h1.8v1.4c0.7-1,1.9-1.6,3.1-1.6
	C1057.8,226.6,1058.4,226.7,1059,227z"/>
<path d="M1069.9,232v0.7h-8.2c0.1,1.9,1.7,3.3,3.6,3.2c1.2,0,2.3-0.5,3.2-1.2l1,1.2c-1.2,1.1-2.7,1.6-4.3,1.6c-3,0-5.4-2.4-5.4-5.4
	c0-3,2.4-5.4,5.3-5.4C1067.8,226.6,1069.8,228.8,1069.9,232z M1061.6,231.3h6.4c0-1.7-1.4-3-3.1-3
	C1063.1,228.2,1061.9,229.5,1061.6,231.3z"/>
<path d="M24.6,175.2v-6.8h1.8v15.8h-1.8v-1.4c-0.9,1.1-2.3,1.7-3.7,1.6c-3,0-5.4-2.4-5.4-5.4c0-3,2.4-5.4,5.4-5.4l0,0
	C22.3,173.5,23.7,174.1,24.6,175.2z M17.5,179c-0.1,2,1.5,3.7,3.5,3.8c0,0,0.1,0,0.1,0c2,0,3.6-1.6,3.6-3.6c0-0.1,0-0.2,0-0.2
	c0.1-2-1.3-3.7-3.3-3.9c-2-0.1-3.7,1.3-3.9,3.3C17.5,178.6,17.5,178.8,17.5,179z"/>
<path d="M39.1,179v0.7h-8.2c0.1,1.9,1.7,3.3,3.6,3.2c1.2,0,2.3-0.5,3.2-1.2l1,1.2c-1.2,1.1-2.7,1.6-4.3,1.6c-3,0-5.4-2.4-5.5-5.4
	c0-3,2.4-5.4,5.4-5.4C37,173.6,39.1,175.8,39.1,179z M30.9,178.2h6.4c0-1.7-1.4-3-3.1-3C32.5,175.1,31,176.4,30.9,178.2
	C30.9,178.2,30.9,178.2,30.9,178.2z"/>
<path d="M52.4,179c0.1,2.8-2.1,5.3-4.9,5.4c-0.1,0-0.2,0-0.3,0c-1.4,0.1-2.8-0.5-3.7-1.6v5.8h-1.8v-14.9h1.8v1.4
	c0.9-1.1,2.3-1.7,3.7-1.6C50.2,173.6,52.5,176,52.4,179z M43.3,179c-0.1,2,1.5,3.7,3.5,3.8c0,0,0.1,0,0.1,0c2,0,3.6-1.6,3.6-3.5
	c0-0.1,0-0.2,0-0.3c0.1-2-1.5-3.7-3.5-3.8c0,0-0.1,0-0.1,0C44.9,175.2,43.3,176.9,43.3,179C43.3,179,43.3,179,43.3,179z"/>
<path d="M64.4,179.9c0,3.2-2.3,4.6-4.8,4.6s-4.8-1.4-4.8-4.6v-6.1h1.8v5.9c-0.2,1.5,1,2.9,2.5,3.1c0.2,0,0.3,0,0.5,0
	c1.5,0.1,2.9-1,3-2.5c0-0.2,0-0.4,0-0.6v-5.9h1.8V179.9z"/>
<path d="M69.8,170.1c0,0.7-0.6,1.3-1.3,1.3c-0.7,0-1.3-0.5-1.3-1.2c0,0,0-0.1,0-0.1c0-0.7,0.6-1.3,1.3-1.3
	C69.2,168.8,69.8,169.4,69.8,170.1z M69.4,184.2h-1.8v-10.5h1.8V184.2z"/>
<path d="M79.8,176.1c-1-0.7-2.2-1-3.4-1c-1.4,0-2.4,0.6-2.4,1.6c0,0.8,0.8,1.2,2,1.4l1.2,0.2c2.2,0.3,3.5,1.2,3.5,3
	c0,2-1.8,3.3-4.6,3.3c-1.6,0-3.1-0.4-4.4-1.3l0.8-1.3c1,0.8,2.3,1.2,3.6,1.1c1.7,0,2.8-0.6,2.8-1.6c0-0.8-0.7-1.3-2.1-1.4l-1.2-0.1
	c-2.3-0.3-3.5-1.3-3.5-2.9c0-2,1.7-3.2,4.2-3.2c1.5-0.1,2.9,0.3,4.2,1.1L79.8,176.1z"/>
<path d="M87.7,171.2c1-1.7,2.8-2.7,4.8-2.6c2.6-0.2,4.8,1.8,5,4.3c0,0.2,0,0.3,0,0.5c-0.1,1.7-0.8,3.2-2.1,4.3l-4.4,4.7h7v1.8h-9.7
	v-1.5l5.8-6.1c0.9-0.9,1.4-2,1.5-3.3c0.1-1.6-1.1-2.9-2.7-3c-0.1,0-0.3,0-0.4,0c-1.4,0-2.7,0.7-3.4,1.9L87.7,171.2z"/>
<path d="M112.7,176.5c0,4.9-2.9,7.9-6.4,7.9s-6.4-3-6.4-7.9s2.9-7.9,6.4-7.9S112.7,171.6,112.7,176.5z M101.9,176.5
	c0,4,2,6.1,4.4,6.1s4.4-2.2,4.4-6.1s-2-6.1-4.4-6.1S101.9,172.6,101.9,176.5z"/>
<path d="M127.9,176.5c0,4.9-2.9,7.9-6.4,7.9s-6.4-3-6.4-7.9s2.9-7.9,6.4-7.9S127.9,171.6,127.9,176.5z M117,176.5c0,4,2,6.1,4.4,6.1
	s4.4-2.2,4.4-6.1s-2-6.1-4.4-6.1S117,172.6,117,176.5z"/>
<path d="M141.2,172.9c0,1.6-1,3.1-2.6,3.6c1.6,0.6,3,1.7,3,3.7c0,2.8-2.6,4.3-5.8,4.3s-5.7-1.6-5.7-4.3c0.1-1.8,1.3-3.3,3-3.7
	c-1.6-0.5-2.6-2-2.6-3.6c0-2.7,2.4-4.3,5.4-4.3S141.2,170.2,141.2,172.9z M132,180c0,1.8,1.7,2.7,3.8,2.7s3.8-0.9,3.8-2.7
	s-1.7-2.7-3.8-2.7S132,178.3,132,180z M132.4,173c0,1.8,1.5,2.7,3.4,2.7s3.4-0.9,3.4-2.7s-1.5-2.6-3.4-2.6S132.4,171.3,132.4,173z"
	/>
<path d="M146.4,181.5l-1.2,5.7h-1.6l0.6-5.7H146.4z"/>
<path d="M163.2,175.2l-1.2,1.2c-0.8-0.7-1.7-1.2-2.8-1.2c-2.1,0.2-3.7,2-3.5,4.1c0.1,1.9,1.6,3.4,3.5,3.5c1.1,0,2.1-0.4,2.8-1.2
	l1.1,1.2c-1,1.1-2.4,1.7-3.9,1.6c-3,0-5.4-2.4-5.4-5.4c0-3,2.4-5.4,5.4-5.4C160.7,173.5,162.2,174.1,163.2,175.2z"/>
<path d="M174.7,179v0.7h-8.2c0.1,1.9,1.7,3.3,3.6,3.2c1.2,0,2.3-0.5,3.2-1.2l1,1.2c-1.2,1.1-2.7,1.6-4.3,1.6c-3,0-5.4-2.4-5.4-5.4
	c0-3,2.4-5.4,5.3-5.4C172.6,173.6,174.7,175.8,174.7,179z M166.4,178.2h6.4c0-1.7-1.4-3-3.1-3C168,175.2,166.5,176.5,166.4,178.2z"
	/>
<path d="M190.8,175.2v-1.4h1.8v14.9h-1.8v-5.8c-0.9,1.1-2.3,1.7-3.7,1.6c-3,0-5.4-2.4-5.4-5.4c0-3,2.4-5.4,5.4-5.4
	C188.5,173.5,189.9,174.1,190.8,175.2z M183.7,179c-0.1,2,1.5,3.7,3.5,3.8c0,0,0.1,0,0.1,0c2,0,3.6-1.6,3.6-3.6c0-0.1,0-0.2,0-0.2
	c0.1-2-1.5-3.7-3.5-3.8c0,0-0.1,0-0.1,0C185.3,175.2,183.7,176.9,183.7,179C183.7,179,183.7,179,183.7,179z"/>
<path d="M205.4,179.9c0,3.2-2.3,4.6-4.8,4.6s-4.8-1.4-4.8-4.6v-6.1h1.8v5.9c-0.2,1.5,1,2.9,2.5,3.1c0.2,0,0.3,0,0.5,0
	c1.5,0.1,2.9-1,3-2.5c0-0.2,0-0.4,0-0.6v-5.9h1.8V179.9z"/>
<path d="M210.8,170.1c0,0.7-0.6,1.3-1.3,1.3c-0.7,0-1.3-0.5-1.3-1.2c0,0,0-0.1,0-0.1c0-0.7,0.6-1.3,1.3-1.3
	C210.2,168.8,210.8,169.3,210.8,170.1C210.8,170,210.8,170.1,210.8,170.1z M210.5,184.2h-1.8v-10.5h1.8V184.2z"/>
<path d="M228.6,179v0.7h-8.2c0.1,1.9,1.7,3.3,3.6,3.2c1.2,0,2.3-0.5,3.2-1.2l1,1.2c-1.2,1.1-2.7,1.6-4.3,1.6c-3,0-5.4-2.4-5.4-5.4
	c0-3,2.4-5.4,5.3-5.4C226.5,173.6,228.6,175.8,228.6,179z M220.4,178.2h6.4c0-1.7-1.4-3-3.1-3C222,175.1,220.5,176.4,220.4,178.2
	C220.4,178.2,220.4,178.2,220.4,178.2L220.4,178.2z"/>
<path d="M240.7,177.8v6.5h-1.8v-5.9c0.2-1.5-0.9-2.9-2.5-3.1c-0.1,0-0.3,0-0.4,0c-1.7-0.1-3,1.2-3.1,2.9c0,0.1,0,0.1,0,0.2v5.9h-1.8
	v-10.5h1.8v1.4c0.8-1.1,2.1-1.6,3.4-1.6c2.2-0.2,4.2,1.4,4.4,3.6C240.7,177.4,240.7,177.6,240.7,177.8z"/>
<path d="M256.1,175.4h-4v8.8h-1.8v-8.8H248v-1.6h2.3V172c0-2.2,1-3.8,3.5-3.8c1,0,2,0.3,2.9,0.8l-0.6,1.5c-0.6-0.4-1.4-0.6-2.1-0.6
	c-1.2,0-1.8,0.8-1.8,2.1v1.8h4v1.6L256.1,175.4z"/>
<path d="M267.8,184.2H266v-1.4c-0.9,1.1-2.3,1.7-3.7,1.6c-3,0-5.4-2.4-5.4-5.4c0-3,2.4-5.4,5.4-5.4c1.4-0.1,2.8,0.5,3.7,1.6v-1.4
	h1.8V184.2z M258.9,179c-0.1,2,1.5,3.7,3.5,3.8c0,0,0.1,0,0.1,0c2,0,3.6-1.6,3.6-3.6c0-0.1,0-0.2,0-0.2c0.1-2-1.3-3.7-3.3-3.9
	s-3.7,1.3-3.9,3.3C258.9,178.6,258.9,178.8,258.9,179z"/>
<path d="M273.3,170.1c0,0.7-0.6,1.3-1.3,1.3c-0.7,0-1.3-0.5-1.3-1.2c0,0,0-0.1,0-0.1c0-0.7,0.6-1.3,1.3-1.3
	C272.7,168.8,273.3,169.4,273.3,170.1L273.3,170.1z M272.9,184.2h-1.8v-10.5h1.8V184.2z"/>
<path d="M283.4,175.4H279v5.1c0,1.6,0.8,2.3,2,2.3c0.8,0,1.5-0.3,2.1-0.7l0.8,1.4c-0.9,0.7-2,1-3.1,1c-2.3,0-3.6-1.2-3.6-3.9v-5.1
	H275v-1.6h2.2v-3.3h1.8v3.3h4.4V175.4z"/>
<path d="M293.1,184.2h-1.8v-15.8h1.8V184.2z"/>
<path d="M306.4,184.2h-1.8v-1.4c-0.9,1.1-2.3,1.7-3.7,1.6c-3,0-5.4-2.4-5.4-5.4c0-3,2.4-5.4,5.4-5.4c1.4-0.1,2.8,0.5,3.7,1.6v-1.4
	h1.8V184.2z M297.5,179c-0.1,2,1.5,3.7,3.5,3.8c0,0,0.1,0,0.1,0c2,0,3.6-1.6,3.6-3.6c0-0.1,0-0.2,0-0.2c0.1-2-1.3-3.7-3.3-3.9
	s-3.7,1.3-3.9,3.3C297.5,178.6,297.5,178.8,297.5,179z"/>
<path d="M18.9,202.5c-1-0.7-2.2-1-3.4-1c-1.4,0-2.4,0.6-2.4,1.6c0,0.8,0.8,1.2,2,1.4l1.2,0.2c2.2,0.3,3.5,1.2,3.5,3
	c0,2-1.8,3.3-4.6,3.3c-1.6,0-3.1-0.4-4.4-1.3l0.8-1.3c1,0.8,2.3,1.2,3.6,1.1c1.7,0,2.8-0.6,2.8-1.6c0-0.8-0.7-1.3-2.1-1.4l-1.2-0.1
	c-2.3-0.3-3.5-1.3-3.5-2.9c0-2,1.7-3.2,4.2-3.2c1.5-0.1,2.9,0.3,4.2,1.1L18.9,202.5z"/>
<path d="M32.6,205.4c0,2.9-2.3,5.4-5.3,5.4c-0.1,0-0.1,0-0.2,0c-3,0-5.4-2.4-5.4-5.4c0-3,2.4-5.4,5.4-5.4c2.9-0.1,5.4,2.2,5.5,5.2
	C32.6,205.3,32.6,205.3,32.6,205.4z M23.4,205.4c0.1,2,1.8,3.7,3.8,3.6c2-0.1,3.7-1.8,3.6-3.8c-0.1-2-1.7-3.6-3.7-3.6
	C25.1,201.6,23.4,203.3,23.4,205.4C23.4,205.3,23.4,205.4,23.4,205.4z"/>
<path d="M44.6,206.3c0,3.2-2.3,4.6-4.8,4.6s-4.8-1.4-4.8-4.6v-6.1h1.8v5.9c-0.2,1.5,1,2.9,2.5,3.1c0.2,0,0.3,0,0.5,0
	c1.5,0.1,2.9-1,3-2.5c0-0.2,0-0.4,0-0.6v-5.9h1.8V206.3z"/>
<path d="M54.9,202.5c-1-0.7-2.2-1-3.4-1c-1.4,0-2.4,0.6-2.4,1.6c0,0.8,0.8,1.2,2,1.4l1.2,0.2c2.2,0.3,3.5,1.2,3.5,3
	c0,2-1.8,3.3-4.6,3.3c-1.6,0-3.1-0.4-4.4-1.3l0.8-1.3c1,0.8,2.3,1.2,3.6,1.1c1.7,0,2.8-0.6,2.8-1.6c0-0.8-0.7-1.3-2.1-1.4l-1.2-0.1
	c-2.3-0.3-3.5-1.3-3.5-2.9c0-2,1.7-3.2,4.2-3.2c1.5-0.1,2.9,0.3,4.2,1.1L54.9,202.5z"/>
<path d="M64.2,205.6H58V204h6.2V205.6z"/>
<path d="M75.7,201.6l-1.2,1.2c-0.8-0.7-1.7-1.2-2.8-1.2c-2.1,0.2-3.7,2-3.5,4.1c0.1,1.9,1.6,3.4,3.5,3.5c1.1,0,2.1-0.4,2.8-1.2
	l1.1,1.2c-1,1.1-2.4,1.7-3.9,1.6c-3,0-5.4-2.4-5.4-5.4c0-3,2.4-5.4,5.4-5.4l0,0C73.2,199.9,74.7,200.5,75.7,201.6z"/>
<path d="M87.7,210.7h-1.8v-1.4c-0.9,1.1-2.3,1.7-3.7,1.6c-2.9,0-5.2-2.3-5.2-5.2c0-0.1,0-0.1,0-0.2c-0.1-2.8,2.1-5.3,4.9-5.4
	c0.1,0,0.2,0,0.3,0c1.4-0.1,2.8,0.5,3.7,1.6v-1.4h1.8L87.7,210.7z M78.9,205.4c-0.1,2,1.5,3.7,3.5,3.8c0,0,0.1,0,0.1,0
	c2,0,3.6-1.6,3.6-3.6c0-0.1,0-0.2,0-0.2c0.1-2-1.3-3.7-3.3-3.9c-2-0.1-3.7,1.3-3.9,3.3C78.9,205,78.9,205.2,78.9,205.4z"/>
<path d="M98.2,201.8h-4.4v5.1c0,1.6,0.8,2.3,2,2.3c0.8,0,1.5-0.3,2.1-0.7l0.8,1.4c-0.9,0.7-2,1-3.1,1c-2.3,0-3.6-1.2-3.6-3.9v-5.1
	h-2.2v-1.6H92V197h1.8v3.3h4.4L98.2,201.8z"/>
<path d="M109.9,205.4v0.7h-8.2c0.1,1.9,1.7,3.3,3.6,3.2c1.2,0,2.3-0.5,3.2-1.2l1,1.2c-1.2,1.1-2.7,1.6-4.3,1.6c-3,0-5.4-2.4-5.4-5.4
	c0-3,2.4-5.4,5.3-5.4C107.9,200,109.9,202.2,109.9,205.4z M101.7,204.6h6.4c0-1.7-1.4-3-3.1-3C103.3,201.5,101.8,202.9,101.7,204.6
	L101.7,204.6z M103.5,198.6l2.3-3.3h2.3l-2.8,3.3H103.5z"/>
<path d="M120.5,201.6v-1.4h1.8v9.7c0,3.4-2.3,5.3-5.6,5.3c-1.6,0-3.1-0.5-4.4-1.4l0.8-1.5c1,0.8,2.3,1.2,3.6,1.2
	c1.9,0.2,3.6-1.2,3.8-3.1c0-0.2,0-0.3,0-0.5V209c-0.9,1.1-2.2,1.7-3.6,1.6c-2.8,0-5.2-2.2-5.2-5.1c0-0.1,0-0.2,0-0.3
	c-0.2-2.8,2-5.2,4.8-5.4c0.1,0,0.3,0,0.4,0C118.3,199.9,119.6,200.5,120.5,201.6z M113.6,205.3c-0.1,1.9,1.4,3.6,3.4,3.7
	c0,0,0.1,0,0.1,0c1.9,0,3.5-1.5,3.5-3.4c0-0.1,0-0.2,0-0.3c0.1-1.9-1.4-3.6-3.4-3.7c0,0-0.1,0-0.1,0
	C115.1,201.6,113.6,203.3,113.6,205.3C113.6,205.3,113.6,205.3,113.6,205.3z"/>
<path d="M135.9,205.4c0.1,3-2.4,5.5-5.4,5.6c-3,0.1-5.5-2.4-5.6-5.4c-0.1-3,2.4-5.5,5.4-5.6c0,0,0.1,0,0.1,0
	c2.9-0.1,5.4,2.2,5.5,5.2C135.9,205.3,135.9,205.3,135.9,205.4z M126.7,205.4c0.1,2,1.8,3.7,3.8,3.6c2-0.1,3.7-1.8,3.6-3.8
	c-0.1-2-1.7-3.6-3.7-3.6C128.4,201.6,126.7,203.3,126.7,205.4C126.7,205.3,126.7,205.4,126.7,205.4z"/>
<path d="M145.2,200.3l-0.4,1.8c-0.6-0.3-1.2-0.4-1.8-0.4c-1.6,0-2.7,1.2-2.7,3.1v5.8h-1.8v-10.5h1.8v1.4c0.7-1,1.9-1.6,3.1-1.6
	C144,200,144.6,200.1,145.2,200.3z"/>
<path d="M149.4,196.5c0,0.7-0.6,1.3-1.3,1.3c-0.7,0-1.3-0.5-1.3-1.2c0,0,0-0.1,0-0.1c0-0.7,0.6-1.3,1.3-1.3
	C148.8,195.2,149.4,195.7,149.4,196.5C149.4,196.4,149.4,196.5,149.4,196.5z M149.1,210.7h-1.8v-10.5h1.8V210.7z"/>
<path d="M161.8,205.4v0.7h-8.2c0.1,1.9,1.7,3.3,3.6,3.2c1.2,0,2.3-0.5,3.2-1.2l1,1.2c-1.2,1.1-2.7,1.6-4.3,1.6c-3,0-5.4-2.4-5.4-5.4
	c0-3,2.4-5.4,5.3-5.4C159.7,200,161.7,202.2,161.8,205.4z M153.5,204.6h6.4c0-1.7-1.4-3-3.1-3C155.1,201.6,153.6,202.9,153.5,204.6
	L153.5,204.6z"/>
<path d="M177.9,201.6v-6.8h1.8v15.8h-1.8v-1.4c-0.9,1.1-2.3,1.7-3.7,1.6c-2.9,0-5.2-2.3-5.2-5.2c0-0.1,0-0.1,0-0.2
	c-0.1-2.8,2.1-5.3,4.9-5.4c0.1,0,0.2,0,0.3,0C175.6,199.9,177,200.5,177.9,201.6z M170.8,205.4c-0.1,2,1.5,3.7,3.5,3.8
	c0,0,0.1,0,0.1,0c2,0,3.6-1.6,3.6-3.6c0-0.1,0-0.2,0-0.2c0.1-2-1.3-3.7-3.3-3.9s-3.7,1.3-3.9,3.3C170.8,205,170.8,205.2,170.8,205.4
	L170.8,205.4z"/>
<path d="M185.2,194.8l-1.2,5.7h-1.6l0.6-5.7H185.2z"/>
<path d="M196.7,210.7h-1.8v-1.4c-0.9,1.1-2.3,1.7-3.7,1.6c-2.9,0-5.2-2.3-5.2-5.2c0-0.1,0-0.1,0-0.2c-0.1-2.8,2.1-5.3,4.9-5.4
	c0.1,0,0.2,0,0.3,0c1.4-0.1,2.8,0.5,3.7,1.6v-1.4h1.8V210.7z M187.9,205.4c-0.1,2,1.5,3.7,3.5,3.8c0,0,0.1,0,0.1,0
	c2,0,3.6-1.6,3.6-3.6c0-0.1,0-0.2,0-0.2c0.1-2-1.3-3.7-3.3-3.9s-3.7,1.3-3.9,3.3C187.9,205,187.9,205.2,187.9,205.4L187.9,205.4z"/>
<path d="M201.9,210.7h-1.8v-15.8h1.8V210.7z"/>
<path d="M212.4,201.8H208v5.1c0,1.6,0.8,2.3,2,2.3c0.8,0,1.5-0.3,2.1-0.7l0.8,1.4c-0.9,0.7-2,1-3.1,1c-2.3,0-3.6-1.2-3.6-3.9v-5.1
	H204v-1.6h2.2V197h1.8v3.3h4.4V201.8z"/>
<path d="M224.1,205.4v0.7h-8.2c0.1,1.9,1.7,3.3,3.6,3.2c1.2,0,2.3-0.5,3.2-1.2l1,1.2c-1.2,1.1-2.7,1.6-4.3,1.6c-3,0-5.4-2.4-5.4-5.4
	c0-3,2.4-5.4,5.3-5.4C222,200,224.1,202.2,224.1,205.4z M215.9,204.6h6.4c0-1.7-1.4-3-3.1-3C217.5,201.5,216,202.8,215.9,204.6
	C215.9,204.6,215.9,204.6,215.9,204.6L215.9,204.6z"/>
<path d="M233.4,200.3l-0.4,1.8c-0.6-0.3-1.2-0.4-1.8-0.4c-1.6,0-2.7,1.2-2.7,3.1v5.8h-1.8v-10.5h1.8v1.4c0.7-1,1.9-1.6,3.1-1.6
	C232.2,200,232.8,200.1,233.4,200.3z"/>
<path d="M245,204.2v6.5h-1.8v-5.9c0.2-1.5-0.9-2.9-2.5-3.1c-0.1,0-0.3,0-0.4,0c-1.7-0.1-3,1.2-3.1,2.9c0,0.1,0,0.1,0,0.2v5.9h-1.8
	v-10.5h1.8v1.4c1.6-1.9,4.3-2.1,6.2-0.6C244.4,201.8,244.9,203,245,204.2z"/>
<path d="M258.2,210.7h-1.8v-1.4c-0.9,1.1-2.3,1.7-3.7,1.6c-2.9,0-5.2-2.3-5.2-5.2c0-0.1,0-0.1,0-0.2c-0.1-2.8,2.1-5.3,4.9-5.4
	c0.1,0,0.2,0,0.3,0c1.4-0.1,2.8,0.5,3.7,1.6v-1.4h1.8V210.7z M249.3,205.4c-0.1,2,1.5,3.7,3.5,3.8c0,0,0.1,0,0.1,0
	c2,0,3.6-1.6,3.6-3.6c0-0.1,0-0.2,0-0.2c0.1-2-1.3-3.7-3.3-3.9s-3.7,1.3-3.9,3.3C249.3,205,249.3,205.2,249.3,205.4L249.3,205.4z"/>
<path d="M268.6,201.8h-4.4v5.1c0,1.6,0.8,2.3,2,2.3c0.8,0,1.5-0.3,2.1-0.7l0.8,1.4c-0.9,0.7-2,1-3.1,1c-2.3,0-3.6-1.2-3.6-3.9v-5.1
	h-2.2v-1.6h2.2V197h1.8v3.3h4.4L268.6,201.8L268.6,201.8z"/>
<path d="M273.3,196.5c0,0.7-0.6,1.3-1.3,1.3c-0.7,0-1.3-0.5-1.3-1.2c0,0,0-0.1,0-0.1c0-0.7,0.6-1.3,1.3-1.3
	C272.7,195.2,273.3,195.8,273.3,196.5L273.3,196.5L273.3,196.5z M272.9,210.7h-1.8v-10.5h1.8V210.7z"/>
<path d="M283.1,201.8h-4v8.8h-1.8v-8.8H275v-1.6h2.3v-1.8c0-2.2,1-3.8,3.5-3.8c1,0,2,0.3,2.9,0.8l-0.6,1.5c-0.6-0.4-1.4-0.6-2.1-0.6
	c-1.2,0-1.8,0.8-1.8,2.1v1.8h4L283.1,201.8L283.1,201.8z"/>
<path d="M292.2,202.5c-1-0.7-2.2-1-3.4-1c-1.4,0-2.4,0.6-2.4,1.6c0,0.8,0.8,1.2,2,1.4l1.2,0.2c2.2,0.3,3.5,1.2,3.5,3
	c0,2-1.8,3.3-4.6,3.3c-1.6,0-3.1-0.4-4.4-1.3l0.8-1.3c1,0.8,2.3,1.2,3.6,1.1c1.7,0,2.8-0.6,2.8-1.6c0-0.8-0.7-1.3-2.1-1.4l-1.2-0.1
	c-2.3-0.3-3.5-1.3-3.5-2.9c0-2,1.7-3.2,4.2-3.2c1.5-0.1,2.9,0.3,4.2,1.1L292.2,202.5z"/>
<path d="M311,210.7h-1.8v-1.4c-0.9,1.1-2.3,1.7-3.7,1.6c-2.9,0-5.2-2.3-5.2-5.2c0-0.1,0-0.1,0-0.2c-0.1-2.8,2.1-5.3,4.9-5.4
	c0.1,0,0.2,0,0.3,0c1.4-0.1,2.8,0.5,3.7,1.6v-1.4h1.8V210.7z M302.1,205.4c-0.1,2,1.5,3.7,3.5,3.8c0,0,0.1,0,0.1,0
	c2,0,3.6-1.6,3.6-3.6c0-0.1,0-0.2,0-0.2c0.1-2-1.3-3.7-3.3-3.9s-3.7,1.3-3.9,3.3C302.1,205,302.1,205.2,302.1,205.4z M302.7,195.3
	h2.3l2.2,3.3h-1.8L302.7,195.3z"/>
<path d="M14.1,237h-1.8v-15.8h1.8V237z"/>
<path d="M27.4,237h-1.8v-1.4c-0.9,1.1-2.3,1.7-3.7,1.6c-2.9,0-5.2-2.3-5.2-5.2c0-0.1,0-0.1,0-0.2c-0.1-2.8,2.1-5.3,4.9-5.4
	c0.1,0,0.2,0,0.3,0c1.4-0.1,2.8,0.5,3.7,1.6v-1.4h1.8L27.4,237z M18.5,231.8c-0.1,2,1.5,3.7,3.5,3.8c0,0,0.1,0,0.1,0
	c2,0,3.6-1.6,3.6-3.6c0-0.1,0-0.2,0-0.2c0.1-2-1.3-3.7-3.3-3.9c-2-0.1-3.7,1.3-3.9,3.3C18.5,231.4,18.5,231.6,18.5,231.8z"/>
<path d="M44.7,228l-1.2,1.2c-0.8-0.7-1.7-1.2-2.8-1.2c-2.1,0.2-3.7,2-3.5,4.1c0.1,1.9,1.6,3.4,3.5,3.5c1.1,0,2.1-0.4,2.8-1.2
	l1.1,1.2c-1,1.1-2.4,1.7-3.9,1.6c-3,0-5.4-2.4-5.4-5.4c0-3,2.4-5.4,5.4-5.4l0,0C42.2,226.3,43.7,226.9,44.7,228z"/>
<path d="M53.8,226.7l-0.4,1.8c-0.6-0.3-1.2-0.4-1.8-0.4c-1.6,0-2.7,1.2-2.7,3.1v5.8h-1.8v-10.5h1.8v1.4c0.7-1,1.9-1.6,3.1-1.6
	C52.6,226.4,53.2,226.5,53.8,226.7z"/>
<path d="M65.7,231.8c0.1,3-2.4,5.5-5.4,5.6c-3,0.1-5.5-2.4-5.6-5.4c-0.1-3,2.4-5.5,5.4-5.6c0,0,0.1,0,0.1,0c2.9-0.1,5.4,2.2,5.5,5.2
	C65.7,231.7,65.7,231.7,65.7,231.8z M56.4,231.8c0.1,2,1.8,3.7,3.8,3.6c2-0.1,3.7-1.8,3.6-3.8c-0.1-2-1.7-3.6-3.7-3.6
	C58.1,228,56.4,229.7,56.4,231.8C56.4,231.7,56.4,231.8,56.4,231.8z"/>
<path d="M70.4,222.9c0,0.7-0.6,1.3-1.3,1.3c-0.7,0-1.3-0.5-1.3-1.2c0,0,0-0.1,0-0.1c0-0.7,0.6-1.3,1.3-1.3
	C69.8,221.6,70.4,222.2,70.4,222.9z M70,237h-1.8v-10.5H70V237z"/>
<path d="M80.4,228.9c-1-0.7-2.2-1-3.4-1c-1.4,0-2.4,0.6-2.4,1.6c0,0.8,0.8,1.2,2,1.4l1.2,0.2c2.2,0.3,3.5,1.2,3.5,3
	c0,2-1.8,3.3-4.6,3.3c-1.6,0-3.1-0.4-4.4-1.3l0.8-1.3c1,0.8,2.3,1.2,3.6,1.1c1.7,0,2.8-0.6,2.8-1.6c0-0.8-0.7-1.3-2.1-1.4l-1.2-0.1
	c-2.3-0.3-3.5-1.3-3.5-2.9c0-2,1.7-3.2,4.2-3.2c1.5-0.1,2.9,0.3,4.2,1.1L80.4,228.9z"/>
<path d="M90.9,228.9c-1-0.7-2.2-1-3.4-1c-1.4,0-2.4,0.6-2.4,1.6c0,0.8,0.8,1.2,2,1.4l1.2,0.2c2.2,0.3,3.5,1.2,3.5,3
	c0,2-1.8,3.3-4.6,3.3c-1.6,0-3.1-0.4-4.4-1.3l0.8-1.3c1,0.8,2.3,1.2,3.6,1.1c1.7,0,2.8-0.6,2.8-1.6c0-0.8-0.7-1.3-2.1-1.4l-1.2-0.1
	c-2.3-0.3-3.5-1.3-3.5-2.9c0-2,1.7-3.2,4.2-3.2c1.5-0.1,2.9,0.3,4.2,1.1L90.9,228.9z"/>
<path d="M104.3,237h-1.8v-1.4c-0.9,1.1-2.3,1.7-3.7,1.6c-2.9,0-5.2-2.3-5.2-5.2c0-0.1,0-0.1,0-0.2c-0.1-2.8,2.1-5.3,4.9-5.4
	c0.1,0,0.2,0,0.3,0c1.4-0.1,2.8,0.5,3.7,1.6v-1.4h1.8V237z M95.4,231.8c-0.1,2,1.5,3.7,3.5,3.8c0,0,0.1,0,0.1,0c2,0,3.6-1.6,3.6-3.6
	c0-0.1,0-0.2,0-0.2c0.1-2-1.3-3.7-3.3-3.9c-2-0.1-3.7,1.3-3.9,3.3C95.4,231.4,95.4,231.6,95.4,231.8z"/>
<path d="M117.2,230.6v6.5h-1.8v-5.9c0.2-1.5-0.9-2.9-2.5-3.1c-0.1,0-0.3,0-0.4,0c-1.7-0.1-3,1.2-3.1,2.9c0,0.1,0,0.1,0,0.2v5.9h-1.8
	v-10.5h1.8v1.4c1.6-1.9,4.3-2.1,6.2-0.6C116.6,228.2,117.1,229.4,117.2,230.6z"/>
<path d="M129,228l-1.2,1.2c-0.8-0.7-1.7-1.2-2.8-1.2c-2.1,0.2-3.7,2-3.5,4.1c0.1,1.9,1.6,3.4,3.5,3.5c1.1,0,2.1-0.4,2.8-1.2l1.1,1.2
	c-1,1.1-2.4,1.7-3.9,1.6c-3,0-5.4-2.4-5.4-5.4c0-3,2.4-5.4,5.4-5.4l0,0C126.5,226.3,128,226.9,129,228z"/>
<path d="M140.4,231.8v0.7h-8.2c0.1,1.9,1.7,3.3,3.6,3.2c1.2,0,2.3-0.5,3.2-1.2l1,1.2c-1.2,1.1-2.7,1.6-4.3,1.6c-3,0-5.4-2.4-5.4-5.4
	c0-3,2.4-5.4,5.3-5.4C138.4,226.4,140.4,228.6,140.4,231.8z M132.2,231h6.4c0-1.7-1.4-3-3.1-3C133.8,227.9,132.3,229.3,132.2,231z"
	/>
<path d="M150.3,237h-1.8v-15.8h1.8V237z"/>
<path d="M163.5,237h-1.8v-1.4c-0.9,1.1-2.3,1.7-3.7,1.6c-2.9,0-5.2-2.3-5.2-5.2c0-0.1,0-0.1,0-0.2c-0.1-2.8,2.1-5.3,4.9-5.4
	c0.1,0,0.2,0,0.3,0c1.4-0.1,2.8,0.5,3.7,1.6v-1.4h1.8V237z M154.7,231.8c-0.1,2,1.5,3.7,3.5,3.8c0,0,0.1,0,0.1,0
	c2,0,3.6-1.6,3.6-3.6c0-0.1,0-0.2,0-0.2c0.1-2-1.3-3.7-3.3-3.9s-3.7,1.3-3.9,3.3C154.7,231.4,154.7,231.6,154.7,231.8L154.7,231.8z"
	/>
<path d="M183.1,231.8c0.1,2.8-2.1,5.3-4.9,5.4c-0.1,0-0.2,0-0.3,0c-1.4,0.1-2.8-0.5-3.7-1.6v5.8h-1.8v-14.9h1.8v1.4
	c0.9-1.1,2.3-1.7,3.7-1.6C180.9,226.4,183.2,228.8,183.1,231.8z M174,231.8c-0.1,2,1.5,3.7,3.5,3.8c0,0,0.1,0,0.1,0
	c2,0,3.6-1.6,3.6-3.5c0-0.1,0-0.2,0-0.3c0.1-2-1.5-3.7-3.5-3.8c0,0-0.1,0-0.1,0C175.6,228,174,229.7,174,231.8
	C174,231.8,174,231.8,174,231.8z"/>
<path d="M187.4,237h-1.8v-15.8h1.8V237z"/>
<path d="M200.2,232.7c0,3.2-2.3,4.6-4.8,4.6s-4.8-1.4-4.8-4.6v-6.1h1.8v5.9c-0.2,1.5,1,2.9,2.5,3.1c0.2,0,0.3,0,0.5,0
	c1.5,0.1,2.9-1,3-2.5c0-0.2,0-0.4,0-0.6v-5.9h1.8V232.7z"/>
<path d="M210.5,228.9c-1-0.7-2.2-1-3.4-1c-1.4,0-2.4,0.6-2.4,1.6c0,0.8,0.8,1.2,2,1.4l1.2,0.2c2.2,0.3,3.5,1.2,3.5,3
	c0,2-1.8,3.3-4.6,3.3c-1.6,0-3.1-0.4-4.4-1.3l0.8-1.3c1,0.8,2.3,1.2,3.6,1.1c1.7,0,2.8-0.6,2.8-1.6c0-0.8-0.7-1.3-2.1-1.4l-1.2-0.1
	c-2.3-0.3-3.5-1.3-3.5-2.9c0-2,1.7-3.2,4.2-3.2c1.5-0.1,2.9,0.3,4.2,1.1L210.5,228.9z"/>
<path d="M226.4,228.9c-1-0.7-2.2-1-3.4-1c-1.4,0-2.4,0.6-2.4,1.6c0,0.8,0.8,1.2,2,1.4l1.2,0.2c2.2,0.3,3.5,1.2,3.5,3
	c0,2-1.8,3.3-4.6,3.3c-1.6,0-3.1-0.4-4.4-1.3l0.8-1.3c1,0.8,2.3,1.2,3.6,1.1c1.7,0,2.8-0.6,2.8-1.6c0-0.8-0.7-1.3-2.1-1.4l-1.2-0.1
	c-2.3-0.3-3.5-1.3-3.5-2.9c0-2,1.7-3.2,4.2-3.2c1.5-0.1,2.9,0.3,4.2,1.1L226.4,228.9z"/>
<path d="M240.2,231.8c0.1,3-2.4,5.5-5.4,5.6c-3,0.1-5.5-2.4-5.6-5.4c-0.1-3,2.4-5.5,5.4-5.6c0,0,0.1,0,0.1,0
	c2.9-0.1,5.4,2.2,5.5,5.2C240.2,231.7,240.2,231.7,240.2,231.8z M230.9,231.8c0.1,2,1.8,3.7,3.8,3.6c2-0.1,3.7-1.8,3.6-3.8
	c-0.1-2-1.7-3.6-3.7-3.6C232.6,228,230.9,229.7,230.9,231.8C230.9,231.7,230.9,231.8,230.9,231.8z"/>
<path d="M252.2,232.7c0,3.2-2.3,4.6-4.8,4.6s-4.8-1.4-4.8-4.6v-6.1h1.8v5.9c-0.2,1.5,1,2.9,2.5,3.1c0.2,0,0.3,0,0.5,0
	c1.5,0.1,2.9-1,3-2.5c0-0.2,0-0.4,0-0.6v-5.9h1.8V232.7z"/>
<path d="M262.5,228.2h-4.4v5.1c0,1.6,0.8,2.3,2,2.3c0.8,0,1.5-0.3,2.1-0.7l0.8,1.4c-0.9,0.7-2,1-3.1,1c-2.3,0-3.6-1.2-3.6-3.9v-5.1
	h-2.2v-1.6h2.2v-3.3h1.8v3.3h4.4L262.5,228.2L262.5,228.2z"/>
<path d="M274.3,231.8v0.7H266c0.1,1.9,1.7,3.3,3.6,3.2c1.2,0,2.3-0.5,3.2-1.2l1,1.2c-1.2,1.1-2.7,1.6-4.3,1.6c-3,0-5.4-2.4-5.5-5.4
	c0-3,2.4-5.4,5.4-5.4C272.2,226.4,274.2,228.6,274.3,231.8z M266,231h6.4c0-1.7-1.4-3-3.1-3C267.6,228,266.1,229.3,266,231z"/>
<path d="M286.4,230.6v6.5h-1.8v-5.9c0.2-1.5-0.9-2.9-2.5-3.1c-0.1,0-0.3,0-0.4,0c-1.7-0.1-3,1.2-3.1,2.9c0,0.1,0,0.1,0,0.2v5.9h-1.8
	v-10.5h1.8v1.4c1.6-1.9,4.3-2.1,6.2-0.6C285.8,228.2,286.3,229.4,286.4,230.6z"/>
<path d="M299.1,232.7c0,3.2-2.3,4.6-4.8,4.6s-4.8-1.4-4.8-4.6v-6.1h1.8v5.9c-0.2,1.5,1,2.9,2.5,3.1c0.2,0,0.3,0,0.5,0
	c1.5,0.1,2.9-1,3-2.5c0-0.2,0-0.4,0-0.6v-5.9h1.8V232.7z"/>
<path d="M311.6,231.8v0.7h-8.2c0.1,1.9,1.7,3.3,3.6,3.2c1.2,0,2.3-0.5,3.2-1.2l1,1.2c-1.2,1.1-2.7,1.6-4.3,1.6c-3,0-5.4-2.4-5.5-5.4
	c0-3,2.4-5.4,5.4-5.4C309.6,226.4,311.6,228.6,311.6,231.8z M303.4,231h6.4c0-1.7-1.4-3-3.1-3C305,227.9,303.5,229.3,303.4,231z"/>
<path d="M316.1,230.3h-1.5v-6.7l-2.3,0.9V223l3.8-1.5V230.3z"/>
</svg>
