<?xml version="1.0" encoding="utf-8"?>
<!-- Generator: Adobe Illustrator 25.2.0, SVG Export Plug-In . SVG Version: 6.00 Build 0)  -->
<svg version="1.1" id="Layer_1" xmlns="http://www.w3.org/2000/svg" xmlns:xlink="http://www.w3.org/1999/xlink" x="0px" y="0px"
	 width="411px" height="820px" viewBox="0 0 411 820" style="enable-background:new 0 0 411 820;" xml:space="preserve">
<style type="text/css">
	.st0{fill:none;stroke:#CCCCCC;stroke-width:2;stroke-miterlimit:10;}
	.st1{fill:#ED5A36;}
</style>
<g id="Layer_1-2">
	<line class="st0" x1="376.7" y1="288" x2="31.2" y2="288"/>
	<line class="st0" x1="379.5" y1="598.1" x2="34" y2="598.1"/>
</g>
<g id="Layer_2_1_">
	<path class="st1" d="M78.2,99.3l22.9,10.7v6.8l-23,10.7v-7.3l16-6.8l-16-6.8L78.2,99.3z"/>
	<path class="st1" d="M109,93.6c4-5.6,10.5-8.9,17.4-8.8c10.6,0,17.2,6.7,17.2,16.4c0,6.2-3.2,10.5-7.3,14.8l-10.9,11.3h19.4v9.2
		h-33.6v-7.7l18-18.4c2.7-2.7,4.2-5.5,4.2-8.7c0-4.4-3.1-7.6-7.8-7.6s-7.7,2.6-10.3,5.6L109,93.6z"/>
	<path class="st1" d="M194.9,111.2c0,16.4-9.8,26.3-21.9,26.3s-21.8-9.9-21.8-26.3s9.7-26.3,21.9-26.3S194.9,94.8,194.9,111.2z
		 M161.3,111.2c0,11.1,5.2,16.9,11.7,16.9s11.7-5.8,11.7-16.9s-5.1-16.9-11.7-16.9S161.3,100.1,161.3,111.2L161.3,111.2z"/>
	<path class="st1" d="M246.2,111.2c0,16.4-9.8,26.3-21.9,26.3s-21.9-9.9-21.9-26.3s9.7-26.3,21.9-26.3S246.2,94.8,246.2,111.2z
		 M212.6,111.2c0,11.1,5.2,16.9,11.7,16.9s11.7-5.8,11.7-16.9s-5.1-16.9-11.7-16.9S212.5,100.1,212.6,111.2z"/>
	<path class="st1" d="M282.3,111.6c0.1,5.2-3.9,9.5-9.1,9.6c-5.2,0.1-9.5-3.9-9.6-9.1c-0.1-5.2,3.9-9.5,9.1-9.6h0.2
		c4.9-0.2,9.1,3.6,9.3,8.5c0,0,0,0.1,0,0.1C282.3,111.3,282.3,111.4,282.3,111.6z M268.9,111.6c0.1,2.2,1.9,3.9,4.1,3.9
		c2.2-0.1,4-1.9,3.9-4.1c-0.1-2.2-1.9-4-4.1-3.9C270.6,107.6,268.8,109.4,268.9,111.6z M277.4,136.6h-6.2l22.4-33.5h6.2L277.4,136.6
		z M307.4,128.1c0.1,5.1-4,9.4-9.1,9.5c-5.1,0.1-9.4-4-9.5-9.1c-0.1-5.1,4-9.4,9.1-9.5h0.2c5-0.2,9.2,3.6,9.4,8.6c0,0,0,0,0,0
		C307.4,127.7,307.4,127.9,307.4,128.1z M294,128.1c0.1,2.2,1.9,4,4.1,3.9c2.2-0.1,4-1.9,3.9-4.1c-0.1-2.2-1.8-3.9-4-3.9
		c-2.2,0-4,1.7-4,3.9c0,0,0,0,0,0V128.1z"/>
	<g>
		<path d="M57.7,30.8H47V15.4h1.9V29h8.8V30.8z"/>
		<path d="M60.3,15l-1.2,5.7h-1.6l0.6-5.7L60.3,15z"/>
		<path d="M72.3,30.8h-1.8v-1.4c-0.9,1.1-2.3,1.7-3.7,1.6c-2.9,0-5.2-2.3-5.2-5.2c0-0.1,0-0.1,0-0.2c-0.1-2.9,2.1-5.3,5-5.4
			c0.1,0,0.1,0,0.2,0c1.4-0.1,2.8,0.5,3.7,1.6v-1.4h1.8V30.8z M63.4,25.6c-0.1,2,1.5,3.7,3.5,3.8c0,0,0.1,0,0.1,0
			c2,0,3.6-1.6,3.6-3.6c0-0.1,0-0.2,0-0.2c0.1-2-1.3-3.7-3.3-3.9c-2-0.1-3.7,1.3-3.9,3.3C63.4,25.2,63.4,25.4,63.4,25.6z"/>
		<path d="M84.6,21.8L83.5,23c-0.8-0.7-1.7-1.2-2.8-1.2c-2,0-3.5,1.6-3.5,3.6c0,0.1,0,0.1,0,0.2c-0.1,2,1.3,3.7,3.3,3.8
			c0.1,0,0.1,0,0.2,0c1.1,0,2.1-0.4,2.8-1.2l1.1,1.2c-1,1.1-2.4,1.7-3.9,1.6c-2.9,0.1-5.3-2.1-5.4-5c0-0.1,0-0.3,0-0.4
			c-0.1-2.9,2.1-5.3,5-5.4c0.1,0,0.3,0,0.4,0C82.2,20.1,83.6,20.7,84.6,21.8z"/>
		<path d="M94.6,22h-4.4v5.1c0,1.6,0.8,2.3,2,2.3c0.8,0,1.5-0.3,2.1-0.7l0.8,1.4c-0.9,0.7-2,1-3.1,1c-2.3,0-3.6-1.2-3.6-3.9V22h-2.2
			v-1.6h2.2v-3.3h1.8v3.3h4.4V22z"/>
		<path d="M99.7,16.7c0,0.7-0.6,1.3-1.3,1.3c-0.7,0-1.3-0.5-1.3-1.2c0,0,0-0.1,0-0.1c0-0.7,0.6-1.3,1.3-1.3
			C99.1,15.4,99.7,16,99.7,16.7z M99.3,30.8h-1.8V20.4h1.8L99.3,30.8z"/>
		<path d="M109.9,22h-4v8.8h-1.8V22h-2.3v-1.6h2.3v-1.8c0-2.2,1-3.8,3.5-3.8c1,0,2,0.3,2.9,0.8l-0.6,1.5c-0.6-0.4-1.4-0.6-2.1-0.6
			c-1.2,0-1.8,0.8-1.8,2.1v1.8h4L109.9,22z"/>
		<path d="M126.3,21.8v-1.4h1.8v9.7c0,3.4-2.3,5.3-5.6,5.3c-1.6,0-3.1-0.5-4.4-1.4l0.8-1.5c1,0.8,2.3,1.2,3.6,1.2
			c1.9,0.2,3.6-1.2,3.8-3.1c0-0.2,0-0.3,0-0.5v-0.9c-0.9,1.1-2.2,1.7-3.6,1.6c-2.8,0-5.2-2.2-5.2-5.1c0-0.1,0-0.2,0-0.3
			c-0.2-2.8,2-5.2,4.8-5.4c0.1,0,0.3,0,0.4,0C124.1,20.1,125.4,20.7,126.3,21.8z M119.4,25.5c-0.1,1.9,1.4,3.6,3.4,3.7
			c0,0,0.1,0,0.1,0c1.9,0,3.5-1.5,3.5-3.4c0-0.1,0-0.2,0-0.3c0.1-1.9-1.4-3.6-3.4-3.7c0,0-0.1,0-0.1,0
			C120.9,21.8,119.4,23.5,119.4,25.5C119.4,25.5,119.4,25.5,119.4,25.5z"/>
		<path d="M141.2,25.6v0.7H133c0.1,1.9,1.7,3.3,3.6,3.2c1.2,0,2.3-0.5,3.2-1.2l1,1.2c-1.2,1.1-2.7,1.6-4.3,1.6
			c-2.8,0.1-5.2-2.1-5.3-4.9c0-0.2,0-0.3,0-0.5c-0.2-2.8,2-5.2,4.8-5.4c0.1,0,0.3,0,0.4,0C139.1,20.2,141.2,22.4,141.2,25.6z
			 M133,24.8h6.4c0-1.7-1.4-3-3.1-3C134.6,21.7,133.1,23.1,133,24.8z M134.8,18.8l2.3-3.3h2.3l-2.8,3.3H134.8z"/>
		<path d="M151,20.5l-0.4,1.8c-0.6-0.3-1.2-0.4-1.8-0.4c-1.6,0-2.7,1.2-2.7,3.1v5.8h-1.8V20.4h1.8v1.4c0.7-1,1.9-1.6,3.1-1.6
			C149.8,20.2,150.4,20.3,151,20.5z"/>
		<path d="M162.3,25.6v0.7h-8.2c0.1,1.9,1.7,3.3,3.6,3.2c1.2,0,2.3-0.5,3.2-1.2l1,1.2c-1.2,1.1-2.7,1.6-4.3,1.6
			c-2.8,0.1-5.2-2.1-5.3-4.9c0-0.2,0-0.3,0-0.5c-0.2-2.8,2-5.2,4.8-5.4c0.1,0,0.3,0,0.4,0C160.3,20.2,162.3,22.4,162.3,25.6z
			 M154.1,24.8h6.4c0-1.7-1.4-3-3.1-3C155.7,21.7,154.2,23.1,154.1,24.8z M155.9,18.8l2.3-3.3h2.3l-2.8,3.3H155.9z"/>
		<path d="M178.3,22.7c-1-0.7-2.2-1-3.4-1c-1.4,0-2.4,0.6-2.4,1.6c0,0.8,0.8,1.2,2,1.4l1.2,0.2c2.2,0.3,3.5,1.2,3.5,3
			c0,2-1.8,3.3-4.6,3.3c-1.6,0-3.1-0.4-4.4-1.3l0.8-1.3c1,0.8,2.3,1.2,3.6,1.1c1.7,0,2.8-0.6,2.8-1.6c0-0.8-0.7-1.3-2.1-1.4
			l-1.2-0.1c-2.3-0.3-3.5-1.3-3.5-2.9c0-2,1.7-3.2,4.2-3.2c1.5-0.1,2.9,0.3,4.2,1.1L178.3,22.7z"/>
		<path d="M185,15v5.7h-1.8V15H185z"/>
		<path d="M192.2,16.7c0,0.7-0.6,1.3-1.3,1.3c-0.7,0-1.3-0.5-1.3-1.2c0,0,0-0.1,0-0.1c0-0.7,0.6-1.3,1.3-1.3S192.2,16,192.2,16.7
			L192.2,16.7z M191.8,30.8H190V20.4h1.8V30.8z"/>
		<path d="M205.2,24.4v6.5h-1.8V25c0.2-1.5-0.9-2.9-2.5-3.1c-0.1,0-0.3,0-0.4,0c-1.7-0.1-3,1.2-3.1,2.9c0,0.1,0,0.1,0,0.2v5.9h-1.8
			V20.4h1.8v1.4c0.8-1.1,2.1-1.6,3.4-1.6c2.2-0.2,4.2,1.4,4.4,3.6C205.2,24,205.2,24.2,205.2,24.4z"/>
		<path d="M215.9,22.7c-1-0.7-2.2-1-3.4-1c-1.4,0-2.4,0.6-2.4,1.6c0,0.8,0.8,1.2,2,1.4l1.2,0.2c2.2,0.3,3.5,1.2,3.5,3
			c0,2-1.8,3.3-4.6,3.3c-1.6,0-3.1-0.4-4.4-1.3l0.8-1.3c1,0.8,2.3,1.2,3.6,1.1c1.7,0,2.8-0.6,2.8-1.6c0-0.8-0.7-1.3-2.1-1.4
			l-1.2-0.1c-2.3-0.3-3.5-1.3-3.5-2.9c0-2,1.7-3.2,4.2-3.2c1.5-0.1,2.9,0.3,4.2,1.1L215.9,22.7z"/>
		<path d="M228.3,21.8l-1.2,1.2c-0.8-0.7-1.7-1.2-2.8-1.2c-2,0-3.5,1.6-3.5,3.6c0,0.1,0,0.1,0,0.2c-0.1,2,1.3,3.7,3.3,3.8
			c0.1,0,0.1,0,0.2,0c1.1,0,2.1-0.4,2.8-1.2l1.1,1.2c-1,1.1-2.4,1.7-3.9,1.6c-2.9,0.1-5.3-2.1-5.4-5c0-0.1,0-0.3,0-0.4
			c-0.1-2.9,2.1-5.3,5-5.4c0.1,0,0.3,0,0.4,0C225.8,20.1,227.3,20.7,228.3,21.8z"/>
		<path d="M237.8,20.5l-0.4,1.8c-0.6-0.3-1.2-0.4-1.8-0.4c-1.6,0-2.7,1.2-2.7,3.1v5.8h-1.8V20.4h1.8v1.4c0.7-1,1.9-1.6,3.1-1.6
			C236.6,20.2,237.2,20.3,237.8,20.5z"/>
		<path d="M242.4,16.7c0,0.7-0.6,1.3-1.3,1.3c-0.7,0-1.3-0.5-1.3-1.2c0,0,0-0.1,0-0.1c0-0.7,0.6-1.3,1.3-1.3S242.4,16,242.4,16.7
			L242.4,16.7z M242.1,30.8h-1.8V20.4h1.8V30.8z"/>
		<path d="M250.8,30.9h-2.1l-4.4-10.5h2l3.5,8.6l3.5-8.6h1.9L250.8,30.9z"/>
		<path d="M267.2,30.8h-1.8v-1.4c-0.9,1.1-2.3,1.7-3.7,1.6c-2.9,0-5.2-2.3-5.2-5.2c0-0.1,0-0.1,0-0.2c-0.1-2.9,2.1-5.3,5-5.4
			c0.1,0,0.1,0,0.2,0c1.4-0.1,2.8,0.5,3.7,1.6v-1.4h1.8V30.8z M258.3,25.6c-0.1,2,1.5,3.7,3.5,3.8c0,0,0.1,0,0.1,0
			c2,0,3.6-1.6,3.6-3.6c0-0.1,0-0.2,0-0.2c0.1-2-1.3-3.7-3.3-3.9c-2-0.1-3.7,1.3-3.9,3.3C258.3,25.2,258.3,25.4,258.3,25.6z"/>
		<path d="M280.5,24.4v6.5h-1.8V25c0.2-1.5-0.9-2.9-2.5-3.1c-0.1,0-0.3,0-0.4,0c-1.7-0.1-3,1.2-3.1,2.9c0,0.1,0,0.1,0,0.2v5.9H271
			V20.4h1.8v1.4c0.8-1.1,2.1-1.6,3.4-1.6c2.2-0.2,4.1,1.5,4.3,3.7C280.5,24.1,280.5,24.2,280.5,24.4z"/>
		<path d="M291.2,22h-4.4v5.1c0,1.6,0.8,2.3,2,2.3c0.8,0,1.5-0.3,2.1-0.7l0.8,1.4c-0.9,0.7-2,1-3.1,1c-2.3,0-3.6-1.2-3.6-3.9V22
			h-2.2v-1.6h2.2v-3.3h1.8v3.3h4.4L291.2,22L291.2,22z"/>
		<path d="M308.1,21.8V15h1.8v15.8h-1.8v-1.4c-0.9,1.1-2.3,1.7-3.7,1.6c-2.9,0-5.2-2.3-5.2-5.2c0-0.1,0-0.1,0-0.2
			c-0.1-2.9,2.1-5.3,5-5.4c0.1,0,0.1,0,0.2,0C305.8,20.2,307.2,20.7,308.1,21.8z M301,25.6c-0.1,2,1.5,3.7,3.5,3.8c0,0,0.1,0,0.1,0
			c2,0,3.6-1.6,3.6-3.6c0-0.1,0-0.2,0-0.2c0.1-2-1.3-3.7-3.3-3.9c-2-0.1-3.7,1.3-3.9,3.3C301,25.2,301,25.4,301,25.6z"/>
		<path d="M323.6,30.8h-1.8v-1.4c-0.9,1.1-2.3,1.7-3.7,1.6c-2.9,0-5.2-2.3-5.2-5.2c0-0.1,0-0.1,0-0.2c-0.1-2.9,2.1-5.3,5-5.4
			c0.1,0,0.1,0,0.2,0c1.4-0.1,2.8,0.5,3.7,1.6v-1.4h1.8V30.8z M314.7,25.6c-0.1,2,1.5,3.7,3.5,3.8c0,0,0.1,0,0.1,0
			c2,0,3.6-1.6,3.6-3.6c0-0.1,0-0.2,0-0.2c0.1-2-1.3-3.7-3.3-3.9c-2-0.1-3.7,1.3-3.9,3.3C314.7,25.2,314.7,25.4,314.7,25.6z"/>
		<path d="M337,24.4v6.5h-1.8V25c0.2-1.5-0.9-2.9-2.5-3.1c-0.1,0-0.3,0-0.4,0c-1.7-0.1-3,1.2-3.1,2.9c0,0.1,0,0.1,0,0.2v5.9h-1.8
			V20.4h1.8v1.4c0.8-1.1,2.1-1.6,3.4-1.6c2.2-0.2,4.2,1.4,4.4,3.6C337,24,337,24.2,337,24.4z"/>
		<path d="M347.7,22.7c-1-0.7-2.2-1-3.4-1c-1.4,0-2.4,0.6-2.4,1.6c0,0.8,0.8,1.2,2,1.4l1.2,0.2c2.2,0.3,3.5,1.2,3.5,3
			c0,2-1.8,3.3-4.6,3.3c-1.6,0-3.1-0.4-4.4-1.3l0.8-1.3c1,0.8,2.3,1.2,3.6,1.1c1.7,0,2.8-0.6,2.8-1.6c0-0.8-0.7-1.3-2.1-1.4
			l-1.2-0.1c-2.3-0.3-3.5-1.3-3.5-2.9c0-2,1.7-3.2,4.2-3.2c1.5-0.1,2.9,0.3,4.2,1.1L347.7,22.7z"/>
	</g>
	<g>
		<path d="M48.5,57.2h-1.8V41.4h1.8V57.2z"/>
		<path d="M61.6,52v0.7h-8.2c0.1,1.9,1.7,3.3,3.6,3.2c1.2,0,2.3-0.5,3.2-1.2l1,1.2c-1.2,1.1-2.7,1.6-4.3,1.6
			c-2.8,0.1-5.2-2.1-5.3-4.9c0-0.2,0-0.3,0-0.5c-0.2-2.8,2-5.2,4.8-5.4c0.1,0,0.3,0,0.4,0C59.6,46.6,61.6,48.8,61.6,52z M53.4,51.2
			h6.4c0-1.7-1.4-3-3.1-3C55,48.1,53.5,49.5,53.4,51.2z"/>
		<path d="M79,48.2l-1.2,1.2c-0.8-0.7-1.7-1.2-2.8-1.2c-2.1,0.2-3.7,2-3.5,4.1c0.1,1.9,1.6,3.4,3.5,3.5c1.1,0,2.1-0.4,2.8-1.2
			l1.1,1.2c-1,1.1-2.4,1.7-3.9,1.6c-3,0-5.4-2.4-5.4-5.4c0-3,2.4-5.4,5.4-5.4C76.5,46.5,78,47.1,79,48.2z"/>
		<path d="M88.5,46.9l-0.4,1.8c-0.6-0.3-1.2-0.4-1.8-0.4c-1.6,0-2.7,1.2-2.7,3.1v5.8h-1.8V46.8h1.8v1.4c0.7-1,1.9-1.6,3.1-1.6
			C87.3,46.6,87.9,46.7,88.5,46.9z"/>
		<path d="M99.9,52v0.7h-8.2c0.1,1.9,1.7,3.3,3.6,3.2c1.2,0,2.3-0.5,3.2-1.2l1,1.2c-1.2,1.1-2.7,1.6-4.3,1.6
			c-2.8,0.1-5.2-2.1-5.3-4.9c0-0.2,0-0.3,0-0.5c-0.2-2.8,2-5.2,4.8-5.4c0.1,0,0.3,0,0.4,0C97.8,46.6,99.9,48.8,99.9,52z M91.7,51.2
			h6.4c0-1.7-1.4-3-3.1-3C93.3,48.1,91.8,49.4,91.7,51.2C91.7,51.2,91.7,51.2,91.7,51.2z M93.4,45.2l2.3-3.3H98l-2.8,3.3H93.4z"/>
		<path d="M111,48.2v-6.8h1.8v15.8H111v-1.4c-0.9,1.1-2.3,1.7-3.7,1.6c-3,0-5.4-2.4-5.4-5.4c0-3,2.4-5.4,5.4-5.4
			C108.7,46.5,110.1,47.1,111,48.2z M103.9,52c-0.1,2,1.5,3.7,3.5,3.8c0,0,0.1,0,0.1,0c2,0,3.6-1.6,3.6-3.6c0-0.1,0-0.2,0-0.2
			c0.1-2-1.5-3.7-3.5-3.8c0,0-0.1,0-0.1,0C105.5,48.2,103.9,49.9,103.9,52C103.9,52,103.9,52,103.9,52z"/>
		<path d="M118.8,43.1c0,0.7-0.6,1.3-1.3,1.3c-0.7,0-1.3-0.5-1.3-1.2c0,0,0-0.1,0-0.1c0-0.7,0.6-1.3,1.3-1.3
			C118.2,41.8,118.8,42.4,118.8,43.1z M118.4,57.2h-1.8V46.8h1.8V57.2z"/>
		<path d="M129.3,48.4h-4.4v5.1c0,1.6,0.8,2.3,2,2.3c0.8,0,1.5-0.3,2.1-0.7l0.8,1.4c-0.9,0.7-2,1-3.1,1c-2.3,0-3.6-1.2-3.6-3.9v-5.1
			h-2.2v-1.6h2.2v-3.3h1.8v3.3h4.4V48.4z"/>
		<path d="M148.8,52c0.1,2.8-2.1,5.3-4.9,5.4c-0.1,0-0.2,0-0.3,0c-1.4,0.1-2.8-0.5-3.7-1.6v5.8h-1.8V46.8h1.8v1.4
			c0.9-1.1,2.3-1.7,3.7-1.6c2.9,0,5.2,2.3,5.2,5.2C148.8,51.9,148.8,51.9,148.8,52z M139.8,52c-0.1,2,1.5,3.7,3.5,3.8
			c0,0,0.1,0,0.1,0c2,0,3.6-1.6,3.6-3.5c0-0.1,0-0.2,0-0.3c0.1-2-1.3-3.7-3.3-3.9c-2-0.1-3.7,1.3-3.9,3.3
			C139.8,51.6,139.8,51.8,139.8,52z"/>
		<path d="M158.5,46.9l-0.4,1.8c-0.6-0.3-1.2-0.4-1.8-0.4c-1.6,0-2.7,1.2-2.7,3.1v5.8h-1.8V46.8h1.8v1.4c0.7-1,1.9-1.6,3.1-1.6
			C157.3,46.6,157.9,46.7,158.5,46.9z"/>
		<path d="M163.2,43.1c0,0.7-0.6,1.3-1.3,1.3c-0.7,0-1.3-0.5-1.3-1.2c0,0,0-0.1,0-0.1c0-0.7,0.6-1.3,1.3-1.3S163.2,42.4,163.2,43.1z
			 M162.8,57.2H161V46.8h1.8V57.2z"/>
		<path d="M171.5,57.3h-2.1L165,46.8h2l3.5,8.6l3.5-8.6h1.9L171.5,57.3z"/>
		<path d="M187.3,52v0.7h-8.2c0.1,1.9,1.7,3.3,3.6,3.2c1.2,0,2.3-0.5,3.2-1.2l1,1.2c-1.2,1.1-2.7,1.6-4.3,1.6
			c-2.8,0.1-5.2-2.1-5.3-4.9c0-0.2,0-0.3,0-0.5c-0.2-2.8,2-5.2,4.8-5.4c0.1,0,0.3,0,0.4,0C185.2,46.6,187.3,48.8,187.3,52z
			 M179.1,51.2h6.4c0-1.7-1.4-3-3.1-3C180.7,48.1,179.2,49.5,179.1,51.2z M180.9,45.2l2.3-3.3h2.3l-2.8,3.3H180.9z"/>
		<path d="M206.1,57.2h-1.8v-1.4c-0.9,1.1-2.3,1.7-3.7,1.6c-3,0-5.4-2.4-5.4-5.4c0-3,2.4-5.4,5.4-5.4c1.4-0.1,2.8,0.5,3.7,1.6v-1.4
			h1.8V57.2z M197.3,52c-0.1,2,1.5,3.7,3.5,3.8c0,0,0.1,0,0.1,0c2,0,3.6-1.6,3.6-3.6c0-0.1,0-0.2,0-0.2c0.1-2-1.3-3.7-3.3-3.9
			c-2-0.1-3.7,1.3-3.9,3.3C197.3,51.6,197.3,51.8,197.3,52L197.3,52z"/>
		<path d="M225.7,57.2h-1.8v-1.4c-0.9,1.1-2.3,1.7-3.7,1.6c-3,0-5.4-2.4-5.4-5.4c0-3,2.4-5.4,5.4-5.4c1.4-0.1,2.8,0.5,3.7,1.6v-1.4
			h1.8V57.2z M216.9,52c-0.1,2,1.5,3.7,3.5,3.8c0,0,0.1,0,0.1,0c2,0,3.6-1.6,3.6-3.6c0-0.1,0-0.2,0-0.2c0.1-2-1.3-3.7-3.3-3.9
			c-2-0.1-3.7,1.3-3.9,3.3C216.9,51.6,216.9,51.8,216.9,52L216.9,52z"/>
		<path d="M239,52.9c0,3.2-2.3,4.6-4.8,4.6s-4.8-1.4-4.8-4.6v-6.1h1.8v5.9c-0.2,1.5,1,2.9,2.5,3.1c0.2,0,0.3,0,0.5,0
			c1.5,0.1,2.9-1,3-2.5c0-0.2,0-0.4,0-0.6v-5.9h1.8V52.9z"/>
		<path d="M250.7,48.2v-1.4h1.8v9.7c0,3.4-2.3,5.3-5.6,5.3c-1.6,0-3.1-0.5-4.4-1.4l0.8-1.5c1,0.8,2.3,1.2,3.6,1.2
			c1.9,0.2,3.6-1.2,3.8-3.1c0-0.2,0-0.3,0-0.5v-0.9c-0.9,1.1-2.2,1.7-3.6,1.6c-2.8,0-5.2-2.2-5.2-5.1c0-0.1,0-0.2,0-0.3
			c-0.2-2.8,2-5.2,4.8-5.4c0.1,0,0.3,0,0.4,0C248.5,46.5,249.8,47.1,250.7,48.2z M243.7,51.9c-0.1,1.9,1.4,3.6,3.4,3.7
			c0,0,0.1,0,0.1,0c1.9,0,3.5-1.5,3.5-3.4c0-0.1,0-0.2,0-0.3c0.1-1.9-1.4-3.6-3.4-3.7c0,0-0.1,0-0.1,0
			C245.2,48.2,243.7,49.9,243.7,51.9C243.7,51.9,243.7,51.9,243.7,51.9z"/>
		<path d="M273.6,50.8v6.5h-1.8v-5.9c0.2-1.5-0.9-2.9-2.5-3.1c-0.1,0-0.3,0-0.4,0c-1.7-0.1-3,1.2-3.1,2.9c0,0.1,0,0.1,0,0.2v5.9H264
			v-5.9c0.2-1.5-0.9-2.9-2.5-3.1c-0.1,0-0.3,0-0.4,0c-1.7-0.1-3,1.2-3.1,2.9c0,0.1,0,0.1,0,0.2v5.9h-1.8V46.8h1.8v1.4
			c0.8-1.1,2.1-1.6,3.4-1.6c1.6-0.1,3.1,0.7,3.9,2.1c0.8-1.4,2.3-2.2,3.9-2.1c2.2-0.2,4.2,1.4,4.4,3.6
			C273.6,50.4,273.6,50.6,273.6,50.8z"/>
		<path d="M286.6,52v0.7h-8.2c0.1,1.9,1.7,3.3,3.6,3.2c1.2,0,2.3-0.5,3.2-1.2l1,1.2c-1.2,1.1-2.7,1.6-4.3,1.6
			c-2.8,0.1-5.2-2.1-5.3-4.9c0-0.2,0-0.3,0-0.5c-0.2-2.8,2-5.2,4.8-5.4c0.1,0,0.3,0,0.4,0C284.5,46.6,286.6,48.8,286.6,52z
			 M278.4,51.2h6.4c0-1.7-1.4-3-3.1-3C280,48.1,278.5,49.4,278.4,51.2C278.4,51.2,278.4,51.2,278.4,51.2z"/>
		<path d="M299.2,50.8v6.5h-1.8v-5.9c0.2-1.5-0.9-2.9-2.5-3.1c-0.1,0-0.3,0-0.4,0c-1.7-0.1-3,1.2-3.1,2.9c0,0.1,0,0.1,0,0.2v5.9
			h-1.8V46.8h1.8v1.4c0.8-1.1,2.1-1.6,3.4-1.6c2.2-0.2,4.2,1.4,4.4,3.6C299.2,50.4,299.2,50.6,299.2,50.8z"/>
		<path d="M309.8,48.4h-4.4v5.1c0,1.6,0.8,2.3,2,2.3c0.8,0,1.5-0.3,2.1-0.7l0.8,1.4c-0.9,0.7-2,1-3.1,1c-2.3,0-3.6-1.2-3.6-3.9v-5.1
			h-2.2v-1.6h2.2v-3.3h1.8v3.3h4.4L309.8,48.4L309.8,48.4z"/>
		<path d="M322,52v0.7h-8.2c0.1,1.9,1.7,3.3,3.6,3.2c1.2,0,2.3-0.5,3.2-1.2l1,1.2c-1.2,1.1-2.7,1.6-4.3,1.6
			c-2.8,0.1-5.2-2.1-5.3-4.9c0-0.2,0-0.3,0-0.5c-0.2-2.8,2-5.2,4.8-5.4c0.1,0,0.3,0,0.4,0C319.9,46.6,322,48.8,322,52z M313.8,51.2
			h6.4c0-1.7-1.4-3-3.1-3C315.4,48.1,313.9,49.4,313.8,51.2C313.8,51.2,313.8,51.2,313.8,51.2z M315.5,45.2l2.3-3.3h2.3l-2.8,3.3
			H315.5z"/>
		<path d="M339,48.2v-6.8h1.8v15.8H339v-1.4c-0.9,1.1-2.3,1.7-3.7,1.6c-3,0-5.4-2.4-5.4-5.4c0-3,2.4-5.4,5.4-5.4
			C336.7,46.5,338.1,47.1,339,48.2z M331.9,52c-0.1,2,1.5,3.7,3.5,3.8c0,0,0.1,0,0.1,0c2,0,3.6-1.6,3.6-3.6c0-0.1,0-0.2,0-0.2
			c0.1-2-1.3-3.7-3.3-3.9c-2-0.1-3.7,1.3-3.9,3.3C331.9,51.6,331.9,51.8,331.9,52z"/>
		<path d="M353.9,52v0.7h-8.2c0.1,1.9,1.7,3.3,3.6,3.2c1.2,0,2.3-0.5,3.2-1.2l1,1.2c-1.2,1.1-2.7,1.6-4.3,1.6
			c-2.8,0.1-5.2-2.1-5.3-4.9c0-0.2,0-0.3,0-0.5c-0.2-2.8,2-5.2,4.8-5.4c0.1,0,0.3,0,0.4,0C351.9,46.6,353.9,48.8,353.9,52z
			 M345.7,51.2h6.4c0-1.7-1.4-3-3.1-3C347.3,48.1,345.8,49.5,345.7,51.2L345.7,51.2z"/>
	</g>
	<g>
		<path d="M48.8,170.2v-6.8h1.8v15.8h-1.8v-1.4c-0.9,1.1-2.3,1.7-3.7,1.6c-3,0-5.4-2.4-5.4-5.4c0-3,2.4-5.4,5.4-5.4
			C46.5,168.5,47.9,169.1,48.8,170.2z M41.7,174c-0.1,2,1.5,3.7,3.5,3.8c0,0,0.1,0,0.1,0c2,0,3.6-1.6,3.6-3.6c0-0.1,0-0.2,0-0.2
			c0.1-2-1.5-3.7-3.5-3.8c0,0-0.1,0-0.1,0C43.3,170.3,41.7,172,41.7,174z"/>
		<path d="M63.7,174v0.7h-8.2c0.1,1.9,1.7,3.3,3.6,3.2c1.2,0,2.3-0.5,3.2-1.2l1,1.2c-1.2,1.1-2.7,1.6-4.3,1.6c-3,0-5.4-2.4-5.5-5.4
			c0-3,2.4-5.4,5.4-5.4C61.7,168.6,63.7,170.8,63.7,174z M55.5,173.2h6.4c0-1.7-1.4-3-3.1-3C57.1,170.2,55.7,171.5,55.5,173.2z"/>
		<path d="M77.5,174c0.1,2.8-2.1,5.3-4.9,5.4c-0.1,0-0.2,0-0.3,0c-1.4,0.1-2.8-0.5-3.7-1.6v5.8h-1.8v-14.9h1.8v1.4
			c0.9-1.1,2.3-1.7,3.7-1.6C75.3,168.6,77.6,171,77.5,174z M68.4,174c-0.1,2,1.5,3.7,3.5,3.8c0,0,0.1,0,0.1,0c2,0,3.6-1.6,3.6-3.5
			c0-0.1,0-0.2,0-0.3c0.1-2-1.5-3.7-3.5-3.8c0,0-0.1,0-0.1,0C70,170.2,68.4,171.9,68.4,174C68.4,174,68.4,174,68.4,174z"/>
		<path d="M89.9,174.9c0,3.2-2.3,4.6-4.8,4.6s-4.8-1.4-4.8-4.6v-6.1h1.8v5.9c-0.2,1.5,1,2.9,2.5,3.1c0.2,0,0.3,0,0.5,0
			c1.5,0.1,2.9-1,3-2.5c0-0.2,0-0.4,0-0.6v-5.9h1.8V174.9z"/>
		<path d="M95.8,165.1c0,0.7-0.6,1.3-1.3,1.3c-0.7,0-1.3-0.5-1.3-1.2c0,0,0-0.1,0-0.1c0-0.7,0.6-1.3,1.3-1.3
			C95.2,163.8,95.8,164.4,95.8,165.1z M95.4,179.3h-1.8v-10.5h1.8V179.3z"/>
		<path d="M106.2,171.1c-1-0.7-2.2-1-3.4-1c-1.4,0-2.4,0.6-2.4,1.6c0,0.8,0.8,1.2,2,1.4l1.2,0.2c2.2,0.3,3.5,1.2,3.5,3
			c0,2-1.8,3.3-4.6,3.3c-1.6,0-3.1-0.4-4.4-1.3l0.8-1.3c1,0.8,2.3,1.2,3.6,1.1c1.7,0,2.8-0.6,2.8-1.6c0-0.8-0.7-1.3-2.1-1.4L102,175
			c-2.3-0.3-3.5-1.3-3.5-2.9c0-2,1.7-3.2,4.2-3.2c1.5-0.1,2.9,0.3,4.2,1.1L106.2,171.1z"/>
		<path d="M115,166.2c1-1.7,2.8-2.7,4.8-2.6c2.6-0.2,4.8,1.8,5,4.3c0,0.2,0,0.3,0,0.5c-0.1,1.7-0.8,3.2-2.1,4.3l-4.4,4.7h7v1.8h-9.7
			v-1.5l5.8-6.1c0.9-0.9,1.4-2,1.5-3.3c0.1-1.6-1.1-2.9-2.7-3c-0.1,0-0.3,0-0.4,0c-1.4,0-2.7,0.7-3.4,1.9L115,166.2z"/>
		<path d="M140.4,171.6c0,4.9-2.9,7.9-6.4,7.9s-6.4-3-6.4-7.9s2.9-7.9,6.4-7.9S140.4,166.6,140.4,171.6z M129.6,171.6
			c0,4,2,6.1,4.4,6.1s4.4-2.2,4.4-6.1s-2-6.1-4.4-6.1S129.6,167.6,129.6,171.6L129.6,171.6z"/>
		<path d="M156.1,171.6c0,4.9-2.9,7.9-6.4,7.9s-6.4-3-6.4-7.9s2.9-7.9,6.4-7.9S156.1,166.6,156.1,171.6z M145.2,171.6
			c0,4,2,6.1,4.4,6.1s4.4-2.2,4.4-6.1s-2-6.1-4.4-6.1S145.2,167.6,145.2,171.6L145.2,171.6z"/>
		<path d="M169.8,167.9c0,1.6-1,3.1-2.6,3.6c1.6,0.6,3,1.7,3,3.7c0,2.8-2.6,4.3-5.8,4.3s-5.7-1.6-5.7-4.3c0.1-1.8,1.3-3.3,3-3.7
			c-1.6-0.5-2.6-2-2.6-3.6c0-2.7,2.4-4.3,5.4-4.3S169.8,165.2,169.8,167.9z M160.7,175c0,1.8,1.7,2.7,3.8,2.7s3.8-0.9,3.8-2.7
			s-1.7-2.7-3.8-2.7S160.7,173.3,160.7,175z M161,168c0,1.8,1.5,2.7,3.4,2.7s3.4-0.9,3.4-2.7s-1.5-2.6-3.4-2.6S161,166.3,161,168z"
			/>
		<path d="M175.5,176.5l-1.2,5.7h-1.6l0.6-5.7H175.5z"/>
		<path d="M193.2,170.3l-1.2,1.2c-0.8-0.7-1.7-1.2-2.8-1.2c-2.1,0.2-3.7,2-3.5,4.1c0.1,1.9,1.6,3.4,3.5,3.5c1.1,0,2.1-0.4,2.8-1.2
			l1.1,1.2c-1,1.1-2.4,1.7-3.9,1.6c-3,0-5.4-2.4-5.4-5.4c0-3,2.4-5.4,5.4-5.4C190.7,168.6,192.2,169.2,193.2,170.3z"/>
		<path d="M205.1,174v0.7h-8.2c0.1,1.9,1.7,3.3,3.6,3.2c1.2,0,2.3-0.5,3.2-1.2l1,1.2c-1.2,1.1-2.7,1.6-4.3,1.6c-3,0-5.4-2.4-5.4-5.4
			c0-3,2.4-5.4,5.3-5.4C203,168.6,205,170.8,205.1,174z M196.8,173.2h6.4c0-1.7-1.4-3-3.1-3C198.4,170.2,197,171.5,196.8,173.2z"/>
		<path d="M222.1,170.2v-1.4h1.8v14.9h-1.8v-5.8c-0.9,1.1-2.3,1.7-3.7,1.6c-3,0-5.4-2.4-5.4-5.4c0-3,2.4-5.4,5.4-5.4l0,0
			C219.8,168.6,221.2,169.1,222.1,170.2z M215,174c-0.1,2,1.5,3.7,3.5,3.8c0,0,0.1,0,0.1,0c2,0,3.6-1.6,3.6-3.6c0-0.1,0-0.2,0-0.2
			c0.1-2-1.5-3.7-3.5-3.8c0,0-0.1,0-0.1,0C216.6,170.2,215,171.9,215,174C215,174,215,174,215,174z"/>
		<path d="M237.1,174.9c0,3.2-2.3,4.6-4.8,4.6s-4.8-1.4-4.8-4.6v-6.1h1.8v5.9c-0.2,1.5,1,2.9,2.5,3.1c0.2,0,0.3,0,0.5,0
			c1.5,0.1,2.9-1,3-2.5c0-0.2,0-0.4,0-0.6v-5.9h1.8V174.9z"/>
		<path d="M243,165.1c0,0.7-0.6,1.3-1.3,1.3c-0.7,0-1.3-0.6-1.3-1.3s0.6-1.3,1.3-1.3l0,0C242.4,163.8,243,164.4,243,165.1z
			 M242.6,179.3h-1.8v-10.5h1.8V179.3z"/>
		<path d="M261.6,174v0.7h-8.2c0.1,1.9,1.7,3.3,3.6,3.2c1.2,0,2.3-0.5,3.2-1.2l1,1.2c-1.2,1.1-2.7,1.6-4.3,1.6c-3,0-5.4-2.4-5.4-5.4
			c0-3,2.4-5.4,5.3-5.4C259.5,168.6,261.6,170.8,261.6,174z M253.4,173.2h6.4c0-1.7-1.4-3-3.1-3C255,170.1,253.5,171.5,253.4,173.2
			L253.4,173.2z"/>
		<path d="M274.2,172.8v6.5h-1.8v-5.9c0.2-1.5-0.9-2.9-2.5-3.1c-0.1,0-0.3,0-0.4,0c-1.7-0.1-3,1.2-3.1,2.9c0,0.1,0,0.1,0,0.2v5.9
			h-1.8v-10.5h1.8v1.4c1.6-1.9,4.3-2.1,6.2-0.6C273.6,170.4,274.1,171.6,274.2,172.8z"/>
		<path d="M290.4,170.5h-4v8.8h-1.8v-8.8h-2.3v-1.6h2.3V167c0-2.2,1-3.8,3.5-3.8c1,0,2,0.3,2.9,0.8l-0.6,1.5
			c-0.6-0.4-1.4-0.6-2.1-0.6c-1.2,0-1.8,0.8-1.8,2.1v1.8h4v1.7H290.4z"/>
		<path d="M302.5,179.3h-1.8v-1.4c-0.9,1.1-2.3,1.7-3.7,1.6c-3,0-5.4-2.4-5.4-5.4c0-3,2.4-5.4,5.4-5.4l0,0c1.4-0.1,2.8,0.5,3.7,1.6
			v-1.4h1.8V179.3z M293.7,174c-0.1,2,1.5,3.7,3.5,3.8c0,0,0.1,0,0.1,0c2,0,3.6-1.6,3.6-3.6c0-0.1,0-0.2,0-0.2
			c0.1-2-1.5-3.7-3.5-3.8c0,0-0.1,0-0.1,0C295.3,170.2,293.7,171.9,293.7,174C293.7,174,293.7,174,293.7,174z"/>
		<path d="M308.5,165.1c0,0.7-0.6,1.3-1.3,1.3c-0.7,0-1.3-0.6-1.3-1.3s0.6-1.3,1.3-1.3C307.9,163.8,308.5,164.4,308.5,165.1
			C308.5,165.1,308.5,165.1,308.5,165.1z M308.1,179.3h-1.8v-10.5h1.8V179.3z"/>
		<path d="M319,170.5h-4.4v5.1c0,1.6,0.8,2.3,2,2.3c0.8,0,1.5-0.3,2.1-0.7l0.8,1.4c-0.9,0.7-2,1-3.1,1c-2.3,0-3.6-1.2-3.6-3.9v-5.1
			h-2.2V169h2.2v-3.3h1.8v3.3h4.4V170.5z"/>
		<path d="M329.6,179.3h-1.8v-15.8h1.8V179.3z"/>
		<path d="M343.3,179.3h-1.8v-1.4c-0.9,1.1-2.3,1.7-3.7,1.6c-3,0-5.4-2.4-5.4-5.4c0-3,2.4-5.4,5.4-5.4c1.4-0.1,2.8,0.5,3.7,1.6v-1.4
			h1.8V179.3z M334.5,174c-0.1,2,1.5,3.7,3.5,3.8c0,0,0.1,0,0.1,0c2,0,3.6-1.6,3.6-3.6c0-0.1,0-0.2,0-0.2c0.1-2-1.5-3.7-3.5-3.8
			c0,0-0.1,0-0.1,0C336.1,170.2,334.5,171.9,334.5,174C334.5,174,334.5,174,334.5,174z"/>
	</g>
	<g>
		<path d="M47.7,197.5c-1-0.7-2.2-1-3.4-1c-1.4,0-2.4,0.6-2.4,1.6c0,0.8,0.8,1.2,2,1.4l1.2,0.2c2.2,0.3,3.5,1.2,3.5,3
			c0,2-1.8,3.3-4.6,3.3c-1.6,0-3.1-0.4-4.4-1.3l0.8-1.3c1,0.8,2.3,1.2,3.6,1.1c1.7,0,2.8-0.6,2.8-1.6c0-0.8-0.7-1.3-2.1-1.4
			l-1.2-0.1c-2.3-0.3-3.5-1.3-3.5-2.9c0-2,1.7-3.2,4.2-3.2c1.5-0.1,2.9,0.3,4.2,1.1L47.7,197.5z"/>
		<path d="M61.9,200.4c0.1,3-2.4,5.5-5.4,5.6c-3,0.1-5.5-2.4-5.6-5.4c-0.1-3,2.4-5.5,5.4-5.6c0,0,0.1,0,0.1,0
			c2.9-0.1,5.4,2.2,5.5,5.2C61.9,200.3,61.9,200.3,61.9,200.4z M52.7,200.4c0.1,2,1.8,3.7,3.8,3.6c2-0.1,3.7-1.8,3.6-3.8
			c-0.1-2-1.7-3.6-3.7-3.6C54.3,196.6,52.7,198.3,52.7,200.4z"/>
		<path d="M74.3,201.3c0,3.2-2.3,4.6-4.8,4.6s-4.8-1.4-4.8-4.6v-6.1h1.8v5.9c-0.2,1.5,1,2.9,2.5,3.1c0.2,0,0.3,0,0.5,0
			c1.5,0.1,2.9-1,3-2.5c0-0.2,0-0.4,0-0.6v-5.9h1.8V201.3z"/>
		<path d="M85.1,197.5c-1-0.7-2.2-1-3.4-1c-1.4,0-2.4,0.6-2.4,1.6c0,0.8,0.8,1.2,2,1.4l1.2,0.2c2.2,0.3,3.5,1.2,3.5,3
			c0,2-1.8,3.3-4.6,3.3c-1.6,0-3.1-0.4-4.4-1.3l0.8-1.3c1,0.8,2.3,1.2,3.6,1.1c1.7,0,2.8-0.6,2.8-1.6c0-0.8-0.7-1.3-2.1-1.4
			l-1.2-0.1c-2.3-0.3-3.5-1.3-3.5-2.9c0-2,1.7-3.2,4.2-3.2c1.5-0.1,2.9,0.3,4.2,1.1L85.1,197.5z"/>
		<path d="M94.8,200.7h-6.2V199h6.2L94.8,200.7z"/>
		<path d="M106.7,196.7l-1.2,1.2c-0.8-0.7-1.7-1.2-2.8-1.2c-2.1,0.2-3.7,2-3.5,4.1c0.1,1.9,1.6,3.4,3.5,3.5c1.1,0,2.1-0.4,2.8-1.2
			l1.1,1.2c-1,1.1-2.4,1.7-3.9,1.6c-3,0-5.4-2.4-5.4-5.4c0-3,2.4-5.4,5.4-5.4C104.2,194.9,105.7,195.5,106.7,196.7z"/>
		<path d="M119.2,205.7h-1.8v-1.4c-0.9,1.1-2.3,1.7-3.7,1.6c-3,0-5.4-2.4-5.4-5.4c0-3,2.4-5.4,5.4-5.4l0,0c1.4-0.1,2.8,0.5,3.7,1.6
			v-1.4h1.8V205.7z M110.4,200.4c-0.1,2,1.5,3.7,3.5,3.8c0,0,0.1,0,0.1,0c2,0,3.6-1.6,3.6-3.6c0-0.1,0-0.2,0-0.2
			c0.1-2-1.5-3.7-3.5-3.8c0,0-0.1,0-0.1,0C112,196.6,110.4,198.3,110.4,200.4C110.4,200.4,110.4,200.4,110.4,200.4z"/>
		<path d="M130.1,196.9h-4.4v5.1c0,1.6,0.8,2.3,2,2.3c0.8,0,1.5-0.3,2.1-0.7l0.8,1.4c-0.9,0.7-2,1-3.1,1c-2.3,0-3.6-1.2-3.6-3.9V197
			h-2.2v-1.6h2.2v-3.3h1.8v3.3h4.4V196.9z"/>
		<path d="M142.3,200.4v0.7h-8.2c0.1,1.9,1.7,3.3,3.6,3.2c1.2,0,2.3-0.5,3.2-1.2l1,1.2c-1.2,1.1-2.7,1.6-4.3,1.6
			c-3,0-5.4-2.4-5.4-5.4c0-3,2.4-5.4,5.3-5.4C140.2,195,142.3,197.2,142.3,200.4z M134.1,199.6h6.4c0-1.7-1.4-3-3.1-3
			C135.7,196.6,134.2,197.9,134.1,199.6L134.1,199.6z M135.9,193.6l2.3-3.3h2.3l-2.8,3.3H135.9z"/>
		<path d="M153.3,196.6v-1.4h1.8v9.7c0,3.4-2.3,5.3-5.6,5.3c-1.6,0-3.1-0.5-4.4-1.4l0.8-1.5c1,0.8,2.3,1.2,3.6,1.2
			c1.9,0.2,3.6-1.2,3.8-3.1c0-0.2,0-0.3,0-0.5V204c-0.9,1.1-2.2,1.7-3.6,1.6c-2.8,0-5.2-2.2-5.2-5.1c0-0.1,0-0.2,0-0.3
			c-0.2-2.8,2-5.2,4.8-5.4c0.1,0,0.3,0,0.4,0C151.1,194.9,152.4,195.5,153.3,196.6z M146.4,200.4c-0.1,1.9,1.4,3.6,3.4,3.7
			c0,0,0.1,0,0.1,0c1.9,0,3.5-1.5,3.5-3.4c0-0.1,0-0.2,0-0.3c0.1-1.9-1.4-3.6-3.4-3.7c0,0-0.1,0-0.1,0c-1.9,0-3.5,1.5-3.5,3.4
			C146.4,200.2,146.4,200.3,146.4,200.4L146.4,200.4z"/>
		<path d="M169.2,200.4c0.1,3-2.4,5.5-5.4,5.6c-3,0.1-5.5-2.4-5.6-5.4c-0.1-3,2.4-5.5,5.4-5.6c0,0,0.1,0,0.1,0
			c2.9-0.1,5.4,2.2,5.5,5.2C169.2,200.3,169.2,200.3,169.2,200.4z M160,200.4c0.1,2,1.8,3.7,3.8,3.6c2-0.1,3.7-1.8,3.6-3.8
			c-0.1-2-1.7-3.6-3.7-3.6C161.7,196.6,160,198.3,160,200.4C160,200.3,160,200.4,160,200.4z"/>
		<path d="M178.9,195.3l-0.4,1.8c-0.6-0.3-1.2-0.4-1.8-0.4c-1.6,0-2.7,1.2-2.7,3.1v5.8h-1.8v-10.5h1.8v1.4c0.7-1,1.9-1.6,3.1-1.6
			C177.7,195,178.3,195.1,178.9,195.3z"/>
		<path d="M183.6,191.5c0,0.7-0.6,1.3-1.3,1.3c-0.7,0-1.3-0.5-1.3-1.2c0,0,0-0.1,0-0.1c0-0.7,0.6-1.3,1.3-1.3
			C183,190.2,183.6,190.8,183.6,191.5z M183.2,205.7h-1.8v-10.5h1.8V205.7z"/>
		<path d="M196.3,200.4v0.7h-8.2c0.1,1.9,1.7,3.3,3.6,3.2c1.2,0,2.3-0.5,3.2-1.2l1,1.2c-1.2,1.1-2.7,1.6-4.3,1.6
			c-3,0-5.4-2.4-5.4-5.4c0-3,2.4-5.4,5.3-5.4C194.3,195,196.3,197.2,196.3,200.4z M188.1,199.6h6.4c0-1.7-1.4-3-3.1-3
			C189.7,196.6,188.2,197.9,188.1,199.6L188.1,199.6z"/>
		<path d="M213.3,196.6v-6.8h1.8v15.8h-1.8v-1.4c-0.9,1.1-2.3,1.7-3.7,1.6c-3,0-5.4-2.4-5.4-5.4c0-3,2.4-5.4,5.4-5.4
			C211,194.9,212.4,195.5,213.3,196.6z M206.3,200.4c-0.1,2,1.5,3.7,3.5,3.8c0,0,0.1,0,0.1,0c2,0,3.6-1.6,3.6-3.6c0-0.1,0-0.2,0-0.2
			c0.1-2-1.5-3.7-3.5-3.8c0,0-0.1,0-0.1,0C207.9,196.6,206.3,198.3,206.3,200.4C206.3,200.4,206.3,200.4,206.3,200.4L206.3,200.4z"
			/>
		<path d="M221.1,189.8l-1.2,5.7h-1.6l0.6-5.7H221.1z"/>
		<path d="M233.1,205.7h-1.8v-1.4c-0.9,1.1-2.3,1.7-3.7,1.6c-3,0-5.4-2.4-5.4-5.4c0-3,2.4-5.4,5.4-5.4c1.4-0.1,2.8,0.5,3.7,1.6v-1.4
			h1.8V205.7z M224.2,200.4c-0.1,2,1.5,3.7,3.5,3.8c0,0,0.1,0,0.1,0c2,0,3.6-1.6,3.6-3.6c0-0.1,0-0.2,0-0.2c0.1-2-1.5-3.7-3.5-3.8
			c0,0-0.1,0-0.1,0C225.8,196.6,224.2,198.3,224.2,200.4C224.2,200.4,224.2,200.4,224.2,200.4L224.2,200.4z"/>
		<path d="M238.7,205.7h-1.8v-15.8h1.8V205.7z"/>
		<path d="M249.6,196.9h-4.4v5.1c0,1.6,0.8,2.3,2,2.3c0.8,0,1.5-0.3,2.1-0.7l0.8,1.4c-0.9,0.7-2,1-3.1,1c-2.3,0-3.6-1.2-3.6-3.9V197
			h-2.2v-1.6h2.2v-3.3h1.8v3.3h4.4V196.9z"/>
		<path d="M261.7,200.4v0.7h-8.2c0.1,1.9,1.7,3.3,3.6,3.2c1.2,0,2.3-0.5,3.2-1.2l1,1.2c-1.2,1.1-2.7,1.6-4.3,1.6
			c-3,0-5.4-2.4-5.4-5.4c0-3,2.4-5.4,5.3-5.4C259.7,195,261.7,197.2,261.7,200.4z M253.5,199.6h6.4c0-1.7-1.4-3-3.1-3
			C255.1,196.6,253.6,197.9,253.5,199.6L253.5,199.6z"/>
		<path d="M271.5,195.3l-0.4,1.8c-0.6-0.3-1.2-0.4-1.8-0.4c-1.6,0-2.7,1.2-2.7,3.1v5.8h-1.8v-10.5h1.8v1.4c0.7-1,1.9-1.6,3.1-1.6
			C270.3,195,270.9,195.1,271.5,195.3z"/>
		<path d="M283.5,199.2v6.5h-1.8v-5.9c0.2-1.5-0.9-2.9-2.5-3.1c-0.1,0-0.3,0-0.4,0c-1.7-0.1-3,1.2-3.1,2.9c0,0.1,0,0.1,0,0.2v5.9
			H274v-10.5h1.8v1.4c0.8-1.1,2.1-1.6,3.4-1.6c2.2-0.2,4.1,1.5,4.3,3.7C283.5,198.9,283.5,199,283.5,199.2z"/>
		<path d="M297.2,205.7h-1.8v-1.4c-0.9,1.1-2.3,1.7-3.7,1.6c-3,0-5.4-2.4-5.4-5.4c0-3,2.4-5.4,5.4-5.4l0,0c1.4-0.1,2.8,0.5,3.7,1.6
			v-1.4h1.8V205.7z M288.3,200.4c-0.1,2,1.5,3.7,3.5,3.8c0,0,0.1,0,0.1,0c2,0,3.6-1.6,3.6-3.6c0-0.1,0-0.2,0-0.2
			c0.1-2-1.5-3.7-3.5-3.8c0,0-0.1,0-0.1,0C289.9,196.6,288.3,198.3,288.3,200.4C288.3,200.4,288.3,200.4,288.3,200.4L288.3,200.4z"
			/>
		<path d="M308.1,196.9h-4.4v5.1c0,1.6,0.8,2.3,2,2.3c0.8,0,1.5-0.3,2.1-0.7l0.8,1.4c-0.9,0.7-2,1-3.1,1c-2.3,0-3.6-1.2-3.6-3.9V197
			h-2.2v-1.6h2.2v-3.3h1.8v3.3h4.4L308.1,196.9L308.1,196.9z"/>
		<path d="M313.1,191.5c0,0.7-0.6,1.3-1.3,1.3c-0.7,0-1.3-0.6-1.3-1.3s0.6-1.3,1.3-1.3C312.5,190.2,313.1,190.8,313.1,191.5
			C313.1,191.5,313.1,191.5,313.1,191.5z M312.7,205.7h-1.8v-10.5h1.8V205.7z"/>
		<path d="M323.3,196.9h-4v8.8h-1.8v-8.8h-2.3v-1.6h2.3v-1.8c0-2.2,1-3.8,3.5-3.8c1,0,2,0.3,2.9,0.8l-0.6,1.5
			c-0.6-0.4-1.4-0.6-2.1-0.6c-1.2,0-1.8,0.8-1.8,2.1v1.8h4v1.6H323.3z"/>
		<path d="M332.9,197.5c-1-0.7-2.2-1-3.4-1c-1.4,0-2.4,0.6-2.4,1.6c0,0.8,0.8,1.2,2,1.4l1.2,0.2c2.2,0.3,3.5,1.2,3.5,3
			c0,2-1.8,3.3-4.6,3.3c-1.6,0-3.1-0.4-4.4-1.3l0.8-1.3c1,0.8,2.3,1.2,3.6,1.1c1.7,0,2.8-0.6,2.8-1.6c0-0.8-0.7-1.3-2.1-1.4
			l-1.2-0.1c-2.3-0.3-3.5-1.3-3.5-2.9c0-2,1.7-3.2,4.2-3.2c1.5-0.1,2.9,0.3,4.2,1.1L332.9,197.5z"/>
		<path d="M352.6,205.7h-1.8v-1.4c-0.9,1.1-2.3,1.7-3.7,1.6c-3,0-5.4-2.4-5.4-5.4c0-3,2.4-5.4,5.4-5.4l0,0c1.4-0.1,2.8,0.5,3.7,1.6
			v-1.4h1.8V205.7z M343.7,200.4c-0.1,2,1.5,3.7,3.5,3.8c0,0,0.1,0,0.1,0c2,0,3.6-1.6,3.6-3.6c0-0.1,0-0.2,0-0.2
			c0.1-2-1.5-3.7-3.5-3.8c0,0-0.1,0-0.1,0C345.3,196.6,343.7,198.3,343.7,200.4C343.7,200.4,343.7,200.4,343.7,200.4z M344.3,190.3
			h2.3l2.2,3.3H347L344.3,190.3z"/>
	</g>
	<g>
		<path d="M42.5,232.1h-1.8v-15.8h1.8V232.1z"/>
		<path d="M56.2,232.1h-1.8v-1.4c-0.9,1.1-2.3,1.7-3.7,1.6c-3,0-5.4-2.4-5.4-5.4c0-3,2.4-5.4,5.4-5.4c1.4-0.1,2.8,0.5,3.7,1.6v-1.4
			h1.8V232.1z M47.3,226.8c-0.1,2,1.5,3.7,3.5,3.8c0,0,0.1,0,0.1,0c2,0,3.6-1.6,3.6-3.6c0-0.1,0-0.2,0-0.2c0.1-2-1.5-3.7-3.5-3.8
			c0,0-0.1,0-0.1,0C48.9,223.1,47.3,224.8,47.3,226.8z"/>
		<path d="M74.4,223.1l-1.2,1.2c-0.8-0.7-1.7-1.2-2.8-1.2c-2.1,0.2-3.7,2-3.5,4.1c0.1,1.9,1.6,3.4,3.5,3.5c1.1,0,2.1-0.4,2.8-1.2
			l1.1,1.2c-1,1.1-2.4,1.7-3.9,1.6c-3,0-5.4-2.4-5.4-5.4c0-3,2.4-5.4,5.4-5.4C71.9,221.3,73.4,221.9,74.4,223.1z"/>
		<path d="M83.9,221.7l-0.4,1.8c-0.6-0.3-1.2-0.4-1.8-0.4c-1.6,0-2.7,1.2-2.7,3.1v5.8h-1.8v-10.5H79v1.4c0.7-1,1.9-1.6,3.1-1.6
			C82.7,221.4,83.3,221.5,83.9,221.7z"/>
		<path d="M96.2,226.8c0.1,3-2.4,5.5-5.4,5.6c-3,0.1-5.5-2.4-5.6-5.4c-0.1-3,2.4-5.5,5.4-5.6c0,0,0.1,0,0.1,0
			c2.9-0.1,5.4,2.2,5.5,5.2C96.2,226.7,96.2,226.7,96.2,226.8z M87,226.8c0.1,2,1.8,3.7,3.8,3.6c2-0.1,3.7-1.8,3.6-3.8
			c-0.1-2-1.7-3.6-3.7-3.6C88.6,223,87,224.7,87,226.8z"/>
		<path d="M101.4,217.9c0,0.7-0.6,1.3-1.3,1.3c-0.7,0-1.3-0.5-1.3-1.2c0,0,0-0.1,0-0.1c0-0.7,0.6-1.3,1.3-1.3
			C100.8,216.6,101.4,217.2,101.4,217.9z M101,232.1h-1.8v-10.5h1.8V232.1z"/>
		<path d="M111.9,223.9c-1-0.7-2.2-1-3.4-1c-1.4,0-2.4,0.6-2.4,1.6c0,0.8,0.8,1.2,2,1.4l1.2,0.2c2.2,0.3,3.5,1.2,3.5,3
			c0,2-1.8,3.3-4.6,3.3c-1.6,0-3.1-0.4-4.4-1.3l0.8-1.3c1,0.8,2.3,1.2,3.6,1.1c1.7,0,2.8-0.6,2.8-1.6c0-0.8-0.7-1.3-2.1-1.4
			l-1.2-0.1c-2.3-0.3-3.5-1.3-3.5-2.9c0-2,1.7-3.2,4.2-3.2c1.5-0.1,2.9,0.3,4.2,1.1L111.9,223.9z"/>
		<path d="M122.8,223.9c-1-0.7-2.2-1-3.4-1c-1.4,0-2.4,0.6-2.4,1.6c0,0.8,0.8,1.2,2,1.4l1.2,0.2c2.2,0.3,3.5,1.2,3.5,3
			c0,2-1.8,3.3-4.6,3.3c-1.6,0-3.1-0.4-4.4-1.3l0.8-1.3c1,0.8,2.3,1.2,3.6,1.1c1.7,0,2.8-0.6,2.8-1.6c0-0.8-0.7-1.3-2.1-1.4
			l-1.2-0.1c-2.3-0.3-3.5-1.3-3.5-2.9c0-2,1.7-3.2,4.2-3.2c1.5-0.1,2.9,0.3,4.2,1.1L122.8,223.9z"/>
		<path d="M136.6,232.1h-1.8v-1.4c-0.9,1.1-2.3,1.7-3.7,1.6c-3,0-5.4-2.4-5.4-5.4c0-3,2.4-5.4,5.4-5.4c1.4-0.1,2.8,0.5,3.7,1.6v-1.4
			h1.8V232.1z M127.8,226.8c-0.1,2,1.5,3.7,3.5,3.8c0,0,0.1,0,0.1,0c2,0,3.6-1.6,3.6-3.6c0-0.1,0-0.2,0-0.2c0.1-2-1.5-3.7-3.5-3.8
			c0,0-0.1,0-0.1,0C129.4,223,127.8,224.7,127.8,226.8C127.8,226.8,127.8,226.8,127.8,226.8z"/>
		<path d="M150,225.6v6.5h-1.8v-5.9c0.2-1.5-0.9-2.9-2.5-3.1c-0.1,0-0.3,0-0.4,0c-1.7-0.1-3,1.2-3.1,2.9c0,0.1,0,0.1,0,0.2v5.9h-1.8
			v-10.5h1.8v1.4c1.6-1.9,4.3-2.1,6.2-0.6C149.4,223.2,149.9,224.4,150,225.6z"/>
		<path d="M162.2,223.1l-1.2,1.2c-0.8-0.7-1.7-1.2-2.8-1.2c-2.1,0.2-3.7,2-3.5,4.1c0.1,1.9,1.6,3.4,3.5,3.5c1.1,0,2.1-0.4,2.8-1.2
			l1.1,1.2c-1,1.1-2.4,1.7-3.9,1.6c-3,0-5.4-2.4-5.4-5.4c0-3,2.4-5.4,5.4-5.4C159.7,221.3,161.2,221.9,162.2,223.1z"/>
		<path d="M174.1,226.8v0.7h-8.2c0.1,1.9,1.7,3.3,3.6,3.2c1.2,0,2.3-0.5,3.2-1.2l1,1.2c-1.2,1.1-2.7,1.6-4.3,1.6
			c-3,0-5.4-2.4-5.4-5.4c0-3,2.4-5.4,5.3-5.4l0,0C172,221.4,174.1,223.6,174.1,226.8z M165.9,226h6.4c0-1.7-1.4-3-3.1-3
			C167.5,222.9,166,224.2,165.9,226C165.9,226,165.9,226,165.9,226L165.9,226z"/>
		<path d="M184.8,232.1H183v-15.8h1.8V232.1z"/>
		<path d="M198.5,232.1h-1.8v-1.4c-0.9,1.1-2.3,1.7-3.7,1.6c-3,0-5.4-2.4-5.4-5.4c0-3,2.4-5.4,5.4-5.4c1.4-0.1,2.8,0.5,3.7,1.6v-1.4
			h1.8V232.1z M189.6,226.8c-0.1,2,1.5,3.7,3.5,3.8c0,0,0.1,0,0.1,0c2,0,3.6-1.6,3.6-3.6c0-0.1,0-0.2,0-0.2c0.1-2-1.5-3.7-3.5-3.8
			c0,0-0.1,0-0.1,0C191.2,223.1,189.6,224.8,189.6,226.8z"/>
		<path d="M218.9,226.8c0.1,2.8-2.1,5.3-4.9,5.4c-0.1,0-0.2,0-0.3,0c-1.4,0.1-2.8-0.5-3.7-1.6v5.8h-1.8v-14.9h1.8v1.4
			c0.9-1.1,2.3-1.7,3.7-1.6C216.7,221.4,219,223.8,218.9,226.8z M209.9,226.8c-0.1,2,1.5,3.7,3.5,3.8c0,0,0.1,0,0.1,0
			c2,0,3.6-1.6,3.6-3.5c0-0.1,0-0.2,0-0.3c0.1-2-1.5-3.7-3.5-3.8c0,0-0.1,0-0.1,0C211.5,223,209.9,224.7,209.9,226.8
			C209.9,226.8,209.9,226.8,209.9,226.8z"/>
		<path d="M223.7,232.1h-1.8v-15.8h1.8V232.1z"/>
		<path d="M237,227.7c0,3.2-2.3,4.6-4.8,4.6s-4.8-1.4-4.8-4.6v-6.1h1.8v5.9c-0.2,1.5,1,2.9,2.5,3.1c0.2,0,0.3,0,0.5,0
			c1.5,0.1,2.9-1,3-2.5c0-0.2,0-0.4,0-0.6v-5.9h1.8V227.7z"/>
		<path d="M247.7,223.9c-1-0.7-2.2-1-3.4-1c-1.4,0-2.4,0.6-2.4,1.6c0,0.8,0.8,1.2,2,1.4l1.2,0.2c2.2,0.3,3.5,1.2,3.5,3
			c0,2-1.8,3.3-4.6,3.3c-1.6,0-3.1-0.4-4.4-1.3l0.8-1.3c1,0.8,2.3,1.2,3.6,1.1c1.7,0,2.8-0.6,2.8-1.6c0-0.8-0.7-1.3-2.1-1.4
			l-1.2-0.1c-2.3-0.3-3.5-1.3-3.5-2.9c0-2,1.7-3.2,4.2-3.2c1.5-0.1,2.9,0.3,4.2,1.1L247.7,223.9z"/>
		<path d="M264.5,223.9c-1-0.7-2.2-1-3.4-1c-1.4,0-2.4,0.6-2.4,1.6c0,0.8,0.8,1.2,2,1.4l1.2,0.2c2.2,0.3,3.5,1.2,3.5,3
			c0,2-1.8,3.3-4.6,3.3c-1.6,0-3.1-0.4-4.4-1.3l0.8-1.3c1,0.8,2.3,1.2,3.6,1.1c1.7,0,2.8-0.6,2.8-1.6c0-0.8-0.7-1.3-2.1-1.4
			l-1.2-0.1c-2.3-0.3-3.5-1.3-3.5-2.9c0-2,1.7-3.2,4.2-3.2c1.5-0.1,2.9,0.3,4.2,1.1L264.5,223.9z"/>
		<path d="M278.7,226.8c0,2.9-2.3,5.4-5.3,5.4c-0.1,0-0.1,0-0.2,0c-2.9,0.1-5.4-2.1-5.5-5.1c0-0.1,0-0.2,0-0.3c0-3,2.5-5.5,5.5-5.5
			S278.7,223.8,278.7,226.8L278.7,226.8z M269.4,226.8c0.1,2,1.8,3.7,3.8,3.6c2-0.1,3.7-1.8,3.6-3.8c-0.1-2-1.7-3.6-3.7-3.6
			C271,223,269.4,224.7,269.4,226.8L269.4,226.8z"/>
		<path d="M291.1,227.7c0,3.2-2.3,4.6-4.8,4.6s-4.8-1.4-4.8-4.6v-6.1h1.8v5.9c-0.2,1.5,1,2.9,2.5,3.1c0.2,0,0.3,0,0.5,0
			c1.5,0.1,2.9-1,3-2.5c0-0.2,0-0.4,0-0.6v-5.9h1.8V227.7z"/>
		<path d="M301.9,223.3h-4.4v5.1c0,1.6,0.8,2.3,2,2.3c0.8,0,1.5-0.3,2.1-0.7l0.8,1.4c-0.9,0.7-2,1-3.1,1c-2.3,0-3.6-1.2-3.6-3.9
			v-5.1h-2.2v-1.6h2.2v-3.3h1.8v3.3h4.4L301.9,223.3L301.9,223.3z"/>
		<path d="M314.1,226.8v0.7h-8.2c0.1,1.9,1.7,3.3,3.6,3.2c1.2,0,2.3-0.5,3.2-1.2l1,1.2c-1.2,1.1-2.7,1.6-4.3,1.6
			c-3,0-5.4-2.4-5.5-5.4c0-3,2.4-5.4,5.4-5.4l0,0C312,221.4,314,223.6,314.1,226.8z M305.8,226h6.4c0-1.7-1.4-3-3.1-3
			C307.4,223,305.9,224.3,305.8,226L305.8,226z"/>
		<path d="M326.6,225.6v6.5h-1.8v-5.9c0.2-1.5-0.9-2.9-2.5-3.1c-0.1,0-0.3,0-0.4,0c-1.7-0.1-3,1.2-3.1,2.9c0,0.1,0,0.1,0,0.2v5.9
			H317v-10.5h1.8v1.4c0.8-1.1,2.1-1.6,3.4-1.6c2.2-0.2,4.2,1.4,4.4,3.6C326.6,225.2,326.6,225.4,326.6,225.6z"/>
		<path d="M339.8,227.7c0,3.2-2.3,4.6-4.8,4.6s-4.8-1.4-4.8-4.6v-6.1h1.8v5.9c-0.2,1.5,1,2.9,2.5,3.1c0.2,0,0.3,0,0.5,0
			c1.5,0.1,2.9-1,3-2.5c0-0.2,0-0.4,0-0.6v-5.9h1.8V227.7z"/>
		<path d="M352.8,226.8v0.7h-8.2c0.1,1.9,1.7,3.3,3.6,3.2c1.2,0,2.3-0.5,3.2-1.2l1,1.2c-1.2,1.1-2.7,1.6-4.3,1.6
			c-3,0-5.4-2.4-5.5-5.4c0-3,2.4-5.4,5.4-5.4l0,0C350.7,221.4,352.8,223.6,352.8,226.8z M344.6,226h6.4c0-1.7-1.4-3-3.1-3
			C346.2,222.9,344.7,224.2,344.6,226C344.6,226,344.6,226,344.6,226L344.6,226z"/>
		<path d="M357.7,225.4h-1.5v-6.7l-2.3,0.9v-1.5l3.8-1.5V225.4z"/>
	</g>
	<g>
		<path d="M59.2,336.7H48.5v-15.4h1.9v13.6h8.8V336.7z"/>
		<path d="M61.8,320.8l-1.2,5.7H59l0.6-5.7H61.8z"/>
		<path d="M73.8,336.7H72v-1.4c-0.9,1.1-2.3,1.7-3.7,1.6c-3,0-5.4-2.4-5.4-5.4c0-3,2.4-5.4,5.4-5.4c1.4-0.1,2.8,0.5,3.7,1.6v-1.4
			h1.8V336.7z M64.9,331.4c-0.1,2,1.5,3.7,3.5,3.8c0,0,0.1,0,0.1,0c2,0,3.6-1.6,3.6-3.6c0-0.1,0-0.2,0-0.2c0.1-2-1.3-3.7-3.3-3.9
			c-2-0.1-3.7,1.3-3.9,3.3C64.9,331,64.9,331.2,64.9,331.4z"/>
		<path d="M86.1,327.6l-1.2,1.2c-0.8-0.7-1.7-1.2-2.8-1.2c-2.1,0.2-3.7,2-3.5,4.1c0.1,1.9,1.6,3.4,3.5,3.5c1.1,0,2.1-0.4,2.8-1.2
			l1.1,1.2c-1,1.1-2.4,1.7-3.9,1.6c-3,0-5.4-2.4-5.4-5.4c0-3,2.4-5.4,5.4-5.4c0,0,0,0,0,0C83.6,325.9,85.1,326.5,86.1,327.6z"/>
		<path d="M96.1,327.8h-4.4v5.1c0,1.6,0.8,2.3,2,2.3c0.8,0,1.5-0.3,2.1-0.7l0.8,1.4c-0.9,0.7-2,1-3.1,1c-2.3,0-3.6-1.2-3.6-3.9v-5.1
			h-2.2v-1.6h2.2V323h1.8v3.3h4.4V327.8z"/>
		<path d="M101.2,322.5c0,0.7-0.6,1.3-1.3,1.3c-0.7,0-1.3-0.5-1.3-1.2c0,0,0-0.1,0-0.1c0-0.7,0.6-1.3,1.3-1.3
			C100.6,321.2,101.2,321.8,101.2,322.5C101.2,322.5,101.2,322.5,101.2,322.5z M100.8,336.7H99v-10.5h1.8L100.8,336.7z"/>
		<path d="M111.4,327.8h-4v8.8h-1.8v-8.8h-2.3v-1.6h2.3v-1.8c0-2.2,1-3.8,3.5-3.8c1,0,2,0.3,2.9,0.8l-0.6,1.5
			c-0.6-0.4-1.4-0.6-2.1-0.6c-1.2,0-1.8,0.8-1.8,2.1v1.8h4L111.4,327.8z"/>
		<path d="M127.8,327.6v-1.4h1.8v9.7c0,3.4-2.3,5.3-5.6,5.3c-1.6,0-3.1-0.5-4.4-1.4l0.8-1.5c1,0.8,2.3,1.2,3.6,1.2
			c1.9,0.2,3.6-1.2,3.8-3.1c0-0.2,0-0.3,0-0.5V335c-0.9,1.1-2.2,1.7-3.6,1.6c-2.8,0-5.2-2.2-5.2-5.1c0-0.1,0-0.2,0-0.3
			c-0.2-2.8,2-5.2,4.8-5.4c0.1,0,0.3,0,0.4,0C125.6,325.9,126.9,326.5,127.8,327.6z M120.8,331.3c-0.1,1.9,1.4,3.6,3.4,3.7
			c0,0,0.1,0,0.1,0c1.9,0,3.5-1.5,3.5-3.4c0-0.1,0-0.2,0-0.3c0.1-1.9-1.4-3.6-3.4-3.7c0,0-0.1,0-0.1,0
			C122.3,327.6,120.8,329.3,120.8,331.3C120.8,331.3,120.8,331.3,120.8,331.3L120.8,331.3z"/>
		<path d="M142.7,331.4v0.7h-8.2c0.1,1.9,1.7,3.3,3.6,3.2c1.2,0,2.3-0.5,3.2-1.2l1,1.2c-1.2,1.1-2.7,1.6-4.3,1.6
			c-3,0-5.4-2.4-5.4-5.4c0-3,2.4-5.4,5.3-5.4C140.6,326,142.7,328.2,142.7,331.4z M134.5,330.6h6.4c0-1.7-1.4-3-3.1-3
			C136.1,327.5,134.6,328.8,134.5,330.6C134.5,330.6,134.5,330.6,134.5,330.6z M136.3,324.6l2.3-3.3h2.3l-2.8,3.3H136.3z"/>
		<path d="M152.5,326.3l-0.4,1.8c-0.6-0.3-1.2-0.4-1.8-0.4c-1.6,0-2.7,1.2-2.7,3.1v5.8h-1.8v-10.5h1.8v1.4c0.7-1,1.9-1.6,3.1-1.6
			C151.3,326,151.9,326.1,152.5,326.3z"/>
		<path d="M163.8,331.4v0.7h-8.2c0.1,1.9,1.7,3.3,3.6,3.2c1.2,0,2.3-0.5,3.2-1.2l1,1.2c-1.2,1.1-2.7,1.6-4.3,1.6
			c-3,0-5.4-2.4-5.4-5.4c0-3,2.4-5.4,5.3-5.4C161.7,326,163.8,328.2,163.8,331.4z M155.6,330.6h6.4c0-1.7-1.4-3-3.1-3
			C157.2,327.5,155.7,328.9,155.6,330.6z M157.4,324.6l2.3-3.3h2.3l-2.8,3.3H157.4z"/>
		<path d="M180.8,327.6v-6.8h1.8v15.8h-1.8v-1.4c-0.9,1.1-2.3,1.7-3.7,1.6c-3,0-5.4-2.4-5.4-5.4c0-3,2.4-5.4,5.4-5.4
			C178.5,325.9,179.9,326.5,180.8,327.6z M173.8,331.4c-0.1,2,1.5,3.7,3.5,3.8c0,0,0.1,0,0.1,0c2,0,3.6-1.6,3.6-3.6
			c0-0.1,0-0.2,0-0.2c0.1-2-1.3-3.7-3.3-3.9s-3.7,1.3-3.9,3.3C173.8,331,173.8,331.2,173.8,331.4L173.8,331.4z"/>
		<path d="M195.8,331.4v0.7h-8.2c0.1,1.9,1.7,3.3,3.6,3.2c1.2,0,2.3-0.5,3.2-1.2l1,1.2c-1.2,1.1-2.7,1.6-4.3,1.6
			c-3,0-5.4-2.4-5.4-5.4c0-3,2.4-5.4,5.3-5.4C193.7,326,195.7,328.2,195.8,331.4z M187.5,330.6h6.4c0-1.7-1.4-3-3.1-3
			C189.1,327.6,187.6,328.9,187.5,330.6z"/>
		<path d="M203.5,336.7h-2.1l-4.4-10.5h2l3.5,8.6l3.5-8.6h1.9L203.5,336.7z"/>
		<path d="M216.9,326.3l-0.4,1.8c-0.6-0.3-1.2-0.4-1.8-0.4c-1.6,0-2.7,1.2-2.7,3.1v5.8h-1.8v-10.5h1.8v1.4c0.7-1,1.9-1.6,3.1-1.6
			C215.7,326,216.3,326.1,216.9,326.3z"/>
		<path d="M228.8,336.7H227v-1.4c-0.9,1.1-2.3,1.7-3.7,1.6c-3,0-5.4-2.4-5.4-5.4c0-3,2.4-5.4,5.4-5.4c1.4-0.1,2.8,0.5,3.7,1.6v-1.4
			h1.8V336.7z M220,331.4c-0.1,2,1.5,3.7,3.5,3.8c0,0,0.1,0,0.1,0c2,0,3.6-1.6,3.6-3.6c0-0.1,0-0.2,0-0.2c0.1-2-1.3-3.7-3.3-3.9
			s-3.7,1.3-3.9,3.3C220,331,220,331.2,220,331.4L220,331.4z"/>
		<path d="M234.8,322.5c0,0.7-0.6,1.3-1.3,1.3c-0.7,0-1.3-0.5-1.3-1.2c0,0,0-0.1,0-0.1c0-0.7,0.6-1.3,1.3-1.3
			S234.8,321.8,234.8,322.5z M234.4,336.7h-1.8v-10.5h1.8V336.7z"/>
		<path d="M245.3,327.8H241v5.1c0,1.6,0.8,2.3,2,2.3c0.8,0,1.5-0.3,2.1-0.7l0.8,1.4c-0.9,0.7-2,1-3.1,1c-2.3,0-3.6-1.2-3.6-3.9v-5.1
			H237v-1.6h2.2V323h1.8v3.3h4.4L245.3,327.8L245.3,327.8z"/>
		<path d="M264,336.7h-1.8v-1.4c-0.9,1.1-2.3,1.7-3.7,1.6c-3,0-5.4-2.4-5.4-5.4c0-3,2.4-5.4,5.4-5.4c1.4-0.1,2.8,0.5,3.7,1.6v-1.4
			h1.8V336.7z M255.2,331.4c-0.1,2,1.5,3.7,3.5,3.8c0,0,0.1,0,0.1,0c2,0,3.6-1.6,3.6-3.6c0-0.1,0-0.2,0-0.2c0.1-2-1.3-3.7-3.3-3.9
			c-2-0.1-3.7,1.3-3.9,3.3C255.2,331,255.2,331.2,255.2,331.4z"/>
		<path d="M274.9,327.8h-4.4v5.1c0,1.6,0.8,2.3,2,2.3c0.8,0,1.5-0.3,2.1-0.7l0.8,1.4c-0.9,0.7-2,1-3.1,1c-2.3,0-3.6-1.2-3.6-3.9
			v-5.1h-2.2v-1.6h2.2V323h1.8v3.3h4.4L274.9,327.8L274.9,327.8z"/>
		<path d="M284.7,327.8h-4.4v5.1c0,1.6,0.8,2.3,2,2.3c0.8,0,1.5-0.3,2.1-0.7l0.8,1.4c-0.9,0.7-2,1-3.1,1c-2.3,0-3.6-1.2-3.6-3.9
			v-5.1h-2.2v-1.6h2.2V323h1.8v3.3h4.4L284.7,327.8L284.7,327.8z"/>
		<path d="M296.9,331.4v0.7h-8.2c0.1,1.9,1.7,3.3,3.6,3.2c1.2,0,2.3-0.5,3.2-1.2l1,1.2c-1.2,1.1-2.7,1.6-4.3,1.6
			c-3,0-5.4-2.4-5.4-5.4c0-3,2.4-5.4,5.3-5.4C294.8,326,296.9,328.2,296.9,331.4z M288.7,330.6h6.4c0-1.7-1.4-3-3.1-3
			C290.3,327.5,288.8,328.8,288.7,330.6C288.7,330.6,288.7,330.6,288.7,330.6L288.7,330.6z"/>
		<path d="M302.1,322.5c0,0.7-0.6,1.3-1.3,1.3c-0.7,0-1.3-0.6-1.3-1.3s0.6-1.3,1.3-1.3C301.5,321.2,302.1,321.8,302.1,322.5
			L302.1,322.5z M301.7,336.7h-1.8v-10.5h1.8V336.7z"/>
		<path d="M315.1,330.2v6.5h-1.8v-5.9c0.2-1.5-0.9-2.9-2.5-3.1c-0.1,0-0.3,0-0.4,0c-1.7-0.1-3,1.2-3.1,2.9c0,0.1,0,0.1,0,0.2v5.9
			h-1.8v-10.5h1.8v1.4c1.6-1.9,4.3-2.1,6.2-0.6C314.5,327.8,315,329,315.1,330.2z"/>
		<path d="M326.9,327.6v-6.8h1.8v15.8h-1.8v-1.4c-0.9,1.1-2.3,1.7-3.7,1.6c-3,0-5.4-2.4-5.4-5.4c0-3,2.4-5.4,5.4-5.4
			C324.6,325.9,326,326.5,326.9,327.6z M319.8,331.4c-0.1,2,1.5,3.7,3.5,3.8c0,0,0.1,0,0.1,0c2,0,3.6-1.6,3.6-3.6c0-0.1,0-0.2,0-0.2
			c0.1-2-1.3-3.7-3.3-3.9s-3.7,1.3-3.9,3.3C319.8,331,319.8,331.2,319.8,331.4z"/>
		<path d="M339.2,326.3l-0.4,1.8c-0.6-0.3-1.2-0.4-1.8-0.4c-1.6,0-2.7,1.2-2.7,3.1v5.8h-1.8v-10.5h1.8v1.4c0.7-1,1.9-1.6,3.1-1.6
			C338,326,338.6,326.1,339.2,326.3z"/>
		<path d="M350.6,331.4v0.7h-8.2c0.1,1.9,1.7,3.3,3.6,3.2c1.2,0,2.3-0.5,3.2-1.2l1,1.2c-1.2,1.1-2.7,1.6-4.3,1.6
			c-3,0-5.4-2.4-5.4-5.4c0-3,2.4-5.4,5.3-5.4C348.5,326,350.6,328.2,350.6,331.4z M342.4,330.6h6.4c0-1.7-1.4-3-3.1-3
			C344,327.5,342.5,328.8,342.4,330.6C342.4,330.6,342.4,330.6,342.4,330.6z"/>
	</g>
	<g>
		<path class="st1" d="M145.8,394.6H139v-26l-8.4,3.4v-6.8l15.1-6.1L145.8,394.6L145.8,394.6z"/>
		<path class="st1" d="M193,377.1c0,11.3-6.7,18.1-15.1,18.1s-15.1-6.8-15.1-18.1s6.7-18.1,15.1-18.1S193,365.7,193,377.1z
			 M169.8,377.1c0,7.6,3.6,11.6,8,11.6s8-4,8-11.6s-3.5-11.6-8-11.6S169.8,369.4,169.8,377.1z"/>
		<path class="st1" d="M227.3,377.1c0,11.3-6.7,18.1-15.1,18.1s-15.1-6.8-15.1-18.1s6.7-18.1,15.1-18.1S227.3,365.7,227.3,377.1z
			 M204.1,377.1c0,7.6,3.6,11.6,8,11.6s8-4,8-11.6s-3.5-11.6-8-11.6S204.1,369.4,204.1,377.1z"/>
		<path class="st1" d="M261.6,377.1c0,11.3-6.7,18.1-15.1,18.1s-15.1-6.8-15.1-18.1s6.7-18.1,15.1-18.1S261.6,365.7,261.6,377.1z
			 M238.4,377.1c0,7.6,3.6,11.6,8,11.6s8-4,8-11.6s-3.5-11.6-8-11.6S238.4,369.4,238.4,377.1L238.4,377.1z"/>
	</g>
	<g>
		<path class="st1" d="M88.3,426.3v15.4h-6.5v-13.3c0-3.5-1.8-5.4-4.7-5.4s-5.1,1.8-5.1,5.5v13.3h-6.5v-13.3c0-3.5-1.7-5.4-4.7-5.4
			c-2.8,0-5.1,1.8-5.1,5.5v13.3h-6.5v-24.2h6.3v2.8c1.6-2.3,4.3-3.7,7.1-3.5c3.2-0.1,6.2,1.4,8,4.1c1.9-3.1,5-4.1,8.2-4.1
			C84.4,416.9,88.3,420.7,88.3,426.3z"/>
		<path class="st1" d="M101.4,409.6c0,2.3-1.9,4.1-4.2,4.1s-4.2-1.9-4.2-4.1l0,0c0-2.3,1.8-4.2,4.1-4.2c0,0,0,0,0,0
			C99.5,405.4,101.4,407.3,101.4,409.6z M100.5,441.8H94v-24.2h6.5V441.8z"/>
		<path class="st1" d="M112.9,441.8h-6.5v-36h6.5V441.8z"/>
		<path class="st1" d="M125.2,441.8h-6.5v-36h6.5V441.8z"/>
		<path class="st1" d="M138.5,409.6c0,2.3-1.9,4.1-4.1,4.1c-2.3,0-4.2-1.9-4.2-4.1l0,0c0-2.3,1.9-4.1,4.2-4.1
			C136.6,405.5,138.5,407.3,138.5,409.6z M137.6,441.8h-6.5v-24.2h6.5V441.8z"/>
		<path class="st1" d="M167.3,441.8h-6.4v-2.7c-1.7,2.2-4.4,3.4-7.2,3.3c-6.7,0-11.7-5.5-11.7-12.7s5-12.7,11.7-12.7
			c2.8-0.1,5.5,1.1,7.2,3.3v-2.7h6.4V441.8z M148.6,429.6c0,3.7,2.4,6.7,6.2,6.7s6.2-2.8,6.2-6.7s-2.5-6.7-6.2-6.7
			S148.6,425.9,148.6,429.6L148.6,429.6z"/>
		<path class="st1" d="M189.7,417.4l-1,6.5c-1.2-0.5-2.6-0.8-3.9-0.8c-3,0-5.1,1.8-5.1,5.4v13.2h-6.5v-24.2h6.3v2.6
			c1.5-2.3,3.8-3.3,6.8-3.3C187.5,416.9,188.6,417.1,189.7,417.4z"/>
		<path class="st1" d="M209.7,420.1v-14.3h6.5v36h-6.4v-2.7c-1.7,2.2-4.4,3.4-7.2,3.3c-6.7,0-11.7-5.5-11.7-12.7s5-12.7,11.7-12.7
			C205.3,416.8,208,418,209.7,420.1z M197.5,429.6c0,3.7,2.4,6.7,6.2,6.7s6.2-2.8,6.2-6.7s-2.5-6.7-6.2-6.7S197.5,425.9,197.5,429.6
			z"/>
		<path class="st1" d="M239.4,424.3c-2.4-1.2-5-1.9-7.7-2c-2.5,0-3.7,0.9-3.7,2.2s1.7,1.8,3.9,2.1l2.1,0.3c5.2,0.8,8.2,3.1,8.2,7.2
			c0,5-4.1,8.2-11.1,8.2c-3.3,0-7.6-0.6-10.8-2.8l2.6-4.9c2.4,1.6,5.3,2.5,8.2,2.4c3,0,4.5-0.8,4.5-2.3c0-1.2-1.2-1.8-4-2.2l-2-0.3
			c-5.6-0.8-8.4-3.2-8.4-7.3c0-5,3.8-7.9,10.2-7.9c3.5-0.1,7,0.7,10.1,2.3L239.4,424.3z"/>
		<path class="st1" d="M275.1,402.7v4.6c3.7,0.3,7.3,1.5,10.4,3.5l-3.1,5.3c-2.2-1.4-4.7-2.3-7.3-2.7v8c6.1,0.9,10.9,3.6,10.7,9.3
			c-0.2,6.2-4.9,9.5-10.7,10.4v4.9h-5.5v-4.8c-4.4-0.4-8.9-1.8-11.9-4.2l3.4-5.3c2.5,1.8,5.4,3,8.5,3.4v-8h-0.3
			c-6.1-1-10.5-3.6-10.4-9.6c0.1-5.6,4.5-9.3,10.7-10.1v-4.7L275.1,402.7z M269.5,420.5v-6.9c-2.3,0.5-3.8,1.8-3.8,3.6
			S267.1,419.8,269.5,420.5z M275.1,428.1v6.9c2.3-0.5,3.8-1.8,3.9-3.6S277.6,428.7,275.1,428.1z"/>
		<path class="st1" d="M322,427.8c0,9.7-6.2,14.6-15.1,14.6s-15.1-4.9-15.1-14.6v-21h7v20.7c0,5.7,3.2,8.3,8.1,8.3s8.1-2.5,8.1-8.3
			v-20.7h7V427.8z"/>
		<path class="st1" d="M352.3,415.6c-3-1.9-6.4-3-9.9-3c-3.9,0-6.7,1.5-6.7,4.2s3,3.3,7.2,4l2,0.3c6.2,1,11.1,3.7,11.1,9.8
			c0,7.7-6.8,11.4-14.3,11.4c-5.3,0-11-1.5-14.7-4.6l3.6-5.6c3.2,2.4,7.1,3.8,11.1,3.8c3.9,0,6.9-1.5,6.9-4.2c0-2.4-2.5-3.3-7.4-4.1
			l-2.2-0.4c-6.2-1-10.7-3.7-10.7-10c0-7.3,6.5-11.1,13.9-11.1c4.7-0.1,9.4,1.2,13.4,3.7L352.3,415.6z"/>
	</g>
	<g>
		<path d="M50.7,476.3l-1.2,1.2c-0.8-0.7-1.7-1.2-2.8-1.2c-2.1,0.2-3.7,2-3.5,4.1c0.1,1.9,1.6,3.4,3.5,3.5c1.1,0,2.1-0.4,2.8-1.2
			l1.1,1.2c-1,1.1-2.4,1.7-3.9,1.6c-3,0-5.4-2.4-5.4-5.4c0-3,2.4-5.4,5.4-5.4C48.2,474.6,49.7,475.2,50.7,476.3z"/>
		<path d="M63.2,485.3h-1.8v-1.4c-0.9,1.1-2.3,1.7-3.7,1.6c-3,0-5.4-2.4-5.4-5.4c0-3,2.4-5.4,5.4-5.4c1.4-0.1,2.8,0.5,3.7,1.6v-1.4
			h1.8V485.3z M54.3,480.1c-0.1,2,1.5,3.7,3.5,3.8c0,0,0.1,0,0.1,0c2,0,3.6-1.6,3.6-3.6c0-0.1,0-0.2,0-0.2c0.1-2-1.5-3.7-3.5-3.8
			c0,0-0.1,0-0.1,0C55.9,476.3,54.3,478,54.3,480.1C54.3,480.1,54.3,480.1,54.3,480.1L54.3,480.1z"/>
		<path d="M73.8,475l-0.4,1.8c-0.6-0.3-1.2-0.4-1.8-0.4c-1.6,0-2.7,1.2-2.7,3.1v5.8H67v-10.5h1.8v1.4c0.7-1,1.9-1.6,3.1-1.6
			C72.5,474.7,73.2,474.8,73.8,475z"/>
		<path d="M83.7,485.3h-1.8v-15.8h1.8L83.7,485.3z"/>
		<path d="M96.8,480.1v0.7h-8.2c0.1,1.9,1.7,3.3,3.6,3.2c1.2,0,2.3-0.5,3.2-1.2l1,1.2c-1.2,1.1-2.7,1.6-4.3,1.6
			c-3,0-5.4-2.4-5.4-5.4c0-3,2.4-5.4,5.3-5.4C94.7,474.7,96.8,476.9,96.8,480.1z M88.6,479.3H95c0-1.7-1.4-3-3.1-3
			C90.2,476.2,88.7,477.6,88.6,479.3L88.6,479.3z"/>
		<path d="M106.9,477.2c-1-0.7-2.2-1-3.4-1c-1.4,0-2.4,0.6-2.4,1.6c0,0.8,0.8,1.2,2,1.4l1.2,0.2c2.2,0.3,3.5,1.2,3.5,3
			c0,2-1.8,3.3-4.6,3.3c-1.6,0-3.1-0.4-4.4-1.3l0.8-1.3c1,0.8,2.3,1.2,3.6,1.1c1.7,0,2.8-0.6,2.8-1.6c0-0.8-0.7-1.3-2.1-1.4
			l-1.2-0.1c-2.3-0.3-3.5-1.3-3.5-2.9c0-2,1.7-3.2,4.2-3.2c1.5-0.1,2.9,0.3,4.2,1.1L106.9,477.2z"/>
		<path d="M118.8,471.2c0,0.7-0.6,1.3-1.3,1.3c-0.7,0-1.3-0.5-1.3-1.2c0,0,0-0.1,0-0.1c0-0.7,0.6-1.3,1.3-1.3
			C118.2,469.9,118.8,470.5,118.8,471.2C118.8,471.2,118.8,471.2,118.8,471.2z M118.4,485.3h-1.8v-10.5h1.8V485.3z"/>
		<path d="M131.8,478.8v6.5H130v-5.9c0.2-1.5-0.9-2.9-2.5-3.1c-0.1,0-0.3,0-0.4,0c-1.7-0.1-3,1.2-3.1,2.9c0,0.1,0,0.1,0,0.2v5.9
			h-1.8v-10.5h1.8v1.4c0.8-1.1,2.1-1.6,3.4-1.6C130,474.7,131.8,476.3,131.8,478.8z"/>
		<path d="M140.2,485.3h-2.1l-4.4-10.5h2l3.5,8.6l3.5-8.6h1.9L140.2,485.3z"/>
		<path d="M156,480.1v0.7h-8.2c0.1,1.9,1.7,3.3,3.6,3.2c1.2,0,2.3-0.5,3.2-1.2l1,1.2c-1.2,1.1-2.7,1.6-4.3,1.6c-3,0-5.4-2.4-5.4-5.4
			c0-3,2.4-5.4,5.3-5.4C153.9,474.7,155.9,476.9,156,480.1z M147.7,479.3h6.4c0-1.7-1.4-3-3.1-3
			C149.3,476.3,147.8,477.6,147.7,479.3L147.7,479.3z"/>
		<path d="M166,477.2c-1-0.7-2.2-1-3.4-1c-1.4,0-2.4,0.6-2.4,1.6c0,0.8,0.8,1.2,2,1.4l1.2,0.2c2.2,0.3,3.5,1.2,3.5,3
			c0,2-1.8,3.3-4.6,3.3c-1.6,0-3.1-0.4-4.4-1.3l0.8-1.3c1,0.8,2.3,1.2,3.6,1.1c1.7,0,2.8-0.6,2.8-1.6c0-0.8-0.7-1.3-2.1-1.4
			l-1.2-0.1c-2.3-0.3-3.5-1.3-3.5-2.9c0-2,1.7-3.2,4.2-3.2c1.5-0.1,2.9,0.3,4.2,1.1L166,477.2z"/>
		<path d="M177,476.5h-4.4v5.1c0,1.6,0.8,2.3,2,2.3c0.8,0,1.5-0.3,2.1-0.7l0.8,1.4c-0.9,0.7-2,1-3.1,1c-2.3,0-3.6-1.2-3.6-3.9v-5.1
			h-2.2V475h2.2v-3.3h1.8v3.3h4.4V476.5z"/>
		<path d="M182.1,471.2c0,0.7-0.6,1.3-1.3,1.3c-0.7,0-1.3-0.5-1.3-1.2c0,0,0-0.1,0-0.1c0-0.7,0.6-1.3,1.3-1.3
			S182.1,470.5,182.1,471.2L182.1,471.2z M181.7,485.3h-1.8v-10.5h1.8V485.3z"/>
		<path d="M192.5,477.2c-1-0.7-2.2-1-3.4-1c-1.4,0-2.4,0.6-2.4,1.6c0,0.8,0.8,1.2,2,1.4l1.2,0.2c2.2,0.3,3.5,1.2,3.5,3
			c0,2-1.8,3.3-4.6,3.3c-1.6,0-3.1-0.4-4.4-1.3l0.8-1.3c1,0.8,2.3,1.2,3.6,1.1c1.7,0,2.8-0.6,2.8-1.6c0-0.8-0.7-1.3-2.1-1.4
			l-1.2-0.1c-2.3-0.3-3.5-1.3-3.5-2.9c0-2,1.7-3.2,4.2-3.2c1.5-0.1,2.9,0.3,4.2,1.1L192.5,477.2z"/>
		<path d="M203.5,477.2c-1-0.7-2.2-1-3.4-1c-1.4,0-2.4,0.6-2.4,1.6c0,0.8,0.8,1.2,2,1.4l1.2,0.2c2.2,0.3,3.5,1.2,3.5,3
			c0,2-1.8,3.3-4.6,3.3c-1.6,0-3.1-0.4-4.4-1.3l0.8-1.3c1,0.8,2.3,1.2,3.6,1.1c1.7,0,2.8-0.6,2.8-1.6c0-0.8-0.7-1.3-2.1-1.4
			l-1.2-0.1c-2.3-0.3-3.5-1.3-3.5-2.9c0-2,1.7-3.2,4.2-3.2c1.5-0.1,2.9,0.3,4.2,1.1L203.5,477.2z"/>
		<path d="M216.7,480.1v0.7h-8.2c0.1,1.9,1.7,3.3,3.6,3.2c1.2,0,2.3-0.5,3.2-1.2l1,1.2c-1.2,1.1-2.7,1.6-4.3,1.6
			c-3,0-5.4-2.4-5.4-5.4c0-3,2.4-5.4,5.3-5.4C214.6,474.7,216.6,476.9,216.7,480.1z M208.4,479.3h6.4c0-1.7-1.4-3-3.1-3
			C210,476.3,208.5,477.6,208.4,479.3L208.4,479.3z"/>
		<path d="M229.1,481c0,3.2-2.3,4.6-4.8,4.6s-4.8-1.4-4.8-4.6v-6.1h1.8v5.9c-0.2,1.5,1,2.9,2.5,3.1c0.2,0,0.3,0,0.5,0
			c1.5,0.1,2.9-1,3-2.5c0-0.2,0-0.4,0-0.6v-5.9h1.8V481z"/>
		<path d="M239.5,475l-0.4,1.8c-0.6-0.3-1.2-0.4-1.8-0.4c-1.6,0-2.7,1.2-2.7,3.1v5.8h-1.8v-10.5h1.8v1.4c0.7-1,1.9-1.6,3.1-1.6
			C238.3,474.7,238.9,474.8,239.5,475z"/>
		<path d="M248.9,477.2c-1-0.7-2.2-1-3.4-1c-1.4,0-2.4,0.6-2.4,1.6c0,0.8,0.8,1.2,2,1.4l1.2,0.2c2.2,0.3,3.5,1.2,3.5,3
			c0,2-1.8,3.3-4.6,3.3c-1.6,0-3.1-0.4-4.4-1.3l0.8-1.3c1,0.8,2.3,1.2,3.6,1.1c1.7,0,2.8-0.6,2.8-1.6c0-0.8-0.7-1.3-2.1-1.4
			l-1.2-0.1c-2.3-0.3-3.5-1.3-3.5-2.9c0-2,1.7-3.2,4.2-3.2c1.5-0.1,2.9,0.3,4.2,1.1L248.9,477.2z"/>
		<path d="M267.2,476.3l-1.2,1.2c-0.8-0.7-1.7-1.2-2.8-1.2c-2.1,0.2-3.7,2-3.5,4.1c0.1,1.9,1.6,3.4,3.5,3.5c1.1,0,2.1-0.4,2.8-1.2
			l1.1,1.2c-1,1.1-2.4,1.7-3.9,1.6c-3-0.1-5.3-2.6-5.2-5.6c0.1-3,2.6-5.3,5.6-5.2C264.9,474.7,266.2,475.3,267.2,476.3z"/>
		<path d="M280,480.1c0,2.9-2.3,5.4-5.3,5.4c-0.1,0-0.1,0-0.2,0c-2.9,0.1-5.4-2.1-5.5-5.1c0-0.1,0-0.2,0-0.3c0-3,2.5-5.5,5.5-5.5
			S280,477.1,280,480.1z M270.8,480.1c0.1,2,1.8,3.7,3.8,3.6c2-0.1,3.7-1.8,3.6-3.8c-0.1-2-1.7-3.6-3.7-3.6
			C272.5,476.3,270.8,478,270.8,480.1C270.8,480,270.8,480.1,270.8,480.1z"/>
		<path d="M292.6,478.8v6.5h-1.8v-5.9c0.2-1.5-0.9-2.9-2.5-3.1c-0.1,0-0.3,0-0.4,0c-1.7-0.1-3,1.2-3.1,2.9c0,0.1,0,0.1,0,0.2v5.9
			H283v-10.5h1.8v1.4c0.8-1.1,2.1-1.6,3.4-1.6C290.8,474.7,292.6,476.3,292.6,478.8z"/>
		<path d="M303.2,476.5h-4.4v5.1c0,1.6,0.8,2.3,2,2.3c0.8,0,1.5-0.3,2.1-0.7l0.8,1.4c-0.9,0.7-2,1-3.1,1c-2.3,0-3.6-1.2-3.6-3.9
			v-5.1h-2.2V475h2.2v-3.3h1.8v3.3h4.4L303.2,476.5L303.2,476.5z"/>
		<path d="M308.3,471.2c0,0.7-0.6,1.3-1.3,1.3c-0.7,0-1.3-0.6-1.3-1.3s0.6-1.3,1.3-1.3C307.7,469.9,308.3,470.5,308.3,471.2
			L308.3,471.2z M307.9,485.3h-1.8v-10.5h1.8V485.3z"/>
		<path d="M321.3,478.8v6.5h-1.8v-5.9c0.2-1.5-0.9-2.9-2.5-3.1c-0.1,0-0.3,0-0.4,0c-1.7-0.1-3,1.2-3.1,2.9c0,0.1,0,0.1,0,0.2v5.9
			h-1.8v-10.5h1.8v1.4c0.8-1.1,2.1-1.6,3.4-1.6C319.5,474.7,321.3,476.3,321.3,478.8z"/>
		<path d="M334.4,481c0,3.2-2.3,4.6-4.8,4.6s-4.8-1.4-4.8-4.6v-6.1h1.8v5.9c-0.2,1.5,1,2.9,2.5,3.1c0.2,0,0.3,0,0.5,0
			c1.5,0.1,2.9-1,3-2.5c0-0.2,0-0.4,0-0.6v-5.9h1.8V481z"/>
		<path d="M347.4,480.1v0.7h-8.2c0.1,1.9,1.7,3.3,3.6,3.2c1.2,0,2.3-0.5,3.2-1.2l1,1.2c-1.2,1.1-2.7,1.6-4.3,1.6
			c-3,0-5.4-2.4-5.4-5.4c0-3,2.4-5.4,5.3-5.4C345.3,474.7,347.4,476.9,347.4,480.1z M339.2,479.3h6.4c0-1.7-1.4-3-3.1-3
			C340.8,476.2,339.3,477.5,339.2,479.3C339.2,479.3,339.2,479.3,339.2,479.3L339.2,479.3z"/>
		<path d="M360,478.8v6.5h-1.8v-5.9c0.2-1.5-0.9-2.9-2.5-3.1c-0.1,0-0.3,0-0.4,0c-1.7-0.1-3,1.2-3.1,2.9c0,0.1,0,0.1,0,0.2v5.9h-1.8
			v-10.5h1.8v1.4c0.8-1.1,2.1-1.6,3.4-1.6C358.2,474.7,360,476.3,360,478.8z"/>
		<path d="M370.6,476.5h-4.4v5.1c0,1.6,0.8,2.3,2,2.3c0.8,0,1.5-0.3,2.1-0.7l0.8,1.4c-0.9,0.7-2,1-3.1,1c-2.3,0-3.6-1.2-3.6-3.9
			v-5.1h-2.2V475h2.2v-3.3h1.8v3.3h4.4L370.6,476.5L370.6,476.5z"/>
	</g>
	<g>
		<path d="M62.1,502.7v-6.8h1.8v15.8h-1.8v-1.4c-0.9,1.1-2.3,1.7-3.7,1.6c-3,0-5.4-2.4-5.4-5.4c0-3,2.4-5.4,5.4-5.4
			C59.8,501,61.2,501.6,62.1,502.7z M55.1,506.5c-0.1,2,1.5,3.7,3.5,3.8c0,0,0.1,0,0.1,0c2,0,3.6-1.6,3.6-3.6c0-0.1,0-0.2,0-0.2
			c0.1-2-1.3-3.7-3.3-3.9s-3.7,1.3-3.9,3.3C55.1,506.1,55.1,506.3,55.1,506.5z"/>
		<path d="M77.1,506.5v0.7h-8.2c0.1,1.9,1.7,3.3,3.6,3.2c1.2,0,2.3-0.5,3.2-1.2l1,1.2c-1.2,1.1-2.7,1.6-4.3,1.6
			c-3,0-5.4-2.4-5.4-5.4c0-3,2.4-5.4,5.3-5.4l0,0C75,501.1,77,503.3,77.1,506.5z M68.8,505.7h6.4c0-1.7-1.4-3-3.1-3
			C70.4,502.7,68.9,504,68.8,505.7z"/>
		<path d="M92.7,501.4l-0.4,1.8c-0.6-0.3-1.2-0.4-1.8-0.4c-1.6,0-2.7,1.2-2.7,3.1v5.8H86v-10.5h1.8v1.4c0.7-1,1.9-1.6,3.1-1.6
			C91.5,501.1,92.1,501.2,92.7,501.4z"/>
		<path d="M104.1,506.5v0.7h-8.2c0.1,1.9,1.7,3.3,3.6,3.2c1.2,0,2.3-0.5,3.2-1.2l1,1.2c-1.2,1.1-2.7,1.6-4.3,1.6
			c-3,0-5.4-2.4-5.4-5.4c0-3,2.4-5.4,5.3-5.4l0,0C102,501.1,104,503.3,104.1,506.5z M95.8,505.7h6.4c0-1.7-1.4-3-3.1-3
			C97.4,502.7,95.9,504,95.8,505.7z"/>
		<path d="M115.6,502.7l-1.2,1.2c-0.8-0.7-1.7-1.2-2.8-1.2c-2.1,0.2-3.7,2-3.5,4.1c0.1,1.9,1.6,3.4,3.5,3.5c1.1,0,2.1-0.4,2.8-1.2
			l1.1,1.2c-1,1.1-2.4,1.7-3.9,1.6c-3-0.1-5.3-2.6-5.2-5.6c0.1-3,2.6-5.3,5.6-5.2C113.3,501.1,114.6,501.7,115.6,502.7z"/>
		<path d="M120.1,502.6c1.6-1.9,4.3-2.1,6.2-0.6c1,0.8,1.5,1.9,1.6,3.2v6.5h-1.8v-5.9c0.2-1.5-0.9-2.9-2.5-3.1c-0.1,0-0.3,0-0.4,0
			c-1.7-0.1-3,1.2-3.1,2.9c0,0.1,0,0.1,0,0.2v5.9h-1.8v-15.8h1.8V502.6z"/>
		<path d="M140.9,506.5v0.7h-8.2c0.1,1.9,1.7,3.3,3.6,3.2c1.2,0,2.3-0.5,3.2-1.2l1,1.2c-1.2,1.1-2.7,1.6-4.3,1.6
			c-3,0-5.4-2.4-5.4-5.4c0-3,2.4-5.4,5.3-5.4C138.8,501.1,140.9,503.3,140.9,506.5z M132.7,505.7h6.4c0-1.7-1.4-3-3.1-3
			C134.3,502.6,132.8,504,132.7,505.7z"/>
		<path d="M150.7,501.4l-0.4,1.8c-0.6-0.3-1.2-0.4-1.8-0.4c-1.6,0-2.7,1.2-2.7,3.1v5.8H144v-10.5h1.8v1.4c0.7-1,1.9-1.6,3.1-1.6
			C149.5,501.1,150.1,501.2,150.7,501.4z"/>
		<path d="M161.2,502.7l-1.2,1.2c-0.8-0.7-1.7-1.2-2.8-1.2c-2.1,0.2-3.7,2-3.5,4.1c0.1,1.9,1.6,3.4,3.5,3.5c1.1,0,2.1-0.4,2.8-1.2
			l1.1,1.2c-1,1.1-2.4,1.7-3.9,1.6c-3,0-5.4-2.4-5.4-5.4c0-3,2.4-5.4,5.4-5.4C158.7,501,160.2,501.6,161.2,502.7z"/>
		<path d="M165.8,502.6c1.6-1.9,4.3-2.1,6.2-0.6c1,0.8,1.5,1.9,1.6,3.2v6.5h-1.8v-5.9c0.2-1.5-0.9-2.9-2.5-3.1c-0.1,0-0.3,0-0.4,0
			c-1.7-0.1-3,1.2-3.1,2.9c0,0.1,0,0.1,0,0.2v5.9H164v-15.8h1.8V502.6z"/>
		<path d="M186.6,506.5v0.7h-8.2c0.1,1.9,1.7,3.3,3.6,3.2c1.2,0,2.3-0.5,3.2-1.2l1,1.2c-1.2,1.1-2.7,1.6-4.3,1.6
			c-3,0-5.4-2.4-5.4-5.4c0-3,2.4-5.4,5.3-5.4C184.5,501.1,186.5,503.3,186.6,506.5z M178.3,505.7h6.4c0-1.7-1.4-3-3.1-3
			C179.9,502.7,178.4,504,178.3,505.7z"/>
		<path d="M196.3,501.4l-0.4,1.8c-0.6-0.3-1.2-0.4-1.8-0.4c-1.6,0-2.7,1.2-2.7,3.1v5.8h-1.8v-10.5h1.8v1.4c0.7-1,1.9-1.6,3.1-1.6
			C195.1,501.1,195.7,501.2,196.3,501.4z"/>
		<path d="M212.5,502.7v-6.8h1.8v15.8h-1.8v-1.4c-0.9,1.1-2.3,1.7-3.7,1.6c-3,0-5.4-2.4-5.4-5.4c0-3,2.4-5.4,5.4-5.4
			C210.2,501,211.6,501.6,212.5,502.7z M205.5,506.5c-0.1,2,1.5,3.7,3.5,3.8c0,0,0.1,0,0.1,0c2,0,3.6-1.6,3.6-3.6c0-0.1,0-0.2,0-0.2
			c0.1-2-1.3-3.7-3.3-3.9s-3.7,1.3-3.9,3.3C205.5,506.1,205.5,506.3,205.5,506.5L205.5,506.5z"/>
		<path d="M227.5,506.5v0.7h-8.2c0.1,1.9,1.7,3.3,3.6,3.2c1.2,0,2.3-0.5,3.2-1.2l1,1.2c-1.2,1.1-2.7,1.6-4.3,1.6
			c-3,0-5.4-2.4-5.4-5.4c0-3,2.4-5.4,5.3-5.4C225.4,501.1,227.4,503.3,227.5,506.5z M219.2,505.7h6.4c0-1.7-1.4-3-3.1-3
			C220.8,502.7,219.3,504,219.2,505.7z"/>
		<path d="M237.5,503.6c-1-0.7-2.2-1-3.4-1c-1.4,0-2.4,0.6-2.4,1.6c0,0.8,0.8,1.2,2,1.4l1.2,0.2c2.2,0.3,3.5,1.2,3.5,3
			c0,2-1.8,3.3-4.6,3.3c-1.6,0-3.1-0.4-4.4-1.3l0.8-1.3c1,0.8,2.3,1.2,3.6,1.1c1.7,0,2.8-0.6,2.8-1.6c0-0.8-0.7-1.3-2.1-1.4
			l-1.2-0.1c-2.3-0.3-3.5-1.3-3.5-2.9c0-2,1.7-3.2,4.2-3.2c1.5-0.1,2.9,0.3,4.2,1.1L237.5,503.6z"/>
		<path d="M254.3,503.6c-1-0.7-2.2-1-3.4-1c-1.4,0-2.4,0.6-2.4,1.6c0,0.8,0.8,1.2,2,1.4l1.2,0.2c2.2,0.3,3.5,1.2,3.5,3
			c0,2-1.8,3.3-4.6,3.3c-1.6,0-3.1-0.4-4.4-1.3l0.8-1.3c1,0.8,2.3,1.2,3.6,1.1c1.7,0,2.8-0.6,2.8-1.6c0-0.8-0.7-1.3-2.1-1.4
			l-1.2-0.1c-2.3-0.3-3.5-1.3-3.5-2.9c0-2,1.7-3.2,4.2-3.2c1.5-0.1,2.9,0.3,4.2,1.1L254.3,503.6z"/>
		<path d="M268.5,506.5c0,2.9-2.3,5.4-5.3,5.4c-0.1,0-0.1,0-0.2,0c-2.9,0.1-5.4-2.1-5.5-5.1c0-0.1,0-0.2,0-0.3c0-3,2.5-5.5,5.5-5.5
			S268.5,503.5,268.5,506.5z M259.3,506.5c0.1,2,1.8,3.7,3.8,3.6c2-0.1,3.7-1.8,3.6-3.8c-0.1-2-1.7-3.6-3.7-3.6
			C261,502.7,259.3,504.4,259.3,506.5C259.3,506.4,259.3,506.5,259.3,506.5z"/>
		<path d="M280.9,507.4c0,3.2-2.3,4.6-4.8,4.6s-4.8-1.4-4.8-4.6v-6.1h1.8v5.9c-0.2,1.5,1,2.9,2.5,3.1c0.2,0,0.3,0,0.5,0
			c1.5,0.1,2.9-1,3-2.5c0-0.2,0-0.4,0-0.6v-5.9h1.8V507.4z"/>
		<path d="M291.4,501.4l-0.4,1.8c-0.6-0.3-1.2-0.4-1.8-0.4c-1.6,0-2.7,1.2-2.7,3.1v5.8h-1.8v-10.5h1.8v1.4c0.7-1,1.9-1.6,3.1-1.6
			C290.2,501.1,290.8,501.2,291.4,501.4z"/>
		<path d="M301.9,502.7l-1.2,1.2c-0.8-0.7-1.7-1.2-2.8-1.2c-2.1,0.2-3.7,2-3.5,4.1c0.1,1.9,1.6,3.4,3.5,3.5c1.1,0,2.1-0.4,2.8-1.2
			l1.1,1.2c-1,1.1-2.4,1.7-3.9,1.6c-3,0-5.4-2.4-5.4-5.4c0-3,2.4-5.4,5.4-5.4C299.4,501,300.9,501.6,301.9,502.7z"/>
		<path d="M313.8,506.5v0.7h-8.2c0.1,1.9,1.7,3.3,3.6,3.2c1.2,0,2.3-0.5,3.2-1.2l1,1.2c-1.2,1.1-2.7,1.6-4.3,1.6
			c-3,0-5.4-2.4-5.4-5.4c0-3,2.4-5.4,5.3-5.4C311.8,501.1,313.8,503.3,313.8,506.5z M305.6,505.7h6.4c0-1.7-1.4-3-3.1-3
			C307.2,502.6,305.7,504,305.6,505.7L305.6,505.7z"/>
		<path d="M323.9,503.6c-1-0.7-2.2-1-3.4-1c-1.4,0-2.4,0.6-2.4,1.6c0,0.8,0.8,1.2,2,1.4l1.2,0.2c2.2,0.3,3.5,1.2,3.5,3
			c0,2-1.8,3.3-4.6,3.3c-1.6,0-3.1-0.4-4.4-1.3l0.8-1.3c1,0.8,2.3,1.2,3.6,1.1c1.7,0,2.8-0.6,2.8-1.6c0-0.8-0.7-1.3-2.1-1.4
			l-1.2-0.1c-2.3-0.3-3.5-1.3-3.5-2.9c0-2,1.7-3.2,4.2-3.2c1.5-0.1,2.9,0.3,4.2,1.1L323.9,503.6z"/>
		<path d="M341.8,502.7v-6.8h1.8v15.8h-1.8v-1.4c-0.9,1.1-2.3,1.7-3.7,1.6c-3,0-5.4-2.4-5.4-5.4c0-3,2.4-5.4,5.4-5.4
			C339.5,501.1,340.9,501.6,341.8,502.7z M334.7,506.5c-0.1,2,1.5,3.7,3.5,3.8c0,0,0.1,0,0.1,0c2,0,3.6-1.6,3.6-3.6
			c0-0.1,0-0.2,0-0.2c0.1-2-1.3-3.7-3.3-3.9s-3.7,1.3-3.9,3.3C334.7,506.1,334.7,506.3,334.7,506.5z"/>
		<path d="M356.7,506.5v0.7h-8.2c0.1,1.9,1.7,3.3,3.6,3.2c1.2,0,2.3-0.5,3.2-1.2l1,1.2c-1.2,1.1-2.7,1.6-4.3,1.6
			c-3,0-5.4-2.4-5.4-5.4c0-3,2.4-5.4,5.3-5.4C354.6,501.1,356.7,503.3,356.7,506.5z M348.5,505.7h6.4c0-1.7-1.4-3-3.1-3
			C350.1,502.6,348.6,503.9,348.5,505.7C348.5,505.7,348.5,505.7,348.5,505.7z"/>
	</g>
	<g>
		<path d="M43.4,527.8l-0.4,1.8c-0.6-0.3-1.2-0.4-1.8-0.4c-1.6,0-2.7,1.2-2.7,3.1v5.8h-1.8v-10.5h1.8v1.4c0.7-1,1.9-1.6,3.1-1.6
			C42.2,527.5,42.8,527.6,43.4,527.8z"/>
		<path d="M54.7,532.9v0.7h-8.2c0.1,1.9,1.7,3.3,3.6,3.2c1.2,0,2.3-0.5,3.2-1.2l1,1.2c-1.2,1.1-2.7,1.6-4.3,1.6
			c-3,0-5.4-2.4-5.4-5.3c0-3,2.4-5.4,5.3-5.5C52.6,527.5,54.7,529.7,54.7,532.9z M46.5,532.1h6.4c0-1.7-1.4-3-3.1-3
			C48.1,529,46.6,530.4,46.5,532.1L46.5,532.1z"/>
		<path d="M67.3,531.6v6.5h-1.8v-5.9c0.2-1.5-0.9-2.9-2.5-3.1c-0.1,0-0.3,0-0.4,0c-1.7-0.1-3,1.2-3.1,2.9c0,0.1,0,0.1,0,0.2v5.9
			h-1.8v-10.5h1.8v1.4c0.8-1.1,2.1-1.6,3.4-1.6C65.5,527.5,67.3,529.1,67.3,531.6z"/>
		<path d="M79.1,529.1v-6.8h1.8v15.8h-1.8v-1.4c-0.9,1.1-2.3,1.7-3.7,1.6c-3,0-5.4-2.4-5.4-5.4c0-3,2.4-5.4,5.4-5.4
			C76.8,527.4,78.2,528,79.1,529.1z M72,532.9c-0.1,2,1.5,3.7,3.5,3.8c0,0,0.1,0,0.1,0c2,0,3.6-1.6,3.6-3.6c0-0.1,0-0.2,0-0.2
			c0.1-2-1.3-3.7-3.3-3.9c-2-0.1-3.7,1.3-3.9,3.3C72,532.5,72,532.7,72,532.9z"/>
		<path d="M94,532.9v0.7h-8.2c0.1,1.9,1.7,3.3,3.6,3.2c1.2,0,2.3-0.5,3.2-1.2l1,1.2c-1.2,1.1-2.7,1.6-4.3,1.6c-3,0-5.4-2.4-5.4-5.3
			c0-3,2.4-5.4,5.3-5.5C92,527.5,94,529.7,94,532.9z M85.8,532.1h6.4c0-1.7-1.4-3-3.1-3C87.4,529,85.9,530.4,85.8,532.1L85.8,532.1z
			"/>
		<path d="M114.4,531.6v6.5h-1.8v-5.9c0.2-1.5-0.9-2.9-2.5-3.1c-0.1,0-0.3,0-0.4,0c-1.7-0.1-3,1.2-3.1,2.9c0,0.1,0,0.1,0,0.2v5.9
			h-1.8v-5.9c0.2-1.5-0.9-2.9-2.5-3.1c-0.1,0-0.3,0-0.4,0c-1.7-0.1-3,1.2-3.1,2.9c0,0.1,0,0.1,0,0.2v5.9H97v-10.5h1.8v1.4
			c0.8-1.1,2.1-1.6,3.4-1.6c1.6-0.1,3.1,0.7,3.9,2.1c0.8-1.4,2.3-2.2,3.9-2.1C112.6,527.5,114.4,529.1,114.4,531.6z"/>
		<path d="M127.4,532.9v0.7h-8.2c0.1,1.9,1.7,3.3,3.6,3.2c1.2,0,2.3-0.5,3.2-1.2l1,1.2c-1.2,1.1-2.7,1.6-4.3,1.6
			c-3,0-5.4-2.4-5.4-5.3c0-3,2.4-5.4,5.3-5.5C125.3,527.5,127.3,529.7,127.4,532.9z M119.1,532.1h6.4c0-1.7-1.4-3-3.1-3
			C120.7,529.1,119.2,530.4,119.1,532.1L119.1,532.1z"/>
		<path d="M139.9,531.6v6.5h-1.8v-5.9c0.2-1.5-0.9-2.9-2.5-3.1c-0.1,0-0.3,0-0.4,0c-1.7-0.1-3,1.2-3.1,2.9c0,0.1,0,0.1,0,0.2v5.9
			h-1.8v-10.5h1.8v1.4c0.8-1.1,2.1-1.6,3.4-1.6C138.2,527.5,139.9,529.1,139.9,531.6z"/>
		<path d="M150.6,529.3h-4.4v5.1c0,1.6,0.8,2.3,2,2.3c0.8,0,1.5-0.3,2.1-0.7l0.8,1.4c-0.9,0.7-2,1-3.1,1c-2.3,0-3.6-1.2-3.6-3.9
			v-5.1h-2.2v-1.6h2.2v-3.3h1.8v3.3h4.4V529.3z"/>
		<path d="M169.3,538.1h-1.8v-1.4c-0.9,1.1-2.3,1.7-3.7,1.6c-3,0-5.4-2.4-5.4-5.4c0-3,2.4-5.4,5.4-5.4c1.4-0.1,2.8,0.5,3.7,1.6v-1.4
			h1.8V538.1z M160.4,532.9c-0.1,2,1.5,3.7,3.5,3.8c0,0,0.1,0,0.1,0c2,0,3.6-1.6,3.6-3.6c0-0.1,0-0.2,0-0.2c0.1-2-1.3-3.7-3.3-3.9
			s-3.7,1.3-3.9,3.3C160.4,532.5,160.4,532.7,160.4,532.9L160.4,532.9z"/>
		<path d="M182.5,533.8c0,3.2-2.3,4.6-4.8,4.6s-4.8-1.4-4.8-4.6v-6.1h1.8v5.9c-0.2,1.5,1,2.9,2.5,3.1c0.2,0,0.3,0,0.5,0
			c1.5,0.1,2.9-1,3-2.5c0-0.2,0-0.4,0-0.6v-5.9h1.8V533.8z"/>
		<path d="M192,533.1h-6.2v-1.6h6.2V533.1z"/>
		<path d="M203.6,529.1v-6.8h1.8v15.8h-1.8v-1.4c-0.9,1.1-2.3,1.7-3.7,1.6c-3,0-5.4-2.4-5.4-5.4c0-3,2.4-5.4,5.4-5.4
			C201.3,527.5,202.7,528,203.6,529.1z M196.5,532.9c-0.1,2,1.5,3.7,3.5,3.8c0,0,0.1,0,0.1,0c2,0,3.6-1.6,3.6-3.6c0-0.1,0-0.2,0-0.2
			c0.1-2-1.3-3.7-3.3-3.9s-3.7,1.3-3.9,3.3C196.5,532.5,196.5,532.7,196.5,532.9L196.5,532.9z"/>
		<path d="M218.5,532.9v0.7h-8.2c0.1,1.9,1.7,3.3,3.6,3.2c1.2,0,2.3-0.5,3.2-1.2l1,1.2c-1.2,1.1-2.7,1.6-4.3,1.6
			c-3,0-5.4-2.4-5.4-5.3c0-3,2.4-5.4,5.3-5.5C216.4,527.5,218.5,529.7,218.5,532.9z M210.3,532.1h6.4c0-1.7-1.4-3-3.1-3
			C211.9,529,210.4,530.3,210.3,532.1C210.3,532.1,210.3,532.1,210.3,532.1L210.3,532.1z"/>
		<path d="M223.3,538.1h-1.8v-15.8h1.8V538.1z"/>
		<path d="M237,538.1h-1.8v-1.4c-0.9,1.1-2.3,1.7-3.7,1.6c-3,0-5.4-2.4-5.4-5.4c0-3,2.4-5.4,5.4-5.4c1.4-0.1,2.8,0.5,3.7,1.6v-1.4
			h1.8V538.1z M228.2,532.9c-0.1,2,1.5,3.7,3.5,3.8c0,0,0.1,0,0.1,0c2,0,3.6-1.6,3.6-3.6c0-0.1,0-0.2,0-0.2c0.1-2-1.3-3.7-3.3-3.9
			s-3.7,1.3-3.9,3.3C228.2,532.5,228.2,532.7,228.2,532.9L228.2,532.9z M228.8,522.8h2.3l2.2,3.3h-1.8L228.8,522.8z"/>
		<path d="M254.8,529.1v-6.8h1.8v15.8h-1.8v-1.4c-0.9,1.1-2.3,1.7-3.7,1.6c-3,0-5.4-2.4-5.4-5.4c0-3,2.4-5.4,5.4-5.4
			C252.5,527.4,253.9,528,254.8,529.1z M247.8,532.9c-0.1,2,1.5,3.7,3.5,3.8c0,0,0.1,0,0.1,0c2,0,3.6-1.6,3.6-3.6c0-0.1,0-0.2,0-0.2
			c0.1-2-1.3-3.7-3.3-3.9s-3.7,1.3-3.9,3.3C247.8,532.5,247.8,532.7,247.8,532.9L247.8,532.9z"/>
		<path d="M269.8,532.9v0.7h-8.2c0.1,1.9,1.7,3.3,3.6,3.2c1.2,0,2.3-0.5,3.2-1.2l1,1.2c-1.2,1.1-2.7,1.6-4.3,1.6
			c-3,0-5.4-2.4-5.4-5.3c0-3,2.4-5.4,5.3-5.5C267.7,527.5,269.7,529.7,269.8,532.9z M261.5,532.1h6.4c0-1.7-1.4-3-3.1-3
			C263.1,529.1,261.6,530.4,261.5,532.1L261.5,532.1z"/>
		<path d="M279.8,530c-1-0.7-2.2-1-3.4-1c-1.4,0-2.4,0.6-2.4,1.6c0,0.8,0.8,1.2,2,1.4l1.2,0.2c2.2,0.3,3.5,1.2,3.5,3
			c0,2-1.8,3.3-4.6,3.3c-1.6,0-3.1-0.4-4.4-1.3l0.8-1.3c1,0.8,2.3,1.2,3.6,1.1c1.7,0,2.8-0.6,2.8-1.6c0-0.8-0.7-1.3-2.1-1.4
			l-1.2-0.1c-2.3-0.3-3.5-1.3-3.5-2.9c0-2,1.7-3.2,4.2-3.2c1.5-0.1,2.9,0.3,4.2,1.1L279.8,530z"/>
		<path d="M300.3,532.9c0.1,2.8-2.1,5.3-4.9,5.4c-0.1,0-0.2,0-0.3,0c-1.4,0.1-2.8-0.5-3.7-1.6v5.8h-1.8v-14.9h1.8v1.4
			c0.9-1.1,2.3-1.7,3.7-1.6c2.9,0.1,5.3,2.5,5.2,5.4C300.3,532.8,300.3,532.9,300.3,532.9z M291.3,532.9c-0.1,2,1.5,3.7,3.5,3.8
			c0,0,0.1,0,0.1,0c2,0,3.6-1.6,3.6-3.5c0-0.1,0-0.2,0-0.3c0.1-2-1.5-3.7-3.5-3.8c0,0-0.1,0-0.1,0
			C292.9,529.1,291.3,530.8,291.3,532.9C291.3,532.9,291.3,532.9,291.3,532.9z"/>
		<path d="M310.1,527.8l-0.4,1.8c-0.6-0.3-1.2-0.4-1.8-0.4c-1.6,0-2.7,1.2-2.7,3.1v5.8h-1.8v-10.5h1.8v1.4c0.7-1,1.9-1.6,3.1-1.6
			C308.9,527.5,309.5,527.6,310.1,527.8z"/>
		<path d="M322.4,532.9c0,2.9-2.3,5.4-5.3,5.4c-0.1,0-0.1,0-0.2,0c-2.9,0.1-5.4-2.1-5.5-5.1c0-0.1,0-0.2,0-0.3c0-3,2.5-5.5,5.5-5.5
			S322.4,529.9,322.4,532.9z M313.1,532.9c0.1,2,1.8,3.7,3.8,3.6c2-0.1,3.7-1.8,3.6-3.8c-0.1-2-1.7-3.6-3.7-3.6
			C314.8,529.1,313.1,530.8,313.1,532.9C313.1,532.8,313.1,532.9,313.1,532.9z"/>
		<path d="M333.5,529.1v-6.8h1.8v15.8h-1.8v-1.4c-0.9,1.1-2.3,1.7-3.7,1.6c-3,0-5.4-2.4-5.4-5.4c0-3,2.4-5.4,5.4-5.4
			C331.2,527.4,332.6,528,333.5,529.1z M326.4,532.9c-0.1,2,1.5,3.7,3.5,3.8c0,0,0.1,0,0.1,0c2,0,3.6-1.6,3.6-3.6c0-0.1,0-0.2,0-0.2
			c0.1-2-1.3-3.7-3.3-3.9c-2-0.1-3.7,1.3-3.9,3.3C326.4,532.5,326.4,532.7,326.4,532.9z"/>
		<path d="M348.5,533.8c0,3.2-2.3,4.6-4.8,4.6s-4.8-1.4-4.8-4.6v-6.1h1.8v5.9c-0.2,1.5,1,2.9,2.5,3.1c0.2,0,0.3,0,0.5,0
			c1.5,0.1,2.9-1,3-2.5c0-0.2,0-0.4,0-0.6v-5.9h1.8V533.8z"/>
		<path d="M354.4,524c0,0.7-0.6,1.3-1.3,1.3c-0.7,0-1.3-0.6-1.3-1.3s0.6-1.3,1.3-1.3C353.8,522.7,354.4,523.3,354.4,524L354.4,524z
			 M354,538.1h-1.8v-10.5h1.8V538.1z"/>
		<path d="M364.9,529.3h-4.4v5.1c0,1.6,0.8,2.3,2,2.3c0.8,0,1.5-0.3,2.1-0.7l0.8,1.4c-0.9,0.7-2,1-3.1,1c-2.3,0-3.6-1.2-3.6-3.9
			v-5.1h-2.2v-1.6h2.2v-3.3h1.8v3.3h4.4L364.9,529.3L364.9,529.3z"/>
		<path d="M374.8,530c-1-0.7-2.2-1-3.4-1c-1.4,0-2.4,0.6-2.4,1.6c0,0.8,0.8,1.2,2,1.4l1.2,0.2c2.2,0.3,3.5,1.2,3.5,3
			c0,2-1.8,3.3-4.6,3.3c-1.6,0-3.1-0.4-4.4-1.3l0.8-1.3c1,0.8,2.3,1.2,3.6,1.1c1.7,0,2.8-0.6,2.8-1.6c0-0.8-0.7-1.3-2.1-1.4
			l-1.2-0.1c-2.3-0.3-3.5-1.3-3.5-2.9c0-2,1.7-3.2,4.2-3.2c1.5-0.1,2.9,0.3,4.2,1.1L374.8,530z"/>
	</g>
	<g>
		<path d="M95.6,555.5v-6.8h1.8v15.8h-1.8v-1.4c-0.9,1.1-2.3,1.7-3.7,1.6c-3,0-5.4-2.4-5.4-5.4c0-3,2.4-5.4,5.4-5.4
			C93.3,553.8,94.7,554.4,95.6,555.5z M88.6,559.3c-0.1,2,1.5,3.7,3.5,3.8c0,0,0.1,0,0.1,0c2,0,3.6-1.6,3.6-3.6c0-0.1,0-0.2,0-0.2
			c0.1-2-1.3-3.7-3.3-3.9c-2-0.1-3.7,1.3-3.9,3.3C88.6,558.9,88.6,559.1,88.6,559.3z"/>
		<path d="M110.6,559.3v0.7h-8.2c0.1,1.9,1.7,3.3,3.6,3.2c1.2,0,2.3-0.5,3.2-1.2l1,1.2c-1.2,1.1-2.7,1.6-4.3,1.6
			c-3,0-5.4-2.4-5.4-5.3c0-3,2.4-5.4,5.3-5.5C108.5,553.9,110.5,556.1,110.6,559.3z M102.3,558.5h6.4c0-1.7-1.4-3-3.1-3
			C103.9,555.5,102.4,556.8,102.3,558.5z"/>
		<path d="M128,555.5l-1.2,1.2c-0.8-0.7-1.7-1.2-2.8-1.2c-2.1,0.2-3.7,2-3.5,4.1c0.1,1.9,1.6,3.4,3.5,3.5c1.1,0,2.1-0.4,2.8-1.2
			l1.1,1.2c-1,1.1-2.4,1.7-3.9,1.6c-3-0.1-5.3-2.6-5.2-5.6c0.1-3,2.6-5.3,5.6-5.2C125.7,553.9,127,554.5,128,555.5L128,555.5z"/>
		<path d="M137.5,554.2L137,556c-0.6-0.3-1.2-0.4-1.8-0.4c-1.6,0-2.7,1.2-2.7,3.1v5.8h-1.8V554h1.8v1.4c0.7-1,1.9-1.6,3.1-1.6
			C136.2,553.9,136.9,554,137.5,554.2z"/>
		<path d="M148.8,559.3v0.7h-8.2c0.1,1.9,1.7,3.3,3.6,3.2c1.2,0,2.3-0.5,3.2-1.2l1,1.2c-1.2,1.1-2.7,1.6-4.3,1.6
			c-3,0-5.4-2.4-5.4-5.3c0-3,2.4-5.4,5.3-5.5C146.8,553.9,148.8,556.1,148.8,559.3z M140.6,558.5h6.4c0-1.7-1.4-3-3.1-3
			C142.2,555.4,140.7,556.8,140.6,558.5z M142.4,552.5l2.3-3.3h2.3l-2.8,3.3H142.4z"/>
		<path d="M160,555.5v-6.8h1.8v15.8H160v-1.4c-0.9,1.1-2.3,1.7-3.7,1.6c-3,0-5.4-2.4-5.4-5.4c0-3,2.4-5.4,5.4-5.4
			C157.7,553.9,159.1,554.4,160,555.5z M152.9,559.3c-0.1,2,1.5,3.7,3.5,3.8c0,0,0.1,0,0.1,0c2,0,3.6-1.6,3.6-3.6c0-0.1,0-0.2,0-0.2
			c0.1-2-1.3-3.7-3.3-3.9s-3.7,1.3-3.9,3.3C152.9,558.9,152.9,559.1,152.9,559.3L152.9,559.3z"/>
		<path d="M167.7,550.4c0,0.7-0.6,1.3-1.3,1.3c-0.7,0-1.3-0.5-1.3-1.2c0,0,0-0.1,0-0.1c0-0.7,0.6-1.3,1.3-1.3
			C167.1,549.1,167.7,549.6,167.7,550.4C167.7,550.3,167.7,550.4,167.7,550.4z M167.4,564.5h-1.8V554h1.8V564.5z"/>
		<path d="M178.3,555.7h-4.4v5.1c0,1.6,0.8,2.3,2,2.3c0.8,0,1.5-0.3,2.1-0.7l0.8,1.4c-0.9,0.7-2,1-3.1,1c-2.3,0-3.6-1.2-3.6-3.9
			v-5.1h-2.2v-1.6h2.2v-3.3h1.8v3.3h4.4V555.7z"/>
		<path d="M194,555.7h-4.4v5.1c0,1.6,0.8,2.3,2,2.3c0.8,0,1.5-0.3,2.1-0.7l0.8,1.4c-0.9,0.7-2,1-3.1,1c-2.3,0-3.6-1.2-3.6-3.9v-5.1
			h-2.2v-1.6h2.2v-3.3h1.8v3.3h4.4V555.7z"/>
		<path d="M203.6,554.2l-0.4,1.8c-0.6-0.3-1.2-0.4-1.8-0.4c-1.6,0-2.7,1.2-2.7,3.1v5.8h-1.8V554h1.8v1.4c0.7-1,1.9-1.6,3.1-1.6
			C202.4,553.9,203,554,203.6,554.2z"/>
		<path d="M215.5,564.5h-1.8v-1.4c-0.9,1.1-2.3,1.7-3.7,1.6c-3,0-5.4-2.4-5.4-5.4c0-3,2.4-5.4,5.4-5.4c1.4-0.1,2.8,0.5,3.7,1.6v-1.4
			h1.8V564.5z M206.7,559.3c-0.1,2,1.5,3.7,3.5,3.8c0,0,0.1,0,0.1,0c2,0,3.6-1.6,3.6-3.6c0-0.1,0-0.2,0-0.2c0.1-2-1.3-3.7-3.3-3.9
			s-3.7,1.3-3.9,3.3C206.7,558.9,206.7,559.1,206.7,559.3L206.7,559.3z"/>
		<path d="M227.5,555.5v-6.8h1.8v15.8h-1.8v-1.4c-0.9,1.1-2.3,1.7-3.7,1.6c-3,0-5.4-2.4-5.4-5.4c0-3,2.4-5.4,5.4-5.4
			C225.2,553.9,226.6,554.4,227.5,555.5z M220.4,559.3c-0.1,2,1.5,3.7,3.5,3.8c0,0,0.1,0,0.1,0c2,0,3.6-1.6,3.6-3.6
			c0-0.1,0-0.2,0-0.2c0.1-2-1.3-3.7-3.3-3.9s-3.7,1.3-3.9,3.3C220.4,558.9,220.4,559.1,220.4,559.3L220.4,559.3z"/>
		<path d="M235.2,550.4c0,0.7-0.6,1.3-1.3,1.3c-0.7,0-1.3-0.6-1.3-1.3c0-0.7,0.6-1.3,1.3-1.3C234.6,549.1,235.2,549.7,235.2,550.4
			L235.2,550.4z M234.9,564.5h-1.8V554h1.8V564.5z"/>
		<path d="M245.8,555.7h-4.4v5.1c0,1.6,0.8,2.3,2,2.3c0.8,0,1.5-0.3,2.1-0.7l0.8,1.4c-0.9,0.7-2,1-3.1,1c-2.3,0-3.6-1.2-3.6-3.9
			v-5.1h-2.2v-1.6h2.2v-3.3h1.8v3.3h4.4V555.7z"/>
		<path d="M250.8,550.4c0,0.7-0.6,1.3-1.3,1.3c-0.7,0-1.3-0.5-1.3-1.2c0,0,0-0.1,0-0.1c0-0.7,0.6-1.3,1.3-1.3
			S250.8,549.7,250.8,550.4z M250.4,564.5h-1.8V554h1.8V564.5z"/>
		<path d="M264.5,559.3c0,2.9-2.3,5.4-5.3,5.4c-0.1,0-0.1,0-0.2,0c-2.9,0.1-5.4-2.1-5.5-5.1c0-0.1,0-0.2,0-0.3c0-3,2.5-5.5,5.5-5.5
			S264.5,556.3,264.5,559.3z M255.3,559.3c0.1,2,1.8,3.7,3.8,3.6c2-0.1,3.7-1.8,3.6-3.8c-0.1-2-1.7-3.6-3.7-3.6
			C257,555.5,255.3,557.2,255.3,559.3C255.3,559.2,255.3,559.3,255.3,559.3z"/>
		<path d="M277.1,558v6.5h-1.8v-5.9c0.2-1.5-0.9-2.9-2.5-3.1c-0.1,0-0.3,0-0.4,0c-1.7-0.1-3,1.2-3.1,2.9c0,0.1,0,0.1,0,0.2v5.9h-1.8
			V554h1.8v1.4c0.8-1.1,2.1-1.6,3.4-1.6C275.3,553.9,277.1,555.5,277.1,558z"/>
		<path d="M290.3,558v6.5h-1.8v-5.9c0.2-1.5-0.9-2.9-2.5-3.1c-0.1,0-0.3,0-0.4,0c-1.7-0.1-3,1.2-3.1,2.9c0,0.1,0,0.1,0,0.2v5.9h-1.8
			V554h1.8v1.4c0.8-1.1,2.1-1.6,3.4-1.6C288.6,553.9,290.3,555.5,290.3,558z"/>
		<path d="M303.4,559.3v0.7h-8.2c0.1,1.9,1.7,3.3,3.6,3.2c1.2,0,2.3-0.5,3.2-1.2l1,1.2c-1.2,1.1-2.7,1.6-4.3,1.6
			c-3,0-5.4-2.4-5.4-5.3c0-3,2.4-5.4,5.3-5.5C301.3,553.9,303.3,556.1,303.4,559.3z M295.1,558.5h6.4c0-1.7-1.4-3-3.1-3
			C296.7,555.5,295.2,556.8,295.1,558.5z"/>
		<path d="M308.2,564.5h-1.8v-15.8h1.8V564.5z"/>
		<path d="M319,556.4c-1-0.7-2.2-1-3.4-1c-1.4,0-2.4,0.6-2.4,1.6c0,0.8,0.8,1.2,2,1.4l1.2,0.2c2.2,0.3,3.5,1.2,3.5,3
			c0,2-1.8,3.3-4.6,3.3c-1.6,0-3.1-0.4-4.4-1.3l0.8-1.3c1,0.8,2.3,1.2,3.6,1.1c1.7,0,2.8-0.6,2.8-1.6c0-0.8-0.7-1.3-2.1-1.4
			l-1.2-0.1c-2.3-0.3-3.5-1.3-3.5-2.9c0-2,1.7-3.2,4.2-3.2c1.5-0.1,2.9,0.3,4.2,1.1L319,556.4z"/>
		<path d="M321.9,551.5c1-1.7,2.8-2.7,4.8-2.6c2.6-0.2,4.8,1.8,5,4.3c0,0.2,0,0.3,0,0.5c-0.1,1.7-0.8,3.2-2.1,4.3l-4.4,4.7h7v1.8
			h-9.7V563l5.8-6.1c0.9-0.9,1.4-2,1.5-3.3c0.1-1.6-1.1-2.9-2.7-3c-0.1,0-0.3,0-0.4,0c-1.4,0-2.7,0.7-3.4,1.9L321.9,551.5z"/>
	</g>
	<g>
		<path class="st1" d="M61.5,686.1h6.2v8.1h-6.2v8.2h-8.6v-8.2H33v-6.3l15.7-30.3h9.6l-15,28.5h9.5v-11.9h8.6L61.5,686.1L61.5,686.1
			z"/>
		<path class="st1" d="M99.4,686.8c0,0.9-0.1,1.9-0.2,2.8h-22c0.9,4.5,4,6.4,8,6.4c2.9-0.1,5.6-1.1,7.8-3l4.9,5.4
			c-3.5,3.2-8,4.7-13.2,4.7c-9.5,0-16.1-6.5-16.1-16.2s6.4-16.4,15.7-16.4C93.2,670.5,99.3,677.1,99.4,686.8z M77.3,683.9H91
			c-0.8-4-3.2-6.2-6.8-6.2C80.3,677.7,78,680.1,77.3,683.9L77.3,683.9z"/>
		<path class="st1" d="M143.1,676.4l-6,5c-1.6-2-4.1-3.1-6.6-3.1c-4.3,0-7.8,3.4-7.8,8.5s3.4,8.5,7.7,8.5c2.6,0,5.1-1.2,6.8-3.1
			l6,5.1c-3,3.8-7.6,5.9-12.4,5.8c-9.9,0-16.5-6.9-16.5-16.3s6.6-16.3,16.5-16.3C135.6,670.4,140.2,672.6,143.1,676.4z"/>
		<path class="st1" d="M176.1,702.3H168v-3.4c-2.3,2.8-5.7,4.4-9.3,4.2c-8.5,0-15-7-15-16.3s6.5-16.3,15-16.3
			c3.6-0.1,7.1,1.5,9.3,4.3v-3.4h8.2L176.1,702.3L176.1,702.3z M152.2,686.8c0,4.7,3.1,8.5,8,8.5s8-3.6,8-8.5s-3.2-8.5-8-8.5
			S152.2,682.1,152.2,686.8L152.2,686.8z"/>
		<path class="st1" d="M204.5,678.8h-11.2v11.3c0,3.9,2,5.3,4.6,5.3c2.1-0.2,4.1-0.9,5.8-2l3.1,6.5c-3,2.2-6.6,3.3-10.3,3.3
			c-7.7,0-11.6-4.4-11.6-12.4v-12h-6v-7.4h6v-9.2h8.4v9.2h11.2V678.8z"/>
		<path class="st1" d="M237.3,686.8c0,0.9-0.1,1.9-0.2,2.8h-22c0.9,4.5,4,6.4,8,6.4c2.9-0.1,5.6-1.1,7.8-3l4.9,5.4
			c-3.5,3.2-8,4.7-13.2,4.7c-9.5,0-16.1-6.5-16.1-16.2s6.4-16.4,15.7-16.4C231.2,670.5,237.3,677.1,237.3,686.8z M215.2,683.9h13.7
			c-0.8-4-3.2-6.2-6.8-6.2C218.2,677.7,215.9,680.1,215.2,683.9L215.2,683.9z M216.6,666.9l6.4-10.1h10l-8.4,10.1H216.6z"/>
		<path class="st1" d="M263.1,674.8v-3.5h8.2v28.4c0,10-6.5,16-16.7,16c-4.9,0-10.1-1.3-13.6-3.7l3-6.8c3,2,6.6,3.2,10.2,3.2
			c5.2,0,8.8-2.9,8.8-8.2V698c-2.3,2.8-5.8,4.4-9.5,4.2c-7.6,0-14.3-6.3-14.3-15.8s6.7-15.8,14.3-15.8
			C257.2,670.4,260.8,671.9,263.1,674.8z M247.8,686.3c0,4.5,3,8.1,7.8,8.1c4.6,0,7.8-3.5,7.8-8.1s-3.1-8.2-7.8-8.2
			c-4.3,0-7.8,3.5-7.8,7.9C247.8,686.1,247.8,686.2,247.8,686.3z"/>
		<path class="st1" d="M308.8,686.8c0,9.3-7.1,16.3-16.8,16.3s-16.7-7-16.7-16.3s7.1-16.3,16.7-16.3S308.8,677.5,308.8,686.8z
			 M283.7,686.8c0,5,3.5,8.5,8.2,8.5c4.7,0.2,8.6-3.5,8.8-8.2c0.2-4.7-3.5-8.6-8.2-8.8c-4.7-0.2-8.6,3.5-8.8,8.2
			C283.7,686.6,283.7,686.7,283.7,686.8z"/>
		<path class="st1" d="M333.8,671.2l-1.2,8.3c-1.6-0.6-3.4-1-5.1-1c-3.9,0-6.5,2.4-6.5,7v16.9h-8.4v-31h8.1v3.4
			c2-2.9,4.9-4.2,8.7-4.2C330.9,670.5,332.4,670.7,333.8,671.2z"/>
		<path class="st1" d="M346,661.2c0,2.9-2.4,5.3-5.3,5.3c-2.9,0-5.3-2.4-5.3-5.3s2.4-5.3,5.3-5.3C343.6,655.9,346,658.3,346,661.2z
			 M344.9,702.3h-8.4v-31h8.4V702.3z"/>
		<path class="st1" d="M379.6,686.8c0,0.9-0.1,1.9-0.2,2.8h-22c0.9,4.5,4,6.4,8,6.4c2.9-0.1,5.6-1.1,7.8-3l4.9,5.4
			c-3.5,3.2-8,4.7-13.2,4.7c-9.5,0-16.1-6.5-16.1-16.2s6.4-16.4,15.7-16.4C373.4,670.5,379.6,677.1,379.6,686.8z M357.5,683.9h13.7
			c-0.8-4-3.2-6.2-6.8-6.2C360.5,677.7,358.2,680.1,357.5,683.9L357.5,683.9z"/>
	</g>
	<g>
		<path d="M42.9,745.3h-1.8v-15.8h1.8L42.9,745.3z"/>
		<path d="M56.7,745.3h-1.8v-1.4c-0.9,1.1-2.3,1.7-3.7,1.6c-3,0-5.4-2.4-5.4-5.4c0-3,2.4-5.4,5.4-5.4c1.4-0.1,2.8,0.5,3.7,1.6v-1.4
			h1.8V745.3z M47.8,740c-0.1,2,1.5,3.7,3.5,3.8c0,0,0.1,0,0.1,0c2,0,3.6-1.6,3.6-3.6c0-0.1,0-0.2,0-0.2c0.1-2-1.5-3.7-3.5-3.8
			c0,0-0.1,0-0.1,0C49.4,736.2,47.8,737.9,47.8,740C47.8,740,47.8,740,47.8,740z"/>
		<path d="M77.1,740c0.1,2.8-2.1,5.3-4.9,5.4c-0.1,0-0.2,0-0.3,0c-1.4,0.1-2.8-0.5-3.7-1.6v5.8h-1.8v-14.9h1.8v1.4
			c0.9-1.1,2.3-1.7,3.7-1.6C74.9,734.6,77.2,737,77.1,740z M68.1,740c-0.1,2,1.5,3.7,3.5,3.8c0,0,0.1,0,0.1,0c2,0,3.6-1.6,3.6-3.5
			c0-0.1,0-0.2,0-0.3c0.1-2-1.3-3.7-3.3-3.9c-2-0.1-3.7,1.3-3.9,3.3C68.1,739.6,68.1,739.8,68.1,740z"/>
		<path d="M81.9,745.3h-1.8v-15.8h1.8V745.3z"/>
		<path d="M95.1,740.9c0,3.2-2.3,4.6-4.8,4.6s-4.8-1.4-4.8-4.6v-6.1h1.8v5.9c-0.2,1.5,1,2.9,2.5,3.1c0.2,0,0.3,0,0.5,0
			c1.5,0.1,2.9-1,3-2.5c0-0.2,0-0.4,0-0.6v-5.9h1.8V740.9z"/>
		<path d="M105.8,737.1c-1-0.7-2.2-1-3.4-1c-1.4,0-2.4,0.6-2.4,1.6c0,0.8,0.8,1.2,2,1.4l1.2,0.2c2.2,0.3,3.5,1.2,3.5,3
			c0,2-1.8,3.3-4.6,3.3c-1.6,0-3.1-0.4-4.4-1.3l0.8-1.3c1,0.8,2.3,1.2,3.6,1.1c1.7,0,2.8-0.6,2.8-1.6c0-0.8-0.7-1.3-2.1-1.4
			l-1.2-0.1c-2.3-0.3-3.5-1.3-3.5-2.9c0-2,1.7-3.2,4.2-3.2c1.5-0.1,2.9,0.3,4.2,1.1L105.8,737.1z"/>
		<path d="M126.3,740c0.1,2.8-2.1,5.3-4.9,5.4c-0.1,0-0.2,0-0.3,0c-1.4,0.1-2.8-0.5-3.7-1.6v5.8h-1.8v-14.9h1.8v1.4
			c0.9-1.1,2.3-1.7,3.7-1.6C124.1,734.6,126.4,737,126.3,740z M117.3,740c-0.1,2,1.5,3.7,3.5,3.8c0,0,0.1,0,0.1,0
			c2,0,3.6-1.6,3.6-3.5c0-0.1,0-0.2,0-0.3c0.1-2-1.5-3.7-3.5-3.8c0,0-0.1,0-0.1,0C118.9,736.2,117.3,737.9,117.3,740
			C117.3,740,117.3,740,117.3,740z"/>
		<path d="M136.1,734.9l-0.4,1.8c-0.6-0.3-1.2-0.4-1.8-0.4c-1.6,0-2.7,1.2-2.7,3.1v5.8h-1.8v-10.5h1.8v1.4c0.7-1,1.9-1.6,3.1-1.6
			C134.9,734.6,135.5,734.7,136.1,734.9z"/>
		<path d="M140.7,731.1c0,0.7-0.6,1.3-1.3,1.3c-0.7,0-1.3-0.5-1.3-1.2c0,0,0-0.1,0-0.1c0-0.7,0.6-1.3,1.3-1.3
			C140.1,729.8,140.7,730.3,140.7,731.1C140.7,731,140.7,731.1,140.7,731.1z M140.4,745.3h-1.8v-10.5h1.8V745.3z"/>
		<path d="M151.2,737.1c-1-0.7-2.2-1-3.4-1c-1.4,0-2.4,0.6-2.4,1.6c0,0.8,0.8,1.2,2,1.4l1.2,0.2c2.2,0.3,3.5,1.2,3.5,3
			c0,2-1.8,3.3-4.6,3.3c-1.6,0-3.1-0.4-4.4-1.3l0.8-1.3c1,0.8,2.3,1.2,3.6,1.1c1.7,0,2.8-0.6,2.8-1.6c0-0.8-0.7-1.3-2.1-1.4L147,741
			c-2.3-0.3-3.5-1.3-3.5-2.9c0-2,1.7-3.2,4.2-3.2c1.5-0.1,2.9,0.3,4.2,1.1L151.2,737.1z"/>
		<path d="M164.4,740v0.7h-8.2c0.1,1.9,1.7,3.3,3.6,3.2c1.2,0,2.3-0.5,3.2-1.2l1,1.2c-1.2,1.1-2.7,1.6-4.3,1.6c-3,0-5.4-2.4-5.4-5.3
			c0-3,2.4-5.4,5.3-5.5C162.3,734.6,164.4,736.8,164.4,740z M156.2,739.2h6.4c0-1.7-1.4-3-3.1-3
			C157.8,736.1,156.3,737.5,156.2,739.2z M158,733.2l2.3-3.3h2.3l-2.8,3.3H158z"/>
		<path d="M176.7,740v0.7h-8.2c0.1,1.9,1.7,3.3,3.6,3.2c1.2,0,2.3-0.5,3.2-1.2l1,1.2c-1.2,1.1-2.7,1.6-4.3,1.6c-3,0-5.4-2.4-5.4-5.3
			c0-3,2.4-5.4,5.3-5.5C174.7,734.6,176.7,736.8,176.7,740z M168.5,739.2h6.4c0-1.7-1.4-3-3.1-3
			C170.1,736.1,168.6,737.5,168.5,739.2z"/>
		<path d="M196.3,740c0.1,2.8-2.1,5.3-4.9,5.4c-0.1,0-0.2,0-0.3,0c-1.4,0.1-2.8-0.5-3.7-1.6v5.8h-1.8v-14.9h1.8v1.4
			c0.9-1.1,2.3-1.7,3.7-1.6C194.1,734.6,196.4,737,196.3,740z M187.3,740c-0.1,2,1.5,3.7,3.5,3.8c0,0,0.1,0,0.1,0
			c2,0,3.6-1.6,3.6-3.5c0-0.1,0-0.2,0-0.3c0.1-2-1.5-3.7-3.5-3.8c0,0-0.1,0-0.1,0C188.9,736.2,187.3,737.9,187.3,740
			C187.3,740,187.3,740,187.3,740z"/>
		<path d="M209.3,745.3h-1.8v-1.4c-0.9,1.1-2.3,1.7-3.7,1.6c-3,0-5.4-2.4-5.4-5.4c0-3,2.4-5.4,5.4-5.4c1.4-0.1,2.8,0.5,3.7,1.6v-1.4
			h1.8V745.3z M200.4,740c-0.1,2,1.5,3.7,3.5,3.8c0,0,0.1,0,0.1,0c2,0,3.6-1.6,3.6-3.6c0-0.1,0-0.2,0-0.2c0.1-2-1.5-3.7-3.5-3.8
			c0,0-0.1,0-0.1,0C202,736.2,200.4,737.9,200.4,740C200.4,740,200.4,740,200.4,740L200.4,740z"/>
		<path d="M219.8,734.9l-0.4,1.8c-0.6-0.3-1.2-0.4-1.8-0.4c-1.6,0-2.7,1.2-2.7,3.1v5.8h-1.8v-10.5h1.8v1.4c0.7-1,1.9-1.6,3.1-1.6
			C218.6,734.6,219.2,734.7,219.8,734.9z"/>
		<path d="M229.7,745.3h-1.8v-15.8h1.8V745.3z"/>
		<path d="M242.9,740v0.7h-8.2c0.1,1.9,1.7,3.3,3.6,3.2c1.2,0,2.3-0.5,3.2-1.2l1,1.2c-1.2,1.1-2.7,1.6-4.3,1.6c-3,0-5.4-2.4-5.4-5.3
			c0-3,2.4-5.4,5.3-5.5C240.8,734.6,242.8,736.8,242.9,740z M234.6,739.2h6.4c0-1.7-1.4-3-3.1-3
			C236.2,736.2,234.7,737.5,234.6,739.2L234.6,739.2z"/>
		<path d="M252.9,737.1c-1-0.7-2.2-1-3.4-1c-1.4,0-2.4,0.6-2.4,1.6c0,0.8,0.8,1.2,2,1.4l1.2,0.2c2.2,0.3,3.5,1.2,3.5,3
			c0,2-1.8,3.3-4.6,3.3c-1.6,0-3.1-0.4-4.4-1.3l0.8-1.3c1,0.8,2.3,1.2,3.6,1.1c1.7,0,2.8-0.6,2.8-1.6c0-0.8-0.7-1.3-2.1-1.4
			l-1.2-0.1c-2.3-0.3-3.5-1.3-3.5-2.9c0-2,1.7-3.2,4.2-3.2c1.5-0.1,2.9,0.3,4.2,1.1L252.9,737.1z"/>
		<path d="M271.2,736.2l-1.2,1.2c-0.8-0.7-1.7-1.2-2.8-1.2c-2.1,0.2-3.7,2-3.5,4.1c0.1,1.9,1.6,3.4,3.5,3.5c1.1,0,2.1-0.4,2.8-1.2
			l1.1,1.2c-1,1.1-2.4,1.7-3.9,1.6c-3,0-5.4-2.4-5.4-5.4c0-3,2.4-5.4,5.4-5.4C268.7,734.5,270.2,735.1,271.2,736.2z"/>
		<path d="M284,740c0,2.9-2.3,5.4-5.3,5.4c-0.1,0-0.1,0-0.2,0c-2.9,0.1-5.4-2.1-5.5-5.1c0-0.1,0-0.2,0-0.3c0-2.9,2.3-5.4,5.3-5.4
			c0.1,0,0.1,0,0.2,0c2.9-0.1,5.4,2.1,5.5,5.1C284,739.8,284,739.9,284,740z M274.8,740c0.1,2,1.8,3.7,3.8,3.6
			c2-0.1,3.7-1.8,3.6-3.8c-0.1-2-1.7-3.6-3.7-3.6C276.5,736.2,274.8,737.9,274.8,740C274.8,739.9,274.8,740,274.8,740z"/>
		<path d="M296.6,738.8v6.5h-1.8v-5.9c0.2-1.5-0.9-2.9-2.5-3.1c-0.1,0-0.3,0-0.4,0c-1.7-0.1-3,1.2-3.1,2.9c0,0.1,0,0.1,0,0.2v5.9
			H287v-10.5h1.8v1.4c1.6-1.9,4.3-2.1,6.2-0.6C296,736.4,296.5,737.6,296.6,738.8L296.6,738.8z"/>
		<path d="M307.4,737.1c-1-0.7-2.2-1-3.4-1c-1.4,0-2.4,0.6-2.4,1.6c0,0.8,0.8,1.2,2,1.4l1.2,0.2c2.2,0.3,3.5,1.2,3.5,3
			c0,2-1.8,3.3-4.6,3.3c-1.6,0-3.1-0.4-4.4-1.3l0.8-1.3c1,0.8,2.3,1.2,3.6,1.1c1.7,0,2.8-0.6,2.8-1.6c0-0.8-0.7-1.3-2.1-1.4
			l-1.2-0.1c-2.3-0.3-3.5-1.3-3.5-2.9c0-2,1.7-3.2,4.2-3.2c1.5-0.1,2.9,0.3,4.2,1.1L307.4,737.1z"/>
		<path d="M320.6,740v0.7h-8.2c0.1,1.9,1.7,3.3,3.6,3.2c1.2,0,2.3-0.5,3.2-1.2l1,1.2c-1.2,1.1-2.7,1.6-4.3,1.6c-3,0-5.4-2.4-5.4-5.3
			c0-3,2.4-5.4,5.3-5.5C318.5,734.6,320.5,736.8,320.6,740z M312.3,739.2h6.4c0-1.7-1.4-3-3.1-3
			C313.9,736.2,312.4,737.5,312.3,739.2L312.3,739.2z"/>
		<path d="M325.7,731.1c0,0.7-0.6,1.3-1.3,1.3c-0.7,0-1.3-0.6-1.3-1.3s0.6-1.3,1.3-1.3C325.1,729.8,325.7,730.4,325.7,731.1
			L325.7,731.1z M325.4,745.3h-1.8v-10.5h1.8V745.3z"/>
		<path d="M331,745.3h-1.8v-15.8h1.8V745.3z"/>
		<path d="M336.6,745.3h-1.8v-15.8h1.8V745.3z"/>
		<path d="M349.7,740v0.7h-8.2c0.1,1.9,1.7,3.3,3.6,3.2c1.2,0,2.3-0.5,3.2-1.2l1,1.2c-1.2,1.1-2.7,1.6-4.3,1.6c-3,0-5.4-2.4-5.4-5.3
			c0-3,2.4-5.4,5.3-5.5C347.6,734.6,349.7,736.8,349.7,740z M341.5,739.2h6.4c0-1.7-1.4-3-3.1-3
			C343.1,736.1,341.6,737.4,341.5,739.2C341.5,739.2,341.5,739.2,341.5,739.2z"/>
		<path d="M359.4,734.9l-0.4,1.8c-0.6-0.3-1.2-0.4-1.8-0.4c-1.6,0-2.7,1.2-2.7,3.1v5.8h-1.8v-10.5h1.8v1.4c0.7-1,1.9-1.6,3.1-1.6
			C358.2,734.6,358.8,734.7,359.4,734.9z"/>
		<path d="M368.8,737.1c-1-0.7-2.2-1-3.4-1c-1.4,0-2.4,0.6-2.4,1.6c0,0.8,0.8,1.2,2,1.4l1.2,0.2c2.2,0.3,3.5,1.2,3.5,3
			c0,2-1.8,3.3-4.6,3.3c-1.6,0-3.1-0.4-4.4-1.3l0.8-1.3c1,0.8,2.3,1.2,3.6,1.1c1.7,0,2.8-0.6,2.8-1.6c0-0.8-0.7-1.3-2.1-1.4
			l-1.2-0.1c-2.3-0.3-3.5-1.3-3.5-2.9c0-2,1.7-3.2,4.2-3.2c1.5-0.1,2.9,0.3,4.2,1.1L368.8,737.1z"/>
	</g>
	<g>
		<path d="M57.9,762.9h-4v8.8H52v-8.8h-2.3v-1.6H52v-1.8c0-2.2,1-3.8,3.5-3.8c1,0,2,0.3,2.9,0.8l-0.6,1.5c-0.6-0.4-1.4-0.6-2.1-0.6
			c-1.2,0-1.8,0.8-1.8,2.1v1.8h4L57.9,762.9z"/>
		<path d="M62.7,757.5c0,0.7-0.6,1.3-1.3,1.3c-0.7,0-1.3-0.5-1.3-1.2c0,0,0-0.1,0-0.1c0-0.7,0.6-1.3,1.3-1.3
			C62.1,756.2,62.7,756.8,62.7,757.5z M62.3,771.7h-1.8v-10.5h1.8V771.7z"/>
		<path d="M75.7,765.2v6.5h-1.8v-5.9c0.2-1.5-0.9-2.9-2.5-3.1c-0.1,0-0.3,0-0.4,0c-1.7-0.1-3,1.2-3.1,2.9c0,0.1,0,0.1,0,0.2v5.9
			h-1.8v-10.5h1.8v1.4c1.6-1.9,4.3-2.1,6.2-0.6C75.1,762.8,75.6,764,75.7,765.2z"/>
		<path d="M89.3,771.7h-1.8v-1.4c-0.9,1.1-2.3,1.7-3.7,1.6c-3,0-5.4-2.4-5.4-5.4c0-3,2.4-5.4,5.4-5.4c1.4-0.1,2.8,0.5,3.7,1.6v-1.4
			h1.8V771.7z M80.4,766.4c-0.1,2,1.5,3.7,3.5,3.8c0,0,0.1,0,0.1,0c2,0,3.6-1.6,3.6-3.6c0-0.1,0-0.2,0-0.2c0.1-2-1.5-3.7-3.5-3.8
			c0,0-0.1,0-0.1,0C82,762.6,80.4,764.3,80.4,766.4C80.4,766.4,80.4,766.4,80.4,766.4z"/>
		<path d="M102.6,765.2v6.5h-1.8v-5.9c0.2-1.5-0.9-2.9-2.5-3.1c-0.1,0-0.3,0-0.4,0c-1.7-0.1-3,1.2-3.1,2.9c0,0.1,0,0.1,0,0.2v5.9H93
			v-10.5h1.8v1.4c0.8-1.1,2.1-1.6,3.4-1.6c2.2-0.2,4.2,1.4,4.4,3.6C102.6,764.8,102.6,765,102.6,765.2z"/>
		<path d="M114.9,762.6l-1.2,1.2c-0.8-0.7-1.7-1.2-2.8-1.2c-2.1,0.2-3.7,2-3.5,4.1c0.1,1.9,1.6,3.4,3.5,3.5c1.1,0,2.1-0.4,2.8-1.2
			l1.1,1.2c-1,1.1-2.4,1.7-3.9,1.6c-3,0-5.4-2.4-5.4-5.4c0-3,2.4-5.4,5.4-5.4C112.4,761,113.8,761.6,114.9,762.6z"/>
		<path d="M119.8,757.5c0,0.7-0.6,1.3-1.3,1.3c-0.7,0-1.3-0.5-1.3-1.2c0,0,0-0.1,0-0.1c0-0.7,0.6-1.3,1.3-1.3
			C119.2,756.2,119.8,756.8,119.8,757.5z M119.4,771.7h-1.8v-10.5h1.8V771.7z"/>
		<path d="M132.5,766.4v0.7h-8.2c0.1,1.9,1.7,3.3,3.6,3.2c1.2,0,2.3-0.5,3.2-1.2l1,1.2c-1.2,1.1-2.7,1.6-4.3,1.6
			c-3,0-5.4-2.4-5.4-5.3c0-3,2.4-5.4,5.3-5.5l0,0C130.5,761,132.5,763.2,132.5,766.4z M124.3,765.6h6.4c0-1.7-1.4-3-3.1-3
			C125.9,762.5,124.4,763.9,124.3,765.6L124.3,765.6z"/>
		<path d="M142.3,761.3l-0.4,1.8c-0.6-0.3-1.2-0.4-1.8-0.4c-1.6,0-2.7,1.2-2.7,3.1v5.8h-1.8v-10.5h1.8v1.4c0.7-1,1.9-1.6,3.1-1.6
			C141.1,761,141.7,761.1,142.3,761.3z"/>
		<path d="M151.6,763.5c-1-0.7-2.2-1-3.4-1c-1.4,0-2.4,0.6-2.4,1.6c0,0.8,0.8,1.2,2,1.4l1.2,0.2c2.2,0.3,3.5,1.2,3.5,3
			c0,2-1.8,3.3-4.6,3.3c-1.6,0-3.1-0.4-4.4-1.3l0.8-1.3c1,0.8,2.3,1.2,3.6,1.1c1.7,0,2.8-0.6,2.8-1.6c0-0.8-0.7-1.3-2.1-1.4
			l-1.2-0.1c-2.3-0.3-3.5-1.3-3.5-2.9c0-2,1.7-3.2,4.2-3.2c1.5-0.1,2.9,0.3,4.2,1.1L151.6,763.5z"/>
		<path d="M171.3,771.7h-1.8v-1.4c-0.9,1.1-2.3,1.7-3.7,1.6c-3,0-5.4-2.4-5.4-5.4c0-3,2.4-5.4,5.4-5.4c1.4-0.1,2.8,0.5,3.7,1.6v-1.4
			h1.8V771.7z M162.4,766.4c-0.1,2,1.5,3.7,3.5,3.8c0,0,0.1,0,0.1,0c2,0,3.6-1.6,3.6-3.6c0-0.1,0-0.2,0-0.2c0.1-2-1.5-3.7-3.5-3.8
			c0,0-0.1,0-0.1,0C164,762.7,162.4,764.4,162.4,766.4L162.4,766.4z"/>
		<path d="M184.6,767.3c0,3.2-2.3,4.6-4.8,4.6s-4.8-1.4-4.8-4.6v-6.1h1.8v5.9c-0.2,1.5,1,2.9,2.5,3.1c0.2,0,0.3,0,0.5,0
			c1.5,0.1,2.9-1,3-2.5c0-0.2,0-0.4,0-0.6v-5.9h1.8V767.3z"/>
		<path d="M207.8,759.2l-1.6,1.1c-1.1-1.5-2.8-2.4-4.7-2.4c-3.4,0-6.1,2.7-6.1,6.1c0,3.4,2.7,6.1,6.1,6.1c1.9,0,3.6-0.9,4.7-2.4
			l1.6,1.2c-1.5,2-3.8,3.2-6.3,3.1c-4.4,0-7.9-3.5-7.9-7.9s3.5-7.9,7.9-7.9c0,0,0,0,0,0C204,755.9,206.4,757.1,207.8,759.2z"/>
		<path d="M220.7,771.7h-1.8v-1.4c-0.9,1.1-2.3,1.7-3.7,1.6c-3,0-5.4-2.4-5.4-5.4c0-3,2.4-5.4,5.4-5.4c1.4-0.1,2.8,0.5,3.7,1.6v-1.4
			h1.8V771.7z M211.8,766.4c-0.1,2,1.5,3.7,3.5,3.8c0,0,0.1,0,0.1,0c2,0,3.6-1.6,3.6-3.6c0-0.1,0-0.2,0-0.2c0.1-2-1.5-3.7-3.5-3.8
			c0,0-0.1,0-0.1,0C213.4,762.6,211.8,764.3,211.8,766.4C211.8,766.4,211.8,766.4,211.8,766.4z"/>
		<path d="M234.1,765.2v6.5h-1.8v-5.9c0.2-1.5-0.9-2.9-2.5-3.1c-0.1,0-0.3,0-0.4,0c-1.7-0.1-3,1.2-3.1,2.9c0,0.1,0,0.1,0,0.2v5.9
			h-1.8v-10.5h1.8v1.4c1.6-1.9,4.3-2.1,6.2-0.6C233.5,762.8,234,764,234.1,765.2z"/>
		<path d="M247.7,771.7h-1.8v-1.4c-0.9,1.1-2.3,1.7-3.7,1.6c-3,0-5.4-2.4-5.4-5.4c0-3,2.4-5.4,5.4-5.4c1.4-0.1,2.8,0.5,3.7,1.6v-1.4
			h1.8V771.7z M238.8,766.4c-0.1,2,1.5,3.7,3.5,3.8c0,0,0.1,0,0.1,0c2,0,3.6-1.6,3.6-3.6c0-0.1,0-0.2,0-0.2c0.1-2-1.5-3.7-3.5-3.8
			c0,0-0.1,0-0.1,0C240.4,762.6,238.8,764.3,238.8,766.4C238.8,766.4,238.8,766.4,238.8,766.4z"/>
		<path d="M259.6,762.6v-6.8h1.8v15.8h-1.8v-1.4c-0.9,1.1-2.3,1.7-3.7,1.6c-3,0-5.4-2.4-5.4-5.4c0-3,2.4-5.4,5.4-5.4
			C257.3,760.9,258.7,761.5,259.6,762.6z M252.5,766.4c-0.1,2,1.5,3.7,3.5,3.8c0,0,0.1,0,0.1,0c2,0,3.6-1.6,3.6-3.6
			c0-0.1,0-0.2,0-0.2c0.1-2-1.5-3.7-3.5-3.8c0,0-0.1,0-0.1,0C254.1,762.6,252.5,764.3,252.5,766.4
			C252.5,766.4,252.5,766.4,252.5,766.4L252.5,766.4z"/>
		<path d="M275.1,771.7h-1.8v-1.4c-0.9,1.1-2.3,1.7-3.7,1.6c-3,0-5.4-2.4-5.4-5.4c0-3,2.4-5.4,5.4-5.4c1.4-0.1,2.8,0.5,3.7,1.6v-1.4
			h1.8V771.7z M266.3,766.4c-0.1,2,1.5,3.7,3.5,3.8c0,0,0.1,0,0.1,0c2,0,3.6-1.6,3.6-3.6c0-0.1,0-0.2,0-0.2c0.1-2-1.5-3.7-3.5-3.8
			c0,0-0.1,0-0.1,0C267.9,762.6,266.3,764.3,266.3,766.4C266.3,766.4,266.3,766.4,266.3,766.4L266.3,766.4z"/>
		<path d="M292.9,762.6v-6.8h1.8v15.8h-1.8v-1.4c-0.9,1.1-2.3,1.7-3.7,1.6c-3,0-5.4-2.4-5.4-5.4c0-3,2.4-5.4,5.4-5.4
			C290.6,760.9,292,761.5,292.9,762.6z M285.9,766.4c-0.1,2,1.5,3.7,3.5,3.8c0,0,0.1,0,0.1,0c2,0,3.6-1.6,3.6-3.6c0-0.1,0-0.2,0-0.2
			c0.1-2-1.5-3.7-3.5-3.8c0,0-0.1,0-0.1,0C287.5,762.6,285.9,764.3,285.9,766.4C285.9,766.4,285.9,766.4,285.9,766.4L285.9,766.4z"
			/>
		<path d="M308.5,771.7h-1.8v-1.4c-0.9,1.1-2.3,1.7-3.7,1.6c-3,0-5.4-2.4-5.4-5.4c0-3,2.4-5.4,5.4-5.4c1.4-0.1,2.8,0.5,3.7,1.6v-1.4
			h1.8V771.7z M299.6,766.4c-0.1,2,1.5,3.7,3.5,3.8c0,0,0.1,0,0.1,0c2,0,3.6-1.6,3.6-3.6c0-0.1,0-0.2,0-0.2c0.1-2-1.5-3.7-3.5-3.8
			c0,0-0.1,0-0.1,0C301.2,762.6,299.6,764.3,299.6,766.4C299.6,766.4,299.6,766.4,299.6,766.4z"/>
		<path d="M321.8,765.2v6.5H320v-5.9c0.2-1.5-0.9-2.9-2.5-3.1c-0.1,0-0.3,0-0.4,0c-1.7-0.1-3,1.2-3.1,2.9c0,0.1,0,0.1,0,0.2v5.9
			h-1.8v-10.5h1.8v1.4c0.8-1.1,2.1-1.6,3.4-1.6c2.2-0.2,4.2,1.4,4.4,3.6C321.8,764.8,321.8,765,321.8,765.2z"/>
		<path d="M332.6,763.5c-1-0.7-2.2-1-3.4-1c-1.4,0-2.4,0.6-2.4,1.6c0,0.8,0.8,1.2,2,1.4l1.2,0.2c2.2,0.3,3.5,1.2,3.5,3
			c0,2-1.8,3.3-4.6,3.3c-1.6,0-3.1-0.4-4.4-1.3l0.8-1.3c1,0.8,2.3,1.2,3.6,1.1c1.7,0,2.8-0.6,2.8-1.6c0-0.8-0.7-1.3-2.1-1.4
			l-1.2-0.1c-2.3-0.3-3.5-1.3-3.5-2.9c0-2,1.7-3.2,4.2-3.2c1.5-0.1,2.9,0.3,4.2,1.1L332.6,763.5z"/>
		<path d="M344.1,771.7h-1.8v-15.8h1.8V771.7z"/>
		<path d="M357.3,766.4v0.7H349c0.1,1.9,1.7,3.3,3.6,3.2c1.2,0,2.3-0.5,3.2-1.2l1,1.2c-1.2,1.1-2.7,1.6-4.3,1.6
			c-3,0-5.4-2.4-5.4-5.3c0-3,2.4-5.4,5.3-5.5C355.2,761,357.2,763.2,357.3,766.4z M349,765.6h6.4c0-1.7-1.4-3-3.1-3
			C350.6,762.6,349.1,763.9,349,765.6L349,765.6z"/>
	</g>
	<g>
		<path d="M55.9,789l-1.2,1.2c-0.8-0.7-1.7-1.2-2.8-1.2c-2.1,0.2-3.7,2-3.5,4.1c0.1,1.9,1.6,3.4,3.5,3.5c1.1,0,2.1-0.4,2.8-1.2
			l1.1,1.2c-1,1.1-2.4,1.7-3.9,1.6c-3,0-5.4-2.4-5.4-5.4c0-3,2.4-5.4,5.4-5.4c0,0,0,0,0,0C53.4,787.4,54.8,788,55.9,789z"/>
		<path d="M68.4,798.1h-1.8v-1.4c-0.9,1.1-2.3,1.7-3.7,1.6c-3,0-5.4-2.4-5.4-5.4c0-3,2.4-5.4,5.4-5.4c1.4-0.1,2.8,0.5,3.7,1.6v-1.4
			h1.8V798.1z M59.5,792.8c-0.1,2,1.5,3.7,3.5,3.8c0,0,0.1,0,0.1,0c2,0,3.6-1.6,3.6-3.6c0-0.1,0-0.2,0-0.2c0.1-2-1.5-3.7-3.5-3.8
			c0,0-0.1,0-0.1,0C61.1,789,59.5,790.7,59.5,792.8C59.5,792.8,59.5,792.8,59.5,792.8z"/>
		<path d="M80.3,789v-6.8h1.8V798h-1.8v-1.4c-0.9,1.1-2.3,1.7-3.7,1.6c-3,0-5.4-2.4-5.4-5.4c0-3,2.4-5.4,5.4-5.4
			C78,787.3,79.4,787.9,80.3,789z M73.2,792.8c-0.1,2,1.5,3.7,3.5,3.8c0,0,0.1,0,0.1,0c2,0,3.6-1.6,3.6-3.6c0-0.1,0-0.2,0-0.2
			c0.1-2-1.5-3.7-3.5-3.8c0,0-0.1,0-0.1,0C74.8,789,73.2,790.7,73.2,792.8C73.2,792.8,73.2,792.8,73.2,792.8z"/>
		<path d="M92.6,787.7l-0.4,1.8c-0.6-0.3-1.2-0.4-1.8-0.4c-1.6,0-2.7,1.2-2.7,3.1v5.8h-1.8v-10.5h1.8v1.4c0.7-1,1.9-1.6,3.1-1.6
			C91.4,787.4,92,787.5,92.6,787.7z"/>
		<path d="M104,792.8v0.7h-8.2c0.1,1.9,1.7,3.3,3.6,3.2c1.2,0,2.3-0.5,3.2-1.2l1,1.2c-1.2,1.1-2.7,1.6-4.3,1.6c-3,0-5.4-2.4-5.4-5.3
			c0-3,2.4-5.4,5.3-5.5C101.9,787.4,104,789.6,104,792.8z M95.8,792h6.4c0-1.7-1.4-3-3.1-3C97.4,788.9,95.9,790.2,95.8,792
			C95.8,792,95.8,792,95.8,792z"/>
		<path d="M121,789v-6.8h1.8V798H121v-1.4c-0.9,1.1-2.3,1.7-3.7,1.6c-3,0-5.4-2.4-5.4-5.4c0-3,2.4-5.4,5.4-5.4
			C118.7,787.3,120.1,787.9,121,789z M113.9,792.8c-0.1,2,1.5,3.7,3.5,3.8c0,0,0.1,0,0.1,0c2,0,3.6-1.6,3.6-3.6c0-0.1,0-0.2,0-0.2
			c0.1-2-1.5-3.7-3.5-3.8c0,0-0.1,0-0.1,0C115.5,789.1,113.9,790.8,113.9,792.8z"/>
		<path d="M135.9,792.8v0.7h-8.2c0.1,1.9,1.7,3.3,3.6,3.2c1.2,0,2.3-0.5,3.2-1.2l1,1.2c-1.2,1.1-2.7,1.6-4.3,1.6
			c-3,0-5.4-2.4-5.4-5.3c0-3,2.4-5.4,5.3-5.5C133.9,787.4,135.9,789.6,135.9,792.8z M127.7,792h6.4c0-1.7-1.4-3-3.1-3
			C129.3,788.9,127.8,790.3,127.7,792z"/>
		<path d="M146,789.9c-1-0.7-2.2-1-3.4-1c-1.4,0-2.4,0.6-2.4,1.6c0,0.8,0.8,1.2,2,1.4l1.2,0.2c2.2,0.3,3.5,1.2,3.5,3
			c0,2-1.8,3.3-4.6,3.3c-1.6,0-3.1-0.4-4.4-1.3l0.8-1.3c1,0.8,2.3,1.2,3.6,1.1c1.7,0,2.8-0.6,2.8-1.6c0-0.8-0.7-1.3-2.1-1.4
			l-1.2-0.1c-2.3-0.3-3.5-1.3-3.5-2.9c0-2,1.7-3.2,4.2-3.2c1.5-0.1,2.9,0.3,4.2,1.1L146,789.9z"/>
		<path d="M162.4,789.2h-4v8.8h-1.8v-8.8h-2.3v-1.6h2.3v-1.8c0-2.2,1-3.8,3.5-3.8c1,0,2,0.3,2.9,0.8l-0.6,1.5
			c-0.6-0.4-1.4-0.6-2.1-0.6c-1.2,0-1.8,0.8-1.8,2.1v1.8h4L162.4,789.2L162.4,789.2z"/>
		<path d="M174.9,792.8c0.1,3-2.4,5.5-5.4,5.6s-5.5-2.4-5.6-5.4c-0.1-3,2.4-5.5,5.4-5.6c0,0,0.1,0,0.1,0c2.9-0.1,5.4,2.2,5.5,5.2
			C174.9,792.7,174.9,792.7,174.9,792.8z M165.7,792.8c0.1,2,1.8,3.7,3.8,3.6c2-0.1,3.7-1.8,3.6-3.8c-0.1-2-1.7-3.6-3.7-3.6
			C167.4,789,165.7,790.7,165.7,792.8C165.7,792.7,165.7,792.8,165.7,792.8z"/>
		<path d="M187.5,791.6v6.5h-1.8v-5.9c0.2-1.5-0.9-2.9-2.5-3.1c-0.1,0-0.3,0-0.4,0c-1.7-0.1-3,1.2-3.1,2.9c0,0.1,0,0.1,0,0.2v5.9
			h-1.8v-10.5h1.8v1.4c1.6-1.9,4.3-2.1,6.2-0.6C186.9,789.2,187.4,790.4,187.5,791.6z"/>
		<path d="M199.3,789v-6.8h1.8V798h-1.8v-1.4c-0.9,1.1-2.3,1.7-3.7,1.6c-3,0-5.4-2.4-5.4-5.4c0-3,2.4-5.4,5.4-5.4
			C197,787.3,198.4,787.9,199.3,789z M192.2,792.8c-0.1,2,1.5,3.7,3.5,3.8c0,0,0.1,0,0.1,0c2,0,3.6-1.6,3.6-3.6c0-0.1,0-0.2,0-0.2
			c0.1-2-1.5-3.7-3.5-3.8c0,0-0.1,0-0.1,0C193.8,789,192.2,790.7,192.2,792.8C192.2,792.8,192.2,792.8,192.2,792.8z"/>
		<path d="M211.9,789.9c-1-0.7-2.2-1-3.4-1c-1.4,0-2.4,0.6-2.4,1.6c0,0.8,0.8,1.2,2,1.4l1.2,0.2c2.2,0.3,3.5,1.2,3.5,3
			c0,2-1.8,3.3-4.6,3.3c-1.6,0-3.1-0.4-4.4-1.3l0.8-1.3c1,0.8,2.3,1.2,3.6,1.1c1.7,0,2.8-0.6,2.8-1.6c0-0.8-0.7-1.3-2.1-1.4
			l-1.2-0.1c-2.3-0.3-3.5-1.3-3.5-2.9c0-2,1.7-3.2,4.2-3.2c1.5-0.1,2.9,0.3,4.2,1.1L211.9,789.9z"/>
		<path d="M229.8,789v-6.8h1.8V798h-1.8v-1.4c-0.9,1.1-2.3,1.7-3.7,1.6c-3,0-5.4-2.4-5.4-5.4c0-3,2.4-5.4,5.4-5.4
			C227.5,787.3,228.9,787.9,229.8,789z M222.8,792.8c-0.1,2,1.5,3.7,3.5,3.8c0,0,0.1,0,0.1,0c2,0,3.6-1.6,3.6-3.6c0-0.1,0-0.2,0-0.2
			c0.1-2-1.5-3.7-3.5-3.8c0,0-0.1,0-0.1,0C224.4,789,222.8,790.7,222.8,792.8C222.8,792.8,222.8,792.8,222.8,792.8z"/>
		<path d="M244.8,792.8v0.7h-8.2c0.1,1.9,1.7,3.3,3.6,3.2c1.2,0,2.3-0.5,3.2-1.2l1,1.2c-1.2,1.1-2.7,1.6-4.3,1.6
			c-3,0-5.4-2.4-5.4-5.3c0-3,2.4-5.4,5.3-5.5C242.7,787.4,244.7,789.6,244.8,792.8z M236.5,792h6.4c0-1.7-1.4-3-3.1-3
			C238.1,789,236.6,790.3,236.5,792z"/>
		<path d="M262.2,789l-1.2,1.2c-0.8-0.7-1.7-1.2-2.8-1.2c-2.1,0.2-3.7,2-3.5,4.1c0.1,1.9,1.6,3.4,3.5,3.5c1.1,0,2.1-0.4,2.8-1.2
			l1.1,1.2c-1,1.1-2.4,1.7-3.9,1.6c-3,0-5.4-2.4-5.4-5.4c0-3,2.4-5.4,5.4-5.4c0,0,0,0,0,0C259.7,787.4,261.1,788,262.2,789z"/>
		<path d="M275,792.8c0,2.9-2.3,5.4-5.3,5.4c-0.1,0-0.1,0-0.2,0c-2.9,0.1-5.4-2.1-5.5-5.1c0-0.1,0-0.2,0-0.3c0-3,2.5-5.5,5.5-5.5
			S275,789.8,275,792.8z M265.8,792.8c0.1,2,1.8,3.7,3.8,3.6c2-0.1,3.7-1.8,3.6-3.8c-0.1-2-1.7-3.6-3.7-3.6
			C267.5,789,265.8,790.7,265.8,792.8C265.8,792.7,265.8,792.8,265.8,792.8z"/>
		<path d="M287.5,793.7c0,3.2-2.3,4.6-4.8,4.6s-4.8-1.4-4.8-4.6v-6.1h1.8v5.9c-0.2,1.5,1,2.9,2.5,3.1c0.2,0,0.3,0,0.5,0
			c1.5,0.1,2.9-1,3-2.5c0-0.2,0-0.4,0-0.6v-5.9h1.8V793.7z"/>
		<path d="M296.1,798.1H294l-4.4-10.5h2l3.5,8.6l3.5-8.6h1.9L296.1,798.1z"/>
		<path d="M311.8,792.8v0.7h-8.2c0.1,1.9,1.7,3.3,3.6,3.2c1.2,0,2.3-0.5,3.2-1.2l1,1.2c-1.2,1.1-2.7,1.6-4.3,1.6
			c-3,0-5.4-2.4-5.4-5.3c0-3,2.4-5.4,5.3-5.5C309.8,787.4,311.8,789.6,311.8,792.8z M303.6,792h6.4c0-1.7-1.4-3-3.1-3
			C305.2,788.9,303.7,790.3,303.6,792L303.6,792z"/>
		<path d="M321.6,787.7l-0.4,1.8c-0.6-0.3-1.2-0.4-1.8-0.4c-1.6,0-2.7,1.2-2.7,3.1v5.8h-1.8v-10.5h1.8v1.4c0.7-1,1.9-1.6,3.1-1.6
			C320.4,787.4,321,787.5,321.6,787.7z"/>
		<path d="M331.4,789.2H327v5.1c0,1.6,0.8,2.3,2,2.3c0.8,0,1.5-0.3,2.1-0.7l0.8,1.4c-0.9,0.7-2,1-3.1,1c-2.3,0-3.6-1.2-3.6-3.9v-5.1
			H323v-1.6h2.2v-3.3h1.8v3.3h4.4V789.2z"/>
		<path d="M343.7,793.7c0,3.2-2.3,4.6-4.8,4.6s-4.8-1.4-4.8-4.6v-6.1h1.8v5.9c-0.2,1.5,1,2.9,2.5,3.1c0.2,0,0.3,0,0.5,0
			c1.5,0.1,2.9-1,3-2.5c0-0.2,0-0.4,0-0.6v-5.9h1.8V793.7z"/>
		<path d="M354.1,787.7l-0.4,1.8c-0.6-0.3-1.2-0.4-1.8-0.4c-1.6,0-2.7,1.2-2.7,3.1v5.8h-1.8v-10.5h1.8v1.4c0.7-1,1.9-1.6,3.1-1.6
			C352.9,787.4,353.5,787.5,354.1,787.7z"/>
		<path d="M365.5,792.8v0.7h-8.2c0.1,1.9,1.7,3.3,3.6,3.2c1.2,0,2.3-0.5,3.2-1.2l1,1.2c-1.2,1.1-2.7,1.6-4.3,1.6
			c-3,0-5.4-2.4-5.4-5.3c0-3,2.4-5.4,5.3-5.5C363.4,787.4,365.5,789.6,365.5,792.8z M357.3,792h6.4c0-1.7-1.4-3-3.1-3
			C358.9,788.9,357.4,790.2,357.3,792C357.3,792,357.3,792,357.3,792z"/>
	</g>
</g>
</svg>
