<svg id="Layer_1" data-name="Layer 1" xmlns="http://www.w3.org/2000/svg" viewBox="0 0 202.18 196.7"><defs><style>.cls-1{fill:#7c4496;}.cls-2{fill:#203232;}.cls-3{fill:#fff;}</style></defs><path class="cls-1" d="M32.38,113.88c35.45-35.44,112.46-38.47,150.94,0L181,196.13H97.36l-.22-70.07H47.26L47,196.8l-16.41.44-.71-83.36" transform="translate(-5.95 -5.55)"/><path class="cls-1" d="M11.35,107.56l95.71-95.1L204,107.56s-8.65,17.07-9.31,16.19S107,31.31,107,31.31L19.11,122Z" transform="translate(-5.95 -5.55)"/><path class="cls-2" d="M33,110.44l.38,88.05-2.55-2.56,16.66-.3-2.87,2.86-.52-34.71-.33-34.71,0-3.7,3.76,0,25.68-.13,25.68-.08,3.9,0,0,3.95c.07,11.57,0,23.14-.06,34.71s0,23.14-.16,34.71l-3.71-3.71,42.21.43,42.22.71-2.57,2.57.48-21.41.57-21.42.68-21.42.84-21.41.84,21.41.68,21.42.57,21.42.48,21.41.05,2.53-2.62,0-42.22.72-42.21.43-3.67,0,0-3.76C95,186.92,95,175.35,95,163.78s-.12-23.14,0-34.71L98.85,133l-25.68-.08-25.68-.13,3.72-3.72-.34,34.71-.52,34.71,0,2.92-2.82,0-16.66-.31L28.21,201l.06-2.51.08-84.3Z" transform="translate(-5.95 -5.55)"/><path class="cls-2" d="M68.53,48.82c-.52-1.52-.9-3-1.28-4.58s-.68-3.06-.93-4.58l2.21,2.2a126.64,126.64,0,0,1-21,1.74l3.95-3.94a133,133,0,0,1-.81,15.69C50.34,58,50,60.58,49.46,63.2c-.29,1.31-.53,2.61-.86,3.92s-.66,2.62-1.11,3.92c-.45-1.3-.79-2.61-1.12-3.92s-.57-2.61-.86-3.92c-.5-2.62-.87-5.23-1.17-7.85a135.16,135.16,0,0,1-.8-15.69l0-4,3.93,0a126.64,126.64,0,0,1,21,1.74l2.49.44-.29,1.77c-.25,1.52-.62,3.05-.93,4.58S69.05,47.3,68.53,48.82Z" transform="translate(-5.95 -5.55)"/><path class="cls-2" d="M107.05,35.19l11.31,10.37L129.6,56c7.5,6.94,14.91,14,22.36,21s14.82,14.08,22.22,21.13c11.75,11.2,15.71,15,22.12,21.23l-5.49.48,9.12-13.44.43,5Q188.14,99.56,176,87.66L151.76,63.9C143.68,56,135.69,48,127.64,40L103.55,16.06h7L62.35,63.91,38.09,87.67Q26,99.58,13.76,111.36l.43-5,9.11,13.44-5.51-.48q11-10.68,22.12-21.23C47.31,91.07,54.67,84,62.13,77S77,62.94,84.5,56L95.74,45.56Zm0,0L96.68,46.5,86.25,57.74c-7,7.51-14,14.92-21,22.37S51.17,94.93,44.13,102.33c8.78-9.22.31,0-21.24,22.12l-2.95,3L17.38,124,7.83,110.84,6,108.26l2.31-2.4Q20,93.64,32,81.53L55.71,57.27l47.84-48.2,3.5-3.52,3.49,3.52,23.94,24.09c8,8,16,16,23.9,24.12l23.77,24.25q11.91,12.1,23.68,24.34l2.3,2.39-1.87,2.58L196.7,124l-2.55,3.5-2.94-3c-7.12-7.32-14.18-14.72-21.23-22.12S155.84,87.56,148.85,80.1s-14-14.85-21-22.36L117.42,46.5Z" transform="translate(-5.95 -5.55)"/><rect class="cls-2" x="73.6" y="158.77" width="10.58" height="7.92"/><path class="cls-3" d="M120.93,176.68V141.09h.4c1.81-8.11,9.64-14.23,19-14.23s17.14,6.12,19,14.23h.39v35.59Z" transform="translate(-5.95 -5.55)"/><path class="cls-2" d="M140.29,130.36c8.72,0,15.8,6.36,15.84,14.22h0v28.6H124.43v-28.6h0c0-7.86,7.12-14.22,15.85-14.22m0-7c-9.92,0-18.41,6-21.55,14.22h-1.3v42.6h45.71v-42.6h-1.31c-3.14-8.27-11.63-14.22-21.54-14.22Z" transform="translate(-5.95 -5.55)"/></svg>