<svg id="Layer_3" data-name="Layer 3" xmlns="http://www.w3.org/2000/svg" viewBox="0 0 139.25 97.89"><defs><style>.cls-1,.cls-2{fill:#7d4596;}.cls-2,.cls-3{fill-rule:evenodd;}.cls-3{fill:#203232;}</style></defs><path class="cls-1" d="M69.65,130.24l-.14-1.46c-.62,0-1.7.07-2.76.17-6,.58-14,3.55-17.28,7.16-3.07,3.41-4.21,5.31-5.12,7.37-2.4,5.45-1.94,5.73-1.71,5.85l25.77-.24,1.94-11.69Z" transform="translate(-38.38 -63.91)"/><path class="cls-1" d="M42.7,149.35l-.06,0-2.2,0Z" transform="translate(-38.38 -63.91)"/><path class="cls-1" d="M78.92,137.4,80.79,149l28-.26s-2.57-3.8-6.17-8.25c-1.69-2.1-4.28-3.84-6.85-5.8-3.66-2.79-8.41-4.45-13.84-5.54-.73-.14-1.59-.24-2.18-.34l-.15,1.46Z" transform="translate(-38.38 -63.91)"/><path class="cls-1" d="M79.77,128.78H74.44a30.89,30.89,0,0,1,5.29.34Z" transform="translate(-38.38 -63.91)"/><polygon class="cls-1" points="30.06 85.06 29.66 87.47 30.49 87.47 31.9 87.47 32.35 87.47 40.11 87.47 41.84 87.47 42.19 87.47 42.8 87.47 42.39 84.93 30.06 85.06"/><path class="cls-1" d="M78.92,137.4l.7-7.16.11-1.12a30.89,30.89,0,0,0-5.29-.34H69.51l.14,1.46.7,7.16-1.94,11.69L80.79,149Zm-1.38-6.93-1.16,5.64H72.89l-1-5.64Zm-6.37,18.24,1.74-10.46h3.86l1.37,10.45Z" transform="translate(-38.38 -63.91)"/><path class="cls-2" d="M90.21,159.94s.77-8.52,4.73-13.62,17.56-16,18.44-13.53,6.74,13,7.84,15.18,6.38,8.79,12.68,8.59c7.18-.24,9.47-5.28,11.68-7.85,3.65-4.25,4.69-8.11,5.61-9.66a44.14,44.14,0,0,0,2.32-6.61s12.77,6,15.75,10.73,5.39,8.18,5.89,10.71,2.25,6.83,1.26,6.94S90.21,159.94,90.21,159.94Z" transform="translate(-38.38 -63.91)"/><path class="cls-3" d="M74.65,110" transform="translate(-38.38 -63.91)"/><path class="cls-3" d="M69.31,110.45a7.53,7.53,0,0,0,10.66,0" transform="translate(-38.38 -63.91)"/><path class="cls-3" d="M133.9,112.43h-6.49a9.19,9.19,0,0,0,13,0" transform="translate(-38.38 -63.91)"/><path class="cls-3" d="M177.52,160.09A31.12,31.12,0,0,0,168,138.94c-5.9-5.71-13.93-9.31-22.4-11v-11c1.4-1.64,2.74-4.83,3.71-6.52,1.52,4.48,1.11,8.8.78,12,0,.31-.07.63-.12,1.17l-.16,1.72,1.72,0a20.83,20.83,0,0,0,3-.11,14.71,14.71,0,0,0,9.71-4.8A16.32,16.32,0,0,0,168,109.83a24.35,24.35,0,0,0-.15-3.59C166.75,96.35,162,84.92,156,76.49a40.33,40.33,0,0,0-8.84-9.32c-3.26-2.34-6.62-3.55-9.85-3.19a10.07,10.07,0,0,0-3.9,1.28,10.18,10.18,0,0,0-3.9-1.28c-3.24-.36-6.6.85-9.85,3.19a40.15,40.15,0,0,0-8.85,9.32c-6,8.43-10.71,19.86-11.81,29.75a24.35,24.35,0,0,0-.15,3.59,16.32,16.32,0,0,0,3.78,10.51,14.71,14.71,0,0,0,9.71,4.8,20.94,20.94,0,0,0,3,.11l1.73,0-.17-1.73c-.06-.54-.09-.86-.13-1.18-.34-3.15-.78-7.35.76-11.85,1,1.7,2.34,4.8,3.74,6.44v11.05a49.31,49.31,0,0,0-16.6,6.54c-.55-.64-1.12-1.27-1.73-1.86-4.84-4.69-11.44-7.63-18.38-9v-9.11l1-1a9.65,9.65,0,0,0,2-2.93,11,11,0,0,0,.55-1.77A4.22,4.22,0,0,0,92,105.5a17.29,17.29,0,0,1,1.27-3.21c.94-2,1.86-3.87,1.56-6.38A4.62,4.62,0,0,0,91,91.73c.07-.42.13-.84.18-1.25.1-.71.17-1.42.23-2.13a25.06,25.06,0,0,0,.05-4,13.64,13.64,0,0,0-5-10.07c-3.07-2.46-7.26-3.56-11.83-3.56l-.74,0a22.7,22.7,0,0,0-8.2,1.75C63,73.7,60.8,75.71,60.61,78.8a8.51,8.51,0,0,0-2.75,6,28.28,28.28,0,0,0,.43,6.94,4.53,4.53,0,0,0-2,.85,4.76,4.76,0,0,0-1.84,3.33c-.3,2.51.61,4.42,1.55,6.38a16.62,16.62,0,0,1,1.27,3.21,4.23,4.23,0,0,0,3.9,3.3,10.07,10.07,0,0,0,.55,1.77,9.37,9.37,0,0,0,2,2.94c.34.31.66.63,1,.95v9.12C57.73,125,51.15,128,46.3,132.65A25.53,25.53,0,0,0,38.46,150l-.08,1.41H69.16v-2.67H40.44c.66-5.88,4.23-10.47,7.93-14.05,4.69-4.54,11-6.86,17.82-8.1l1.15-.06v-1.83L66.7,116c1.91,1.56,4.87,3.71,7.93,3.73h0c3.18,0,6.09-2.13,8-3.73l-.73,8.62-.26,1.62,1.66.39c6.87,1.23,13.1,3.31,17.8,7.85.48.47,1,1,1.39,1.47a33.36,33.36,0,0,0-3.59,3,31.14,31.14,0,0,0-6.86,9.72H79.79l.43,2.67H91a33.08,33.08,0,0,0-1.66,8.7l-.1,1.72h88.35Zm-117.7-75a6.72,6.72,0,0,1,2.89-4.58l.58-.41,0-.71a5.41,5.41,0,0,1,3.49-4.87c2.27-1,5.12-1.12,7.24-1.19h.65a15,15,0,0,1,9.67,3.39c2.22,1.78,4.58,3.2,4.86,6.94a30,30,0,0,1,0,4.13c-.06.75-.23,1.85-.34,2.62H84.64V89.16a5.93,5.93,0,0,0-1.73-4.43,6.4,6.4,0,0,0-4.64-1.63l-6.56,1.4-4.54,1.26h11.1a3.87,3.87,0,0,1,2.8.89A3.4,3.4,0,0,1,82,89.16v1.27H59.8A21.37,21.37,0,0,1,59.82,85.11Zm27.84,8-1.14,4.1H79V93.1Zm-17.39,0,.5,4.83H62.24l-.63-4.83ZM82.5,112.8c-2.25,2.2-4.37,4.28-7.86,4.32s-6-2.47-8-4.47l-1.13-1.09a6.93,6.93,0,0,1-1.32-2,11.28,11.28,0,0,1-.6-2.36l-.14-.76-1.53.09a2.32,2.32,0,0,1-2.64-1.41,21.48,21.48,0,0,0-1.27-4c-.77-1.6-1.7-3.56-1.49-5.33a2.06,2.06,0,0,1,.83-1.44,4.7,4.7,0,0,1,1.87-.82l1.25,5.4.27,1h12.2V93.1h3.41v6.76h12.2l.27-1,1.39-5.51a2.6,2.6,0,0,1,2.31,2.37c.22,1.77-.87,3.8-1.64,5.41-.56,1.16-.33,2.27-.67,3.67a3,3,0,0,1-2.91,1.76l-1.37-.69-.22,1.3a11.26,11.26,0,0,1-.61,2.36,6.94,6.94,0,0,1-1.35,2C83.23,112.08,82.86,112.44,82.5,112.8Zm36.61-5.57-1.34-3.72-1.66,3.58c-3.23,7-1.82,11.94-1.38,16a20.46,20.46,0,0,1-2.18-.28c-3.18-.66-5.8-3-7.6-5a10.75,10.75,0,0,1-2.81-7.58,33.33,33.33,0,0,1,.34-3.83c1-9.35,5.31-20,11-28a36.68,36.68,0,0,1,8.1-8.57,10.11,10.11,0,0,1,7.33-2.17,6.61,6.61,0,0,1,3.24,1.24l1.57,1.24,1.45-1.32A5.08,5.08,0,0,1,138,67.63c2.39-.26,4.21.52,6.82,2.4a36.72,36.72,0,0,1,8.61,8.34c5.7,8,10.18,18.87,11.23,28.23a22.59,22.59,0,0,1,.14,3.13c-.11,3.51-.9,6.4-2.72,8.48s-2.68,3.59-7.22,4.87a13.73,13.73,0,0,1-2.52.53c.61-6,.95-10.94-1.53-16.52a114.06,114.06,0,0,1-5.59-15.28c-1.39-4.29-2-6.15-6.34-8.32a27.63,27.63,0,0,0-4-1.55c3.43,2.45,5.11,3.88,6.35,7.69l-.76.13a14.65,14.65,0,0,0-2.49.67,4.68,4.68,0,0,0-2.58,2.19,4.13,4.13,0,0,1-3.75,0A4.68,4.68,0,0,0,129,90.43a22.25,22.25,0,0,0-7-1.1,19,19,0,0,0-6.68.89l-1,.39c0,.49,0,1,0,1.47a12.35,12.35,0,0,0,2.49,7.43,9,9,0,0,0,7.07,3.57,7.78,7.78,0,0,0,5.07-1.49,8.59,8.59,0,0,0,2.79-4.11,7.31,7.31,0,0,0,.34-1.3,8.17,8.17,0,0,0,2.79,0,7.31,7.31,0,0,0,.34,1.3,8.54,8.54,0,0,0,2.8,4.11,7.57,7.57,0,0,0,4.77,1.49,9.38,9.38,0,0,0,2.28-.25l.37-.1c.61,1.59,1.32,3.28,2.15,5.1a28.71,28.71,0,0,1-6.62,9.24c-2.44,2.29-5.14,4-7.48,4s-5-1.66-7.49-4A28,28,0,0,1,119.11,107.23Zm25.16-7.54a7.77,7.77,0,0,1-1.5.16,4.53,4.53,0,0,1-2.83-.83,5.46,5.46,0,0,1-1.7-2.61c-.4-1.11-.51-2.48.81-3a11.33,11.33,0,0,1,1.93-.51l1.12-.17C142.68,94.76,143.35,97,144.27,99.69Zm-15.62-3.28A5.46,5.46,0,0,1,127,99a4.74,4.74,0,0,1-3,.83c-1.93,0-3.75-.49-4.84-1.87a14.79,14.79,0,0,1-2.43-5.87,18,18,0,0,1,5.53-.4A21.17,21.17,0,0,1,128,93.1C129.31,93.59,129.05,95.28,128.65,96.41Zm-5.43,34.45,1.34-.25v-1.35l-.72-9.91c2.79,2.42,6.64,4.92,9.61,4.92s6.85-3,9.65-5.42l-.76,10.4v1.36l1.33.23a52.57,52.57,0,0,1,6.27,1.52l-1.32,1.82-4.76,6.54-4.75,6.54c-.29.36-.57.68-.85,1a8.54,8.54,0,0,1-.93.85,6.11,6.11,0,0,1-7.77,0,11,11,0,0,1-1-.87,9,9,0,0,1-.81-1L123,140.72l-4.75-6.54-1.32-1.8A51,51,0,0,1,123.22,130.86ZM91.3,159.8c.81-7.18,6.89-14.35,11.4-18.71a28.76,28.76,0,0,1,10.9-7l2.51,2.62,4.29,5.91,4.76,6.54a11.14,11.14,0,0,0,1.12,1.31,11.9,11.9,0,0,0,1.32,1.17,9.3,9.3,0,0,0,11.69,0,10.76,10.76,0,0,0,1.31-1.17c.4-.42.77-.86,1.14-1.31l4.75-6.54,4.75-6.55,1.91-2.61a35.54,35.54,0,0,1,12,8.17c4.5,4.36,9.22,11,10,18.16Z" transform="translate(-38.38 -63.91)"/></svg>