<?xml version="1.0" encoding="utf-8"?>
<!-- Generator: Adobe Illustrator 25.0.1, SVG Export Plug-In . SVG Version: 6.00 Build 0)  -->
<svg version="1.1" id="Layer_1" xmlns="http://www.w3.org/2000/svg" xmlns:xlink="http://www.w3.org/1999/xlink" x="0px" y="0px"
	 viewBox="0 0 1000 220.9" style="enable-background:new 0 0 1000 220.9;" xml:space="preserve">
<style type="text/css">
	.st0{fill:#8F9898;stroke:#FFFFFF;stroke-width:2.1072;stroke-miterlimit:10;}
	.st1{fill:#7E4696;stroke:#FFFFFF;stroke-width:2.1072;stroke-miterlimit:10;}
	.st2{fill:#FFFFFF;}
	.st3{fill:#7E4696;}
	.st4{fill:#231F20;}
	.st5{font-family:'MarkOT-Book';}
	.st6{font-size:14px;}
	.st7{fill:#8F9898;}
	.st8{fill:#7D4596;}
</style>
<g>
	<g>
		<g>
			<g>
				<path class="st0" d="M149,144.4c-8.4,10.3-17.1,17.3-28.9,23C78,187.7,27.9,168.9,8.2,125.2C2.7,113,0.3,101.9,0.3,88.4
					C0.3,40.3,38,1.3,84.5,1.3v87.1L149,144.4z"/>
			</g>
		</g>
	</g>
	<g>
		<g>
			<path class="st1" d="M84.5,88.4l64.5,56c29.9-36.9,25.2-91.8-10.4-122.7C123,8.1,105,1.3,84.5,1.3V88.4z"/>
		</g>
	</g>
	<ellipse class="st2" cx="84.5" cy="88.4" rx="47.5" ry="49.2"/>
</g>
<rect x="13.6" y="181.3" class="st3" width="15" height="15"/>
<text transform="matrix(1 0 0 1 37.0442 196.3245)" class="st4 st5 st6">Principal residence</text>
<g>
	<rect x="13.6" y="202.3" class="st7" width="15" height="15"/>
	<text transform="matrix(1 0 0 1 37.9129 217.0958)" class="st4 st5 st6">Other</text>
</g>
<g>
	<path class="st4" d="M201.8,40v8.6h-2.7V27.1h8.1c4.8,0,7.6,2.4,7.6,6.4c0,4-2.7,6.4-7.6,6.4H201.8z M201.8,29.7v7.8h5.4
		c3.2,0,4.8-1.3,4.8-3.9c0-2.6-1.7-3.9-4.8-3.9H201.8z"/>
	<path class="st4" d="M228.4,34.2l-0.6,2.5c-0.7-0.4-1.7-0.6-2.5-0.6c-2.2,0-3.8,1.7-3.8,4.4v8.1H219V34h2.5V36
		c1-1.4,2.5-2.2,4.3-2.2C226.8,33.7,227.6,33.9,228.4,34.2z"/>
	<path class="st4" d="M234.8,28.9c0,1-0.8,1.7-1.8,1.7s-1.8-0.8-1.8-1.7c0-1,0.8-1.8,1.8-1.8S234.8,27.9,234.8,28.9z M234.3,48.6
		h-2.5V34h2.5V48.6z"/>
	<path class="st4" d="M252.9,39.6v9h-2.5v-8.2c0-2.7-1.5-4.3-4-4.3c-2.3,0-4.3,1.6-4.3,4.3v8.2h-2.5V34h2.5v1.9
		c1.2-1.6,3.1-2.2,4.8-2.2C250.5,33.7,252.9,36.1,252.9,39.6z"/>
	<path class="st4" d="M269.9,36l-1.6,1.7c-1.1-1-2.3-1.6-3.9-1.6c-2.8,0-4.9,2.2-4.9,5.2s2.1,5.2,4.9,5.2c1.5,0,2.9-0.7,3.9-1.7
		l1.5,1.7c-1.3,1.5-3.2,2.3-5.4,2.3c-4.5,0-7.6-3.3-7.6-7.6s3-7.6,7.6-7.6C266.7,33.7,268.6,34.5,269.9,36z"/>
	<path class="st4" d="M276.8,28.9c0,1-0.8,1.7-1.8,1.7c-1,0-1.8-0.8-1.8-1.7c0-1,0.8-1.8,1.8-1.8C276,27.1,276.8,27.9,276.8,28.9z
		 M276.3,48.6h-2.5V34h2.5V48.6z"/>
	<path class="st4" d="M296.5,41.3c0,4.4-3.2,7.6-7.3,7.6c-2.3,0-4-0.9-5.1-2.3v8.1h-2.5V34h2.5V36c1.1-1.4,2.8-2.3,5.1-2.3
		C293.3,33.7,296.5,36.9,296.5,41.3z M283.9,41.3c0,3,2.1,5.2,5,5.2c3,0,5-2.3,5-5.2s-2-5.2-5-5.2C286,36.1,283.9,38.3,283.9,41.3z"
		/>
	<path class="st4" d="M314.5,48.6H312v-1.9c-1.1,1.4-2.8,2.3-5.1,2.3c-4.1,0-7.3-3.2-7.3-7.6c0-4.4,3.2-7.6,7.3-7.6
		c2.3,0,4,0.9,5.1,2.3v-2h2.5V48.6z M302.1,41.3c0,2.9,2,5.2,5,5.2c2.9,0,5-2.3,5-5.2c0-3-2.1-5.2-5-5.2
		C304.1,36.1,302.1,38.4,302.1,41.3z"/>
	<path class="st4" d="M322.3,48.6h-2.5V26.5h2.5V48.6z"/>
	<path class="st4" d="M345.2,34.2l-0.6,2.5c-0.7-0.4-1.7-0.6-2.5-0.6c-2.2,0-3.8,1.7-3.8,4.4v8.1h-2.5V34h2.5V36
		c1-1.4,2.5-2.2,4.3-2.2C343.6,33.7,344.4,33.9,345.2,34.2z"/>
	<path class="st4" d="M361,41.3c0,0.3,0,0.7,0,0.9h-11.4c0.4,3,2.5,4.5,4.9,4.5c1.7,0,3.2-0.7,4.5-1.7l1.3,1.7
		c-1.8,1.7-3.8,2.2-6,2.2c-4.3,0-7.4-3-7.4-7.6c0-4.5,3-7.6,7.2-7.6C358.1,33.7,361,36.8,361,41.3z M349.5,40.2h8.9
		c-0.3-2.6-2-4.2-4.3-4.2C351.5,36,349.9,37.7,349.5,40.2z"/>
	<path class="st4" d="M375,37.3c-0.9-0.6-2.8-1.3-4.7-1.3c-2,0-3.3,0.8-3.3,2.2c0,1.2,1.1,1.7,2.8,1.9l1.7,0.2
		c3.1,0.4,4.9,1.7,4.9,4.1c0,2.8-2.5,4.6-6.4,4.6c-1.8,0-4.2-0.4-6.1-1.9l1.2-1.9c1.1,0.8,2.5,1.5,5,1.5c2.4,0,3.9-0.8,3.9-2.2
		c0-1.1-1-1.7-2.9-2l-1.7-0.2c-3.3-0.4-4.8-1.9-4.8-4.1c0-2.8,2.3-4.5,5.9-4.5c2.3,0,4.4,0.6,5.8,1.6L375,37.3z"/>
	<path class="st4" d="M383.4,28.9c0,1-0.8,1.7-1.8,1.7s-1.8-0.8-1.8-1.7c0-1,0.8-1.8,1.8-1.8S383.4,27.9,383.4,28.9z M382.9,48.6
		h-2.5V34h2.5V48.6z"/>
	<path class="st4" d="M399.5,36v-9.5h2.5v22.1h-2.5v-1.9c-1.1,1.4-2.8,2.3-5.1,2.3c-4.1,0-7.3-3.2-7.3-7.6c0-4.4,3.2-7.6,7.3-7.6
		C396.7,33.7,398.4,34.6,399.5,36z M389.7,41.3c0,2.9,2,5.2,5,5.2c2.9,0,5-2.3,5-5.2c0-3-2.1-5.2-5-5.2
		C391.6,36.1,389.7,38.4,389.7,41.3z"/>
	<path class="st4" d="M420.3,41.3c0,0.3,0,0.7,0,0.9h-11.4c0.4,3,2.5,4.5,4.9,4.5c1.7,0,3.2-0.7,4.5-1.7l1.3,1.7
		c-1.8,1.7-3.8,2.2-6,2.2c-4.3,0-7.4-3-7.4-7.6c0-4.5,3-7.6,7.2-7.6C417.4,33.7,420.3,36.8,420.3,41.3z M408.8,40.2h8.9
		c-0.3-2.6-2-4.2-4.3-4.2C410.8,36,409.2,37.7,408.8,40.2z"/>
	<path class="st4" d="M437.8,39.6v9h-2.5v-8.2c0-2.7-1.5-4.3-4-4.3c-2.3,0-4.3,1.6-4.3,4.3v8.2h-2.5V34h2.5v1.9
		c1.2-1.6,3.1-2.2,4.8-2.2C435.3,33.7,437.8,36.1,437.8,39.6z"/>
	<path class="st4" d="M454.8,36l-1.6,1.7c-1.1-1-2.3-1.6-3.9-1.6c-2.8,0-4.9,2.2-4.9,5.2s2.1,5.2,4.9,5.2c1.5,0,2.9-0.7,3.9-1.7
		l1.5,1.7c-1.3,1.5-3.2,2.3-5.4,2.3c-4.5,0-7.6-3.3-7.6-7.6s3-7.6,7.6-7.6C451.6,33.7,453.5,34.5,454.8,36z"/>
	<path class="st4" d="M471.4,41.3c0,0.3,0,0.7,0,0.9h-11.4c0.4,3,2.5,4.5,4.9,4.5c1.7,0,3.2-0.7,4.5-1.7l1.3,1.7
		c-1.8,1.7-3.8,2.2-6,2.2c-4.3,0-7.4-3-7.4-7.6c0-4.5,3-7.6,7.2-7.6C468.5,33.7,471.3,36.8,471.4,41.3z M459.9,40.2h8.9
		c-0.3-2.6-2-4.2-4.3-4.2C461.9,36,460.3,37.7,459.9,40.2z"/>
	<path class="st4" d="M486.8,28.9c0,1-0.8,1.7-1.8,1.7s-1.8-0.8-1.8-1.7c0-1,0.8-1.8,1.8-1.8S486.8,27.9,486.8,28.9z M486.3,48.6
		h-2.5V34h2.5V48.6z"/>
	<path class="st4" d="M501.4,37.3c-0.9-0.6-2.8-1.3-4.7-1.3c-2,0-3.3,0.8-3.3,2.2c0,1.2,1.1,1.7,2.8,1.9l1.7,0.2
		c3.1,0.4,4.9,1.7,4.9,4.1c0,2.8-2.5,4.6-6.4,4.6c-1.8,0-4.2-0.4-6.1-1.9l1.2-1.9c1.1,0.8,2.5,1.5,5,1.5c2.4,0,3.9-0.8,3.9-2.2
		c0-1.1-1-1.7-2.9-2l-1.7-0.2c-3.3-0.4-4.8-1.9-4.8-4.1c0-2.8,2.3-4.5,5.9-4.5c2.3,0,4.4,0.6,5.8,1.6L501.4,37.3z"/>
	<path class="st4" d="M524.6,36.3h-6.1v7.1c0,2.2,1.2,3.1,2.7,3.1c1.1,0,2.1-0.4,3-1l1.2,1.9c-1.1,0.8-2.6,1.4-4.4,1.4
		c-3.2,0-5-1.7-5-5.4v-7.1h-3.1V34h3.1v-4.6h2.5V34h6.1V36.3z"/>
	<path class="st4" d="M531.1,35.9c1.2-1.6,3.1-2.2,4.7-2.2c3.6,0,6.1,2.3,6.1,5.8v9h-2.5v-8.2c0-2.7-1.5-4.3-4-4.3
		c-2.3,0-4.3,1.6-4.3,4.3v8.2h-2.5V26.5h2.5V35.9z"/>
	<path class="st4" d="M560.1,41.3c0,0.3,0,0.7,0,0.9h-11.4c0.4,3,2.5,4.5,4.9,4.5c1.7,0,3.2-0.7,4.5-1.7l1.3,1.7
		c-1.8,1.7-3.8,2.2-6,2.2c-4.3,0-7.4-3-7.4-7.6c0-4.5,3-7.6,7.2-7.6C557.2,33.7,560.1,36.8,560.1,41.3z M548.6,40.2h8.9
		c-0.3-2.6-2-4.2-4.3-4.2C550.6,36,549,37.7,548.6,40.2z"/>
	<path class="st4" d="M575,48.6h-2.5V26.5h2.5V48.6z"/>
	<path class="st4" d="M594.1,48.6h-2.5v-1.9c-1.1,1.4-2.8,2.3-5.1,2.3c-4.1,0-7.3-3.2-7.3-7.6c0-4.4,3.2-7.6,7.3-7.6
		c2.3,0,4,0.9,5.1,2.3v-2h2.5V48.6z M581.7,41.3c0,2.9,2,5.2,5,5.2c2.9,0,5-2.3,5-5.2c0-3-2.1-5.2-5-5.2
		C583.7,36.1,581.7,38.4,581.7,41.3z"/>
	<path class="st4" d="M608.8,34.2l-0.6,2.5c-0.7-0.4-1.7-0.6-2.5-0.6c-2.2,0-3.8,1.7-3.8,4.4v8.1h-2.5V34h2.5V36
		c1-1.4,2.5-2.2,4.3-2.2C607.2,33.7,608,33.9,608.8,34.2z"/>
	<path class="st4" d="M622.7,36v-2h2.5v13.5c0,4.7-3.1,7.4-7.7,7.4c-2.3,0-4.6-0.7-6.1-1.9l1.1-2c1.4,1,3.1,1.6,5,1.6
		c3.1,0,5.2-1.8,5.2-5v-1.3c-1.1,1.4-2.8,2.3-5,2.3c-4.1,0-7.2-3-7.2-7.5c0-4.4,3.1-7.5,7.2-7.5C620,33.7,621.6,34.6,622.7,36z
		 M613.1,41.2c0,2.8,1.9,5.1,4.9,5.1c2.9,0,4.9-2.2,4.9-5.1c0-2.9-2-5.1-4.9-5.1C615,36.1,613.1,38.4,613.1,41.2z"/>
	<path class="st4" d="M643.5,41.3c0,0.3,0,0.7,0,0.9H632c0.4,3,2.5,4.5,4.9,4.5c1.7,0,3.2-0.7,4.5-1.7l1.3,1.7
		c-1.8,1.7-3.8,2.2-6,2.2c-4.3,0-7.4-3-7.4-7.6c0-4.5,3-7.6,7.2-7.6C640.6,33.7,643.5,36.8,643.5,41.3z M632,40.2h8.9
		c-0.3-2.6-2-4.2-4.3-4.2C634,36,632.4,37.7,632,40.2z"/>
	<path class="st4" d="M657.5,37.3c-0.9-0.6-2.8-1.3-4.7-1.3c-2,0-3.3,0.8-3.3,2.2c0,1.2,1.1,1.7,2.8,1.9l1.7,0.2
		c3.1,0.4,4.9,1.7,4.9,4.1c0,2.8-2.5,4.6-6.4,4.6c-1.8,0-4.2-0.4-6.1-1.9l1.2-1.9c1.1,0.8,2.5,1.5,5,1.5c2.4,0,3.9-0.8,3.9-2.2
		c0-1.1-1-1.7-2.9-2l-1.7-0.2c-3.3-0.4-4.8-1.9-4.8-4.1c0-2.8,2.3-4.5,5.9-4.5c2.3,0,4.4,0.6,5.8,1.6L657.5,37.3z"/>
	<path class="st4" d="M672.8,36.3h-6.1v7.1c0,2.2,1.2,3.1,2.7,3.1c1.1,0,2.1-0.4,3-1l1.2,1.9c-1.1,0.8-2.6,1.4-4.4,1.4
		c-3.2,0-5-1.7-5-5.4v-7.1h-3.1V34h3.1v-4.6h2.5V34h6.1V36.3z"/>
	<path class="st4" d="M698.8,48.6h-2.5v-1.9c-1.1,1.4-2.8,2.3-5.1,2.3c-4.1,0-7.3-3.2-7.3-7.6c0-4.4,3.2-7.6,7.3-7.6
		c2.3,0,4,0.9,5.1,2.3v-2h2.5V48.6z M686.5,41.3c0,2.9,2,5.2,5,5.2c2.9,0,5-2.3,5-5.2c0-3-2.1-5.2-5-5.2
		C688.4,36.1,686.5,38.4,686.5,41.3z"/>
	<path class="st4" d="M713.9,37.3c-0.9-0.6-2.8-1.3-4.7-1.3c-2,0-3.3,0.8-3.3,2.2c0,1.2,1.1,1.7,2.8,1.9l1.7,0.2
		c3.1,0.4,4.9,1.7,4.9,4.1c0,2.8-2.5,4.6-6.4,4.6c-1.8,0-4.2-0.4-6.1-1.9l1.2-1.9c1.1,0.8,2.5,1.5,5,1.5c2.4,0,3.9-0.8,3.9-2.2
		c0-1.1-1-1.7-2.9-2l-1.7-0.2c-3.3-0.4-4.8-1.9-4.8-4.1c0-2.8,2.3-4.5,5.9-4.5c2.3,0,4.4,0.6,5.8,1.6L713.9,37.3z"/>
	<path class="st4" d="M729.2,37.3c-0.9-0.6-2.8-1.3-4.7-1.3c-2,0-3.3,0.8-3.3,2.2c0,1.2,1.1,1.7,2.8,1.9l1.7,0.2
		c3.1,0.4,4.9,1.7,4.9,4.1c0,2.8-2.5,4.6-6.4,4.6c-1.8,0-4.2-0.4-6.1-1.9l1.2-1.9c1.1,0.8,2.5,1.5,5,1.5c2.4,0,3.9-0.8,3.9-2.2
		c0-1.1-1-1.7-2.9-2l-1.7-0.2c-3.3-0.4-4.8-1.9-4.8-4.1c0-2.8,2.3-4.5,5.9-4.5c2.3,0,4.4,0.6,5.8,1.6L729.2,37.3z"/>
	<path class="st4" d="M747.6,41.3c0,0.3,0,0.7,0,0.9h-11.4c0.4,3,2.5,4.5,4.9,4.5c1.7,0,3.2-0.7,4.5-1.7l1.3,1.7
		c-1.8,1.7-3.8,2.2-6,2.2c-4.3,0-7.4-3-7.4-7.6c0-4.5,3-7.6,7.2-7.6C744.7,33.7,747.5,36.8,747.6,41.3z M736.1,40.2h8.9
		c-0.3-2.6-2-4.2-4.3-4.2C738.1,36,736.5,37.7,736.1,40.2z"/>
	<path class="st4" d="M761.5,36.3h-6.1v7.1c0,2.2,1.2,3.1,2.7,3.1c1.1,0,2.1-0.4,3-1l1.2,1.9c-1.1,0.8-2.6,1.4-4.4,1.4
		c-3.2,0-5-1.7-5-5.4v-7.1h-3.1V34h3.1v-4.6h2.5V34h6.1V36.3z"/>
	<path class="st4" d="M782.9,36.3h-5.6v12.3h-2.5V36.3h-3.2V34h3.2v-2.5c0-3,1.4-5.3,4.8-5.3c1.7,0,3,0.5,4,1.1l-0.9,2.1
		c-0.8-0.5-1.9-0.8-2.9-0.8c-1.7,0-2.5,1.1-2.5,3V34h5.6V36.3z"/>
	<path class="st4" d="M800.3,41.3c0,4.3-3.3,7.6-7.7,7.6s-7.7-3.3-7.7-7.6s3.3-7.6,7.7-7.6S800.3,37,800.3,41.3z M787.5,41.3
		c0,3,2.2,5.2,5.1,5.2c2.9,0,5.1-2.2,5.1-5.2s-2.2-5.2-5.1-5.2C789.7,36.1,787.5,38.3,787.5,41.3z"/>
	<path class="st4" d="M813.9,34.2l-0.6,2.5c-0.7-0.4-1.7-0.6-2.5-0.6c-2.2,0-3.8,1.7-3.8,4.4v8.1h-2.5V34h2.5V36
		c1-1.4,2.5-2.2,4.3-2.2C812.3,33.7,813.1,33.9,813.9,34.2z"/>
	<path class="st4" d="M217.7,77.2l-2.3,1.5c-1.4-2.1-3.8-3.4-6.5-3.4c-4.7,0-8.3,3.4-8.3,8.5c0,5,3.6,8.5,8.3,8.5
		c2.8,0,5.1-1.3,6.5-3.4l2.2,1.6c-1.8,2.7-5,4.3-8.7,4.3c-6.4,0-11.1-4.6-11.1-11c0-6.4,4.7-11,11.1-11
		C212.7,72.8,216,74.5,217.7,77.2z"/>
	<path class="st4" d="M235.7,94.6h-2.5v-1.9c-1.1,1.4-2.8,2.3-5.1,2.3c-4.1,0-7.3-3.2-7.3-7.6s3.2-7.6,7.3-7.6c2.3,0,4,0.9,5.1,2.3
		v-2h2.5V94.6z M223.3,87.3c0,2.9,2,5.2,5,5.2c2.9,0,5-2.3,5-5.2c0-3-2.1-5.2-5-5.2C225.3,82.1,223.3,84.4,223.3,87.3z"/>
	<path class="st4" d="M254.3,85.5v9h-2.5v-8.2c0-2.7-1.5-4.3-4-4.3c-2.3,0-4.3,1.6-4.3,4.3v8.2H241V80h2.5v1.9
		c1.2-1.6,3.1-2.2,4.8-2.2C251.8,79.7,254.3,82,254.3,85.5z"/>
	<path class="st4" d="M273.2,94.6h-2.5v-1.9c-1.1,1.4-2.8,2.3-5.1,2.3c-4.1,0-7.3-3.2-7.3-7.6s3.2-7.6,7.3-7.6c2.3,0,4,0.9,5.1,2.3
		v-2h2.5V94.6z M260.9,87.3c0,2.9,2,5.2,5,5.2c2.9,0,5-2.3,5-5.2c0-3-2.1-5.2-5-5.2C262.8,82.1,260.9,84.4,260.9,87.3z"/>
	<path class="st4" d="M289.8,82v-9.5h2.5v22.1h-2.5v-1.9c-1.1,1.4-2.8,2.3-5.1,2.3c-4.1,0-7.3-3.2-7.3-7.6s3.2-7.6,7.3-7.6
		C287,79.7,288.7,80.6,289.8,82z M280,87.3c0,2.9,2,5.2,5,5.2c2.9,0,5-2.3,5-5.2c0-3-2.1-5.2-5-5.2C282,82.1,280,84.4,280,87.3z"/>
	<path class="st4" d="M300.7,74.9c0,1-0.8,1.7-1.8,1.7s-1.8-0.8-1.8-1.7c0-1,0.8-1.8,1.8-1.8S300.7,73.9,300.7,74.9z M300.1,94.6
		h-2.5V80h2.5V94.6z"/>
	<path class="st4" d="M319.3,94.6h-2.5v-1.9c-1.1,1.4-2.8,2.3-5.1,2.3c-4.1,0-7.3-3.2-7.3-7.6s3.2-7.6,7.3-7.6c2.3,0,4,0.9,5.1,2.3
		v-2h2.5V94.6z M306.9,87.3c0,2.9,2,5.2,5,5.2c2.9,0,5-2.3,5-5.2c0-3-2.1-5.2-5-5.2C308.9,82.1,306.9,84.4,306.9,87.3z"/>
	<path class="st4" d="M337.9,85.5v9h-2.5v-8.2c0-2.7-1.5-4.3-4-4.3c-2.3,0-4.3,1.6-4.3,4.3v8.2h-2.5V80h2.5v1.9
		c1.2-1.6,3.1-2.2,4.8-2.2C335.4,79.7,337.9,82,337.9,85.5z"/>
	<path class="st4" d="M352.8,83.2c-0.9-0.6-2.8-1.3-4.7-1.3c-2,0-3.3,0.8-3.3,2.2c0,1.2,1.1,1.7,2.8,1.9l1.7,0.2
		c3.1,0.4,4.9,1.7,4.9,4.1c0,2.8-2.5,4.6-6.4,4.6c-1.8,0-4.2-0.4-6.1-1.9l1.2-1.9c1.1,0.8,2.5,1.5,5,1.5c2.4,0,3.9-0.8,3.9-2.2
		c0-1.1-1-1.7-2.9-2l-1.7-0.2c-3.3-0.4-4.8-1.9-4.8-4.1c0-2.8,2.3-4.5,5.9-4.5c2.3,0,4.4,0.6,5.8,1.6L352.8,83.2z"/>
	<path class="st4" d="M361.3,90.7l-1.7,7.9h-2.2l0.9-7.9H361.3z"/>
	<path class="st4" d="M387.9,94.6h-2.5v-1.9c-1.1,1.4-2.8,2.3-5.1,2.3c-4.1,0-7.3-3.2-7.3-7.6s3.2-7.6,7.3-7.6c2.3,0,4,0.9,5.1,2.3
		v-2h2.5V94.6z M375.5,87.3c0,2.9,2,5.2,5,5.2c2.9,0,5-2.3,5-5.2c0-3-2.1-5.2-5-5.2C377.5,82.1,375.5,84.4,375.5,87.3z"/>
	<path class="st4" d="M405,82l-1.6,1.7c-1.1-1-2.3-1.6-3.9-1.6c-2.8,0-4.9,2.2-4.9,5.2c0,3,2.1,5.2,4.9,5.2c1.5,0,2.9-0.7,3.9-1.7
		l1.5,1.7c-1.3,1.5-3.2,2.3-5.4,2.3c-4.5,0-7.6-3.3-7.6-7.6s3-7.6,7.6-7.6C401.8,79.7,403.7,80.5,405,82z"/>
	<path class="st4" d="M420.5,82l-1.6,1.7c-1.1-1-2.3-1.6-3.9-1.6c-2.8,0-4.9,2.2-4.9,5.2c0,3,2.1,5.2,4.9,5.2c1.5,0,2.9-0.7,3.9-1.7
		l1.5,1.7c-1.3,1.5-3.2,2.3-5.4,2.3c-4.5,0-7.6-3.3-7.6-7.6s3-7.6,7.6-7.6C417.2,79.7,419.2,80.5,420.5,82z"/>
	<path class="st4" d="M438.3,87.3c0,4.3-3.3,7.6-7.7,7.6s-7.7-3.3-7.7-7.6s3.3-7.6,7.7-7.6S438.3,83,438.3,87.3z M425.5,87.3
		c0,3,2.2,5.2,5.1,5.2c2.9,0,5.1-2.2,5.1-5.2c0-3-2.2-5.2-5.1-5.2C427.7,82.1,425.5,84.2,425.5,87.3z"/>
	<path class="st4" d="M455.7,88.5c0,4.4-3.2,6.4-6.6,6.4c-3.5,0-6.6-2-6.6-6.4V80h2.5v8.2c0,3,1.8,4.3,4.1,4.3
		c2.4,0,4.1-1.3,4.1-4.3V80h2.5V88.5z"/>
	<path class="st4" d="M474.1,85.5v9h-2.5v-8.2c0-2.7-1.5-4.3-4-4.3c-2.3,0-4.3,1.6-4.3,4.3v8.2h-2.5V80h2.5v1.9
		c1.2-1.6,3.1-2.2,4.8-2.2C471.6,79.7,474.1,82,474.1,85.5z"/>
	<path class="st4" d="M489,82.3h-6.1v7.1c0,2.2,1.2,3.1,2.7,3.1c1.1,0,2.1-0.4,3-1l1.2,1.9c-1.1,0.8-2.6,1.4-4.4,1.4
		c-3.2,0-5-1.7-5-5.4v-7.1h-3.1V80h3.1v-4.6h2.5V80h6.1V82.3z"/>
	<path class="st4" d="M496,74.9c0,1-0.8,1.7-1.8,1.7s-1.8-0.8-1.8-1.7c0-1,0.8-1.8,1.8-1.8S496,73.9,496,74.9z M495.5,94.6H493V80
		h2.5V94.6z"/>
	<path class="st4" d="M514.1,85.5v9h-2.5v-8.2c0-2.7-1.5-4.3-4-4.3c-2.3,0-4.3,1.6-4.3,4.3v8.2h-2.5V80h2.5v1.9
		c1.2-1.6,3.1-2.2,4.8-2.2C511.6,79.7,514.1,82,514.1,85.5z"/>
	<path class="st4" d="M530.3,82v-2h2.5v13.5c0,4.7-3.1,7.4-7.7,7.4c-2.3,0-4.6-0.7-6.1-1.9l1.1-2c1.4,1,3.1,1.6,5,1.6
		c3.1,0,5.2-1.8,5.2-5v-1.3c-1.1,1.4-2.8,2.3-5,2.3c-4.1,0-7.2-3-7.2-7.5c0-4.4,3.1-7.5,7.2-7.5C527.6,79.7,529.2,80.6,530.3,82z
		 M520.7,87.2c0,2.8,1.9,5.1,4.9,5.1c2.9,0,4.9-2.2,4.9-5.1c0-2.9-2-5.1-4.9-5.1C522.6,82.1,520.7,84.3,520.7,87.2z"/>
	<path class="st4" d="M555.6,82.3H550v12.3h-2.5V82.3h-3.2V80h3.2v-2.5c0-3,1.4-5.3,4.8-5.3c1.7,0,3,0.5,4,1.1l-0.9,2.1
		c-0.8-0.5-1.9-0.8-2.9-0.8c-1.7,0-2.5,1.1-2.5,3V80h5.6V82.3z"/>
	<path class="st4" d="M573,87.3c0,4.3-3.3,7.6-7.7,7.6s-7.7-3.3-7.7-7.6s3.3-7.6,7.7-7.6S573,83,573,87.3z M560.1,87.3
		c0,3,2.2,5.2,5.1,5.2c2.9,0,5.1-2.2,5.1-5.2c0-3-2.2-5.2-5.1-5.2C562.3,82.1,560.1,84.2,560.1,87.3z"/>
	<path class="st4" d="M586.6,80.2l-0.6,2.5c-0.7-0.4-1.7-0.6-2.5-0.6c-2.2,0-3.8,1.7-3.8,4.4v8.1h-2.5V80h2.5v1.9
		c1-1.4,2.5-2.2,4.3-2.2C584.9,79.7,585.8,79.8,586.6,80.2z"/>
	<path class="st8" d="M627.9,82.7v11.8h-5V84.3c0-2.7-1.4-4.2-3.6-4.2c-2.1,0-3.9,1.4-3.9,4.2v10.2h-5V84.3c0-2.7-1.3-4.2-3.6-4.2
		c-2.1,0-3.9,1.4-3.9,4.2v10.2h-5V76h4.9v2.2c1.3-2,3.4-2.7,5.5-2.7c2.7,0,4.9,1.2,6.1,3.2c1.4-2.4,3.9-3.2,6.3-3.2
		C625,75.5,627.9,78.4,627.9,82.7z"/>
	<path class="st8" d="M651.9,85.3c0,5.6-4.3,9.8-10.1,9.8c-5.8,0-10-4.2-10-9.8s4.3-9.8,10-9.8C647.7,75.5,651.9,79.7,651.9,85.3z
		 M636.9,85.3c0,3,2.1,5.1,4.9,5.1c2.8,0,4.9-2.1,4.9-5.1s-2.1-5.1-4.9-5.1C639.1,80.2,636.9,82.3,636.9,85.3z"/>
	<path class="st8" d="M668.7,75.9l-0.7,5c-0.8-0.4-2-0.6-3-0.6c-2.3,0-3.9,1.4-3.9,4.2v10.1h-5V76h4.8v2c1.2-1.7,2.9-2.5,5.2-2.5
		C667.1,75.5,668,75.7,668.7,75.9z"/>
	<path class="st8" d="M688.7,85.2c0,0.6,0,1.3-0.1,1.7h-13.2c0.5,2.7,2.4,3.8,4.8,3.8c1.6,0,3.4-0.7,4.7-1.8l2.9,3.2
		c-2.1,1.9-4.8,2.8-7.9,2.8c-5.7,0-9.6-3.9-9.6-9.7c0-5.8,3.8-9.8,9.4-9.8C685,75.5,688.7,79.5,688.7,85.2z M675.5,83.5h8.2
		c-0.5-2.4-1.9-3.7-4-3.7C677.3,79.8,675.9,81.2,675.5,83.5z"/>
	<path class="st8" d="M715.6,80.4h-6.7v6.8c0,2.3,1.2,3.2,2.8,3.2c1.2,0,2.5-0.6,3.5-1.2l1.8,3.9c-1.6,1.1-3.5,2-6.1,2
		c-4.6,0-7-2.6-7-7.4v-7.2h-3.6V76h3.6v-5.5h5V76h6.7V80.4z"/>
	<path class="st8" d="M725,78c1.3-1.8,3.3-2.5,5.3-2.5c4.2,0,7.2,2.9,7.2,7.2v11.8h-5V84.3c0-2.7-1.3-4.2-3.6-4.2
		c-2.1,0-3.9,1.4-3.9,4.2v10.2h-5V67h5V78z"/>
	<path class="st8" d="M760.9,94.6H756v-2c-1.2,1.5-3,2.5-5.6,2.5c-5.1,0-9-4.2-9-9.8s3.9-9.8,9-9.8c2.5,0,4.3,1,5.6,2.5v-2h4.9V94.6
		z M746.6,85.3c0,2.8,1.9,5.1,4.8,5.1c2.9,0,4.8-2.2,4.8-5.1c0-2.9-1.9-5.1-4.8-5.1C748.4,80.2,746.6,82.4,746.6,85.3z"/>
	<path class="st8" d="M783.7,82.7v11.8h-5V84.3c0-2.7-1.3-4.2-3.6-4.2c-2.1,0-3.9,1.4-3.9,4.2v10.2h-5V76h4.9v2.2
		c1.3-2,3.4-2.7,5.5-2.7C780.7,75.5,783.7,78.4,783.7,82.7z"/>
	<path class="st8" d="M808.2,94.6H803v-20l-6.4,2.6V72l11.6-4.7V94.6z"/>
	<path class="st8" d="M815.9,98.4h-5.3l16.3-33.3h5.3L815.9,98.4z"/>
	<path class="st8" d="M850.8,75c0,2.8-1.5,4.9-4,6.1c2.8,1.1,4.6,3.3,4.6,6.1c0,5.3-4.8,7.8-9.9,7.8c-4,0-7.3-1.4-9.4-3.9l3.1-3.4
		c1.6,1.6,3.8,2.6,6.1,2.6c2.6,0,4.7-1.1,4.7-3.5c0-2.3-2.4-3.5-5.2-3.5h-3.1v-4.6h3.1c2.6,0,4.7-1.1,4.7-3.4c0-2.2-2-3.4-4.4-3.4
		c-2.5,0-4.3,1.3-5.4,2.7l-3.3-3.3c1.8-2.4,4.7-4.2,8.9-4.2C847,67.3,850.8,70.3,850.8,75z"/>
	<path class="st4" d="M213,134.5c0,4.3-3.3,7.6-7.7,7.6s-7.7-3.3-7.7-7.6s3.3-7.6,7.7-7.6S213,130.2,213,134.5z M200.1,134.5
		c0,3,2.2,5.2,5.1,5.2c2.9,0,5.1-2.2,5.1-5.2s-2.2-5.2-5.1-5.2C202.3,129.3,200.1,131.5,200.1,134.5z"/>
	<path class="st4" d="M226.5,129.5h-5.6v12.3h-2.5v-12.3h-3.2v-2.3h3.2v-2.5c0-3,1.4-5.3,4.8-5.3c1.7,0,3,0.5,4,1.1l-0.9,2.1
		c-0.8-0.5-1.9-0.8-2.9-0.8c-1.7,0-2.5,1.1-2.5,3v2.5h5.6V129.5z"/>
	<path class="st4" d="M247.8,129.5h-6.1v7.1c0,2.2,1.2,3.1,2.7,3.1c1.1,0,2.1-0.4,3-1l1.2,1.9c-1.1,0.8-2.6,1.4-4.4,1.4
		c-3.2,0-5-1.7-5-5.4v-7.1h-3.1v-2.3h3.1v-4.6h2.5v4.6h6.1V129.5z"/>
	<path class="st4" d="M254.3,129.1c1.2-1.6,3.1-2.2,4.7-2.2c3.6,0,6.1,2.3,6.1,5.8v9h-2.5v-8.2c0-2.7-1.5-4.3-4-4.3
		c-2.3,0-4.3,1.6-4.3,4.3v8.2h-2.5v-22.1h2.5V129.1z"/>
	<path class="st4" d="M283.3,134.5c0,0.3,0,0.7,0,0.9h-11.4c0.4,3,2.5,4.5,4.9,4.5c1.7,0,3.2-0.7,4.5-1.7l1.3,1.7
		c-1.8,1.7-3.8,2.2-6,2.2c-4.3,0-7.4-3-7.4-7.6c0-4.5,3-7.6,7.2-7.6C280.4,126.9,283.2,130,283.3,134.5z M271.8,133.4h8.9
		c-0.3-2.6-2-4.2-4.3-4.2C273.8,129.1,272.2,130.9,271.8,133.4z"/>
	<path class="st4" d="M305.3,129.5h-6.1v7.1c0,2.2,1.2,3.1,2.7,3.1c1.1,0,2.1-0.4,3-1l1.2,1.9c-1.1,0.8-2.6,1.4-4.4,1.4
		c-3.2,0-5-1.7-5-5.4v-7.1h-3.1v-2.3h3.1v-4.6h2.5v4.6h6.1V129.5z"/>
	<path class="st4" d="M323.6,134.5c0,4.3-3.3,7.6-7.7,7.6s-7.7-3.3-7.7-7.6s3.3-7.6,7.7-7.6S323.6,130.2,323.6,134.5z M310.8,134.5
		c0,3,2.2,5.2,5.1,5.2c2.9,0,5.1-2.2,5.1-5.2s-2.2-5.2-5.1-5.2C313,129.3,310.8,131.5,310.8,134.5z"/>
	<path class="st4" d="M337.5,129.5h-6.1v7.1c0,2.2,1.2,3.1,2.7,3.1c1.1,0,2.1-0.4,3-1l1.2,1.9c-1.1,0.8-2.6,1.4-4.4,1.4
		c-3.2,0-5-1.7-5-5.4v-7.1h-3.1v-2.3h3.1v-4.6h2.5v4.6h6.1V129.5z"/>
	<path class="st4" d="M355.3,141.8h-2.5v-1.9c-1.1,1.4-2.8,2.3-5.1,2.3c-4.1,0-7.3-3.2-7.3-7.6c0-4.4,3.2-7.6,7.3-7.6
		c2.3,0,4,0.9,5.1,2.3v-2h2.5V141.8z M343,134.5c0,2.9,2,5.2,5,5.2c2.9,0,5-2.3,5-5.2c0-3-2.1-5.2-5-5.2
		C344.9,129.3,343,131.6,343,134.5z"/>
	<path class="st4" d="M363.1,141.8h-2.5v-22.1h2.5V141.8z"/>
	<path class="st4" d="M383.2,141.8h-2.9l-6.1-14.6h2.7l4.9,12l4.9-12h2.7L383.2,141.8z"/>
	<path class="st4" d="M406,141.8h-2.5v-1.9c-1.1,1.4-2.8,2.3-5.1,2.3c-4.1,0-7.3-3.2-7.3-7.6c0-4.4,3.2-7.6,7.3-7.6
		c2.3,0,4,0.9,5.1,2.3v-2h2.5V141.8z M393.6,134.5c0,2.9,2,5.2,5,5.2c2.9,0,5-2.3,5-5.2c0-3-2.1-5.2-5-5.2
		C395.6,129.3,393.6,131.6,393.6,134.5z"/>
	<path class="st4" d="M413.8,141.8h-2.5v-22.1h2.5V141.8z"/>
	<path class="st4" d="M432.2,135.7c0,4.4-3.2,6.4-6.6,6.4c-3.5,0-6.6-2-6.6-6.4v-8.5h2.5v8.2c0,3,1.8,4.3,4.1,4.3
		c2.4,0,4.1-1.3,4.1-4.3v-8.2h2.5V135.7z"/>
	<path class="st4" d="M450.3,134.5c0,0.3,0,0.7,0,0.9h-11.4c0.4,3,2.5,4.5,4.9,4.5c1.7,0,3.2-0.7,4.5-1.7l1.3,1.7
		c-1.8,1.7-3.8,2.2-6,2.2c-4.3,0-7.4-3-7.4-7.6c0-4.5,3-7.6,7.2-7.6C447.4,126.9,450.3,130,450.3,134.5z M438.9,133.4h8.9
		c-0.3-2.6-2-4.2-4.3-4.2C440.9,129.1,439.2,130.9,438.9,133.4z"/>
	<path class="st4" d="M477,134.5c0,4.3-3.3,7.6-7.7,7.6s-7.7-3.3-7.7-7.6s3.3-7.6,7.7-7.6S477,130.2,477,134.5z M464.2,134.5
		c0,3,2.2,5.2,5.1,5.2c2.9,0,5.1-2.2,5.1-5.2s-2.2-5.2-5.1-5.2C466.4,129.3,464.2,131.5,464.2,134.5z"/>
	<path class="st4" d="M490.5,129.5h-5.6v12.3h-2.5v-12.3h-3.2v-2.3h3.2v-2.5c0-3,1.4-5.3,4.8-5.3c1.7,0,3,0.5,4,1.1l-0.9,2.1
		c-0.8-0.5-1.9-0.8-2.9-0.8c-1.7,0-2.5,1.1-2.5,3v2.5h5.6V129.5z"/>
	<path class="st4" d="M516.1,141.8h-2.5v-1.9c-1.1,1.4-2.8,2.3-5.1,2.3c-4.1,0-7.3-3.2-7.3-7.6c0-4.4,3.2-7.6,7.3-7.6
		c2.3,0,4,0.9,5.1,2.3v-2h2.5V141.8z M503.7,134.5c0,2.9,2,5.2,5,5.2c2.9,0,5-2.3,5-5.2c0-3-2.1-5.2-5-5.2
		C505.7,129.3,503.7,131.6,503.7,134.5z"/>
	<path class="st4" d="M531.2,130.5c-0.9-0.6-2.8-1.3-4.7-1.3c-2,0-3.3,0.8-3.3,2.2c0,1.2,1.1,1.7,2.8,1.9l1.7,0.2
		c3.1,0.4,4.9,1.7,4.9,4.1c0,2.8-2.5,4.6-6.4,4.6c-1.8,0-4.2-0.4-6.1-1.9l1.2-1.9c1.1,0.8,2.5,1.5,5,1.5c2.4,0,3.9-0.8,3.9-2.2
		c0-1.1-1-1.7-2.9-2l-1.7-0.2c-3.3-0.4-4.8-1.9-4.8-4.1c0-2.8,2.3-4.5,5.9-4.5c2.3,0,4.4,0.6,5.8,1.6L531.2,130.5z"/>
	<path class="st4" d="M546.4,130.5c-0.9-0.6-2.8-1.3-4.7-1.3c-2,0-3.3,0.8-3.3,2.2c0,1.2,1.1,1.7,2.8,1.9l1.7,0.2
		c3.1,0.4,4.9,1.7,4.9,4.1c0,2.8-2.5,4.6-6.4,4.6c-1.8,0-4.2-0.4-6.1-1.9l1.2-1.9c1.1,0.8,2.5,1.5,5,1.5c2.4,0,3.9-0.8,3.9-2.2
		c0-1.1-1-1.7-2.9-2l-1.7-0.2c-3.3-0.4-4.8-1.9-4.8-4.1c0-2.8,2.3-4.5,5.9-4.5c2.3,0,4.4,0.6,5.8,1.6L546.4,130.5z"/>
	<path class="st4" d="M564.8,134.5c0,0.3,0,0.7,0,0.9h-11.4c0.4,3,2.5,4.5,4.9,4.5c1.7,0,3.2-0.7,4.5-1.7l1.3,1.7
		c-1.8,1.7-3.8,2.2-6,2.2c-4.3,0-7.4-3-7.4-7.6c0-4.5,3-7.6,7.2-7.6C561.9,126.9,564.8,130,564.8,134.5z M553.3,133.4h8.9
		c-0.3-2.6-2-4.2-4.3-4.2C555.3,129.1,553.7,130.9,553.3,133.4z"/>
	<path class="st4" d="M578.7,129.5h-6.1v7.1c0,2.2,1.2,3.1,2.7,3.1c1.1,0,2.1-0.4,3-1l1.2,1.9c-1.1,0.8-2.6,1.4-4.4,1.4
		c-3.2,0-5-1.7-5-5.4v-7.1H567v-2.3h3.1v-4.6h2.5v4.6h6.1V129.5z"/>
	<path class="st4" d="M592.5,130.5c-0.9-0.6-2.8-1.3-4.7-1.3c-2,0-3.3,0.8-3.3,2.2c0,1.2,1.1,1.7,2.8,1.9l1.7,0.2
		c3.1,0.4,4.9,1.7,4.9,4.1c0,2.8-2.5,4.6-6.4,4.6c-1.8,0-4.2-0.4-6.1-1.9l1.2-1.9c1.1,0.8,2.5,1.5,5,1.5c2.4,0,3.9-0.8,3.9-2.2
		c0-1.1-1-1.7-2.9-2l-1.7-0.2c-3.3-0.4-4.8-1.9-4.8-4.1c0-2.8,2.3-4.5,5.9-4.5c2.3,0,4.4,0.6,5.8,1.6L592.5,130.5z"/>
	<path class="st4" d="M601.4,140c0,1.1-1,2.1-2.1,2.1s-2.1-1-2.1-2.1c0-1.1,1-2.1,2.1-2.1S601.4,138.9,601.4,140z"/>
</g>
</svg>
