<?xml version="1.0" encoding="utf-8"?>
<!-- Generator: Adobe Illustrator 25.4.1, SVG Export Plug-In . SVG Version: 6.00 Build 0)  -->
<svg version="1.1" id="Layer_1" xmlns="http://www.w3.org/2000/svg" xmlns:xlink="http://www.w3.org/1999/xlink" x="0px" y="0px"
	 viewBox="0 0 250 250" style="enable-background:new 0 0 250 250;" xml:space="preserve">
<style type="text/css">
	.st0{fill:#ED5A35;}
	.st1{fill:#203232;}
</style>
<polygon class="st0" points="105,126.2 57,173.9 42.3,157 96.6,116.1 "/>
<g>
	<path class="st1" d="M104.5,126.5c-3.9,4.1-7.8,8.4-11.9,12.6l-12.3,12.8l-12.7,12.9l-12.9,12.9l-1.8,1.7l-1.7-1.9l-9.4-10.5
		c-3.1-3.5-6.3-7-9.4-10.5l-1.8-2.1l2.2-1.6l14.5-10.6L62,132c4.9-3.4,9.8-6.9,14.8-10.3l7.4-5.1l7.5-5l0.7-0.5l0.5,0.6
		c2,2.5,4,5,6,7.5L104.5,126.5z M104.5,126.5c-2.2-2.4-4.5-4.7-6.6-6.9c-2.2-2.3-4.3-4.4-6.4-6.7l1.2,0.1l-7,5.7l-7,5.6
		c-4.7,3.7-9.4,7.4-14.2,11.1l-14.3,10.9l-14.4,10.7l0.4-3.6c3.1,3.5,6.2,7,9.3,10.5l9.3,10.6l-3.4-0.1l12.8-11.9l13.1-11.8
		l13.4-11.9L104.5,126.5z"/>
</g>
<polygon class="st0" points="148,62.7 176.9,79.7 143.2,113.8 150,123.8 181.8,89 193.9,118.7 200.7,58.7 "/>
<g>
	<path class="st1" d="M142,62.3c5.1,2.9,10.1,5.7,15.1,8.3c4.9,2.6,9.7,5.2,14.4,7.8l1.3,0.7l-1,1.1l-15.3,16.6L141,113.3l0-2.9
		l9.6,10.2l-3.3,0c5.2-5.8,10.5-11.7,15.7-17.5l15.8-17.5l2.7-2.9l1.5,3.7l6,14.9l6,14.9l-4.6,0.6c1.2-10,2.4-20,3.7-30
		c1.2-10,2.6-20,3.9-30l1.9,1.9l-14.1,0.9c-4.7,0.3-9.4,0.5-14.3,0.8C161.9,60.9,152,61.5,142,62.3z M142,62.3
		c9.2-1,18.5-2.2,28.2-3.4c4.8-0.6,9.7-1.3,14.6-1.8l14.8-1.7l2.1-0.2l-0.2,2.1c-1,10-1.9,20.1-3,30.1c-1.1,10-2,20-3.2,30.1l-1,9.3
		l-3.6-8.7l-6.1-14.8l-6.1-14.8l4.1,0.7l-15.9,17.4c-5.3,5.8-10.7,11.5-16,17.3l-1.7,1.8l-1.6-1.8l-9.4-10.4l-1.4-1.5l1.4-1.4l16-16
		L170,78.5l0.2,1.8c-4.9-3.1-9.8-6.2-14.5-9.3C151.1,68,146.6,65.1,142,62.3z"/>
</g>
<polygon class="st1" points="137.1,148.5 132.8,153.3 132.7,173.7 146.1,158.3 "/>
<polygon class="st1" points="130.2,153.7 126.6,149.9 116.3,161.1 129.9,174.8 "/>
<polygon class="st1" points="163.2,121.8 155.7,130 164.1,139.1 171.4,130.7 "/>
<polygon class="st1" points="98.8,141 86.1,153.9 98.6,167.4 105.8,159.3 "/>
<polygon class="st1" points="196.5,141.5 180.8,102.8 173.4,110.8 173.4,110.8 165.9,119 173.4,127.2 177.9,121.9 "/>
<polygon class="st1" points="81.7,158.2 73.9,166.1 87.2,180.5 94.5,172.1 "/>
<polygon class="st1" points="109.3,155.6 112.1,158.3 123.3,146.2 109.1,130.9 103,137.2 "/>
<polygon class="st1" points="75.7,194.1 83.7,185 69.4,169.5 60.9,178.1 "/>
<g>
	<g>
		<polygon class="st1" points="196.1,183.6 96.9,76.1 87.8,85.9 187.1,193.5 		"/>
	</g>
</g>
<polygon class="st1" points="122.6,72.5 122.6,72.5 97.1,84.7 83.2,112.3 83.2,112.3 80.6,66.9 "/>
</svg>
