<?xml version="1.0" encoding="utf-8"?>
<!-- Generator: Adobe Illustrator 25.4.1, SVG Export Plug-In . SVG Version: 6.00 Build 0)  -->
<svg version="1.1" id="Layer_2" xmlns="http://www.w3.org/2000/svg" xmlns:xlink="http://www.w3.org/1999/xlink" x="0px" y="0px"
	 viewBox="0 0 250 250" style="enable-background:new 0 0 250 250;" xml:space="preserve">
<style type="text/css">
	.st0{clip-path:url(#SVGID_00000099650082479361537310000013901402072715768488_);fill:#ED5A36;}
	.st1{clip-path:url(#SVGID_00000099650082479361537310000013901402072715768488_);fill:#213232;}
	.st2{clip-path:url(#SVGID_00000099650082479361537310000013901402072715768488_);fill:#FFFFFF;}
	.st3{fill:#213232;}
	.st4{fill:#ED5A36;}
	.st5{fill:#EB5A36;}
	.st6{fill:#FFFFFF;}
	.st7{fill:#203231;}
</style>
<g>
	<defs>
		<rect id="SVGID_1_" x="92.3" y="107.9" width="121.7" height="77.1"/>
	</defs>
	<clipPath id="SVGID_00000026855249856394980190000002620701426750766268_">
		<use xlink:href="#SVGID_1_"  style="overflow:visible;"/>
	</clipPath>
	<path style="clip-path:url(#SVGID_00000026855249856394980190000002620701426750766268_);fill:#ED5A36;" d="M94.1,163.2l0.6-52.9
		l117.2,0l-1.5,41C188.5,162.9,94.1,163.2,94.1,163.2"/>
	<path style="clip-path:url(#SVGID_00000026855249856394980190000002620701426750766268_);fill:#213232;" d="M213.9,167.9l-121.7,0
		l0-60l121.7,0L213.9,167.9z M97.4,167.9c51.3-2.5,96.1-4.3,111.5-11.8l-0.1-43.1l-111.4,0L97.4,167.9z"/>
	<path style="clip-path:url(#SVGID_00000026855249856394980190000002620701426750766268_);fill:#FFFFFF;" d="M174.9,137.9
		c0,11.1-9,20.1-20.1,20.1c-11.1,0-20.1-9-20.1-20.1c0-11.1,9-20.1,20.1-20.1C165.9,117.8,174.9,126.8,174.9,137.9"/>
</g>
<polygon class="st3" points="92.3,176.5 213.9,176.5 213.9,171.3 "/>
<polygon class="st3" points="92.3,185.1 213.9,185 213.9,179.9 "/>
<g>
	<path class="st4" d="M157.2,123.1l0,3.3c3,0.3,5.2,1.2,7.3,2.5l-2.2,3.8c-1.4-0.9-3.2-1.6-5.1-1.9l0,5.6c4.3,0.7,7.7,2.6,7.6,6.6
		c-0.1,4.4-3.4,6.7-7.6,7.3l0,3.5l-3.9,0l0-3.4c-3.1-0.3-6.3-1.3-8.4-3l2.4-3.7c1.4,1.1,3.6,2.1,6,2.4l0-5.7l-0.2,0
		c-4.3-0.7-7.4-2.6-7.3-6.7c0.1-4,3.2-6.6,7.5-7.2l0-3.3L157.2,123.1z M153.3,135.7l0-4.9c-1.6,0.4-2.7,1.3-2.7,2.5
		C150.6,134.6,151.6,135.2,153.3,135.7z M157.2,141l0,4.9c1.6-0.4,2.7-1.3,2.7-2.6C159.9,142.2,159,141.5,157.2,141z"/>
</g>
<ellipse class="st5" cx="78" cy="136.5" rx="41.5" ry="41.1"/>
<ellipse class="st5" cx="114.4" cy="88.3" rx="26.3" ry="26.9"/>
<circle class="st6" cx="115.7" cy="86.9" r="8.5"/>
<g>
	<path class="st7" d="M115,76.9c2.7-0.8,6,0,8.4,2c2.4,2,3.9,5.2,3.9,8.4c0,3.2-1.5,6.4-3.9,8.4c-2.4,2-5.7,2.8-8.4,2
		c2.7-0.8,4.9-2.2,6.3-4.1c1.5-1.9,2.2-4.1,2.2-6.3c0-2.2-0.8-4.5-2.2-6.3C119.9,79.1,117.8,77.7,115,76.9z"/>
</g>
<circle class="st6" cx="76.4" cy="136" r="14.1"/>
<g>
	<path class="st7" d="M77.6,152.4c-4.3,1.2-9.4,0-13.1-3.2c-3.8-3.1-6.1-8.1-6-13.1c0-5,2.3-10,6-13.1c3.7-3.1,8.8-4.4,13.1-3.2
		c-4.2,1.2-7.6,3.5-9.9,6.4c-2.3,2.9-3.5,6.4-3.5,9.9c0,3.5,1.2,7,3.5,9.9C70,148.9,73.4,151.1,77.6,152.4z"/>
</g>
<path class="st7" d="M128.3,129.8c0.7-0.1,1.2-0.7,1.1-1.4c-0.3-2.8-0.8-5.5-1.6-8.2c-0.1-0.3-0.3-0.6-0.6-0.8
	c-0.3-0.2-0.7-0.2-1-0.1l-12.7,4c-0.3,0.1-0.6,0.3-0.8,0.7c-0.2,0.3-0.2,0.7-0.1,1c2.5,7.1,2.7,15.1,0.6,22.4
	c-0.1,0.2-0.1,0.4-0.2,0.6c-0.1,0.3-0.2,0.6-0.3,0.8l-0.5,1.4l-0.2,0.4c-0.3,0.8-0.6,1.5-1,2.3l-0.3,0.7c-0.1,0.1-0.1,0.3-0.2,0.4
	c0,0.1-0.1,0.2-0.1,0.2l-0.4,0.7c-0.1,0.2-0.2,0.4-0.3,0.6l-0.8,1.3l-0.8,1.2c-1.1,1.6-2.4,3.2-3.7,4.7c-1.3,1.4-2.8,2.7-4.4,4
	l-0.7,0.5c-0.2,0.1-0.3,0.2-0.5,0.4l-1.3,0.9l-0.4,0.2c-0.7,0.4-1.5,0.9-2.2,1.3l-0.7,0.4l-1.7,0.8l-1.7,0.8l-1.4,0.5
	c-1.9,0.7-3.9,1.2-5.9,1.6c-2,0.4-4,0.6-6.1,0.7c-2,0.1-4.1,0-6.2-0.3l-1.5-0.2c-0.3-0.1-0.6-0.1-0.9-0.2c-0.2,0-0.4-0.1-0.6-0.1
	c-0.4-0.1-0.8-0.2-1.2-0.3l-0.5-0.1c-0.4-0.1-0.8-0.2-1.2-0.3l0,0c-1.9-0.5-3.8-1.3-5.8-2.2c-2.1-1-3.8-2-5.4-3.1
	c-7-4.7-12.4-11.7-15.3-19.7c-2.9-8.1-3.2-17.2-0.8-25.5c2.5-8.5,7.7-16.2,14.7-21.6c1.7-1.3,3.6-2.6,5.6-3.7
	c2.1-1.2,4.2-2.1,6.1-2.8c2.2-0.8,4.4-1.4,6.5-1.8c2.2-0.4,4.5-0.7,6.8-0.7l0-1.7c-2.4-0.1-4.8,0.1-7.1,0.3c-2.3,0.3-4.6,0.8-7,1.4
	c-2.2,0.6-4.4,1.4-6.7,2.5c-2.3,1.1-4.4,2.3-6.3,3.6c-8,5.4-14.3,13.5-17.6,22.7c-1.1,3.1-1.9,6.3-2.4,9.6c-0.1,0.4,0.1,0.8,0.3,1.1
	c1,1.1,1.6,2.5,1.6,4c0,1.6-0.6,3.1-1.8,4.2c-0.3,0.3-0.4,0.7-0.4,1c0.2,2.6,0.6,5.1,1.2,7.6c0.1,0.4,0.4,0.8,0.8,0.9
	c1.6,0.5,2.9,1.7,3.5,3.3c0.7,1.7,0.6,3.5-0.3,5.1c-0.2,0.4-0.2,0.8,0,1.2c1.2,2.3,2.5,4.4,4,6.5c0.3,0.4,0.8,0.6,1.2,0.5
	c1.8-0.3,3.7,0.3,5,1.6c1.4,1.4,2,3.4,1.6,5.3c-0.1,0.5,0.1,1,0.4,1.3c0.4,0.3,0.7,0.6,1,0.8c1.3,1,2.7,2,4.3,3
	c0.4,0.3,1,0.3,1.4-0.1c1.7-1.2,3.8-1.5,5.7-0.7c2,0.8,3.3,2.7,3.5,4.8c0,0.5,0.4,1,0.9,1.1c0.5,0.2,0.9,0.3,1.3,0.4
	c0.2,0.1,0.4,0.1,0.6,0.2c0.4,0.1,0.8,0.2,1.3,0.3l1.9,0.4l0,0c0.5,0.1,1,0.2,1.5,0.3c0.6,0.1,1.1-0.2,1.4-0.7c1-2,3-3.2,5.2-3.2
	c2.3,0,4.4,1.4,5.3,3.5c0.2,0.5,0.7,0.8,1.2,0.8c0,0,0.1,0,0.1,0c0.3,0,0.6-0.1,0.8-0.1c1.6-0.2,3.3-0.5,5-0.9c0.6-0.1,1-0.6,1-1.2
	c0-2.4,1.4-4.5,3.6-5.4c2.3-0.9,4.9-0.3,6.5,1.5c0.4,0.4,1,0.6,1.6,0.3c0.3-0.2,0.6-0.3,0.9-0.5l1.7-1c0.3-0.2,0.5-0.3,0.8-0.5
	l0.9-0.6c0.4-0.2,0.7-0.5,1.1-0.8c0.5-0.4,0.7-1.1,0.4-1.6c-1.1-2.2-0.7-4.9,1.1-6.7c1.8-1.8,4.7-2.2,7-0.9c0.5,0.3,1.2,0.2,1.6-0.3
	c0.1-0.2,0.3-0.3,0.4-0.5l1.2-1.6l1.1-1.7c0.2-0.3,0.4-0.6,0.6-0.9c0.3-0.6,0.2-1.3-0.3-1.7c-2.1-1.6-2.9-4.4-1.9-6.9
	c1.1-2.5,3.8-4,6.5-3.4c0.7,0.1,1.3-0.3,1.5-0.9c0.6-2,1-4,1.4-6.1c0.1-0.7-0.4-1.4-1.1-1.5c-2.8-0.5-4.8-2.9-4.8-5.7
	C123.2,132.6,125.4,130.1,128.3,129.8z"/>
<path class="st7" d="M143.9,74c-0.9-2-2.1-3.9-3.4-5.6c-0.2-0.3-0.6-0.5-0.9-0.5c-0.9,0-1.7-0.4-2.3-1c-0.7-0.7-1-1.6-1-2.5
	c0-0.4-0.1-0.7-0.4-1c-1.3-1.1-2.7-2.1-4.2-3c-0.4-0.2-0.8-0.2-1.2,0c-0.9,0.4-1.9,0.5-2.9,0.1c-1-0.4-1.7-1.2-2-2.3
	c-0.1-0.4-0.4-0.7-0.8-0.9c-1.6-0.5-3.3-0.9-5-1.2c-0.5-0.1-0.9,0.1-1.2,0.5c-0.6,0.9-1.7,1.4-2.8,1.4c-1.2,0-2.3-0.6-2.9-1.6
	c-0.3-0.4-0.7-0.6-1.2-0.6c-0.3,0-0.6,0.1-0.9,0.1c-1.1,0.1-2.3,0.3-3.4,0.6c-0.5,0.1-0.9,0.5-0.9,1c-0.2,1.2-1,2.2-2.1,2.7
	c-1.2,0.5-2.5,0.3-3.5-0.5c-0.4-0.3-0.9-0.4-1.4-0.1c-0.3,0.1-0.5,0.3-0.8,0.5c-0.1,0.1-0.2,0.1-0.4,0.2c-0.2,0.1-0.5,0.3-0.8,0.4
	l-1.1,0.7l0,0c-0.3,0.2-0.6,0.4-0.8,0.6c-0.4,0.3-0.6,0.9-0.4,1.4c0.4,1.2,0.1,2.6-0.8,3.5c-1,1-2.4,1.3-3.7,0.8
	c-0.5-0.2-1.1,0-1.4,0.4c-0.1,0.1-0.2,0.3-0.4,0.4c-0.7,0.9-1.3,1.8-1.9,2.8c-0.3,0.5-0.2,1.1,0.2,1.5c1,1,1.3,2.5,0.7,3.8
	c-0.6,1.3-1.9,2.2-3.4,2.1c-0.6,0-1.1,0.3-1.2,0.9c-0.1,0.2-0.1,0.4-0.2,0.6l-0.3,1.3c-0.1,0.2-0.1,0.4-0.1,0.6l-0.1,0.7
	c-0.1,0.3-0.1,0.6-0.2,0.9c-0.1,0.6,0.3,1.2,0.8,1.4c1.4,0.5,2.4,1.8,2.4,3.3c0,1.6-1,2.9-2.5,3.3c-0.6,0.2-1,0.7-0.9,1.3
	c0,0.1,0,0.3,0.1,0.4l0.2,1.3l0.2,1.3c0,0.2,0.1,0.4,0.2,0.7c0.1,0.6,0.7,1,1.4,0.9c1.6-0.2,3.1,0.6,3.7,2.1
	c0.6,1.5,0.1,3.3-1.3,4.2c-0.5,0.3-0.7,1.1-0.4,1.6c0.7,1.2,1.4,2.4,2.2,3.5c0.4,0.5,1.2,0.7,1.7,0.3c1.4-1,3.2-0.8,4.4,0.4h0
	c1.2,1.2,1.4,3.2,0.3,4.6c-0.4,0.5-0.3,1.3,0.2,1.7c1.5,1.2,3,2.2,4.6,3.1c0.2,0.1,0.4,0.2,0.6,0.2c0.1,0,0.2,0,0.4-0.1
	c0.3-0.1,0.6-0.3,0.7-0.6l4-7.8c0.2-0.3,0.2-0.6,0.1-1c-0.1-0.3-0.3-0.6-0.6-0.7c-4.4-2.1-8.2-5.7-10.5-10c-0.1-0.1-0.1-0.2-0.2-0.3
	c-0.1-0.2-0.2-0.3-0.3-0.5l-0.4-0.9l-0.1-0.3c-0.2-0.5-0.4-1-0.6-1.5l-0.2-0.5c0-0.1-0.1-0.2-0.1-0.3c0-0.1,0-0.1-0.1-0.2l-0.2-0.5
	c0-0.1-0.1-0.3-0.1-0.4l-0.3-1l-0.2-0.9c-0.2-1.3-0.4-2.6-0.4-3.9c0-1.2,0-2.6,0.2-3.9l0.1-0.6c0-0.1,0-0.3,0.1-0.4l0.2-1l0.1-0.3
	c0.1-0.6,0.2-1.1,0.4-1.6l0.1-0.5l0.4-1.2l0.5-1.1l0.4-0.9c0.6-1.2,1.2-2.4,2-3.4c0.7-1.1,1.6-2.1,2.5-3.1c0.9-0.9,1.9-1.9,3-2.7
	l0.8-0.6c0.2-0.1,0.3-0.2,0.5-0.4c0.1-0.1,0.2-0.1,0.3-0.2c0.2-0.1,0.4-0.3,0.7-0.4l0.3-0.2c0.2-0.1,0.5-0.3,0.7-0.4l0,0
	c1.1-0.6,2.3-1.2,3.7-1.7c1.4-0.5,2.7-0.9,3.9-1.1c5.4-1,11.1-0.3,16.2,2c5.1,2.4,9.4,6.4,12.1,11.4c2.8,5.1,3.9,11,3.2,16.7
	c-0.2,1.4-0.5,2.8-0.9,4.3c-0.4,1.5-1,2.9-1.5,4.1c-0.7,1.4-1.4,2.7-2.2,3.8c-0.8,1.2-1.8,2.4-2.8,3.5l1.3,1.3
	c1.2-1.1,2.2-2.3,3.2-3.5c0.9-1.2,1.8-2.5,2.6-4c0.7-1.3,1.4-2.7,2-4.4c0.6-1.6,1-3.1,1.3-4.7C147.6,86.7,146.7,79.9,143.9,74z"/>
<path class="st6" d="M41.8,114.1c0,0,9.2-19.2,36.1-23.7l2.1,2.8l-3.4,1.3l-12,1.9l-8.4,4.3l-7.1,5.2L41.8,114.1z"/>
<path class="st6" d="M142.8,85.2c0,0,3.8,13.9-8,28.2l-2.3-0.5l1.1-2.2l5.3-6.3l2.4-5.9l1.3-5.8L142.8,85.2z"/>
</svg>
