<?xml version="1.0" encoding="utf-8"?>
<!-- Generator: Adobe Illustrator 25.4.1, SVG Export Plug-In . SVG Version: 6.00 Build 0)  -->
<svg version="1.1" xmlns="http://www.w3.org/2000/svg" xmlns:xlink="http://www.w3.org/1999/xlink" x="0px" y="0px"
	 viewBox="0 0 250 250" style="enable-background:new 0 0 250 250;" xml:space="preserve">
<style type="text/css">
	.st0{fill:#EE5A34;}
	.st1{fill:#EE5A36;}
	.st2{fill:none;stroke:#203232;stroke-width:4;stroke-miterlimit:10;}
	.st3{fill:none;stroke:#203232;stroke-width:6;stroke-miterlimit:10;}
	.st4{fill:#203232;}
</style>
<g id="Layer_1">
</g>
<g id="Layer_2">
	<path class="st0" d="M135.6,206.7h-13c-3.6,0-6.5,0.7-6.5-3.2v-20.7h25.9v16.7C142.1,203.5,139.2,206.7,135.6,206.7z"/>
	<path class="st1" d="M106.3,155.2c-9.7-11.8-27.8-33.6-28.7-51.7c-1.2-23.4,7.1-55.1,52.1-54.7s49.8,32.1,50.6,35.5
		c0.8,3.5,0.9,23.6-0.6,29.8s-15,26.9-16.9,29.1c-1.9,2.3-15.8,15.1-17.2,17.8s-4.1,6.7-4.3,7.8c-0.3,1.1-1.9,12.1-1.9,12.1
		l-23.5-0.8"/>
	<path class="st2" d="M133.8,205.1h-17.7c-4.9,0-8.8-3.2-8.8-7.2v-16.7h35.4v16.7C142.7,201.8,138.7,205.1,133.8,205.1z"/>
	<line class="st3" x1="101.1" y1="157.3" x2="148.9" y2="157.3"/>
	<g>
		<path class="st4" d="M125,37.9c1.2,11.9,1.9,23.9,2.4,35.8c0.4,11.9,0.6,23.9,0.6,35.8c0,11.9-0.2,23.9-0.6,35.8
			c-0.5,11.9-1.1,23.9-2.4,35.8c-1.2-11.9-1.9-23.9-2.4-35.8c-0.4-11.9-0.6-23.9-0.6-35.8c0-11.9,0.2-23.9,0.6-35.8
			C123.1,61.8,123.8,49.8,125,37.9z"/>
	</g>
	<g>
		<path class="st4" d="M131.2,37.9c10.2,4.9,18.9,13.3,24.5,23.5c2.8,5.1,4.8,10.7,6.1,16.3c1.3,5.7,1.9,11.5,1.9,17.3
			c0,1.5-0.1,3-0.2,4.4c0,0.7-0.2,1.5-0.2,2.2l-0.3,2.2l-0.2,1.1l-0.3,1.1l-0.5,2.2c-0.3,1.5-0.8,2.8-1.3,4.2
			c-1.9,5.6-4.6,10.7-7.5,15.6c-2.9,4.9-6.1,9.5-9,14.2c-2.9,4.7-5.6,9.6-7.4,14.9c0.5-5.6,2.5-11.1,4.8-16.3
			c2.3-5.2,5-10.2,7.5-15.1c2.4-5,4.7-10,6.2-15.1c1.5-5.1,2.4-10.4,2.4-15.7c-0.1-10.8-1.8-21.7-6.3-31.5
			C147.1,53.6,140,44.9,131.2,37.9z"/>
	</g>
	<g>
		<path class="st4" d="M110.4,181.1c-0.3-3.9-1.4-7.6-3-11.1c-1.6-3.5-3.8-6.6-6.1-9.7c-2.4-3-5-5.9-7.6-8.8
			c-2.6-2.9-5.3-5.8-7.9-8.8c-2.6-3-5.2-6.1-7.5-9.3c-2.3-3.3-4.5-6.7-6.4-10.3c-3.8-7.2-6-15.4-6.4-23.6c-0.1-4.1,0.1-8.2,0.7-12.2
			c0.7-4,1.8-7.9,3.3-11.7c3-7.5,7.4-14.4,12.9-20.1c5.5-5.8,12.1-10.5,19.4-13.8c7.3-3.3,15.2-5.2,23.3-5.5
			c8.1-0.3,16.3,1.1,23.9,4.2c7.6,3.1,14.5,7.9,20.2,13.8c5.7,5.9,10.2,13.1,13,20.9c2.8,7.8,3.9,16.2,3.3,24.5
			c-0.7,8.2-3,16.4-6.9,23.6c-1.9,3.6-4.1,7-6.5,10.3c-2.4,3.2-5,6.3-7.6,9.3c-5.2,5.9-10.8,11.5-15.6,17.5c-2.4,3-4.5,6.2-6.2,9.7
			c-1.6,3.5-2.7,7.2-3,11.1H139c-0.3-4,0.4-8,1.8-11.8c1.3-3.8,3.3-7.4,5.5-10.7c2.2-3.4,4.6-6.5,7.1-9.6l7.4-9.2
			c4.8-6.1,9.3-12.4,12.5-19.2c3.3-6.8,5.2-14,5.7-21.5c0-1.9,0.2-3.7,0.1-5.6c0-0.9-0.1-1.9-0.1-2.8c0-0.9-0.2-1.8-0.3-2.8
			c-0.5-3.7-1.3-7.3-2.5-10.8c-2.4-7-6.2-13.6-11.2-19.1c-10-11.1-24.6-18.1-39.9-18.6c-7.6-0.3-15.4,1.1-22.5,4.1
			c-7.1,3-13.6,7.6-18.8,13.3c-2.6,2.9-4.9,6-6.7,9.4c-1.9,3.4-3.4,6.9-4.5,10.6c-2.2,7.3-2.9,15-2.1,22.5
			c0.7,7.5,2.8,14.8,6.2,21.5c1.7,3.4,3.6,6.6,5.8,9.8c2.2,3.2,4.5,6.2,6.9,9.3l7.4,9.1c2.5,3.1,4.9,6.2,7.1,9.6
			c2.2,3.3,4.1,6.9,5.5,10.7c1.3,3.8,2,7.9,1.7,11.9H110.4z"/>
	</g>
	<g>
		<path class="st4" d="M118.8,37.9c-8.8,7-15.9,15.7-20.3,25.6c-4.5,9.9-6.2,20.7-6.3,31.5c0,5.3,0.8,10.6,2.4,15.7
			c1.5,5.1,3.8,10.1,6.2,15.1c2.4,5,5.1,9.9,7.5,15.1c2.3,5.2,4.3,10.7,4.8,16.3c-1.9-5.3-4.5-10.2-7.4-14.9
			c-2.9-4.7-6.1-9.4-9-14.2c-2.9-4.9-5.6-10-7.5-15.6c-0.4-1.4-1-2.8-1.3-4.2l-0.5-2.2l-0.3-1.1l-0.2-1.1l-0.3-2.2
			c-0.1-0.7-0.2-1.5-0.2-2.2c-0.1-1.5-0.2-3-0.2-4.4c0.1-5.8,0.6-11.6,1.9-17.3c1.3-5.7,3.3-11.2,6.1-16.3
			C99.9,51.2,108.6,42.8,118.8,37.9z"/>
	</g>
</g>
<g id="Layer_3">
</g>
</svg>
