<?xml version="1.0" encoding="utf-8"?>
<!-- Generator: Adobe Illustrator 25.4.1, SVG Export Plug-In . SVG Version: 6.00 Build 0)  -->
<svg version="1.1" id="Layer_1" xmlns="http://www.w3.org/2000/svg" xmlns:xlink="http://www.w3.org/1999/xlink" x="0px" y="0px"
	 viewBox="0 0 250 250" style="enable-background:new 0 0 250 250;" xml:space="preserve">
<style type="text/css">
	.st0{fill:#EB5B36;}
	.st1{fill:#203331;}
</style>
<g>
	<path class="st0" d="M120.6,40.8c0,0,112.7,94.4,0,149.8l0,0"/>
	<path class="st0" d="M120.6,40.8c0,0-112.7,94.4,0,149.8l0,0"/>
	<g>
		<path class="st1" d="M150.6,116.8c-0.9,3-2.3,5.9-4,8.6c-1.7,2.7-3.8,5.3-6.2,7.6c-2.4,2.3-5.2,4.4-8.2,6.1
			c-1.5,0.9-3.1,1.6-4.7,2.3c-0.8,0.4-1.6,0.6-2.5,0.9l-2.5,0.9l-1.6-13.1l2,0.1c0.7,0,1.3,0.1,2,0c1.3-0.1,2.7-0.1,4-0.4
			c2.7-0.4,5.4-1.2,8-2.3c2.6-1.1,5.2-2.6,7.5-4.4C146.5,121.4,148.7,119.3,150.6,116.8z"/>
	</g>
	<g>
		<path class="st1" d="M150.6,141.9c-0.9,3-2.3,5.9-4,8.6c-1.7,2.7-3.8,5.3-6.2,7.6c-2.4,2.3-5.2,4.4-8.2,6.1
			c-1.5,0.9-3.1,1.6-4.7,2.3c-0.8,0.4-1.6,0.6-2.5,0.9l-2.5,0.9l-1.6-13.1l2,0.1c0.7,0,1.3,0.1,2,0c1.3-0.1,2.7-0.1,4-0.4
			c2.7-0.4,5.4-1.2,8-2.3c2.6-1.1,5.2-2.6,7.5-4.4C146.5,146.5,148.7,144.4,150.6,141.9z"/>
	</g>
	<g>
		<path class="st1" d="M98,192.1c-6.9-3.5-13.5-7.7-19.3-13c-5.8-5.2-10.8-11.6-14-18.8C61.4,153,60,145,60.2,137
			c0.2-8,1.8-15.8,4.3-23.3c2.5-7.5,5.8-14.6,9.6-21.5c3.8-6.9,8.1-13.4,12.7-19.7c4.6-6.3,9.5-12.4,14.7-18.2
			c2.6-2.9,5.2-5.8,7.9-8.6c2.7-2.8,5.4-5.5,8.4-8.3l2.9-2.7l3,2.8c12.9,11.9,25.1,24.7,35.4,39.2c2.6,3.6,5,7.4,7.3,11.2l1.7,2.9
			l0.8,1.5l0.8,1.5l1.6,3l1.4,3.1c3.8,8.2,6.7,17.1,8.1,26.4c1.3,9.3,1,19-1.5,28.3c-2.4,9.3-6.9,17.9-12.5,25.4
			c-2.9,3.7-5.9,7.2-9.3,10.5c-3.4,3.2-6.9,6.2-10.6,8.9c-3.7,2.7-7.5,5.2-11.5,7.5c-2,1.1-4,2.2-6,3.2c-1,0.5-2.1,1-3.1,1.5
			l-1.6,0.7c-0.6,0.2-1,0.4-1.7,0.7l-8.6,3.4l0.2-9c0.2-9.4,0.6-18.8,1-28.2c0.2-4.7,0.4-9.4,0.6-14.1c0.2-4.7,0.4-9.4,0.7-14.1
			l0.8-14.1l0.7-14.1c0.5-9.4,1-18.8,1.6-28.2h1.3c0.6,9.4,1.1,18.8,1.6,28.2l0.7,14.1l0.8,14.1c0.3,4.7,0.5,9.4,0.7,14.1
			c0.2,4.7,0.5,9.4,0.6,14.1c0.3,9.4,0.7,18.8,1,28.2l-8.4-5.6l1.2-0.6l1.3-0.7c0.9-0.5,1.8-0.9,2.7-1.4c1.8-1,3.5-2,5.3-3.1
			c3.5-2.2,6.8-4.6,10-7.1c3.2-2.5,6.2-5.2,9.1-8.1c2.9-2.8,5.5-5.8,7.9-9c2.4-3.2,4.5-6.5,6.3-9.9c1.8-3.5,3.3-7.1,4.4-10.8
			c2.2-7.4,2.9-15.3,2.2-23.2c-0.8-7.9-3-15.8-6.2-23.4l-1.2-2.8l-1.3-2.8l-0.7-1.4l-0.7-1.4l-1.5-2.8c-2-3.6-4.2-7.2-6.5-10.7
			c-9.4-14-20.8-26.7-33-38.7l5.9,0.1c-2.8,2.4-5.6,5-8.3,7.6c-2.7,2.6-5.4,5.3-8,8.1c-5.2,5.5-10.2,11.2-14.9,17.1
			c-4.7,5.9-9.1,12.1-13,18.5c-3.9,6.4-7.4,13.1-10,20.1c-2.7,7-4.5,14.3-5,21.7c-0.5,7.4,0.6,14.9,3.3,21.8
			c2.7,6.9,7.2,13.1,12.5,18.4c5.4,5.3,11.6,9.8,18.2,13.6L98,192.1z"/>
	</g>
</g>
</svg>
