<?xml version="1.0" encoding="utf-8"?>
<!-- Generator: Adobe Illustrator 25.4.1, SVG Export Plug-In . SVG Version: 6.00 Build 0)  -->
<svg version="1.1" id="Layer_1" xmlns="http://www.w3.org/2000/svg" xmlns:xlink="http://www.w3.org/1999/xlink" x="0px" y="0px"
	 viewBox="0 0 250 250" style="enable-background:new 0 0 250 250;" xml:space="preserve">
<style type="text/css">
	.st0{fill:#ED5A36;}
	.st1{fill:#203232;}
</style>
<path class="st0" d="M188.7,72.6v3.6c1.1,113.1-61.7,131.4-64.4,132.1l-1.2,0.3l-1.6-0.7c-5.4-3.1-37.8-9.6-56.5-86.5
	C104.6,84.4,188.7,72.6,188.7,72.6z"/>
<path class="st1" d="M123.2,209.4l-1.7-0.7c-5.4-1.5-67.9-21.7-67.9-136.7v-3.7h3.7c32.7,0,62.7-25.2,63-25.5l2.4-2.1l2.4,2.1
	c0.3,0.3,29.8,25.6,62.4,25.1h3.7v3.7c1.1,117.7-64.2,136.7-67,137.4L123.2,209.4z M67.7,78.9C69,184.9,120.2,207,123.6,208
	c8.1-3,53.5-29.1,53.8-129.4c-28.7-1.2-46.9-28.7-54.6-34.8C115,49.8,96.4,77.4,67.7,78.9z"/>
<path class="st1" d="M120.1,168.3c-3.8-13.9-10.7-26.7-20.2-37.5l-8.7,8.5L120.1,168.3l44.5-76.9l-9.8-5.7
	C136,113.2,120.1,168.3,120.1,168.3z"/>
</svg>
