<?xml version="1.0" encoding="utf-8"?>
<!-- Generator: Adobe Illustrator 25.0.1, SVG Export Plug-In . SVG Version: 6.00 Build 0)  -->
<svg version="1.1" id="Layer_1" xmlns="http://www.w3.org/2000/svg" xmlns:xlink="http://www.w3.org/1999/xlink" x="0px" y="0px"
	 viewBox="0 0 1000 220.9" style="enable-background:new 0 0 1000 220.9;" xml:space="preserve">
<style type="text/css">
	.st0{fill:#8F9898;stroke:#FFFFFF;stroke-width:2.1072;stroke-miterlimit:10;}
	.st1{fill:#7E4696;stroke:#FFFFFF;stroke-width:2.1072;stroke-miterlimit:10;}
	.st2{fill:#FFFFFF;}
	.st3{fill:#231F20;}
	.st4{fill:#7D4596;}
	.st5{fill:#7E4696;}
	.st6{fill:#8F9898;}
</style>
<g>
	<g>
		<g>
			<g>
				<path class="st0" d="M149.4,144.4c-8.4,10.3-17.1,17.3-28.9,23c-42.1,20.3-92.2,1.5-111.9-42.1C3.2,113,0.8,101.9,0.8,88.4
					C0.8,40.3,38.5,1.3,85,1.3v87.1L149.4,144.4z"/>
			</g>
		</g>
	</g>
	<g>
		<g>
			<path class="st1" d="M85,88.4l64.5,56c29.9-36.9,25.2-91.8-10.4-122.7C123.4,8.1,105.4,1.3,85,1.3V88.4z"/>
		</g>
	</g>
	<ellipse class="st2" cx="85" cy="88.4" rx="47.5" ry="49.2"/>
</g>
<g>
	<path class="st3" d="M202.4,44.1v8.6h-2.7V31.3h8.1c4.8,0,7.6,2.4,7.6,6.4c0,4-2.7,6.4-7.6,6.4H202.4z M202.4,33.8v7.8h5.4
		c3.2,0,4.8-1.3,4.8-3.9c0-2.6-1.7-3.9-4.8-3.9H202.4z"/>
	<path class="st3" d="M233.4,45.4c0,4.3-3.3,7.6-7.7,7.6s-7.7-3.3-7.7-7.6s3.3-7.6,7.7-7.6S233.4,41.1,233.4,45.4z M220.6,45.4
		c0,3,2.2,5.2,5.1,5.2c2.9,0,5.1-2.2,5.1-5.2s-2.2-5.2-5.1-5.2C222.8,40.2,220.6,42.4,220.6,45.4z"/>
	<path class="st3" d="M250.7,46.6c0,4.4-3.2,6.4-6.6,6.4c-3.5,0-6.6-2-6.6-6.4v-8.5h2.5v8.2c0,3,1.8,4.3,4.1,4.3
		c2.4,0,4.1-1.3,4.1-4.3v-8.2h2.5V46.6z"/>
	<path class="st3" d="M265.3,38.3l-0.6,2.5c-0.7-0.4-1.7-0.6-2.5-0.6c-2.2,0-3.8,1.7-3.8,4.4v8.1h-2.5V38.2h2.5v1.9
		c1-1.4,2.5-2.2,4.3-2.2C263.7,37.9,264.5,38,265.3,38.3z"/>
	<path class="st3" d="M279.1,52.7h-2.5V30.7h2.5V52.7z"/>
	<path class="st3" d="M297.4,45.4c0,0.3,0,0.7,0,0.9h-11.4c0.4,3,2.5,4.5,4.9,4.5c1.7,0,3.2-0.7,4.5-1.7l1.3,1.7
		c-1.8,1.7-3.8,2.2-6,2.2c-4.3,0-7.4-3-7.4-7.6c0-4.5,3-7.6,7.2-7.6C294.5,37.9,297.3,40.9,297.4,45.4z M285.9,44.3h8.9
		c-0.3-2.6-2-4.2-4.3-4.2C287.9,40.1,286.3,41.8,285.9,44.3z"/>
	<path class="st3" d="M311.4,41.4c-0.9-0.6-2.8-1.3-4.7-1.3c-2,0-3.3,0.8-3.3,2.2c0,1.2,1.1,1.7,2.8,1.9l1.7,0.2
		c3.1,0.4,4.9,1.7,4.9,4.1c0,2.8-2.5,4.6-6.4,4.6c-1.8,0-4.2-0.4-6.1-1.9l1.2-1.9c1.1,0.8,2.5,1.5,5,1.5c2.4,0,3.9-0.8,3.9-2.2
		c0-1.1-0.9-1.7-2.9-2l-1.7-0.2c-3.3-0.4-4.8-1.9-4.8-4.1c0-2.8,2.3-4.5,5.9-4.5c2.3,0,4.4,0.6,5.8,1.6L311.4,41.4z"/>
	<path class="st3" d="M344.1,35.4l-2.3,1.5c-1.4-2.1-3.8-3.4-6.5-3.4c-4.7,0-8.3,3.4-8.3,8.5c0,5,3.6,8.5,8.3,8.5
		c2.8,0,5.1-1.3,6.5-3.4l2.2,1.6c-1.8,2.7-5,4.3-8.7,4.3c-6.4,0-11.1-4.6-11.1-11c0-6.4,4.7-11,11.1-11
		C339,31,342.4,32.6,344.1,35.4z"/>
	<path class="st3" d="M362,52.7h-2.5v-1.9c-1.1,1.4-2.8,2.3-5.1,2.3c-4.1,0-7.3-3.2-7.3-7.6c0-4.4,3.2-7.6,7.3-7.6
		c2.3,0,4,0.9,5.1,2.3v-2h2.5V52.7z M349.6,45.4c0,2.9,2,5.2,5,5.2c2.9,0,5-2.3,5-5.2c0-3-2.1-5.2-5-5.2
		C351.6,40.2,349.6,42.5,349.6,45.4z"/>
	<path class="st3" d="M380.6,43.7v9h-2.5v-8.2c0-2.7-1.5-4.3-4-4.3c-2.3,0-4.3,1.6-4.3,4.3v8.2h-2.5V38.2h2.5v1.9
		c1.2-1.6,3.1-2.2,4.8-2.2C378.1,37.9,380.6,40.2,380.6,43.7z"/>
	<path class="st3" d="M399.5,52.7H397v-1.9c-1.1,1.4-2.8,2.3-5.1,2.3c-4.1,0-7.3-3.2-7.3-7.6c0-4.4,3.2-7.6,7.3-7.6
		c2.3,0,4,0.9,5.1,2.3v-2h2.5V52.7z M387.2,45.4c0,2.9,2,5.2,5,5.2c2.9,0,5-2.3,5-5.2c0-3-2.1-5.2-5-5.2
		C389.2,40.2,387.2,42.5,387.2,45.4z"/>
	<path class="st3" d="M416.2,40.1v-9.5h2.5v22.1h-2.5v-1.9c-1.1,1.4-2.8,2.3-5.1,2.3c-4.1,0-7.3-3.2-7.3-7.6c0-4.4,3.2-7.6,7.3-7.6
		C413.3,37.9,415,38.8,416.2,40.1z M406.3,45.4c0,2.9,2,5.2,5,5.2c2.9,0,5-2.3,5-5.2c0-3-2.1-5.2-5-5.2
		C408.3,40.2,406.3,42.5,406.3,45.4z"/>
	<path class="st3" d="M427,33.1c0,1-0.8,1.7-1.8,1.7s-1.8-0.8-1.8-1.7c0-1,0.8-1.8,1.8-1.8S427,32,427,33.1z M426.5,52.7H424V38.2
		h2.5V52.7z"/>
	<path class="st3" d="M444.7,45.4c0,0.3,0,0.7,0,0.9h-11.4c0.4,3,2.5,4.5,4.9,4.5c1.7,0,3.2-0.7,4.5-1.7l1.3,1.7
		c-1.8,1.7-3.8,2.2-6,2.2c-4.3,0-7.4-3-7.4-7.6c0-4.5,3-7.6,7.2-7.6C441.9,37.9,444.7,40.9,444.7,45.4z M433.3,44.3h8.9
		c-0.3-2.6-2-4.2-4.3-4.2C435.3,40.1,433.7,41.8,433.3,44.3z"/>
	<path class="st3" d="M462.2,43.7v9h-2.5v-8.2c0-2.7-1.5-4.3-4-4.3c-2.3,0-4.3,1.6-4.3,4.3v8.2h-2.5V38.2h2.5v1.9
		c1.2-1.6,3.1-2.2,4.8-2.2C459.8,37.9,462.2,40.2,462.2,43.7z"/>
	<path class="st3" d="M477.2,41.4c-0.9-0.6-2.8-1.3-4.7-1.3c-2,0-3.3,0.8-3.3,2.2c0,1.2,1.1,1.7,2.8,1.9l1.7,0.2
		c3.1,0.4,4.9,1.7,4.9,4.1c0,2.8-2.5,4.6-6.4,4.6c-1.8,0-4.2-0.4-6.1-1.9l1.2-1.9c1.1,0.8,2.5,1.5,5,1.5c2.4,0,3.9-0.8,3.9-2.2
		c0-1.1-1-1.7-2.9-2l-1.7-0.2c-3.3-0.4-4.8-1.9-4.8-4.1c0-2.8,2.3-4.5,5.9-4.5c2.3,0,4.4,0.6,5.8,1.6L477.2,41.4z"/>
	<path class="st3" d="M485.6,48.8l-1.7,7.9h-2.2l0.9-7.9H485.6z"/>
	<path class="st3" d="M500.9,52.7h-2.5V30.7h2.5V52.7z"/>
	<path class="st3" d="M520,52.7h-2.5v-1.9c-1.1,1.4-2.8,2.3-5.1,2.3c-4.1,0-7.3-3.2-7.3-7.6c0-4.4,3.2-7.6,7.3-7.6
		c2.3,0,4,0.9,5.1,2.3v-2h2.5V52.7z M507.7,45.4c0,2.9,2,5.2,5,5.2c2.9,0,5-2.3,5-5.2c0-3-2.1-5.2-5-5.2
		C509.7,40.2,507.7,42.5,507.7,45.4z"/>
	<path class="st3" d="M542.9,38.3l-0.6,2.5c-0.7-0.4-1.7-0.6-2.5-0.6c-2.2,0-3.8,1.7-3.8,4.4v8.1h-2.5V38.2h2.5v1.9
		c1-1.4,2.5-2.2,4.3-2.2C541.3,37.9,542.1,38,542.9,38.3z"/>
	<path class="st3" d="M558.7,45.4c0,0.3,0,0.7,0,0.9h-11.4c0.4,3,2.5,4.5,4.9,4.5c1.7,0,3.2-0.7,4.5-1.7l1.3,1.7
		c-1.8,1.7-3.8,2.2-6,2.2c-4.3,0-7.4-3-7.4-7.6c0-4.5,3-7.6,7.2-7.6C555.9,37.9,558.7,40.9,558.7,45.4z M547.3,44.3h8.9
		c-0.3-2.6-2-4.2-4.3-4.2C549.3,40.1,547.7,41.8,547.3,44.3z M549.8,35.9l3.1-4.6h3.2l-3.8,4.6H549.8z"/>
	<path class="st3" d="M572.7,41.4c-0.9-0.6-2.8-1.3-4.7-1.3c-2,0-3.3,0.8-3.3,2.2c0,1.2,1.1,1.7,2.8,1.9l1.7,0.2
		c3.1,0.4,4.9,1.7,4.9,4.1c0,2.8-2.5,4.6-6.4,4.6c-1.8,0-4.2-0.4-6.1-1.9l1.2-1.9c1.1,0.8,2.5,1.5,5,1.5c2.4,0,3.9-0.8,3.9-2.2
		c0-1.1-1-1.7-2.9-2l-1.7-0.2c-3.3-0.4-4.8-1.9-4.8-4.1c0-2.8,2.3-4.5,5.9-4.5c2.3,0,4.4,0.6,5.8,1.6L572.7,41.4z"/>
	<path class="st3" d="M581.2,33.1c0,1-0.8,1.7-1.8,1.7s-1.8-0.8-1.8-1.7c0-1,0.8-1.8,1.8-1.8S581.2,32,581.2,33.1z M580.7,52.7h-2.5
		V38.2h2.5V52.7z"/>
	<path class="st3" d="M597.3,40.1v-9.5h2.5v22.1h-2.5v-1.9c-1.1,1.4-2.8,2.3-5.1,2.3c-4.1,0-7.3-3.2-7.3-7.6c0-4.4,3.2-7.6,7.3-7.6
		C594.4,37.9,596.1,38.8,597.3,40.1z M587.4,45.4c0,2.9,2,5.2,5,5.2c2.9,0,5-2.3,5-5.2c0-3-2.1-5.2-5-5.2
		C589.4,40.2,587.4,42.5,587.4,45.4z"/>
	<path class="st3" d="M618,45.4c0,0.3,0,0.7,0,0.9h-11.4c0.4,3,2.5,4.5,4.9,4.5c1.7,0,3.2-0.7,4.5-1.7l1.3,1.7
		c-1.8,1.7-3.8,2.2-6,2.2c-4.3,0-7.4-3-7.4-7.6c0-4.5,3-7.6,7.2-7.6C615.2,37.9,618,40.9,618,45.4z M606.6,44.3h8.9
		c-0.3-2.6-2-4.2-4.3-4.2C608.6,40.1,607,41.8,606.6,44.3z"/>
	<path class="st3" d="M635.6,43.7v9H633v-8.2c0-2.7-1.5-4.3-4-4.3c-2.3,0-4.3,1.6-4.3,4.3v8.2h-2.5V38.2h2.5v1.9
		c1.2-1.6,3.1-2.2,4.8-2.2C633.1,37.9,635.6,40.2,635.6,43.7z"/>
	<path class="st3" d="M652.6,40.2l-1.6,1.7c-1.1-1-2.3-1.6-3.9-1.6c-2.8,0-4.9,2.2-4.9,5.2s2.1,5.2,4.9,5.2c1.5,0,2.9-0.7,3.9-1.7
		l1.5,1.7c-1.3,1.5-3.2,2.3-5.4,2.3c-4.5,0-7.6-3.3-7.6-7.6s3-7.6,7.6-7.6C649.3,37.9,651.3,38.7,652.6,40.2z"/>
	<path class="st3" d="M669.1,45.4c0,0.3,0,0.7,0,0.9h-11.4c0.4,3,2.5,4.5,4.9,4.5c1.7,0,3.2-0.7,4.5-1.7l1.3,1.7
		c-1.8,1.7-3.8,2.2-6,2.2c-4.3,0-7.4-3-7.4-7.6c0-4.5,3-7.6,7.2-7.6C666.2,37.9,669.1,40.9,669.1,45.4z M657.7,44.3h8.9
		c-0.3-2.6-2-4.2-4.3-4.2C659.7,40.1,658,41.8,657.7,44.3z"/>
	<path class="st3" d="M696.4,45.4c0,4.4-3.2,7.6-7.3,7.6c-2.3,0-4-0.9-5.1-2.3v8.1h-2.5V38.2h2.5v1.9c1.1-1.4,2.8-2.3,5.1-2.3
		C693.2,37.9,696.4,41,696.4,45.4z M683.9,45.4c0,3,2.1,5.2,5,5.2c3,0,5-2.3,5-5.2s-2-5.2-5-5.2C685.9,40.2,683.9,42.5,683.9,45.4z"
		/>
	<path class="st3" d="M710,38.3l-0.6,2.5c-0.7-0.4-1.7-0.6-2.5-0.6c-2.2,0-3.8,1.7-3.8,4.4v8.1h-2.5V38.2h2.5v1.9
		c1-1.4,2.5-2.2,4.3-2.2C708.4,37.9,709.2,38,710,38.3z"/>
	<path class="st3" d="M716.5,33.1c0,1-0.8,1.7-1.8,1.7s-1.8-0.8-1.8-1.7c0-1,0.8-1.8,1.8-1.8S716.5,32,716.5,33.1z M715.9,52.7h-2.5
		V38.2h2.5V52.7z"/>
	<path class="st3" d="M734.6,43.7v9H732v-8.2c0-2.7-1.5-4.3-4-4.3c-2.3,0-4.3,1.6-4.3,4.3v8.2h-2.5V38.2h2.5v1.9
		c1.2-1.6,3.1-2.2,4.8-2.2C732.1,37.9,734.6,40.2,734.6,43.7z"/>
	<path class="st3" d="M751.6,40.2l-1.6,1.7c-1.1-1-2.3-1.6-3.9-1.6c-2.8,0-4.9,2.2-4.9,5.2s2.1,5.2,4.9,5.2c1.5,0,2.9-0.7,3.9-1.7
		l1.5,1.7c-1.3,1.5-3.2,2.3-5.4,2.3c-4.5,0-7.6-3.3-7.6-7.6s3-7.6,7.6-7.6C748.3,37.9,750.3,38.7,751.6,40.2z"/>
	<path class="st3" d="M758.4,33.1c0,1-0.8,1.7-1.8,1.7s-1.8-0.8-1.8-1.7c0-1,0.8-1.8,1.8-1.8S758.4,32,758.4,33.1z M757.9,52.7h-2.5
		V38.2h2.5V52.7z"/>
	<path class="st3" d="M778.1,45.4c0,4.4-3.2,7.6-7.3,7.6c-2.3,0-4-0.9-5.1-2.3v8.1h-2.5V38.2h2.5v1.9c1.1-1.4,2.8-2.3,5.1-2.3
		C774.9,37.9,778.1,41,778.1,45.4z M765.5,45.4c0,3,2.1,5.2,5,5.2c3,0,5-2.3,5-5.2s-2-5.2-5-5.2C767.6,40.2,765.5,42.5,765.5,45.4z"
		/>
	<path class="st3" d="M796.1,52.7h-2.5v-1.9c-1.1,1.4-2.8,2.3-5.1,2.3c-4.1,0-7.3-3.2-7.3-7.6c0-4.4,3.2-7.6,7.3-7.6
		c2.3,0,4,0.9,5.1,2.3v-2h2.5V52.7z M783.8,45.4c0,2.9,2,5.2,5,5.2c2.9,0,5-2.3,5-5.2c0-3-2.1-5.2-5-5.2
		C785.7,40.2,783.8,42.5,783.8,45.4z"/>
	<path class="st3" d="M803.9,52.7h-2.5V30.7h2.5V52.7z"/>
	<path class="st3" d="M822.2,45.4c0,0.3,0,0.7,0,0.9h-11.4c0.4,3,2.5,4.5,4.9,4.5c1.7,0,3.2-0.7,4.5-1.7l1.3,1.7
		c-1.8,1.7-3.8,2.2-6,2.2c-4.3,0-7.4-3-7.4-7.6c0-4.5,3-7.6,7.2-7.6C819.3,37.9,822.2,40.9,822.2,45.4z M810.7,44.3h8.9
		c-0.3-2.6-2-4.2-4.3-4.2C812.7,40.1,811.1,41.8,810.7,44.3z"/>
	<path class="st3" d="M846.4,40.2l-1.6,1.7c-1.1-1-2.3-1.6-3.9-1.6c-2.8,0-4.9,2.2-4.9,5.2s2.1,5.2,4.9,5.2c1.5,0,2.9-0.7,3.9-1.7
		l1.5,1.7c-1.3,1.5-3.2,2.3-5.4,2.3c-4.5,0-7.6-3.3-7.6-7.6s3-7.6,7.6-7.6C843.2,37.9,845.1,38.7,846.4,40.2z"/>
	<path class="st3" d="M864.3,45.4c0,4.3-3.3,7.6-7.7,7.6s-7.7-3.3-7.7-7.6s3.3-7.6,7.7-7.6S864.3,41.1,864.3,45.4z M851.5,45.4
		c0,3,2.2,5.2,5.1,5.2c2.9,0,5.1-2.2,5.1-5.2s-2.2-5.2-5.1-5.2C853.7,40.2,851.5,42.4,851.5,45.4z"/>
	<path class="st3" d="M881.8,43.7v9h-2.5v-8.2c0-2.7-1.5-4.3-4-4.3c-2.3,0-4.3,1.6-4.3,4.3v8.2h-2.5V38.2h2.5v1.9
		c1.2-1.6,3.1-2.2,4.8-2.2C879.3,37.9,881.8,40.2,881.8,43.7z"/>
	<path class="st3" d="M896.8,41.4c-0.9-0.6-2.8-1.3-4.7-1.3c-2,0-3.3,0.8-3.3,2.2c0,1.2,1.1,1.7,2.8,1.9l1.7,0.2
		c3.1,0.4,4.9,1.7,4.9,4.1c0,2.8-2.5,4.6-6.4,4.6c-1.8,0-4.2-0.4-6.1-1.9l1.2-1.9c1.1,0.8,2.5,1.5,5,1.5c2.4,0,3.9-0.8,3.9-2.2
		c0-1.1-1-1.7-2.9-2l-1.7-0.2c-3.3-0.4-4.8-1.9-4.8-4.1c0-2.8,2.3-4.5,5.9-4.5c2.3,0,4.4,0.6,5.8,1.6L896.8,41.4z"/>
	<path class="st3" d="M912.1,40.5H906v7.1c0,2.2,1.2,3.1,2.7,3.1c1.1,0,2.1-0.4,3-1l1.2,1.9c-1.1,0.8-2.6,1.4-4.4,1.4
		c-3.2,0-5-1.7-5-5.4v-7.1h-3.1v-2.3h3.1v-4.6h2.5v4.6h6.1V40.5z"/>
	<path class="st3" d="M919.1,33.1c0,1-0.8,1.7-1.8,1.7s-1.8-0.8-1.8-1.7c0-1,0.8-1.8,1.8-1.8S919.1,32,919.1,33.1z M918.6,52.7h-2.5
		V38.2h2.5V52.7z"/>
	<path class="st3" d="M933.8,40.5h-6.1v7.1c0,2.2,1.2,3.1,2.7,3.1c1.1,0,2.1-0.4,3-1l1.2,1.9c-1.1,0.8-2.6,1.4-4.4,1.4
		c-3.2,0-5-1.7-5-5.4v-7.1H922v-2.3h3.1v-4.6h2.5v4.6h6.1V40.5z"/>
	<path class="st3" d="M950.9,46.6c0,4.4-3.2,6.4-6.6,6.4c-3.5,0-6.6-2-6.6-6.4v-8.5h2.5v8.2c0,3,1.8,4.3,4.1,4.3
		c2.4,0,4.1-1.3,4.1-4.3v-8.2h2.5V46.6z"/>
	<path class="st3" d="M969,45.4c0,0.3,0,0.7,0,0.9h-11.4c0.4,3,2.5,4.5,4.9,4.5c1.7,0,3.2-0.7,4.5-1.7l1.3,1.7
		c-1.8,1.7-3.8,2.2-6,2.2c-4.3,0-7.4-3-7.4-7.6c0-4.5,3-7.6,7.2-7.6C966.2,37.9,969,40.9,969,45.4z M957.6,44.3h8.9
		c-0.3-2.6-2-4.2-4.3-4.2C959.6,40.1,958,41.8,957.6,44.3z"/>
	<path class="st3" d="M201.8,98.7h-2.5V76.6h2.5V98.7z"/>
	<path class="st3" d="M210.1,76.6l-1.7,7.9h-2.2l0.9-7.9H210.1z"/>
	<path class="st3" d="M226.8,98.7h-2.5v-1.9c-1.1,1.4-2.8,2.3-5.1,2.3c-4.1,0-7.3-3.2-7.3-7.6s3.2-7.6,7.3-7.6c2.3,0,4,0.9,5.1,2.3
		v-2h2.5V98.7z M214.4,91.4c0,2.9,2,5.2,5,5.2c2.9,0,5-2.3,5-5.2c0-3-2.1-5.2-5-5.2C216.4,86.2,214.4,88.5,214.4,91.4z"/>
	<path class="st3" d="M243.9,86.1l-1.6,1.7c-1.1-1-2.3-1.6-3.9-1.6c-2.8,0-4.9,2.2-4.9,5.2c0,3,2.1,5.2,4.9,5.2
		c1.5,0,2.9-0.7,3.9-1.7l1.5,1.7c-1.3,1.5-3.2,2.3-5.4,2.3c-4.5,0-7.6-3.3-7.6-7.6s3-7.6,7.6-7.6C240.7,83.8,242.6,84.6,243.9,86.1z
		"/>
	<path class="st3" d="M257.8,86.4h-6.1v7.1c0,2.2,1.2,3.1,2.7,3.1c1.1,0,2.1-0.4,3-1l1.2,1.9c-1.1,0.8-2.6,1.4-4.4,1.4
		c-3.2,0-5-1.7-5-5.4v-7.1h-3.1v-2.3h3.1v-4.6h2.5v4.6h6.1V86.4z"/>
	<path class="st3" d="M264.9,79c0,1-0.8,1.7-1.8,1.7c-1,0-1.8-0.8-1.8-1.7c0-1,0.8-1.8,1.8-1.8C264.1,77.2,264.9,78,264.9,79z
		 M264.3,98.7h-2.5V84.1h2.5V98.7z"/>
	<path class="st3" d="M279.1,86.4h-5.6v12.3H271V86.4h-3.2v-2.3h3.2v-2.5c0-3,1.4-5.3,4.8-5.3c1.7,0,3,0.5,4,1.1l-0.9,2.1
		c-0.8-0.5-1.9-0.8-2.9-0.8c-1.7,0-2.5,1.1-2.5,3v2.5h5.6V86.4z"/>
	<path class="st3" d="M293.3,98.7h-2.5V76.6h2.5V98.7z"/>
	<path class="st3" d="M311.6,91.4c0,0.3,0,0.7,0,0.9h-11.4c0.4,3,2.5,4.5,4.9,4.5c1.7,0,3.2-0.7,4.5-1.7l1.3,1.7
		c-1.8,1.7-3.8,2.2-6,2.2c-4.3,0-7.4-3-7.4-7.6c0-4.5,3-7.6,7.2-7.6C308.7,83.8,311.6,86.9,311.6,91.4z M300.1,90.3h8.9
		c-0.3-2.6-2-4.2-4.3-4.2C302.1,86,300.5,87.8,300.1,90.3z"/>
	<path class="st3" d="M338.9,91.4c0,4.4-3.2,7.6-7.3,7.6c-2.3,0-4-0.9-5.1-2.3v8.1H324V84.1h2.5v1.9c1.1-1.4,2.8-2.3,5.1-2.3
		C335.7,83.8,338.9,87,338.9,91.4z M326.3,91.4c0,3,2.1,5.2,5,5.2c3,0,5-2.3,5-5.2s-2-5.2-5-5.2C328.4,86.2,326.3,88.4,326.3,91.4z"
		/>
	<path class="st3" d="M345.6,98.7h-2.5V76.6h2.5V98.7z"/>
	<path class="st3" d="M364,92.6c0,4.4-3.2,6.4-6.6,6.4c-3.5,0-6.6-2-6.6-6.4v-8.5h2.5v8.2c0,3,1.8,4.3,4.1,4.3
		c2.4,0,4.1-1.3,4.1-4.3v-8.2h2.5V92.6z"/>
	<path class="st3" d="M379,87.4c-0.9-0.6-2.8-1.3-4.7-1.3c-2,0-3.3,0.8-3.3,2.2c0,1.2,1.1,1.7,2.8,1.9l1.7,0.2
		c3.1,0.4,4.9,1.7,4.9,4.1c0,2.8-2.5,4.6-6.4,4.6c-1.8,0-4.2-0.4-6.1-1.9l1.2-1.9c1.1,0.8,2.5,1.5,5,1.5c2.4,0,3.9-0.8,3.9-2.2
		c0-1.1-0.9-1.7-2.9-2l-1.7-0.2c-3.3-0.4-4.8-1.9-4.8-4.1c0-2.8,2.3-4.5,5.9-4.5c2.3,0,4.4,0.6,5.8,1.6L379,87.4z"/>
	<path class="st3" d="M395.6,79c0,1-0.8,1.7-1.8,1.7s-1.8-0.8-1.8-1.7c0-1,0.8-1.8,1.8-1.8S395.6,78,395.6,79z M395.1,98.7h-2.5
		V84.1h2.5V98.7z"/>
	<path class="st3" d="M424.5,89.6v9H422v-8.2c0-2.7-1.5-4.3-4-4.3c-2.4,0-4.3,1.7-4.3,4.3v8.2h-2.5v-8.2c0-2.7-1.5-4.3-4-4.3
		c-2.3,0-4.3,1.6-4.3,4.3v8.2h-2.5V84.1h2.5V86c1.2-1.6,3.1-2.2,4.8-2.2c2.5,0,4.4,1.1,5.4,2.9c1.2-2.2,3.4-2.9,5.4-2.9
		C422,83.8,424.5,86.1,424.5,89.6z"/>
	<path class="st3" d="M444.6,91.4c0,4.4-3.2,7.6-7.3,7.6c-2.3,0-4-0.9-5.1-2.3v8.1h-2.5V84.1h2.5v1.9c1.1-1.4,2.8-2.3,5.1-2.3
		C441.3,83.8,444.6,87,444.6,91.4z M432,91.4c0,3,2.1,5.2,5,5.2c3,0,5-2.3,5-5.2s-2-5.2-5-5.2C434,86.2,432,88.4,432,91.4z"/>
	<path class="st3" d="M463,91.4c0,4.3-3.3,7.6-7.7,7.6s-7.7-3.3-7.7-7.6s3.3-7.6,7.7-7.6S463,87.1,463,91.4z M450.2,91.4
		c0,3,2.2,5.2,5.1,5.2c2.9,0,5.1-2.2,5.1-5.2c0-3-2.2-5.2-5.1-5.2C452.4,86.2,450.2,88.4,450.2,91.4z"/>
	<path class="st3" d="M476.6,84.3l-0.6,2.5c-0.7-0.4-1.7-0.6-2.5-0.6c-2.2,0-3.8,1.7-3.8,4.4v8.1h-2.5V84.1h2.5V86
		c1-1.4,2.5-2.2,4.3-2.2C475,83.8,475.8,84,476.6,84.3z"/>
	<path class="st3" d="M490.3,86.4h-6.1v7.1c0,2.2,1.2,3.1,2.7,3.1c1.1,0,2.1-0.4,3-1l1.2,1.9c-1.1,0.8-2.6,1.4-4.4,1.4
		c-3.2,0-5-1.7-5-5.4v-7.1h-3.1v-2.3h3.1v-4.6h2.5v4.6h6.1V86.4z"/>
	<path class="st3" d="M508.1,98.7h-2.5v-1.9c-1.1,1.4-2.8,2.3-5.1,2.3c-4.1,0-7.3-3.2-7.3-7.6s3.2-7.6,7.3-7.6c2.3,0,4,0.9,5.1,2.3
		v-2h2.5V98.7z M495.7,91.4c0,2.9,2,5.2,5,5.2c2.9,0,5-2.3,5-5.2c0-3-2.1-5.2-5-5.2C497.7,86.2,495.7,88.5,495.7,91.4z"/>
	<path class="st3" d="M526.7,89.6v9h-2.5v-8.2c0-2.7-1.5-4.3-4-4.3c-2.3,0-4.3,1.6-4.3,4.3v8.2h-2.5V84.1h2.5V86
		c1.2-1.6,3.1-2.2,4.8-2.2C524.2,83.8,526.7,86.1,526.7,89.6z"/>
	<path class="st3" d="M541.5,86.4h-6.1v7.1c0,2.2,1.2,3.1,2.7,3.1c1.1,0,2.1-0.4,3-1l1.2,1.9c-1.1,0.8-2.6,1.4-4.4,1.4
		c-3.2,0-5-1.7-5-5.4v-7.1h-3.1v-2.3h3.1v-4.6h2.5v4.6h6.1V86.4z"/>
	<path class="st3" d="M549.2,94.8l-1.7,7.9h-2.2l0.9-7.9H549.2z"/>
	<path class="st3" d="M571.8,87.4c-0.9-0.6-2.8-1.3-4.7-1.3c-2,0-3.3,0.8-3.3,2.2c0,1.2,1.1,1.7,2.8,1.9l1.7,0.2
		c3.1,0.4,4.9,1.7,4.9,4.1c0,2.8-2.5,4.6-6.4,4.6c-1.8,0-4.2-0.4-6.1-1.9l1.2-1.9c1.1,0.8,2.5,1.5,5,1.5c2.4,0,3.9-0.8,3.9-2.2
		c0-1.1-1-1.7-2.9-2l-1.7-0.2c-3.3-0.4-4.8-1.9-4.8-4.1c0-2.8,2.3-4.5,5.9-4.5c2.3,0,4.4,0.6,5.8,1.6L571.8,87.4z"/>
	<path class="st3" d="M591.5,91.4c0,4.3-3.3,7.6-7.7,7.6s-7.7-3.3-7.7-7.6s3.3-7.6,7.7-7.6S591.5,87.1,591.5,91.4z M578.7,91.4
		c0,3,2.2,5.2,5.1,5.2c2.9,0,5.1-2.2,5.1-5.2c0-3-2.2-5.2-5.1-5.2C580.9,86.2,578.7,88.4,578.7,91.4z"/>
	<path class="st3" d="M598.7,79c0,1-0.8,1.7-1.8,1.7s-1.8-0.8-1.8-1.7c0-1,0.8-1.8,1.8-1.8S598.7,78,598.7,79z M598.2,98.7h-2.5
		V84.1h2.5V98.7z"/>
	<path class="st3" d="M613.4,86.4h-6.1v7.1c0,2.2,1.2,3.1,2.7,3.1c1.1,0,2.1-0.4,3-1l1.2,1.9c-1.1,0.8-2.6,1.4-4.4,1.4
		c-3.2,0-5-1.7-5-5.4v-7.1h-3.1v-2.3h3.1v-4.6h2.5v4.6h6.1V86.4z"/>
	<path class="st4" d="M645,89.4c0,5.6-3.9,9.8-9,9.8c-2.5,0-4.3-1-5.5-2.4v9.6h-5V80.1h4.9v2c1.2-1.5,3-2.5,5.5-2.5
		C641.1,79.6,645,83.8,645,89.4z M630.3,89.4c0,2.9,1.9,5.1,4.8,5.1c2.9,0,4.8-2.3,4.8-5.1s-1.8-5.1-4.8-5.1
		C632.3,84.3,630.3,86.5,630.3,89.4z"/>
	<path class="st4" d="M654.1,98.7h-5V71.1h5V98.7z"/>
	<path class="st4" d="M676.7,90.8c0,5.9-4.1,8.4-8.8,8.4c-4.7,0-8.8-2.5-8.8-8.4V80.1h5v10.2c0,3,1.6,4.2,3.8,4.2
		c2.1,0,3.8-1.2,3.8-4.2V80.1h5V90.8z"/>
	<path class="st4" d="M695.1,85.3c-1.5-0.7-3.8-1.5-5.9-1.5c-1.9,0-2.9,0.7-2.9,1.7c0,1.1,1.3,1.3,3,1.6l1.6,0.2
		c4,0.6,6.3,2.4,6.3,5.6c0,3.8-3.1,6.3-8.5,6.3c-2.5,0-5.8-0.5-8.3-2.2l2-3.8c1.6,1.1,3.5,1.8,6.3,1.8c2.3,0,3.4-0.7,3.4-1.7
		c0-0.9-0.9-1.4-3.1-1.7l-1.5-0.2c-4.3-0.6-6.4-2.5-6.4-5.6c0-3.8,2.9-6.1,7.8-6.1c3,0,5.3,0.6,7.8,1.8L695.1,85.3z"/>
	<path class="st4" d="M724,82.1v-11h5v27.6H724v-2c-1.2,1.5-3,2.5-5.6,2.5c-5.1,0-9-4.2-9-9.8s3.9-9.8,9-9.8
		C721,79.6,722.7,80.6,724,82.1z M714.6,89.4c0,2.8,1.9,5.1,4.8,5.1c2.9,0,4.8-2.2,4.8-5.1c0-2.9-1.9-5.1-4.8-5.1
		C716.5,84.3,714.6,86.6,714.6,89.4z"/>
	<path class="st4" d="M751.4,89.4c0,0.6,0,1.3-0.1,1.7h-13.2c0.5,2.7,2.4,3.8,4.8,3.8c1.6,0,3.4-0.7,4.7-1.8l2.9,3.2
		c-2.1,1.9-4.8,2.8-7.9,2.8c-5.7,0-9.6-3.9-9.6-9.7c0-5.8,3.8-9.8,9.4-9.8C747.8,79.6,751.4,83.6,751.4,89.4z M738.2,87.6h8.2
		c-0.5-2.4-1.9-3.7-4-3.7C740,83.9,738.6,85.3,738.2,87.6z"/>
	<path class="st4" d="M774.9,98.7h-5.2v-20l-6.4,2.6v-5.2l11.6-4.7V98.7z"/>
	<path class="st4" d="M782.6,102.5h-5.3l16.3-33.3h5.3L782.6,102.5z"/>
	<path class="st4" d="M817.6,79.1c0,2.8-1.5,4.9-4,6.1c2.8,1.1,4.6,3.3,4.6,6.1c0,5.3-4.8,7.8-9.9,7.8c-4,0-7.3-1.4-9.4-3.9l3.1-3.4
		c1.6,1.6,3.8,2.6,6.1,2.6c2.6,0,4.7-1.1,4.7-3.5c0-2.3-2.4-3.5-5.2-3.5h-3.1v-4.6h3.1c2.6,0,4.7-1.1,4.7-3.4c0-2.2-2-3.4-4.4-3.4
		c-2.5,0-4.3,1.3-5.4,2.7l-3.3-3.3c1.8-2.4,4.7-4.2,8.9-4.2C813.7,71.4,817.6,74.5,817.6,79.1z"/>
	<path class="st3" d="M842,86.1v-9.5h2.5v22.1H842v-1.9c-1.1,1.4-2.8,2.3-5.1,2.3c-4.1,0-7.3-3.2-7.3-7.6s3.2-7.6,7.3-7.6
		C839.1,83.8,840.8,84.7,842,86.1z M832.1,91.4c0,2.9,2,5.2,5,5.2c2.9,0,5-2.3,5-5.2c0-3-2.1-5.2-5-5.2
		C834.1,86.2,832.1,88.5,832.1,91.4z"/>
	<path class="st3" d="M862.9,92.6c0,4.4-3.2,6.4-6.6,6.4c-3.5,0-6.6-2-6.6-6.4v-8.5h2.5v8.2c0,3,1.8,4.3,4.1,4.3
		c2.4,0,4.1-1.3,4.1-4.3v-8.2h2.5V92.6z"/>
	<path class="st3" d="M885.9,86.4h-6.1v7.1c0,2.2,1.2,3.1,2.7,3.1c1.1,0,2.1-0.4,3-1l1.2,1.9c-1.1,0.8-2.6,1.4-4.4,1.4
		c-3.2,0-5-1.7-5-5.4v-7.1h-3.1v-2.3h3.1v-4.6h2.5v4.6h6.1V86.4z"/>
	<path class="st3" d="M904.2,91.4c0,4.3-3.3,7.6-7.7,7.6s-7.7-3.3-7.7-7.6s3.3-7.6,7.7-7.6S904.2,87.1,904.2,91.4z M891.3,91.4
		c0,3,2.2,5.2,5.1,5.2c2.9,0,5.1-2.2,5.1-5.2c0-3-2.2-5.2-5.1-5.2C893.6,86.2,891.3,88.4,891.3,91.4z"/>
	<path class="st3" d="M918.1,86.4H912v7.1c0,2.2,1.2,3.1,2.7,3.1c1.1,0,2.1-0.4,3-1l1.2,1.9c-1.1,0.8-2.6,1.4-4.4,1.4
		c-3.2,0-5-1.7-5-5.4v-7.1h-3.1v-2.3h3.1v-4.6h2.5v4.6h6.1V86.4z"/>
	<path class="st3" d="M935.9,98.7h-2.5v-1.9c-1.1,1.4-2.8,2.3-5.1,2.3c-4.1,0-7.3-3.2-7.3-7.6s3.2-7.6,7.3-7.6c2.3,0,4,0.9,5.1,2.3
		v-2h2.5V98.7z M923.5,91.4c0,2.9,2,5.2,5,5.2c2.9,0,5-2.3,5-5.2c0-3-2.1-5.2-5-5.2C925.5,86.2,923.5,88.5,923.5,91.4z"/>
	<path class="st3" d="M943.7,98.7h-2.5V76.6h2.5V98.7z"/>
	<path class="st3" d="M210.6,133.3v-9.5h2.5v22.1h-2.5V144c-1.1,1.4-2.8,2.3-5.1,2.3c-4.1,0-7.3-3.2-7.3-7.6c0-4.4,3.2-7.6,7.3-7.6
		C207.7,131,209.4,131.9,210.6,133.3z M200.7,138.6c0,2.9,2,5.2,5,5.2c2.9,0,5-2.3,5-5.2c0-3-2.1-5.2-5-5.2
		C202.7,133.4,200.7,135.7,200.7,138.6z"/>
	<path class="st3" d="M231.4,138.6c0,0.3,0,0.7,0,0.9h-11.4c0.4,3,2.5,4.5,4.9,4.5c1.7,0,3.2-0.7,4.5-1.7l1.3,1.7
		c-1.8,1.7-3.8,2.2-6,2.2c-4.3,0-7.4-3-7.4-7.6c0-4.5,3-7.6,7.2-7.6C228.5,131,231.4,134.1,231.4,138.6z M219.9,137.5h8.9
		c-0.3-2.6-2-4.2-4.3-4.2C221.9,133.3,220.3,135,219.9,137.5z"/>
	<path class="st3" d="M246.3,145.9h-2.5v-22.1h2.5V145.9z"/>
	<path class="st3" d="M264.5,138.6c0,0.3,0,0.7,0,0.9h-11.4c0.4,3,2.5,4.5,4.9,4.5c1.7,0,3.2-0.7,4.5-1.7l1.3,1.7
		c-1.8,1.7-3.8,2.2-6,2.2c-4.3,0-7.4-3-7.4-7.6c0-4.5,3-7.6,7.2-7.6C261.7,131,264.5,134.1,264.5,138.6z M253.1,137.5h8.9
		c-0.3-2.6-2-4.2-4.3-4.2C255.1,133.3,253.5,135,253.1,137.5z"/>
	<path class="st3" d="M281.9,139.8c0,4.4-3.2,6.4-6.6,6.4c-3.5,0-6.6-2-6.6-6.4v-8.5h2.5v8.2c0,3,1.8,4.3,4.1,4.3
		c2.4,0,4.1-1.3,4.1-4.3v-8.2h2.5V139.8z"/>
	<path class="st3" d="M296.4,131.5l-0.6,2.5c-0.7-0.4-1.7-0.6-2.5-0.6c-2.2,0-3.8,1.7-3.8,4.4v8.1H287v-14.6h2.5v1.9
		c1-1.4,2.5-2.2,4.3-2.2C294.8,131,295.6,131.2,296.4,131.5z"/>
	<path class="st3" d="M309.4,134.6c-0.9-0.6-2.8-1.3-4.7-1.3c-2,0-3.3,0.8-3.3,2.2c0,1.2,1.1,1.7,2.8,1.9l1.7,0.2
		c3.1,0.4,4.9,1.7,4.9,4.1c0,2.8-2.5,4.6-6.4,4.6c-1.8,0-4.2-0.4-6.1-1.9l1.2-1.9c1.1,0.8,2.5,1.5,5,1.5c2.4,0,3.9-0.8,3.9-2.2
		c0-1.1-1-1.7-2.9-2l-1.7-0.2c-3.3-0.4-4.8-1.9-4.8-4.1c0-2.8,2.3-4.5,5.9-4.5c2.3,0,4.4,0.6,5.8,1.6L309.4,134.6z"/>
	<path class="st3" d="M336.8,145.9h-2.5V144c-1.1,1.4-2.8,2.3-5.1,2.3c-4.1,0-7.3-3.2-7.3-7.6c0-4.4,3.2-7.6,7.3-7.6
		c2.3,0,4,0.9,5.1,2.3v-2h2.5V145.9z M324.5,138.6c0,2.9,2,5.2,5,5.2c2.9,0,5-2.3,5-5.2c0-3-2.1-5.2-5-5.2
		C326.4,133.4,324.5,135.7,324.5,138.6z"/>
	<path class="st3" d="M349,145.9H346l-6.1-14.6h2.7l4.9,12l4.9-12h2.7L349,145.9z"/>
	<path class="st3" d="M372.3,138.6c0,4.3-3.3,7.6-7.7,7.6s-7.7-3.3-7.7-7.6s3.3-7.6,7.7-7.6S372.3,134.3,372.3,138.6z M359.4,138.6
		c0,3,2.2,5.2,5.1,5.2c2.9,0,5.1-2.2,5.1-5.2s-2.2-5.2-5.1-5.2C361.6,133.4,359.4,135.6,359.4,138.6z"/>
	<path class="st3" d="M379.5,126.2c0,1-0.8,1.7-1.8,1.7c-1,0-1.8-0.8-1.8-1.7c0-1,0.8-1.8,1.8-1.8
		C378.7,124.4,379.5,125.2,379.5,126.2z M379,145.9h-2.5v-14.6h2.5V145.9z"/>
	<path class="st3" d="M393.6,131.5L393,134c-0.7-0.4-1.7-0.6-2.5-0.6c-2.2,0-3.8,1.7-3.8,4.4v8.1h-2.5v-14.6h2.5v1.9
		c1-1.4,2.5-2.2,4.3-2.2C392,131,392.9,131.2,393.6,131.5z"/>
	<path class="st3" d="M406.6,134.6c-0.9-0.6-2.8-1.3-4.7-1.3c-2,0-3.3,0.8-3.3,2.2c0,1.2,1.1,1.7,2.8,1.9l1.7,0.2
		c3.1,0.4,4.9,1.7,4.9,4.1c0,2.8-2.5,4.6-6.4,4.6c-1.8,0-4.2-0.4-6.1-1.9l1.2-1.9c1.1,0.8,2.5,1.5,5,1.5c2.4,0,3.9-0.8,3.9-2.2
		c0-1.1-1-1.7-2.9-2l-1.7-0.2c-3.3-0.4-4.8-1.9-4.8-4.1c0-2.8,2.3-4.5,5.9-4.5c2.3,0,4.4,0.6,5.8,1.6L406.6,134.6z"/>
	<path class="st3" d="M415.5,144.1c0,1.1-1,2.1-2.1,2.1s-2.1-1-2.1-2.1c0-1.1,1-2.1,2.1-2.1S415.5,143,415.5,144.1z"/>
</g>
<rect x="14.1" y="181.3" class="st5" width="15" height="15"/>
<g>
	<path class="st3" d="M42.8,186.5c2.2,0,3.4,1,3.4,2.8c0,1.7-1.3,2.8-3.4,2.8h-0.1l3.5,4.2h-1.5l-3.4-4.2h-1.1v4.2h-1.2v-9.8H42.8z
		 M40.1,187.7v3.3h2.6c1.4,0,2.2-0.6,2.2-1.7c0-1.1-0.8-1.6-2.2-1.6H40.1z"/>
	<path class="st3" d="M53.9,193c0,0.1,0,0.3,0,0.4h-5.2c0.2,1.4,1.1,2.1,2.3,2.1c0.8,0,1.5-0.3,2.1-0.8l0.6,0.8
		c-0.8,0.8-1.8,1-2.7,1c-2,0-3.4-1.4-3.4-3.5c0-2,1.4-3.5,3.3-3.5C52.6,189.5,53.9,190.9,53.9,193z M48.7,192.5h4.1
		c-0.1-1.2-0.9-1.9-2-1.9C49.6,190.5,48.9,191.3,48.7,192.5z M49.8,188.6l1.4-2.1h1.4l-1.8,2.1H49.8z"/>
	<path class="st3" d="M60.3,191.1c-0.4-0.3-1.3-0.6-2.1-0.6c-0.9,0-1.5,0.4-1.5,1c0,0.5,0.5,0.8,1.3,0.9l0.8,0.1
		c1.4,0.2,2.2,0.8,2.2,1.9c0,1.3-1.1,2.1-2.9,2.1c-0.8,0-1.9-0.2-2.8-0.9l0.5-0.9c0.5,0.4,1.2,0.7,2.3,0.7c1.1,0,1.8-0.4,1.8-1
		c0-0.5-0.4-0.8-1.3-0.9l-0.8-0.1c-1.5-0.2-2.2-0.9-2.2-1.9c0-1.3,1.1-2,2.7-2c1.1,0,2,0.3,2.7,0.7L60.3,191.1z"/>
	<path class="st3" d="M64.2,187.3c0,0.5-0.4,0.8-0.8,0.8s-0.8-0.3-0.8-0.8c0-0.5,0.4-0.8,0.8-0.8S64.2,186.9,64.2,187.3z
		 M63.9,196.3h-1.1v-6.7h1.1V196.3z"/>
	<path class="st3" d="M71.5,190.6v-4.3h1.1v10.1h-1.1v-0.9c-0.5,0.6-1.3,1-2.3,1c-1.9,0-3.3-1.5-3.3-3.5c0-2,1.5-3.5,3.3-3.5
		C70.2,189.5,71,189.9,71.5,190.6z M67,193c0,1.3,0.9,2.4,2.3,2.4c1.3,0,2.3-1,2.3-2.4c0-1.4-0.9-2.4-2.3-2.4
		C67.9,190.6,67,191.7,67,193z"/>
	<path class="st3" d="M81,193c0,0.1,0,0.3,0,0.4h-5.2c0.2,1.4,1.1,2.1,2.3,2.1c0.8,0,1.5-0.3,2.1-0.8l0.6,0.8c-0.8,0.8-1.8,1-2.7,1
		c-2,0-3.4-1.4-3.4-3.5c0-2,1.4-3.5,3.3-3.5C79.7,189.5,81,190.9,81,193z M75.8,192.5h4.1c-0.1-1.2-0.9-1.9-2-1.9
		C76.7,190.5,76,191.3,75.8,192.5z"/>
	<path class="st3" d="M89,192.2v4.1h-1.1v-3.8c0-1.2-0.7-1.9-1.8-1.9c-1.1,0-2,0.7-2,2v3.7h-1.1v-6.7h1.1v0.9c0.5-0.7,1.4-1,2.2-1
		C87.9,189.5,89,190.6,89,192.2z"/>
	<path class="st3" d="M96.8,190.6l-0.7,0.8c-0.5-0.5-1.1-0.7-1.8-0.7c-1.3,0-2.3,1-2.3,2.4c0,1.4,1,2.4,2.3,2.4
		c0.7,0,1.3-0.3,1.8-0.8l0.7,0.8c-0.6,0.7-1.5,1-2.5,1c-2.1,0-3.5-1.5-3.5-3.5c0-2,1.4-3.5,3.5-3.5
		C95.3,189.5,96.2,189.9,96.8,190.6z"/>
	<path class="st3" d="M104.4,193c0,0.1,0,0.3,0,0.4h-5.2c0.2,1.4,1.1,2.1,2.3,2.1c0.8,0,1.5-0.3,2.1-0.8l0.6,0.8
		c-0.8,0.8-1.8,1-2.7,1c-2,0-3.4-1.4-3.4-3.5c0-2,1.4-3.5,3.3-3.5C103,189.5,104.3,190.9,104.4,193z M99.1,192.5h4.1
		c-0.1-1.2-0.9-1.9-2-1.9C100,190.5,99.3,191.3,99.1,192.5z"/>
	<path class="st3" d="M116.8,193c0,2-1.5,3.5-3.3,3.5c-1.1,0-1.8-0.4-2.3-1v3.7H110v-9.5h1.1v0.9c0.5-0.6,1.3-1,2.3-1
		C115.4,189.5,116.8,191,116.8,193z M111.1,193c0,1.4,0.9,2.4,2.3,2.4c1.4,0,2.3-1.1,2.3-2.4c0-1.3-0.9-2.4-2.3-2.4
		C112,190.6,111.1,191.6,111.1,193z"/>
	<path class="st3" d="M123,189.7l-0.3,1.1c-0.3-0.2-0.8-0.3-1.1-0.3c-1,0-1.7,0.8-1.7,2v3.7h-1.1v-6.7h1.1v0.9c0.5-0.7,1.2-1,1.9-1
		C122.3,189.5,122.7,189.6,123,189.7z"/>
	<path class="st3" d="M126,187.3c0,0.5-0.4,0.8-0.8,0.8s-0.8-0.3-0.8-0.8c0-0.5,0.4-0.8,0.8-0.8S126,186.9,126,187.3z M125.8,196.3
		h-1.1v-6.7h1.1V196.3z"/>
	<path class="st3" d="M134.3,192.2v4.1h-1.1v-3.8c0-1.2-0.7-1.9-1.8-1.9c-1.1,0-2,0.7-2,2v3.7h-1.1v-6.7h1.1v0.9
		c0.5-0.7,1.4-1,2.2-1C133.1,189.5,134.3,190.6,134.3,192.2z"/>
	<path class="st3" d="M142,190.6l-0.7,0.8c-0.5-0.5-1.1-0.7-1.8-0.7c-1.3,0-2.3,1-2.3,2.4c0,1.4,1,2.4,2.3,2.4
		c0.7,0,1.3-0.3,1.8-0.8l0.7,0.8c-0.6,0.7-1.5,1-2.5,1c-2.1,0-3.5-1.5-3.5-3.5c0-2,1.4-3.5,3.5-3.5
		C140.5,189.5,141.4,189.9,142,190.6z"/>
	<path class="st3" d="M145.2,187.3c0,0.5-0.4,0.8-0.8,0.8s-0.8-0.3-0.8-0.8c0-0.5,0.4-0.8,0.8-0.8S145.2,186.9,145.2,187.3z
		 M144.9,196.3h-1.1v-6.7h1.1V196.3z"/>
	<path class="st3" d="M154.2,193c0,2-1.5,3.5-3.3,3.5c-1.1,0-1.8-0.4-2.3-1v3.7h-1.1v-9.5h1.1v0.9c0.5-0.6,1.3-1,2.3-1
		C152.7,189.5,154.2,191,154.2,193z M148.4,193c0,1.4,0.9,2.4,2.3,2.4c1.4,0,2.3-1.1,2.3-2.4c0-1.3-0.9-2.4-2.3-2.4
		C149.4,190.6,148.4,191.6,148.4,193z"/>
	<path class="st3" d="M162.4,196.3h-1.1v-0.9c-0.5,0.6-1.3,1-2.3,1c-1.9,0-3.3-1.5-3.3-3.5c0-2,1.5-3.5,3.3-3.5c1,0,1.8,0.4,2.3,1
		v-0.9h1.1V196.3z M156.7,193c0,1.3,0.9,2.4,2.3,2.4c1.3,0,2.3-1,2.3-2.4c0-1.4-0.9-2.4-2.3-2.4C157.6,190.6,156.7,191.7,156.7,193z
		"/>
	<path class="st3" d="M166,196.3h-1.1v-10.1h1.1V196.3z"/>
	<path class="st3" d="M174.3,193c0,0.1,0,0.3,0,0.4h-5.2c0.2,1.4,1.1,2.1,2.3,2.1c0.8,0,1.5-0.3,2.1-0.8l0.6,0.8
		c-0.8,0.8-1.8,1-2.7,1c-2,0-3.4-1.4-3.4-3.5c0-2,1.4-3.5,3.3-3.5C173,189.5,174.3,190.9,174.3,193z M169.1,192.5h4.1
		c-0.1-1.2-0.9-1.9-2-1.9C170,190.5,169.2,191.3,169.1,192.5z"/>
</g>
<g>
	<rect x="14.1" y="202.3" class="st6" width="15" height="15"/>
	<g>
		<path class="st3" d="M48.1,217.1h-1.3l-1.1-2.7H41l-1.1,2.7h-1.3l4-9.8h1.5L48.1,217.1z M41.4,213.3h3.8l-1.9-4.7L41.4,213.3z"/>
		<path class="st3" d="M55.5,214.3c0,2-1.4,2.9-3,2.9c-1.6,0-3-0.9-3-2.9v-3.9h1.1v3.8c0,1.4,0.8,2,1.9,2c1.1,0,1.9-0.6,1.9-2v-3.8
			h1.1V214.3z"/>
		<path class="st3" d="M62.4,211.5h-2.8v3.2c0,1,0.5,1.4,1.3,1.4c0.5,0,1-0.2,1.4-0.4l0.5,0.9c-0.5,0.4-1.2,0.7-2,0.7
			c-1.4,0-2.3-0.8-2.3-2.5v-3.3H57v-1h1.4v-2.1h1.1v2.1h2.8V211.5z"/>
		<path class="st3" d="M68.5,210.5l-0.3,1.1c-0.3-0.2-0.8-0.3-1.1-0.3c-1,0-1.7,0.8-1.7,2v3.7h-1.1v-6.7h1.1v0.9
			c0.5-0.7,1.2-1,1.9-1C67.8,210.3,68.1,210.4,68.5,210.5z"/>
		<path class="st3" d="M75.7,213.7c0,0.1,0,0.3,0,0.4h-5.2c0.2,1.4,1.1,2.1,2.3,2.1c0.8,0,1.5-0.3,2.1-0.8l0.6,0.8
			c-0.8,0.8-1.8,1-2.7,1c-2,0-3.4-1.4-3.4-3.5c0-2,1.4-3.5,3.3-3.5C74.4,210.3,75.7,211.7,75.7,213.7z M70.5,213.3h4.1
			c-0.1-1.2-0.9-1.9-2-1.9C71.4,211.3,70.7,212.1,70.5,213.3z"/>
		<path class="st3" d="M82.1,211.9c-0.4-0.3-1.3-0.6-2.1-0.6c-0.9,0-1.5,0.4-1.5,1c0,0.5,0.5,0.8,1.3,0.9l0.8,0.1
			c1.4,0.2,2.2,0.8,2.2,1.9c0,1.3-1.1,2.1-2.9,2.1c-0.8,0-1.9-0.2-2.8-0.9l0.5-0.9c0.5,0.4,1.2,0.7,2.3,0.7c1.1,0,1.8-0.4,1.8-1
			c0-0.5-0.4-0.8-1.3-0.9l-0.8-0.1c-1.5-0.2-2.2-0.9-2.2-1.9c0-1.3,1.1-2,2.7-2c1.1,0,2,0.3,2.7,0.7L82.1,211.9z"/>
		<path class="st3" d="M94.7,217.1h-1.1v-0.9c-0.5,0.6-1.3,1-2.3,1c-1.9,0-3.3-1.5-3.3-3.5c0-2,1.5-3.5,3.3-3.5c1,0,1.8,0.4,2.3,1
			v-0.9h1.1V217.1z M89,213.8c0,1.3,0.9,2.4,2.3,2.4c1.3,0,2.3-1,2.3-2.4c0-1.4-0.9-2.4-2.3-2.4C89.9,211.4,89,212.4,89,213.8z"/>
		<path class="st3" d="M102.5,211.4l-0.7,0.8c-0.5-0.5-1.1-0.7-1.8-0.7c-1.3,0-2.3,1-2.3,2.4c0,1.4,1,2.4,2.3,2.4
			c0.7,0,1.3-0.3,1.8-0.8l0.7,0.8c-0.6,0.7-1.5,1-2.5,1c-2.1,0-3.5-1.5-3.5-3.5c0-2,1.4-3.5,3.5-3.5
			C101,210.3,101.9,210.7,102.5,211.4z"/>
		<path class="st3" d="M108.9,211.5h-2.8v3.2c0,1,0.5,1.4,1.3,1.4c0.5,0,1-0.2,1.4-0.4l0.5,0.9c-0.5,0.4-1.2,0.7-2,0.7
			c-1.4,0-2.3-0.8-2.3-2.5v-3.3h-1.4v-1h1.4v-2.1h1.1v2.1h2.8V211.5z"/>
		<path class="st3" d="M112.1,208.1c0,0.5-0.4,0.8-0.8,0.8s-0.8-0.3-0.8-0.8c0-0.5,0.4-0.8,0.8-0.8S112.1,207.6,112.1,208.1z
			 M111.8,217.1h-1.1v-6.7h1.1V217.1z"/>
		<path class="st3" d="M118.6,211.5H116v5.6h-1.1v-5.6h-1.5v-1h1.5v-1.1c0-1.4,0.6-2.4,2.2-2.4c0.8,0,1.4,0.2,1.8,0.5l-0.4,1
			c-0.4-0.2-0.8-0.4-1.3-0.4c-0.8,0-1.1,0.5-1.1,1.4v1.1h2.6V211.5z"/>
		<path class="st3" d="M124.7,211.9c-0.4-0.3-1.3-0.6-2.1-0.6c-0.9,0-1.5,0.4-1.5,1c0,0.5,0.5,0.8,1.3,0.9l0.8,0.1
			c1.4,0.2,2.2,0.8,2.2,1.9c0,1.3-1.1,2.1-2.9,2.1c-0.8,0-1.9-0.2-2.8-0.9l0.5-0.9c0.5,0.4,1.2,0.7,2.3,0.7c1.1,0,1.8-0.4,1.8-1
			c0-0.5-0.4-0.8-1.3-0.9l-0.8-0.1c-1.5-0.2-2.2-0.9-2.2-1.9c0-1.3,1.1-2,2.7-2c1.1,0,2,0.3,2.7,0.7L124.7,211.9z"/>
	</g>
</g>
</svg>
