<?xml version="1.0" encoding="utf-8"?>
<!-- Generator: Adobe Illustrator 24.2.3, SVG Export Plug-In . SVG Version: 6.00 Build 0)  -->
<svg version="1.1" id="Layer_1" xmlns="http://www.w3.org/2000/svg" xmlns:xlink="http://www.w3.org/1999/xlink" x="0px" y="0px"
	 viewBox="0 0 130 130" style="enable-background:new 0 0 130 130;" xml:space="preserve">
<style type="text/css">
	.st0{fill:#EC5A35;}
	.st1{fill:#203231;}
	.st2{fill:#213332;}
</style>
<g>
	<path class="st0" d="M74.5,115.2l4.3-3.3c0.8-0.6,1-1.8,0.4-2.7c-3.4-5.1-5.2-11.1-4.5-17.5c3-29.8,37.4-22.5,45.7-22.4
		c0.3,0.4-0.5-1.5-1-2l-22-19c-1.3-1.1-3.3-0.2-3.3,1.5l0,5.9c0,1-0.8,1.9-1.9,2c-17.4,1-31.2,15.4-31.2,33
		c0,9.7,4.2,18.4,10.8,24.5C72.7,115.7,73.8,115.8,74.5,115.2z"/>
	<path class="st0" d="M110.7,58.4c-0.5,0.1-1,0.2-1.4,0.3l-3.6-3.3c0.3,0,0.5,0,0.8,0c0.5,0,0.9,0,1.4,0c0.7,0.6,1.3,1.3,1.9,1.9
		c0.3,0.3,0.5,0.5,0.7,0.8C110.6,58.2,110.6,58.3,110.7,58.4z"/>
	<g>
		<path class="st0" d="M66.1,41.8l7.6,10.9c0.3,0.5,1,0.3,1-0.2L74,32c0-0.4,0.2-0.8,0.5-1c0.3-0.3,0.7-0.4,1.1-0.4l12.8,0.3
			L68.1,11.5c-0.4-0.3-0.8-0.4-1.2,0c-0.2,0.2-0.4,0.5-0.4,0.9c0,0.3,0.2,0.5,0.4,0.7C67,13,65.6,39.8,66.1,41.8z"/>
	</g>
	<g>
		<g>
			<path class="st1" d="M67.6,6.4c0.5,0.1,1,0.4,1.4,0.8L90.4,32c0.2,0.2,0.2,0.4,0.3,0.7l0,3c0,0.3-0.1,0.6-0.3,0.8
				c-0.2,0.2-0.4,0.3-0.7,0.3l-9.5,0.1l-0.4,14.8c0,0.6-0.4,1.1-0.9,1.1l-0.5,0c-0.3,0-0.5-0.1-0.7-0.4c-0.2-0.2-0.3-0.4-0.3-0.7
				L76,34.9c0-1.5,1.1-2.8,2.4-2.8l6.5,0L68.7,14.8c-0.3-0.3-0.7-0.5-1.1-0.6c-0.4,0.1-0.8,0.2-1.1,0.6L50.3,32.1l6.5,0
				c1.4,0,2.4,1.3,2.4,2.8l-1.4,25.6c0,0.2-0.1,0.5-0.3,0.7c-0.2,0.2-0.4,0.4-0.7,0.4l-0.5,0c-0.5,0-0.9-0.5-0.9-1.1l-0.4-23.6
				l-9.5-0.1c-0.3,0-0.5-0.1-0.7-0.3c-0.2-0.2-0.3-0.5-0.3-0.8l0-3c0-0.3,0.1-0.5,0.3-0.7L66.3,7.1C66.6,6.7,67.1,6.5,67.6,6.4"/>
			<path class="st1" d="M67.6,6.4"/>
		</g>
	</g>
	<g>
		<path class="st0" d="M37.9,76.5l9.4-6.6c0.4-0.2,0.2-0.8-0.2-0.8l-17.7,0.6c-0.3,0-0.7-0.2-0.9-0.5c-0.2-0.3-0.4-0.6-0.4-0.9
			l0.3-11L11.7,74.8c-0.3,0.3-0.3,0.7,0,1.1c0.2,0.2,0.5,0.3,0.7,0.3c0.2,0,0.4-0.1,0.6-0.4C13,75.8,36.1,77,37.9,76.5z"/>
	</g>
	<g>
		<g>
			<path class="st1" d="M7.2,75.1c0.1,0.4,0.3,0.9,0.7,1.2l21.5,18.5C29.6,95,29.8,95,30,95l2.6,0c0.2,0,0.5-0.1,0.7-0.2
				c0.2-0.2,0.3-0.4,0.3-0.6l0-8.2l12.8-0.4c0.5,0,0.9-0.4,0.9-0.8l0-0.5c0-0.2-0.1-0.4-0.3-0.6c-0.2-0.1-0.4-0.2-0.6-0.2l-14.5-1.2
				c-1.3,0-2.4,0.9-2.4,2.1l0,5.7L14.5,76.1c-0.3-0.3-0.4-0.6-0.5-0.9c0-0.3,0.2-0.7,0.5-0.9l14.9-14.1l0,5.7c0,1.2,1.1,2.1,2.4,2.1
				l22.1-1.2c0.2,0,0.4-0.1,0.6-0.2c0.2-0.2,0.3-0.4,0.3-0.6l0-0.5c0-0.5-0.4-0.8-0.9-0.8l-20.4-0.4l0-8.2c0-0.2-0.1-0.4-0.3-0.6
				c-0.2-0.2-0.4-0.2-0.7-0.2l-2.6,0c-0.2,0-0.4,0.1-0.6,0.2L7.9,74C7.6,74.3,7.3,74.7,7.2,75.1"/>
			<path class="st1" d="M7.2,75.1"/>
		</g>
	</g>
	<path class="st1" d="M122.8,69.5c0,0.7-0.4,1.3-0.9,1.7L96.1,91.8c-0.2,0.1-0.4,0.2-0.7,0.2l-3-0.1c-0.3,0-0.6-0.1-0.8-0.3
		c-0.2-0.2-0.3-0.4-0.3-0.7l0.3-9.1c0-0.3-0.2-0.5-0.5-0.6l-6.9-1.2c-0.6,0-1.1-0.4-1-1l0-0.5c0-0.3,0.2-0.5,0.4-0.7
		c0.2-0.2,0.5-0.2,0.7-0.2l9.4-0.4c1.5,0,2.8,1.2,2.7,2.5l-0.2,5.3c0,0.5,0.5,0.7,0.9,0.4l17-14.9c0.8-0.7,0.8-1.8,0.2-2.5
		L99.2,50.6c-0.1-0.1-0.5-0.5-0.5-0.6c-0.2-0.1-1.5-0.1-1.5-0.1c-0.4,0-0.7,0.1-0.7,0.4l-2,11.3c-0.1,0.6-1,0.6-1.1,0l-2.3-13
		c-0.3-1.5,0.5-2.4,1.1-3.1c0.5-0.5,1.7-0.7,2-0.8c1.6-0.1,7-0.1,7.8,0.3c0,0,0.1,0.1,0.1,0.1L122,67.7
		C122.5,68.2,122.8,68.8,122.8,69.5z"/>
	<path class="st2" d="M59,120.7c0.8,0.8,1.6,1.7,2.5,2.4c0.7,0.6,1.7,0.6,2.4,0.1l3.2-2.4c0.5-0.4,0.5-1.1,0-1.5
		c-1.1-0.9-2.2-2-3.2-3.1c-2.4-2.5-4.2-5.5-5.7-8.6c-1.5-3.1-2.4-6.5-2.9-10c-0.4-3.5-0.4-7,0.2-10.4c0.6-3.4,1.7-6.8,3.3-10
		c6.2-12,19.5-20.6,34-20.8c0.7,0,1.2-0.8,0.8-1.4c0,0,0,0,0,0c-0.1-0.3-0.4-0.5-0.7-0.5c-6.8-1-14.5,1.6-20.9,4.4
		c-3.6,1.7-7,3.8-10,6.4c-0.8,0.7-1.5,1.3-2.2,2.1c-0.7,0.7-1.4,1.5-2,2.2c-0.7,0.8-1.2,1.6-1.9,2.4c0,0,0,0,0,0
		c-0.5,0.8-1.1,1.7-1.6,2.5c-2.1,3.5-3.6,7.4-4.5,11.4c-0.9,4-1.1,8.2-0.7,12.3C49.9,106.6,53.4,114.6,59,120.7z"/>
</g>
</svg>
