<?xml version="1.0" encoding="utf-8"?>
<!-- Generator: Adobe Illustrator 24.2.3, SVG Export Plug-In . SVG Version: 6.00 Build 0)  -->
<svg version="1.1" id="Layer_1" xmlns="http://www.w3.org/2000/svg" xmlns:xlink="http://www.w3.org/1999/xlink" x="0px" y="0px"
	 viewBox="0 0 130 155" style="enable-background:new 0 0 130 155;" xml:space="preserve">
<style type="text/css">
	.st0{fill:#FFFFFF;}
	.st1{fill:#EB5B36;}
	.st2{fill:#213332;}
	.st3{fill:#203232;stroke:#203231;stroke-width:2;stroke-miterlimit:10;}
	.st4{fill:#213332;stroke:#213332;stroke-width:2;stroke-miterlimit:10;}
</style>
<g>
	<circle class="st0" cx="83.2" cy="14.4" r="9.5"/>
	<circle class="st0" cx="118.8" cy="39.8" r="9.5"/>
	<ellipse transform="matrix(0.7071 -0.7071 0.7071 0.7071 -47.504 72.0877)" class="st1" cx="63.3" cy="93.4" rx="55.6" ry="55.6"/>
	<ellipse transform="matrix(0.7963 -0.6049 0.6049 0.7963 -0.4701 80.8113)" class="st1" cx="119.7" cy="41.1" rx="7.7" ry="7.2"/>
	<g>
		<g>
			<g>
				<polygon class="st2" points="70.1,32 70.1,32 70.1,32 70.3,43.4 71.6,47.1 75.2,57 75.2,57 85.2,57.5 90.8,57.5 102.1,54.7 
					110,51.8 102.7,56.8 90.7,60.4 85.1,60.4 72.6,60.1 69,47.7 68.3,43.9 				"/>
			</g>
			<g>
				<path class="st2" d="M92.7,90.9"/>
				<path class="st2" d="M89.8,91.3c0.3,0.1-9.2-3.7-10.3-9.7c-0.7-3.8,1.2-7.5,6-11.5c0.3-0.2,0.9-0.4,1.3-0.4l14,0.2l0,0l-13.1,3
					c-2.4,2.1-4,4.9-3.5,7.8c0.5,3.1,3.9,5.2,5.7,6l4,2c0.1,0.3-2.5,0.6,0,0l8.1,21l20.5-30.2l0.4,6l-22.2,32.3"/>
			</g>
		</g>
		<g>
			<g>
				<path class="st2" d="M50.7,90.7l2-22.4c0.2-1,1.9-1.2,2.9-1c1,0.2,2.3,1.2,2.1,2.2L50.7,90.7"/>
			</g>
		</g>
		<g>
			<path class="st2" d="M27.7,82.6c-0.9,0-1.7-0.7-1.8-1.6l-1.3-10.5c-0.1-0.8-0.6-3.2,0.5-3.9c3.8-2.4,15-9.4,15-9.4l4.4-23.3l0,0
				l0.7,24.9c0,0.6-0.3,1.8-0.9,2.1l-15.1,9.2l1.2,8.6l11.4,3.1l0,0L27.7,82.6C27.8,82.6,27.7,82.6,27.7,82.6z"/>
		</g>
		<g>
			<path class="st2" d="M41.1,126.2"/>
			<path class="st2" d="M41.1,126.2l-8.8-22.8c0,0-9.2-5.2-10.3-6.2c-1-0.9-0.8-1.5-0.2-3.6c1.2-4.1,2.8-10.7,2.8-10.7L10.1,67.2
				l0,0L29,80.4c0.4,0.4,0.6,1.1,0.5,1.7l-2.8,12.8l9.5,5.2c0.2,0.5,0.3,1.2,0,0l5.6,16.5l16.1-25.9l-6.5-3.8l-0.9-0.5l12.4,2.8"/>
			<path class="st2" d="M41.1,126.2"/>
		</g>
	</g>
	<path class="st3" d="M111.4,45.8c-1.8-2.2-2.5-5.1-1.9-8.1c1.2-5.1,6.3-8.3,11.4-7.1l0,0c2.5,0.6,4.6,2.1,5.9,4.2
		c1.3,2.1,1.8,4.7,1.2,7.2c-0.6,2.5-2.1,4.6-4.2,5.9c-2.1,1.3-4.7,1.8-7.2,1.2C114.5,48.6,112.7,47.4,111.4,45.8z M120.7,31.6
		c-4.5-1-9.1,1.8-10.1,6.3c-1,4.5,1.8,9.1,6.3,10.1c2.2,0.5,4.5,0.1,6.4-1.1c1.9-1.2,3.2-3.1,3.8-5.3c0.5-2.2,0.1-4.5-1.1-6.4
		C124.7,33.5,122.9,32.1,120.7,31.6L120.7,31.6z"/>
	<g>
		<g>
			<path class="st2" d="M111.7,71.2l2-22.4c0.2-1,1.9-1.2,2.9-1c1,0.2,2.3,1.2,2.1,2.2L111.7,71.2"/>
		</g>
	</g>
	<ellipse transform="matrix(0.7071 -0.7071 0.7071 0.7071 13.8277 64.313)" class="st1" cx="84.5" cy="15.5" rx="7.7" ry="7.2"/>
	<path class="st3" d="M75.8,20.4c-1.8-2.2-2.5-5.1-1.9-8.1c1.2-5.1,6.3-8.3,11.4-7.1l0,0c2.5,0.6,4.6,2.1,5.9,4.2
		c1.3,2.1,1.8,4.7,1.2,7.2c-0.6,2.5-2.1,4.6-4.2,5.9c-2.1,1.3-4.7,1.8-7.2,1.2C78.9,23.1,77.1,22,75.8,20.4z M85.1,6.2
		c-4.5-1-9.1,1.8-10.1,6.3c-1,4.5,1.8,9.1,6.3,10.1c2.2,0.5,4.5,0.1,6.4-1.1s3.2-3.1,3.8-5.3c0.5-2.2,0.1-4.5-1.1-6.4
		C89.1,8,87.3,6.7,85.1,6.2L85.1,6.2z"/>
	<g>
		<g>
			<path class="st2" d="M76.2,45.2l2-22.4c0.2-1,1.9-1.2,2.9-1c1,0.2,2.3,1.2,2.1,2.2L76.2,45.2"/>
		</g>
	</g>
	<g>
		<path class="st2" d="M122,75.3c7.5,24-2.1,53.5-24.5,68.3c-11.1,7.3-24.7,10.7-38,9.9c-6.7-0.4-13.3-1.9-19.5-4.4
			c-1.6-0.6-3.1-1.4-4.6-2.1l-2.2-1.2l-1.1-0.6l-1.1-0.7c-2.9-1.7-5.6-3.8-8.1-5.9c-2.5-2.2-4.9-4.6-7-7.2c-2.1-2.6-4.1-5.3-5.8-8.3
			c-0.9-1.4-1.6-3-2.4-4.5l-1-2.3c-0.3-0.8-0.7-1.5-0.9-2.3l-0.9-2.4c-0.3-0.8-0.5-1.6-0.7-2.4c-0.5-1.6-0.8-3.2-1.2-4.9
			C1.6,97.8,1.5,91,2.3,84.4c0.9-6.6,2.8-13,5.6-19c2.9-5.9,6.8-11.4,11.4-16.1c4.6-4.6,9.9-8.6,15.6-11.6c5.7-3,11.9-5.2,18.1-6.3
			c6.3-1,12.7-1.2,18.9-0.1c-3.1,0-6.2,0.1-9.3,0.6c-3.1,0.4-6.1,1.1-9,1.9c-5.9,1.8-11.4,4.4-16.5,7.7c-5,3.3-9.6,7.3-13.5,11.8
			c-3.8,4.6-7,9.6-9.3,15c-1.1,2.7-2.1,5.5-2.7,8.3c-0.7,2.8-1.2,5.7-1.5,8.6c-0.4,5.8-0.2,11.7,1.1,17.3c1.3,5.6,3.3,11.1,6.4,16
			c1.4,2.5,3.2,4.8,5,7c1.9,2.2,3.9,4.3,6.1,6.1c2.2,1.9,4.5,3.6,6.9,5.1l0.9,0.6l0.9,0.5l1.9,1c1.3,0.6,2.6,1.3,3.9,1.8
			c2.6,1.2,5.4,2,8.2,2.7c1.4,0.3,2.8,0.6,4.3,0.8c0.7,0.1,1.4,0.3,2.2,0.3l2.2,0.2c5.8,0.6,11.7,0.1,17.4-1.1
			c0.7-0.1,1.4-0.3,2.1-0.5c0.7-0.2,1.4-0.3,2.1-0.6c1.4-0.5,2.8-0.9,4.1-1.4l2-0.8l2-0.9c1.3-0.6,2.6-1.4,3.9-2
			c5.1-3,9.6-6.8,13.5-11.2c3.9-4.5,7.1-9.6,9.6-15.1c2.5-5.5,4.2-11.4,5.1-17.5c0.4-3,0.7-6.1,0.6-9.2
			C122.7,81.5,122.4,78.4,122,75.3z"/>
	</g>
	<g>
		<g>
			<g>
				<path class="st2" d="M50.7,90.5l2-21.5c0.2-1,1.8-1.1,2.7-1c1,0.2,2.2,1.2,2,2.1L50.7,90.5"/>
			</g>
		</g>
	</g>
	<ellipse transform="matrix(0.7071 -0.7071 0.7071 0.7071 -26.0132 58.5505)" class="st0" cx="57.7" cy="60.7" rx="8.7" ry="8.2"/>
	<ellipse transform="matrix(0.7071 -0.7071 0.7071 0.7071 -27.2086 59.8492)" class="st1" cx="58.6" cy="62.8" rx="7.1" ry="6.7"/>
	<path class="st4" d="M50.3,66.6c-1.8-2.2-2.5-5.1-1.9-8.1c1.2-5.1,6.3-8.3,11.4-7.1l0,0c2.5,0.6,4.6,2.1,5.9,4.2
		c1.3,2.1,1.8,4.7,1.2,7.2c-0.6,2.5-2.1,4.6-4.2,5.9c-2.1,1.3-4.7,1.8-7.2,1.2C53.4,69.4,51.6,68.2,50.3,66.6z M59.6,52.4
		c-4.5-1-9.1,1.8-10.1,6.3c-1,4.5,1.8,9.1,6.3,10.1c2.2,0.5,4.5,0.1,6.4-1.1s3.2-3.1,3.8-5.3c0.5-2.2,0.1-4.5-1.1-6.4
		C63.6,54.3,61.8,52.9,59.6,52.4L59.6,52.4z"/>
</g>
</svg>
