<?xml version="1.0" encoding="utf-8"?>
<!-- Generator: Adobe Illustrator 24.2.3, SVG Export Plug-In . SVG Version: 6.00 Build 0)  -->
<svg version="1.1" id="Layer_1" xmlns="http://www.w3.org/2000/svg" xmlns:xlink="http://www.w3.org/1999/xlink" x="0px" y="0px"
	 viewBox="0 0 130 130" style="enable-background:new 0 0 130 130;" xml:space="preserve">
<style type="text/css">
	.st0{fill:#FFFFFF;}
	.st1{fill:#EB5B36;}
	.st2{fill:#203231;}
	.st3{fill:#203331;}
</style>
<circle class="st0" cx="68" cy="25.5" r="22.2"/>
<g>
	<path class="st1" d="M44,66.1c2.3-14.2,16.3-23.8,31.3-21.4s25.2,15.9,23,30.1C98.2,74.8,82.8,62.6,44,66.1"/>
	<ellipse transform="matrix(0.8633 -0.5048 0.5048 0.8633 -5.7917 39.4006)" class="st1" cx="69.8" cy="30.4" rx="21.4" ry="19.7"/>
	<path class="st2" d="M59.9,48.1c-5-1.2-9.6-4.6-12.7-9.1c-3-4.6-4.3-10.4-3.6-16.1c0.4-2.8,1.3-5.6,2.7-8.1
		c1.4-2.5,3.2-4.9,5.4-6.8c2.2-1.9,4.7-3.4,7.4-4.5c2.7-1.1,5.6-1.6,8.6-1.7C73.6,1.7,79.5,3.7,84,7.4c4.5,3.7,7.6,9,8.6,14.6
		c1,5.6-0.1,11.5-3,16.2c-2.8,4.7-7.4,8.2-12.3,9.6c1.1-0.7,2.1-1.4,3.1-2.3c1-0.8,1.8-1.7,2.6-2.6c1.6-1.9,2.8-4,3.7-6.2
		c1.7-4.4,1.9-9.2,0.7-13.5c-1.2-4.3-3.9-8.1-7.4-10.7c-1.7-1.3-3.7-2.3-5.8-3c-2.1-0.7-4.2-1-6.4-1c-4.3,0.1-8.6,1.7-12,4.4
		c-3.4,2.7-5.9,6.7-7,11c-1,4.4-0.6,9.2,1.2,13.5C52.1,41.8,55.5,45.5,59.9,48.1z"/>
	<path class="st2" d="M51.5,49.2L50,50.8c-0.5,0.5-1,1-1.4,1.6c-0.9,1.1-1.8,2.2-2.5,3.4c-1.6,2.3-2.7,4.9-3.6,7.4
		c-0.9,2.5-1.4,5.2-1.6,7.8c-0.1,1.3-0.1,2.6-0.1,3.8c0,0.6,0.1,1.3,0.2,1.8c0,0.3,0.1,0.6,0.1,0.9c0,0.1,0,0.3,0.1,0.4
		c0,0.1,0.1,0.3,0.1,0.3l-10.8,0.6c0-0.4,0-0.6,0.1-0.8c0-0.2,0.1-0.5,0.1-0.7c0.1-0.4,0.1-0.9,0.2-1.3c0.2-0.8,0.4-1.6,0.6-2.4
		c0.4-1.6,1-3.1,1.6-4.6c1.2-3,2.8-5.8,4.7-8.3c1.9-2.5,3.9-4.8,6.3-6.7c1.1-1,2.4-1.8,3.6-2.7c0.6-0.4,1.3-0.8,1.9-1.1L51.5,49.2z"
		/>
	<path class="st2" d="M86.1,49.2l1.9,1.1c0.6,0.4,1.3,0.7,1.9,1.1c1.2,0.8,2.5,1.7,3.6,2.7c2.4,1.9,4.4,4.2,6.3,6.7
		c1.9,2.5,3.4,5.3,4.7,8.3c0.6,1.5,1.1,3,1.6,4.6c0.2,0.8,0.4,1.6,0.6,2.4c0.1,0.4,0.2,0.8,0.2,1.3c0,0.2,0.1,0.4,0.1,0.7
		c0,0.2,0.1,0.4,0.1,0.8l-10.8-0.6c0,0,0.1-0.1,0.1-0.3c0-0.1,0.1-0.3,0.1-0.4c0.1-0.3,0.1-0.6,0.1-0.9c0.1-0.6,0.1-1.2,0.2-1.8
		c0-1.3,0-2.5-0.1-3.8c-0.2-2.6-0.7-5.2-1.6-7.8c-0.9-2.5-2-5.1-3.6-7.4c-0.7-1.2-1.6-2.3-2.5-3.4c-0.4-0.6-0.9-1.1-1.4-1.6
		L86.1,49.2z"/>
	<g>
		<g>
			<path class="st1" d="M124.3,57c0,0-60.9-4.5-44.3,44.4C128.9,118.1,124.3,57,124.3,57z"/>
			<path class="st3" d="M110.9,87.8c-1.1,0.6-2.4,1-3.7,1.3c-1.3,0.3-2.6,0.4-4,0.4c-1.4,0-2.8-0.2-4.2-0.6c-1.4-0.4-2.7-1-4-1.6
				l3.3-4.3c0.7,0.8,1.5,1.6,2.4,2.2c0.9,0.7,1.9,1.2,3,1.7c1.1,0.4,2.2,0.7,3.5,0.9C108.4,88,109.7,88,110.9,87.8z"/>
			<path class="st3" d="M103.6,95.1c-1.1,0.6-2.4,1-3.7,1.3c-1.3,0.3-2.6,0.4-4,0.4c-1.4,0-2.8-0.2-4.2-0.6c-1.4-0.4-2.7-1-4-1.6
				l3.3-4.3c0.7,0.8,1.5,1.6,2.4,2.2c0.9,0.7,1.9,1.2,3,1.7c1.1,0.4,2.2,0.7,3.5,0.9C101.1,95.3,102.3,95.3,103.6,95.1z"/>
			<path class="st3" d="M73.7,94.4c-1-3-1.7-6.2-1.8-9.4c-0.2-3.2,0.2-6.5,1.4-9.6c1.2-3.1,3.1-5.8,5.4-8.1c2.4-2.3,5.1-4.1,8-5.5
				c5.8-2.9,12.1-4.5,18.5-5.5c3.2-0.5,6.4-0.8,9.6-1c3.2-0.2,6.4-0.3,9.7-0.1l1.6,0.1l0.1,1.7c0.3,7.2,0.1,14.5-1.1,21.7
				c-0.6,3.6-1.5,7.2-2.8,10.7c-1.3,3.5-3,6.9-5.3,10c-2.3,3.1-5.2,5.8-8.6,7.8c-3.4,2-7.2,3.2-11,3.7c-1.9,0.3-3.8,0.4-5.7,0.3
				c-1.9,0-3.8-0.2-5.7-0.5c-1.9-0.3-3.7-0.7-5.5-1.2c-0.9-0.2-1.8-0.5-2.7-0.8c-0.9-0.3-1.7-0.6-2.7-1l-3.5-1.5l2.7-2.6
				c2.8-2.7,5.7-5.3,8.5-7.9c2.9-2.6,5.7-5.2,8.6-7.8l4.3-3.9l4.3-3.9c2.9-2.6,5.8-5.2,8.7-7.7l0.4,0.4c-2.6,2.9-5.1,5.8-7.7,8.7
				l-3.9,4.3l-3.9,4.3c-2.6,2.9-5.2,5.7-7.8,8.6c-2.6,2.8-5.3,5.7-7.9,8.5l-0.8-4.1c0.7,0.2,1.5,0.5,2.3,0.7
				c0.8,0.2,1.6,0.4,2.4,0.6c1.6,0.4,3.3,0.6,5,0.8c3.3,0.4,6.7,0.4,9.9,0c3.2-0.4,6.3-1.4,9.1-2.9c2.8-1.5,5.3-3.6,7.4-6.1
				c2.1-2.5,3.7-5.5,5-8.6c1.3-3.1,2.2-6.4,2.9-9.8c1.4-6.8,1.8-13.8,1.7-20.8l1.6,1.7c-3-0.2-6.2-0.2-9.3-0.2
				c-3.1,0.1-6.2,0.3-9.3,0.7c-6.2,0.8-12.3,2-17.9,4.6c-2.8,1.3-5.5,2.8-7.7,4.9c-2.3,2-4.1,4.5-5.3,7.3c-1.2,2.8-1.7,5.9-1.7,9
				c0,3.1,0.5,6.2,1.3,9.3L73.7,94.4z"/>
		</g>
		<path class="st2" d="M76,102.1l-17.6,15.6c0,0,6.3-1.2,10.3-4.2c3.9-3,11.3-9.2,11.3-9.2L76,102.1z"/>
	</g>
	<g>
		<ellipse transform="matrix(0.227 -0.9739 0.9739 0.227 -61.1031 96.4017)" class="st0" cx="30.2" cy="86.7" rx="25.4" ry="25.7"/>
		<ellipse transform="matrix(0.227 -0.9739 0.9739 0.227 -62.8505 94.0718)" class="st1" cx="27.8" cy="86.6" rx="23.9" ry="24.1"/>
		<path class="st0" d="M50.4,109.1l9.1,9.7l8.4,8.8c1.4,1.5,3.9,1.4,5.5-0.1l0,0c1.8-1.7,2.1-4.4,0.6-6l-17.8-18.6L50.4,109.1z"/>
		<path class="st2" d="M5,80.4c0.9-6,4.1-11.8,8.9-16c2.4-2,5.2-3.7,8.3-4.8c3-1.1,6.3-1.7,9.5-1.7c3.3,0,6.5,0.6,9.6,1.7
			c3.1,1.1,6,2.8,8.5,4.9c2.5,2.1,4.7,4.7,6.3,7.6c1.7,2.9,2.8,6,3.4,9.3c1.1,6.6-0.1,13.5-3.5,19.2c-3.4,5.7-8.7,10.2-14.9,12.4
			c-3.1,1.1-6.3,1.6-9.6,1.6c-3.2-0.1-6.4-0.6-9.4-1.8c-5.9-2.3-10.9-6.7-13.7-12.1c3.8,4.8,8.9,8.2,14.5,9.7c2.8,0.8,5.7,1,8.5,0.8
			c2.8-0.2,5.6-0.9,8.2-2c5.1-2.2,9.4-6.2,12.1-11c1.3-2.4,2.2-5.1,2.6-7.8c0.5-2.7,0.5-5.5,0-8.2C53.5,77,50.7,72,46.6,68.3
			c-4.1-3.7-9.5-5.9-15.1-6.3c-5.6-0.3-11.3,1.2-16.1,4.5C10.6,69.7,7,74.7,5,80.4z"/>
		<path class="st2" d="M50.2,108.8c3.9,3.2,7.5,6.6,11.2,9.9c1.8,1.7,3.7,3.4,5.4,5.1l0.7,0.7l0.2,0.2l0.1,0.1
			c0.1,0.1,0.2,0.1,0.2,0.2c0.3,0.2,0.7,0.3,1.1,0.4c0.8,0.1,1.6-0.2,2.1-0.8c0.6-0.6,0.9-1.4,0.9-2.2c0-0.4-0.1-0.8-0.3-1.1
			c-0.1-0.2-0.2-0.3-0.3-0.5c0-0.1-0.2-0.2-0.3-0.3l-0.3-0.3c-1.7-1.8-3.4-3.7-5-5.5c-3.3-3.7-6.6-7.5-9.6-11.6
			c3.9,3.1,7.7,6.5,11.3,9.9c1.8,1.7,3.6,3.4,5.4,5.2l0.3,0.3c0.1,0.1,0.2,0.2,0.4,0.4c0.3,0.3,0.5,0.7,0.7,1
			c0.4,0.7,0.7,1.6,0.7,2.4c0.1,1.7-0.6,3.4-1.7,4.5c-1.2,1.2-2.9,1.9-4.7,1.6c-0.9-0.1-1.7-0.4-2.4-0.9c-0.2-0.1-0.4-0.3-0.5-0.4
			l-0.2-0.2l-0.2-0.2l-0.6-0.7c-1.7-1.8-3.4-3.7-5-5.5C56.5,116.6,53.2,112.8,50.2,108.8z"/>
	</g>
	<polygon class="st2" points="21.4,79.9 31.4,92.3 28.4,92.3 51.3,66.8 31.5,94.8 30.2,96.7 28.4,94.9 17.2,83.6 	"/>
</g>
</svg>
