<?xml version="1.0" encoding="utf-8"?>
<!-- Generator: Adobe Illustrator 24.2.3, SVG Export Plug-In . SVG Version: 6.00 Build 0)  -->
<svg version="1.1" xmlns="http://www.w3.org/2000/svg" xmlns:xlink="http://www.w3.org/1999/xlink" x="0px" y="0px"
	 viewBox="0 0 130 130" style="enable-background:new 0 0 130 130;" xml:space="preserve">
<style type="text/css">
	.st0{fill:#FFFFFF;}
	.st1{fill:#ED5A35;}
	.st2{fill:#203232;}
	.st3{fill:none;}
</style>
<g id="Layer_1">
	<title>Protection-2c</title>
	<circle class="st0" cx="62.8" cy="64.1" r="12"/>
	<polygon class="st0" points="111.6,3.3 88.7,24.5 87.9,37.2 65.5,57 67.1,60.5 103.8,28 110.1,19.5 	"/>
	<g>
		<g>
			<path class="st1" d="M91.1,37L69.2,55.3c-1.4-0.9-3.5-1.5-5.2-1.6c-5.3-0.3-9.4,3.8-9.7,9.1s3.8,9.8,9.1,10.1
				c5.3,0.3,9.9-3.8,10.2-9.1c0.1-1.8-0.3-3.5-1.1-4.9l18.9-17.2l12.8,0.5l21.4-19.7l-15.8-1.2l0.9-14.7L91.5,26.7"/>
			<path class="st2" d="M104.1,42.1c1.8-1.9,3.6-3.7,5.4-5.5c1.8-1.8,3.6-3.6,5.3-5.3c1.8-1.7,3.5-3.5,5.3-5.2
				c1.8-1.7,3.6-3.4,5.3-5.1l1,2.9c-2.8-0.1-5.5-0.2-8.3-0.3l-8.3-0.4l-1.9-0.1l0.1-1.9l0.2-4.1c0.1-1.4,0.1-2.7,0.3-4.1l0.3-4.1
				c0.1-1.4,0.2-2.7,0.4-4.1l2.7,1.3c-3.9,3.2-7.8,6.3-11.6,9.5c-1.9,1.6-3.9,3.2-5.8,4.8c-1.9,1.6-3.8,3.3-5.7,4.9l0.2-0.4
				C89,27,89,29,88.9,31.1c-0.1,2-0.2,4.1-0.2,6.1l0,0.3l-0.2,0.2c-1.5,1.4-3,2.9-4.5,4.3l-4.5,4.3l-4.5,4.3L70.3,55l-0.9,0.8
				l-1.1-0.7c-2.1-1.3-4.6-1.8-7-1.4c-2.4,0.4-4.6,1.6-6.1,3.4c-1.5,1.8-2.3,4.1-2.3,6.5c0,2.3,1,4.6,2.5,6.3c1.6,1.7,3.7,2.8,6,3.1
				c2.3,0.3,4.6-0.3,6.6-1.5c1.9-1.3,3.4-3.3,4-5.5c0.6-2.3,0.4-4.7-0.7-6.9l-0.7-1.4l1.1-0.9l4.8-4l4.8-4c3.2-2.6,6.4-5.3,9.7-7.9
				l0.4-0.3l0.3,0l6,0.7C99.9,41.5,102,41.8,104.1,42.1z M104.2,42.5c-2,0-4.1,0.1-6.2,0.1l-6.3,0l0.7-0.2c-3,2.9-5.9,5.8-8.9,8.7
				L79,55.3l-4.5,4.3l0.4-2.3c0.8,1.4,1.3,3,1.6,4.7c0.2,1.7,0.2,3.4-0.2,5c-0.8,3.3-2.8,6.2-5.6,8.1c-2.7,1.9-6.3,2.9-9.6,2.4
				c-3.4-0.4-6.6-2-8.8-4.6c-2.2-2.5-3.5-5.9-3.5-9.2c0-3.3,1.3-6.7,3.5-9.1c2.2-2.5,5.3-4.1,8.6-4.5c1.6-0.2,3.3-0.1,4.9,0.3
				c1.6,0.4,3.1,1.1,4.4,2.1l-2,0.1l4.8-4l4.8-4l4.8-4c1.6-1.3,3.2-2.6,4.8-4l-0.3,0.5c0.1-2,0.3-4.1,0.4-6.1c0.1-2,0.3-4.1,0.4-6.1
				l0-0.3l0.2-0.2c1.8-1.7,3.7-3.3,5.5-5.1c1.8-1.7,3.6-3.4,5.4-5.2c3.6-3.5,7.2-7,10.8-10.5l2.8-2.7l-0.1,4c0,1.4,0,2.7-0.1,4.1
				l-0.1,4.1c0,1.4-0.1,2.7-0.2,4.1l-0.2,4.1l-1.8-2l8.3,0.5c2.8,0.2,5.5,0.4,8.3,0.6l4,0.3l-3,2.6c-1.9,1.7-3.9,3.3-5.9,4.9
				c-2,1.6-3.9,3.2-5.9,4.8c-2,1.6-3.9,3.1-5.9,4.7C108.1,39.5,106.1,41,104.2,42.5z"/>
		</g>
		<g>
			<path class="st0" d="M67.1,56.1"/>
			<path class="st3" d="M41.1,32.5c6.3-1.3,13.2-2.1,20.4-2.1l0.6-21.1c0,0,0,0,0,0c0,0,0,0,0,0c0,0,0,0,0,0
				C53.2,9.3,45.9,18.9,41.1,32.5z"/>
			<path class="st3" d="M65.5,128.7L65.5,128.7c17.6-1.1,31.4-13.4,39.1-29.4c-3.9,2.3-8.5,4.3-13.6,5.9
				C85.1,118.3,76,127.1,65.5,128.7z"/>
			<path class="st3" d="M30.3,40.5c-4.2,1.2-8.1,2.6-11.5,4.2c-2.6,7.3-4,15.1-4.2,22.9c3.2-0.8,7.1-1.5,11.6-2.1
				C26.4,56.4,27.9,48,30.3,40.5z"/>
			<path class="st3" d="M62.1,9.3C62.1,9.3,62.1,9.3,62.1,9.3C62.1,9.3,62.1,9.3,62.1,9.3c-0.1,0-0.2,0-0.4,0
				C61.9,9.3,62,9.3,62.1,9.3z"/>
			<path class="st3" d="M20.7,39.7c3.5-1.9,7.4-3.6,11.7-4.9C38.7,19.7,49,9.9,60.9,9.3c-0.3,0-0.5,0-0.8,0
				C41.9,10.2,28.2,23,20.7,39.7z"/>
			<path class="st3" d="M58.7,128.5l0.5-19.1c-6.1-0.1-12-0.8-17.5-1.9C45.9,118.4,51.8,126.5,58.7,128.5z"/>
			<path class="st3" d="M82.2,107.4c-5.4,1.1-11.2,1.8-17.2,1.9l0.5,19.1C72.4,126.5,78.2,118.4,82.2,107.4z"/>
			<path class="st3" d="M33.3,105.5c-4.2-1.3-8-2.8-11.4-4.5c7.4,15.1,20.2,26.5,36.9,27.9l0-0.1C48.3,127.1,39.2,118.4,33.3,105.5z
				"/>
			<path class="st3" d="M26.1,69.1c0-0.7,0-1.4,0-2.2c-4.4,0.5-8.3,1-11.5,1.6c0,0.2,0,0.4,0,0.5c0,9,1.7,18.2,5,26.6
				c3.4,1.5,7.2,2.8,11.4,3.9C27.8,90.7,26.1,80.3,26.1,69.1z"/>
			<path class="st3" d="M66.3,10c-1.4-0.2-2.8-0.4-4.2-0.5l0.6,20.9c7.1,0,13.8,0.8,20.1,2C78.9,21.1,73.2,12.5,66.3,10z"/>
			<path class="st3" d="M93.3,99.4c5.1-1.4,9.6-3.1,13.5-5.1c3.1-8,4.8-16.6,4.8-25.2c0,0,0-0.1,0-0.1c-3.5-0.8-8.2-1.5-13.5-2
				c0,0.7,0,1.4,0,2.2C98.1,80.2,96.4,90.5,93.3,99.4z"/>
			<polygon class="st2" points="62.1,9.3 62.1,9.3 62.1,9.3 			"/>
			<path class="st2" d="M62.1,9.3C62.1,9.3,62.1,9.3,62.1,9.3C62.1,9.3,62.1,9.3,62.1,9.3C62.1,9.3,62.1,9.3,62.1,9.3
				C62.1,9.3,62.1,9.3,62.1,9.3z"/>
			<path class="st2" d="M61.7,9.3c0.1,0,0.2,0,0.3,0c-0.7,0-1.3,0-1.9,0c0.3,0,0.5,0,0.8,0C61.2,9.3,61.5,9.3,61.7,9.3z"/>
			<polygon class="st2" points="62.1,9.3 62.1,9.3 62.1,9.3 62.1,9.3 			"/>
			<polygon class="st2" points="62.1,9.3 62.1,9.3 62.1,9.3 			"/>
			<path class="st2" d="M60.9,9.3c0.3,0,0.5,0,0.8,0C61.5,9.3,61.2,9.3,60.9,9.3z"/>
			<polygon class="st2" points="62.1,9.3 62.1,9.3 62.1,9.3 			"/>
			<polygon class="st2" points="62.1,9.3 62.1,9.3 62.1,9.3 			"/>
			<polygon class="st2" points="62.1,9.3 62.1,9.3 62.1,9.3 			"/>
			<path class="st2" d="M58.7,128.7l0,0.1c1.1,0.1,2.2,0.2,3.4,0.2c-0.3,0-0.6,0-0.9,0C60.4,128.9,59.6,128.8,58.7,128.7z"/>
			<path class="st2" d="M58.7,128.9h3.4C61,128.9,59.9,128.9,58.7,128.9L58.7,128.9z"/>
			<polygon class="st2" points="62.1,9.3 62.1,9.3 62.1,9.3 			"/>
			<polygon class="st2" points="62.1,9.3 62.1,9.3 62.1,9.3 			"/>
			<path class="st2" d="M64.1,128.9c-0.7,0-1.3,0.1-2,0.1C62.8,128.9,63.4,128.9,64.1,128.9z"/>
			<path class="st2" d="M58.7,128.8c1.1,0.1,2.2,0.1,3.4,0.1C61,128.9,59.8,128.9,58.7,128.8L58.7,128.8z"/>
			<path class="st2" d="M63,128.9c0.8,0,1.7-0.1,2.5-0.2l0-0.2C64.6,128.7,63.8,128.8,63,128.9z"/>
			<path class="st2" d="M62.1,128.9c0.3,0,0.6,0,0.9,0C62.7,128.9,62.4,128.9,62.1,128.9z"/>
			<path class="st2" d="M61.2,128.9c-0.8-0.1-1.7-0.2-2.5-0.5l0,0.2C59.6,128.8,60.4,128.9,61.2,128.9z"/>
			<path class="st2" d="M62.1,128.9c-0.3,0-0.6,0-0.9,0C61.5,128.9,61.8,128.9,62.1,128.9z"/>
			<path class="st2" d="M71.4,11.2c-2.9-1.3-6-1.9-9.3-1.9c0,0,0,0,0,0c0,0,0,0,0,0c0,0,0,0,0,0h0c1.5,0,2.9,0.3,4.2,0.8
				C68,10.3,69.7,10.7,71.4,11.2z"/>
			<polygon class="st2" points="62.1,9.3 62.1,9.3 62.1,9.3 			"/>
			<polygon class="st2" points="62.1,9.3 62.1,9.3 62.1,9.3 			"/>
			<polygon class="st2" points="62.1,9.3 62.1,9.3 62.1,9.3 			"/>
			<g>
				<path class="st2" d="M89.5,18.7c-8-5.9-17.4-9.5-27.4-9.5c3.2,0,6.3,0.7,9.3,1.9C77.4,13,83,16,88,20.1L89.5,18.7z"/>
				<path class="st2" d="M113.9,39.2l-4.6,4.2l0,0l-2.2,2l-0.3,0.3c2.9,7.1,4.6,14.8,4.7,22.3c-3.5-1-8.1-1.9-13.5-2.6
					c-0.2-7.2-1.2-14-2.8-20.2l-2.4-0.2l-5.7,5.5c0.7,4.5,1.1,9.2,1.3,13.9c-3.1-0.3-6.3-0.5-9.7-0.6c0,0.6,0,1.2-0.1,1.8
					c3.4,0.1,6.7,0.3,9.9,0.5c0,1,0,2,0,3c0,11.1-1.6,22.5-4.4,32.3c-6.2,1.1-12.8,1.8-19.4,1.9l-0.7-23.6c-0.8,0.1-1.5,0.1-2.3,0.1
					c-0.6,0-1.1-0.1-1.6-0.2l-0.7,23.7c-6.7-0.1-13.4-0.8-19.7-1.9c-2.9-9.9-4.6-21.3-4.6-32.4c0-1,0-2,0-2.9
					c3.7-0.3,7.6-0.5,11.6-0.6c-0.1-0.6-0.1-1.2-0.1-1.8c-4,0.2-7.8,0.4-11.4,0.8c0.4-8.9,1.7-17.9,4-26c7.1-1.3,14.6-2,22.1-2
					L61,47.8c0.5-0.1,1.1-0.1,1.7-0.1c0.2,0,0.3,0,0.5,0l-0.3-11.2c6.3,0,12.7,0.5,18.8,1.5l2.2-1.9l0.5-0.5l0.2-2.8l0.6-10
					c-3.9-5.4-8.6-9.4-13.8-11.6c-1.7-0.5-3.3-0.9-5-1.2c6.9,2.5,12.6,11.1,16.4,22.4c-6.2-1.3-13-2-20.1-2L62.1,9.5
					c1.4,0.1,2.8,0.3,4.2,0.5c-1.4-0.5-2.8-0.8-4.2-0.8c0,0,0,0,0,0l-0.6,21.1c-7.2,0-14.1,0.8-20.4,2.1c4.8-13.6,12.1-23.2,21-23.2
					c-0.1,0-0.2,0-0.4,0c-0.3,0-0.5,0-0.8,0C49,9.9,38.7,19.7,32.4,34.8c-4.3,1.4-8.2,3-11.7,4.9C28.2,23,41.9,10.2,60.1,9.3
					C28,10.4,2.3,36.8,2.3,69.1c0,31.9,25,58,56.5,59.7l0-0.1c-16.7-1.4-29.4-12.8-36.9-27.9c3.4,1.7,7.2,3.3,11.4,4.5
					c5.9,13,15,21.7,25.5,23.2l0-0.2c-7-2-12.9-10-17-20.9c5.5,1.1,11.4,1.7,17.5,1.9l-0.5,19.1c0.8,0.2,1.6,0.4,2.5,0.5
					c0.3,0,0.6,0,0.9,0c0.7,0,1.3,0,2-0.1c32.1-1.1,57.8-27.5,57.8-59.8C121.9,58.2,119,48,113.9,39.2z M18.8,44.7
					c3.4-1.6,7.3-3,11.5-4.2c-2.4,7.5-3.9,15.9-4.2,25c-4.5,0.6-8.4,1.3-11.6,2.1C14.7,59.8,16.2,52,18.8,44.7z M19.6,95.7
					c-3.3-8.4-5-17.5-5-26.6c0-0.2,0-0.4,0-0.5c3.2-0.6,7.1-1.2,11.5-1.6c0,0.7,0,1.4,0,2.2c0,11.2,1.8,21.6,4.9,30.5
					C26.8,98.5,23,97.2,19.6,95.7z M65.5,128.7L65.5,128.7c-0.8,0.1-1.7,0.2-2.5,0.2c0.8-0.1,1.7-0.2,2.5-0.5l-0.5-19.1
					c6-0.2,11.8-0.8,17.2-1.9c-4,10.9-9.7,19-16.7,21L65.5,128.7c10.6-1.6,19.7-10.4,25.6-23.5c5.1-1.6,9.7-3.6,13.6-5.9
					C96.8,115.3,83,127.6,65.5,128.7z M106.8,94.3c-3.8,2-8.4,3.7-13.5,5.1c3.1-8.8,4.8-19.1,4.8-30.3c0-0.7,0-1.4,0-2.2
					c5.3,0.6,10,1.2,13.5,2c0,0,0,0.1,0,0.1C111.6,77.6,109.9,86.3,106.8,94.3z"/>
			</g>
		</g>
	</g>
</g>
<g id="Layer_2">
</g>
<g id="Layer_3">
</g>
</svg>
