<?xml version="1.0" encoding="utf-8"?>
<!-- Generator: Adobe Illustrator 24.2.3, SVG Export Plug-In . SVG Version: 6.00 Build 0)  -->
<svg version="1.1" id="Layer_1" xmlns="http://www.w3.org/2000/svg" xmlns:xlink="http://www.w3.org/1999/xlink" x="0px" y="0px"
	 viewBox="0 0 130 130" style="enable-background:new 0 0 130 130;" xml:space="preserve">
<style type="text/css">
	.st0{fill:#EA5A35;}
	.st1{fill:#213232;}
	.st2{fill:none;stroke:#203232;stroke-width:4;stroke-linecap:round;stroke-miterlimit:10;}
	.st3{fill:#FFFFFF;stroke:#203232;stroke-width:4;stroke-linecap:round;stroke-miterlimit:10;}
	.st4{fill:#FFFFFF;}
	.st5{fill:#FFFFFF;stroke:#203232;stroke-width:0.5;stroke-miterlimit:10;}
	.st6{fill:#ED5A36;}
	.st7{fill:#FFFFFF;stroke:#203232;stroke-width:2;stroke-linecap:round;stroke-miterlimit:10;}
	.st8{fill:#203232;}
	.st9{fill:none;stroke:#203232;stroke-width:0.5;stroke-miterlimit:10;}
</style>
<g id="Capa_1">
</g>
<g id="Layer_2_1_">
	<ellipse transform="matrix(0.7071 -0.7071 0.7071 0.7071 -29.5361 65.2234)" class="st0" cx="64" cy="68.3" rx="55.6" ry="55.6"/>
	<rect x="96.4" y="40.4" class="st1" width="26.5" height="12.3"/>
	<line class="st2" x1="14.6" y1="93.7" x2="116.2" y2="93.7"/>
	<polyline class="st3" points="121,83.8 121,54.2 9,54.2 9,80.4 17,92.6 116.2,92.8 	"/>
	<g>
		<rect x="95.3" y="45.3" class="st4" width="23.2" height="5"/>
	</g>
	<g>
		<polygon class="st4" points="20.6,101.1 111.9,101 111.9,96.2 		"/>
		<polygon class="st4" points="20.6,109.2 106.6,109.1 111.9,104.3 		"/>
	</g>
	<polygon class="st1" points="28.8,103.1 111.4,103.1 111.4,98.5 	"/>
	<polygon class="st1" points="28.2,110.8 105.2,110.8 105.2,106.4 	"/>
	<g>
		<polygon class="st5" points="62.3,30.2 37.2,41.2 37.2,96.2 92.6,96.2 92.6,41.1 71.5,31.2 		"/>
		<g>
			<path class="st6" d="M82.6,74.7c-1.3,0.1-2.3,1.3-2.3,2.6v7.1c0,1.2,0.8,2.2,1.9,2.5c1.6,0.3,3-0.9,3-2.4v-7.3
				C85.2,75.8,84,74.6,82.6,74.7z"/>
			<path class="st6" d="M48.4,86.9c1.3-0.1,2.3-1.3,2.3-2.6v-7.1c0-1.2-0.8-2.2-1.9-2.5c-1.6-0.3-3,0.9-3,2.4v7.3
				C45.8,85.9,47,87,48.4,86.9z"/>
			<path class="st6" d="M82.2,60.1c-1.1,0.2-1.9,1.3-1.9,2.5v4.8c0,1.2,0.8,2.2,1.9,2.5c1.6,0.3,3-0.9,3-2.4v-5
				C85.2,61,83.8,59.8,82.2,60.1z"/>
			<path class="st6" d="M101.6,74.7c-1.3,0.1-2.3,1.3-2.3,2.6v7.1c0,1.2,0.8,2.2,1.9,2.5c1.6,0.3,3-0.9,3-2.4v-7.3
				C104.2,75.8,103.1,74.6,101.6,74.7z"/>
			<path class="st6" d="M101.3,60.1c-1.1,0.2-1.9,1.3-1.9,2.5v4.8c0,1.2,0.8,2.2,1.9,2.5c1.6,0.3,3-0.9,3-2.4v-5
				C104.2,61,102.8,59.8,101.3,60.1z"/>
			<path class="st6" d="M113.6,74.7c-1.3,0.1-2.3,1.3-2.3,2.6v7.1c0,1.2,0.8,2.2,1.9,2.5c1.6,0.3,3-0.9,3-2.4v-7.3
				C116.2,75.8,115,74.6,113.6,74.7z"/>
			<path class="st6" d="M113.2,60.1c-1.1,0.2-1.9,1.3-1.9,2.5v4.8c0,1.2,0.8,2.2,1.9,2.5c1.6,0.3,3-0.9,3-2.4v-5
				C116.2,61,114.8,59.8,113.2,60.1z"/>
			<path class="st6" d="M67.9,62.5c0-1.5-1.4-2.7-3-2.4c-1.1,0.2-1.9,1.3-1.9,2.5v4.8c0,1.2,0.8,2.2,1.9,2.5c1.6,0.3,3-0.9,3-2.4
				V62.5z"/>
			<path class="st6" d="M48.4,69.9c1.3-0.1,2.3-1.3,2.3-2.6v-4.8c0-1.2-0.8-2.2-1.9-2.5c-1.6-0.3-3,0.9-3,2.4v5
				C45.8,68.9,47,70,48.4,69.9z"/>
			<path class="st6" d="M28.3,86.9c1.3-0.1,2.3-1.3,2.3-2.6v-7.1c0-1.2-0.8-2.2-1.9-2.5c-1.6-0.3-3,0.9-3,2.4v7.3
				C25.7,85.9,26.9,87,28.3,86.9z"/>
			<path class="st6" d="M28.3,69.9c1.3-0.1,2.3-1.3,2.3-2.6v-4.8c0-1.2-0.8-2.2-1.9-2.5c-1.6-0.3-3,0.9-3,2.4v5
				C25.7,68.9,26.9,70,28.3,69.9z"/>
			<path class="st6" d="M15.8,86.9c1.3-0.1,2.3-1.3,2.3-2.6v-7.1c0-1.2-0.8-2.2-1.9-2.5c-1.6-0.3-3,0.9-3,2.4v7.3
				C13.2,85.9,14.4,87,15.8,86.9z"/>
			<path class="st6" d="M15.8,69.9c1.3-0.1,2.3-1.3,2.3-2.6v-4.8c0-1.2-0.8-2.2-1.9-2.5c-1.6-0.3-3,0.9-3,2.4v5
				C13.2,68.9,14.4,70,15.8,69.9z"/>
			<path class="st1" d="M97.3,92h-2.4V56.1h2.4V40.2L66.5,25.7c-0.7-0.3-1.4-0.3-2.1,0l-29,13.7c-1.3,0.6-2.4,0.9-2.5,1.8v2.9
				c0,0.7,0,8.8,0,6.8v4.5c0,0.4,0.3,0.7,0.7,0.7H36V92h-1.1c-1.1,0-2.1,0.9-2.1,2.1V97h64.4v-5H97.3z M65.4,30.7l20.7,9.7
				l-44.9,2.8 M53.2,92H40.9V55.2h12.3V92z M72.8,92h-4.9V77.2c0-1.2-0.8-2.2-1.9-2.5c-1.6-0.3-3,0.9-3,2.4v14.8h-4.8V55.1h14.7V92
				H72.8z M89.9,92H77.7V55.2h12.2V92z M40.9,45.3h49v5h-49V45.3"/>
		</g>
		<g>
			<rect x="65.5" y="11.3" class="st7" width="14.8" height="8.2"/>
			<rect x="66.3" y="12.2" class="st8" width="4.6" height="3"/>
			<line class="st9" x1="71.5" y1="14.2" x2="78.7" y2="14.2"/>
			<line class="st9" x1="71.5" y1="13.1" x2="78.7" y2="13.1"/>
			<line class="st9" x1="71.5" y1="15.3" x2="78.7" y2="15.3"/>
			<line class="st9" x1="67.4" y1="16.5" x2="78.7" y2="16.5"/>
			<line class="st9" x1="67.4" y1="17.7" x2="78.7" y2="17.7"/>
			<line class="st2" x1="65.5" y1="27.9" x2="65.5" y2="8.4"/>
		</g>
	</g>
	<rect x="10.3" y="40.4" class="st1" width="23.6" height="11.9"/>
	<g>
		<rect x="12.3" y="45.3" class="st4" width="23.6" height="5"/>
	</g>
	<line class="st2" x1="114.2" y1="95.7" x2="17" y2="95.7"/>
	<g>
		<path class="st8" d="M125.6,58.4c0.7,6.1,0.5,12.3-0.7,18.4c-1.2,6.1-3.3,12-6.2,17.6c-5.8,11.1-15.5,20.6-27.2,26
			c-11.7,5.5-25.2,6.9-38,4.5c-6.4-1.2-12.6-3.5-18.3-6.7c-5.7-3.2-10.9-7.3-15.4-12.1C11,96.4,5.4,83.8,4.2,70.8
			c-0.6-6.5-0.3-13,1.1-19.4c1.4-6.3,3.8-12.4,7-18C18.9,22.2,29,13.6,40.4,8.3c1.4-0.7,2.9-1.2,4.4-1.8c1.5-0.5,3-1,4.5-1.4
			s3-0.8,4.5-1.1c0.8-0.1,1.5-0.3,2.3-0.4l2.3-0.3c6.2-0.8,12.4-0.5,18.4,0.8C52.4,2.6,29.1,16.6,18.5,36.9
			C15.9,42,14.1,47.4,13.1,53c-0.9,5.6-1.1,11.3-0.4,16.9s2.2,11.1,4.6,16.2c2.3,5.1,5.4,9.9,9.2,14c3.8,4.1,8.2,7.7,13.1,10.5
			s10.2,4.8,15.7,6s11.2,1.5,16.9,1.2c1.4-0.1,2.8-0.3,4.2-0.5c1.4-0.3,2.8-0.5,4.2-0.8s2.8-0.6,4.1-1.1c0.7-0.2,1.4-0.4,2-0.7
			l2-0.8c10.6-4.2,19.9-11.8,26.3-21.7c3.3-4.9,5.8-10.3,7.6-16c0.9-2.8,1.6-5.8,2.1-8.7C125.1,64.5,125.4,61.5,125.6,58.4z"/>
	</g>
</g>
</svg>
