<svg id="Layer_1" data-name="Layer 1" xmlns="http://www.w3.org/2000/svg" width="640" height="660" viewBox="0 0 640 660"><defs><style>.cls-1,.cls-2{fill:none;stroke-miterlimit:10;stroke-width:3px;}.cls-1{stroke:#203434;}.cls-2{stroke:#0075c9;}.cls-3{fill:#0075c9;}.cls-4{fill:#fff;}.cls-5{fill:#6e7b7b;}.cls-6{fill:#203434;}</style></defs><line class="cls-1" x1="171.74" y1="353.56" x2="171.74" y2="525.95"/><line class="cls-1" x1="467.29" y1="353.56" x2="467.29" y2="525.95"/><polyline class="cls-2" points="171.31 272.58 171.15 205.25 466.8 205.25 466.8 271.7"/><rect class="cls-3" x="185.1" y="79.32" width="270.61" height="73.82"/><path class="cls-4" d="M230.88,122.64H228.2l-1.09-2.93h-5.37l-1.09,2.93H218l4.9-12.58h3Zm-8.28-5.24h3.64l-1.81-4.86Z"/><path class="cls-4" d="M242.73,111.76l-1.8,1.77a4.1,4.1,0,1,0-3.08,7,3.23,3.23,0,0,0,3.57-2.78h-3.2v-2.09H244a5.62,5.62,0,0,1,0,.71c0,3.81-2.57,6.49-6.14,6.49a6.52,6.52,0,1,1,4.83-11.1Z"/><path class="cls-4" d="M255.12,117.54h-6.31v5.1H246.3V110.06h9.24v2.31h-6.73v2.86h6.31Z"/><path class="cls-4" d="M271.67,122.64h-9.4V110.06h9.33v2.3h-6.82v2.78h6.5v2.31h-6.5v2.89h6.89Z"/><path class="cls-4" d="M276.39,122.64H274V109.7h2.35Z"/><path class="cls-4" d="M287,118.27a6.06,6.06,0,0,1-.05.79h-6.17a2.1,2.1,0,0,0,2.24,1.81,3.54,3.54,0,0,0,2.2-.84l1.37,1.51a5.26,5.26,0,0,1-3.71,1.32,4.58,4.58,0,0,1-.11-9.16C285.22,113.7,286.94,115.56,287,118.27Zm-6.21-.81h3.85a1.93,1.93,0,0,0-3.85,0Z"/><path class="cls-4" d="M303,117.09v5.55h-2.34v-4.79c0-1.26-.63-1.95-1.69-1.95a1.79,1.79,0,0,0-1.85,2v4.77h-2.34v-4.79c0-1.26-.63-1.95-1.7-1.95a1.78,1.78,0,0,0-1.84,2v4.77h-2.35v-8.71h2.28v1a2.92,2.92,0,0,1,2.57-1.26,3.28,3.28,0,0,1,2.87,1.49,3.27,3.27,0,0,1,3-1.49A3.23,3.23,0,0,1,303,117.09Z"/><path class="cls-4" d="M313.46,118.27a6.06,6.06,0,0,1,0,.79h-6.17a2.1,2.1,0,0,0,2.24,1.81,3.54,3.54,0,0,0,2.2-.84l1.37,1.51a5.25,5.25,0,0,1-3.71,1.32,4.58,4.58,0,0,1-.11-9.16C311.73,113.7,313.45,115.56,313.46,118.27Zm-6.21-.81h3.85a1.93,1.93,0,0,0-3.85,0Z"/><path class="cls-4" d="M323.6,117.09v5.55h-2.34v-4.79c0-1.26-.63-1.95-1.7-1.95a1.78,1.78,0,0,0-1.84,2v4.77h-2.35v-8.71h2.29v1a2.91,2.91,0,0,1,2.56-1.26A3.24,3.24,0,0,1,323.6,117.09Z"/><path class="cls-4" d="M332.22,116h-3.15v3.18c0,1.08.57,1.48,1.3,1.48a3.4,3.4,0,0,0,1.64-.57l.86,1.84a4.84,4.84,0,0,1-2.88.91c-2.16,0-3.27-1.22-3.27-3.47V116H325v-2.09h1.68v-2.59h2.35v2.59h3.15Z"/><path class="cls-4" d="M340.54,116.36a7.11,7.11,0,0,0-2.78-.71c-.89,0-1.34.31-1.34.79s.63.63,1.42.74l.77.12c1.89.29,2.94,1.13,2.94,2.61,0,1.79-1.47,3-4,3a6.93,6.93,0,0,1-3.87-1l.92-1.78a5.16,5.16,0,0,0,3,.85c1.09,0,1.61-.3,1.61-.81s-.44-.66-1.45-.8l-.71-.1c-2-.28-3-1.16-3-2.64,0-1.79,1.39-2.85,3.68-2.85a7.88,7.88,0,0,1,3.64.82Z"/><path class="cls-4" d="M350.56,118v4.6h-2.51V110.06h5.13c3,0,4.6,1.56,4.6,4s-1.6,4-4.58,4Zm0-5.67v3.38h2.57c1.37,0,2.08-.56,2.08-1.69s-.71-1.69-2.08-1.69Z"/><path class="cls-4" d="M368.29,118.28a4.71,4.71,0,1,1-4.71-4.58A4.52,4.52,0,0,1,368.29,118.28Zm-7,0a2.32,2.32,0,1,0,2.31-2.4A2.28,2.28,0,0,0,361.27,118.28Z"/><path class="cls-4" d="M376.16,113.89l-.35,2.32a3.86,3.86,0,0,0-1.42-.27,1.73,1.73,0,0,0-1.83,2v4.75h-2.35v-8.71h2.27v.95a2.77,2.77,0,0,1,2.46-1.18A3.51,3.51,0,0,1,376.16,113.89Z"/><path class="cls-4" d="M384.25,116H381.1v3.18c0,1.08.58,1.48,1.3,1.48a3.4,3.4,0,0,0,1.64-.57l.86,1.84a4.84,4.84,0,0,1-2.88.91c-2.16,0-3.26-1.22-3.26-3.47V116h-1.68v-2.09h1.68v-2.59h2.34v2.59h3.15Z"/><path class="cls-4" d="M392,116h-2.7v6.62H387V116h-1.63v-2.09H387v-1.08c0-2,1.09-3.38,3.12-3.38a4.66,4.66,0,0,1,2.68.79l-.94,1.82a3.19,3.19,0,0,0-1.49-.42c-.67,0-1,.41-1,1.22v1.05H392Z"/><path class="cls-4" d="M402.37,118.28a4.71,4.71,0,1,1-4.72-4.58A4.53,4.53,0,0,1,402.37,118.28Zm-7,0a2.31,2.31,0,1,0,2.3-2.4A2.27,2.27,0,0,0,395.35,118.28Z"/><path class="cls-4" d="M406.63,122.64h-2.34V109.7h2.34Z"/><path class="cls-4" d="M411.75,111.08a1.5,1.5,0,0,1-3,0,1.5,1.5,0,1,1,3,0Zm-.31,11.56h-2.35v-8.71h2.35Z"/><path class="cls-4" d="M422.78,118.28a4.71,4.71,0,1,1-4.72-4.58A4.53,4.53,0,0,1,422.78,118.28Zm-7,0a2.32,2.32,0,1,0,2.31-2.4A2.28,2.28,0,0,0,415.75,118.28Z"/><rect class="cls-5" x="373.16" y="411.2" width="187.9" height="59.05"/><path class="cls-4" d="M401,441.89c0,2.93-1.87,4.42-4.56,4.42s-4.56-1.49-4.56-4.42v-6.36H394v6.26a2.45,2.45,0,1,0,4.89,0v-6.26H401Z"/><path class="cls-4" d="M410,441.45v4.67h-2v-4c0-1.06-.53-1.64-1.43-1.64a1.5,1.5,0,0,0-1.55,1.65v4h-2v-7.33H405v.86a2.46,2.46,0,0,1,2.16-1.06A2.73,2.73,0,0,1,410,441.45Z"/><path class="cls-4" d="M417.28,439.56v-4.33h2v10.89h-1.93v-.81a2.68,2.68,0,0,1-2.19,1,3.87,3.87,0,0,1,0-7.72A2.67,2.67,0,0,1,417.28,439.56Zm-3.69,2.89a1.89,1.89,0,1,0,1.89-2A1.89,1.89,0,0,0,413.59,442.45Z"/><path class="cls-4" d="M428.13,442.44a6.59,6.59,0,0,1,0,.67h-5.2a1.76,1.76,0,0,0,1.88,1.52,3,3,0,0,0,1.86-.7l1.15,1.27a4.46,4.46,0,0,1-3.12,1.11,3.86,3.86,0,0,1-.1-7.72A3.54,3.54,0,0,1,428.13,442.44Zm-5.22-.68h3.24a1.63,1.63,0,0,0-3.24,0Z"/><path class="cls-4" d="M434.76,438.75l-.3,2a3.23,3.23,0,0,0-1.19-.23,1.47,1.47,0,0,0-1.55,1.65v4h-2v-7.33h1.91v.8a2.34,2.34,0,0,1,2.07-1A3.27,3.27,0,0,1,434.76,438.75Z"/><path class="cls-4" d="M438.08,446.12h-2V435.23h2Z"/><path class="cls-4" d="M442,449.18h-2.17l2.57-4.62-3.16-5.77h2.24l2,3.77,1.95-3.77h2.16Z"/><path class="cls-4" d="M450.93,436.39a1.26,1.26,0,1,1-1.26-1.27A1.24,1.24,0,0,1,450.93,436.39Zm-.26,9.73h-2v-7.33h2Z"/><path class="cls-4" d="M459.67,441.45v4.67h-2v-4c0-1.06-.53-1.64-1.43-1.64a1.5,1.5,0,0,0-1.55,1.65v4h-2v-7.33h1.92v.86a2.45,2.45,0,0,1,2.16-1.06A2.73,2.73,0,0,1,459.67,441.45Z"/><path class="cls-4" d="M466.87,439.61v-.82h1.94v6.73c0,2.35-1.54,3.77-4,3.77a5.71,5.71,0,0,1-3.2-.89l.7-1.61a4.27,4.27,0,0,0,2.42.75,1.87,1.87,0,0,0,2.09-1.94v-.52a2.75,2.75,0,0,1-2.26,1,3.77,3.77,0,0,1,0-7.49A2.77,2.77,0,0,1,466.87,439.61Zm-3.61,2.73a1.84,1.84,0,1,0,1.84-1.93A1.82,1.82,0,0,0,463.26,442.34Z"/><path class="cls-4" d="M484.37,446.12h-2.26l-.92-2.47h-4.51l-.93,2.47h-2.2l4.12-10.59h2.58Zm-7-4.41h3.06l-1.52-4.09Z"/><path class="cls-4" d="M494.35,437l-1.52,1.49a3.45,3.45,0,1,0-2.6,5.89,2.72,2.72,0,0,0,3-2.33h-2.7v-1.77h4.87a4.09,4.09,0,0,1,0,.6,5.13,5.13,0,0,1-5.17,5.47,5.49,5.49,0,1,1,4.07-9.35Z"/><path class="cls-4" d="M504.78,441.83h-5.31v4.29h-2.11V435.53h7.77v2h-5.66v2.41h5.31Z"/><path class="cls-4" d="M518.23,441.83h-5.31v4.29h-2.11V435.53h7.77v2h-5.66v2.41h5.31Z"/><path class="cls-4" d="M527,443a3.47,3.47,0,0,1-6.94,0v-4.21h2v4c0,1.17.64,1.65,1.49,1.65s1.5-.48,1.5-1.65v-4h2Z"/><path class="cls-4" d="M535.94,441.45v4.67h-2v-4c0-1.06-.53-1.64-1.43-1.64A1.5,1.5,0,0,0,531,442.1v4h-2v-7.33h1.93v.86a2.45,2.45,0,0,1,2.15-1.06A2.73,2.73,0,0,1,535.94,441.45Z"/><path class="cls-4" d="M543.21,439.56v-4.33h2v10.89h-1.92v-.81a2.7,2.7,0,0,1-2.2,1,3.87,3.87,0,0,1,0-7.72A2.66,2.66,0,0,1,543.21,439.56Zm-3.69,2.89a1.9,1.9,0,1,0,1.9-2A1.89,1.89,0,0,0,539.52,442.45Z"/><rect class="cls-5" x="373.16" y="520.25" width="187.9" height="59.05"/><path class="cls-4" d="M404.79,550.76c0,2.93-1.87,4.42-4.56,4.42s-4.56-1.49-4.56-4.42V544.4h2.12v6.25a2.44,2.44,0,1,0,4.88,0V544.4h2.12Z"/><path class="cls-4" d="M413.84,550.32V555h-2v-4c0-1.05-.53-1.64-1.43-1.64a1.51,1.51,0,0,0-1.55,1.66v4h-2v-7.33h1.93v.86a2.45,2.45,0,0,1,2.15-1.06A2.73,2.73,0,0,1,413.84,550.32Z"/><path class="cls-4" d="M421.11,548.42v-4.33h2V555h-1.92v-.81a2.7,2.7,0,0,1-2.2,1,3.87,3.87,0,0,1,0-7.72A2.68,2.68,0,0,1,421.11,548.42Zm-3.69,2.9a1.9,1.9,0,1,0,1.9-2A1.89,1.89,0,0,0,417.42,551.32Z"/><path class="cls-4" d="M432,551.31a6.36,6.36,0,0,1,0,.67h-5.2a1.78,1.78,0,0,0,1.89,1.52,3,3,0,0,0,1.85-.71l1.16,1.27a4.44,4.44,0,0,1-3.13,1.12,3.86,3.86,0,0,1-.09-7.72A3.54,3.54,0,0,1,432,551.31Zm-5.23-.68H430a1.63,1.63,0,0,0-3.25,0Z"/><path class="cls-4" d="M438.59,547.62l-.3,2a3,3,0,0,0-1.19-.24,1.46,1.46,0,0,0-1.54,1.65v4h-2v-7.33h1.92v.8a2.3,2.3,0,0,1,2.06-1A3,3,0,0,1,438.59,547.62Z"/><path class="cls-4" d="M441.91,555h-2v-10.9h2Z"/><path class="cls-4" d="M445.81,558h-2.16l2.56-4.61-3.16-5.77h2.24l2,3.76,1.95-3.76h2.17Z"/><path class="cls-4" d="M454.76,545.26a1.26,1.26,0,0,1-2.52,0,1.26,1.26,0,1,1,2.52,0ZM454.5,555h-2v-7.33h2Z"/><path class="cls-4" d="M463.5,550.32V555h-2v-4c0-1.05-.53-1.64-1.43-1.64a1.51,1.51,0,0,0-1.55,1.66v4h-2v-7.33h1.92v.86a2.47,2.47,0,0,1,2.16-1.06A2.73,2.73,0,0,1,463.5,550.32Z"/><path class="cls-4" d="M470.71,548.47v-.81h1.93v6.72c0,2.35-1.53,3.78-3.95,3.78a5.81,5.81,0,0,1-3.21-.89l.7-1.61a4.4,4.4,0,0,0,2.42.75,1.87,1.87,0,0,0,2.09-1.95V554a2.77,2.77,0,0,1-2.25,1,3.76,3.76,0,0,1,0-7.48A2.78,2.78,0,0,1,470.71,548.47Zm-3.62,2.73a1.84,1.84,0,1,0,1.85-1.92A1.83,1.83,0,0,0,467.09,551.2Z"/><path class="cls-4" d="M488.2,555H486l-.93-2.47h-4.51l-.92,2.47h-2.21l4.13-10.59h2.57Zm-7-4.41h3.06l-1.53-4.1Z"/><path class="cls-4" d="M498.18,545.83l-1.52,1.49a3.45,3.45,0,1,0-2.59,5.89,2.72,2.72,0,0,0,3-2.34h-2.69v-1.76h4.87q0,.3,0,.6a5.13,5.13,0,0,1-5.18,5.47,5.49,5.49,0,1,1,4.07-9.35Z"/><path class="cls-4" d="M508.61,550.7H503.3V555h-2.11V544.4H509v1.94H503.3v2.41h5.31Z"/><path class="cls-4" d="M522.55,555h-7.91V544.4h7.85v1.93h-5.74v2.35h5.48v1.93h-5.48v2.44h5.8Z"/><path class="cls-4" d="M532.44,546.37h-3.29V555H527v-8.62h-3.28v-2h8.68Z"/><path class="cls-4" d="M541.3,550.7H536V555h-2.11V544.4h7.78v1.94H536v2.41h5.31Z"/><rect class="cls-5" x="77.79" y="411.2" width="187.9" height="59.05"/><path class="cls-4" d="M99.67,441.62v3.88H97.56V434.91h4.32c2.53,0,3.87,1.31,3.87,3.36s-1.34,3.35-3.85,3.35Zm0-4.77v2.85h2.17c1.15,0,1.75-.47,1.75-1.43s-.6-1.42-1.75-1.42Z"/><path class="cls-4" d="M114.61,441.83a4,4,0,1,1-4-3.86A3.81,3.81,0,0,1,114.61,441.83Zm-5.92,0a2,2,0,1,0,2-2A1.92,1.92,0,0,0,108.69,441.83Z"/><path class="cls-4" d="M121.23,438.13l-.29,2a3.33,3.33,0,0,0-1.2-.24,1.47,1.47,0,0,0-1.54,1.65v4h-2v-7.33h1.92v.8a2.3,2.3,0,0,1,2.06-1A2.93,2.93,0,0,1,121.23,438.13Z"/><path class="cls-4" d="M128.05,439.92H125.4v2.68c0,.92.48,1.25,1.09,1.25a2.9,2.9,0,0,0,1.38-.48l.73,1.54a4.12,4.12,0,0,1-2.43.78c-1.82,0-2.75-1-2.75-2.93v-2.84H122v-1.75h1.41V436h2v2.18h2.65Z"/><path class="cls-4" d="M134.58,439.92H132.3v5.58h-2v-5.58H129v-1.75h1.37v-.91a2.51,2.51,0,0,1,2.63-2.84,3.9,3.9,0,0,1,2.25.65l-.79,1.54a2.61,2.61,0,0,0-1.25-.36c-.57,0-.87.35-.87,1v.89h2.28Z"/><path class="cls-4" d="M143.31,441.83a4,4,0,1,1-4-3.86A3.82,3.82,0,0,1,143.31,441.83Zm-5.92,0a2,2,0,1,0,1.94-2A1.91,1.91,0,0,0,137.39,441.83Z"/><path class="cls-4" d="M146.9,445.5h-2V434.61h2Z"/><path class="cls-4" d="M151.21,435.77A1.26,1.26,0,1,1,150,434.5,1.24,1.24,0,0,1,151.21,435.77Zm-.27,9.73h-2v-7.33h2Z"/><path class="cls-4" d="M160.49,441.83a4,4,0,1,1-4-3.86A3.81,3.81,0,0,1,160.49,441.83Zm-5.91,0a1.95,1.95,0,1,0,1.94-2A1.91,1.91,0,0,0,154.58,441.83Z"/><path class="cls-4" d="M175.61,437.09l-1.81,1.11a3.16,3.16,0,0,0-2.74-1.46,3.47,3.47,0,0,0,0,6.93,3.24,3.24,0,0,0,2.76-1.46l1.72,1.24a5.26,5.26,0,0,1-4.47,2.24,5.49,5.49,0,1,1,0-11A5.13,5.13,0,0,1,175.61,437.09Z"/><path class="cls-4" d="M184.56,441.83a4,4,0,1,1-4-3.86A3.81,3.81,0,0,1,184.56,441.83Zm-5.91,0a1.95,1.95,0,1,0,1.94-2A1.91,1.91,0,0,0,178.65,441.83Z"/><path class="cls-4" d="M198.06,440.83v4.67h-2v-4c0-1.06-.54-1.65-1.43-1.65a1.51,1.51,0,0,0-1.55,1.66v4h-2v-4c0-1.06-.52-1.65-1.42-1.65a1.51,1.51,0,0,0-1.56,1.66v4h-2v-7.33h1.92V439a2.46,2.46,0,0,1,2.16-1.06,2.77,2.77,0,0,1,2.42,1.26,3,3,0,0,1,5.38,1.6Z"/><path class="cls-4" d="M207.74,441.83a3.63,3.63,0,0,1-3.54,3.86,2.68,2.68,0,0,1-2.16-1v3.79h-2V438.17H202V439a2.66,2.66,0,0,1,2.19-1A3.63,3.63,0,0,1,207.74,441.83Zm-5.8,0a1.89,1.89,0,1,0,1.89-2A1.89,1.89,0,0,0,201.94,441.83Z"/><path class="cls-4" d="M211.33,445.5h-2V434.61h2Z"/><path class="cls-4" d="M220.22,441.82a6.59,6.59,0,0,1,0,.67H215a1.76,1.76,0,0,0,1.88,1.52,3,3,0,0,0,1.86-.71l1.15,1.27a4.42,4.42,0,0,1-3.12,1.12,3.86,3.86,0,0,1-.1-7.72A3.54,3.54,0,0,1,220.22,441.82Zm-5.22-.68h3.24a1.63,1.63,0,0,0-3.24,0Z"/><path class="cls-4" d="M227.08,439.92h-2.65v2.68c0,.92.48,1.25,1.09,1.25a2.9,2.9,0,0,0,1.38-.48l.73,1.54a4.12,4.12,0,0,1-2.43.78c-1.82,0-2.75-1-2.75-2.93v-2.84H221v-1.75h1.41V436h2v2.18h2.65Z"/><path class="cls-4" d="M231.06,435.77a1.26,1.26,0,1,1-1.26-1.27A1.24,1.24,0,0,1,231.06,435.77Zm-.26,9.73h-2v-7.33h2Z"/><path class="cls-4" d="M240.35,441.83a4,4,0,1,1-4-3.86A3.81,3.81,0,0,1,240.35,441.83Zm-5.92,0a2,2,0,1,0,1.95-2A1.92,1.92,0,0,0,234.43,441.83Z"/><path class="cls-4" d="M248.89,440.83v4.67h-2v-4c0-1.06-.53-1.65-1.43-1.65a1.51,1.51,0,0,0-1.55,1.66v4h-2v-7.33h1.92V439A2.46,2.46,0,0,1,246,438,2.73,2.73,0,0,1,248.89,440.83Z"/><rect class="cls-5" x="77.79" y="520.25" width="187.9" height="59.05"/><path class="cls-4" d="M100.18,536.46H96.9v8.62H94.79v-8.62H91.51v-2h8.67Z"/><path class="cls-4" d="M107.44,545.08h-1.93v-.81a2.7,2.7,0,0,1-2.19,1,3.87,3.87,0,0,1,0-7.72,2.67,2.67,0,0,1,2.19,1v-.81h1.93Zm-5.65-3.67a1.89,1.89,0,1,0,1.89-2A1.88,1.88,0,0,0,101.79,541.41Z"/><path class="cls-4" d="M115.9,538.94l-1.42,1.18a2.05,2.05,0,0,0-1.57-.73,2,2,0,0,0,0,4,2.16,2.16,0,0,0,1.6-.74l1.41,1.2a3.6,3.6,0,0,1-2.94,1.38,3.86,3.86,0,1,1,0-7.72A3.56,3.56,0,0,1,115.9,538.94Z"/><path class="cls-4" d="M122.73,539.5h-2.66v2.68c0,.92.49,1.25,1.1,1.25a2.86,2.86,0,0,0,1.37-.48l.73,1.55a4.14,4.14,0,0,1-2.43.77c-1.81,0-2.74-1-2.74-2.93V539.5h-1.42v-1.75h1.42v-2.18h2v2.18h2.66Z"/><path class="cls-4" d="M126.71,535.35a1.26,1.26,0,1,1-1.26-1.27A1.24,1.24,0,0,1,126.71,535.35Zm-.27,9.73h-2v-7.33h2Z"/><path class="cls-4" d="M134.9,538.94l-1.42,1.18a2.05,2.05,0,0,0-1.57-.73,2,2,0,0,0,0,4,2.14,2.14,0,0,0,1.59-.74l1.41,1.2a3.6,3.6,0,0,1-2.94,1.38,3.86,3.86,0,1,1,0-7.72A3.56,3.56,0,0,1,134.9,538.94Z"/><path class="cls-4" d="M143.4,545.08h-1.93v-.81a2.7,2.7,0,0,1-2.19,1,3.87,3.87,0,0,1,0-7.72,2.67,2.67,0,0,1,2.19,1v-.81h1.93Zm-5.65-3.67a1.89,1.89,0,1,0,1.89-2A1.88,1.88,0,0,0,137.75,541.41Z"/><path class="cls-4" d="M147.45,545.08h-2V534.19h2Z"/><path class="cls-4" d="M164.06,539.78a5.57,5.57,0,1,1-5.57-5.49A5.34,5.34,0,0,1,164.06,539.78Zm-8.93,0a3.36,3.36,0,1,0,3.36-3.46A3.28,3.28,0,0,0,155.13,539.78Z"/><path class="cls-4" d="M173.47,541.41a3.64,3.64,0,0,1-3.55,3.86,2.7,2.7,0,0,1-2.16-1v3.79h-2V537.75h1.93v.81a2.64,2.64,0,0,1,2.18-1A3.64,3.64,0,0,1,173.47,541.41Zm-5.81,0a1.89,1.89,0,1,0,1.89-2A1.89,1.89,0,0,0,167.66,541.41Z"/><path class="cls-4" d="M182.75,541.41a3.64,3.64,0,0,1-3.55,3.86,2.68,2.68,0,0,1-2.15-1v3.79h-2V537.75H177v.81a2.66,2.66,0,0,1,2.19-1A3.64,3.64,0,0,1,182.75,541.41Zm-5.8,0a1.89,1.89,0,1,0,1.88-2A1.88,1.88,0,0,0,177,541.41Z"/><path class="cls-4" d="M191.84,541.41a4,4,0,1,1-4-3.86A3.81,3.81,0,0,1,191.84,541.41Zm-5.91,0a1.95,1.95,0,1,0,1.94-2A1.91,1.91,0,0,0,185.93,541.41Z"/><path class="cls-4" d="M198.46,537.71l-.29,2a3.33,3.33,0,0,0-1.2-.23,1.46,1.46,0,0,0-1.54,1.64v4h-2v-7.33h1.91v.8a2.32,2.32,0,0,1,2.07-1A2.91,2.91,0,0,1,198.46,537.71Z"/><path class="cls-4" d="M205.28,539.5h-2.65v2.68c0,.92.48,1.25,1.09,1.25a2.9,2.9,0,0,0,1.38-.48l.73,1.55a4.18,4.18,0,0,1-2.43.77c-1.82,0-2.75-1-2.75-2.93V539.5h-1.41v-1.75h1.41v-2.18h2v2.18h2.65Z"/><path class="cls-4" d="M213.83,542a3.47,3.47,0,0,1-6.93,0v-4.2h2v4c0,1.17.64,1.65,1.5,1.65s1.5-.48,1.5-1.65v-4h2Z"/><path class="cls-4" d="M222.78,540.41v4.67h-2v-4c0-1.06-.53-1.64-1.43-1.64a1.5,1.5,0,0,0-1.55,1.65v4h-2v-7.33h1.92v.86a2.45,2.45,0,0,1,2.16-1.06A2.73,2.73,0,0,1,222.78,540.41Z"/><path class="cls-4" d="M227,535.35a1.26,1.26,0,1,1-1.26-1.27A1.24,1.24,0,0,1,227,535.35Zm-.26,9.73h-2v-7.33h2Z"/><path class="cls-4" d="M234.16,539.5h-2.65v2.68c0,.92.48,1.25,1.09,1.25A2.9,2.9,0,0,0,234,543l.73,1.55a4.18,4.18,0,0,1-2.43.77c-1.82,0-2.75-1-2.75-2.93V539.5h-1.41v-1.75h1.41v-2.18h2v2.18h2.65Z"/><path class="cls-4" d="M238.14,535.35a1.26,1.26,0,1,1-1.26-1.27A1.24,1.24,0,0,1,238.14,535.35Zm-.26,9.73h-2v-7.33h2Z"/><path class="cls-4" d="M246.77,541.4a6.36,6.36,0,0,1,0,.67h-5.2a1.77,1.77,0,0,0,1.89,1.52,3,3,0,0,0,1.85-.71l1.16,1.28a4.48,4.48,0,0,1-3.13,1.11,3.86,3.86,0,0,1-.1-7.72A3.55,3.55,0,0,1,246.77,541.4Zm-5.23-.68h3.25a1.63,1.63,0,0,0-3.25,0Z"/><path class="cls-4" d="M253.59,539.79a6,6,0,0,0-2.34-.6c-.75,0-1.13.27-1.13.67s.53.53,1.2.63l.65.09c1.59.25,2.47,1,2.47,2.2,0,1.51-1.24,2.49-3.36,2.49a5.79,5.79,0,0,1-3.26-.87l.77-1.49a4.36,4.36,0,0,0,2.5.72c.92,0,1.35-.26,1.35-.69s-.37-.55-1.21-.68l-.6-.08c-1.7-.23-2.53-1-2.53-2.22,0-1.51,1.16-2.4,3.09-2.4a6.5,6.5,0,0,1,3.06.7Z"/><path class="cls-4" d="M113.87,557.67h-2.65v2.67c0,.92.48,1.25,1.09,1.25a2.88,2.88,0,0,0,1.38-.47l.73,1.54a4.11,4.11,0,0,1-2.43.77c-1.82,0-2.75-1-2.75-2.93v-2.83h-1.41v-1.76h1.41v-2.18h2v2.18h2.65Z"/><path class="cls-4" d="M123,559.57a4,4,0,1,1-4-3.85A3.81,3.81,0,0,1,123,559.57Zm-5.92,0a2,2,0,1,0,2-2A1.92,1.92,0,0,0,117.08,559.57Z"/><path class="cls-4" d="M135.71,555.32a5.71,5.71,0,0,0-3-.9c-1.19,0-2,.47-2,1.27s.92,1,2.19,1.23l.59.1c1.9.31,3.38,1.12,3.38,3,0,2.34-2.06,3.45-4.34,3.45a7.41,7.41,0,0,1-4.46-1.38l1.1-1.71a5.53,5.53,0,0,0,3.37,1.15c1.17,0,2.08-.47,2.08-1.28s-.77-1-2.24-1.24l-.68-.11c-1.87-.29-3.23-1.12-3.23-3,0-2.21,2-3.36,4.22-3.36a7.4,7.4,0,0,1,4.05,1.13Z"/><path class="cls-4" d="M145.49,559.57a6.32,6.32,0,0,1,0,.66h-5.2a1.78,1.78,0,0,0,1.89,1.52,3,3,0,0,0,1.85-.7l1.16,1.27a4.46,4.46,0,0,1-3.13,1.11,3.86,3.86,0,0,1-.09-7.71A3.54,3.54,0,0,1,145.49,559.57Zm-5.23-.69h3.25a1.58,1.58,0,0,0-1.6-1.46A1.6,1.6,0,0,0,140.26,558.88Z"/><path class="cls-4" d="M153.49,557.1l-1.42,1.19a2,2,0,0,0-1.57-.74,2,2,0,0,0,0,4,2.16,2.16,0,0,0,1.6-.74l1.41,1.2a3.61,3.61,0,0,1-2.95,1.38,3.86,3.86,0,1,1,0-7.71A3.58,3.58,0,0,1,153.49,557.1Z"/><path class="cls-4" d="M161.8,560.12a3.47,3.47,0,0,1-6.94,0v-4.21h2v4c0,1.18.64,1.65,1.49,1.65s1.5-.47,1.5-1.65v-4h2Z"/><path class="cls-4" d="M165.79,563.24h-2V552.35h2Z"/><path class="cls-4" d="M175.08,563.24h-1.93v-.81a2.7,2.7,0,0,1-2.19,1,3.87,3.87,0,0,1,0-7.71,2.68,2.68,0,0,1,2.19,1v-.81h1.93Zm-5.65-3.67a1.89,1.89,0,1,0,1.89-2A1.88,1.88,0,0,0,169.43,559.57Z"/><path class="cls-4" d="M182.16,555.87l-.29,2a3.33,3.33,0,0,0-1.2-.23,1.47,1.47,0,0,0-1.54,1.65v4h-2v-7.33h1.91v.8a2.32,2.32,0,0,1,2.06-1A3.21,3.21,0,0,1,182.16,555.87Z"/><path class="cls-4" d="M194.84,554.63h-3.29v8.61h-2.11v-8.61h-3.28v-2h8.68Z"/><path class="cls-4" d="M198.09,556.7a2.47,2.47,0,0,1,2.11-1,2.72,2.72,0,0,1,2.85,2.85v4.67h-2v-4c0-1.06-.52-1.64-1.42-1.64a1.5,1.5,0,0,0-1.56,1.65v4h-2v-10.9h2Z"/><path class="cls-4" d="M211.88,559.57a4.41,4.41,0,0,1,0,.66h-5.19a1.76,1.76,0,0,0,1.88,1.52,3,3,0,0,0,1.85-.7l1.16,1.27a4.46,4.46,0,0,1-3.12,1.11,3.86,3.86,0,0,1-.1-7.71A3.54,3.54,0,0,1,211.88,559.57Zm-5.23-.69h3.25a1.58,1.58,0,0,0-1.6-1.46A1.6,1.6,0,0,0,206.65,558.88Z"/><path class="cls-4" d="M225.37,558.57v4.67h-2v-4c0-1.06-.53-1.64-1.43-1.64a1.5,1.5,0,0,0-1.55,1.65v4h-2v-4c0-1.06-.53-1.64-1.43-1.64a1.5,1.5,0,0,0-1.55,1.65v4h-2v-7.33h1.92v.86a2.44,2.44,0,0,1,2.15-1A2.77,2.77,0,0,1,220,557a2.76,2.76,0,0,1,2.49-1.25A2.72,2.72,0,0,1,225.37,558.57Z"/><path class="cls-4" d="M234.21,559.57a6.32,6.32,0,0,1,0,.66H229a1.76,1.76,0,0,0,1.88,1.52,3,3,0,0,0,1.86-.7l1.15,1.27a4.46,4.46,0,0,1-3.12,1.11,3.86,3.86,0,0,1-.1-7.71A3.55,3.55,0,0,1,234.21,559.57Zm-5.23-.69h3.24a1.63,1.63,0,0,0-3.24,0Z"/><path class="cls-4" d="M241,558a5.88,5.88,0,0,0-2.33-.59c-.75,0-1.13.26-1.13.66s.53.53,1.2.63l.65.1c1.58.24,2.47,1,2.47,2.19,0,1.51-1.24,2.49-3.37,2.49a5.9,5.9,0,0,1-3.26-.86l.78-1.5a4.27,4.27,0,0,0,2.5.72c.91,0,1.35-.26,1.35-.69s-.37-.55-1.22-.67l-.59-.09c-1.7-.23-2.54-1-2.54-2.22,0-1.5,1.17-2.4,3.1-2.4a6.53,6.53,0,0,1,3.06.7Z"/><rect class="cls-6" x="185.1" y="155.48" width="43.71" height="7.35"/><rect class="cls-6" x="230.48" y="155.48" width="43.71" height="7.35"/><rect class="cls-5" x="275.86" y="155.48" width="43.71" height="7.35"/><rect class="cls-5" x="321.24" y="155.48" width="43.71" height="7.35"/><rect class="cls-5" x="366.62" y="155.48" width="43.71" height="7.35"/><rect class="cls-5" x="412" y="155.48" width="43.71" height="7.35"/><rect class="cls-6" x="373.16" y="284.94" width="187.9" height="59.05"/><path class="cls-4" d="M400.63,315h-5.31v4.29h-2.11V308.71H401v2h-5.67v2.41h5.31Z"/><path class="cls-4" d="M409.41,316.18a3.47,3.47,0,0,1-6.94,0V312h2v4c0,1.18.65,1.65,1.5,1.65s1.5-.47,1.5-1.65v-4h2Z"/><path class="cls-4" d="M418.35,314.64v4.66h-2v-4c0-1.06-.53-1.64-1.43-1.64a1.5,1.5,0,0,0-1.55,1.66v4h-2V312h1.92v.87a2.47,2.47,0,0,1,2.16-1.06A2.73,2.73,0,0,1,418.35,314.64Z"/><path class="cls-4" d="M425.62,312.74v-4.33h2V319.3h-1.93v-.81a2.67,2.67,0,0,1-2.19,1,3.87,3.87,0,0,1,0-7.71A2.67,2.67,0,0,1,425.62,312.74Zm-3.69,2.89a1.89,1.89,0,1,0,1.89-2A1.89,1.89,0,0,0,421.93,315.63Z"/><path class="cls-4" d="M440.88,315.63a4,4,0,1,1-4-3.85A3.81,3.81,0,0,1,440.88,315.63Zm-5.92,0a2,2,0,1,0,2-2A1.92,1.92,0,0,0,435,315.63Z"/><path class="cls-4" d="M447.31,313.73H445v5.57h-2v-5.57h-1.37V312h1.37v-.9c0-1.72.92-2.85,2.63-2.85a3.88,3.88,0,0,1,2.25.66l-.79,1.54a2.61,2.61,0,0,0-1.25-.36c-.57,0-.86.35-.86,1V312h2.27Z"/><path class="cls-4" d="M460.12,315h-5.31v4.29H452.7V308.71h7.78v2h-5.67v2.41h5.31Z"/><path class="cls-4" d="M468.9,316.18a3.47,3.47,0,0,1-6.94,0V312h2v4c0,1.18.65,1.65,1.5,1.65s1.5-.47,1.5-1.65v-4h2Z"/><path class="cls-4" d="M477.84,314.64v4.66h-2v-4c0-1.06-.53-1.64-1.43-1.64a1.5,1.5,0,0,0-1.55,1.66v4h-2V312h1.92v.87a2.47,2.47,0,0,1,2.16-1.06A2.73,2.73,0,0,1,477.84,314.64Z"/><path class="cls-4" d="M485.11,312.74v-4.33h2V319.3h-1.93v-.81a2.67,2.67,0,0,1-2.19,1,3.87,3.87,0,0,1,0-7.71A2.67,2.67,0,0,1,485.11,312.74Zm-3.69,2.89a1.89,1.89,0,1,0,1.89-2A1.89,1.89,0,0,0,481.42,315.63Z"/><path class="cls-4" d="M500.25,311.38a5.73,5.73,0,0,0-3-.9c-1.19,0-2,.47-2,1.27s.91,1,2.18,1.23l.6.1c1.89.31,3.38,1.12,3.38,3,0,2.34-2.06,3.45-4.34,3.45a7.39,7.39,0,0,1-4.46-1.38l1.1-1.7a5.59,5.59,0,0,0,3.37,1.14c1.17,0,2.08-.46,2.08-1.28s-.77-1-2.25-1.24l-.67-.11c-1.87-.29-3.23-1.12-3.23-3,0-2.21,2-3.36,4.22-3.36a7.42,7.42,0,0,1,4.05,1.13Z"/><path class="cls-4" d="M505.11,319.3h-2V308.41h2Z"/><path class="cls-4" d="M514,315.63a6.15,6.15,0,0,1,0,.66h-5.2a1.78,1.78,0,0,0,1.89,1.52,2.94,2.94,0,0,0,1.85-.7l1.16,1.27a4.46,4.46,0,0,1-3.13,1.11,3.86,3.86,0,0,1-.09-7.71A3.54,3.54,0,0,1,514,315.63Zm-5.23-.68H512a1.59,1.59,0,0,0-1.6-1.47A1.6,1.6,0,0,0,508.77,315Z"/><path class="cls-4" d="M522.43,315.63a6.15,6.15,0,0,1,0,.66H517.2a1.76,1.76,0,0,0,1.88,1.52,2.94,2.94,0,0,0,1.85-.7l1.16,1.27a4.46,4.46,0,0,1-3.12,1.11,3.86,3.86,0,0,1-.1-7.71A3.54,3.54,0,0,1,522.43,315.63ZM517.2,315h3.25a1.59,1.59,0,0,0-1.6-1.47A1.6,1.6,0,0,0,517.2,315Z"/><path class="cls-4" d="M528.11,319.3h-2.28l-2.9-7.33h2.15l1.9,5.25,1.91-5.25H531Z"/><path class="cls-4" d="M538.75,315.63a4.33,4.33,0,0,1,0,.66h-5.19a1.76,1.76,0,0,0,1.88,1.52,3,3,0,0,0,1.86-.7l1.15,1.27a4.46,4.46,0,0,1-3.12,1.11,3.86,3.86,0,0,1-.1-7.71A3.53,3.53,0,0,1,538.75,315.63Zm-5.22-.68h3.24a1.63,1.63,0,0,0-3.24,0Z"/><rect class="cls-5" x="467.75" y="345.59" width="93.39" height="5.88"/><rect class="cls-5" x="373.04" y="345.59" width="93.39" height="5.88"/><rect class="cls-6" x="77.8" y="284.94" width="187.9" height="59.05"/><path class="cls-4" d="M135.5,310.19h-7.91V299.6h7.85v1.94H129.7v2.35h5.47v1.93H129.7v2.44h5.8Z"/><path class="cls-4" d="M145.38,301.58H142.1v8.61H140v-8.61h-3.28v-2h8.67Z"/><path class="cls-4" d="M154.25,305.91h-5.31v4.28h-2.11V299.6h7.78v1.95h-5.67V304h5.31Z"/><path class="cls-4" d="M167.47,302.27a5.77,5.77,0,0,0-3-.9c-1.19,0-2,.47-2,1.28s.91,1,2.18,1.22l.6.1c1.89.31,3.37,1.12,3.37,3,0,2.34-2.06,3.45-4.33,3.45A7.37,7.37,0,0,1,159.8,309l1.09-1.7a5.62,5.62,0,0,0,3.38,1.14c1.17,0,2.08-.46,2.08-1.28s-.78-1-2.25-1.24l-.67-.11c-1.87-.29-3.23-1.11-3.23-3,0-2.21,2-3.36,4.22-3.36a7.47,7.47,0,0,1,4,1.13Z"/><path class="cls-4" d="M172.33,310.19h-2V299.3h2Z"/><path class="cls-4" d="M181.22,306.52a6.15,6.15,0,0,1,0,.66H176a1.76,1.76,0,0,0,1.88,1.52,3,3,0,0,0,1.86-.7l1.16,1.27a4.5,4.5,0,0,1-3.13,1.11,3.86,3.86,0,0,1-.1-7.71A3.55,3.55,0,0,1,181.22,306.52Zm-5.23-.68h3.24a1.58,1.58,0,0,0-1.59-1.47A1.6,1.6,0,0,0,176,305.84Z"/><path class="cls-4" d="M189.65,306.52a6.15,6.15,0,0,1,0,.66h-5.2a1.77,1.77,0,0,0,1.89,1.52,2.94,2.94,0,0,0,1.85-.7l1.16,1.27a4.5,4.5,0,0,1-3.13,1.11,3.86,3.86,0,0,1-.1-7.71A3.55,3.55,0,0,1,189.65,306.52Zm-5.23-.68h3.24a1.58,1.58,0,0,0-1.59-1.47A1.6,1.6,0,0,0,184.42,305.84Z"/><path class="cls-4" d="M195.32,310.19h-2.27l-2.9-7.33h2.15l1.9,5.25,1.91-5.25h2.08Z"/><path class="cls-4" d="M206,306.52a6.15,6.15,0,0,1,0,.66h-5.19a1.76,1.76,0,0,0,1.88,1.52,2.94,2.94,0,0,0,1.85-.7l1.16,1.27a4.46,4.46,0,0,1-3.12,1.11,3.86,3.86,0,0,1-.1-7.71A3.54,3.54,0,0,1,206,306.52Zm-5.23-.68H204a1.59,1.59,0,0,0-1.6-1.47A1.6,1.6,0,0,0,200.74,305.84Z"/><path class="cls-4" d="M209.82,307.8l-1.06,4.51h-1.67l.51-4.51Z"/><path class="cls-4" d="M118.05,319.74h-3.28v8.62h-2.11v-8.62h-3.28v-2h8.67Z"/><path class="cls-4" d="M121.31,321.81a2.47,2.47,0,0,1,2.1-1,2.73,2.73,0,0,1,2.85,2.86v4.67h-2v-4c0-1.06-.53-1.65-1.43-1.65a1.51,1.51,0,0,0-1.55,1.66v4h-2v-10.9h2Z"/><path class="cls-4" d="M130.52,318.63a1.26,1.26,0,1,1-1.26-1.27A1.24,1.24,0,0,1,130.52,318.63Zm-.27,9.73h-2V321h2Z"/><path class="cls-4" d="M137.34,321l-.3,2a3.24,3.24,0,0,0-1.19-.24,1.47,1.47,0,0,0-1.55,1.65v4h-2V321h1.91v.8a2.32,2.32,0,0,1,2.07-1A3,3,0,0,1,137.34,321Z"/><path class="cls-4" d="M143.68,321.79v-4.32h2v10.89h-1.93v-.81a2.67,2.67,0,0,1-2.19,1,3.87,3.87,0,0,1,0-7.72A2.66,2.66,0,0,1,143.68,321.79Zm-3.68,2.9a1.89,1.89,0,1,0,1.89-2A1.88,1.88,0,0,0,140,324.69Z"/><path class="cls-4" d="M153.75,324.48v3.88h-2.11V317.77H156c2.53,0,3.87,1.31,3.87,3.36s-1.34,3.35-3.85,3.35Zm0-4.77v2.85h2.17c1.15,0,1.75-.47,1.75-1.43s-.6-1.42-1.75-1.42Z"/><path class="cls-4" d="M168.43,328.36H166.5v-.81a2.7,2.7,0,0,1-2.19,1,3.87,3.87,0,0,1,0-7.72,2.67,2.67,0,0,1,2.19,1V321h1.93Zm-5.65-3.67a1.89,1.89,0,1,0,1.89-2A1.88,1.88,0,0,0,162.78,324.69Z"/><path class="cls-4" d="M175.51,321l-.29,2a3.29,3.29,0,0,0-1.2-.24,1.47,1.47,0,0,0-1.54,1.65v4h-2V321h1.91v.8a2.32,2.32,0,0,1,2.07-1A2.91,2.91,0,0,1,175.51,321Z"/><path class="cls-4" d="M182.33,322.78h-2.65v2.68c0,.91.48,1.25,1.09,1.25a2.9,2.9,0,0,0,1.38-.48l.73,1.54a4.12,4.12,0,0,1-2.43.78c-1.82,0-2.75-1-2.75-2.93v-2.84h-1.41V321h1.41v-2.18h2V321h2.65Z"/><path class="cls-4" d="M185.92,331.41h-2.16l2.56-4.61L183.16,321h2.24l2,3.76,2-3.76h2.17Z"/><path class="cls-4" d="M204.19,328.36h-7.91V317.77h7.85v1.93h-5.74v2.35h5.47V324h-5.47v2.43h5.8Z"/><path class="cls-4" d="M214.07,319.74h-3.28v8.62h-2.11v-8.62h-3.29v-2h8.68Z"/><path class="cls-4" d="M222.94,324.07h-5.31v4.29h-2.11V317.77h7.78v1.94h-5.67v2.41h5.31Z"/><path class="cls-4" d="M230.12,323.07a6,6,0,0,0-2.34-.6c-.75,0-1.13.27-1.13.67s.53.53,1.2.63l.65.09c1.59.25,2.47,1,2.47,2.2,0,1.51-1.24,2.49-3.37,2.49a5.83,5.83,0,0,1-3.26-.87l.78-1.49a4.36,4.36,0,0,0,2.5.71c.91,0,1.35-.25,1.35-.68s-.37-.56-1.21-.68l-.6-.08c-1.7-.23-2.54-1-2.54-2.22,0-1.51,1.17-2.4,3.1-2.4a6.62,6.62,0,0,1,3.06.69Z"/><rect class="cls-5" x="172.39" y="345.59" width="93.39" height="5.88"/><rect class="cls-5" x="77.69" y="345.59" width="93.39" height="5.88"/><circle class="cls-3" cx="466.8" cy="271.7" r="7.66"/><path class="cls-4" d="M466.8,265.09a6.61,6.61,0,1,1-6.6,6.61,6.61,6.61,0,0,1,6.6-6.61m0-2.1a8.71,8.71,0,1,0,8.71,8.71A8.71,8.71,0,0,0,466.8,263Z"/><path class="cls-3" d="M171.15,280.24a7.66,7.66,0,1,1,7.65-7.66A7.67,7.67,0,0,1,171.15,280.24Z"/><path class="cls-4" d="M171.15,266a6.61,6.61,0,1,1-6.61,6.6,6.6,6.6,0,0,1,6.61-6.6m0-2.1a8.71,8.71,0,1,0,8.7,8.7,8.71,8.71,0,0,0-8.7-8.7Z"/><line class="cls-2" x1="320.4" y1="205.25" x2="320.4" y2="167.25"/></svg>