<svg xmlns="http://www.w3.org/2000/svg" viewBox="0 0 1032.79 468.32"><defs><style>.cls-1{fill:#010101;}.cls-2{fill:#ed5b36;}.cls-3{fill:#fff;}.cls-4{fill:#eb5b36;}.cls-5{fill:#213332;}.cls-6{fill:#203331;}.cls-7{fill:#ea5b34;}.cls-8{fill:#253230;}.cls-9{fill:#ed5b35;}.cls-10{fill:#203232;}.cls-11{fill:#ed5a35;}</style></defs><title>key-issues</title><g id="Layer_2" data-name="Layer 2"><g id="Layer_1-2" data-name="Layer 1"><path class="cls-1" d="M10.51,161.64H0v-1.79H10.51Zm0,4.52H0v-1.78H10.51Z"/><path class="cls-1" d="M32.92,154.58H27.2v14.79H25.09V154.58H19.36v-2H32.92Z"/><path class="cls-1" d="M42.84,158.1,42.36,160a4.58,4.58,0,0,0-2-.44c-1.74,0-3,1.33-3,3.43v6.35h-2V158h1.93v1.5a4,4,0,0,1,3.34-1.74A5.24,5.24,0,0,1,42.84,158.1Z"/><path class="cls-1" d="M55.82,164.59c0,3.44-2.47,5-5.2,5s-5.2-1.58-5.2-5V158h2v6.44a3.23,3.23,0,1,0,6.46,0V158h2Z"/><path class="cls-1" d="M78.73,162.29v7.08h-2v-6.44c0-2.1-1.16-3.34-3.13-3.34A3.23,3.23,0,0,0,70.28,163v6.4h-2v-6.44c0-2.1-1.15-3.34-3.13-3.34A3.24,3.24,0,0,0,61.81,163v6.4h-2V158H61.8v1.49a4.5,4.5,0,0,1,3.73-1.73A4.57,4.57,0,0,1,69.74,160,4.62,4.62,0,0,1,74,157.73,4.42,4.42,0,0,1,78.73,162.29Z"/><path class="cls-1" d="M94.44,163.67a5.69,5.69,0,0,1-5.69,5.94,5,5,0,0,1-4-1.77v6.32h-2V158h2v1.53a5,5,0,0,1,4-1.77A5.69,5.69,0,0,1,94.44,163.67Zm-9.83,0a3.91,3.91,0,1,0,3.91-4.09A3.88,3.88,0,0,0,84.61,163.67Z"/><path class="cls-1" d="M118.79,169.37h-2.27l-1.84-4.59h-8.15l-1.83,4.59h-2.2l6.83-16.79H112Zm-11.45-6.59h6.53l-3.26-8.12Z"/><path class="cls-1" d="M130.15,159.51V152.1h2v17.27h-2v-1.53a5.05,5.05,0,0,1-4,1.77,5.95,5.95,0,0,1,0-11.88A5,5,0,0,1,130.15,159.51Zm-7.72,4.16a3.92,3.92,0,1,0,3.93-4.09A3.91,3.91,0,0,0,122.43,163.67Z"/><path class="cls-1" d="M141.63,169.38h-2.3L134.53,158h2.14l3.82,9.42,3.84-9.42h2.07Z"/><path class="cls-1" d="M159.65,169.37h-2v-1.53a5,5,0,0,1-4,1.77,5.95,5.95,0,0,1,0-11.88,5,5,0,0,1,4,1.78V158h2Zm-9.68-5.7a3.91,3.91,0,0,0,3.93,4.1,4.1,4.1,0,1,0-3.93-4.1Z"/><path class="cls-1" d="M174.23,162.29v7.08h-2v-6.44c0-2.1-1.16-3.34-3.14-3.34a3.24,3.24,0,0,0-3.37,3.38v6.4h-1.95V158h1.94v1.49a4.51,4.51,0,0,1,3.73-1.73A4.42,4.42,0,0,1,174.23,162.29Z"/><path class="cls-1" d="M186,159.76h-4.79v5.55c0,1.72.91,2.46,2.15,2.46a4.16,4.16,0,0,0,2.32-.77l.93,1.48a5.8,5.8,0,0,1-3.42,1.13c-2.47,0-3.95-1.36-3.95-4.26v-5.59h-2.43V158h2.43V154.4h2V158H186Z"/><path class="cls-1" d="M200,169.37h-2v-1.53a5,5,0,0,1-4,1.77,5.95,5.95,0,0,1,0-11.88,5,5,0,0,1,4,1.78V158h2Zm-9.68-5.7a3.92,3.92,0,1,0,3.92-4.09A3.91,3.91,0,0,0,190.29,163.67Z"/><path class="cls-1" d="M212.82,159.52V158h2v10.6c0,3.69-2.46,5.78-6.06,5.78a7.89,7.89,0,0,1-4.77-1.47l.85-1.58a6.75,6.75,0,0,0,3.92,1.27c2.45,0,4.09-1.38,4.09-3.91v-1a4.75,4.75,0,0,1-3.92,1.78,5.85,5.85,0,0,1,0-11.7A4.76,4.76,0,0,1,212.82,159.52Zm-7.55,4a3.86,3.86,0,1,0,3.86-4A3.81,3.81,0,0,0,205.27,163.57Z"/><path class="cls-1" d="M229.11,163.63c0,.25,0,.52,0,.73h-9a3.72,3.72,0,0,0,3.88,3.53,5.33,5.33,0,0,0,3.51-1.35l1,1.34a6.45,6.45,0,0,1-4.67,1.73,5.94,5.94,0,0,1-.12-11.88C226.85,157.73,229.08,160.14,229.11,163.63Zm-9-.85h7a3.4,3.4,0,0,0-3.39-3.31A3.54,3.54,0,0,0,220.14,162.78Z"/><path class="cls-1" d="M41.69,10.58c0,4.64-3,7-7.23,7s-7.23-2.36-7.23-7V.49h3.36v9.92c0,2.76,1.56,4,3.87,4s3.87-1.21,3.87-4V.49h3.36Z"/><path class="cls-1" d="M56.05,9.88v7.4H52.92V10.89c0-1.68-.84-2.6-2.27-2.6a2.38,2.38,0,0,0-2.46,2.62v6.37H45.06V5.66h3V7a3.86,3.86,0,0,1,3.41-1.68A4.33,4.33,0,0,1,56.05,9.88Z"/><path class="cls-1" d="M70.05,11.45A8.21,8.21,0,0,1,70,12.51H61.75a2.81,2.81,0,0,0,3,2.41,4.69,4.69,0,0,0,2.93-1.12l1.84,2a7.06,7.06,0,0,1-5,1.76,5.75,5.75,0,0,1-6-6.08c0-3.66,2.4-6.15,5.88-6.15S70,7.83,70.05,11.45Zm-8.29-1.08h5.15a2.59,2.59,0,0,0-5.15,0Z"/><path class="cls-1" d="M91.44,9.88v7.4H88.32V10.89c0-1.68-.85-2.6-2.26-2.6a2.38,2.38,0,0,0-2.46,2.62v6.37H80.47V10.89c0-1.68-.84-2.6-2.27-2.6a2.38,2.38,0,0,0-2.46,2.62v6.37H72.61V5.66h3V7a3.88,3.88,0,0,1,3.42-1.68,4.39,4.39,0,0,1,3.83,2,4.37,4.37,0,0,1,4-2A4.32,4.32,0,0,1,91.44,9.88Z"/><path class="cls-1" d="M106.8,11.47c0,3.49-2.42,6.11-5.62,6.11a4.26,4.26,0,0,1-3.42-1.51v6H94.64V5.66H97.7V6.94a4.24,4.24,0,0,1,3.47-1.59C104.38,5.35,106.8,8,106.8,11.47Zm-9.19,0a3,3,0,1,0,6,0,3,3,0,1,0-6,0Z"/><path class="cls-1" d="M112.5,17.28h-3.13V0h3.13Z"/><path class="cls-1" d="M127.64,11.47a6.29,6.29,0,0,1-12.57,0,6.29,6.29,0,0,1,12.57,0Zm-9.38,0a3.09,3.09,0,1,0,6.17,0,3.09,3.09,0,1,0-6.17,0Z"/><path class="cls-1" d="M133.09,22.13h-3.43l4.06-7.32-5-9.15h3.55l3.19,6,3.1-6H142Z"/><path class="cls-1" d="M162.56,9.88v7.4h-3.11V10.89c0-1.68-.86-2.6-2.27-2.6a2.38,2.38,0,0,0-2.46,2.62v6.37h-3.13V10.89c0-1.68-.84-2.6-2.27-2.6a2.38,2.38,0,0,0-2.46,2.62v6.37h-3.13V5.66h3.05V7a3.89,3.89,0,0,1,3.42-1.68,4.39,4.39,0,0,1,3.84,2,4.69,4.69,0,0,1,8.52,2.54Z"/><path class="cls-1" d="M176.57,11.45a8.21,8.21,0,0,1-.06,1.06h-8.24a2.81,2.81,0,0,0,3,2.41,4.69,4.69,0,0,0,2.94-1.12l1.83,2a7.06,7.06,0,0,1-4.95,1.76,5.74,5.74,0,0,1-6-6.08c0-3.66,2.4-6.15,5.87-6.15S176.56,7.83,176.57,11.45Zm-8.29-1.08h5.15a2.59,2.59,0,0,0-5.15,0Z"/><path class="cls-1" d="M190.12,9.88v7.4H187V10.89c0-1.68-.84-2.6-2.27-2.6a2.38,2.38,0,0,0-2.46,2.62v6.37h-3.13V5.66h3.05V7a3.89,3.89,0,0,1,3.42-1.68A4.32,4.32,0,0,1,190.12,9.88Z"/><path class="cls-1" d="M201.75,8.44h-4.21v4.25c0,1.45.77,2,1.74,2a4.47,4.47,0,0,0,2.18-.76l1.15,2.45a6.51,6.51,0,0,1-3.85,1.22c-2.88,0-4.35-1.63-4.35-4.64V8.44h-2.24V5.66h2.24V2.21h3.13V5.66h4.21Z"/><path class="cls-2" d="M50.14,115,12.49,98.08,12.34,87,49.49,69.05l.17,11.88L23.74,92.35,50,103.07Z"/><path class="cls-2" d="M101.06,92.39l8.91-.13.16,11.51-8.9.13.16,11.69-12.33.17-.16-11.69-28.36.41-.13-9L82.22,52l13.7-.19-20.79,41,13.6-.19-.24-17,12.33-.17Z"/><path class="cls-2" d="M150.54,67.21c.14,10-7.38,17.59-17.61,17.74S115,77.76,114.87,67.71s7.38-17.5,17.56-17.65S150.39,57.25,150.54,67.21ZM125,67.57a7.56,7.56,0,0,0,7.78,7.84c4.48-.07,7.67-3.4,7.61-8.06a7.7,7.7,0,1,0-15.39.22ZM141.85,115l-12,.17,42-64.54,11.92-.17ZM199,97.9c.14,10-7.38,17.55-17.61,17.69s-17.92-7.19-18.06-17.19,7.38-17.55,17.56-17.69S198.83,87.94,199,97.9Zm-25.53.36a7.7,7.7,0,1,0,7.56-8A7.52,7.52,0,0,0,173.45,98.26Z"/><polygon class="cls-3" points="158.94 359.52 70.17 359.76 72.75 298.16 157.46 298.16 158.94 359.52"/><polygon class="cls-4" points="182.57 364.22 46.16 363.63 49.84 369.92 178.53 370.16 182.57 364.22"/><polygon class="cls-4" points="153.58 352.65 72.75 355.77 73.5 298.16 153.58 298.16 153.58 352.65"/><path class="cls-5" d="M174.42,372.52H54c-4.21,0-9.19-3.63-9.74-4l-1-.76V357.4h142v10.31l-1,.76c-.55.42-5.53,4-9.74,4M48.3,365.09c1.7,1.08,4.11,2.31,5.66,2.31H174.42c1.59,0,4.05-1.29,5.66-2.32v-2.57H48.3Z"/><polygon class="cls-5" points="158.28 341.23 153.38 300.63 75.06 300.63 70.17 355.77 70.17 295.74 158.28 295.74 158.28 341.23"/><rect class="cls-5" x="92.29" y="320.25" width="8.92" height="4.89"/><rect class="cls-5" x="117.91" y="320.25" width="18.3" height="4.89"/><rect class="cls-5" x="105.48" y="320.25" width="7.69" height="4.89"/><rect class="cls-5" x="138.09" y="339.97" width="9.59" height="4.89"/><rect class="cls-5" x="105.48" y="339.97" width="27.24" height="4.89"/><rect class="cls-5" x="141.01" y="320.25" width="6.67" height="4.89"/><rect class="cls-5" x="97.03" y="330.11" width="4.18" height="4.89"/><rect class="cls-5" x="105.48" y="330.11" width="27.73" height="4.89"/><rect class="cls-5" x="79.44" y="320.25" width="4.54" height="4.89"/><rect class="cls-5" x="79.44" y="330.11" width="4.54" height="4.89"/><rect class="cls-5" x="79.44" y="339.97" width="4.54" height="4.89"/><path class="cls-5" d="M164.58,357.18V290.56H63.87v65.82H59V289.27a3.56,3.56,0,0,1,3.56-3.55H165.86a3.55,3.55,0,0,1,3.56,3.55v67.91Z"/><path class="cls-3" d="M136.76,314.75H90.2a8.3,8.3,0,0,1-8.3-8.3V273H141v37.51a4.27,4.27,0,0,1-4.27,4.27"/><path class="cls-4" d="M131.11,307.71l-34.72,1.71c-1.42.07-2.59-1.38-2.57-3.18l.28-27a5.47,5.47,0,0,1,5.57-5.31h27.85a5.47,5.47,0,0,1,5.57,5.36v25.8a2.41,2.41,0,0,1-2,2.62"/><path class="cls-5" d="M136.85,268.64H111.39a.65.65,0,0,0-.67.62h0a.63.63,0,0,0,.58.61l24.51,1.85V308H91.05V271.73l12.08-1.53a.44.44,0,0,0,.4-.43v-.38a.44.44,0,0,0-.42-.43L90,268.64a2.22,2.22,0,0,0-2.29,2.13V309A2.21,2.21,0,0,0,90,311.13h46.84a2.2,2.2,0,0,0,2.28-2.12V270.77a2.21,2.21,0,0,0-2.28-2.13"/><path class="cls-5" d="M128.74,268.73h-3.82v-3c0-6.1-4.35-11.07-9.69-11.07h-3.61c-5.34,0-9.69,5-9.69,11.07v3.81H98.12V265.7c0-8.2,6.06-14.88,13.5-14.88h3.61c7.45,0,13.51,6.68,13.51,14.88Z"/><path class="cls-6" d="M117.22,287.92a3.79,3.79,0,1,0-5.72,3.26v6.32a1.93,1.93,0,1,0,3.86,0v-6.32a3.79,3.79,0,0,0,1.86-3.26"/><path class="cls-1" d="M923.27,421.16l-2.88,1.76a5,5,0,0,0-4.34-2.32,5.5,5.5,0,0,0,0,11,5.15,5.15,0,0,0,4.38-2.3l2.73,2a8.34,8.34,0,0,1-7.08,3.55,8.71,8.71,0,1,1,0-17.42A8.16,8.16,0,0,1,923.27,421.16Z"/><path class="cls-1" d="M929.05,434.49h-3.13V417.22h3.13Z"/><path class="cls-1" d="M935.89,419.07a2,2,0,1,1-2-2A2,2,0,0,1,935.89,419.07Zm-.42,15.42h-3.13V422.87h3.13Z"/><path class="cls-1" d="M957.59,427.09v7.4h-3.12V428.1c0-1.68-.85-2.6-2.27-2.6a2.38,2.38,0,0,0-2.45,2.63v6.36h-3.13V428.1c0-1.68-.84-2.6-2.27-2.6a2.38,2.38,0,0,0-2.46,2.63v6.36h-3.13V422.87h3v1.37a3.86,3.86,0,0,1,3.41-1.68,4.81,4.81,0,0,0,7.79,0A4.33,4.33,0,0,1,957.59,427.09Z"/><path class="cls-1" d="M972.23,434.49h-3.05v-1.28a4.27,4.27,0,0,1-3.48,1.58c-3.21,0-5.63-2.62-5.63-6.11s2.42-6.12,5.63-6.12a4.27,4.27,0,0,1,3.48,1.6v-1.29h3.05Zm-9-5.81a3,3,0,1,0,3-3.21A3,3,0,0,0,963.27,428.68Z"/><path class="cls-1" d="M984,425.65h-4.21v4.25c0,1.45.77,2,1.74,2a4.47,4.47,0,0,0,2.18-.76l1.15,2.45a6.45,6.45,0,0,1-3.85,1.22c-2.87,0-4.35-1.63-4.35-4.64v-4.5h-2.24v-2.78h2.24v-3.45h3.13v3.45H984Z"/><path class="cls-1" d="M997.53,428.66a8.21,8.21,0,0,1-.06,1.06h-8.24a2.81,2.81,0,0,0,3,2.41,4.71,4.71,0,0,0,2.93-1.11l1.84,2a7.06,7.06,0,0,1-5,1.76,5.75,5.75,0,0,1-6-6.08c0-3.65,2.4-6.15,5.88-6.15S997.52,425,997.53,428.66Zm-8.29-1.07h5.15a2.59,2.59,0,0,0-5.15,0Z"/><path class="cls-1" d="M924.83,450,922,451.72a5,5,0,0,0-4.34-2.32,5.5,5.5,0,0,0,0,11,5.12,5.12,0,0,0,4.37-2.3l2.74,2a8.77,8.77,0,1,1-7.09-13.87A8.18,8.18,0,0,1,924.83,450Z"/><path class="cls-1" d="M930.6,452.92a3.92,3.92,0,0,1,3.34-1.56,4.32,4.32,0,0,1,4.52,4.53v7.4h-3.13V456.9c0-1.68-.84-2.6-2.27-2.6a2.38,2.38,0,0,0-2.46,2.63v6.36h-3.12V446h3.12Z"/><path class="cls-1" d="M953.1,463.29H950V462a4.24,4.24,0,0,1-3.48,1.58c-3.2,0-5.62-2.62-5.62-6.11s2.42-6.12,5.62-6.12A4.25,4.25,0,0,1,950,453v-1.29h3.06Zm-9-5.81a3,3,0,1,0,3-3.21A3,3,0,0,0,944.14,457.48Z"/><path class="cls-1" d="M967.38,455.89v7.4h-3.13V456.9c0-1.68-.84-2.6-2.27-2.6a2.38,2.38,0,0,0-2.46,2.63v6.36h-3.13V451.67h3.05V453a3.89,3.89,0,0,1,3.42-1.68A4.32,4.32,0,0,1,967.38,455.89Z"/><path class="cls-1" d="M978.8,453v-1.3h3.07v10.66c0,3.73-2.43,6-6.27,6a9.19,9.19,0,0,1-5.08-1.4l1.11-2.56a6.88,6.88,0,0,0,3.84,1.19c1.94,0,3.31-1.08,3.31-3.08v-.82a4.39,4.39,0,0,1-3.57,1.57c-2.83,0-5.35-2.36-5.35-5.92s2.52-5.94,5.35-5.94A4.37,4.37,0,0,1,978.8,453Zm-5.73,4.33a2.92,2.92,0,1,0,2.93-3.06A2.88,2.88,0,0,0,973.07,457.3Z"/><path class="cls-1" d="M996,457.46a10.51,10.51,0,0,1-.06,1.06h-8.24a2.8,2.8,0,0,0,3,2.41,4.69,4.69,0,0,0,2.94-1.12l1.84,2a7.07,7.07,0,0,1-5,1.76,5.74,5.74,0,0,1-6-6.08c0-3.66,2.4-6.15,5.88-6.15S996,453.84,996,457.46Zm-8.29-1.07h5.14a2.5,2.5,0,0,0-2.53-2.33A2.53,2.53,0,0,0,987.69,456.39Z"/><path class="cls-7" d="M952,251s80.69,67.53,0,107.19"/><path class="cls-7" d="M952,251s-80.69,67.53,0,107.19"/><path class="cls-6" d="M973.5,305.38a25.6,25.6,0,0,1-2.88,6.14,28,28,0,0,1-4.46,5.45,28.63,28.63,0,0,1-5.91,4.37,29.54,29.54,0,0,1-3.39,1.66c-1.17.51-2.38.85-3.6,1.27l-1.18-9.39c.92,0,1.89.12,2.84.07a21.28,21.28,0,0,0,2.86-.27,22.5,22.5,0,0,0,5.71-1.61,25.09,25.09,0,0,0,5.38-3.14,24.6,24.6,0,0,0,4.63-4.55"/><path class="cls-6" d="M973.5,323.36a25.6,25.6,0,0,1-2.88,6.14,27.78,27.78,0,0,1-4.46,5.46,28.59,28.59,0,0,1-5.91,4.36,29.54,29.54,0,0,1-3.39,1.66c-1.17.51-2.38.85-3.6,1.28l-1.18-9.39c.92,0,1.89.11,2.84.06a21.26,21.26,0,0,0,2.86-.26,22.12,22.12,0,0,0,5.71-1.62,25.42,25.42,0,0,0,10-7.69"/><path class="cls-6" d="M935.88,359.27a65,65,0,0,1-13.79-9.3,40.49,40.49,0,0,1-10-13.49,38.7,38.7,0,0,1-3.27-16.65,56.75,56.75,0,0,1,3.09-16.67c3.63-10.72,9.43-20.47,16-29.48,3.3-4.51,6.83-8.84,10.53-13s7.51-8.18,11.71-12.08l2.06-1.91,2.17,2a184.85,184.85,0,0,1,25.35,28.09,104.17,104.17,0,0,1,9.78,16.62,69,69,0,0,1,5.79,18.88,50.86,50.86,0,0,1-1.06,20.23,51.87,51.87,0,0,1-9,18.19,65.05,65.05,0,0,1-6.65,7.48,79.55,79.55,0,0,1-15.82,11.69q-2.13,1.22-4.33,2.3c-.73.37-1.48.72-2.23,1.06s-1.47.66-2.38,1l-6.12,2.44.14-6.45c.15-6.74.45-13.48.67-20.21L949,339.9c.16-3.36.3-6.73.51-10.1l.59-10.1.48-10.11c.34-6.73.71-13.47,1.16-20.21h.95c.46,6.74.82,13.48,1.17,20.21l.48,10.11.59,10.1c.2,3.37.35,6.74.5,10.1l.45,10.11c.22,6.73.53,13.47.68,20.21l-6-4c.51-.23,1.22-.58,1.84-.9s1.28-.68,1.92-1q1.92-1.06,3.77-2.24c2.49-1.56,4.86-3.3,7.16-5.08a70.16,70.16,0,0,0,6.5-5.76,59.1,59.1,0,0,0,5.64-6.44,52.61,52.61,0,0,0,4.53-7.1,45.13,45.13,0,0,0,3.13-7.71,43.29,43.29,0,0,0,1.55-16.61,58.57,58.57,0,0,0-4.43-16.72,86.29,86.29,0,0,0-3.85-8c-1.45-2.61-3-5.17-4.68-7.67a178.44,178.44,0,0,0-23.6-27.7l4.23.09c-4,3.45-7.93,7.29-11.65,11.2s-7.31,8-10.66,12.26c-6.65,8.5-12.64,17.64-16.48,27.66A52.81,52.81,0,0,0,911.93,320a36,36,0,0,0,2.39,15.57,34.28,34.28,0,0,0,3.79,7,43.43,43.43,0,0,0,5.18,6.17,64.12,64.12,0,0,0,13,9.73Z"/><path class="cls-1" d="M878.92,17.28h-3.35V.49h3.35Z"/><path class="cls-1" d="M901.3,9.88v7.4h-3.12V10.89c0-1.68-.85-2.6-2.26-2.6a2.38,2.38,0,0,0-2.46,2.62v6.37h-3.13V10.89c0-1.68-.84-2.6-2.27-2.6a2.38,2.38,0,0,0-2.46,2.62v6.37h-3.13V5.66h3V7a3.89,3.89,0,0,1,3.42-1.68,4.8,4.8,0,0,0,7.78,0A4.32,4.32,0,0,1,901.3,9.88Z"/><path class="cls-1" d="M916.66,11.47c0,3.49-2.42,6.11-5.62,6.11a4.26,4.26,0,0,1-3.42-1.51v6H904.5V5.66h3.06V6.94A4.24,4.24,0,0,1,911,5.35C914.24,5.35,916.66,8,916.66,11.47Zm-9.19,0a3,3,0,1,0,6,0,3,3,0,1,0-6,0Z"/><path class="cls-1" d="M930,11.45a8.21,8.21,0,0,1-.06,1.06h-8.24a2.81,2.81,0,0,0,3,2.41,4.69,4.69,0,0,0,2.94-1.12l1.83,2a7,7,0,0,1-5,1.76,5.74,5.74,0,0,1-6-6.08c0-3.66,2.4-6.15,5.87-6.15S930,7.83,930,11.45Zm-8.28-1.08h5.14a2.58,2.58,0,0,0-5.14,0Z"/><path class="cls-1" d="M944,17.28H941V16a4.25,4.25,0,0,1-3.48,1.58c-3.2,0-5.62-2.62-5.62-6.11s2.42-6.12,5.62-6.12A4.27,4.27,0,0,1,941,6.94V5.66H944Zm-9-5.81a3,3,0,1,0,6,0,3,3,0,1,0-6,0Z"/><path class="cls-1" d="M957.45,7.54,955.2,9.43a3.21,3.21,0,0,0-2.48-1.17,3,3,0,0,0-2.92,3.21,3,3,0,0,0,2.9,3.2,3.4,3.4,0,0,0,2.53-1.18l2.24,1.91a5.75,5.75,0,0,1-4.67,2.18,5.89,5.89,0,0,1-6.19-6.11,5.9,5.9,0,0,1,6.19-6.12A5.67,5.67,0,0,1,957.45,7.54Z"/><path class="cls-1" d="M962.86,6.91a3.89,3.89,0,0,1,3.33-1.56,4.32,4.32,0,0,1,4.52,4.53v7.4h-3.13V10.89c0-1.68-.84-2.6-2.26-2.6a2.38,2.38,0,0,0-2.46,2.62v6.37h-3.13V0h3.13Z"/><path class="cls-1" d="M992.74,9.88v7.4h-3.12V10.89c0-1.68-.85-2.6-2.26-2.6a2.38,2.38,0,0,0-2.46,2.62v6.37h-3.13V10.89c0-1.68-.84-2.6-2.27-2.6A2.38,2.38,0,0,0,977,10.91v6.37h-3.13V5.66H977V7a3.88,3.88,0,0,1,3.42-1.68,4.8,4.8,0,0,0,7.78,0A4.32,4.32,0,0,1,992.74,9.88Z"/><path class="cls-1" d="M1006.75,11.45a10.51,10.51,0,0,1-.06,1.06h-8.24a2.8,2.8,0,0,0,3,2.41,4.69,4.69,0,0,0,2.93-1.12l1.84,2a7.06,7.06,0,0,1-5,1.76,5.75,5.75,0,0,1-6-6.08c0-3.66,2.4-6.15,5.88-6.15S1006.74,7.83,1006.75,11.45Zm-8.29-1.08h5.15a2.59,2.59,0,0,0-5.15,0Z"/><path class="cls-1" d="M1020.3,9.88v7.4h-3.13V10.89c0-1.68-.84-2.6-2.27-2.6a2.38,2.38,0,0,0-2.46,2.62v6.37h-3.13V5.66h3.05V7a3.87,3.87,0,0,1,3.41-1.68A4.33,4.33,0,0,1,1020.3,9.88Z"/><path class="cls-1" d="M1031.93,8.44h-4.21v4.25c0,1.45.76,2,1.73,2a4.5,4.5,0,0,0,2.19-.76l1.15,2.45a6.54,6.54,0,0,1-3.85,1.22c-2.88,0-4.35-1.63-4.35-4.64V8.44h-2.25V5.66h2.25V2.21h3.13V5.66h4.21Z"/><path class="cls-7" d="M812.31,78.4l-43.67,29.53s4.19,7.5,5.32,7.85,44.67-25.47,44.67-25.47Z"/><polygon class="cls-7" points="845.29 33.61 876.99 83.88 845.79 99.51 816.87 49.63 845.29 33.61"/><polygon class="cls-7" points="833.6 122.34 888.47 122.34 888.47 130.38 836.9 130.38 833.6 122.34"/><path class="cls-8" d="M889.08,132.76H829V118.45h60.09ZM833.76,128h50.55l3.16-7.42H830.71Z"/><rect class="cls-8" x="824.22" y="127.99" width="69.63" height="4.77"/><path class="cls-8" d="M841.94,93.6,819.75,55.17l30.49-17.6L872.43,76ZM826.27,56.92l17.41,30.16,22.23-12.83L848.49,44.09Z"/><path class="cls-8" d="M818.48,61.42,811.33,49l37.8-21.82,7.15,12.39Zm-.64-10.65,2.39,4.13,29.54-17-4.26-7.38Z"/><path class="cls-8" d="M843.05,104,835.9,91.58l37.8-21.83,7.15,12.4Zm-.64-10.65,2.39,4.14,31.31-14L872,76.27Z"/><path class="cls-8" d="M824.78,87.44l-8.27-14.33,14.33-8.27,8.28,14.33ZM823,74.86l3.51,6.07,6.07-3.51-3.51-6.07Z"/><path class="cls-8" d="M766.9,119.6a8.44,8.44,0,0,1-2.16-.29,8.27,8.27,0,0,1-2-15.16l50.19-29,8.28,14.33-50.2,29a8.18,8.18,0,0,1-4.12,1.12m42.4-41.2-44.17,29.88a3.51,3.51,0,0,0,3.51,6.07l47.87-23.46Z"/><rect class="cls-8" x="814.42" y="78.92" width="8.89" height="4.77" transform="translate(69.02 420.24) rotate(-29.99)"/><rect class="cls-8" x="767.66" y="103.6" width="4.77" height="11.78" transform="translate(48.42 399.68) rotate(-30)"/><path class="cls-2" d="M941.16,99.22h-13v34.17h-8.37V99.22h-13V91.39h34.41Z"/><path class="cls-2" d="M962.88,104.17l-1.17,7.77A12.71,12.71,0,0,0,957,111c-3.63,0-6.12,2.22-6.12,6.54v15.84H943V104.32h7.59v3.18c1.83-2.73,4.62-4,8.19-4A11.89,11.89,0,0,1,962.88,104.17Z"/><path class="cls-2" d="M977.1,94.81a5,5,0,1,1-5-5A5,5,0,0,1,977.1,94.81Zm-1.05,38.58h-7.83V104.32h7.83Z"/><path class="cls-2" d="M1012.89,133.39h-7.65v-3.21a10.67,10.67,0,0,1-8.7,4c-8,0-14.07-6.57-14.07-15.3s6.06-15.3,14.07-15.3a10.64,10.64,0,0,1,8.7,4v-3.21h7.65Zm-22.41-14.55c0,4.44,2.91,8,7.5,8s7.5-3.42,7.5-8-3-8-7.5-8S990.48,114.4,990.48,118.84Z"/><path class="cls-2" d="M1028.94,133.39h-7.83V90.19h7.83Z"/><path class="cls-1" d="M903.26,156.85a9,9,0,0,0-4.76-1.43c-1.88,0-3.21.74-3.21,2s1.45,1.61,3.46,1.95l1,.15c3,.49,5.35,1.78,5.35,4.7,0,3.71-3.26,5.47-6.87,5.47a11.69,11.69,0,0,1-7.08-2.19l1.74-2.7a8.87,8.87,0,0,0,5.35,1.81c1.86,0,3.3-.73,3.3-2s-1.23-1.59-3.56-2l-1.07-.17c-3-.47-5.12-1.78-5.12-4.81,0-3.5,3.11-5.33,6.69-5.33a11.85,11.85,0,0,1,6.42,1.79Z"/><path class="cls-1" d="M920,163.59c0,3.49-2.42,6.11-5.62,6.11a4.24,4.24,0,0,1-3.42-1.51v6h-3.12V157.78h3.06v1.28a4.22,4.22,0,0,1,3.47-1.59C917.58,157.47,920,160.1,920,163.59Zm-9.2,0a3,3,0,1,0,3-3.21A3,3,0,0,0,910.8,163.59Z"/><path class="cls-1" d="M930.5,157.72l-.46,3.11a5.06,5.06,0,0,0-1.9-.37,2.32,2.32,0,0,0-2.45,2.61v6.33h-3.13V157.78h3v1.27a3.67,3.67,0,0,1,3.27-1.58A4.65,4.65,0,0,1,930.5,157.72Z"/><path class="cls-1" d="M936.19,154a2,2,0,1,1-2-2A2,2,0,0,1,936.19,154Zm-.42,15.42h-3.12V157.78h3.12Z"/><path class="cls-1" d="M950.05,162v7.4h-3.13V163c0-1.68-.84-2.6-2.27-2.6a2.38,2.38,0,0,0-2.46,2.62v6.37h-3.13V157.78h3.05v1.37a3.89,3.89,0,0,1,3.42-1.68A4.32,4.32,0,0,1,950.05,162Z"/><path class="cls-1" d="M961.48,159.08v-1.3h3.07v10.66c0,3.73-2.44,6-6.28,6a9.13,9.13,0,0,1-5.08-1.41l1.11-2.55a6.88,6.88,0,0,0,3.84,1.19c1.94,0,3.31-1.08,3.31-3.09v-.81a4.39,4.39,0,0,1-3.57,1.57c-2.83,0-5.35-2.36-5.35-5.92s2.52-5.94,5.35-5.94A4.4,4.4,0,0,1,961.48,159.08Zm-5.74,4.33a2.92,2.92,0,1,0,2.93-3.06A2.89,2.89,0,0,0,955.74,163.41Z"/><path class="cls-1" d="M972.94,155.2a6.89,6.89,0,0,1,5.73-2.89c3.52,0,5.7,2.21,5.7,5.42,0,2.05-1,3.48-2.42,4.91l-3.59,3.73h6.42v3h-11.1v-2.53l5.94-6.08a4.05,4.05,0,0,0,1.38-2.88,2.41,2.41,0,0,0-2.57-2.5,4.34,4.34,0,0,0-3.4,1.84Z"/><path class="cls-1" d="M1001.36,161c0,5.43-3.24,8.69-7.24,8.69s-7.24-3.26-7.24-8.69,3.22-8.7,7.24-8.7S1001.36,155.57,1001.36,161Zm-11.11,0c0,3.67,1.72,5.59,3.87,5.59S998,164.68,998,161s-1.71-5.59-3.86-5.59S990.25,157.34,990.25,161Z"/><path class="cls-1" d="M1003.4,155.2a6.89,6.89,0,0,1,5.73-2.89c3.51,0,5.69,2.21,5.69,5.42,0,2.05-1,3.48-2.42,4.91l-3.58,3.73h6.41v3h-11.09v-2.53l5.94-6.08a4.08,4.08,0,0,0,1.37-2.88,2.4,2.4,0,0,0-2.56-2.5,4.36,4.36,0,0,0-3.41,1.84Z"/><path class="cls-1" d="M1031.81,161c0,5.43-3.23,8.69-7.24,8.69s-7.23-3.26-7.23-8.69,3.21-8.7,7.23-8.7S1031.81,155.57,1031.81,161Zm-11.1,0c0,3.67,1.71,5.59,3.86,5.59s3.86-1.92,3.86-5.59-1.7-5.59-3.86-5.59S1020.71,157.34,1020.71,161Z"/><path class="cls-1" d="M49.54,420.83H44.33v13.66H41V420.83H35.78V417.7H49.54Z"/><path class="cls-1" d="M62.38,428.66a8.21,8.21,0,0,1-.06,1.06H54.08a2.81,2.81,0,0,0,3,2.41A4.74,4.74,0,0,0,60,431l1.83,2a7.06,7.06,0,0,1-5,1.76,5.74,5.74,0,0,1-6-6.08c0-3.65,2.39-6.15,5.87-6.15S62.37,425,62.38,428.66Zm-8.29-1.07h5.15a2.59,2.59,0,0,0-5.15,0Z"/><path class="cls-1" d="M75.07,424.76l-2.26,1.88a3.21,3.21,0,0,0-2.48-1.17,3.22,3.22,0,0,0,0,6.41,3.41,3.41,0,0,0,2.53-1.18l2.23,1.91a5.74,5.74,0,0,1-4.67,2.18,6.12,6.12,0,1,1,0-12.23A5.68,5.68,0,0,1,75.07,424.76Z"/><path class="cls-1" d="M80.47,424.12a3.9,3.9,0,0,1,3.33-1.56,4.33,4.33,0,0,1,4.52,4.53v7.4H85.19V428.1c0-1.68-.84-2.6-2.26-2.6a2.38,2.38,0,0,0-2.46,2.63v6.36H77.34V417.21h3.13Z"/><path class="cls-1" d="M101.07,434.49H97.73V417.7h3.34Z"/><path class="cls-1" d="M115.61,427.09v7.4h-3.13V428.1c0-1.68-.84-2.6-2.27-2.6a2.38,2.38,0,0,0-2.45,2.63v6.36h-3.13V422.87h3v1.37a3.89,3.89,0,0,1,3.42-1.68A4.33,4.33,0,0,1,115.61,427.09Z"/><path class="cls-1" d="M127.13,424.08v-6.86h3.12v17.27h-3.06v-1.28a4.24,4.24,0,0,1-3.48,1.58c-3.2,0-5.62-2.62-5.62-6.11s2.42-6.12,5.62-6.12A4.22,4.22,0,0,1,127.13,424.08Zm-5.84,4.6a3,3,0,1,0,3-3.21A3,3,0,0,0,121.29,428.68Z"/><path class="cls-1" d="M144.45,429.54c0,3.67-2.59,5.25-5.49,5.25s-5.51-1.58-5.51-5.25v-6.67h3.13v6.39c0,1.86,1,2.62,2.38,2.62s2.37-.76,2.37-2.62v-6.39h3.12Z"/><path class="cls-1" d="M156,426.11a9.25,9.25,0,0,0-3.71-.95c-1.18,0-1.78.42-1.78,1.06s.84.84,1.89,1l1,.16c2.52.38,3.93,1.51,3.93,3.48,0,2.4-2,3.94-5.34,3.94a9.32,9.32,0,0,1-5.17-1.36l1.24-2.38a6.76,6.76,0,0,0,4,1.14c1.45,0,2.15-.41,2.15-1.09s-.59-.88-1.93-1.07l-1-.13c-2.69-.37-4-1.55-4-3.53,0-2.38,1.85-3.8,4.91-3.8a10.38,10.38,0,0,1,4.86,1.11Z"/><path class="cls-1" d="M168.24,425.65H164v4.25c0,1.45.76,2,1.73,2a4.5,4.5,0,0,0,2.19-.76l1.15,2.45a6.47,6.47,0,0,1-3.85,1.22c-2.88,0-4.36-1.63-4.36-4.64v-4.5h-2.24v-2.78h2.24v-3.45H164v3.45h4.2Z"/><path class="cls-1" d="M179,422.81l-.47,3.11a5,5,0,0,0-1.89-.37,2.32,2.32,0,0,0-2.45,2.61v6.33H171V422.87h3v1.27a3.69,3.69,0,0,1,3.28-1.58A4.9,4.9,0,0,1,179,422.81Z"/><path class="cls-1" d="M184,439.34h-3.43l4.06-7.32-5-9.15h3.55l3.19,6,3.1-6h3.43Z"/><path class="cls-1" d="M37.8,457.15v6.14H34.46V446.5h6.85c4,0,6.14,2.09,6.14,5.34s-2.14,5.31-6.12,5.31Zm0-7.56v4.5h3.45c1.82,0,2.77-.74,2.77-2.25s-1-2.25-2.77-2.25Z"/><path class="cls-1" d="M58,451.61l-.46,3.11a5.06,5.06,0,0,0-1.9-.37A2.32,2.32,0,0,0,53.18,457v6.33H50V451.67h3v1.27a3.67,3.67,0,0,1,3.27-1.58A4.9,4.9,0,0,1,58,451.61Z"/><path class="cls-1" d="M63.68,447.87a2,2,0,1,1-2-2A2,2,0,0,1,63.68,447.87Zm-.42,15.42H60.12V451.67h3.14Z"/><path class="cls-1" d="M73.32,463.29H69.71l-4.59-11.62h3.4l3,8.33,3-8.33h3.3Z"/><path class="cls-1" d="M91.17,463.29h-3V462a4.27,4.27,0,0,1-3.48,1.58c-3.2,0-5.63-2.62-5.63-6.11s2.43-6.12,5.63-6.12a4.27,4.27,0,0,1,3.48,1.6v-1.29h3Zm-9-5.81a3,3,0,1,0,3-3.21A3,3,0,0,0,82.22,457.48Z"/><path class="cls-1" d="M104.59,453.56l-2.25,1.88a3.23,3.23,0,0,0-2.49-1.17,3.22,3.22,0,0,0,0,6.41,3.4,3.4,0,0,0,2.53-1.18l2.23,1.91a5.72,5.72,0,0,1-4.66,2.18,6.12,6.12,0,1,1,0-12.23A5.66,5.66,0,0,1,104.59,453.56Z"/><path class="cls-1" d="M109.76,468.14h-3.43l4.06-7.32-5-9.15h3.55l3.19,6,3.09-6h3.43Z"/><path class="cls-1" d="M130,463.29H126.6V446.5H130Z"/><path class="cls-1" d="M141.84,454.91a9.25,9.25,0,0,0-3.71-1c-1.18,0-1.78.42-1.78,1.06s.84.84,1.89,1l1,.16c2.52.38,3.93,1.51,3.93,3.48,0,2.4-2,3.94-5.34,3.94a9.3,9.3,0,0,1-5.17-1.36l1.23-2.38a6.82,6.82,0,0,0,4,1.14c1.45,0,2.15-.41,2.15-1.09s-.59-.88-1.93-1.07l-.95-.13c-2.69-.37-4-1.55-4-3.53,0-2.38,1.85-3.8,4.91-3.8a10.38,10.38,0,0,1,4.86,1.11Z"/><path class="cls-1" d="M154,454.91a9.3,9.3,0,0,0-3.71-1c-1.19,0-1.79.42-1.79,1.06s.84.84,1.9,1l1,.16c2.52.38,3.92,1.51,3.92,3.48,0,2.4-2,3.94-5.33,3.94a9.3,9.3,0,0,1-5.17-1.36l1.23-2.38a6.82,6.82,0,0,0,4,1.14c1.45,0,2.15-.41,2.15-1.09s-.59-.88-1.93-1.07l-1-.13c-2.69-.37-4-1.55-4-3.53,0-2.38,1.85-3.8,4.91-3.8a10.33,10.33,0,0,1,4.85,1.11Z"/><path class="cls-1" d="M168.74,458.34c0,3.67-2.59,5.25-5.49,5.25s-5.51-1.58-5.51-5.25v-6.67h3.13v6.39c0,1.86,1,2.62,2.38,2.62s2.37-.76,2.37-2.62v-6.39h3.12Z"/><path class="cls-1" d="M182.75,457.46a10.51,10.51,0,0,1-.06,1.06h-8.24a2.8,2.8,0,0,0,3,2.41,4.69,4.69,0,0,0,2.94-1.12l1.84,2a7.07,7.07,0,0,1-5,1.76,5.74,5.74,0,0,1-6-6.08c0-3.66,2.4-6.15,5.88-6.15S182.73,453.84,182.75,457.46Zm-8.29-1.07h5.14a2.5,2.5,0,0,0-2.53-2.33A2.53,2.53,0,0,0,174.46,456.39Z"/><path class="cls-1" d="M193.64,454.91a9.25,9.25,0,0,0-3.7-1c-1.19,0-1.79.42-1.79,1.06s.84.84,1.89,1l1,.16c2.52.38,3.92,1.51,3.92,3.48,0,2.4-2,3.94-5.34,3.94a9.32,9.32,0,0,1-5.17-1.36l1.24-2.38a6.77,6.77,0,0,0,4,1.14c1.45,0,2.14-.41,2.14-1.09s-.59-.88-1.93-1.07l-1-.13c-2.68-.37-4-1.55-4-3.53,0-2.38,1.84-3.8,4.9-3.8a10.38,10.38,0,0,1,4.86,1.11Z"/><path class="cls-1" d="M477.21,159.38h8.09v-6.77h3.34V169.4H485.3v-6.91h-8.09v6.91h-3.34V152.61h3.34Z"/><path class="cls-1" d="M503,163.57a8.21,8.21,0,0,1-.06,1.06h-8.24a2.81,2.81,0,0,0,3,2.41,4.71,4.71,0,0,0,2.94-1.12l1.83,2a7.06,7.06,0,0,1-5,1.76,5.75,5.75,0,0,1-6-6.08c0-3.66,2.4-6.15,5.88-6.15S503,160,503,163.57Zm-8.29-1.08h5.15a2.59,2.59,0,0,0-5.15,0Z"/><path class="cls-1" d="M517,169.4h-3v-1.28a4.3,4.3,0,0,1-3.48,1.58c-3.2,0-5.63-2.62-5.63-6.11s2.43-6.12,5.63-6.12a4.29,4.29,0,0,1,3.48,1.59v-1.28h3Zm-8.95-5.81a3,3,0,1,0,3-3.21A3,3,0,0,0,508.06,163.59Z"/><path class="cls-1" d="M523.44,169.4h-3.13V152.13h3.13Z"/><path class="cls-1" d="M535.16,160.56H531v4.25c0,1.45.77,2,1.74,2a4.47,4.47,0,0,0,2.18-.76l1.15,2.45a6.51,6.51,0,0,1-3.85,1.22c-2.88,0-4.35-1.63-4.35-4.64v-4.5h-2.24v-2.78h2.24v-3.45H531v3.45h4.21Z"/><path class="cls-1" d="M541.05,159a3.92,3.92,0,0,1,3.34-1.56,4.32,4.32,0,0,1,4.52,4.53v7.4h-3.13V163c0-1.68-.84-2.6-2.27-2.6a2.38,2.38,0,0,0-2.46,2.62v6.37h-3.13V152.12h3.13Z"/><path class="cls-1" d="M562.23,159.66,560,161.55a3.23,3.23,0,0,0-2.49-1.17,3.22,3.22,0,0,0,0,6.41,3.4,3.4,0,0,0,2.53-1.18l2.23,1.91a5.72,5.72,0,0,1-4.66,2.18,6.12,6.12,0,1,1,0-12.23A5.68,5.68,0,0,1,562.23,159.66Z"/><path class="cls-1" d="M575.94,169.4h-3.05v-1.28a4.3,4.3,0,0,1-3.48,1.58c-3.2,0-5.63-2.62-5.63-6.11s2.43-6.12,5.63-6.12a4.29,4.29,0,0,1,3.48,1.59v-1.28h3.05Zm-9-5.81a3,3,0,1,0,3-3.21A3,3,0,0,0,567,163.59Z"/><path class="cls-1" d="M587.18,157.72l-.47,3.11a5,5,0,0,0-1.89-.37,2.32,2.32,0,0,0-2.45,2.61v6.33h-3.13V157.78h3v1.27a3.69,3.69,0,0,1,3.28-1.58A4.65,4.65,0,0,1,587.18,157.72Z"/><path class="cls-1" d="M600.13,163.57a10.51,10.51,0,0,1-.06,1.06h-8.24a2.8,2.8,0,0,0,3,2.41,4.69,4.69,0,0,0,2.94-1.12l1.84,2a7.07,7.07,0,0,1-5,1.76,5.74,5.74,0,0,1-6-6.08c0-3.66,2.4-6.15,5.88-6.15S600.11,160,600.13,163.57Zm-8.29-1.08H597a2.58,2.58,0,0,0-5.14,0Z"/><path class="cls-9" d="M584.93,35.21l-.39-.38a29.91,29.91,0,0,0-41.17,0l-.68.65-.67-.65a29.92,29.92,0,0,0-41.18,0l-.38.37A27.36,27.36,0,0,0,491.93,55a16.51,16.51,0,0,0,0,4.39l13.41,3.1,10-23.91L525,75.55l3.88-12.36,50.86-6.14-44,11.71L522,85.91l-6.79-37.35-5.54,20.6-16.55-5.25a28.84,28.84,0,0,0,5.33,8.77A20.1,20.1,0,0,0,500,74.4l48.47,34.35,36.42-33.89a27.31,27.31,0,0,0,0-39.65"/><path class="cls-10" d="M542.75,121.51,493.87,72.62A31.11,31.11,0,0,1,491.5,70c.59.72,1.22,1.42,1.87,2.07l49.38,39.6,44-44a26.74,26.74,0,0,0,0-37.82l-.46-.46a26.74,26.74,0,0,0-37.8,0l-5.71,5.71-5.7-5.71a26.75,26.75,0,0,0-37.82,0l-.45.45A26.59,26.59,0,0,0,491,48.8h-7A33.45,33.45,0,0,1,493.87,25l.44-.45a33.69,33.69,0,0,1,47.66,0l.78.78.79-.78a33.67,33.67,0,0,1,47.65,0l.45.45a33.69,33.69,0,0,1,0,47.64Z"/><polygon class="cls-10" points="523.09 82.55 515.45 38.58 509.27 65.07 471.5 57.51 504.34 57.51 515.37 31.39 524.95 68.33 528.84 55.97 589.51 55.97 533.35 63.53 523.09 82.55"/><path class="cls-1" d="M455.2,296.41c0,4.64-3,7-7.23,7s-7.23-2.36-7.23-7V286.32h3.35v9.92c0,2.76,1.56,4,3.88,4s3.87-1.21,3.87-4v-9.92h3.36Z"/><path class="cls-1" d="M462.57,301.07a2.33,2.33,0,1,1-2.31-2.31A2.38,2.38,0,0,1,462.57,301.07Z"/><path class="cls-1" d="M476.87,290.55a9.05,9.05,0,0,0-4.76-1.42c-1.88,0-3.21.74-3.21,2s1.45,1.61,3.46,1.94l.95.16c3,.49,5.35,1.78,5.35,4.7,0,3.71-3.26,5.47-6.87,5.47a11.71,11.71,0,0,1-7.08-2.19l1.74-2.7a8.87,8.87,0,0,0,5.35,1.81c1.86,0,3.3-.73,3.3-2s-1.22-1.59-3.56-2l-1.07-.16c-3-.47-5.12-1.78-5.12-4.81,0-3.51,3.12-5.33,6.69-5.33a11.82,11.82,0,0,1,6.42,1.79Z"/><path class="cls-1" d="M485.46,301.07a2.33,2.33,0,1,1-2.32-2.31A2.38,2.38,0,0,1,485.46,301.07Z"/><path class="cls-1" d="M501.16,286.32c3.91,0,6.37,1.45,6.37,4.65a3.76,3.76,0,0,1-2.43,3.57,4,4,0,0,1,2.79,3.76c0,3.23-2.29,4.81-6.32,4.81H494.3V286.32Zm-3.51,2.95v3.92h3.43c1.67,0,3-.35,3-2s-1.32-1.94-3-1.94Zm0,6.86v4h3.75c1.85,0,3-.43,3-2s-1.16-2-3-2Z"/><path class="cls-1" d="M521.55,298.16c0,3.67-2.59,5.25-5.49,5.25s-5.51-1.58-5.51-5.25v-6.67h3.13v6.39c0,1.86,1,2.62,2.38,2.62s2.37-.76,2.37-2.62v-6.39h3.12Z"/><path class="cls-1" d="M533.07,292.7v-6.86h3.12v17.27h-3.06v-1.28a4.28,4.28,0,0,1-3.48,1.58c-3.2,0-5.62-2.63-5.62-6.12s2.42-6.11,5.62-6.11A4.24,4.24,0,0,1,533.07,292.7Zm-5.84,4.59a3,3,0,1,0,3-3.2A3,3,0,0,0,527.23,297.29Z"/><path class="cls-1" d="M547.71,292.78v-1.29h3.07v10.66c0,3.73-2.43,6-6.27,6a9.14,9.14,0,0,1-5.09-1.41l1.12-2.55a6.83,6.83,0,0,0,3.84,1.19c1.94,0,3.31-1.08,3.31-3.09v-.81a4.39,4.39,0,0,1-3.58,1.57c-2.83,0-5.35-2.36-5.35-5.93s2.52-5.93,5.35-5.93A4.41,4.41,0,0,1,547.71,292.78ZM542,297.11a2.92,2.92,0,1,0,2.92-3.05A2.89,2.89,0,0,0,542,297.11Z"/><path class="cls-1" d="M564.88,297.28a8.32,8.32,0,0,1-.06,1.06h-8.24a2.81,2.81,0,0,0,3,2.41,4.71,4.71,0,0,0,2.94-1.12l1.83,2a7.06,7.06,0,0,1-5,1.76,5.75,5.75,0,0,1-6-6.08c0-3.66,2.4-6.15,5.88-6.15S564.87,293.66,564.88,297.28Zm-8.29-1.08h5.15a2.59,2.59,0,0,0-5.15,0Z"/><path class="cls-1" d="M575.87,294.27h-4.21v4.25c0,1.45.77,2,1.74,2a4.61,4.61,0,0,0,2.19-.76l1.15,2.45a6.54,6.54,0,0,1-3.85,1.22c-2.88,0-4.36-1.63-4.36-4.64v-4.5h-2.24v-2.78h2.24V288h3.13v3.46h4.21Z"/><path class="cls-1" d="M596.43,297.29a6.29,6.29,0,1,1-6.3-6.11A6,6,0,0,1,596.43,297.29Zm-9.38,0a3.09,3.09,0,1,0,3.08-3.2A3,3,0,0,0,587.05,297.29Z"/><path class="cls-1" d="M605.77,303.11h-3.61l-4.6-11.62H601l3,8.32,3-8.32h3.3Z"/><path class="cls-1" d="M623,297.28a8.32,8.32,0,0,1-.06,1.06h-8.24a2.81,2.81,0,0,0,3,2.41,4.69,4.69,0,0,0,2.94-1.12l1.83,2a7,7,0,0,1-5,1.76,5.74,5.74,0,0,1-6-6.08c0-3.66,2.4-6.15,5.87-6.15S623,293.66,623,297.28Zm-8.28-1.08h5.14a2.58,2.58,0,0,0-5.14,0Z"/><path class="cls-1" d="M633.49,291.43l-.47,3.11a5.07,5.07,0,0,0-1.9-.38,2.32,2.32,0,0,0-2.44,2.62v6.33h-3.13V291.49h3v1.27a3.67,3.67,0,0,1,3.27-1.58A4.71,4.71,0,0,1,633.49,291.43Z"/><path class="cls-1" d="M513.39,419.16h-3.06v-1.28a4.27,4.27,0,0,1-3.48,1.58c-3.2,0-5.62-2.63-5.62-6.11s2.42-6.12,5.62-6.12a4.27,4.27,0,0,1,3.48,1.59v-1.28h3.06Zm-9-5.81a3,3,0,1,0,3-3.21A3,3,0,0,0,504.43,413.35Z"/><path class="cls-1" d="M525.51,424h-3.43l4.07-7.32-5-9.15h3.55l3.19,6,3.09-6h3.43Z"/><path class="cls-1" d="M547,413.33c0,.36,0,.79-.06,1.06h-8.24a2.8,2.8,0,0,0,3,2.41,4.69,4.69,0,0,0,2.94-1.12l1.84,2a7.07,7.07,0,0,1-5,1.76,5.74,5.74,0,0,1-6-6.08c0-3.66,2.4-6.15,5.88-6.15S547,409.71,547,413.33Zm-8.29-1.08h5.14a2.58,2.58,0,0,0-5.14,0Z"/><path class="cls-1" d="M561,419.16h-3.06v-1.28a4.28,4.28,0,0,1-3.48,1.58c-3.2,0-5.62-2.63-5.62-6.11s2.42-6.12,5.62-6.12a4.27,4.27,0,0,1,3.48,1.59v-1.28H561Zm-9-5.81a3,3,0,1,0,3-3.21A3,3,0,0,0,552,413.35Z"/><path class="cls-1" d="M572.2,407.48l-.47,3.11a5,5,0,0,0-1.89-.38,2.33,2.33,0,0,0-2.45,2.62v6.33h-3.13V407.54h3v1.27a3.66,3.66,0,0,1,3.27-1.58A4.65,4.65,0,0,1,572.2,407.48Z"/><path class="cls-11" d="M389.53,363.09c0,11.61-7.41,17.52-18.09,17.52s-18.09-5.91-18.09-17.52V337.86h8.4v24.81c0,6.9,3.9,9.93,9.69,9.93s9.69-3,9.69-9.93V337.86h8.4Z"/><path class="cls-11" d="M427.09,348.45a22.57,22.57,0,0,0-11.91-3.57c-4.71,0-8,1.86-8,5s3.63,4,8.67,4.86l2.37.39c7.5,1.23,13.38,4.44,13.38,11.76,0,9.27-8.16,13.68-17.19,13.68-6.36,0-13.2-1.86-17.7-5.49l4.35-6.75a22.17,22.17,0,0,0,13.38,4.53c4.65,0,8.25-1.83,8.25-5.07,0-2.91-3.06-4-8.91-4.92l-2.67-.42c-7.41-1.17-12.81-4.44-12.81-12,0-8.76,7.8-13.32,16.74-13.32a29.55,29.55,0,0,1,16.05,4.47Z"/><path class="cls-11" d="M459.31,332.94v5.55a28.15,28.15,0,0,1,12.51,4.23l-3.75,6.42a23.86,23.86,0,0,0-8.76-3.27v9.57c7.35,1.14,13.05,4.38,12.9,11.22-.18,7.41-5.85,11.43-12.87,12.45v5.94h-6.66v-5.79c-5.31-.45-10.65-2.16-14.31-5l4.11-6.36a22.37,22.37,0,0,0,10.17,4.08v-9.66l-.33-.06c-7.35-1.17-12.66-4.35-12.51-11.49.12-6.78,5.46-11.16,12.84-12.18v-5.61Zm-6.66,21.36V346c-2.79.66-4.53,2.16-4.59,4.32S449.71,353.55,452.65,354.3Zm6.66,9.12v8.31c2.76-.66,4.59-2.13,4.65-4.38C464,365.37,462.34,364.2,459.31,363.42Z"/><path class="cls-11" d="M496.12,379.86H488V348.6l-10,4.08v-8.16l18.15-7.32Z"/><path class="cls-11" d="M550.45,345.69h-13v34.17h-8.37V345.69H516v-7.83h34.41Z"/><path class="cls-11" d="M572.17,350.64,571,358.41a12.71,12.71,0,0,0-4.74-.93c-3.63,0-6.12,2.22-6.12,6.54v15.84h-7.83V350.79h7.59V354c1.83-2.73,4.62-4,8.19-4A11.89,11.89,0,0,1,572.17,350.64Z"/><path class="cls-11" d="M586.39,341.28a5,5,0,1,1-5-5A5,5,0,0,1,586.39,341.28Zm-1,38.58h-7.83V350.79h7.83Z"/><path class="cls-11" d="M601.39,379.86h-7.83v-43.2h7.83Z"/><path class="cls-11" d="M617.44,379.86h-7.83v-43.2h7.83Z"/><path class="cls-11" d="M634.54,341.28a5,5,0,1,1-5-5A5,5,0,0,1,634.54,341.28Zm-1,38.58h-7.83V350.79h7.83Z"/><path class="cls-11" d="M671.35,365.31c0,8.76-6.69,15.3-15.75,15.3s-15.69-6.54-15.69-15.3S646.57,350,655.6,350,671.35,356.55,671.35,365.31Zm-23.46,0c0,4.71,3.3,8,7.71,8a8,8,0,0,0,0-16C651.19,357.3,647.89,360.6,647.89,365.31Z"/><path class="cls-11" d="M705.22,361.35v18.51h-7.83v-16c0-4.2-2.1-6.51-5.67-6.51-3.36,0-6.15,2.19-6.15,6.57v15.93h-7.83V350.79h7.62v3.42a9.74,9.74,0,0,1,8.55-4.2C700.51,350,705.22,354.6,705.22,361.35Z"/></g></g></svg>