<svg xmlns="http://www.w3.org/2000/svg" width="1080" height="270" viewBox="0 0 1080 270"><defs><style>.a{fill:#203232;}.b{fill:#ed5a36;}.c{fill:none;stroke:#ccc;stroke-miterlimit:10;stroke-width:2px;}</style></defs><path class="a" d="M43.86,29v6.46h-2V19.25H48c3.65,0,5.72,1.83,5.72,4.85S51.62,29,48,29Zm0-7.79V27h4.06c2.39,0,3.65-1,3.65-2.94s-1.26-2.93-3.65-2.93Z"/><path class="a" d="M63.92,24.58l-.46,1.86A4.25,4.25,0,0,0,61.58,26c-1.68,0-2.86,1.28-2.86,3.3v6.11H56.84v-11H58.7V25.9a3.85,3.85,0,0,1,3.21-1.68A4.81,4.81,0,0,1,63.92,24.58Z"/><path class="a" d="M68.79,20.59a1.32,1.32,0,0,1-1.35,1.32,1.3,1.3,0,0,1-1.33-1.32,1.32,1.32,0,0,1,1.33-1.35A1.34,1.34,0,0,1,68.79,20.59ZM68.4,35.42H66.51v-11H68.4Z"/><path class="a" d="M77.55,35.44H75.34l-4.63-11h2.06l3.69,9.07,3.69-9.07h2Z"/><path class="a" d="M94.75,35.42h-1.9V34A4.86,4.86,0,0,1,89,35.66a5.49,5.49,0,0,1-5.49-5.72A5.48,5.48,0,0,1,89,24.22a4.83,4.83,0,0,1,3.87,1.71V24.45h1.9Zm-9.33-5.48a3.78,3.78,0,1,0,7.55,0,3.78,3.78,0,1,0-7.55,0Z"/><path class="a" d="M106.18,26.17h-4.61v5.35c0,1.65.88,2.37,2.07,2.37a4.05,4.05,0,0,0,2.24-.74l.89,1.42a5.53,5.53,0,0,1-3.29,1.09c-2.38,0-3.8-1.31-3.8-4.11V26.17H97.33V24.45h2.35V21h1.89v3.44h4.61Z"/><path class="a" d="M119,29.9c0,.25,0,.5,0,.71H110.3A3.58,3.58,0,0,0,114,34a5.17,5.17,0,0,0,3.39-1.3l1,1.29a6.24,6.24,0,0,1-4.5,1.67,5.38,5.38,0,0,1-5.57-5.72,5.37,5.37,0,0,1,5.45-5.72C116.79,24.22,118.94,26.54,119,29.9Zm-8.64-.82H117a3.26,3.26,0,0,0-3.26-3.18A3.4,3.4,0,0,0,110.32,29.08Z"/><path class="a" d="M137.23,26,136,27.23A4,4,0,0,0,133.11,26a3.73,3.73,0,0,0-3.72,3.94,3.73,3.73,0,0,0,3.72,3.95,4.26,4.26,0,0,0,3-1.26l1.16,1.3a5.33,5.33,0,0,1-4.07,1.73,5.5,5.5,0,0,1-5.7-5.72,5.5,5.5,0,0,1,5.7-5.72A5.28,5.28,0,0,1,137.23,26Z"/><path class="a" d="M147.21,24.58l-.46,1.86a4.27,4.27,0,0,0-1.89-.43c-1.67,0-2.85,1.28-2.85,3.3v6.11h-1.88v-11H142V25.9a3.84,3.84,0,0,1,3.21-1.68A4.84,4.84,0,0,1,147.21,24.58Z"/><path class="a" d="M159.12,29.9c0,.25,0,.5,0,.71h-8.63A3.57,3.57,0,0,0,154.19,34a5.12,5.12,0,0,0,3.38-1.3l1,1.29a6.25,6.25,0,0,1-4.51,1.67,5.38,5.38,0,0,1-5.56-5.72A5.37,5.37,0,0,1,154,24.22C157,24.22,159.1,26.54,159.12,29.9Zm-8.64-.82h6.71a3.27,3.27,0,0,0-3.27-3.18A3.4,3.4,0,0,0,150.48,29.08Z"/><path class="a" d="M170.8,25.93V18.79h1.9V35.42h-1.9V34a4.84,4.84,0,0,1-3.87,1.7,5.48,5.48,0,0,1-5.48-5.72,5.47,5.47,0,0,1,5.48-5.72A4.82,4.82,0,0,1,170.8,25.93Zm-7.42,4a3.77,3.77,0,1,0,7.54,0,3.77,3.77,0,1,0-7.54,0Z"/><path class="a" d="M179,20.59a1.32,1.32,0,0,1-1.35,1.32,1.3,1.3,0,0,1-1.33-1.32,1.32,1.32,0,0,1,1.33-1.35A1.34,1.34,0,0,1,179,20.59Zm-.39,14.83h-1.89v-11h1.89Z"/><path class="a" d="M190,26.17H185.4v5.35c0,1.65.88,2.37,2.07,2.37a4.05,4.05,0,0,0,2.24-.74l.89,1.42a5.53,5.53,0,0,1-3.29,1.09c-2.38,0-3.8-1.31-3.8-4.11V26.17h-2.35V24.45h2.35V21h1.89v3.44H190Z"/><path class="a" d="M213,35.42h-2.18L209,31h-7.84l-1.77,4.41h-2.12l6.58-16.17h2.53Zm-11-6.34h6.29l-3.14-7.82Z"/><path class="a" d="M228.49,29.08c0,4.42-3,6.58-6.71,6.58s-6.71-2.16-6.71-6.58V19.25h2v9.68c0,3.32,2,4.77,4.68,4.77s4.66-1.45,4.66-4.77V19.25h2.05Z"/><path class="a" d="M249.9,35.42h-2V21.51l-5.42,12.17H240.3L234.89,21.6V35.42h-2V19.24H236l5.42,12.07,5.42-12.07h3.1Z"/><path class="a" d="M91.33,53.91a4.31,4.31,0,0,1,3.59-1.66,4.26,4.26,0,0,1,4.57,4.39v6.82h-1.9v-6.2c0-2-1.1-3.22-3-3.22a3.13,3.13,0,0,0-3.25,3.26v6.16H89.45V46.83h1.88Z"/><path class="a" d="M113.78,63.46h-1.89V62a4.86,4.86,0,0,1-3.87,1.7,5.72,5.72,0,0,1,0-11.44A4.83,4.83,0,0,1,111.89,54V52.49h1.89ZM104.46,58A3.77,3.77,0,1,0,108.24,54,3.76,3.76,0,0,0,104.46,58Z"/><path class="a" d="M125.16,54.92a6.85,6.85,0,0,0-3.53-1c-1.51,0-2.48.63-2.48,1.62s.8,1.29,2.13,1.45l1.27.16c2.33.31,3.71,1.29,3.71,3.11,0,2.09-1.87,3.44-4.87,3.44a7.83,7.83,0,0,1-4.62-1.41l.88-1.41A5.71,5.71,0,0,0,121.41,62c1.8,0,2.91-.59,2.91-1.68,0-.81-.72-1.31-2.21-1.5l-1.27-.15c-2.46-.3-3.65-1.41-3.65-3.07,0-2.1,1.74-3.37,4.41-3.37A7.92,7.92,0,0,1,126,53.46Z"/><path class="a" d="M143.79,54V52.49h1.9V62.7c0,3.54-2.37,5.56-5.84,5.56a7.67,7.67,0,0,1-4.6-1.42l.83-1.52a6.48,6.48,0,0,0,3.77,1.22c2.36,0,3.94-1.33,3.94-3.76v-1A4.59,4.59,0,0,1,140,63.52a5.35,5.35,0,0,1-5.43-5.64A5.34,5.34,0,0,1,140,52.25,4.58,4.58,0,0,1,143.79,54Zm-7.28,3.9A3.72,3.72,0,1,0,140.23,54,3.67,3.67,0,0,0,136.51,57.88Z"/><path class="a" d="M156.75,52.61l-.46,1.86a4.25,4.25,0,0,0-1.88-.43c-1.68,0-2.85,1.29-2.85,3.31v6.11h-1.89v-11h1.86v1.44a3.86,3.86,0,0,1,3.21-1.68A5,5,0,0,1,156.75,52.61Z"/><path class="a" d="M169.66,58a5.81,5.81,0,1,1-5.81-5.72A5.63,5.63,0,0,1,169.66,58ZM160,58A3.87,3.87,0,1,0,163.85,54,3.8,3.8,0,0,0,160,58Z"/><path class="a" d="M184.78,61.48l3.12-9h2l-3.95,11h-2.25l-3.15-8.93-3.13,8.93h-2.21l-3.95-11h2l3.1,9,3.13-9h2.14Z"/><path class="a" d="M202.4,56.64v6.82h-1.9v-6.2c0-2-1.1-3.22-3-3.22a3.13,3.13,0,0,0-3.25,3.26v6.16h-1.88v-11h1.87v1.43a4.32,4.32,0,0,1,3.59-1.67A4.26,4.26,0,0,1,202.4,56.64Z"/><path class="b" d="M39.08,104.32,62,115v6.81l-23,10.68V125.2l16-6.78-16-6.81Z"/><path class="b" d="M69.8,98.62a20.89,20.89,0,0,1,17.35-8.75c10.63,0,17.23,6.68,17.23,16.4,0,6.21-3.15,10.52-7.33,14.84L86.2,132.4h19.42v9.18H72.05v-7.66l18-18.4c2.69-2.72,4.18-5.51,4.18-8.7,0-4.43-3.09-7.59-7.77-7.59s-7.69,2.62-10.3,5.59Z"/><path class="b" d="M155.76,116.18c0,16.44-9.8,26.3-21.92,26.3S112,132.62,112,116.18s9.72-26.31,21.88-26.31S155.76,99.74,155.76,116.18Zm-33.6,0c0,11.1,5.18,16.91,11.68,16.91s11.68-5.81,11.68-16.91-5.15-16.91-11.68-16.91S122.16,105.07,122.16,116.18Z"/><path class="b" d="M207,116.18c0,16.44-9.8,26.3-21.91,26.3s-21.88-9.86-21.88-26.3,9.72-26.31,21.88-26.31S207,99.74,207,116.18Zm-33.6,0c0,11.1,5.19,16.91,11.69,16.91s11.68-5.81,11.68-16.91-5.15-16.91-11.68-16.91S173.38,105.07,173.38,116.18Z"/><path class="b" d="M231.12,116.62a9.34,9.34,0,1,1-9.35-9.11A9,9,0,0,1,231.12,116.62Zm-13.37,0a4,4,0,1,0,4-4.12A4,4,0,0,0,217.75,116.62Zm8.47,25H220L242.4,108.1h6.24Zm30-8.54a9.34,9.34,0,1,1-9.35-9.13A9,9,0,0,1,256.25,133Zm-13.37,0a4,4,0,1,0,4-4.13A3.94,3.94,0,0,0,242.88,133Z"/><path class="a" d="M35.59,175.73a6.85,6.85,0,0,0-3.53-1c-1.51,0-2.48.63-2.48,1.62s.8,1.29,2.13,1.45L33,178c2.33.31,3.71,1.29,3.71,3.11,0,2.09-1.87,3.44-4.87,3.44a7.83,7.83,0,0,1-4.62-1.41l.88-1.41a5.71,5.71,0,0,0,3.76,1.17c1.8,0,2.91-.59,2.91-1.68,0-.81-.72-1.31-2.21-1.5l-1.27-.15c-2.46-.3-3.65-1.41-3.65-3.07,0-2.1,1.74-3.37,4.41-3.37a7.92,7.92,0,0,1,4.38,1.19Z"/><path class="a" d="M42,169.44a1.31,1.31,0,0,1-1.35,1.31,1.29,1.29,0,0,1-1.33-1.31,1.31,1.31,0,0,1,1.33-1.35A1.33,1.33,0,0,1,42,169.44Zm-.4,14.83H39.67v-11h1.88Z"/><path class="a" d="M55.58,177.45v6.82H53.69v-6.2c0-2-1.11-3.22-3-3.22a3.13,3.13,0,0,0-3.25,3.26v6.16H45.55v-11h1.87v1.43A4.32,4.32,0,0,1,51,173.06,4.26,4.26,0,0,1,55.58,177.45Z"/><path class="a" d="M68.4,174.8l-1.22,1.28a4,4,0,0,0-2.91-1.24,4,4,0,0,0,0,7.89,4.26,4.26,0,0,0,3-1.26l1.17,1.31a5.35,5.35,0,0,1-4.08,1.72,5.72,5.72,0,0,1,0-11.44A5.31,5.31,0,0,1,68.4,174.8Z"/><path class="a" d="M80.88,178.75c0,.24,0,.49,0,.7H72.21a3.58,3.58,0,0,0,3.73,3.4,5.16,5.16,0,0,0,3.39-1.31l1,1.3a6.23,6.23,0,0,1-4.5,1.66,5.72,5.72,0,0,1-.12-11.44C78.7,173.06,80.85,175.39,80.88,178.75Zm-8.64-.82H79a3.28,3.28,0,0,0-3.27-3.19A3.4,3.4,0,0,0,72.24,177.93Z"/><path class="a" d="M89.18,170.56a5.72,5.72,0,0,1,5-2.69,4.84,4.84,0,0,1,5.22,5.06,6.6,6.6,0,0,1-2.17,4.55l-4.64,4.93H99.9v1.86H89.68v-1.54l6-6.39a4.92,4.92,0,0,0,1.62-3.43,3,3,0,0,0-3.23-3.17,4.1,4.1,0,0,0-3.53,2Z"/><path class="a" d="M115.84,176.18c0,5.19-3,8.32-6.71,8.32s-6.71-3.13-6.71-8.32,3-8.31,6.71-8.31S115.84,171,115.84,176.18Zm-11.38,0c0,4.16,2.11,6.44,4.67,6.44s4.67-2.28,4.67-6.44-2.08-6.43-4.67-6.43S104.46,172,104.46,176.18Z"/><path class="a" d="M132.23,176.18c0,5.19-3,8.32-6.71,8.32s-6.71-3.13-6.71-8.32,3-8.31,6.71-8.31S132.23,171,132.23,176.18Zm-11.37,0c0,4.16,2.1,6.44,4.66,6.44s4.67-2.28,4.67-6.44-2.08-6.43-4.67-6.43S120.86,172,120.86,176.18Z"/><path class="a" d="M146.67,172.35A3.92,3.92,0,0,1,144,176.1c1.72.6,3.1,1.8,3.1,3.84,0,2.9-2.71,4.56-6,4.56s-6-1.66-6-4.56c0-2.05,1.39-3.25,3.11-3.84a3.9,3.9,0,0,1-2.72-3.75c0-2.83,2.54-4.48,5.64-4.48S146.67,169.52,146.67,172.35Zm-9.62,7.48c0,1.87,1.79,2.86,4,2.86s4-1,4-2.86-1.79-2.85-4-2.85S137.05,178,137.05,179.83Zm.38-7.39c0,1.87,1.62,2.83,3.58,2.83s3.6-1,3.6-2.83-1.62-2.75-3.6-2.75S137.43,170.65,137.43,172.44Z"/><path class="a" d="M152.59,181.35l-1.25,5.94h-1.63l.67-5.94Z"/><path class="a" d="M180.41,177.45v6.82h-1.9v-6.2c0-2-1.11-3.22-3-3.22a3.12,3.12,0,0,0-3.24,3.26v6.16h-1.89v-6.2c0-2-1.11-3.22-3-3.22a3.12,3.12,0,0,0-3.24,3.26v6.16h-1.88v-11h1.87v1.43a4.32,4.32,0,0,1,3.59-1.67,4.37,4.37,0,0,1,4.05,2.21,4.47,4.47,0,0,1,4.09-2.21A4.26,4.26,0,0,1,180.41,177.45Z"/><path class="a" d="M194.69,184.27H192.8V182.8a4.86,4.86,0,0,1-3.87,1.7,5.72,5.72,0,0,1,0-11.44,4.83,4.83,0,0,1,3.87,1.71V173.3h1.89Zm-9.32-5.49a3.77,3.77,0,0,0,3.78,3.95,3.95,3.95,0,1,0-3.78-3.95Z"/><path class="a" d="M200.56,177.68h1.5l4.08-4.38h2.38l-4.9,5.17,5,5.8H206.2l-4.15-4.88h-1.49v4.88h-1.88V167.64h1.88Z"/><path class="a" d="M213.24,169.44a1.31,1.31,0,0,1-1.35,1.31,1.29,1.29,0,0,1-1.33-1.31,1.32,1.32,0,0,1,1.33-1.35A1.33,1.33,0,0,1,213.24,169.44Zm-.39,14.83H211v-11h1.89Z"/><path class="a" d="M226.88,177.45v6.82H225v-6.2c0-2-1.11-3.22-3-3.22a3.13,3.13,0,0,0-3.25,3.26v6.16h-1.88v-11h1.87v1.43a4.32,4.32,0,0,1,3.59-1.67A4.27,4.27,0,0,1,226.88,177.45Z"/><path class="a" d="M239.12,174.79V173.3H241v10.21c0,3.54-2.37,5.56-5.84,5.56a7.62,7.62,0,0,1-4.59-1.42l.82-1.52a6.48,6.48,0,0,0,3.77,1.22c2.36,0,3.94-1.33,3.94-3.76v-1a4.59,4.59,0,0,1-3.78,1.71,5.64,5.64,0,0,1,0-11.27A4.58,4.58,0,0,1,239.12,174.79Zm-7.28,3.9a3.72,3.72,0,1,0,3.72-3.85A3.67,3.67,0,0,0,231.84,178.69Z"/><path class="a" d="M253.45,169.44a1.31,1.31,0,0,1-1.35,1.31,1.29,1.29,0,0,1-1.33-1.31,1.32,1.32,0,0,1,1.33-1.35A1.33,1.33,0,0,1,253.45,169.44Zm-.39,14.83h-1.88v-11h1.88Z"/><path class="a" d="M264.5,175h-4.6v5.34c0,1.66.87,2.37,2.06,2.37a4.05,4.05,0,0,0,2.24-.74l.89,1.42a5.47,5.47,0,0,1-3.29,1.09c-2.38,0-3.8-1.31-3.8-4.1V175h-2.34V173.3H258v-3.45h1.9v3.45h4.6Z"/><path class="a" d="M44.73,203.05H40.12v5.35c0,1.65.88,2.37,2.06,2.37a4.19,4.19,0,0,0,2.25-.74l.88,1.42A5.53,5.53,0,0,1,42,212.53c-2.38,0-3.8-1.3-3.8-4.1v-5.38H35.88v-1.72h2.34v-3.44h1.9v3.44h4.61Z"/><path class="a" d="M49.63,202.75a4.62,4.62,0,0,1,8.15,2.74v6.81H55.89v-6.2c0-2-1.11-3.21-3-3.21a3.12,3.12,0,0,0-3.24,3.26v6.15H47.75V195.67h1.88Z"/><path class="a" d="M71.44,206.78c0,.24,0,.5,0,.71H62.78a3.57,3.57,0,0,0,3.73,3.39,5.12,5.12,0,0,0,3.38-1.3l1,1.29a6.26,6.26,0,0,1-4.51,1.66,5.72,5.72,0,0,1-.11-11.43C69.27,201.1,71.42,203.42,71.44,206.78ZM62.8,206h6.71a3.28,3.28,0,0,0-3.27-3.19A3.41,3.41,0,0,0,62.8,206Z"/><path class="a" d="M87.75,203.05H83.53v9.25H81.64v-9.25H79.2v-1.72h2.44v-1.87c0-2.3,1.06-4,3.65-4a5.72,5.72,0,0,1,3,.82l-.68,1.58a4.47,4.47,0,0,0-2.21-.63c-1.3,0-1.88.83-1.88,2.25v1.87h4.22Z"/><path class="a" d="M100.49,212.3H98.6v-1.46a4.88,4.88,0,0,1-3.87,1.69,5.72,5.72,0,0,1,0-11.43,4.83,4.83,0,0,1,3.87,1.71v-1.48h1.89Zm-9.32-5.48a3.77,3.77,0,0,0,3.78,4,3.95,3.95,0,1,0-3.78-4Z"/><path class="a" d="M111.87,203.77a6.76,6.76,0,0,0-3.53-1c-1.5,0-2.47.64-2.47,1.63s.79,1.28,2.12,1.44l1.27.16c2.34.32,3.71,1.3,3.71,3.11,0,2.09-1.87,3.44-4.86,3.44a7.81,7.81,0,0,1-4.62-1.41l.88-1.4a5.73,5.73,0,0,0,3.75,1.16c1.8,0,2.91-.59,2.91-1.67,0-.81-.72-1.32-2.21-1.5l-1.27-.15c-2.46-.31-3.65-1.41-3.65-3.08,0-2.1,1.75-3.37,4.42-3.37a7.89,7.89,0,0,1,4.37,1.19Z"/><path class="a" d="M123.41,203.05H118.8v5.35c0,1.65.87,2.37,2.06,2.37a4.13,4.13,0,0,0,2.24-.74l.89,1.42a5.53,5.53,0,0,1-3.29,1.08c-2.38,0-3.8-1.3-3.8-4.1v-5.38h-2.34v-1.72h2.34v-3.44h1.9v3.44h4.61Z"/><path class="a" d="M136.19,206.78c0,.24,0,.5,0,.71h-8.63a3.58,3.58,0,0,0,3.73,3.39,5.15,5.15,0,0,0,3.39-1.3l1,1.29a6.23,6.23,0,0,1-4.5,1.66A5.72,5.72,0,0,1,131,201.1C134,201.1,136.16,203.42,136.19,206.78Zm-8.64-.82h6.71a3.28,3.28,0,0,0-3.27-3.19A3.4,3.4,0,0,0,127.55,206Z"/><path class="a" d="M146.73,203.77a6.76,6.76,0,0,0-3.53-1c-1.5,0-2.47.64-2.47,1.63s.79,1.28,2.12,1.44l1.27.16c2.34.32,3.71,1.3,3.71,3.11,0,2.09-1.87,3.44-4.86,3.44a7.81,7.81,0,0,1-4.62-1.41l.88-1.4a5.73,5.73,0,0,0,3.75,1.16c1.8,0,2.91-.59,2.91-1.67,0-.81-.72-1.32-2.21-1.5l-1.27-.15c-2.46-.31-3.65-1.41-3.65-3.08,0-2.1,1.75-3.37,4.42-3.37a7.89,7.89,0,0,1,4.37,1.19Z"/><path class="a" d="M158.27,203.05h-4.61v5.35c0,1.65.88,2.37,2.06,2.37A4.19,4.19,0,0,0,158,210l.88,1.42a5.53,5.53,0,0,1-3.29,1.08c-2.38,0-3.8-1.3-3.8-4.1v-5.38h-2.34v-1.72h2.34v-3.44h1.9v3.44h4.61Z"/><path class="a" d="M175.84,202.82v-1.49h1.89v10.21c0,3.55-2.37,5.57-5.83,5.57a7.65,7.65,0,0,1-4.6-1.42l.82-1.53a6.52,6.52,0,0,0,3.78,1.23c2.35,0,3.94-1.33,3.94-3.77v-1a4.61,4.61,0,0,1-3.78,1.71,5.63,5.63,0,0,1,0-11.26A4.61,4.61,0,0,1,175.84,202.82Zm-7.28,3.9a3.72,3.72,0,1,0,3.72-3.84A3.67,3.67,0,0,0,168.56,206.72Z"/><path class="a" d="M188.8,201.46l-.46,1.86a4.27,4.27,0,0,0-1.89-.43c-1.67,0-2.85,1.28-2.85,3.3v6.11h-1.88v-11h1.86v1.44a3.85,3.85,0,0,1,3.21-1.67A4.84,4.84,0,0,1,188.8,201.46Z"/><path class="a" d="M201.71,206.82a5.81,5.81,0,1,1-5.81-5.72A5.63,5.63,0,0,1,201.71,206.82Zm-9.68,0a3.87,3.87,0,1,0,3.87-3.94A3.8,3.8,0,0,0,192,206.82Z"/><path class="a" d="M216.83,210.33l3.12-9h2l-3.95,11h-2.25l-3.14-8.93-3.13,8.93h-2.22l-3.95-11h2l3.11,9,3.13-9h2.13Z"/><path class="a" d="M226.68,197.47a1.32,1.32,0,0,1-1.35,1.32,1.3,1.3,0,0,1-1.33-1.32,1.32,1.32,0,0,1,1.33-1.35A1.34,1.34,0,0,1,226.68,197.47Zm-.39,14.83H224.4v-11h1.89Z"/><path class="a" d="M240.32,205.49v6.81h-1.9v-6.2c0-2-1.11-3.21-3-3.21a3.12,3.12,0,0,0-3.25,3.26v6.15h-1.88v-11h1.87v1.43a4.33,4.33,0,0,1,3.59-1.66A4.26,4.26,0,0,1,240.32,205.49Z"/><path class="a" d="M252.56,202.82v-1.49h1.9v10.21c0,3.55-2.37,5.57-5.83,5.57a7.65,7.65,0,0,1-4.6-1.42l.82-1.53a6.49,6.49,0,0,0,3.78,1.23c2.35,0,3.93-1.33,3.93-3.77v-1a4.59,4.59,0,0,1-3.77,1.71,5.63,5.63,0,0,1,0-11.26A4.59,4.59,0,0,1,252.56,202.82Zm-7.27,3.9a3.72,3.72,0,1,0,3.72-3.84A3.66,3.66,0,0,0,245.29,206.72Z"/><path class="a" d="M19.06,240.34H16.88l-1.78-4.42H7.25l-1.76,4.42H3.37l6.57-16.17h2.53ZM8,234h6.29l-3.14-7.82Z"/><path class="a" d="M23.33,240.34H21.45V223.7h1.88Z"/><path class="a" d="M34.78,231.08H30.17v5.35c0,1.65.88,2.37,2.06,2.37a4.11,4.11,0,0,0,2.25-.74l.89,1.42a5.59,5.59,0,0,1-3.3,1.09c-2.38,0-3.8-1.31-3.8-4.1v-5.39H25.93v-1.72h2.34v-3.44h1.9v3.44h4.61Z"/><path class="a" d="M47.56,234.82c0,.24,0,.49,0,.7H38.89a3.58,3.58,0,0,0,3.73,3.4A5.16,5.16,0,0,0,46,237.61l1,1.29a6.19,6.19,0,0,1-4.5,1.67,5.72,5.72,0,0,1-.12-11.44C45.38,229.13,47.53,231.45,47.56,234.82ZM38.92,234h6.71a3.27,3.27,0,0,0-3.27-3.19A3.4,3.4,0,0,0,38.92,234Z"/><path class="a" d="M57.79,229.49l-.46,1.86a4.25,4.25,0,0,0-1.88-.43c-1.68,0-2.85,1.29-2.85,3.31v6.11H50.71v-11h1.86v1.45a3.85,3.85,0,0,1,3.21-1.68A5,5,0,0,1,57.79,229.49Z"/><path class="a" d="M70.42,233.52v6.82H68.53v-6.21c0-2-1.11-3.21-3-3.21a3.12,3.12,0,0,0-3.24,3.26v6.16H60.39v-11h1.87v1.44a4.32,4.32,0,0,1,3.59-1.67A4.26,4.26,0,0,1,70.42,233.52Z"/><path class="a" d="M84.71,240.34H82.82v-1.47a4.86,4.86,0,0,1-3.87,1.7,5.72,5.72,0,0,1,0-11.44,4.83,4.83,0,0,1,3.87,1.71v-1.48h1.89Zm-9.32-5.49a3.78,3.78,0,1,0,3.78-3.94A3.77,3.77,0,0,0,75.39,234.85Z"/><path class="a" d="M96.15,231.08H91.54v5.35c0,1.65.88,2.37,2.07,2.37a4.05,4.05,0,0,0,2.24-.74l.89,1.42a5.53,5.53,0,0,1-3.29,1.09c-2.38,0-3.8-1.31-3.8-4.1v-5.39H87.3v-1.72h2.35v-3.44h1.89v3.44h4.61Z"/><path class="a" d="M101.45,225.51a1.31,1.31,0,0,1-1.35,1.31,1.29,1.29,0,0,1-1.33-1.31,1.32,1.32,0,0,1,1.33-1.36A1.34,1.34,0,0,1,101.45,225.51Zm-.4,14.83H99.17v-11h1.88Z"/><path class="a" d="M110.21,240.35H108l-4.62-11h2.06l3.68,9.07,3.7-9.07h2Z"/><path class="a" d="M126.77,234.82c0,.24,0,.49,0,.7H118.1a3.58,3.58,0,0,0,3.73,3.4,5.16,5.16,0,0,0,3.39-1.31l1,1.29a6.19,6.19,0,0,1-4.5,1.67,5.72,5.72,0,0,1-.12-11.44C124.6,229.13,126.74,231.45,126.77,234.82Zm-8.64-.82h6.71a3.27,3.27,0,0,0-3.27-3.19A3.4,3.4,0,0,0,118.13,234Z"/><path class="a" d="M137.32,231.8a6.89,6.89,0,0,0-3.54-1c-1.5,0-2.47.64-2.47,1.63s.8,1.29,2.12,1.45l1.28.16c2.33.31,3.7,1.29,3.7,3.11,0,2.09-1.87,3.44-4.86,3.44a7.89,7.89,0,0,1-4.62-1.41l.88-1.41a5.75,5.75,0,0,0,3.75,1.17c1.8,0,2.91-.59,2.91-1.68,0-.81-.71-1.32-2.2-1.5l-1.27-.15c-2.46-.3-3.65-1.41-3.65-3.07,0-2.11,1.74-3.38,4.41-3.38a8,8,0,0,1,4.38,1.19Z"/><path class="a" d="M155,231.8a6.92,6.92,0,0,0-3.54-1c-1.5,0-2.47.64-2.47,1.63s.8,1.29,2.12,1.45l1.27.16c2.34.31,3.71,1.29,3.71,3.11,0,2.09-1.87,3.44-4.86,3.44a7.89,7.89,0,0,1-4.62-1.41l.88-1.41a5.73,5.73,0,0,0,3.75,1.17c1.8,0,2.91-.59,2.91-1.68,0-.81-.71-1.32-2.2-1.5l-1.27-.15c-2.47-.3-3.65-1.41-3.65-3.07,0-2.11,1.74-3.38,4.41-3.38a8,8,0,0,1,4.38,1.19Z"/><path class="a" d="M169,235.74c0,3.31-2.38,4.83-5,4.83s-5-1.52-5-4.83v-6.38h1.9v6.21a3.11,3.11,0,1,0,6.22,0v-6.21H169Z"/><path class="a" d="M184.06,234.85a5.49,5.49,0,0,1-5.49,5.72,4.83,4.83,0,0,1-3.87-1.7v1.47h-1.88V223.7h1.88v7.13a4.83,4.83,0,0,1,3.87-1.7A5.49,5.49,0,0,1,184.06,234.85Zm-9.47,0a3.77,3.77,0,1,0,3.76-3.94A3.73,3.73,0,0,0,174.59,234.85Z"/><path class="a" d="M193.32,235.07h-6.49v-1.71h6.49Z"/><path class="a" d="M208.16,234.85a5.48,5.48,0,0,1-5.49,5.72,4.83,4.83,0,0,1-3.87-1.7V245h-1.88v-15.6h1.88v1.47a4.83,4.83,0,0,1,3.87-1.7A5.49,5.49,0,0,1,208.16,234.85Zm-9.47,0a3.77,3.77,0,1,0,3.76-3.94A3.74,3.74,0,0,0,198.69,234.85Z"/><path class="a" d="M218.4,229.49l-.47,1.86a4.25,4.25,0,0,0-1.88-.43c-1.67,0-2.85,1.29-2.85,3.31v6.11h-1.89v-11h1.86v1.45a3.87,3.87,0,0,1,3.22-1.68A5,5,0,0,1,218.4,229.49Z"/><path class="a" d="M231.3,234.85a5.81,5.81,0,1,1-5.81-5.72A5.63,5.63,0,0,1,231.3,234.85Zm-9.68,0a3.87,3.87,0,1,0,3.87-3.94A3.8,3.8,0,0,0,221.62,234.85Z"/><path class="a" d="M243,230.84V223.7h1.9v16.64H243v-1.47a4.83,4.83,0,0,1-3.87,1.7,5.73,5.73,0,0,1,0-11.44A4.81,4.81,0,0,1,243,230.84Zm-7.42,4a3.77,3.77,0,1,0,3.77-3.94A3.76,3.76,0,0,0,235.56,234.85Z"/><path class="a" d="M258.76,235.74c0,3.31-2.37,4.83-5,4.83s-5-1.52-5-4.83v-6.38h1.89v6.21a3.12,3.12,0,1,0,6.23,0v-6.21h1.89Z"/><path class="a" d="M271.58,230.87l-1.22,1.28a4,4,0,0,0-2.91-1.24,4,4,0,0,0,0,7.89,4.26,4.26,0,0,0,3-1.26l1.17,1.31a5.35,5.35,0,0,1-4.08,1.72,5.72,5.72,0,0,1,0-11.44A5.27,5.27,0,0,1,271.58,230.87Z"/><path class="a" d="M282.07,231.08h-4.61v5.35c0,1.65.88,2.37,2.07,2.37a4.08,4.08,0,0,0,2.24-.74l.89,1.42a5.56,5.56,0,0,1-3.29,1.09c-2.38,0-3.8-1.31-3.8-4.1v-5.39h-2.35v-1.72h2.35v-3.44h1.89v3.44h4.61Z"/><path class="a" d="M287.36,232.65h-1.13v-7.89l-2.7,1.16v-1.18l3.83-1.63Z"/><path class="a" d="M449,35.42h-2.19L445.06,31h-7.84l-1.77,4.41h-2.11l6.57-16.17h2.53Zm-11-6.34h6.3l-3.14-7.82Z"/><path class="a" d="M464.56,29.08c0,4.42-3,6.58-6.71,6.58s-6.71-2.16-6.71-6.58V19.25h2v9.68c0,3.32,2,4.77,4.68,4.77s4.67-1.45,4.67-4.77V19.25h2Z"/><path class="a" d="M486,35.42h-2V21.51l-5.41,12.17h-2.15L471,21.6V35.42h-2V19.24H472l5.41,12.07,5.42-12.07H486Z"/><path class="a" d="M503.42,26.17h-4.21v9.25h-1.9V26.17h-2.43V24.45h2.43V22.58c0-2.3,1.07-4,3.65-4a5.76,5.76,0,0,1,3,.82L503.3,21a4.58,4.58,0,0,0-2.21-.63c-1.3,0-1.88.83-1.88,2.25v1.87h4.21Z"/><path class="a" d="M516.53,29.94a5.81,5.81,0,1,1-5.81-5.72A5.64,5.64,0,0,1,516.53,29.94Zm-9.68,0A3.87,3.87,0,1,0,510.72,26,3.79,3.79,0,0,0,506.85,29.94Z"/><path class="a" d="M526.77,24.58l-.47,1.86a4.25,4.25,0,0,0-1.88-.43c-1.67,0-2.85,1.28-2.85,3.3v6.11h-1.89v-11h1.86V25.9a3.87,3.87,0,0,1,3.22-1.68A4.84,4.84,0,0,1,526.77,24.58Z"/><path class="a" d="M538.68,29.9c0,.25,0,.5,0,.71H530A3.57,3.57,0,0,0,533.75,34a5.12,5.12,0,0,0,3.38-1.3l1,1.29a6.27,6.27,0,0,1-4.51,1.67,5.38,5.38,0,0,1-5.57-5.72,5.38,5.38,0,0,1,5.46-5.72C536.51,24.22,538.66,26.54,538.68,29.9ZM530,29.08h6.71a3.27,3.27,0,0,0-3.27-3.18A3.4,3.4,0,0,0,530,29.08Z"/><path class="a" d="M550.78,26l-1.22,1.28A4,4,0,0,0,546.65,26a3.73,3.73,0,0,0-3.72,3.94,3.73,3.73,0,0,0,3.72,3.95,4.26,4.26,0,0,0,3-1.26l1.17,1.3a5.36,5.36,0,0,1-4.08,1.73,5.5,5.5,0,0,1-5.7-5.72,5.5,5.5,0,0,1,5.7-5.72A5.31,5.31,0,0,1,550.78,26Z"/><path class="a" d="M563.89,35.42H562V34a4.86,4.86,0,0,1-3.87,1.7,5.48,5.48,0,0,1-5.49-5.72,5.47,5.47,0,0,1,5.49-5.72A4.83,4.83,0,0,1,562,25.93V24.45h1.89Zm-9.32-5.48a3.77,3.77,0,1,0,7.54,0,3.77,3.77,0,1,0-7.54,0Z"/><path class="a" d="M575.27,26.89a6.76,6.76,0,0,0-3.53-1c-1.51,0-2.48.64-2.48,1.63s.8,1.28,2.13,1.44l1.27.17c2.33.31,3.71,1.29,3.71,3.1,0,2.09-1.87,3.45-4.87,3.45a7.91,7.91,0,0,1-4.62-1.41l.88-1.41A5.76,5.76,0,0,0,571.52,34c1.8,0,2.91-.59,2.91-1.67,0-.81-.72-1.32-2.21-1.5L571,30.68c-2.46-.3-3.65-1.41-3.65-3.08,0-2.1,1.74-3.37,4.41-3.37a7.9,7.9,0,0,1,4.38,1.19Z"/><path class="a" d="M586.8,26.17h-4.61v5.35c0,1.65.88,2.37,2.07,2.37a4.05,4.05,0,0,0,2.24-.74l.89,1.42a5.53,5.53,0,0,1-3.29,1.09c-2.38,0-3.8-1.31-3.8-4.11V26.17H578V24.45h2.35V21h1.89v3.44h4.61Z"/><path class="a" d="M599.58,29.9c0,.25,0,.5,0,.71h-8.63A3.58,3.58,0,0,0,594.65,34,5.17,5.17,0,0,0,598,32.7L599,34a6.24,6.24,0,0,1-4.5,1.67A5.38,5.38,0,0,1,589,29.94a5.37,5.37,0,0,1,5.45-5.72C597.41,24.22,599.56,26.54,599.58,29.9Zm-8.64-.82h6.71a3.27,3.27,0,0,0-3.27-3.18A3.4,3.4,0,0,0,590.94,29.08Z"/><path class="a" d="M611.26,25.93V18.79h1.9V35.42h-1.9V34a4.84,4.84,0,0,1-3.87,1.7,5.48,5.48,0,0,1-5.48-5.72,5.47,5.47,0,0,1,5.48-5.72A4.82,4.82,0,0,1,611.26,25.93Zm-7.42,4a3.77,3.77,0,1,0,7.54,0,3.77,3.77,0,1,0-7.54,0Z"/><path class="a" d="M487.06,54.21h-4.61v5.34c0,1.66.88,2.37,2.07,2.37a4.05,4.05,0,0,0,2.24-.74l.89,1.42a5.47,5.47,0,0,1-3.29,1.09c-2.38,0-3.8-1.31-3.8-4.1V54.21h-2.35V52.49h2.35V49h1.89v3.45h4.61Z"/><path class="a" d="M500.84,58A5.81,5.81,0,1,1,495,52.25,5.63,5.63,0,0,1,500.84,58Zm-9.68,0A3.87,3.87,0,1,0,495,54,3.79,3.79,0,0,0,491.16,58Z"/><path class="a" d="M517.25,52.61l-.46,1.86A4.27,4.27,0,0,0,514.9,54c-1.67,0-2.85,1.29-2.85,3.31v6.11h-1.88v-11H512v1.44a3.84,3.84,0,0,1,3.21-1.68A5,5,0,0,1,517.25,52.61Z"/><path class="a" d="M529.16,57.94c0,.24,0,.49,0,.7H520.5a3.57,3.57,0,0,0,3.73,3.4,5.13,5.13,0,0,0,3.38-1.31l1,1.3a6.24,6.24,0,0,1-4.51,1.66A5.38,5.38,0,0,1,518.55,58,5.37,5.37,0,0,1,524,52.25C527,52.25,529.14,54.58,529.16,57.94Zm-8.64-.82h6.71A3.28,3.28,0,0,0,524,53.93,3.41,3.41,0,0,0,520.52,57.12Z"/><path class="a" d="M542.74,63.46h-1.9V62a4.84,4.84,0,0,1-3.87,1.7,5.73,5.73,0,0,1,0-11.44A4.82,4.82,0,0,1,540.84,54V52.49h1.9ZM533.42,58A3.77,3.77,0,1,0,537.19,54,3.76,3.76,0,0,0,533.42,58Z"/><path class="a" d="M555.67,54l-1.22,1.28A4,4,0,0,0,551.54,54a4,4,0,0,0,0,7.89,4.26,4.26,0,0,0,3-1.26L555.67,62a5.35,5.35,0,0,1-4.08,1.72,5.72,5.72,0,0,1,0-11.44A5.29,5.29,0,0,1,555.67,54Z"/><path class="a" d="M560.44,53.91a4.61,4.61,0,0,1,8.15,2.73v6.82H566.7v-6.2c0-2-1.11-3.22-3-3.22a3.13,3.13,0,0,0-3.25,3.26v6.16h-1.88V46.83h1.88Z"/><path class="b" d="M441.2,128.21c0,9.25-5.91,14-14.42,14s-14.42-4.72-14.42-14V108.1h6.7v19.78c0,5.5,3.1,7.91,7.72,7.91s7.72-2.41,7.72-7.91V108.1h6.7Z"/><path class="b" d="M471.13,116.54a18,18,0,0,0-9.49-2.84c-3.75,0-6.41,1.48-6.41,4s2.9,3.21,6.91,3.88l1.89.31c6,1,10.67,3.54,10.67,9.37,0,7.39-6.51,10.91-13.7,10.91-5.07,0-10.52-1.49-14.11-4.38l3.47-5.38A17.64,17.64,0,0,0,461,136c3.71,0,6.57-1.46,6.57-4,0-2.32-2.43-3.18-7.1-3.92l-2.12-.34c-5.91-.93-10.21-3.54-10.21-9.58,0-7,6.21-10.62,13.34-10.62a23.57,23.57,0,0,1,12.79,3.56Z"/><path class="b" d="M496.82,104.18v4.42a22.57,22.57,0,0,1,10,3.38l-3,5.11a19,19,0,0,0-7-2.6v7.62c5.85.91,10.4,3.5,10.28,9-.15,5.9-4.67,9.11-10.26,9.92v4.73h-5.31V141.1a21.87,21.87,0,0,1-11.4-4L483.4,132a17.87,17.87,0,0,0,8.11,3.26v-7.7l-.27,0c-5.85-.93-10.09-3.47-10-9.16.1-5.4,4.35-8.89,10.24-9.71v-4.47Zm-5.31,17v-6.6c-2.23.52-3.61,1.72-3.66,3.44S489.16,120.61,491.51,121.21Zm5.31,7.26v6.63c2.2-.53,3.65-1.7,3.7-3.49C500.55,130,499.23,129.1,496.82,128.47Z"/><path class="b" d="M534.29,141.58h-9.8V103.77l-12.16,4.93V98.83l22-8.85Z"/><path class="b" d="M557.32,135.41a7,7,0,1,1-7-7A7.18,7.18,0,0,1,557.32,135.41Z"/><path class="b" d="M607.14,116.18c0,16.44-9.8,26.3-21.92,26.3s-21.88-9.86-21.88-26.3,9.73-26.31,21.88-26.31S607.14,99.74,607.14,116.18Zm-33.6,0c0,11.1,5.19,16.91,11.68,16.91s11.69-5.81,11.69-16.91-5.16-16.91-11.69-16.91S573.54,105.07,573.54,116.18Z"/><path class="b" d="M639,114.34H628.64v27.24H622V114.34H611.6V108.1H639Z"/><path class="a" d="M403.39,184.27h-1.9V182.8a4.84,4.84,0,0,1-3.87,1.7,5.73,5.73,0,0,1,0-11.44,4.82,4.82,0,0,1,3.87,1.71V173.3h1.9Zm-9.32-5.49a3.77,3.77,0,1,0,3.77-3.94A3.76,3.76,0,0,0,394.07,178.78Z"/><path class="a" d="M414.77,175.73a6.89,6.89,0,0,0-3.54-1c-1.5,0-2.47.63-2.47,1.62s.8,1.29,2.13,1.45l1.27.16c2.33.31,3.7,1.29,3.7,3.11,0,2.09-1.87,3.44-4.86,3.44a7.83,7.83,0,0,1-4.62-1.41l.88-1.41a5.7,5.7,0,0,0,3.75,1.17c1.81,0,2.91-.59,2.91-1.68,0-.81-.71-1.31-2.2-1.5l-1.27-.15c-2.46-.3-3.65-1.41-3.65-3.07,0-2.1,1.74-3.37,4.41-3.37a8,8,0,0,1,4.38,1.19Z"/><path class="a" d="M427.3,169.44a1.31,1.31,0,0,1-1.35,1.31,1.29,1.29,0,0,1-1.33-1.31,1.32,1.32,0,0,1,1.33-1.35A1.33,1.33,0,0,1,427.3,169.44Zm-.39,14.83H425v-11h1.89Z"/><path class="a" d="M440.94,177.45v6.82H439v-6.2c0-2-1.11-3.22-3-3.22a3.13,3.13,0,0,0-3.25,3.26v6.16H430.9v-11h1.87v1.43a4.32,4.32,0,0,1,3.59-1.67A4.26,4.26,0,0,1,440.94,177.45Z"/><path class="a" d="M449.74,184.28h-2.22l-4.62-11H445l3.68,9.06,3.7-9.06h2Z"/><path class="a" d="M466.3,178.75c0,.24,0,.49,0,.7h-8.62a3.57,3.57,0,0,0,3.73,3.4,5.13,5.13,0,0,0,3.38-1.31l1,1.3a6.26,6.26,0,0,1-4.51,1.66,5.72,5.72,0,0,1-.11-11.44C464.13,173.06,466.28,175.39,466.3,178.75Zm-8.64-.82h6.71a3.28,3.28,0,0,0-3.27-3.19A3.41,3.41,0,0,0,457.66,177.93Z"/><path class="a" d="M476.85,175.73a6.89,6.89,0,0,0-3.54-1c-1.5,0-2.47.63-2.47,1.62s.8,1.29,2.13,1.45l1.27.16c2.33.31,3.7,1.29,3.7,3.11,0,2.09-1.87,3.44-4.86,3.44a7.83,7.83,0,0,1-4.62-1.41l.88-1.41a5.7,5.7,0,0,0,3.75,1.17c1.8,0,2.91-.59,2.91-1.68,0-.81-.71-1.31-2.2-1.5l-1.27-.15c-2.46-.3-3.65-1.41-3.65-3.07,0-2.1,1.74-3.37,4.41-3.37a8,8,0,0,1,4.38,1.19Z"/><path class="a" d="M488.38,175h-4.61v5.34c0,1.66.88,2.37,2.07,2.37a4.05,4.05,0,0,0,2.24-.74l.89,1.42a5.49,5.49,0,0,1-3.29,1.09c-2.38,0-3.8-1.31-3.8-4.1V175h-2.35V173.3h2.35v-3.45h1.89v3.45h4.61Z"/><path class="a" d="M502.15,178.78a5.81,5.81,0,1,1-5.81-5.72A5.63,5.63,0,0,1,502.15,178.78Zm-9.68,0a3.87,3.87,0,1,0,3.87-3.94A3.8,3.8,0,0,0,492.47,178.78Z"/><path class="a" d="M512.39,173.42l-.46,1.86a4.27,4.27,0,0,0-1.89-.43c-1.67,0-2.85,1.29-2.85,3.31v6.11h-1.88v-11h1.86v1.44a3.86,3.86,0,0,1,3.21-1.68A5,5,0,0,1,512.39,173.42Z"/><path class="a" d="M522.18,175.73a6.86,6.86,0,0,0-3.54-1c-1.5,0-2.47.63-2.47,1.62s.8,1.29,2.13,1.45l1.27.16c2.33.31,3.71,1.29,3.71,3.11,0,2.09-1.88,3.44-4.87,3.44a7.83,7.83,0,0,1-4.62-1.41l.88-1.41a5.7,5.7,0,0,0,3.75,1.17c1.81,0,2.91-.59,2.91-1.68,0-.81-.71-1.31-2.2-1.5l-1.27-.15c-2.46-.3-3.65-1.41-3.65-3.07,0-2.1,1.74-3.37,4.41-3.37a7.92,7.92,0,0,1,4.38,1.19Z"/><path class="a" d="M541.38,174.8l-1.22,1.28a4,4,0,0,0-2.91-1.24,4,4,0,0,0,0,7.89,4.26,4.26,0,0,0,3-1.26l1.17,1.31a5.35,5.35,0,0,1-4.08,1.72,5.72,5.72,0,0,1,0-11.44A5.32,5.32,0,0,1,541.38,174.8Z"/><path class="a" d="M554.85,178.78a5.81,5.81,0,1,1-5.81-5.72A5.63,5.63,0,0,1,554.85,178.78Zm-9.68,0a3.87,3.87,0,1,0,3.87-3.94A3.79,3.79,0,0,0,545.17,178.78Z"/><path class="a" d="M568,177.45v6.82h-1.89v-6.2c0-2-1.11-3.22-3-3.22a3.12,3.12,0,0,0-3.24,3.26v6.16H558v-11h1.87v1.43a4.35,4.35,0,0,1,3.6-1.67A4.26,4.26,0,0,1,568,177.45Z"/><path class="a" d="M579.21,175h-4.6v5.34c0,1.66.87,2.37,2.06,2.37a4.05,4.05,0,0,0,2.24-.74l.89,1.42a5.47,5.47,0,0,1-3.29,1.09c-2.38,0-3.8-1.31-3.8-4.1V175h-2.34V173.3h2.34v-3.45h1.9v3.45h4.6Z"/><path class="a" d="M584.51,169.44a1.31,1.31,0,0,1-1.35,1.31,1.29,1.29,0,0,1-1.33-1.31,1.32,1.32,0,0,1,1.33-1.35A1.33,1.33,0,0,1,584.51,169.44Zm-.39,14.83h-1.89v-11h1.89Z"/><path class="a" d="M598.15,177.45v6.82h-1.9v-6.2c0-2-1.11-3.22-3-3.22a3.13,3.13,0,0,0-3.25,3.26v6.16h-1.88v-11H590v1.43a4.32,4.32,0,0,1,3.59-1.67A4.26,4.26,0,0,1,598.15,177.45Z"/><path class="a" d="M611.92,179.67c0,3.32-2.38,4.83-5,4.83s-5-1.51-5-4.83V173.3h1.9v6.2a3.11,3.11,0,1,0,6.22,0v-6.2h1.9Z"/><path class="a" d="M625.57,178.75c0,.24,0,.49,0,.7h-8.63a3.58,3.58,0,0,0,3.73,3.4,5.18,5.18,0,0,0,3.39-1.31l1,1.3a6.23,6.23,0,0,1-4.5,1.66,5.72,5.72,0,0,1-.12-11.44C623.4,173.06,625.55,175.39,625.57,178.75Zm-8.64-.82h6.71a3.27,3.27,0,0,0-3.26-3.19A3.41,3.41,0,0,0,616.93,177.93Z"/><path class="a" d="M642.18,175h-4.61v5.34c0,1.66.88,2.37,2.07,2.37a4.05,4.05,0,0,0,2.24-.74l.89,1.42a5.47,5.47,0,0,1-3.29,1.09c-2.38,0-3.8-1.31-3.8-4.1V175h-2.35V173.3h2.35v-3.45h1.89v3.45h4.61Z"/><path class="a" d="M656,178.78a5.81,5.81,0,1,1-5.81-5.72A5.63,5.63,0,0,1,656,178.78Zm-9.68,0a3.87,3.87,0,1,0,3.87-3.94A3.79,3.79,0,0,0,646.28,178.78Z"/><path class="a" d="M420.72,203.77a6.76,6.76,0,0,0-3.53-1c-1.5,0-2.47.64-2.47,1.63s.79,1.28,2.12,1.44l1.27.16c2.34.32,3.71,1.3,3.71,3.11,0,2.09-1.87,3.44-4.86,3.44a7.81,7.81,0,0,1-4.62-1.41l.88-1.4a5.73,5.73,0,0,0,3.75,1.16c1.8,0,2.91-.59,2.91-1.67,0-.81-.72-1.32-2.21-1.5l-1.27-.15c-2.46-.31-3.65-1.41-3.65-3.08,0-2.1,1.75-3.37,4.42-3.37a7.89,7.89,0,0,1,4.37,1.19Z"/><path class="a" d="M434.59,206.78c0,.24,0,.5,0,.71h-8.62a3.57,3.57,0,0,0,3.73,3.39,5.12,5.12,0,0,0,3.38-1.3l1,1.29a6.26,6.26,0,0,1-4.51,1.66,5.72,5.72,0,0,1-.11-11.43C432.42,201.1,434.57,203.42,434.59,206.78ZM426,206h6.71a3.28,3.28,0,0,0-3.27-3.19A3.41,3.41,0,0,0,426,206Z"/><path class="a" d="M447.53,206.78c0,.24,0,.5,0,.71h-8.62a3.57,3.57,0,0,0,3.73,3.39,5.12,5.12,0,0,0,3.38-1.3l1,1.29a6.26,6.26,0,0,1-4.51,1.66,5.72,5.72,0,0,1-.11-11.43C445.36,201.1,447.51,203.42,447.53,206.78Zm-8.64-.82h6.71a3.28,3.28,0,0,0-3.27-3.19A3.41,3.41,0,0,0,438.89,206Z"/><path class="a" d="M452.57,205.72h1.5l4.08-4.39h2.38l-4.9,5.17,5,5.8h-2.4l-4.14-4.87h-1.49v4.87h-1.89V195.67h1.89Z"/><path class="a" d="M469.81,217h-2.09l4.06-7-5-8.63h2.11l3.95,6.75,3.75-6.75h2.08Z"/><path class="a" d="M483.1,197.47a1.32,1.32,0,0,1-1.35,1.32,1.3,1.3,0,0,1-1.33-1.32,1.32,1.32,0,0,1,1.33-1.35A1.34,1.34,0,0,1,483.1,197.47Zm-.39,14.83h-1.88v-11h1.88Z"/><path class="a" d="M496.48,206.78c0,.24,0,.5,0,.71h-8.63a3.58,3.58,0,0,0,3.73,3.39,5.17,5.17,0,0,0,3.39-1.3l1,1.29a6.23,6.23,0,0,1-4.5,1.66,5.72,5.72,0,0,1-.12-11.43C494.31,201.1,496.46,203.42,496.48,206.78Zm-8.64-.82h6.71a3.27,3.27,0,0,0-3.26-3.19A3.42,3.42,0,0,0,487.84,206Z"/><path class="a" d="M501.52,212.3h-1.88V195.67h1.88Z"/><path class="a" d="M514,202.81v-7.14h1.89V212.3H514v-1.46a4.88,4.88,0,0,1-3.87,1.69,5.72,5.72,0,0,1,0-11.43A4.83,4.83,0,0,1,514,202.81Zm-7.43,4a3.78,3.78,0,1,0,3.78-3.94A3.73,3.73,0,0,0,506.61,206.82Z"/><path class="a" d="M536.88,206.82a5.81,5.81,0,1,1-5.82-5.72A5.64,5.64,0,0,1,536.88,206.82Zm-9.68,0a3.87,3.87,0,1,0,3.86-3.94A3.8,3.8,0,0,0,527.2,206.82Z"/><path class="a" d="M549.93,207.71c0,3.31-2.38,4.82-5,4.82s-5-1.51-5-4.82v-6.38h1.89v6.2a3.12,3.12,0,1,0,6.23,0v-6.2h1.89Z"/><path class="a" d="M561.25,203.05h-4.61v5.35c0,1.65.88,2.37,2.07,2.37A4.13,4.13,0,0,0,561,210l.89,1.42a5.53,5.53,0,0,1-3.29,1.08c-2.38,0-3.8-1.3-3.8-4.1v-5.38H552.4v-1.72h2.35v-3.44h1.89v3.44h4.61Z"/><path class="a" d="M571.66,203.77a6.76,6.76,0,0,0-3.53-1c-1.5,0-2.47.64-2.47,1.63s.79,1.28,2.12,1.44l1.27.16c2.34.32,3.71,1.3,3.71,3.11,0,2.09-1.87,3.44-4.86,3.44a7.81,7.81,0,0,1-4.62-1.41l.88-1.4a5.73,5.73,0,0,0,3.75,1.16c1.8,0,2.91-.59,2.91-1.67,0-.81-.72-1.32-2.21-1.5l-1.27-.15c-2.46-.31-3.65-1.41-3.65-3.08,0-2.1,1.75-3.37,4.42-3.37a7.89,7.89,0,0,1,4.37,1.19Z"/><path class="a" d="M578,197.47a1.32,1.32,0,0,1-1.35,1.32,1.3,1.3,0,0,1-1.33-1.32,1.32,1.32,0,0,1,1.33-1.35A1.34,1.34,0,0,1,578,197.47Zm-.39,14.83h-1.88v-11h1.88Z"/><path class="a" d="M590.14,202.81v-7.14H592V212.3h-1.9v-1.46a4.85,4.85,0,0,1-3.86,1.69,5.72,5.72,0,0,1,0-11.43A4.8,4.8,0,0,1,590.14,202.81Zm-7.42,4a3.77,3.77,0,1,0,3.78-3.94A3.76,3.76,0,0,0,582.72,206.82Z"/><path class="a" d="M605.81,206.78c0,.24,0,.5,0,.71h-8.63a3.57,3.57,0,0,0,3.73,3.39,5.12,5.12,0,0,0,3.38-1.3l1,1.29a6.26,6.26,0,0,1-4.51,1.66,5.72,5.72,0,0,1-.11-11.43C603.64,201.1,605.79,203.42,605.81,206.78Zm-8.64-.82h6.71a3.28,3.28,0,0,0-3.27-3.19A3.41,3.41,0,0,0,597.17,206Z"/><path class="a" d="M625.92,206.82a5.81,5.81,0,1,1-5.81-5.72A5.63,5.63,0,0,1,625.92,206.82Zm-9.68,0a3.87,3.87,0,1,0,3.87-3.94A3.8,3.8,0,0,0,616.24,206.82Z"/><path class="a" d="M636.11,203.05h-4.22v9.25H630v-9.25h-2.44v-1.72H630v-1.87c0-2.3,1.06-4,3.65-4a5.7,5.7,0,0,1,3,.82l-.68,1.58a4.46,4.46,0,0,0-2.2-.63c-1.31,0-1.89.83-1.89,2.25v1.87h4.22Z"/><path class="a" d="M382,231.08h-4.61v5.35c0,1.65.88,2.37,2.07,2.37a4.05,4.05,0,0,0,2.24-.74l.89,1.42a5.53,5.53,0,0,1-3.29,1.09c-2.38,0-3.8-1.31-3.8-4.1v-5.39h-2.35v-1.72h2.35v-3.44h1.89v3.44H382Z"/><path class="a" d="M392.1,229.49l-.46,1.86a4.27,4.27,0,0,0-1.89-.43c-1.67,0-2.85,1.29-2.85,3.31v6.11H385v-11h1.86v1.45a3.84,3.84,0,0,1,3.21-1.68A5,5,0,0,1,392.1,229.49Z"/><path class="a" d="M404.65,240.34h-1.89v-1.47a4.86,4.86,0,0,1-3.87,1.7,5.72,5.72,0,0,1,0-11.44,4.83,4.83,0,0,1,3.87,1.71v-1.48h1.89Zm-9.32-5.49a3.77,3.77,0,1,0,3.77-3.94A3.76,3.76,0,0,0,395.33,234.85Z"/><path class="a" d="M417.16,230.84V223.7h1.9v16.64h-1.9v-1.47a4.86,4.86,0,0,1-3.87,1.7,5.73,5.73,0,0,1,0-11.44A4.83,4.83,0,0,1,417.16,230.84Zm-7.43,4a3.78,3.78,0,1,0,3.78-3.94A3.77,3.77,0,0,0,409.73,234.85Z"/><path class="a" d="M425.32,225.51a1.31,1.31,0,0,1-1.35,1.31,1.29,1.29,0,0,1-1.33-1.31,1.32,1.32,0,0,1,1.33-1.36A1.34,1.34,0,0,1,425.32,225.51Zm-.39,14.83H423v-11h1.89Z"/><path class="a" d="M436.37,231.08h-4.61v5.35c0,1.65.88,2.37,2.07,2.37a4.08,4.08,0,0,0,2.24-.74l.89,1.42a5.56,5.56,0,0,1-3.29,1.09c-2.38,0-3.8-1.31-3.8-4.1v-5.39h-2.35v-1.72h2.35v-3.44h1.89v3.44h4.61Z"/><path class="a" d="M441.66,225.51a1.31,1.31,0,0,1-1.35,1.31,1.29,1.29,0,0,1-1.33-1.31,1.32,1.32,0,0,1,1.33-1.36A1.34,1.34,0,0,1,441.66,225.51Zm-.39,14.83h-1.88v-11h1.88Z"/><path class="a" d="M456,234.85a5.81,5.81,0,1,1-5.81-5.72A5.63,5.63,0,0,1,456,234.85Zm-9.68,0a3.87,3.87,0,1,0,3.87-3.94A3.79,3.79,0,0,0,446.36,234.85Z"/><path class="a" d="M469.23,233.52v6.82h-1.89v-6.21c0-2-1.11-3.21-3-3.21a3.12,3.12,0,0,0-3.24,3.26v6.16H459.2v-11h1.87v1.44a4.32,4.32,0,0,1,3.59-1.67A4.26,4.26,0,0,1,469.23,233.52Z"/><path class="a" d="M483.52,240.34h-1.89v-1.47a4.86,4.86,0,0,1-3.87,1.7,5.72,5.72,0,0,1,0-11.44,4.83,4.83,0,0,1,3.87,1.71v-1.48h1.89Zm-9.32-5.49a3.78,3.78,0,1,0,3.78-3.94A3.77,3.77,0,0,0,474.2,234.85Z"/><path class="a" d="M489.39,240.34h-1.88V223.7h1.88Z"/><path class="a" d="M508.5,230.87l-1.21,1.28a4,4,0,0,0-2.91-1.24,4,4,0,0,0,0,7.89,4.27,4.27,0,0,0,3-1.26l1.16,1.31a5.33,5.33,0,0,1-4.07,1.72,5.72,5.72,0,0,1,0-11.44A5.27,5.27,0,0,1,508.5,230.87Z"/><path class="a" d="M518.48,229.49l-.47,1.86a4.25,4.25,0,0,0-1.88-.43c-1.67,0-2.85,1.29-2.85,3.31v6.11h-1.89v-11h1.86v1.45a3.87,3.87,0,0,1,3.22-1.68A5,5,0,0,1,518.48,229.49Z"/><path class="a" d="M530.39,234.82c0,.24,0,.49,0,.7h-8.63a3.57,3.57,0,0,0,3.73,3.4,5.13,5.13,0,0,0,3.38-1.31l1,1.29a6.23,6.23,0,0,1-4.51,1.67,5.72,5.72,0,0,1-.11-11.44C528.22,229.13,530.37,231.45,530.39,234.82Zm-8.64-.82h6.71a3.27,3.27,0,0,0-3.27-3.19A3.4,3.4,0,0,0,521.75,234Z"/><path class="a" d="M542.07,230.84V223.7H544v16.64h-1.89v-1.47a4.86,4.86,0,0,1-3.87,1.7,5.72,5.72,0,0,1,0-11.44A4.83,4.83,0,0,1,542.07,230.84Zm-7.43,4a3.78,3.78,0,1,0,3.78-3.94A3.77,3.77,0,0,0,534.64,234.85Z"/><path class="a" d="M550.23,225.51a1.31,1.31,0,0,1-1.35,1.31,1.29,1.29,0,0,1-1.33-1.31,1.32,1.32,0,0,1,1.33-1.36A1.34,1.34,0,0,1,550.23,225.51Zm-.4,14.83H548v-11h1.88Z"/><path class="a" d="M561.28,231.08h-4.61v5.35c0,1.65.88,2.37,2.07,2.37a4.1,4.1,0,0,0,2.24-.74l.89,1.42a5.56,5.56,0,0,1-3.29,1.09c-2.38,0-3.81-1.31-3.81-4.1v-5.39h-2.34v-1.72h2.34v-3.44h1.9v3.44h4.61Z"/><path class="a" d="M581.71,234.85a5.48,5.48,0,0,1-5.48,5.72,4.8,4.8,0,0,1-3.87-1.7V245h-1.89v-15.6h1.89v1.47a4.8,4.8,0,0,1,3.87-1.7A5.48,5.48,0,0,1,581.71,234.85Zm-9.47,0a3.77,3.77,0,1,0,3.77-3.94A3.74,3.74,0,0,0,572.24,234.85Z"/><path class="a" d="M592,229.49l-.46,1.86a4.27,4.27,0,0,0-1.89-.43c-1.67,0-2.85,1.29-2.85,3.31v6.11h-1.88v-11h1.86v1.45a3.84,3.84,0,0,1,3.21-1.68A5,5,0,0,1,592,229.49Z"/><path class="a" d="M604.86,234.85a5.81,5.81,0,1,1-5.81-5.72A5.63,5.63,0,0,1,604.86,234.85Zm-9.68,0a3.87,3.87,0,1,0,3.87-3.94A3.79,3.79,0,0,0,595.18,234.85Z"/><path class="a" d="M616.54,230.84V223.7h1.89v16.64h-1.89v-1.47a4.86,4.86,0,0,1-3.87,1.7,5.72,5.72,0,0,1,0-11.44A4.83,4.83,0,0,1,616.54,230.84Zm-7.43,4a3.77,3.77,0,1,0,3.78-3.94A3.76,3.76,0,0,0,609.11,234.85Z"/><path class="a" d="M632.32,235.74c0,3.31-2.38,4.83-5,4.83s-5-1.52-5-4.83v-6.38h1.9v6.21a3.11,3.11,0,1,0,6.22,0v-6.21h1.9Z"/><path class="a" d="M645.13,230.87l-1.21,1.28a4,4,0,0,0-2.91-1.24,4,4,0,0,0,0,7.89,4.25,4.25,0,0,0,3-1.26l1.17,1.31a5.34,5.34,0,0,1-4.08,1.72,5.72,5.72,0,0,1,0-11.44A5.27,5.27,0,0,1,645.13,230.87Z"/><path class="a" d="M655.62,231.08H651v5.35c0,1.65.88,2.37,2.07,2.37a4.05,4.05,0,0,0,2.24-.74l.89,1.42a5.53,5.53,0,0,1-3.29,1.09c-2.38,0-3.8-1.31-3.8-4.1v-5.39h-2.35v-1.72h2.35v-3.44H651v3.44h4.61Z"/><path class="a" d="M666,231.8a6.85,6.85,0,0,0-3.53-1c-1.5,0-2.47.64-2.47,1.63s.79,1.29,2.12,1.45l1.27.16c2.34.31,3.71,1.29,3.71,3.11,0,2.09-1.87,3.44-4.86,3.44a7.89,7.89,0,0,1-4.62-1.41l.88-1.41a5.73,5.73,0,0,0,3.75,1.17c1.8,0,2.91-.59,2.91-1.68,0-.81-.72-1.32-2.21-1.5l-1.27-.15c-2.46-.3-3.65-1.41-3.65-3.07,0-2.11,1.75-3.38,4.42-3.38a8,8,0,0,1,4.37,1.19Z"/><path class="a" d="M668.68,224.66a3.35,3.35,0,0,1,2.91-1.57,2.82,2.82,0,0,1,3,2.95,3.86,3.86,0,0,1-1.26,2.65l-2.71,2.88h4.27v1.08h-6v-.9L672.5,228a2.88,2.88,0,0,0,.94-2,1.76,1.76,0,0,0-1.88-1.85,2.39,2.39,0,0,0-2.06,1.15Z"/><path class="b" d="M790.35,125.25h6.27v8.1h-6.27v8.23h-8.68v-8.23h-20v-6.3L777.49,96.6h9.65l-15,28.65h9.58v-12h8.68Z"/><path class="b" d="M813.7,106.34h-6.58V113c0,2.27,1.2,3.09,2.72,3.09a7.09,7.09,0,0,0,3.41-1.18l1.8,3.83a10.18,10.18,0,0,1-6,1.91c-4.5,0-6.81-2.55-6.81-7.26v-7h-3.5V102h3.5v-5.4h4.9V102h6.58Z"/><path class="b" d="M822.9,103.94a6.11,6.11,0,0,1,5.22-2.44,6.77,6.77,0,0,1,7.07,7.09v11.57h-4.9v-10c0-2.63-1.31-4.07-3.54-4.07a3.73,3.73,0,0,0-3.85,4.1v10H818v-27h4.89Z"/><path class="b" d="M866.31,141.58h-8.39V95.28h8.39Z"/><path class="b" d="M905.79,141.58H897.6v-3.44a11.44,11.44,0,0,1-9.33,4.24c-8.58,0-15.08-7-15.08-16.4s6.5-16.39,15.08-16.39a11.41,11.41,0,0,1,9.33,4.27v-3.44h8.19Zm-24-15.6c0,4.76,3.12,8.59,8,8.59s8-3.67,8-8.59-3.24-8.58-8-8.58S881.78,121.23,881.78,126Z"/><path class="b" d="M935.89,110.26l-1.25,8.33a13.65,13.65,0,0,0-5.08-1c-3.89,0-6.56,2.38-6.56,7v17h-8.39V110.42h8.14v3.41c2-2.92,5-4.24,8.77-4.24A12.9,12.9,0,0,1,935.89,110.26Z"/><path class="b" d="M962.62,113.9v-3.48h8.23V139c0,10-6.53,16-16.82,16-4.92,0-10.12-1.29-13.63-3.76l3-6.85a18.4,18.4,0,0,0,10.29,3.18c5.21,0,8.87-2.89,8.87-8.26v-2.19a11.73,11.73,0,0,1-9.58,4.21c-7.59,0-14.34-6.33-14.34-15.88s6.75-15.91,14.34-15.91A11.8,11.8,0,0,1,962.62,113.9Zm-15.37,11.6c0,4.5,3,8.17,7.84,8.17s7.82-3.54,7.82-8.17-3.15-8.2-7.82-8.2S947.25,121,947.25,125.5Z"/><path class="b" d="M1008.63,126a23.3,23.3,0,0,1-.16,2.83H986.38c.9,4.5,4,6.46,8,6.46a12.56,12.56,0,0,0,7.87-3l4.92,5.41c-3.53,3.24-8,4.72-13.27,4.72-9.55,0-16.18-6.49-16.18-16.3s6.43-16.49,15.76-16.49C1002.46,109.59,1008.6,116.24,1008.63,126Zm-22.21-2.89h13.79c-.77-4-3.19-6.24-6.79-6.24C989.47,116.82,987.15,119.2,986.42,123.06Z"/><path class="b" d="M1037.61,119.1a25.29,25.29,0,0,0-9.94-2.54c-3.18,0-4.79,1.13-4.79,2.83s2.25,2.25,5.08,2.67l2.77.42c6.75,1,10.51,4,10.51,9.32,0,6.43-5.27,10.58-14.31,10.58-4.24,0-9.8-.8-13.85-3.66l3.31-6.37A18.19,18.19,0,0,0,1027,135.4c3.89,0,5.75-1.09,5.75-2.92,0-1.51-1.57-2.35-5.18-2.86l-2.53-.36c-7.21-1-10.78-4.14-10.78-9.45,0-6.4,5-10.19,13.15-10.19a27.81,27.81,0,0,1,13,3Z"/><path class="b" d="M1070.24,117.88H1059v11.38c0,3.89,2.06,5.31,4.66,5.31a12.13,12.13,0,0,0,5.85-2l3.09,6.56a17.34,17.34,0,0,1-10.32,3.28c-7.72,0-11.67-4.37-11.67-12.44V117.88h-6v-7.46h6v-9.26H1059v9.26h11.28Z"/><path class="a" d="M773.89,174.8l-1.21,1.28a4,4,0,0,0-2.91-1.24,4,4,0,0,0,0,7.89,4.25,4.25,0,0,0,3-1.26l1.17,1.31a5.34,5.34,0,0,1-4.08,1.72,5.72,5.72,0,0,1,0-11.44A5.31,5.31,0,0,1,773.89,174.8Z"/><path class="a" d="M787,184.27h-1.89V182.8a4.86,4.86,0,0,1-3.87,1.7,5.72,5.72,0,0,1,0-11.44,4.83,4.83,0,0,1,3.87,1.71V173.3H787Zm-9.32-5.49a3.78,3.78,0,1,0,3.78-3.94A3.77,3.77,0,0,0,777.68,178.78Z"/><path class="a" d="M798.44,175h-4.61v5.34c0,1.66.88,2.37,2.07,2.37a4.05,4.05,0,0,0,2.24-.74l.89,1.42a5.47,5.47,0,0,1-3.29,1.09c-2.38,0-3.8-1.31-3.8-4.1V175h-2.35V173.3h2.35v-3.45h1.89v3.45h4.61Z"/><path class="a" d="M811.22,178.75c0,.24,0,.49,0,.7h-8.63a3.58,3.58,0,0,0,3.73,3.4,5.18,5.18,0,0,0,3.39-1.31l1,1.3a6.23,6.23,0,0,1-4.5,1.66,5.72,5.72,0,0,1-.12-11.44C809.05,173.06,811.2,175.39,811.22,178.75Zm-8.64-.82h6.71a3.27,3.27,0,0,0-3.26-3.19A3.41,3.41,0,0,0,802.58,177.93Z"/><path class="a" d="M822.75,174.79V173.3h1.9v10.21c0,3.54-2.37,5.56-5.84,5.56a7.64,7.64,0,0,1-4.59-1.42l.82-1.52a6.48,6.48,0,0,0,3.77,1.22c2.36,0,3.94-1.33,3.94-3.76v-1a4.59,4.59,0,0,1-3.77,1.71,5.64,5.64,0,0,1,0-11.27A4.57,4.57,0,0,1,822.75,174.79Zm-7.27,3.9a3.72,3.72,0,1,0,3.72-3.85A3.66,3.66,0,0,0,815.48,178.69Z"/><path class="a" d="M839.41,178.78a5.81,5.81,0,1,1-5.81-5.72A5.63,5.63,0,0,1,839.41,178.78Zm-9.68,0a3.87,3.87,0,1,0,3.87-3.94A3.8,3.8,0,0,0,829.73,178.78Z"/><path class="a" d="M849.65,173.42l-.46,1.86a4.27,4.27,0,0,0-1.89-.43c-1.67,0-2.85,1.29-2.85,3.31v6.11h-1.88v-11h1.86v1.44a3.86,3.86,0,0,1,3.21-1.68A5,5,0,0,1,849.65,173.42Z"/><path class="a" d="M854.09,189H852l4-7-5-8.62h2.12l4,6.74,3.75-6.74H863Z"/><path class="a" d="M882.62,182.29l3.12-9h2l-4,11h-2.25l-3.14-8.93-3.13,8.93H873l-3.95-11h2l3.11,9,3.13-9h2.14Z"/><path class="a" d="M892.47,169.44a1.31,1.31,0,0,1-1.35,1.31,1.29,1.29,0,0,1-1.33-1.31,1.32,1.32,0,0,1,1.33-1.35A1.33,1.33,0,0,1,892.47,169.44Zm-.39,14.83H890.2v-11h1.88Z"/><path class="a" d="M903.52,175h-4.61v5.34c0,1.66.88,2.37,2.07,2.37a4.05,4.05,0,0,0,2.24-.74l.89,1.42a5.47,5.47,0,0,1-3.29,1.09c-2.38,0-3.8-1.31-3.8-4.1V175h-2.35V173.3H897v-3.45h1.89v3.45h4.61Z"/><path class="a" d="M908.42,174.72a4.62,4.62,0,0,1,8.16,2.73v6.82h-1.9v-6.2c0-2-1.1-3.22-3-3.22a3.13,3.13,0,0,0-3.25,3.26v6.16h-1.88V167.64h1.88Z"/><path class="a" d="M922.73,169.44a1.32,1.32,0,0,1-1.35,1.31,1.29,1.29,0,0,1-1.33-1.31,1.31,1.31,0,0,1,1.33-1.35A1.34,1.34,0,0,1,922.73,169.44Zm-.4,14.83h-1.88v-11h1.88Z"/><path class="a" d="M936.36,177.45v6.82h-1.89v-6.2c0-2-1.11-3.22-3-3.22a3.13,3.13,0,0,0-3.25,3.26v6.16h-1.88v-11h1.87v1.43a4.32,4.32,0,0,1,3.59-1.67A4.26,4.26,0,0,1,936.36,177.45Z"/><path class="a" d="M948.29,174.72a4.31,4.31,0,0,1,3.59-1.66,4.26,4.26,0,0,1,4.57,4.39v6.82h-1.9v-6.2c0-2-1.1-3.22-3-3.22a3.13,3.13,0,0,0-3.25,3.26v6.16h-1.88V167.64h1.88Z"/><path class="a" d="M970.1,178.75c0,.24,0,.49,0,.7h-8.63a3.58,3.58,0,0,0,3.73,3.4,5.18,5.18,0,0,0,3.39-1.31l1,1.3a6.23,6.23,0,0,1-4.5,1.66,5.72,5.72,0,0,1-.12-11.44C967.93,173.06,970.08,175.39,970.1,178.75Zm-8.64-.82h6.71a3.27,3.27,0,0,0-3.26-3.19A3.42,3.42,0,0,0,961.46,177.93Z"/><path class="a" d="M981.79,174.77v-7.13h1.89v16.63h-1.89V182.8a4.86,4.86,0,0,1-3.87,1.7,5.72,5.72,0,0,1,0-11.44A4.83,4.83,0,0,1,981.79,174.77Zm-7.43,4a3.77,3.77,0,1,0,3.78-3.94A3.76,3.76,0,0,0,974.36,178.78Z"/><path class="a" d="M996,174.79V173.3h1.9v10.21c0,3.54-2.37,5.56-5.84,5.56a7.62,7.62,0,0,1-4.59-1.42l.82-1.52a6.48,6.48,0,0,0,3.77,1.22c2.36,0,3.94-1.33,3.94-3.76v-1a4.59,4.59,0,0,1-3.78,1.71,5.64,5.64,0,0,1,0-11.27A4.58,4.58,0,0,1,996,174.79Zm-7.28,3.9a3.72,3.72,0,1,0,3.72-3.85A3.67,3.67,0,0,0,988.76,178.69Z"/><path class="a" d="M1011.71,178.75c0,.24,0,.49,0,.7H1003a3.58,3.58,0,0,0,3.73,3.4,5.16,5.16,0,0,0,3.39-1.31l1,1.3a6.22,6.22,0,0,1-4.5,1.66,5.72,5.72,0,0,1-.12-11.44C1009.54,173.06,1011.68,175.39,1011.71,178.75Zm-8.64-.82h6.71a3.28,3.28,0,0,0-3.27-3.19A3.41,3.41,0,0,0,1003.07,177.93Z"/><path class="a" d="M1028,175h-4.22v9.25h-1.89V175h-2.44V173.3h2.44v-1.88c0-2.29,1.06-4,3.64-4a5.76,5.76,0,0,1,3,.82l-.68,1.59a4.48,4.48,0,0,0-2.21-.64c-1.3,0-1.88.83-1.88,2.25v1.88H1028Z"/><path class="a" d="M1040.48,179.67c0,3.32-2.38,4.83-5,4.83s-5-1.51-5-4.83V173.3h1.89v6.2a3.12,3.12,0,1,0,6.23,0v-6.2h1.89Z"/><path class="a" d="M1054.39,177.45v6.82h-1.89v-6.2c0-2-1.11-3.22-3-3.22a3.13,3.13,0,0,0-3.25,3.26v6.16h-1.88v-11h1.87v1.43a4.32,4.32,0,0,1,3.59-1.67A4.26,4.26,0,0,1,1054.39,177.45Z"/><path class="a" d="M1066.79,174.77v-7.13h1.89v16.63h-1.89V182.8a4.86,4.86,0,0,1-3.87,1.7,5.72,5.72,0,0,1,0-11.44A4.83,4.83,0,0,1,1066.79,174.77Zm-7.43,4a3.78,3.78,0,1,0,3.78-3.94A3.77,3.77,0,0,0,1059.36,178.78Z"/><path class="a" d="M852.34,212.3h-1.89v-1.46a4.88,4.88,0,0,1-3.87,1.69,5.72,5.72,0,0,1,0-11.43,4.83,4.83,0,0,1,3.87,1.71v-1.48h1.89ZM843,206.82a3.77,3.77,0,1,0,3.78-3.94A3.76,3.76,0,0,0,843,206.82Z"/><path class="a" d="M858.21,212.3h-1.88V195.67h1.88Z"/><path class="a" d="M864.09,212.3H862.2V195.67h1.89Z"/><path class="a" d="M878.86,206.82a5.81,5.81,0,1,1-5.81-5.72A5.63,5.63,0,0,1,878.86,206.82Zm-9.68,0a3.87,3.87,0,1,0,3.87-3.94A3.8,3.8,0,0,0,869.18,206.82Z"/><path class="a" d="M891,202.83l-1.21,1.28a4,4,0,0,0-2.91-1.23,4,4,0,0,0,0,7.89,4.27,4.27,0,0,0,3-1.26l1.16,1.3a5.33,5.33,0,0,1-4.07,1.72,5.72,5.72,0,0,1,0-11.43A5.29,5.29,0,0,1,891,202.83Z"/><path class="a" d="M904.07,212.3h-1.9v-1.46a4.87,4.87,0,0,1-3.87,1.69,5.72,5.72,0,0,1,0-11.43,4.82,4.82,0,0,1,3.87,1.71v-1.48h1.9Zm-9.32-5.48a3.77,3.77,0,1,0,3.77-3.94A3.76,3.76,0,0,0,894.75,206.82Z"/><path class="a" d="M915.5,203.05h-4.6v5.35c0,1.65.87,2.37,2.06,2.37a4.13,4.13,0,0,0,2.24-.74l.89,1.42a5.53,5.53,0,0,1-3.29,1.08c-2.38,0-3.8-1.3-3.8-4.1v-5.38h-2.34v-1.72H909v-3.44h1.9v3.44h4.6Z"/><path class="a" d="M920.8,197.47a1.32,1.32,0,0,1-1.35,1.32,1.3,1.3,0,0,1-1.33-1.32,1.32,1.32,0,0,1,1.33-1.35A1.34,1.34,0,0,1,920.8,197.47Zm-.39,14.83h-1.89v-11h1.89Z"/><path class="a" d="M935.18,206.82a5.81,5.81,0,1,1-5.81-5.72A5.63,5.63,0,0,1,935.18,206.82Zm-9.68,0a3.87,3.87,0,1,0,3.87-3.94A3.8,3.8,0,0,0,925.5,206.82Z"/><path class="a" d="M948.37,205.49v6.81h-1.9v-6.2c0-2-1.1-3.21-3-3.21a3.12,3.12,0,0,0-3.25,3.26v6.15h-1.88v-11h1.87v1.43a4.33,4.33,0,0,1,3.59-1.66A4.26,4.26,0,0,1,948.37,205.49Z"/><path class="a" d="M959.63,203.77a6.76,6.76,0,0,0-3.53-1c-1.5,0-2.47.64-2.47,1.63s.79,1.28,2.12,1.44L957,206c2.34.32,3.71,1.3,3.71,3.11,0,2.09-1.87,3.44-4.86,3.44a7.81,7.81,0,0,1-4.62-1.41l.88-1.4a5.73,5.73,0,0,0,3.75,1.16c1.8,0,2.91-.59,2.91-1.67,0-.81-.72-1.32-2.21-1.5l-1.27-.15c-2.46-.31-3.65-1.41-3.65-3.08,0-2.1,1.75-3.37,4.42-3.37a7.89,7.89,0,0,1,4.37,1.19Z"/><path class="a" d="M981.13,206.82a5.48,5.48,0,0,1-5.49,5.71,4.85,4.85,0,0,1-3.87-1.69v1.46h-1.88V195.67h1.88v7.13a4.83,4.83,0,0,1,3.87-1.7A5.48,5.48,0,0,1,981.13,206.82Zm-9.47,0a3.77,3.77,0,1,0,3.76-3.94A3.74,3.74,0,0,0,971.66,206.82Z"/><path class="a" d="M985.21,217h-2.09l4-7-5-8.63h2.12l4,6.75,3.75-6.75h2.08Z"/><path class="a" d="M767.74,231.08h-4.22v9.26h-1.89v-9.26h-2.44v-1.72h2.44v-1.87c0-2.3,1.06-4,3.65-4a5.7,5.7,0,0,1,3,.82l-.68,1.59a4.47,4.47,0,0,0-2.2-.64c-1.31,0-1.89.83-1.89,2.25v1.87h4.22Z"/><path class="a" d="M772.78,225.51a1.31,1.31,0,0,1-1.35,1.31,1.29,1.29,0,0,1-1.33-1.31,1.32,1.32,0,0,1,1.33-1.36A1.34,1.34,0,0,1,772.78,225.51Zm-.39,14.83H770.5v-11h1.89Z"/><path class="a" d="M786.42,233.52v6.82h-1.9v-6.21c0-2-1.11-3.21-3-3.21a3.13,3.13,0,0,0-3.25,3.26v6.16h-1.88v-11h1.87v1.44a4.32,4.32,0,0,1,3.59-1.67A4.26,4.26,0,0,1,786.42,233.52Z"/><path class="a" d="M800.71,240.34h-1.9v-1.47a4.83,4.83,0,0,1-3.87,1.7,5.73,5.73,0,0,1,0-11.44,4.81,4.81,0,0,1,3.87,1.71v-1.48h1.9Zm-9.32-5.49a3.77,3.77,0,1,0,3.77-3.94A3.76,3.76,0,0,0,791.39,234.85Z"/><path class="a" d="M814.73,233.52v6.82h-1.89v-6.21c0-2-1.11-3.21-3-3.21a3.12,3.12,0,0,0-3.24,3.26v6.16h-1.89v-11h1.88v1.44a4.32,4.32,0,0,1,3.59-1.67A4.26,4.26,0,0,1,814.73,233.52Z"/><path class="a" d="M827.54,230.87l-1.21,1.28a4,4,0,0,0-2.91-1.24,4,4,0,0,0,0,7.89,4.26,4.26,0,0,0,3-1.26l1.16,1.31a5.32,5.32,0,0,1-4.07,1.72,5.72,5.72,0,0,1,0-11.44A5.25,5.25,0,0,1,827.54,230.87Z"/><path class="a" d="M832.71,225.51a1.31,1.31,0,0,1-1.35,1.31,1.29,1.29,0,0,1-1.33-1.31,1.32,1.32,0,0,1,1.33-1.36A1.34,1.34,0,0,1,832.71,225.51Zm-.39,14.83h-1.88v-11h1.88Z"/><path class="a" d="M846.73,240.34h-1.89v-1.47a4.86,4.86,0,0,1-3.87,1.7,5.72,5.72,0,0,1,0-11.44,4.83,4.83,0,0,1,3.87,1.71v-1.48h1.89Zm-9.32-5.49a3.77,3.77,0,1,0,3.78-3.94A3.76,3.76,0,0,0,837.41,234.85Z"/><path class="a" d="M852.6,240.34h-1.88V223.7h1.88Z"/><path class="a" d="M873.19,240.34h-1.9v-1.47a4.84,4.84,0,0,1-3.87,1.7,5.73,5.73,0,0,1,0-11.44,4.82,4.82,0,0,1,3.87,1.71v-1.48h1.9Zm-9.32-5.49a3.77,3.77,0,1,0,3.77-3.94A3.76,3.76,0,0,0,863.87,234.85Z"/><path class="a" d="M885.7,230.84V223.7h1.89v16.64H885.7v-1.47a4.86,4.86,0,0,1-3.87,1.7,5.72,5.72,0,0,1,0-11.44A4.83,4.83,0,0,1,885.7,230.84Zm-7.43,4a3.78,3.78,0,1,0,3.78-3.94A3.77,3.77,0,0,0,878.27,234.85Z"/><path class="a" d="M896.74,240.35h-2.21l-4.62-11H892l3.69,9.07,3.69-9.07h2Z"/><path class="a" d="M905.94,225.51a1.31,1.31,0,0,1-1.35,1.31,1.29,1.29,0,0,1-1.33-1.31,1.32,1.32,0,0,1,1.33-1.36A1.34,1.34,0,0,1,905.94,225.51Zm-.39,14.83h-1.88v-11h1.88Z"/><path class="a" d="M916.93,231.8a6.85,6.85,0,0,0-3.53-1c-1.5,0-2.47.64-2.47,1.63s.8,1.29,2.12,1.45l1.27.16c2.34.31,3.71,1.29,3.71,3.11,0,2.09-1.87,3.44-4.86,3.44a7.89,7.89,0,0,1-4.62-1.41l.88-1.41a5.73,5.73,0,0,0,3.75,1.17c1.8,0,2.91-.59,2.91-1.68,0-.81-.71-1.32-2.2-1.5l-1.27-.15c-2.47-.3-3.66-1.41-3.66-3.07,0-2.11,1.75-3.38,4.42-3.38a8,8,0,0,1,4.37,1.19Z"/><path class="a" d="M931.79,234.85a5.8,5.8,0,1,1-5.81-5.72A5.63,5.63,0,0,1,931.79,234.85Zm-9.68,0a3.87,3.87,0,1,0,3.87-3.94A3.8,3.8,0,0,0,922.11,234.85Z"/><path class="a" d="M942,229.49l-.46,1.86a4.25,4.25,0,0,0-1.88-.43c-1.68,0-2.86,1.29-2.86,3.31v6.11H935v-11h1.86v1.45a3.84,3.84,0,0,1,3.21-1.68A5,5,0,0,1,942,229.49Z"/><path class="a" d="M951.82,231.8a6.86,6.86,0,0,0-3.54-1c-1.5,0-2.47.64-2.47,1.63s.8,1.29,2.13,1.45l1.27.16c2.33.31,3.71,1.29,3.71,3.11,0,2.09-1.88,3.44-4.87,3.44a7.91,7.91,0,0,1-4.62-1.41l.88-1.41a5.75,5.75,0,0,0,3.75,1.17c1.81,0,2.92-.59,2.92-1.68,0-.81-.72-1.32-2.21-1.5l-1.27-.15c-2.46-.3-3.65-1.41-3.65-3.07,0-2.11,1.74-3.38,4.41-3.38a8,8,0,0,1,4.38,1.19Z"/><path class="a" d="M964.35,225.51a1.31,1.31,0,0,1-1.35,1.31,1.29,1.29,0,0,1-1.33-1.31,1.32,1.32,0,0,1,1.33-1.36A1.34,1.34,0,0,1,964.35,225.51ZM964,240.34h-1.88v-11H964Z"/><path class="a" d="M978,233.52v6.82h-1.9v-6.21c0-2-1.1-3.21-3-3.21a3.13,3.13,0,0,0-3.25,3.26v6.16H968v-11h1.87v1.44a4.32,4.32,0,0,1,3.6-1.67A4.26,4.26,0,0,1,978,233.52Z"/><path class="a" d="M1002.42,227.27l-1.7,1.15a5.83,5.83,0,0,0-4.92-2.54,6.38,6.38,0,0,0,0,12.75,5.78,5.78,0,0,0,4.91-2.53l1.66,1.21a7.79,7.79,0,0,1-6.57,3.27,8.33,8.33,0,1,1,0-16.66A7.63,7.63,0,0,1,1002.42,227.27Z"/><path class="a" d="M1015.92,240.34H1014v-1.47a4.86,4.86,0,0,1-3.87,1.7,5.72,5.72,0,0,1,0-11.44,4.83,4.83,0,0,1,3.87,1.71v-1.48h1.89Zm-9.32-5.49a3.77,3.77,0,1,0,3.78-3.94A3.76,3.76,0,0,0,1006.6,234.85Z"/><path class="a" d="M1030,233.52v6.82h-1.9v-6.21c0-2-1.11-3.21-3-3.21a3.13,3.13,0,0,0-3.25,3.26v6.16h-1.88v-11h1.87v1.44a4.32,4.32,0,0,1,3.59-1.67A4.26,4.26,0,0,1,1030,233.52Z"/><path class="a" d="M1044.24,240.34h-1.9v-1.47a4.84,4.84,0,0,1-3.87,1.7,5.73,5.73,0,0,1,0-11.44,4.82,4.82,0,0,1,3.87,1.71v-1.48h1.9Zm-9.32-5.49a3.77,3.77,0,1,0,3.77-3.94A3.76,3.76,0,0,0,1034.92,234.85Z"/><path class="a" d="M1056.75,230.84V223.7h1.89v16.64h-1.89v-1.47a4.86,4.86,0,0,1-3.87,1.7,5.72,5.72,0,0,1,0-11.44A4.83,4.83,0,0,1,1056.75,230.84Zm-7.43,4a3.77,3.77,0,0,0,3.78,4,3.95,3.95,0,1,0-3.78-4Z"/><path class="a" d="M1073.05,240.34h-1.9v-1.47a4.82,4.82,0,0,1-3.86,1.7,5.72,5.72,0,0,1,0-11.44,4.8,4.8,0,0,1,3.86,1.71v-1.48h1.9Zm-9.32-5.49a3.77,3.77,0,1,0,3.77-3.94A3.76,3.76,0,0,0,1063.73,234.85Z"/><line class="c" x1="330.65" y1="18.8" x2="330.65" y2="252.48"/><line class="c" x1="717.06" y1="18.8" x2="717.06" y2="252.48"/></svg>