<svg xmlns="http://www.w3.org/2000/svg" width="411" height="820" viewBox="0 0 411 820"><defs><style>.a{fill:#203232;}.b{fill:#ed5a36;}.c{fill:none;stroke:#ccc;stroke-miterlimit:10;stroke-width:2px;}</style></defs><path class="a" d="M46.58,43.77v6.16H44.65V34.53H50.5C54,34.53,56,36.27,56,39.15s-2,4.62-5.45,4.62Zm0-7.41V42h3.88c2.27,0,3.47-.93,3.47-2.8s-1.2-2.79-3.47-2.79Z"/><path class="a" d="M65.7,39.6l-.44,1.77a4.12,4.12,0,0,0-1.79-.4c-1.59,0-2.72,1.22-2.72,3.14v5.82H59V39.48h1.77v1.38a3.67,3.67,0,0,1,3.06-1.6A4.69,4.69,0,0,1,65.7,39.6Z"/><path class="a" d="M70.34,35.81a1.25,1.25,0,0,1-1.28,1.25,1.24,1.24,0,0,1-1.27-1.25,1.26,1.26,0,0,1,1.27-1.29A1.27,1.27,0,0,1,70.34,35.81ZM70,49.93H68.18V39.48H70Z"/><path class="a" d="M78.69,49.94H76.58l-4.4-10.46h2l3.51,8.64,3.52-8.64h1.9Z"/><path class="a" d="M95.07,49.93h-1.8V48.54a4.63,4.63,0,0,1-3.69,1.61,5.21,5.21,0,0,1-5.22-5.44,5.22,5.22,0,0,1,5.22-5.45,4.61,4.61,0,0,1,3.69,1.63V39.48h1.8Zm-8.88-5.22A3.6,3.6,0,1,0,89.79,41,3.59,3.59,0,0,0,86.19,44.71Z"/><path class="a" d="M106,41.12h-4.39v5.09c0,1.58.84,2.26,2,2.26a4,4,0,0,0,2.14-.7l.85,1.35a5.31,5.31,0,0,1-3.14,1c-2.27,0-3.62-1.24-3.62-3.9V41.12H97.55V39.48h2.23V36.2h1.8v3.28H106Z"/><path class="a" d="M118.15,44.67c0,.24,0,.48,0,.68H109.9a3.4,3.4,0,0,0,3.55,3.23,4.92,4.92,0,0,0,3.23-1.24l.95,1.23a5.93,5.93,0,0,1-4.29,1.58,5.12,5.12,0,0,1-5.3-5.44,5.12,5.12,0,0,1,5.19-5.45C116.08,39.26,118.13,41.47,118.15,44.67Zm-8.23-.78h6.39a3.11,3.11,0,0,0-3.11-3A3.25,3.25,0,0,0,109.92,43.89Z"/><path class="a" d="M135.56,40.91l-1.15,1.22A3.86,3.86,0,0,0,131.64,41a3.76,3.76,0,0,0,0,7.51,4,4,0,0,0,2.81-1.2l1.11,1.24a5.06,5.06,0,0,1-3.88,1.64,5.45,5.45,0,0,1,0-10.89A5,5,0,0,1,135.56,40.91Z"/><path class="a" d="M145.07,39.6l-.44,1.77a4.16,4.16,0,0,0-1.8-.4c-1.59,0-2.71,1.22-2.71,3.14v5.82h-1.8V39.48h1.77v1.38a3.67,3.67,0,0,1,3.06-1.6A4.74,4.74,0,0,1,145.07,39.6Z"/><path class="a" d="M156.42,44.67c0,.24,0,.48,0,.68h-8.22a3.4,3.4,0,0,0,3.55,3.23A4.94,4.94,0,0,0,155,47.34l1,1.23a5.94,5.94,0,0,1-4.29,1.58,5.12,5.12,0,0,1-5.3-5.44,5.12,5.12,0,0,1,5.19-5.45C154.35,39.26,156.4,41.47,156.42,44.67Zm-8.23-.78h6.39a3.12,3.12,0,0,0-3.11-3A3.25,3.25,0,0,0,148.19,43.89Z"/><path class="a" d="M167.55,40.89v-6.8h1.81V49.93h-1.81V48.54a4.61,4.61,0,0,1-3.68,1.61,5.21,5.21,0,0,1-5.23-5.44,5.22,5.22,0,0,1,5.23-5.45A4.59,4.59,0,0,1,167.55,40.89Zm-7.07,3.82A3.59,3.59,0,1,0,164.07,41,3.58,3.58,0,0,0,160.48,44.71Z"/><path class="a" d="M175.33,35.81A1.26,1.26,0,0,1,174,37.06a1.24,1.24,0,0,1-1.27-1.25A1.26,1.26,0,0,1,174,34.52,1.28,1.28,0,0,1,175.33,35.81ZM175,49.93h-1.79V39.48H175Z"/><path class="a" d="M185.85,41.12h-4.39v5.09c0,1.58.84,2.26,2,2.26a4,4,0,0,0,2.14-.7l.85,1.35a5.31,5.31,0,0,1-3.14,1c-2.27,0-3.62-1.24-3.62-3.9V41.12h-2.23V39.48h2.23V36.2h1.8v3.28h4.39Z"/><path class="a" d="M207.71,49.93h-2.08l-1.69-4.2h-7.47l-1.68,4.2h-2L199,34.53h2.41Zm-10.5-6h6l-3-7.44Z"/><path class="a" d="M222.52,43.89c0,4.21-2.84,6.26-6.39,6.26s-6.4-2-6.4-6.26V34.53h1.94v9.22c0,3.16,1.88,4.54,4.46,4.54s4.44-1.38,4.44-4.54V34.53h2Z"/><path class="a" d="M242.92,49.93H241V36.68l-5.16,11.59h-2.05l-5.16-11.51V49.93h-1.93V34.52h2.95L234.8,46,240,34.52h3Z"/><path class="a" d="M254.7,40.83a4.11,4.11,0,0,1,3.41-1.57,4.05,4.05,0,0,1,4.36,4.18v6.49h-1.81V44c0-1.93-1.05-3.06-2.87-3.06a3,3,0,0,0-3.09,3.1v5.86h-1.79V34.09h1.79Z"/><path class="a" d="M276.09,49.93h-1.81V48.54a4.6,4.6,0,0,1-3.68,1.61,5.21,5.21,0,0,1-5.23-5.44,5.22,5.22,0,0,1,5.23-5.45,4.58,4.58,0,0,1,3.68,1.63V39.48h1.81Zm-8.88-5.22a3.59,3.59,0,1,0,3.6-3.75A3.58,3.58,0,0,0,267.21,44.71Z"/><path class="a" d="M286.93,41.8a6.51,6.51,0,0,0-3.36-1c-1.43,0-2.36.61-2.36,1.56s.76,1.22,2,1.37l1.21.16c2.22.29,3.53,1.23,3.53,3,0,2-1.79,3.27-4.63,3.27a7.46,7.46,0,0,1-4.41-1.34l.84-1.34a5.49,5.49,0,0,0,3.58,1.11c1.71,0,2.77-.56,2.77-1.59,0-.78-.68-1.26-2.1-1.44l-1.21-.14c-2.35-.28-3.48-1.34-3.48-2.92,0-2,1.66-3.22,4.2-3.22a7.5,7.5,0,0,1,4.17,1.14Z"/><path class="a" d="M304.69,40.9V39.48h1.8v9.73c0,3.37-2.26,5.3-5.56,5.3a7.24,7.24,0,0,1-4.37-1.35l.78-1.45a6.2,6.2,0,0,0,3.59,1.16c2.25,0,3.76-1.26,3.76-3.59v-.92a4.39,4.39,0,0,1-3.6,1.63,5.09,5.09,0,0,1-5.17-5.37,5.08,5.08,0,0,1,5.17-5.36A4.39,4.39,0,0,1,304.69,40.9Zm-6.94,3.72A3.55,3.55,0,1,0,301.3,41,3.49,3.49,0,0,0,297.75,44.62Z"/><path class="a" d="M317,39.6l-.44,1.77a4.15,4.15,0,0,0-1.79-.4c-1.6,0-2.72,1.22-2.72,3.14v5.82h-1.8V39.48h1.78v1.38a3.64,3.64,0,0,1,3.05-1.6A4.74,4.74,0,0,1,317,39.6Z"/><path class="a" d="M329.34,44.71a5.53,5.53,0,1,1-5.54-5.45A5.36,5.36,0,0,1,329.34,44.71Zm-9.22,0A3.69,3.69,0,1,0,323.8,41,3.61,3.61,0,0,0,320.12,44.71Z"/><path class="a" d="M343.75,48.05l3-8.57h1.88l-3.76,10.45h-2.15l-3-8.5-3,8.5H334.6l-3.76-10.45h1.93l3,8.55,3-8.55h2Z"/><path class="a" d="M360.53,43.44v6.49h-1.8V44c0-1.93-1.06-3.06-2.87-3.06a3,3,0,0,0-3.09,3.1v5.86H351V39.48h1.78v1.37a4.14,4.14,0,0,1,3.43-1.59A4.05,4.05,0,0,1,360.53,43.44Z"/><path class="b" d="M91.71,97.77l23.61,11v7l-23.61,11v-7.49l16.46-7-16.46-7Z"/><path class="b" d="M123.34,91.8a21.81,21.81,0,0,1,18.12-9.14c11.1,0,18,7,18,17.13,0,6.49-3.3,11-7.65,15.51l-11.34,11.78h20.28v9.59H125.69v-8l18.76-19.22c2.81-2.84,4.36-5.76,4.36-9.1,0-4.62-3.22-7.92-8.11-7.92s-8,2.73-10.76,5.84Z"/><path class="b" d="M213.13,110.14c0,17.17-10.24,27.48-22.9,27.48s-22.85-10.31-22.85-27.48,10.16-27.48,22.85-27.48S213.13,93,213.13,110.14Zm-35.1,0c0,11.6,5.42,17.66,12.2,17.66s12.21-6.06,12.21-17.66-5.38-17.66-12.21-17.66S178,98.54,178,110.14Z"/><path class="b" d="M266.64,110.14c0,17.17-10.24,27.48-22.9,27.48s-22.85-10.31-22.85-27.48,10.16-27.48,22.85-27.48S266.64,93,266.64,110.14Zm-35.1,0c0,11.6,5.42,17.66,12.2,17.66S256,121.74,256,110.14s-5.38-17.66-12.21-17.66S231.54,98.54,231.54,110.14Z"/><path class="b" d="M291.27,111.31a9.49,9.49,0,1,1-9.5-9.25A9.16,9.16,0,0,1,291.27,111.31Zm-13.58,0a4.09,4.09,0,1,0,4.08-4.18A4,4,0,0,0,277.69,111.31Zm8.6,25.36h-6.37l22.81-34h6.34ZM316.8,128a9.49,9.49,0,1,1-9.5-9.28A9.15,9.15,0,0,1,316.8,128Zm-13.58,0a4.09,4.09,0,1,0,4.08-4.2A4,4,0,0,0,303.22,128Z"/><path class="a" d="M94.36,175.49a6.51,6.51,0,0,0-3.36-1c-1.43,0-2.36.61-2.36,1.56s.76,1.22,2,1.37l1.21.15c2.22.3,3.53,1.24,3.53,3,0,2-1.78,3.28-4.63,3.28a7.48,7.48,0,0,1-4.4-1.34l.83-1.34a5.49,5.49,0,0,0,3.58,1.11c1.71,0,2.77-.56,2.77-1.6,0-.77-.68-1.25-2.1-1.43l-1.21-.14c-2.34-.29-3.48-1.34-3.48-2.93,0-2,1.66-3.21,4.21-3.21a7.61,7.61,0,0,1,4.17,1.13Z"/><path class="a" d="M100.42,169.5a1.25,1.25,0,0,1-1.28,1.25,1.24,1.24,0,0,1-1.27-1.25,1.26,1.26,0,0,1,1.27-1.29A1.27,1.27,0,0,1,100.42,169.5Zm-.37,14.12H98.26V173.17h1.79Z"/><path class="a" d="M113.42,177.13v6.49h-1.81v-5.91c0-1.92-1-3.05-2.87-3.05a3,3,0,0,0-3.09,3.1v5.86h-1.79V173.17h1.78v1.37a4.12,4.12,0,0,1,3.42-1.59A4.06,4.06,0,0,1,113.42,177.13Z"/><path class="a" d="M125.63,174.6l-1.16,1.22a3.82,3.82,0,0,0-2.77-1.18,3.77,3.77,0,0,0,0,7.52,4.05,4.05,0,0,0,2.81-1.2l1.12,1.24a5.1,5.1,0,0,1-3.89,1.64,5.45,5.45,0,0,1,0-10.89A5.06,5.06,0,0,1,125.63,174.6Z"/><path class="a" d="M137.52,178.36a6.71,6.71,0,0,1,0,.67h-8.21a3.41,3.41,0,0,0,3.55,3.24A4.9,4.9,0,0,0,136,181l1,1.23a5.94,5.94,0,0,1-4.29,1.58A5.45,5.45,0,0,1,132.6,173C135.45,173,137.5,175.16,137.52,178.36Zm-8.23-.78h6.39a3.11,3.11,0,0,0-3.11-3A3.24,3.24,0,0,0,129.29,177.58Z"/><path class="a" d="M145.44,170.56a5.46,5.46,0,0,1,4.75-2.56,4.61,4.61,0,0,1,5,4.82,6.27,6.27,0,0,1-2.07,4.33l-4.42,4.7h7v1.77h-9.73v-1.46l5.76-6.08a4.69,4.69,0,0,0,1.54-3.27,2.88,2.88,0,0,0-3.07-3,3.91,3.91,0,0,0-3.36,1.87Z"/><path class="a" d="M170.84,175.92c0,4.94-2.88,7.92-6.4,7.92s-6.39-3-6.39-7.92,2.86-7.92,6.39-7.92S170.84,171,170.84,175.92Zm-10.84,0c0,4,2,6.13,4.44,6.13s4.45-2.17,4.45-6.13-2-6.13-4.45-6.13S160,172,160,175.92Z"/><path class="a" d="M186.46,175.92c0,4.94-2.88,7.92-6.4,7.92s-6.39-3-6.39-7.92,2.86-7.92,6.39-7.92S186.46,171,186.46,175.92Zm-10.84,0c0,4,2,6.13,4.44,6.13s4.45-2.17,4.45-6.13-2-6.13-4.45-6.13S175.62,172,175.62,175.92Z"/><path class="a" d="M200.22,172.27a3.73,3.73,0,0,1-2.6,3.57c1.64.58,3,1.72,3,3.66,0,2.76-2.59,4.34-5.75,4.34s-5.75-1.58-5.75-4.34a3.85,3.85,0,0,1,3-3.66,3.71,3.71,0,0,1-2.59-3.57c0-2.7,2.42-4.27,5.38-4.27S200.22,169.57,200.22,172.27Zm-9.17,7.13c0,1.78,1.71,2.72,3.78,2.72s3.77-.94,3.77-2.72-1.71-2.72-3.77-2.72S191.05,177.63,191.05,179.4Zm.36-7c0,1.78,1.54,2.69,3.42,2.69s3.42-.91,3.42-2.69-1.54-2.62-3.42-2.62S191.41,170.65,191.41,172.36Z"/><path class="a" d="M205.86,180.84l-1.19,5.66h-1.55l.64-5.66Z"/><path class="a" d="M232.36,177.13v6.49h-1.81v-5.91c0-1.92-1.05-3.05-2.87-3.05a3,3,0,0,0-3.08,3.1v5.86h-1.8v-5.91a2.71,2.71,0,0,0-2.87-3.05,3,3,0,0,0-3.1,3.1v5.86H215V173.17h1.78v1.37a4.55,4.55,0,0,1,7.29.51A4.24,4.24,0,0,1,228,173,4,4,0,0,1,232.36,177.13Z"/><path class="a" d="M246,183.62h-1.81v-1.4a4.62,4.62,0,0,1-3.68,1.62,5.45,5.45,0,0,1,0-10.89,4.59,4.59,0,0,1,3.68,1.63v-1.41H246Zm-8.88-5.22a3.59,3.59,0,1,0,3.59-3.76A3.58,3.58,0,0,0,237.1,178.4Z"/><path class="a" d="M251.57,177.35H253l3.89-4.18h2.26l-4.66,4.93,4.73,5.52h-2.28L253,179h-1.42v4.64h-1.79V167.78h1.79Z"/><path class="a" d="M263.65,169.5a1.25,1.25,0,0,1-1.29,1.25,1.23,1.23,0,0,1-1.26-1.25,1.26,1.26,0,0,1,1.26-1.29A1.27,1.27,0,0,1,263.65,169.5Zm-.37,14.12h-1.8V173.17h1.8Z"/><path class="a" d="M276.64,177.13v6.49h-1.8v-5.91a2.71,2.71,0,0,0-2.87-3.05,3,3,0,0,0-3.09,3.1v5.86h-1.8V173.17h1.78v1.37a4.14,4.14,0,0,1,3.43-1.59A4.05,4.05,0,0,1,276.64,177.13Z"/><path class="a" d="M288.31,174.59v-1.42h1.81v9.73c0,3.37-2.26,5.3-5.56,5.3a7.33,7.33,0,0,1-4.38-1.35l.78-1.46a6.19,6.19,0,0,0,3.6,1.17c2.25,0,3.75-1.27,3.75-3.59v-.92a4.37,4.37,0,0,1-3.59,1.63,5.37,5.37,0,0,1,0-10.73A4.37,4.37,0,0,1,288.31,174.59Zm-6.93,3.72a3.55,3.55,0,1,0,3.54-3.67A3.49,3.49,0,0,0,281.38,178.31Z"/><path class="a" d="M302,169.5a1.25,1.25,0,0,1-1.28,1.25,1.24,1.24,0,0,1-1.27-1.25,1.26,1.26,0,0,1,1.27-1.29A1.27,1.27,0,0,1,302,169.5Zm-.37,14.12h-1.79V173.17h1.79Z"/><path class="a" d="M312.5,174.81h-4.39v5.09c0,1.58.84,2.26,2,2.26a4,4,0,0,0,2.14-.7l.84,1.35a5.28,5.28,0,0,1-3.13,1c-2.27,0-3.62-1.24-3.62-3.9v-5.13h-2.24v-1.64h2.24v-3.28h1.8v3.28h4.39Z"/><path class="a" d="M106,200.81h-4.39v5.09c0,1.58.84,2.26,2,2.26a4,4,0,0,0,2.14-.7l.84,1.35a5.25,5.25,0,0,1-3.13,1c-2.27,0-3.62-1.24-3.62-3.9v-5.13H97.59v-1.64h2.23v-3.28h1.8v3.28H106Z"/><path class="a" d="M110.69,200.52A4.1,4.1,0,0,1,114.1,199a4.05,4.05,0,0,1,4.35,4.18v6.49h-1.8v-5.91a2.71,2.71,0,0,0-2.87-3.05,3,3,0,0,0-3.09,3.1v5.86h-1.8V193.78h1.8Z"/><path class="a" d="M131.47,204.36c0,.23,0,.48,0,.67h-8.22a3.42,3.42,0,0,0,3.56,3.24A4.9,4.9,0,0,0,130,207l1,1.23a5.94,5.94,0,0,1-4.29,1.58,5.45,5.45,0,0,1-.11-10.89C129.4,199,131.44,201.16,131.47,204.36Zm-8.23-.78h6.39a3.11,3.11,0,0,0-3.11-3A3.24,3.24,0,0,0,123.24,203.58Z"/><path class="a" d="M147,200.81h-4v8.81h-1.8v-8.81h-2.32v-1.64h2.32v-1.78c0-2.19,1-3.83,3.48-3.83a5.46,5.46,0,0,1,2.87.78l-.65,1.51a4.28,4.28,0,0,0-2.1-.61c-1.25,0-1.8.8-1.8,2.15v1.78h4Z"/><path class="a" d="M159.15,209.62h-1.8v-1.4a4.64,4.64,0,0,1-3.69,1.62,5.45,5.45,0,0,1,0-10.89,4.61,4.61,0,0,1,3.69,1.63v-1.41h1.8Zm-8.88-5.22a3.6,3.6,0,1,0,3.6-3.76A3.59,3.59,0,0,0,150.27,204.4Z"/><path class="a" d="M170,201.49a6.52,6.52,0,0,0-3.37-1c-1.43,0-2.35.61-2.35,1.56s.76,1.22,2,1.37l1.21.15c2.22.3,3.53,1.24,3.53,3,0,2-1.78,3.28-4.63,3.28a7.5,7.5,0,0,1-4.4-1.34l.84-1.34a5.46,5.46,0,0,0,3.57,1.11c1.72,0,2.78-.56,2.78-1.6,0-.77-.69-1.25-2.11-1.43l-1.21-.14c-2.34-.29-3.47-1.34-3.47-2.93,0-2,1.66-3.21,4.2-3.21a7.58,7.58,0,0,1,4.17,1.13Z"/><path class="a" d="M181,200.81H176.6v5.09c0,1.58.83,2.26,2,2.26a3.92,3.92,0,0,0,2.13-.7l.85,1.35a5.28,5.28,0,0,1-3.14,1c-2.26,0-3.62-1.24-3.62-3.9v-5.13h-2.23v-1.64h2.23v-3.28h1.81v3.28H181Z"/><path class="a" d="M193.16,204.36c0,.23,0,.48,0,.67h-8.22a3.41,3.41,0,0,0,3.56,3.24,4.9,4.9,0,0,0,3.22-1.24l1,1.23a5.94,5.94,0,0,1-4.29,1.58,5.45,5.45,0,0,1-.11-10.89C191.1,199,193.14,201.16,193.16,204.36Zm-8.22-.78h6.39a3.11,3.11,0,0,0-3.12-3A3.24,3.24,0,0,0,184.94,203.58Z"/><path class="a" d="M203.22,201.49a6.52,6.52,0,0,0-3.37-1c-1.43,0-2.35.61-2.35,1.56s.76,1.22,2,1.37l1.21.15c2.22.3,3.53,1.24,3.53,3,0,2-1.78,3.28-4.63,3.28a7.5,7.5,0,0,1-4.4-1.34l.84-1.34a5.46,5.46,0,0,0,3.57,1.11c1.72,0,2.77-.56,2.77-1.6,0-.77-.68-1.25-2.1-1.43l-1.21-.14c-2.34-.29-3.47-1.34-3.47-2.93,0-2,1.66-3.21,4.2-3.21a7.58,7.58,0,0,1,4.17,1.13Z"/><path class="a" d="M214.21,200.81h-4.39v5.09c0,1.58.83,2.26,2,2.26a3.92,3.92,0,0,0,2.13-.7l.85,1.35a5.31,5.31,0,0,1-3.14,1c-2.26,0-3.62-1.24-3.62-3.9v-5.13h-2.23v-1.64H208v-3.28h1.81v3.28h4.39Z"/><path class="a" d="M231,200.59v-1.42h1.8v9.73c0,3.37-2.25,5.3-5.55,5.3a7.33,7.33,0,0,1-4.38-1.35l.78-1.46a6.15,6.15,0,0,0,3.6,1.17c2.24,0,3.75-1.27,3.75-3.59v-.92a4.37,4.37,0,0,1-3.6,1.63,5.37,5.37,0,0,1,0-10.73A4.38,4.38,0,0,1,231,200.59ZM224,204.31a3.54,3.54,0,1,0,3.54-3.67A3.49,3.49,0,0,0,224,204.31Z"/><path class="a" d="M243.3,199.29l-.44,1.77a4.12,4.12,0,0,0-1.79-.4c-1.6,0-2.72,1.22-2.72,3.14v5.82h-1.79V199.17h1.77v1.38a3.65,3.65,0,0,1,3.06-1.6A4.72,4.72,0,0,1,243.3,199.29Z"/><path class="a" d="M255.6,204.4a5.53,5.53,0,1,1-5.53-5.45A5.36,5.36,0,0,1,255.6,204.4Zm-9.22,0a3.69,3.69,0,1,0,3.69-3.76A3.61,3.61,0,0,0,246.38,204.4Z"/><path class="a" d="M270,207.74l3-8.57h1.88l-3.76,10.45H269l-3-8.5-3,8.5h-2.11l-3.77-10.45H259l3,8.55,3-8.55h2Z"/><path class="a" d="M279.4,195.5a1.25,1.25,0,0,1-1.29,1.25,1.23,1.23,0,0,1-1.26-1.25,1.26,1.26,0,0,1,1.26-1.29A1.27,1.27,0,0,1,279.4,195.5ZM279,209.62h-1.8V199.17H279Z"/><path class="a" d="M292.39,203.13v6.49h-1.8v-5.91a2.71,2.71,0,0,0-2.87-3.05,3,3,0,0,0-3.09,3.1v5.86h-1.8V199.17h1.79v1.37A4.11,4.11,0,0,1,288,199,4.05,4.05,0,0,1,292.39,203.13Z"/><path class="a" d="M304.06,200.59v-1.42h1.81v9.73c0,3.37-2.26,5.3-5.56,5.3a7.33,7.33,0,0,1-4.38-1.35l.79-1.46a6.14,6.14,0,0,0,3.59,1.17c2.25,0,3.75-1.27,3.75-3.59v-.92a4.37,4.37,0,0,1-3.59,1.63,5.37,5.37,0,0,1,0-10.73A4.37,4.37,0,0,1,304.06,200.59Zm-6.93,3.72a3.55,3.55,0,1,0,3.55-3.67A3.49,3.49,0,0,0,297.13,204.31Z"/><path class="a" d="M81.55,235.62H79.47l-1.69-4.2H70.31l-1.69,4.2h-2l6.26-15.4h2.41Zm-10.51-6h6l-3-7.45Z"/><path class="a" d="M85.63,235.62H83.84V219.78h1.79Z"/><path class="a" d="M96.53,226.81H92.14v5.09c0,1.58.84,2.26,2,2.26a4,4,0,0,0,2.14-.7l.84,1.35a5.28,5.28,0,0,1-3.13,1c-2.27,0-3.62-1.24-3.62-3.9v-5.13H88.1v-1.64h2.24v-3.28h1.8v3.28h4.39Z"/><path class="a" d="M108.71,230.36c0,.23,0,.48,0,.67h-8.22a3.41,3.41,0,0,0,3.55,3.24,4.9,4.9,0,0,0,3.22-1.24l1,1.23a5.94,5.94,0,0,1-4.29,1.58,5.45,5.45,0,0,1-.11-10.89C106.64,225,108.69,227.16,108.71,230.36Zm-8.23-.78h6.39a3.11,3.11,0,0,0-3.11-3A3.24,3.24,0,0,0,100.48,229.58Z"/><path class="a" d="M118.47,225.29l-.45,1.77a4.09,4.09,0,0,0-1.79-.4c-1.59,0-2.72,1.22-2.72,3.14v5.82h-1.79V225.17h1.77v1.38a3.67,3.67,0,0,1,3.06-1.6A4.77,4.77,0,0,1,118.47,225.29Z"/><path class="a" d="M130.5,229.13v6.49h-1.81v-5.91c0-1.92-1-3.05-2.87-3.05a3,3,0,0,0-3.09,3.1v5.86h-1.79V225.17h1.78v1.37a4.12,4.12,0,0,1,3.42-1.59A4.05,4.05,0,0,1,130.5,229.13Z"/><path class="a" d="M144.12,235.62h-1.81v-1.4a4.6,4.6,0,0,1-3.68,1.62,5.45,5.45,0,0,1,0-10.89,4.58,4.58,0,0,1,3.68,1.63v-1.41h1.81Zm-8.88-5.22a3.59,3.59,0,1,0,3.6-3.76A3.58,3.58,0,0,0,135.24,230.4Z"/><path class="a" d="M155,226.81h-4.39v5.09c0,1.58.83,2.26,2,2.26a3.92,3.92,0,0,0,2.13-.7l.85,1.35a5.28,5.28,0,0,1-3.14,1c-2.26,0-3.62-1.24-3.62-3.9v-5.13h-2.23v-1.64h2.23v-3.28h1.81v3.28H155Z"/><path class="a" d="M160.07,221.5a1.26,1.26,0,0,1-1.29,1.25,1.24,1.24,0,0,1-1.27-1.25,1.26,1.26,0,0,1,1.27-1.29A1.28,1.28,0,0,1,160.07,221.5Zm-.38,14.12H157.9V225.17h1.79Z"/><path class="a" d="M168.41,235.63H166.3l-4.4-10.46h2l3.51,8.64,3.52-8.64h1.9Z"/><path class="a" d="M184.19,230.36c0,.23,0,.48,0,.67h-8.22a3.41,3.41,0,0,0,3.55,3.24,4.94,4.94,0,0,0,3.23-1.24l.95,1.23a5.94,5.94,0,0,1-4.29,1.58,5.45,5.45,0,0,1-.11-10.89C182.12,225,184.17,227.16,184.19,230.36Zm-8.23-.78h6.39a3.11,3.11,0,0,0-3.11-3A3.25,3.25,0,0,0,176,229.58Z"/><path class="a" d="M194.24,227.49a6.51,6.51,0,0,0-3.36-1c-1.43,0-2.36.61-2.36,1.56s.76,1.22,2,1.37l1.21.15c2.22.3,3.53,1.24,3.53,3,0,2-1.78,3.28-4.63,3.28a7.48,7.48,0,0,1-4.4-1.34l.83-1.34a5.49,5.49,0,0,0,3.58,1.11c1.71,0,2.77-.56,2.77-1.6,0-.77-.68-1.25-2.1-1.43l-1.21-.14c-2.34-.29-3.48-1.34-3.48-2.93,0-2,1.66-3.21,4.2-3.21a7.58,7.58,0,0,1,4.17,1.13Z"/><path class="a" d="M211.06,227.49a6.52,6.52,0,0,0-3.37-1c-1.43,0-2.35.61-2.35,1.56s.76,1.22,2,1.37l1.22.15c2.22.3,3.53,1.24,3.53,3,0,2-1.79,3.28-4.63,3.28a7.53,7.53,0,0,1-4.41-1.34l.84-1.34a5.49,5.49,0,0,0,3.58,1.11c1.71,0,2.77-.56,2.77-1.6,0-.77-.68-1.25-2.1-1.43L207,231.1c-2.35-.29-3.48-1.34-3.48-2.93,0-2,1.66-3.21,4.2-3.21a7.58,7.58,0,0,1,4.17,1.13Z"/><path class="a" d="M224.38,231.24c0,3.16-2.26,4.6-4.76,4.6s-4.78-1.44-4.78-4.6v-6.07h1.81v5.91a3,3,0,1,0,5.93,0v-5.91h1.8Z"/><path class="a" d="M238.78,230.4a5.22,5.22,0,0,1-5.22,5.44,4.6,4.6,0,0,1-3.69-1.62v1.4h-1.79V219.78h1.79v6.79a4.6,4.6,0,0,1,3.69-1.62A5.22,5.22,0,0,1,238.78,230.4Zm-9,0a3.59,3.59,0,1,0,3.59-3.76A3.56,3.56,0,0,0,229.76,230.4Z"/><path class="a" d="M247.61,230.61h-6.18V229h6.18Z"/><path class="a" d="M261.75,230.4a5.22,5.22,0,0,1-5.23,5.44,4.57,4.57,0,0,1-3.68-1.62V240H251V225.17h1.8v1.4a4.57,4.57,0,0,1,3.68-1.62A5.23,5.23,0,0,1,261.75,230.4Zm-9,0a3.59,3.59,0,1,0,3.58-3.76A3.55,3.55,0,0,0,252.73,230.4Z"/><path class="a" d="M271.51,225.29l-.44,1.77a4.16,4.16,0,0,0-1.8-.4c-1.59,0-2.72,1.22-2.72,3.14v5.82h-1.79V225.17h1.77v1.38a3.67,3.67,0,0,1,3.06-1.6A4.77,4.77,0,0,1,271.51,225.29Z"/><path class="a" d="M283.8,230.4a5.53,5.53,0,1,1-5.53-5.45A5.36,5.36,0,0,1,283.8,230.4Zm-9.22,0a3.69,3.69,0,1,0,3.69-3.76A3.62,3.62,0,0,0,274.58,230.4Z"/><path class="a" d="M294.94,226.58v-6.8h1.8v15.84h-1.8v-1.4a4.64,4.64,0,0,1-3.69,1.62,5.45,5.45,0,0,1,0-10.89A4.61,4.61,0,0,1,294.94,226.58Zm-7.08,3.82a3.6,3.6,0,1,0,3.6-3.76A3.58,3.58,0,0,0,287.86,230.4Z"/><path class="a" d="M310,231.24c0,3.16-2.26,4.6-4.76,4.6s-4.78-1.44-4.78-4.6v-6.07h1.81v5.91a3,3,0,1,0,5.93,0v-5.91H310Z"/><path class="a" d="M322.18,226.6,321,227.82a3.83,3.83,0,0,0-2.78-1.18,3.77,3.77,0,0,0,0,7.52,4.08,4.08,0,0,0,2.82-1.2l1.11,1.24a5.06,5.06,0,0,1-3.88,1.64,5.45,5.45,0,0,1,0-10.89A5,5,0,0,1,322.18,226.6Z"/><path class="a" d="M332.18,226.81h-4.39v5.09c0,1.58.84,2.26,2,2.26a4,4,0,0,0,2.14-.7l.84,1.35a5.28,5.28,0,0,1-3.13,1c-2.27,0-3.62-1.24-3.62-3.9v-5.13h-2.24v-1.64H326v-3.28h1.8v3.28h4.39Z"/><path class="a" d="M337.23,228.3h-1.09v-7.51l-2.57,1.1v-1.13l3.66-1.55Z"/><path class="a" d="M83.8,356.09H81.72l-1.7-4.2H72.55l-1.68,4.2h-2l6.26-15.4h2.41Zm-10.51-6h6l-3-7.45Z"/><path class="a" d="M98.6,350.05c0,4.2-2.83,6.26-6.39,6.26s-6.39-2.06-6.39-6.26v-9.36h1.94v9.22c0,3.16,1.88,4.54,4.45,4.54s4.45-1.38,4.45-4.54v-9.22H98.6Z"/><path class="a" d="M119,356.09h-1.94V342.83l-5.16,11.6h-2l-5.16-11.51v13.17h-1.94V340.68h3l5.16,11.49,5.16-11.49h3Z"/><path class="a" d="M135.64,347.28h-4v8.81h-1.8v-8.81H127.5v-1.64h2.32v-1.78c0-2.19,1-3.83,3.48-3.83a5.46,5.46,0,0,1,2.87.78l-.65,1.51a4.28,4.28,0,0,0-2.1-.61c-1.25,0-1.8.79-1.8,2.15v1.78h4Z"/><path class="a" d="M148.12,350.87a5.53,5.53,0,1,1-5.53-5.45A5.36,5.36,0,0,1,148.12,350.87Zm-9.21,0a3.69,3.69,0,1,0,3.68-3.76A3.61,3.61,0,0,0,138.91,350.87Z"/><path class="a" d="M157.88,345.76l-.44,1.77a4.12,4.12,0,0,0-1.79-.4c-1.6,0-2.72,1.22-2.72,3.14v5.82h-1.79V345.64h1.77V347a3.65,3.65,0,0,1,3.06-1.6A4.72,4.72,0,0,1,157.88,345.76Z"/><path class="a" d="M169.23,350.83c0,.23,0,.48,0,.67H161a3.41,3.41,0,0,0,3.56,3.24,4.9,4.9,0,0,0,3.22-1.24l1,1.23a5.94,5.94,0,0,1-4.29,1.58,5.45,5.45,0,0,1-.11-10.89C167.17,345.42,169.21,347.63,169.23,350.83Zm-8.23-.78h6.4a3.11,3.11,0,0,0-3.12-3A3.25,3.25,0,0,0,161,350.05Z"/><path class="a" d="M180.76,347.07l-1.15,1.22a3.85,3.85,0,0,0-2.78-1.18,3.77,3.77,0,0,0,0,7.52,4.1,4.1,0,0,0,2.82-1.2l1.11,1.24a5.08,5.08,0,0,1-3.88,1.64,5.45,5.45,0,0,1,0-10.89A5,5,0,0,1,180.76,347.07Z"/><path class="a" d="M193.26,356.09h-1.81v-1.4a4.6,4.6,0,0,1-3.68,1.62,5.45,5.45,0,0,1,0-10.89,4.58,4.58,0,0,1,3.68,1.63v-1.41h1.81Zm-8.88-5.22a3.59,3.59,0,1,0,3.6-3.76A3.58,3.58,0,0,0,184.38,350.87Z"/><path class="a" d="M204.1,348a6.51,6.51,0,0,0-3.36-1c-1.43,0-2.36.61-2.36,1.55s.76,1.23,2,1.38l1.21.15c2.22.3,3.53,1.24,3.53,3,0,2-1.78,3.28-4.63,3.28a7.48,7.48,0,0,1-4.4-1.34l.83-1.34a5.49,5.49,0,0,0,3.58,1.11c1.71,0,2.77-.56,2.77-1.6,0-.77-.68-1.25-2.1-1.43l-1.21-.14c-2.35-.29-3.48-1.34-3.48-2.93,0-2,1.66-3.21,4.2-3.21a7.58,7.58,0,0,1,4.17,1.13Z"/><path class="a" d="M215.09,347.28H210.7v5.09c0,1.58.84,2.26,2,2.26a3.91,3.91,0,0,0,2.14-.71l.84,1.36a5.28,5.28,0,0,1-3.13,1c-2.27,0-3.62-1.24-3.62-3.9v-5.13h-2.24v-1.64h2.24v-3.28h1.8v3.28h4.39Z"/><path class="a" d="M227.27,350.83c0,.23,0,.48,0,.67H219a3.41,3.41,0,0,0,3.55,3.24,4.9,4.9,0,0,0,3.22-1.24l1,1.23a5.94,5.94,0,0,1-4.29,1.58,5.45,5.45,0,0,1-.11-10.89C225.2,345.42,227.25,347.63,227.27,350.83Zm-8.23-.78h6.39a3.11,3.11,0,0,0-3.11-3A3.24,3.24,0,0,0,219,350.05Z"/><path class="a" d="M238.4,347.05v-6.8h1.8v15.84h-1.8v-1.4a4.62,4.62,0,0,1-3.69,1.62,5.45,5.45,0,0,1,0-10.89A4.6,4.6,0,0,1,238.4,347.05Zm-7.07,3.82a3.59,3.59,0,1,0,3.59-3.76A3.58,3.58,0,0,0,231.33,350.87Z"/><path class="a" d="M256.83,347.28h-4.39v5.09c0,1.58.83,2.26,2,2.26a3.91,3.91,0,0,0,2.14-.71l.85,1.36a5.31,5.31,0,0,1-3.14,1c-2.27,0-3.62-1.24-3.62-3.9v-5.13H248.4v-1.64h2.23v-3.28h1.81v3.28h4.39Z"/><path class="a" d="M270,350.87a5.53,5.53,0,1,1-5.54-5.45A5.36,5.36,0,0,1,270,350.87Zm-9.22,0a3.69,3.69,0,1,0,3.68-3.76A3.61,3.61,0,0,0,260.73,350.87Z"/><path class="a" d="M285.59,345.76l-.44,1.77a4.15,4.15,0,0,0-1.79-.4c-1.6,0-2.72,1.22-2.72,3.14v5.82h-1.79V345.64h1.77V347a3.64,3.64,0,0,1,3.05-1.6A4.74,4.74,0,0,1,285.59,345.76Z"/><path class="a" d="M296.94,350.83c0,.23,0,.48,0,.67h-8.22a3.41,3.41,0,0,0,3.55,3.24,4.92,4.92,0,0,0,3.23-1.24l.95,1.23a5.93,5.93,0,0,1-4.29,1.58,5.45,5.45,0,0,1-.11-10.89C294.87,345.42,296.92,347.63,296.94,350.83Zm-8.23-.78h6.39a3.1,3.1,0,0,0-3.11-3A3.25,3.25,0,0,0,288.71,350.05Z"/><path class="a" d="M309.88,356.09h-1.81v-1.4a4.6,4.6,0,0,1-3.68,1.62,5.45,5.45,0,0,1,0-10.89,4.58,4.58,0,0,1,3.68,1.63v-1.41h1.81ZM301,350.87a3.59,3.59,0,1,0,3.6-3.76A3.58,3.58,0,0,0,301,350.87Z"/><path class="a" d="M322.2,347.07,321,348.29a3.82,3.82,0,0,0-2.77-1.18,3.77,3.77,0,0,0,0,7.52,4.1,4.1,0,0,0,2.82-1.2l1.11,1.24a5.1,5.1,0,0,1-3.89,1.64,5.45,5.45,0,0,1,0-10.89A5.06,5.06,0,0,1,322.2,347.07Z"/><path class="a" d="M326.75,347a4.11,4.11,0,0,1,3.41-1.57,4.06,4.06,0,0,1,4.36,4.18v6.49h-1.81v-5.91c0-1.92-1-3.05-2.87-3.05a3,3,0,0,0-3.09,3.1v5.86H325V340.25h1.79Z"/><path class="b" d="M116.78,429.25c0,9.4-6,14.19-14.65,14.19s-14.65-4.79-14.65-14.19V408.82h6.8v20.09c0,5.59,3.16,8,7.85,8s7.85-2.45,7.85-8V408.82h6.8Z"/><path class="b" d="M147.2,417.4a18.3,18.3,0,0,0-9.65-2.89c-3.81,0-6.51,1.5-6.51,4.08s2.94,3.25,7,3.93l1.92.32c6.08,1,10.84,3.59,10.84,9.52,0,7.51-6.61,11.08-13.92,11.08-5.15,0-10.69-1.51-14.33-4.45l3.52-5.46a17.93,17.93,0,0,0,10.83,3.67c3.77,0,6.68-1.49,6.68-4.11,0-2.36-2.48-3.23-7.21-4l-2.16-.34c-6-.95-10.38-3.6-10.38-9.74,0-7.1,6.32-10.79,13.56-10.79a23.9,23.9,0,0,1,13,3.62Z"/><path class="b" d="M173.29,404.84v4.49a22.78,22.78,0,0,1,10.13,3.43l-3,5.2a19.24,19.24,0,0,0-7.1-2.65v7.75c6,.92,10.57,3.55,10.45,9.08-.15,6-4.74,9.26-10.42,10.08V447h-5.4v-4.68c-4.3-.37-8.62-1.75-11.58-4.08l3.33-5.15a18.07,18.07,0,0,0,8.23,3.3V428.6l-.27-.05c-5.95-.95-10.25-3.52-10.13-9.31.1-5.49,4.42-9,10.4-9.86v-4.54Zm-5.39,17.29v-6.7c-2.26.53-3.67,1.75-3.72,3.5S165.52,421.53,167.9,422.13Zm5.39,7.39v6.73c2.24-.54,3.72-1.73,3.77-3.55C177.08,431.1,175.75,430.15,173.29,429.52Z"/><path class="b" d="M212.05,442.83H201.81V403.34l-12.69,5.15V398.18l22.93-9.25Z"/><path class="b" d="M236.11,436.39a7.36,7.36,0,1,1-7.31-7.32A7.51,7.51,0,0,1,236.11,436.39Z"/><path class="b" d="M288.15,416.3c0,17.17-10.23,27.48-22.89,27.48S242.4,433.47,242.4,416.3s10.16-27.48,22.86-27.48S288.15,399.13,288.15,416.3Zm-35.1,0c0,11.6,5.42,17.66,12.21,17.66s12.2-6.06,12.2-17.66-5.38-17.66-12.2-17.66S253.05,404.7,253.05,416.3Z"/><path class="b" d="M320.65,415.16H310.11v27.67h-6.78V415.16H292.79v-6.34h27.86Z"/><path class="a" d="M87.41,489.78h-1.8v-1.4A4.64,4.64,0,0,1,81.92,490a5.45,5.45,0,0,1,0-10.89,4.61,4.61,0,0,1,3.69,1.63v-1.41h1.8Zm-8.88-5.23a3.6,3.6,0,1,0,3.6-3.75A3.59,3.59,0,0,0,78.53,484.55Z"/><path class="a" d="M98.26,481.65a6.52,6.52,0,0,0-3.37-1c-1.43,0-2.35.61-2.35,1.55s.76,1.22,2,1.38l1.21.15c2.22.3,3.53,1.23,3.53,3,0,2-1.78,3.28-4.63,3.28a7.5,7.5,0,0,1-4.4-1.34l.84-1.34a5.46,5.46,0,0,0,3.57,1.11c1.72,0,2.77-.56,2.77-1.6,0-.77-.68-1.25-2.1-1.43l-1.21-.14c-2.34-.29-3.47-1.34-3.47-2.93,0-2,1.66-3.21,4.2-3.21A7.58,7.58,0,0,1,99,480.25Z"/><path class="a" d="M110.2,475.65a1.25,1.25,0,0,1-1.28,1.26,1.24,1.24,0,0,1-1.27-1.26,1.26,1.26,0,0,1,1.27-1.28A1.27,1.27,0,0,1,110.2,475.65Zm-.37,14.13H108V479.33h1.79Z"/><path class="a" d="M123.19,483.29v6.49h-1.8v-5.91c0-1.92-1.06-3.06-2.87-3.06a3,3,0,0,0-3.09,3.11v5.86h-1.8V479.33h1.79v1.36a4.12,4.12,0,0,1,3.42-1.58A4.05,4.05,0,0,1,123.19,483.29Z"/><path class="a" d="M131.59,489.79h-2.12l-4.4-10.46h2l3.51,8.63,3.52-8.63H136Z"/><path class="a" d="M147.36,484.52c0,.23,0,.47,0,.67h-8.22a3.41,3.41,0,0,0,3.55,3.24,4.93,4.93,0,0,0,3.23-1.25l1,1.24a5.93,5.93,0,0,1-4.29,1.58,5.45,5.45,0,0,1-.11-10.89C145.29,479.11,147.34,481.32,147.36,484.52Zm-8.23-.78h6.39a3.12,3.12,0,0,0-3.11-3A3.25,3.25,0,0,0,139.13,483.74Z"/><path class="a" d="M157.42,481.65a6.58,6.58,0,0,0-3.37-1c-1.43,0-2.36.61-2.36,1.55s.76,1.22,2,1.38l1.21.15c2.22.3,3.53,1.23,3.53,3,0,2-1.78,3.28-4.63,3.28a7.48,7.48,0,0,1-4.4-1.34l.83-1.34a5.49,5.49,0,0,0,3.58,1.11c1.72,0,2.77-.56,2.77-1.6,0-.77-.68-1.25-2.1-1.43l-1.21-.14c-2.34-.29-3.48-1.34-3.48-2.93,0-2,1.67-3.21,4.21-3.21a7.61,7.61,0,0,1,4.17,1.13Z"/><path class="a" d="M168.4,481H164v5.09c0,1.57.84,2.26,2,2.26a3.91,3.91,0,0,0,2.14-.71L169,489a5.25,5.25,0,0,1-3.13,1c-2.27,0-3.62-1.24-3.62-3.91V481H160v-1.64h2.23v-3.28H164v3.28h4.39Z"/><path class="a" d="M181.53,484.55a5.53,5.53,0,1,1-5.54-5.44A5.37,5.37,0,0,1,181.53,484.55Zm-9.22,0A3.69,3.69,0,1,0,176,480.8,3.62,3.62,0,0,0,172.31,484.55Z"/><path class="a" d="M191.28,479.45l-.44,1.77a4.13,4.13,0,0,0-1.79-.41c-1.59,0-2.72,1.23-2.72,3.15v5.82h-1.79V479.33h1.77v1.37a3.69,3.69,0,0,1,3.06-1.59A4.69,4.69,0,0,1,191.28,479.45Z"/><path class="a" d="M200.61,481.65a6.52,6.52,0,0,0-3.37-1c-1.43,0-2.35.61-2.35,1.55s.76,1.22,2,1.38l1.21.15c2.23.3,3.54,1.23,3.54,3,0,2-1.79,3.28-4.64,3.28a7.53,7.53,0,0,1-4.4-1.34l.84-1.34a5.49,5.49,0,0,0,3.58,1.11c1.71,0,2.77-.56,2.77-1.6,0-.77-.68-1.25-2.1-1.43l-1.21-.14c-2.35-.29-3.48-1.34-3.48-2.93,0-2,1.66-3.21,4.2-3.21a7.58,7.58,0,0,1,4.17,1.13Z"/><path class="a" d="M218.9,480.76,217.75,482A3.82,3.82,0,0,0,215,480.8a3.77,3.77,0,0,0,0,7.52,4.05,4.05,0,0,0,2.81-1.2l1.11,1.24A5.06,5.06,0,0,1,215,490a5.45,5.45,0,0,1,0-10.89A5,5,0,0,1,218.9,480.76Z"/><path class="a" d="M231.74,484.55a5.53,5.53,0,1,1-5.53-5.44A5.36,5.36,0,0,1,231.74,484.55Zm-9.22,0a3.69,3.69,0,1,0,3.69-3.75A3.63,3.63,0,0,0,222.52,484.55Z"/><path class="a" d="M244.31,483.29v6.49h-1.8v-5.91c0-1.92-1.06-3.06-2.87-3.06a3,3,0,0,0-3.09,3.11v5.86h-1.8V479.33h1.79v1.36a4.12,4.12,0,0,1,3.42-1.58A4.05,4.05,0,0,1,244.31,483.29Z"/><path class="a" d="M255,481h-4.39v5.09c0,1.57.84,2.26,2,2.26a3.91,3.91,0,0,0,2.14-.71l.84,1.36a5.28,5.28,0,0,1-3.13,1c-2.27,0-3.62-1.24-3.62-3.91V481h-2.24v-1.64h2.24v-3.28h1.8v3.28H255Z"/><path class="a" d="M260,475.65a1.26,1.26,0,0,1-1.29,1.26,1.24,1.24,0,0,1-1.26-1.26,1.25,1.25,0,0,1,1.26-1.28A1.27,1.27,0,0,1,260,475.65Zm-.37,14.13h-1.8V479.33h1.8Z"/><path class="a" d="M273,483.29v6.49h-1.8v-5.91c0-1.92-1.06-3.06-2.87-3.06a3,3,0,0,0-3.1,3.11v5.86h-1.79V479.33h1.78v1.36a4.14,4.14,0,0,1,3.42-1.58A4.05,4.05,0,0,1,273,483.29Z"/><path class="a" d="M286.12,485.4c0,3.16-2.26,4.6-4.76,4.6s-4.77-1.44-4.77-4.6v-6.07h1.8v5.91a3,3,0,1,0,5.93,0v-5.91h1.8Z"/><path class="a" d="M299.14,484.52c0,.23,0,.47,0,.67h-8.21a3.41,3.41,0,0,0,3.55,3.24,4.91,4.91,0,0,0,3.22-1.25l1,1.24a5.94,5.94,0,0,1-4.29,1.58,5.45,5.45,0,0,1-.11-10.89C297.07,479.11,299.12,481.32,299.14,484.52Zm-8.23-.78h6.39a3.12,3.12,0,0,0-3.11-3A3.25,3.25,0,0,0,290.91,483.74Z"/><path class="a" d="M315,481h-4.39v5.09c0,1.57.83,2.26,2,2.26a3.85,3.85,0,0,0,2.13-.71l.85,1.36a5.31,5.31,0,0,1-3.14,1c-2.27,0-3.62-1.24-3.62-3.91V481h-2.23v-1.64h2.23v-3.28h1.81v3.28H315Z"/><path class="a" d="M328.09,484.55a5.53,5.53,0,1,1-5.54-5.44A5.37,5.37,0,0,1,328.09,484.55Zm-9.22,0a3.69,3.69,0,1,0,3.68-3.75A3.62,3.62,0,0,0,318.87,484.55Z"/><path class="a" d="M103.93,507.65a6.51,6.51,0,0,0-3.36-1c-1.43,0-2.36.61-2.36,1.55s.76,1.22,2,1.38l1.21.15c2.22.3,3.53,1.23,3.53,3,0,2-1.78,3.28-4.63,3.28a7.48,7.48,0,0,1-4.4-1.34l.83-1.34a5.49,5.49,0,0,0,3.58,1.11c1.71,0,2.77-.56,2.77-1.6,0-.77-.68-1.25-2.1-1.43l-1.21-.14c-2.34-.29-3.48-1.34-3.48-2.93,0-2,1.66-3.21,4.21-3.21a7.61,7.61,0,0,1,4.17,1.13Z"/><path class="a" d="M117.15,510.52c0,.23,0,.47,0,.67h-8.22a3.41,3.41,0,0,0,3.56,3.24,4.91,4.91,0,0,0,3.22-1.25l1,1.24a5.94,5.94,0,0,1-4.29,1.58,5.45,5.45,0,0,1-.11-10.89C115.08,505.11,117.12,507.32,117.15,510.52Zm-8.23-.78h6.39a3.12,3.12,0,0,0-3.12-3A3.25,3.25,0,0,0,108.92,509.74Z"/><path class="a" d="M129.48,510.52c0,.23,0,.47,0,.67h-8.22a3.41,3.41,0,0,0,3.56,3.24,4.91,4.91,0,0,0,3.22-1.25l1,1.24a5.94,5.94,0,0,1-4.29,1.58,5.45,5.45,0,0,1-.11-10.89C127.41,505.11,129.45,507.32,129.48,510.52Zm-8.23-.78h6.39a3.12,3.12,0,0,0-3.11-3A3.25,3.25,0,0,0,121.25,509.74Z"/><path class="a" d="M134.28,509.51h1.43l3.89-4.18h2.26l-4.66,4.93,4.73,5.52h-2.28l-4-4.64h-1.42v4.64h-1.79V499.94h1.79Z"/><path class="a" d="M150.72,520.24h-2l3.87-6.69-4.77-8.22h2l3.76,6.42,3.57-6.42h2Z"/><path class="a" d="M163.38,501.65a1.26,1.26,0,0,1-1.29,1.26,1.24,1.24,0,0,1-1.27-1.26,1.26,1.26,0,0,1,1.27-1.28A1.28,1.28,0,0,1,163.38,501.65ZM163,515.78h-1.79V505.33H163Z"/><path class="a" d="M176.13,510.52c0,.23,0,.47,0,.67h-8.21a3.41,3.41,0,0,0,3.55,3.24,4.91,4.91,0,0,0,3.22-1.25l1,1.24a5.94,5.94,0,0,1-4.29,1.58,5.45,5.45,0,0,1-.11-10.89C174.06,505.11,176.1,507.32,176.13,510.52Zm-8.23-.78h6.39a3.12,3.12,0,0,0-3.11-3A3.25,3.25,0,0,0,167.9,509.74Z"/><path class="a" d="M180.93,515.78h-1.79V499.94h1.79Z"/><path class="a" d="M192.86,506.74v-6.8h1.8v15.84h-1.8v-1.4a4.64,4.64,0,0,1-3.69,1.62,5.45,5.45,0,0,1,0-10.89A4.61,4.61,0,0,1,192.86,506.74Zm-7.08,3.81a3.6,3.6,0,1,0,3.6-3.75A3.59,3.59,0,0,0,185.78,510.55Z"/><path class="a" d="M214.61,510.55a5.53,5.53,0,1,1-5.53-5.44A5.36,5.36,0,0,1,214.61,510.55Zm-9.22,0a3.69,3.69,0,1,0,3.69-3.75A3.63,3.63,0,0,0,205.39,510.55Z"/><path class="a" d="M227.05,511.4c0,3.16-2.26,4.6-4.76,4.6s-4.77-1.44-4.77-4.6v-6.07h1.8v5.91a3,3,0,1,0,5.93,0v-5.91h1.8Z"/><path class="a" d="M237.85,507h-4.39v5.09c0,1.57.83,2.26,2,2.26a3.85,3.85,0,0,0,2.13-.71l.85,1.36a5.31,5.31,0,0,1-3.14,1c-2.27,0-3.62-1.24-3.62-3.91V507h-2.23v-1.64h2.23v-3.28h1.81v3.28h4.39Z"/><path class="a" d="M247.77,507.65a6.52,6.52,0,0,0-3.37-1c-1.43,0-2.35.61-2.35,1.55s.76,1.22,2,1.38l1.21.15c2.22.3,3.53,1.23,3.53,3,0,2-1.78,3.28-4.63,3.28a7.5,7.5,0,0,1-4.4-1.34l.84-1.34a5.46,5.46,0,0,0,3.57,1.11c1.72,0,2.77-.56,2.77-1.6,0-.77-.68-1.25-2.1-1.43l-1.21-.14c-2.34-.29-3.47-1.34-3.47-2.93,0-2,1.66-3.21,4.2-3.21a7.58,7.58,0,0,1,4.17,1.13Z"/><path class="a" d="M253.83,501.65a1.28,1.28,0,1,1-1.29-1.28A1.27,1.27,0,0,1,253.83,501.65Zm-.38,14.13h-1.79V505.33h1.79Z"/><path class="a" d="M265.38,506.74v-6.8h1.8v15.84h-1.8v-1.4a4.64,4.64,0,0,1-3.69,1.62,5.45,5.45,0,0,1,0-10.89A4.61,4.61,0,0,1,265.38,506.74Zm-7.08,3.81a3.6,3.6,0,1,0,3.6-3.75A3.59,3.59,0,0,0,258.3,510.55Z"/><path class="a" d="M280.31,510.52c0,.23,0,.47,0,.67h-8.22a3.41,3.41,0,0,0,3.56,3.24,4.91,4.91,0,0,0,3.22-1.25l1,1.24A5.94,5.94,0,0,1,275.5,516a5.45,5.45,0,0,1-.11-10.89C278.24,505.11,280.28,507.32,280.31,510.52Zm-8.23-.78h6.39a3.12,3.12,0,0,0-3.12-3A3.25,3.25,0,0,0,272.08,509.74Z"/><path class="a" d="M299.47,510.55a5.53,5.53,0,1,1-5.54-5.44A5.37,5.37,0,0,1,299.47,510.55Zm-9.22,0a3.69,3.69,0,1,0,3.68-3.75A3.62,3.62,0,0,0,290.25,510.55Z"/><path class="a" d="M309.18,507h-4v8.81h-1.8V507H301v-1.64h2.32v-1.78c0-2.19,1-3.83,3.48-3.83a5.46,5.46,0,0,1,2.87.78l-.65,1.51a4.28,4.28,0,0,0-2.1-.61c-1.25,0-1.8.79-1.8,2.15v1.78h4Z"/><path class="a" d="M67,533H62.64v5.09c0,1.57.84,2.26,2,2.26a3.91,3.91,0,0,0,2.14-.71l.84,1.36a5.25,5.25,0,0,1-3.13,1c-2.27,0-3.62-1.24-3.62-3.91V533H58.61v-1.64h2.23v-3.28h1.8v3.28H67Z"/><path class="a" d="M76.66,531.45l-.44,1.77a4.17,4.17,0,0,0-1.8-.41c-1.59,0-2.71,1.23-2.71,3.15v5.82h-1.8V531.33h1.77v1.37a3.69,3.69,0,0,1,3.06-1.59A4.74,4.74,0,0,1,76.66,531.45Z"/><path class="a" d="M88.61,541.78h-1.8v-1.4A4.62,4.62,0,0,1,83.12,542a5.45,5.45,0,0,1,0-10.89,4.6,4.6,0,0,1,3.69,1.63v-1.41h1.8Zm-8.87-5.23a3.59,3.59,0,1,0,3.59-3.75A3.59,3.59,0,0,0,79.74,536.55Z"/><path class="a" d="M100.54,532.74v-6.8h1.8v15.84h-1.8v-1.4A4.64,4.64,0,0,1,96.85,542a5.45,5.45,0,0,1,0-10.89A4.61,4.61,0,0,1,100.54,532.74Zm-7.08,3.81a3.6,3.6,0,1,0,3.6-3.75A3.59,3.59,0,0,0,93.46,536.55Z"/><path class="a" d="M108.31,527.65a1.25,1.25,0,0,1-1.28,1.26,1.24,1.24,0,0,1-1.27-1.26,1.26,1.26,0,0,1,1.27-1.28A1.27,1.27,0,0,1,108.31,527.65Zm-.37,14.13h-1.79V531.33h1.79Z"/><path class="a" d="M118.84,533h-4.39v5.09c0,1.57.84,2.26,2,2.26a3.91,3.91,0,0,0,2.14-.71l.84,1.36a5.28,5.28,0,0,1-3.13,1c-2.27,0-3.62-1.24-3.62-3.91V533h-2.24v-1.64h2.24v-3.28h1.8v3.28h4.39Z"/><path class="a" d="M123.89,527.65a1.26,1.26,0,0,1-1.29,1.26,1.24,1.24,0,0,1-1.26-1.26,1.25,1.25,0,0,1,1.26-1.28A1.27,1.27,0,0,1,123.89,527.65Zm-.37,14.13h-1.8V531.33h1.8Z"/><path class="a" d="M137.59,536.55a5.53,5.53,0,1,1-5.54-5.44A5.37,5.37,0,0,1,137.59,536.55Zm-9.22,0a3.69,3.69,0,1,0,3.68-3.75A3.62,3.62,0,0,0,128.37,536.55Z"/><path class="a" d="M150.16,535.29v6.49h-1.81v-5.91c0-1.92-1-3.06-2.87-3.06a3,3,0,0,0-3.09,3.11v5.86H140.6V531.33h1.78v1.36a4.14,4.14,0,0,1,3.42-1.58A4.05,4.05,0,0,1,150.16,535.29Z"/><path class="a" d="M163.78,541.78H162v-1.4a4.6,4.6,0,0,1-3.68,1.62,5.45,5.45,0,0,1,0-10.89,4.58,4.58,0,0,1,3.68,1.63v-1.41h1.81Zm-8.88-5.23a3.59,3.59,0,1,0,7.18,0,3.59,3.59,0,1,0-7.18,0Z"/><path class="a" d="M169.37,541.78h-1.79V525.94h1.79Z"/><path class="a" d="M187.58,532.76,186.42,534a3.82,3.82,0,0,0-2.77-1.18,3.77,3.77,0,0,0,0,7.52,4.1,4.1,0,0,0,2.82-1.2l1.11,1.24A5.08,5.08,0,0,1,183.7,542a5.45,5.45,0,0,1,0-10.89A5,5,0,0,1,187.58,532.76Z"/><path class="a" d="M197.08,531.45l-.44,1.77a4.13,4.13,0,0,0-1.79-.41c-1.6,0-2.72,1.23-2.72,3.15v5.82h-1.79V531.33h1.77v1.37a3.69,3.69,0,0,1,3.06-1.59A4.69,4.69,0,0,1,197.08,531.45Z"/><path class="a" d="M208.44,536.52c0,.23,0,.47,0,.67h-8.22a3.41,3.41,0,0,0,3.56,3.24,4.91,4.91,0,0,0,3.22-1.25l1,1.24a5.94,5.94,0,0,1-4.29,1.58,5.45,5.45,0,0,1-.11-10.89C206.37,531.11,208.41,533.32,208.44,536.52Zm-8.23-.78h6.39a3.12,3.12,0,0,0-3.12-3A3.25,3.25,0,0,0,200.21,535.74Z"/><path class="a" d="M219.57,532.74v-6.8h1.8v15.84h-1.8v-1.4a4.64,4.64,0,0,1-3.69,1.62,5.45,5.45,0,0,1,0-10.89A4.61,4.61,0,0,1,219.57,532.74Zm-7.08,3.81a3.6,3.6,0,1,0,3.6-3.75A3.59,3.59,0,0,0,212.49,536.55Z"/><path class="a" d="M227.34,527.65a1.25,1.25,0,0,1-1.28,1.26,1.24,1.24,0,0,1-1.27-1.26,1.26,1.26,0,0,1,1.27-1.28A1.27,1.27,0,0,1,227.34,527.65ZM227,541.78h-1.79V531.33H227Z"/><path class="a" d="M237.87,533h-4.39v5.09c0,1.57.84,2.26,2,2.26a3.85,3.85,0,0,0,2.13-.71l.85,1.36a5.28,5.28,0,0,1-3.13,1c-2.27,0-3.62-1.24-3.62-3.91V533h-2.24v-1.64h2.24v-3.28h1.8v3.28h4.39Z"/><path class="a" d="M257.34,536.55a5.23,5.23,0,0,1-5.23,5.45,4.57,4.57,0,0,1-3.68-1.62v5.8h-1.79V531.33h1.79v1.4a4.57,4.57,0,0,1,3.68-1.62A5.22,5.22,0,0,1,257.34,536.55Zm-9,0a3.59,3.59,0,1,0,3.59-3.75A3.56,3.56,0,0,0,248.32,536.55Z"/><path class="a" d="M267.1,531.45l-.44,1.77a4.17,4.17,0,0,0-1.8-.41c-1.59,0-2.71,1.23-2.71,3.15v5.82h-1.8V531.33h1.77v1.37a3.69,3.69,0,0,1,3.06-1.59A4.74,4.74,0,0,1,267.1,531.45Z"/><path class="a" d="M279.4,536.55a5.53,5.53,0,1,1-5.54-5.44A5.37,5.37,0,0,1,279.4,536.55Zm-9.22,0a3.69,3.69,0,1,0,3.68-3.75A3.62,3.62,0,0,0,270.18,536.55Z"/><path class="a" d="M290.53,532.74v-6.8h1.8v15.84h-1.8v-1.4a4.64,4.64,0,0,1-3.69,1.62,5.45,5.45,0,0,1,0-10.89A4.61,4.61,0,0,1,290.53,532.74Zm-7.08,3.81a3.6,3.6,0,1,0,3.6-3.75A3.59,3.59,0,0,0,283.45,536.55Z"/><path class="a" d="M305.56,537.4c0,3.16-2.26,4.6-4.76,4.6s-4.77-1.44-4.77-4.6v-6.07h1.8v5.91a3,3,0,1,0,5.93,0v-5.91h1.8Z"/><path class="a" d="M317.77,532.76,316.62,534a3.82,3.82,0,0,0-2.77-1.18,3.77,3.77,0,0,0,0,7.52,4.05,4.05,0,0,0,2.81-1.2l1.11,1.24a5.06,5.06,0,0,1-3.88,1.64,5.45,5.45,0,0,1,0-10.89A5,5,0,0,1,317.77,532.76Z"/><path class="a" d="M327.77,533h-4.39v5.09c0,1.57.84,2.26,2,2.26a3.91,3.91,0,0,0,2.14-.71l.84,1.36a5.28,5.28,0,0,1-3.13,1c-2.27,0-3.62-1.24-3.62-3.91V533h-2.24v-1.64h2.24v-3.28h1.8v3.28h4.39Z"/><path class="a" d="M337.69,533.65a6.51,6.51,0,0,0-3.36-1c-1.43,0-2.36.61-2.36,1.55s.76,1.22,2,1.38l1.21.15c2.22.3,3.53,1.23,3.53,3,0,2-1.78,3.28-4.63,3.28a7.48,7.48,0,0,1-4.4-1.34l.83-1.34a5.49,5.49,0,0,0,3.58,1.11c1.71,0,2.77-.56,2.77-1.6,0-.77-.68-1.25-2.1-1.43l-1.21-.14c-2.34-.29-3.48-1.34-3.48-2.93,0-2,1.66-3.21,4.2-3.21a7.56,7.56,0,0,1,4.17,1.13Z"/><path class="a" d="M340.22,526.85a3.18,3.18,0,0,1,2.77-1.5,2.69,2.69,0,0,1,2.9,2.81,3.66,3.66,0,0,1-1.21,2.53l-2.57,2.73h4.06v1H340.5v-.85l3.35-3.54a2.75,2.75,0,0,0,.9-1.91,1.67,1.67,0,0,0-1.79-1.76,2.28,2.28,0,0,0-2,1.09Z"/><path class="b" d="M71.19,685.12H77.7v8.41H71.19v8.54h-9v-8.54H41.46V687l16.39-31.6h10L52.24,685.12h9.94V672.67h9Z"/><path class="b" d="M95.4,665.51H88.58v6.89c0,2.35,1.24,3.21,2.82,3.21a7.42,7.42,0,0,0,3.54-1.23l1.86,4a10.5,10.5,0,0,1-6.24,2c-4.67,0-7.06-2.64-7.06-7.53v-7.29H79.86V661H83.5v-5.61h5.08V661H95.4Z"/><path class="b" d="M105,663a6.32,6.32,0,0,1,5.41-2.53,7,7,0,0,1,7.33,7.35v12h-5.07V669.48c0-2.73-1.36-4.22-3.68-4.22s-4,1.42-4,4.26v10.33H99.87v-28H105Z"/><path class="b" d="M150,702.07h-8.71V654H150Z"/><path class="b" d="M191,702.07h-8.51V698.5a11.87,11.87,0,0,1-9.68,4.4c-8.91,0-15.65-7.31-15.65-17s6.74-17,15.65-17a11.85,11.85,0,0,1,9.68,4.44v-3.57H191ZM166,685.88c0,4.94,3.24,8.91,8.35,8.91s8.34-3.8,8.34-8.91-3.37-8.91-8.34-8.91S166,680.94,166,685.88Z"/><path class="b" d="M222.2,669.57l-1.3,8.64a14.07,14.07,0,0,0-5.28-1c-4,0-6.8,2.47-6.8,7.28v17.62h-8.71V669.73h8.44v3.54c2-3,5.14-4.41,9.11-4.41A13.06,13.06,0,0,1,222.2,669.57Z"/><path class="b" d="M249.92,673.34v-3.61h8.55V699.4c0,10.38-6.78,16.65-17.46,16.65-5.1,0-10.51-1.33-14.15-3.9L230,705a19.17,19.17,0,0,0,10.68,3.3c5.4,0,9.21-3,9.21-8.57V697.5a12.22,12.22,0,0,1-10,4.37c-7.87,0-14.88-6.58-14.88-16.49s7-16.52,14.88-16.52A12.24,12.24,0,0,1,249.92,673.34Zm-15.95,12c0,4.67,3.17,8.48,8.15,8.48,4.83,0,8.1-3.67,8.1-8.48s-3.27-8.51-8.1-8.51C237.14,676.87,234,680.68,234,685.38Z"/><path class="b" d="M297.67,685.85a25.09,25.09,0,0,1-.17,2.94H274.58c.93,4.67,4.2,6.7,8.31,6.7a13,13,0,0,0,8.17-3.1l5.11,5.61c-3.67,3.37-8.35,4.9-13.79,4.9-9.91,0-16.78-6.74-16.78-16.92s6.67-17.12,16.35-17.12C291.26,668.86,297.64,675.77,297.67,685.85Zm-23.06-3h14.32c-.81-4.14-3.31-6.48-7.05-6.48C277.78,676.37,275.38,678.84,274.61,682.85Z"/><path class="b" d="M327.73,678.74a26,26,0,0,0-10.31-2.63c-3.31,0-5,1.16-5,2.93s2.34,2.34,5.28,2.77l2.87.44c7,1.06,10.91,4.2,10.91,9.67,0,6.68-5.47,11-14.85,11-4.41,0-10.18-.83-14.38-3.8l3.43-6.61a18.9,18.9,0,0,0,11,3.17c4,0,6-1.13,6-3,0-1.56-1.64-2.43-5.37-3l-2.64-.36c-7.47-1-11.18-4.31-11.18-9.81,0-6.65,5.14-10.58,13.65-10.58A29,29,0,0,1,330.66,672Z"/><path class="b" d="M361.59,677.47H349.88v11.82c0,4,2.13,5.5,4.84,5.5a12.6,12.6,0,0,0,6.07-2.1L364,699.5a18.11,18.11,0,0,1-10.72,3.4c-8,0-12.11-4.54-12.11-12.91V677.47h-6.24v-7.74h6.24v-9.61h8.71v9.61h11.71Z"/><path class="a" d="M66.19,740,65,741.22A3.83,3.83,0,0,0,62.26,740a3.76,3.76,0,0,0,0,7.51,4,4,0,0,0,2.82-1.2l1.11,1.25a5.1,5.1,0,0,1-3.88,1.64,5.45,5.45,0,0,1,0-10.9A5,5,0,0,1,66.19,740Z"/><path class="a" d="M78.69,749H76.88v-1.4a4.6,4.6,0,0,1-3.68,1.62,5.45,5.45,0,0,1,0-10.9A4.58,4.58,0,0,1,76.88,740v-1.4h1.81Zm-8.88-5.23a3.59,3.59,0,1,0,3.6-3.75A3.58,3.58,0,0,0,69.81,743.79Z"/><path class="a" d="M89.59,740.2H85.2v5.1c0,1.57.84,2.25,2,2.25a3.84,3.84,0,0,0,2.13-.7l.85,1.35a5.22,5.22,0,0,1-3.14,1c-2.26,0-3.61-1.25-3.61-3.91V740.2H81.16v-1.63H83.4v-3.28h1.8v3.28h4.39Z"/><path class="a" d="M101.77,743.76c0,.23,0,.47,0,.67H93.52a3.4,3.4,0,0,0,3.55,3.23,4.9,4.9,0,0,0,3.22-1.24l1,1.23A6,6,0,0,1,97,749.24a5.45,5.45,0,0,1-.11-10.9C99.7,738.34,101.74,740.56,101.77,743.76ZM93.54,743h6.39a3.12,3.12,0,0,0-3.11-3A3.24,3.24,0,0,0,93.54,743Z"/><path class="a" d="M112.75,740v-1.41h1.81v9.72c0,3.38-2.26,5.3-5.56,5.3a7.29,7.29,0,0,1-4.38-1.35l.79-1.45A6.2,6.2,0,0,0,109,752c2.25,0,3.75-1.26,3.75-3.58v-.93a4.37,4.37,0,0,1-3.59,1.63,5.37,5.37,0,0,1,0-10.73A4.37,4.37,0,0,1,112.75,740Zm-6.93,3.72a3.55,3.55,0,1,0,3.55-3.66A3.5,3.5,0,0,0,105.82,743.7Z"/><path class="a" d="M128.63,743.79a5.53,5.53,0,1,1-5.54-5.45A5.37,5.37,0,0,1,128.63,743.79Zm-9.22,0a3.69,3.69,0,1,0,3.68-3.75A3.61,3.61,0,0,0,119.41,743.79Z"/><path class="a" d="M138.38,738.69l-.44,1.77a4,4,0,0,0-1.79-.41c-1.59,0-2.72,1.22-2.72,3.15V749h-1.79V738.57h1.77v1.37a3.7,3.7,0,0,1,3.06-1.6A4.53,4.53,0,0,1,138.38,738.69Z"/><path class="a" d="M142.62,753.47h-2l3.86-6.69-4.77-8.21h2L145.5,745l3.58-6.42h2Z"/><path class="a" d="M169.8,747.14l3-8.57h1.88L170.89,749h-2.15l-3-8.51-3,8.51h-2.11l-3.76-10.45h1.92l3,8.54,3-8.54h2Z"/><path class="a" d="M179.19,734.89a1.24,1.24,0,0,1-1.28,1.25,1.23,1.23,0,0,1-1.27-1.25,1.26,1.26,0,0,1,1.27-1.29A1.27,1.27,0,0,1,179.19,734.89ZM178.82,749H177V738.57h1.79Z"/><path class="a" d="M189.72,740.2h-4.39v5.1c0,1.57.84,2.25,2,2.25a3.84,3.84,0,0,0,2.13-.7l.85,1.35a5.21,5.21,0,0,1-3.13,1c-2.27,0-3.62-1.25-3.62-3.91V740.2h-2.24v-1.63h2.24v-3.28h1.8v3.28h4.39Z"/><path class="a" d="M194.39,739.92a4.4,4.4,0,0,1,7.77,2.61V749h-1.8v-5.91c0-1.93-1.06-3.06-2.87-3.06a3,3,0,0,0-3.1,3.1V749H192.6V733.17h1.79Z"/><path class="a" d="M208,734.89a1.24,1.24,0,0,1-1.28,1.25,1.23,1.23,0,0,1-1.27-1.25,1.26,1.26,0,0,1,1.27-1.29A1.27,1.27,0,0,1,208,734.89ZM207.65,749h-1.79V738.57h1.79Z"/><path class="a" d="M221,742.53V749h-1.81v-5.91c0-1.93-1.06-3.06-2.87-3.06a3,3,0,0,0-3.09,3.1V749h-1.8V738.57h1.79v1.36a4.4,4.4,0,0,1,7.78,2.6Z"/><path class="a" d="M232.39,739.92a4.39,4.39,0,0,1,7.76,2.61V749h-1.8v-5.91c0-1.93-1.06-3.06-2.87-3.06a3,3,0,0,0-3.09,3.1V749h-1.8V733.17h1.8Z"/><path class="a" d="M253.17,743.76c0,.23,0,.47,0,.67h-8.21a3.4,3.4,0,0,0,3.55,3.23,4.9,4.9,0,0,0,3.22-1.24l1,1.23a6,6,0,0,1-4.29,1.59,5.45,5.45,0,0,1-.11-10.9C251.1,738.34,253.15,740.56,253.17,743.76Zm-8.23-.78h6.39a3.12,3.12,0,0,0-3.11-3A3.24,3.24,0,0,0,244.94,743Z"/><path class="a" d="M264.3,740v-6.8h1.8V749h-1.8v-1.4a4.64,4.64,0,0,1-3.69,1.62,5.46,5.46,0,0,1,0-10.9A4.61,4.61,0,0,1,264.3,740Zm-7.08,3.82a3.6,3.6,0,1,0,3.6-3.75A3.59,3.59,0,0,0,257.22,743.79Z"/><path class="a" d="M277.88,740v-1.41h1.81v9.72c0,3.38-2.26,5.3-5.56,5.3a7.27,7.27,0,0,1-4.38-1.35l.78-1.45a6.26,6.26,0,0,0,3.6,1.16c2.25,0,3.75-1.26,3.75-3.58v-.93a4.37,4.37,0,0,1-3.59,1.63,5.37,5.37,0,0,1,0-10.73A4.37,4.37,0,0,1,277.88,740ZM271,743.7A3.55,3.55,0,1,0,274.5,740,3.5,3.5,0,0,0,271,743.7Z"/><path class="a" d="M292.81,743.76c0,.23,0,.47,0,.67h-8.22a3.4,3.4,0,0,0,3.55,3.23,4.92,4.92,0,0,0,3.23-1.24l1,1.23a5.94,5.94,0,0,1-4.29,1.59,5.45,5.45,0,0,1-.11-10.9C290.74,738.34,292.79,740.56,292.81,743.76Zm-8.23-.78H291a3.12,3.12,0,0,0-3.11-3A3.25,3.25,0,0,0,284.58,743Z"/><path class="a" d="M308.35,740.2h-4V749h-1.81V740.2h-2.32v-1.63h2.32v-1.79c0-2.19,1-3.83,3.48-3.83a5.35,5.35,0,0,1,2.87.79l-.65,1.5a4.27,4.27,0,0,0-2.1-.6c-1.24,0-1.79.79-1.79,2.14v1.79h4Z"/><path class="a" d="M320.23,744.64c0,3.16-2.26,4.6-4.76,4.6s-4.78-1.44-4.78-4.6v-6.07h1.81v5.9a3,3,0,1,0,5.93,0v-5.9h1.8Z"/><path class="a" d="M333.49,742.53V749h-1.81v-5.91c0-1.93-1.05-3.06-2.87-3.06a3,3,0,0,0-3.09,3.1V749h-1.79V738.57h1.78v1.36a4.12,4.12,0,0,1,3.42-1.59A4.06,4.06,0,0,1,333.49,742.53Z"/><path class="a" d="M345.3,740v-6.8h1.81V749H345.3v-1.4a4.6,4.6,0,0,1-3.68,1.62,5.45,5.45,0,0,1,0-10.9A4.58,4.58,0,0,1,345.3,740Zm-7.07,3.82a3.59,3.59,0,1,0,3.6-3.75A3.58,3.58,0,0,0,338.23,743.79Z"/><path class="a" d="M141,775h-1.81v-1.4a4.6,4.6,0,0,1-3.68,1.62,5.45,5.45,0,0,1,0-10.9,4.58,4.58,0,0,1,3.68,1.63v-1.4H141Zm-8.88-5.23a3.59,3.59,0,1,0,3.6-3.75A3.58,3.58,0,0,0,132.07,769.79Z"/><path class="a" d="M146.55,775h-1.8V759.17h1.8Z"/><path class="a" d="M152.14,775h-1.79V759.17h1.79Z"/><path class="a" d="M166.21,769.79a5.53,5.53,0,1,1-5.53-5.45A5.36,5.36,0,0,1,166.21,769.79Zm-9.22,0a3.69,3.69,0,1,0,3.69-3.75A3.62,3.62,0,0,0,157,769.79Z"/><path class="a" d="M177.74,766l-1.15,1.22a3.83,3.83,0,0,0-2.78-1.18,3.76,3.76,0,0,0,0,7.51,4,4,0,0,0,2.82-1.2l1.11,1.25a5.1,5.1,0,0,1-3.88,1.64,5.45,5.45,0,0,1,0-10.9A5,5,0,0,1,177.74,766Z"/><path class="a" d="M190.24,775h-1.81v-1.4a4.6,4.6,0,0,1-3.68,1.62,5.45,5.45,0,0,1,0-10.9,4.58,4.58,0,0,1,3.68,1.63v-1.4h1.81Zm-8.88-5.23A3.59,3.59,0,1,0,185,766,3.58,3.58,0,0,0,181.36,769.79Z"/><path class="a" d="M201.14,766.2h-4.39v5.1c0,1.57.83,2.25,2,2.25a3.84,3.84,0,0,0,2.13-.7l.85,1.35a5.22,5.22,0,0,1-3.14,1c-2.26,0-3.62-1.25-3.62-3.91V766.2h-2.23v-1.63h2.23v-3.28h1.81v3.28h4.39Z"/><path class="a" d="M206.19,760.89a1.25,1.25,0,0,1-1.29,1.25,1.23,1.23,0,0,1-1.27-1.25,1.26,1.26,0,0,1,1.27-1.29A1.28,1.28,0,0,1,206.19,760.89ZM205.81,775H204V764.57h1.79Z"/><path class="a" d="M219.88,769.79a5.53,5.53,0,1,1-5.53-5.45A5.36,5.36,0,0,1,219.88,769.79Zm-9.22,0a3.69,3.69,0,1,0,3.69-3.75A3.62,3.62,0,0,0,210.66,769.79Z"/><path class="a" d="M232.46,768.53V775h-1.81v-5.91c0-1.93-1.06-3.06-2.87-3.06a3,3,0,0,0-3.09,3.1V775h-1.8V764.57h1.79v1.36a4.4,4.4,0,0,1,7.78,2.6Z"/><path class="a" d="M243.19,766.89a6.52,6.52,0,0,0-3.37-1c-1.43,0-2.35.6-2.35,1.55s.76,1.22,2,1.37l1.21.16c2.23.3,3.53,1.23,3.53,3,0,2-1.78,3.28-4.63,3.28a7.47,7.47,0,0,1-4.4-1.35l.84-1.34a5.42,5.42,0,0,0,3.57,1.11c1.72,0,2.78-.56,2.78-1.59,0-.77-.69-1.26-2.1-1.43l-1.21-.14c-2.35-.29-3.48-1.35-3.48-2.93,0-2,1.66-3.21,4.2-3.21a7.58,7.58,0,0,1,4.17,1.13Z"/><path class="a" d="M263.67,769.79a5.22,5.22,0,0,1-5.22,5.45,4.61,4.61,0,0,1-3.69-1.62V775H253V759.17h1.79V766a4.61,4.61,0,0,1,3.69-1.62A5.22,5.22,0,0,1,263.67,769.79Zm-9,0a3.59,3.59,0,1,0,3.59-3.75A3.55,3.55,0,0,0,254.65,769.79Z"/><path class="a" d="M267.56,779.47h-2l3.87-6.69-4.77-8.21h2l3.77,6.42,3.57-6.42h2Z"/><path class="a" d="M60.33,792.2h-4V801h-1.8V792.2H52.19v-1.63h2.32v-1.79c0-2.19,1-3.83,3.48-3.83a5.37,5.37,0,0,1,2.87.79l-.65,1.5a4.27,4.27,0,0,0-2.1-.6c-1.25,0-1.8.79-1.8,2.14v1.79h4Z"/><path class="a" d="M65.14,786.89a1.25,1.25,0,0,1-1.29,1.25,1.23,1.23,0,0,1-1.27-1.25,1.26,1.26,0,0,1,1.27-1.29A1.28,1.28,0,0,1,65.14,786.89ZM64.76,801H63V790.57h1.79Z"/><path class="a" d="M78.13,794.53V801H76.32v-5.91c0-1.93-1-3.06-2.87-3.06a3,3,0,0,0-3.09,3.1V801H68.57V790.57h1.78v1.36a4.12,4.12,0,0,1,3.42-1.59A4.07,4.07,0,0,1,78.13,794.53Z"/><path class="a" d="M91.75,801H89.94v-1.4a4.62,4.62,0,0,1-3.68,1.62,5.45,5.45,0,0,1,0-10.9A4.59,4.59,0,0,1,89.94,792v-1.4h1.81Zm-8.88-5.23A3.59,3.59,0,1,0,86.46,792,3.58,3.58,0,0,0,82.87,795.79Z"/><path class="a" d="M105.11,794.53V801h-1.8v-5.91c0-1.93-1.06-3.06-2.88-3.06a3,3,0,0,0-3.09,3.1V801H95.55V790.57h1.78v1.36a4.12,4.12,0,0,1,3.42-1.59A4.06,4.06,0,0,1,105.11,794.53Z"/><path class="a" d="M117.32,792l-1.16,1.22a3.82,3.82,0,0,0-2.77-1.18,3.76,3.76,0,0,0,0,7.51,4.05,4.05,0,0,0,2.82-1.2l1.11,1.25a5.11,5.11,0,0,1-3.88,1.64,5.45,5.45,0,0,1,0-10.9A5,5,0,0,1,117.32,792Z"/><path class="a" d="M122.25,786.89a1.25,1.25,0,0,1-1.29,1.25,1.23,1.23,0,0,1-1.27-1.25A1.26,1.26,0,0,1,121,785.6,1.28,1.28,0,0,1,122.25,786.89ZM121.87,801h-1.79V790.57h1.79Z"/><path class="a" d="M135.6,801h-1.8v-1.4a4.64,4.64,0,0,1-3.69,1.62,5.46,5.46,0,0,1,0-10.9A4.61,4.61,0,0,1,133.8,792v-1.4h1.8Zm-8.88-5.23a3.6,3.6,0,1,0,3.6-3.75A3.59,3.59,0,0,0,126.72,795.79Z"/><path class="a" d="M141.2,801h-1.79V785.17h1.79Z"/><path class="a" d="M160.81,801H159v-1.4a4.64,4.64,0,0,1-3.69,1.62,5.46,5.46,0,0,1,0-10.9A4.61,4.61,0,0,1,159,792v-1.4h1.8Zm-8.88-5.23a3.6,3.6,0,1,0,3.6-3.75A3.59,3.59,0,0,0,151.93,795.79Z"/><path class="a" d="M172.74,792v-6.8h1.8V801h-1.8v-1.4a4.64,4.64,0,0,1-3.69,1.62,5.46,5.46,0,0,1,0-10.9A4.61,4.61,0,0,1,172.74,792Zm-7.08,3.82a3.6,3.6,0,1,0,3.6-3.75A3.58,3.58,0,0,0,165.66,795.79Z"/><path class="a" d="M183.26,801h-2.11l-4.4-10.46h2l3.51,8.63,3.52-8.63h1.9Z"/><path class="a" d="M192,786.89a1.25,1.25,0,0,1-1.29,1.25,1.23,1.23,0,0,1-1.26-1.25,1.26,1.26,0,0,1,1.26-1.29A1.27,1.27,0,0,1,192,786.89ZM191.66,801h-1.8V790.57h1.8Z"/><path class="a" d="M202.5,792.89a6.51,6.51,0,0,0-3.36-1c-1.43,0-2.36.6-2.36,1.55s.76,1.22,2,1.37L200,795c2.22.3,3.53,1.23,3.53,3,0,2-1.79,3.28-4.63,3.28a7.48,7.48,0,0,1-4.41-1.35l.84-1.34a5.43,5.43,0,0,0,3.58,1.11c1.71,0,2.77-.56,2.77-1.59,0-.77-.68-1.26-2.1-1.43l-1.21-.14c-2.35-.29-3.48-1.35-3.48-2.93,0-2,1.66-3.21,4.2-3.21a7.58,7.58,0,0,1,4.17,1.13Z"/><path class="a" d="M216.66,795.79a5.53,5.53,0,1,1-5.54-5.45A5.37,5.37,0,0,1,216.66,795.79Zm-9.22,0a3.69,3.69,0,1,0,3.68-3.75A3.61,3.61,0,0,0,207.44,795.79Z"/><path class="a" d="M226.42,790.69l-.44,1.77a4,4,0,0,0-1.8-.41c-1.59,0-2.72,1.22-2.72,3.15V801h-1.79V790.57h1.77v1.37a3.7,3.7,0,0,1,3.06-1.6A4.6,4.6,0,0,1,226.42,790.69Z"/><path class="a" d="M235.74,792.89a6.51,6.51,0,0,0-3.36-1c-1.43,0-2.36.6-2.36,1.55s.76,1.22,2,1.37l1.21.16c2.22.3,3.53,1.23,3.53,3,0,2-1.78,3.28-4.63,3.28a7.43,7.43,0,0,1-4.4-1.35l.83-1.34a5.43,5.43,0,0,0,3.58,1.11c1.71,0,2.77-.56,2.77-1.59,0-.77-.68-1.26-2.1-1.43l-1.21-.14c-2.34-.29-3.48-1.35-3.48-2.93,0-2,1.66-3.21,4.2-3.21a7.58,7.58,0,0,1,4.17,1.13Z"/><path class="a" d="M247.69,786.89a1.25,1.25,0,0,1-1.29,1.25,1.23,1.23,0,0,1-1.26-1.25,1.26,1.26,0,0,1,1.26-1.29A1.27,1.27,0,0,1,247.69,786.89ZM247.31,801h-1.79V790.57h1.79Z"/><path class="a" d="M260.68,794.53V801h-1.8v-5.91c0-1.93-1.06-3.06-2.88-3.06a3,3,0,0,0-3.09,3.1V801h-1.79V790.57h1.78v1.36a4.12,4.12,0,0,1,3.42-1.59A4.06,4.06,0,0,1,260.68,794.53Z"/><path class="a" d="M284,788.57l-1.62,1.09a5.58,5.58,0,0,0-4.69-2.42,6.08,6.08,0,0,0,0,12.15,5.5,5.5,0,0,0,4.68-2.41l1.58,1.15a7.42,7.42,0,0,1-6.26,3.12,7.94,7.94,0,1,1,0-15.87A7.28,7.28,0,0,1,284,788.57Z"/><path class="a" d="M296.83,801H295v-1.4a4.62,4.62,0,0,1-3.68,1.62,5.45,5.45,0,0,1,0-10.9A4.59,4.59,0,0,1,295,792v-1.4h1.81ZM288,795.79a3.59,3.59,0,1,0,3.59-3.75A3.58,3.58,0,0,0,288,795.79Z"/><path class="a" d="M310.19,794.53V801h-1.8v-5.91c0-1.93-1.06-3.06-2.88-3.06a3,3,0,0,0-3.09,3.1V801h-1.79V790.57h1.78v1.36a4.12,4.12,0,0,1,3.42-1.59A4.06,4.06,0,0,1,310.19,794.53Z"/><path class="a" d="M323.81,801H322v-1.4a4.6,4.6,0,0,1-3.68,1.62,5.45,5.45,0,0,1,0-10.9A4.58,4.58,0,0,1,322,792v-1.4h1.81Zm-8.88-5.23a3.59,3.59,0,1,0,3.6-3.75A3.58,3.58,0,0,0,314.93,795.79Z"/><path class="a" d="M335.73,792v-6.8h1.81V801h-1.81v-1.4a4.6,4.6,0,0,1-3.68,1.62,5.45,5.45,0,0,1,0-10.9A4.58,4.58,0,0,1,335.73,792Zm-7.07,3.82a3.59,3.59,0,1,0,3.59-3.75A3.58,3.58,0,0,0,328.66,795.79Z"/><path class="a" d="M351.26,801h-1.8v-1.4a4.64,4.64,0,0,1-3.69,1.62,5.46,5.46,0,0,1,0-10.9,4.61,4.61,0,0,1,3.69,1.63v-1.4h1.8Zm-8.87-5.23A3.59,3.59,0,1,0,346,792,3.58,3.58,0,0,0,342.39,795.79Z"/><line class="c" x1="376.66" y1="287.97" x2="31.23" y2="287.97"/><line class="c" x1="379.45" y1="598.13" x2="34.02" y2="598.13"/></svg>