<?xml version="1.0" encoding="utf-8"?>
<!-- Generator: Adobe Illustrator 25.3.0, SVG Export Plug-In . SVG Version: 6.00 Build 0)  -->
<svg version="1.1" id="Layer_2" xmlns="http://www.w3.org/2000/svg" xmlns:xlink="http://www.w3.org/1999/xlink" x="0px" y="0px"
	 viewBox="0 0 640 660" style="enable-background:new 0 0 640 660;" xml:space="preserve">
<style type="text/css">
	.st0{fill:none;stroke:#203434;stroke-width:3;stroke-miterlimit:10;}
	.st1{fill:none;stroke:#0075C9;stroke-width:3;stroke-miterlimit:10;}
	.st2{fill:#0075C9;}
	.st3{fill:#FFFFFF;}
	.st4{fill:#6E7B7B;}
	.st5{fill:#203434;}
</style>
<g>
	<line class="st0" x1="171.6" y1="353.7" x2="171.6" y2="525.8"/>
	<line class="st0" x1="466.6" y1="353.7" x2="466.6" y2="525.8"/>
	<polyline class="st1" points="171.1,272.9 171,205.7 466.1,205.7 466.1,272 	"/>
	<rect x="184.9" y="80" class="st2" width="270.1" height="73.7"/>
	<g>
		<path class="st3" d="M214.3,118.6v4.6h-2.5v-12.6h5.1c3,0,4.6,1.6,4.6,4c0,2.4-1.6,4-4.6,4H214.3z M214.3,113v3.4h2.6
			c1.4,0,2.1-0.6,2.1-1.7c0-1.1-0.7-1.7-2.1-1.7H214.3z"/>
		<path class="st3" d="M232,118.9c0,2.6-2,4.6-4.7,4.6c-2.7,0-4.7-2-4.7-4.6c0-2.6,2-4.6,4.7-4.6C230,114.3,232,116.3,232,118.9z
			 M225,118.9c0,1.4,1,2.4,2.3,2.4c1.3,0,2.3-1,2.3-2.4c0-1.4-1-2.4-2.3-2.4C226,116.5,225,117.5,225,118.9z"/>
		<path class="st3" d="M239.9,114.5l-0.3,2.3c-0.4-0.2-0.9-0.3-1.4-0.3c-1.1,0-1.8,0.7-1.8,2v4.7h-2.3v-8.7h2.3v1
			c0.5-0.8,1.4-1.2,2.4-1.2C239.2,114.3,239.6,114.4,239.9,114.5z"/>
		<path class="st3" d="M248,116.6h-3.1v3.2c0,1.1,0.6,1.5,1.3,1.5c0.6,0,1.2-0.3,1.6-0.6l0.9,1.8c-0.8,0.5-1.6,0.9-2.9,0.9
			c-2.2,0-3.3-1.2-3.3-3.5v-3.4h-1.7v-2.1h1.7V112h2.3v2.6h3.1V116.6z"/>
		<path class="st3" d="M258,118.9c0,0.3,0,0.6,0,0.8h-6.2c0.3,1.3,1.1,1.8,2.2,1.8c0.8,0,1.6-0.3,2.2-0.8l1.4,1.5
			c-1,0.9-2.2,1.3-3.7,1.3c-2.7,0-4.5-1.8-4.5-4.5c0-2.7,1.8-4.6,4.4-4.6C256.3,114.3,258,116.2,258,118.9z M251.8,118.1h3.8
			c-0.2-1.1-0.9-1.7-1.9-1.7C252.7,116.3,252,117,251.8,118.1z"/>
		<path class="st3" d="M265.6,116.6h-2.7v6.6h-2.3v-6.6H259v-2.1h1.6v-1.1c0-2,1.1-3.4,3.1-3.4c1.2,0,2,0.3,2.7,0.8l-0.9,1.8
			c-0.4-0.2-0.9-0.4-1.5-0.4c-0.7,0-1,0.4-1,1.2v1h2.7V116.6z"/>
		<path class="st3" d="M275.2,118.9c0,0.3,0,0.6,0,0.8H269c0.3,1.3,1.1,1.8,2.2,1.8c0.8,0,1.6-0.3,2.2-0.8l1.4,1.5
			c-1,0.9-2.2,1.3-3.7,1.3c-2.7,0-4.5-1.8-4.5-4.5c0-2.7,1.8-4.6,4.4-4.6C273.5,114.3,275.2,116.2,275.2,118.9z M269,118.1h3.8
			c-0.2-1.1-0.9-1.7-1.9-1.7C269.8,116.3,269.2,117,269,118.1z"/>
		<path class="st3" d="M285.3,119.5c0,2.7-1.9,3.9-4.1,3.9c-2.2,0-4.1-1.2-4.1-3.9v-5h2.3v4.8c0,1.4,0.8,2,1.8,2c1,0,1.8-0.6,1.8-2
			v-4.8h2.3V119.5z"/>
		<path class="st3" d="M290.3,111.7c0,0.8-0.7,1.5-1.5,1.5s-1.5-0.6-1.5-1.5c0-0.8,0.6-1.5,1.5-1.5S290.3,110.9,290.3,111.7z
			 M290,123.2h-2.3v-8.7h2.3V123.2z"/>
		<path class="st3" d="M294.8,123.2h-2.3v-12.9h2.3V123.2z"/>
		<path class="st3" d="M299.6,123.2h-2.3v-12.9h2.3V123.2z"/>
		<path class="st3" d="M310.1,118.9c0,0.3,0,0.6,0,0.8h-6.2c0.3,1.3,1.1,1.8,2.2,1.8c0.8,0,1.6-0.3,2.2-0.8l1.4,1.5
			c-1,0.9-2.2,1.3-3.7,1.3c-2.7,0-4.5-1.8-4.5-4.5c0-2.7,1.8-4.6,4.4-4.6C308.4,114.3,310.1,116.2,310.1,118.9z M303.9,118.1h3.8
			c-0.2-1.1-0.9-1.7-1.9-1.7C304.8,116.3,304.1,117,303.9,118.1z"/>
		<path class="st3" d="M326,123.2h-9.4v-12.6h9.3v2.3h-6.8v2.8h6.5v2.3h-6.5v2.9h6.9V123.2z M319.7,109.6l1.8-2.8h2.8l-2.4,2.8
			H319.7z"/>
		<path class="st3" d="M330.8,123.2h-2.3v-12.9h2.3V123.2z"/>
		<path class="st3" d="M341.3,118.9c0,0.3,0,0.6,0,0.8h-6.2c0.3,1.3,1.1,1.8,2.2,1.8c0.8,0,1.6-0.3,2.2-0.8l1.4,1.5
			c-1,0.9-2.2,1.3-3.7,1.3c-2.7,0-4.5-1.8-4.5-4.5c0-2.7,1.8-4.6,4.4-4.6C339.6,114.3,341.3,116.2,341.3,118.9z M335.1,118.1h3.8
			c-0.2-1.1-0.9-1.7-1.9-1.7C335.9,116.3,335.3,117,335.1,118.1z M335.5,113.3l1.8-2.8h2.8l-2.4,2.8H335.5z"/>
		<path class="st3" d="M357.3,117.7v5.5H355v-4.8c0-1.3-0.6-1.9-1.7-1.9c-1,0-1.8,0.7-1.8,2v4.8h-2.3v-4.8c0-1.3-0.6-1.9-1.7-1.9
			c-1,0-1.8,0.7-1.8,2v4.8h-2.3v-8.7h2.3v1c0.6-0.9,1.6-1.3,2.6-1.3c1.3,0,2.3,0.6,2.9,1.5c0.7-1.1,1.8-1.5,3-1.5
			C355.9,114.3,357.3,115.7,357.3,117.7z"/>
		<path class="st3" d="M367.8,118.9c0,0.3,0,0.6,0,0.8h-6.2c0.3,1.3,1.1,1.8,2.2,1.8c0.8,0,1.6-0.3,2.2-0.8l1.4,1.5
			c-1,0.9-2.2,1.3-3.7,1.3c-2.7,0-4.5-1.8-4.5-4.5c0-2.7,1.8-4.6,4.4-4.6C366,114.3,367.7,116.2,367.8,118.9z M361.6,118.1h3.8
			c-0.2-1.1-0.9-1.7-1.9-1.7C362.4,116.3,361.8,117,361.6,118.1z"/>
		<path class="st3" d="M377.9,117.7v5.5h-2.3v-4.8c0-1.3-0.6-1.9-1.7-1.9c-1,0-1.8,0.7-1.8,2v4.8h-2.3v-8.7h2.3v1
			c0.6-0.9,1.6-1.3,2.6-1.3C376.5,114.3,377.9,115.7,377.9,117.7z"/>
		<path class="st3" d="M386.5,116.6h-3.1v3.2c0,1.1,0.6,1.5,1.3,1.5c0.6,0,1.2-0.3,1.6-0.6l0.9,1.8c-0.8,0.5-1.6,0.9-2.9,0.9
			c-2.2,0-3.3-1.2-3.3-3.5v-3.4h-1.7v-2.1h1.7V112h2.3v2.6h3.1V116.6z"/>
		<path class="st3" d="M404.5,123.2h-2.7l-1.1-2.9h-5.4l-1.1,2.9h-2.6l4.9-12.6h3L404.5,123.2z M396.3,118h3.6l-1.8-4.9L396.3,118z"
			/>
		<path class="st3" d="M416.4,112.4l-1.8,1.8c-0.7-0.8-1.7-1.3-3-1.3c-2.3,0-4,1.7-4,4.1c0,2.6,1.7,4.2,3.9,4.2c2,0,3.2-1,3.6-2.8
			h-3.2v-2.1h5.8c0,0.2,0,0.5,0,0.7c0,3.8-2.6,6.5-6.1,6.5c-3.5,0-6.6-2.4-6.6-6.5c0-3.8,2.8-6.5,6.6-6.5
			C413.6,110.5,415.3,111.2,416.4,112.4z"/>
		<path class="st3" d="M428.7,118.2h-6.3v5.1h-2.5v-12.6h9.2v2.3h-6.7v2.9h6.3V118.2z"/>
	</g>
	<g>
		<rect x="372.6" y="411.3" class="st4" width="187.5" height="58.9"/>
		<g>
			<g>
				<path class="st3" d="M407.3,442.7h-4.2v3.4h-1.7v-8.4h6.2v1.5h-4.5v1.9h4.2V442.7z"/>
				<path class="st3" d="M414.7,443.2c0,1.8-1.3,3.1-3.2,3.1c-1.8,0-3.2-1.3-3.2-3.1c0-1.8,1.3-3.1,3.2-3.1
					C413.4,440.1,414.7,441.4,414.7,443.2z M410,443.2c0,0.9,0.7,1.6,1.5,1.6c0.9,0,1.6-0.7,1.6-1.6c0-0.9-0.7-1.6-1.6-1.6
					C410.7,441.6,410,442.3,410,443.2z"/>
				<path class="st3" d="M421.5,442.4v3.7H420v-3.2c0-0.8-0.4-1.3-1.1-1.3c-0.7,0-1.2,0.4-1.2,1.3v3.2H416v-5.8h1.5v0.7
					c0.4-0.6,1.1-0.8,1.7-0.8C420.6,440.1,421.5,441,421.5,442.4z"/>
				<path class="st3" d="M427.3,440.9v-3.4h1.6v8.7h-1.5v-0.6c-0.4,0.5-0.9,0.8-1.7,0.8c-1.6,0-2.8-1.3-2.8-3.1
					c0-1.8,1.2-3.1,2.8-3.1C426.4,440.1,427,440.4,427.3,440.9z M424.4,443.2c0,0.9,0.6,1.6,1.5,1.6c0.9,0,1.5-0.7,1.5-1.6
					c0-0.9-0.6-1.6-1.5-1.6C425,441.6,424.4,442.3,424.4,443.2z"/>
				<path class="st3" d="M434.7,441.9c-0.5-0.2-1.2-0.5-1.9-0.5c-0.6,0-0.9,0.2-0.9,0.5c0,0.3,0.4,0.4,1,0.5l0.5,0.1
					c1.3,0.2,2,0.8,2,1.7c0,1.2-1,2-2.7,2c-0.8,0-1.8-0.2-2.6-0.7l0.6-1.2c0.5,0.3,1.1,0.6,2,0.6c0.7,0,1.1-0.2,1.1-0.5
					c0-0.3-0.3-0.4-1-0.5l-0.5-0.1c-1.3-0.2-2-0.8-2-1.8c0-1.2,0.9-1.9,2.5-1.9c0.9,0,1.7,0.2,2.4,0.6L434.7,441.9z"/>
				<path class="st3" d="M447.4,446.1h-1.8l-0.7-2h-3.6l-0.7,2h-1.8l3.3-8.4h2L447.4,446.1z M441.9,442.6h2.4l-1.2-3.3L441.9,442.6z
					"/>
				<path class="st3" d="M455.4,438.8l-1.2,1.2c-0.5-0.5-1.2-0.9-2-0.9c-1.5,0-2.7,1.1-2.7,2.8c0,1.7,1.2,2.8,2.6,2.8
					c1.4,0,2.2-0.7,2.4-1.9h-2.1v-1.4h3.9c0,0.2,0,0.3,0,0.5c0,2.6-1.7,4.4-4.1,4.4c-2.3,0-4.4-1.6-4.4-4.4c0-2.5,1.9-4.4,4.5-4.4
					C453.5,437.5,454.6,438,455.4,438.8z"/>
				<path class="st3" d="M463.7,442.7h-4.2v3.4h-1.7v-8.4h6.2v1.5h-4.5v1.9h4.2V442.7z"/>
				<path class="st3" d="M472.5,441.9c-0.5-0.2-1.2-0.5-1.9-0.5c-0.6,0-0.9,0.2-0.9,0.5c0,0.3,0.4,0.4,1,0.5l0.5,0.1
					c1.3,0.2,2,0.8,2,1.7c0,1.2-1,2-2.7,2c-0.8,0-1.8-0.2-2.6-0.7l0.6-1.2c0.5,0.3,1.1,0.6,2,0.6c0.7,0,1.1-0.2,1.1-0.5
					c0-0.3-0.3-0.4-1-0.5l-0.5-0.1c-1.3-0.2-2-0.8-2-1.8c0-1.2,0.9-1.9,2.5-1.9c0.9,0,1.7,0.2,2.4,0.6L472.5,441.9z"/>
				<path class="st3" d="M480.4,443.2c0,1.8-1.3,3.1-3.2,3.1c-1.8,0-3.2-1.3-3.2-3.1c0-1.8,1.3-3.1,3.2-3.1
					C479,440.1,480.4,441.4,480.4,443.2z M475.7,443.2c0,0.9,0.7,1.6,1.5,1.6c0.9,0,1.6-0.7,1.6-1.6c0-0.9-0.7-1.6-1.6-1.6
					C476.3,441.6,475.7,442.3,475.7,443.2z"/>
				<path class="st3" d="M487.2,443.6c0,1.8-1.3,2.6-2.8,2.6c-1.5,0-2.8-0.8-2.8-2.6v-3.4h1.6v3.2c0,0.9,0.5,1.3,1.2,1.3
					c0.7,0,1.2-0.4,1.2-1.3v-3.2h1.6V443.6z"/>
				<path class="st3" d="M492.9,441.9c-0.5-0.2-1.2-0.5-1.9-0.5c-0.6,0-0.9,0.2-0.9,0.5c0,0.3,0.4,0.4,1,0.5l0.5,0.1
					c1.3,0.2,2,0.8,2,1.7c0,1.2-1,2-2.7,2c-0.8,0-1.8-0.2-2.6-0.7l0.6-1.2c0.5,0.3,1.1,0.6,2,0.6c0.7,0,1.1-0.2,1.1-0.5
					c0-0.3-0.3-0.4-1-0.5l-0.5-0.1c-1.3-0.2-2-0.8-2-1.8c0-1.2,0.9-1.9,2.5-1.9c0.9,0,1.7,0.2,2.4,0.6L492.9,441.9z"/>
				<path class="st3" d="M498.3,443.6h-3.6v-1.4h3.6V443.6z"/>
				<path class="st3" d="M501.4,446.7c0,1.3-0.7,2-1.8,2c-0.3,0-0.7-0.1-0.9-0.2l0.2-1.4c0.1,0,0.3,0.1,0.4,0.1
					c0.3,0,0.5-0.2,0.5-0.6v-6.3h1.6V446.7z M501.6,438.4c0,0.6-0.4,1-1,1s-1-0.4-1-1c0-0.6,0.4-1,1-1S501.6,437.8,501.6,438.4z"/>
				<path class="st3" d="M508.8,446.1h-1.5v-0.6c-0.4,0.5-0.9,0.8-1.7,0.8c-1.6,0-2.8-1.3-2.8-3.1c0-1.8,1.2-3.1,2.8-3.1
					c0.8,0,1.4,0.3,1.7,0.8v-0.6h1.5V446.1z M504.3,443.2c0,0.9,0.6,1.6,1.5,1.6c0.9,0,1.5-0.7,1.5-1.6c0-0.9-0.6-1.6-1.5-1.6
					C504.8,441.6,504.3,442.3,504.3,443.2z"/>
				<path class="st3" d="M515.5,441.2l-1.1,0.9c-0.4-0.4-0.7-0.6-1.2-0.6c-0.8,0-1.5,0.6-1.5,1.6c0,1,0.6,1.6,1.5,1.6
					c0.5,0,0.9-0.2,1.3-0.6l1.1,1c-0.5,0.7-1.4,1.1-2.3,1.1c-1.9,0-3.1-1.3-3.1-3.1c0-1.8,1.2-3.1,3.1-3.1
					C514.1,440.1,515,440.5,515.5,441.2z"/>
				<path class="st3" d="M521.9,443.2c0,0.2,0,0.4,0,0.5h-4.1c0.2,0.8,0.8,1.2,1.5,1.2c0.5,0,1.1-0.2,1.5-0.6l0.9,1
					c-0.7,0.6-1.5,0.9-2.5,0.9c-1.8,0-3-1.2-3-3.1c0-1.8,1.2-3.1,3-3.1C520.8,440.1,521.9,441.4,521.9,443.2z M517.8,442.6h2.6
					c-0.1-0.7-0.6-1.2-1.3-1.2C518.4,441.5,517.9,441.9,517.8,442.6z"/>
				<path class="st3" d="M528.8,442.4v3.7h-1.6v-3.2c0-0.8-0.4-1.3-1.1-1.3c-0.7,0-1.2,0.4-1.2,1.3v3.2h-1.6v-5.8h1.5v0.7
					c0.4-0.6,1.1-0.8,1.7-0.8C527.8,440.1,528.8,441,528.8,442.4z"/>
				<path class="st3" d="M534.5,441.7h-2.1v2.1c0,0.7,0.4,1,0.9,1c0.4,0,0.8-0.2,1.1-0.4l0.6,1.2c-0.5,0.3-1.1,0.6-1.9,0.6
					c-1.4,0-2.2-0.8-2.2-2.3v-2.3h-1.1v-1.4h1.1v-1.7h1.6v1.7h2.1V441.7z"/>
			</g>
		</g>
	</g>
	<g>
		<rect x="372.6" y="520.1" class="st4" width="187.5" height="58.9"/>
		<g>
			<g>
				<path class="st3" d="M412.2,551.4H408v3.4h-1.7v-8.4h6.2v1.5H408v1.9h4.2V551.4z"/>
				<path class="st3" d="M421.6,554.8H420l-4.3-5.6l0,5.6H414v-8.4h1.6l4.3,5.6v-5.6h1.7V554.8z"/>
				<path class="st3" d="M427,546.3c2,0,3.2,0.7,3.2,2.3c0,0.8-0.5,1.5-1.2,1.8c0.8,0.3,1.4,1,1.4,1.9c0,1.6-1.2,2.4-3.2,2.4h-3.7
					v-8.4H427z M425.2,547.8v2h1.7c0.8,0,1.5-0.2,1.5-1c0-0.8-0.7-1-1.5-1H425.2z M425.2,551.3v2l1.9,0c0.9,0,1.5-0.2,1.5-1
					c0-0.8-0.6-1-1.5-1H425.2z"/>
				<path class="st3" d="M442.5,554.8h-1.8l-0.7-2h-3.6l-0.7,2h-1.8l3.3-8.4h2L442.5,554.8z M436.9,551.3h2.4l-1.2-3.3L436.9,551.3z
					"/>
				<path class="st3" d="M450.4,547.5l-1.2,1.2c-0.5-0.5-1.2-0.9-2-0.9c-1.5,0-2.7,1.1-2.7,2.8c0,1.7,1.2,2.8,2.6,2.8
					c1.4,0,2.2-0.7,2.4-1.9h-2.1v-1.4h3.9c0,0.2,0,0.3,0,0.5c0,2.6-1.7,4.4-4.1,4.4c-2.3,0-4.4-1.6-4.4-4.4c0-2.5,1.9-4.4,4.5-4.4
					C448.6,546.2,449.7,546.7,450.4,547.5z"/>
				<path class="st3" d="M458.7,551.4h-4.2v3.4h-1.7v-8.4h6.2v1.5h-4.5v1.9h4.2V551.4z"/>
				<path class="st3" d="M467.6,550.6c-0.5-0.2-1.2-0.5-1.9-0.5c-0.6,0-0.9,0.2-0.9,0.5c0,0.3,0.4,0.4,1,0.5l0.5,0.1
					c1.3,0.2,2,0.8,2,1.7c0,1.2-1,2-2.7,2c-0.8,0-1.8-0.2-2.6-0.7l0.6-1.2c0.5,0.3,1.1,0.6,2,0.6c0.7,0,1.1-0.2,1.1-0.5
					c0-0.3-0.3-0.4-1-0.5l-0.5-0.1c-1.3-0.2-2-0.8-2-1.8c0-1.2,0.9-1.9,2.5-1.9c0.9,0,1.7,0.2,2.4,0.6L467.6,550.6z"/>
				<path class="st3" d="M475.4,551.9c0,1.8-1.3,3.1-3.2,3.1c-1.8,0-3.2-1.3-3.2-3.1c0-1.8,1.3-3.1,3.2-3.1
					C474.1,548.8,475.4,550.1,475.4,551.9z M470.7,551.9c0,0.9,0.7,1.6,1.5,1.6c0.9,0,1.6-0.7,1.6-1.6c0-0.9-0.7-1.6-1.6-1.6
					C471.4,550.3,470.7,550.9,470.7,551.9z"/>
				<path class="st3" d="M482.2,552.3c0,1.8-1.3,2.6-2.8,2.6c-1.5,0-2.8-0.8-2.8-2.6v-3.4h1.6v3.2c0,0.9,0.5,1.3,1.2,1.3
					c0.7,0,1.2-0.4,1.2-1.3v-3.2h1.6V552.3z"/>
				<path class="st3" d="M488,550.6c-0.5-0.2-1.2-0.5-1.9-0.5c-0.6,0-0.9,0.2-0.9,0.5c0,0.3,0.4,0.4,1,0.5l0.5,0.1
					c1.3,0.2,2,0.8,2,1.7c0,1.2-1,2-2.7,2c-0.8,0-1.8-0.2-2.6-0.7l0.6-1.2c0.5,0.3,1.1,0.6,2,0.6c0.7,0,1.1-0.2,1.1-0.5
					c0-0.3-0.3-0.4-1-0.5l-0.5-0.1c-1.3-0.2-2-0.8-2-1.8c0-1.2,0.9-1.9,2.5-1.9c0.9,0,1.7,0.2,2.4,0.6L488,550.6z"/>
				<path class="st3" d="M493.3,552.3h-3.6v-1.4h3.6V552.3z"/>
				<path class="st3" d="M496.4,555.3c0,1.3-0.7,2-1.8,2c-0.3,0-0.7-0.1-0.9-0.2l0.2-1.4c0.1,0,0.3,0.1,0.4,0.1
					c0.3,0,0.5-0.2,0.5-0.6v-6.3h1.6V555.3z M496.6,547c0,0.6-0.4,1-1,1s-1-0.4-1-1c0-0.6,0.4-1,1-1S496.6,546.5,496.6,547z"/>
				<path class="st3" d="M503.8,554.8h-1.5v-0.6c-0.4,0.5-0.9,0.8-1.7,0.8c-1.6,0-2.8-1.3-2.8-3.1c0-1.8,1.2-3.1,2.8-3.1
					c0.8,0,1.4,0.3,1.7,0.8v-0.6h1.5V554.8z M499.3,551.9c0,0.9,0.6,1.6,1.5,1.6c0.9,0,1.5-0.7,1.5-1.6c0-0.9-0.6-1.6-1.5-1.6
					C499.9,550.3,499.3,551,499.3,551.9z"/>
				<path class="st3" d="M510.6,549.9l-1.1,0.9c-0.4-0.4-0.7-0.6-1.2-0.6c-0.8,0-1.5,0.6-1.5,1.6c0,1,0.6,1.6,1.5,1.6
					c0.5,0,0.9-0.2,1.3-0.6l1.1,1c-0.5,0.7-1.4,1.1-2.3,1.1c-1.9,0-3.1-1.3-3.1-3.1c0-1.8,1.2-3.1,3.1-3.1
					C509.2,548.8,510,549.2,510.6,549.9z"/>
				<path class="st3" d="M517,551.9c0,0.2,0,0.4,0,0.5h-4.1c0.2,0.8,0.8,1.2,1.5,1.2c0.5,0,1.1-0.2,1.5-0.6l0.9,1
					c-0.7,0.6-1.5,0.9-2.5,0.9c-1.8,0-3-1.2-3-3.1c0-1.8,1.2-3.1,3-3.1C515.8,548.8,517,550,517,551.9z M512.8,551.3h2.6
					c-0.1-0.7-0.6-1.2-1.3-1.2C513.4,550.1,513,550.6,512.8,551.3z"/>
				<path class="st3" d="M523.8,551.1v3.7h-1.6v-3.2c0-0.8-0.4-1.3-1.1-1.3c-0.7,0-1.2,0.4-1.2,1.3v3.2h-1.6v-5.8h1.5v0.7
					c0.4-0.6,1.1-0.8,1.7-0.8C522.9,548.8,523.8,549.7,523.8,551.1z"/>
				<path class="st3" d="M529.6,550.3h-2.1v2.1c0,0.7,0.4,1,0.9,1c0.4,0,0.8-0.2,1.1-0.4l0.6,1.2c-0.5,0.3-1.1,0.6-1.9,0.6
					c-1.4,0-2.2-0.8-2.2-2.3v-2.3h-1.1v-1.4h1.1v-1.7h1.6v1.7h2.1V550.3z"/>
			</g>
		</g>
	</g>
	<g>
		<rect x="77.8" y="411.3" class="st4" width="187.5" height="58.9"/>
		<g>
			<g>
				<path class="st3" d="M141.7,432.2h-4.2v3.4h-1.7v-8.4h6.2v1.5h-4.5v1.9h4.2V432.2z"/>
				<path class="st3" d="M145.1,427.8c0,0.6-0.4,1-1,1s-1-0.4-1-1c0-0.6,0.4-1,1-1S145.1,427.3,145.1,427.8z M144.9,435.6h-1.6v-5.8
					h1.6V435.6z"/>
				<path class="st3" d="M152.1,431.9v3.7h-1.6v-3.2c0-0.8-0.4-1.3-1.1-1.3c-0.7,0-1.2,0.4-1.2,1.3v3.2h-1.6v-5.8h1.5v0.7
					c0.4-0.6,1.1-0.8,1.7-0.8C151.1,429.6,152.1,430.5,152.1,431.9z"/>
				<path class="st3" d="M159.4,435.6h-1.5v-0.6c-0.4,0.5-0.9,0.8-1.7,0.8c-1.6,0-2.8-1.3-2.8-3.1c0-1.8,1.2-3.1,2.8-3.1
					c0.8,0,1.4,0.3,1.7,0.8v-0.6h1.5V435.6z M154.9,432.7c0,0.9,0.6,1.6,1.5,1.6c0.9,0,1.5-0.7,1.5-1.6c0-0.9-0.6-1.6-1.5-1.6
					C155.5,431.1,154.9,431.8,154.9,432.7z"/>
				<path class="st3" d="M162.7,435.6h-1.6v-8.7h1.6V435.6z"/>
				<path class="st3" d="M166.1,427.8c0,0.6-0.4,1-1,1c-0.6,0-1-0.4-1-1c0-0.6,0.4-1,1-1C165.7,426.8,166.1,427.3,166.1,427.8z
					 M165.9,435.6h-1.6v-5.8h1.6V435.6z"/>
				<path class="st3" d="M171.7,431.4c-0.5-0.2-1.2-0.5-1.9-0.5c-0.6,0-0.9,0.2-0.9,0.5c0,0.3,0.4,0.4,1,0.5l0.5,0.1
					c1.3,0.2,2,0.8,2,1.7c0,1.2-1,2-2.7,2c-0.8,0-1.8-0.2-2.6-0.7l0.6-1.2c0.5,0.3,1.1,0.6,2,0.6c0.7,0,1.1-0.2,1.1-0.5
					c0-0.3-0.3-0.4-1-0.5l-0.5-0.1c-1.3-0.2-2-0.8-2-1.8c0-1.2,0.9-1.9,2.5-1.9c0.9,0,1.7,0.2,2.4,0.6L171.7,431.4z"/>
				<path class="st3" d="M179.4,435.6h-1.5v-0.6c-0.4,0.5-0.9,0.8-1.7,0.8c-1.6,0-2.8-1.3-2.8-3.1c0-1.8,1.2-3.1,2.8-3.1
					c0.8,0,1.4,0.3,1.7,0.8v-0.6h1.5V435.6z M174.9,432.7c0,0.9,0.6,1.6,1.5,1.6c0.9,0,1.5-0.7,1.5-1.6c0-0.9-0.6-1.6-1.5-1.6
					C175.5,431.1,174.9,431.8,174.9,432.7z"/>
				<path class="st3" d="M185.3,431.1h-2.1v2.1c0,0.7,0.4,1,0.9,1c0.4,0,0.8-0.2,1.1-0.4l0.6,1.2c-0.5,0.3-1.1,0.6-1.9,0.6
					c-1.4,0-2.2-0.8-2.2-2.3v-2.3h-1.1v-1.4h1.1V428h1.6v1.7h2.1V431.1z"/>
				<path class="st3" d="M188.5,427.8c0,0.6-0.4,1-1,1s-1-0.4-1-1c0-0.6,0.4-1,1-1S188.5,427.3,188.5,427.8z M188.3,435.6h-1.6v-5.8
					h1.6V435.6z"/>
				<path class="st3" d="M195.9,432.7c0,1.8-1.3,3.1-3.2,3.1c-1.8,0-3.2-1.3-3.2-3.1c0-1.8,1.3-3.1,3.2-3.1
					C194.5,429.6,195.9,430.9,195.9,432.7z M191.1,432.7c0,0.9,0.7,1.6,1.5,1.6c0.9,0,1.6-0.7,1.6-1.6c0-0.9-0.7-1.6-1.6-1.6
					C191.8,431.1,191.1,431.7,191.1,432.7z"/>
				<path class="st3" d="M202.7,431.9v3.7h-1.6v-3.2c0-0.8-0.4-1.3-1.1-1.3c-0.7,0-1.2,0.4-1.2,1.3v3.2h-1.6v-5.8h1.5v0.7
					c0.4-0.6,1.1-0.8,1.7-0.8C201.7,429.6,202.7,430.5,202.7,431.9z"/>
				<path class="st3" d="M133.4,444.8v-3.4h1.6v8.7h-1.5v-0.6c-0.4,0.5-0.9,0.8-1.7,0.8c-1.6,0-2.8-1.3-2.8-3.1
					c0-1.8,1.2-3.1,2.8-3.1C132.4,444.1,133,444.4,133.4,444.8z M130.4,447.1c0,0.9,0.6,1.6,1.5,1.6c0.9,0,1.5-0.7,1.5-1.6
					c0-0.9-0.6-1.6-1.5-1.6C131,445.5,130.4,446.2,130.4,447.1z"/>
				<path class="st3" d="M142.1,447.6c0,1.8-1.3,2.6-2.8,2.6c-1.5,0-2.8-0.8-2.8-2.6v-3.4h1.6v3.2c0,0.9,0.5,1.3,1.2,1.3
					c0.7,0,1.2-0.4,1.2-1.3v-3.2h1.6V447.6z"/>
				<path class="st3" d="M152.8,447.1c0,1.8-1.2,3.1-2.8,3.1c-0.8,0-1.3-0.3-1.7-0.8v3h-1.6v-8.2h1.5v0.6c0.4-0.5,0.9-0.8,1.7-0.8
					C151.5,444.1,152.8,445.4,152.8,447.1z M148.1,447.1c0,0.9,0.6,1.6,1.5,1.6c0.9,0,1.5-0.7,1.5-1.6c0-0.9-0.6-1.6-1.5-1.6
					C148.7,445.5,148.1,446.2,148.1,447.1z"/>
				<path class="st3" d="M160,447.1c0,1.8-1.3,3.1-3.2,3.1c-1.8,0-3.2-1.3-3.2-3.1c0-1.8,1.3-3.1,3.2-3.1
					C158.7,444.1,160,445.4,160,447.1z M155.3,447.1c0,0.9,0.7,1.6,1.5,1.6c0.9,0,1.6-0.7,1.6-1.6c0-0.9-0.7-1.6-1.6-1.6
					C156,445.5,155.3,446.2,155.3,447.1z"/>
				<path class="st3" d="M165.3,444.2l-0.2,1.6c-0.3-0.1-0.6-0.2-1-0.2c-0.7,0-1.2,0.4-1.2,1.3v3.2h-1.6v-5.8h1.5v0.6
					c0.4-0.5,0.9-0.8,1.6-0.8C164.8,444.1,165.1,444.1,165.3,444.2z"/>
				<path class="st3" d="M170.7,445.6h-2.1v2.1c0,0.7,0.4,1,0.9,1c0.4,0,0.8-0.2,1.1-0.4l0.6,1.2c-0.5,0.3-1.1,0.6-1.9,0.6
					c-1.4,0-2.2-0.8-2.2-2.3v-2.3h-1.1v-1.4h1.1v-1.7h1.6v1.7h2.1V445.6z"/>
				<path class="st3" d="M177.5,447.1c0,0.2,0,0.4,0,0.5h-4.1c0.2,0.8,0.8,1.2,1.5,1.2c0.5,0,1.1-0.2,1.5-0.6l0.9,1
					c-0.7,0.6-1.5,0.9-2.5,0.9c-1.8,0-3-1.2-3-3.1c0-1.8,1.2-3.1,3-3.1C176.3,444.1,177.4,445.3,177.5,447.1z M173.3,446.6h2.6
					c-0.1-0.7-0.6-1.2-1.3-1.2C173.9,445.4,173.4,445.9,173.3,446.6z"/>
				<path class="st3" d="M182.6,445.6h-1.8v4.4h-1.6v-4.4h-1.1v-1.4h1.1v-0.7c0-1.4,0.7-2.3,2.1-2.3c0.8,0,1.3,0.2,1.8,0.5l-0.6,1.2
					c-0.3-0.2-0.6-0.3-1-0.3c-0.5,0-0.7,0.3-0.7,0.8v0.7h1.8V445.6z"/>
				<path class="st3" d="M189,447.1c0,0.2,0,0.4,0,0.5h-4.1c0.2,0.8,0.8,1.2,1.5,1.2c0.5,0,1.1-0.2,1.5-0.6l0.9,1
					c-0.7,0.6-1.5,0.9-2.5,0.9c-1.8,0-3-1.2-3-3.1c0-1.8,1.2-3.1,3-3.1C187.9,444.1,189,445.3,189,447.1z M184.8,446.6h2.6
					c-0.1-0.7-0.6-1.2-1.3-1.2C185.4,445.4,185,445.9,184.8,446.6z"/>
				<path class="st3" d="M195.8,447.6c0,1.8-1.3,2.6-2.8,2.6c-1.5,0-2.8-0.8-2.8-2.6v-3.4h1.6v3.2c0,0.9,0.5,1.3,1.2,1.3
					c0.7,0,1.2-0.4,1.2-1.3v-3.2h1.6V447.6z"/>
				<path class="st3" d="M199.2,442.3c0,0.6-0.4,1-1,1c-0.6,0-1-0.4-1-1c0-0.6,0.4-1,1-1C198.7,441.3,199.2,441.7,199.2,442.3z
					 M199,450.1h-1.6v-5.8h1.6V450.1z"/>
				<path class="st3" d="M202.2,450.1h-1.6v-8.7h1.6V450.1z"/>
				<path class="st3" d="M205.4,450.1h-1.6v-8.7h1.6V450.1z"/>
				<path class="st3" d="M212.5,447.1c0,0.2,0,0.4,0,0.5h-4.1c0.2,0.8,0.8,1.2,1.5,1.2c0.5,0,1.1-0.2,1.5-0.6l0.9,1
					c-0.7,0.6-1.5,0.9-2.5,0.9c-1.8,0-3-1.2-3-3.1c0-1.8,1.2-3.1,3-3.1C211.3,444.1,212.5,445.3,212.5,447.1z M208.3,446.6h2.6
					c-0.1-0.7-0.6-1.2-1.3-1.2C208.9,445.4,208.5,445.9,208.3,446.6z"/>
			</g>
		</g>
	</g>
	<g>
		<rect x="77.8" y="520.1" class="st4" width="187.5" height="58.9"/>
		<g>
			<g>
				<path class="st3" d="M111.9,535.3c0,2.5-1.8,4.4-4.4,4.4c-2.6,0-4.4-1.9-4.4-4.4c0-2.5,1.8-4.4,4.4-4.4
					C110.1,531,111.9,532.8,111.9,535.3z M104.8,535.3c0,1.6,1.1,2.8,2.7,2.8c1.6,0,2.7-1.1,2.7-2.8c0-1.6-1.1-2.8-2.7-2.8
					C105.9,532.6,104.8,533.7,104.8,535.3z"/>
				<path class="st3" d="M118.4,534.7l-1.1,0.9c-0.4-0.4-0.7-0.6-1.2-0.6c-0.8,0-1.5,0.6-1.5,1.6c0,1,0.6,1.6,1.5,1.6
					c0.5,0,0.9-0.2,1.3-0.6l1.1,1c-0.5,0.7-1.4,1.1-2.3,1.1c-1.9,0-3.1-1.3-3.1-3.1c0-1.8,1.2-3.1,3.1-3.1
					C117,533.6,117.9,534,118.4,534.7z"/>
				<path class="st3" d="M124.5,534.7l-1.1,0.9c-0.4-0.4-0.7-0.6-1.2-0.6c-0.8,0-1.5,0.6-1.5,1.6c0,1,0.6,1.6,1.5,1.6
					c0.5,0,0.9-0.2,1.3-0.6l1.1,1c-0.5,0.7-1.4,1.1-2.3,1.1c-1.9,0-3.1-1.3-3.1-3.1c0-1.8,1.2-3.1,3.1-3.1
					C123.1,533.6,124,534,124.5,534.7z"/>
				<path class="st3" d="M131.3,539.6h-1.5v-0.6c-0.4,0.5-0.9,0.8-1.7,0.8c-1.6,0-2.8-1.3-2.8-3.1c0-1.8,1.2-3.1,2.8-3.1
					c0.8,0,1.4,0.3,1.7,0.8v-0.6h1.5V539.6z M126.8,536.6c0,0.9,0.6,1.6,1.5,1.6c0.9,0,1.5-0.7,1.5-1.6c0-0.9-0.6-1.6-1.5-1.6
					C127.4,535,126.8,535.7,126.8,536.6z"/>
				<path class="st3" d="M137.1,535.3c-0.5-0.2-1.2-0.5-1.9-0.5c-0.6,0-0.9,0.2-0.9,0.5c0,0.3,0.4,0.4,1,0.5l0.5,0.1
					c1.3,0.2,2,0.8,2,1.7c0,1.2-1,2-2.7,2c-0.8,0-1.8-0.2-2.6-0.7l0.6-1.2c0.5,0.3,1.1,0.6,2,0.6c0.7,0,1.1-0.2,1.1-0.5
					c0-0.3-0.3-0.4-1-0.5l-0.5-0.1c-1.3-0.2-2-0.8-2-1.8c0-1.2,0.9-1.9,2.5-1.9c0.9,0,1.7,0.2,2.4,0.6L137.1,535.3z"/>
				<path class="st3" d="M140.8,531.8c0,0.6-0.4,1-1,1c-0.6,0-1-0.4-1-1c0-0.6,0.4-1,1-1C140.4,530.8,140.8,531.2,140.8,531.8z
					 M140.6,539.6H139v-5.8h1.6V539.6z"/>
				<path class="st3" d="M148.2,536.6c0,1.8-1.3,3.1-3.2,3.1c-1.8,0-3.2-1.3-3.2-3.1c0-1.8,1.3-3.1,3.2-3.1
					C146.9,533.6,148.2,534.9,148.2,536.6z M143.5,536.6c0,0.9,0.7,1.6,1.5,1.6c0.9,0,1.6-0.7,1.6-1.6c0-0.9-0.7-1.6-1.6-1.6
					C144.2,535,143.5,535.7,143.5,536.6z"/>
				<path class="st3" d="M155,535.8v3.7h-1.6v-3.2c0-0.8-0.4-1.3-1.1-1.3c-0.7,0-1.2,0.4-1.2,1.3v3.2h-1.6v-5.8h1.5v0.7
					c0.4-0.6,1.1-0.8,1.7-0.8C154.1,533.6,155,534.5,155,535.8z"/>
				<path class="st3" d="M160.8,535.3c-0.5-0.2-1.2-0.5-1.9-0.5c-0.6,0-0.9,0.2-0.9,0.5c0,0.3,0.4,0.4,1,0.5l0.5,0.1
					c1.3,0.2,2,0.8,2,1.7c0,1.2-1,2-2.7,2c-0.8,0-1.8-0.2-2.6-0.7l0.6-1.2c0.5,0.3,1.1,0.6,2,0.6c0.7,0,1.1-0.2,1.1-0.5
					c0-0.3-0.3-0.4-1-0.5l-0.5-0.1c-1.3-0.2-2-0.8-2-1.8c0-1.2,0.9-1.9,2.5-1.9c0.9,0,1.7,0.2,2.4,0.6L160.8,535.3z"/>
				<path class="st3" d="M169.9,535.1h-2.1v2.1c0,0.7,0.4,1,0.9,1c0.4,0,0.8-0.2,1.1-0.4l0.6,1.2c-0.5,0.3-1.1,0.6-1.9,0.6
					c-1.4,0-2.2-0.8-2.2-2.3v-2.3h-1.1v-1.4h1.1V532h1.6v1.7h2.1V535.1z"/>
				<path class="st3" d="M177,539.6h-1.5v-0.6c-0.4,0.5-0.9,0.8-1.7,0.8c-1.6,0-2.8-1.3-2.8-3.1c0-1.8,1.2-3.1,2.8-3.1
					c0.8,0,1.4,0.3,1.7,0.8v-0.6h1.5V539.6z M172.5,536.6c0,0.9,0.6,1.6,1.5,1.6c0.9,0,1.5-0.7,1.5-1.6c0-0.9-0.6-1.6-1.5-1.6
					C173.1,535,172.5,535.7,172.5,536.6z"/>
				<path class="st3" d="M183.7,534.7l-1.1,0.9c-0.4-0.4-0.7-0.6-1.2-0.6c-0.8,0-1.5,0.6-1.5,1.6c0,1,0.6,1.6,1.5,1.6
					c0.5,0,0.9-0.2,1.3-0.6l1.1,1c-0.5,0.7-1.4,1.1-2.3,1.1c-1.9,0-3.1-1.3-3.1-3.1c0-1.8,1.2-3.1,3.1-3.1
					C182.4,533.6,183.2,534,183.7,534.7z"/>
				<path class="st3" d="M189.2,535.1h-2.1v2.1c0,0.7,0.4,1,0.9,1c0.4,0,0.8-0.2,1.1-0.4l0.6,1.2c-0.5,0.3-1.1,0.6-1.9,0.6
					c-1.4,0-2.2-0.8-2.2-2.3v-2.3h-1.1v-1.4h1.1V532h1.6v1.7h2.1V535.1z"/>
				<path class="st3" d="M192.4,531.8c0,0.6-0.4,1-1,1c-0.6,0-1-0.4-1-1c0-0.6,0.4-1,1-1C191.9,530.8,192.4,531.2,192.4,531.8z
					 M192.1,539.6h-1.6v-5.8h1.6V539.6z"/>
				<path class="st3" d="M198,534.4v-0.6h1.5v8.2H198v-3c-0.4,0.5-0.9,0.8-1.7,0.8c-1.6,0-2.8-1.3-2.8-3.1c0-1.8,1.2-3.1,2.8-3.1
					C197.1,533.6,197.6,533.9,198,534.4z M195,536.6c0,0.9,0.6,1.6,1.5,1.6c0.9,0,1.5-0.7,1.5-1.6c0-0.9-0.6-1.6-1.5-1.6
					C195.6,535,195,535.7,195,536.6z"/>
				<path class="st3" d="M206.7,537.1c0,1.8-1.3,2.6-2.8,2.6c-1.5,0-2.8-0.8-2.8-2.6v-3.4h1.6v3.2c0,0.9,0.5,1.3,1.2,1.3
					c0.7,0,1.2-0.4,1.2-1.3v-3.2h1.6V537.1z"/>
				<path class="st3" d="M213.7,536.6c0,0.2,0,0.4,0,0.5h-4.1c0.2,0.8,0.8,1.2,1.5,1.2c0.5,0,1.1-0.2,1.5-0.6l0.9,1
					c-0.7,0.6-1.5,0.9-2.5,0.9c-1.8,0-3-1.2-3-3.1c0-1.8,1.2-3.1,3-3.1C212.6,533.6,213.7,534.8,213.7,536.6z M209.5,536.1h2.6
					c-0.1-0.7-0.6-1.2-1.3-1.2C210.1,534.9,209.7,535.4,209.5,536.1z"/>
				<path class="st3" d="M219.1,535.3c-0.5-0.2-1.2-0.5-1.9-0.5c-0.6,0-0.9,0.2-0.9,0.5c0,0.3,0.4,0.4,1,0.5l0.5,0.1
					c1.3,0.2,2,0.8,2,1.7c0,1.2-1,2-2.7,2c-0.8,0-1.8-0.2-2.6-0.7l0.6-1.2c0.5,0.3,1.1,0.6,2,0.6c0.7,0,1.1-0.2,1.1-0.5
					c0-0.3-0.3-0.4-1-0.5l-0.5-0.1c-1.3-0.2-2-0.8-2-1.8c0-1.2,0.9-1.9,2.5-1.9c0.9,0,1.7,0.2,2.4,0.6L219.1,535.3z"/>
				<path class="st3" d="M228.2,534.3v-3.4h1.6v8.7h-1.5v-0.6c-0.4,0.5-0.9,0.8-1.7,0.8c-1.6,0-2.8-1.3-2.8-3.1
					c0-1.8,1.2-3.1,2.8-3.1C227.3,533.6,227.9,533.9,228.2,534.3z M225.3,536.6c0,0.9,0.6,1.6,1.5,1.6c0.9,0,1.5-0.7,1.5-1.6
					c0-0.9-0.6-1.6-1.5-1.6C225.9,535,225.3,535.7,225.3,536.6z"/>
				<path class="st3" d="M236.9,536.6c0,0.2,0,0.4,0,0.5h-4.1c0.2,0.8,0.8,1.2,1.5,1.2c0.5,0,1.1-0.2,1.5-0.6l0.9,1
					c-0.7,0.6-1.5,0.9-2.5,0.9c-1.8,0-3-1.2-3-3.1c0-1.8,1.2-3.1,3-3.1C235.7,533.6,236.9,534.8,236.9,536.6z M232.7,536.1h2.6
					c-0.1-0.7-0.6-1.2-1.3-1.2C233.3,534.9,232.9,535.4,232.7,536.1z"/>
				<path class="st3" d="M98.8,551.1c0,1.8-1.2,3.1-2.8,3.1c-0.8,0-1.3-0.3-1.7-0.8v3h-1.6v-8.2h1.5v0.6c0.4-0.5,0.9-0.8,1.7-0.8
					C97.6,548,98.8,549.4,98.8,551.1z M94.2,551.1c0,0.9,0.6,1.6,1.5,1.6c0.9,0,1.5-0.7,1.5-1.6c0-0.9-0.6-1.6-1.5-1.6
					C94.8,549.5,94.2,550.2,94.2,551.1z"/>
				<path class="st3" d="M105.8,554h-1.5v-0.6c-0.4,0.5-0.9,0.8-1.7,0.8c-1.6,0-2.8-1.3-2.8-3.1c0-1.8,1.2-3.1,2.8-3.1
					c0.8,0,1.4,0.3,1.7,0.8v-0.6h1.5V554z M101.3,551.1c0,0.9,0.6,1.6,1.5,1.6c0.9,0,1.5-0.7,1.5-1.6c0-0.9-0.6-1.6-1.5-1.6
					C101.9,549.5,101.3,550.2,101.3,551.1z"/>
				<path class="st3" d="M111.5,548.2l-0.2,1.6c-0.3-0.1-0.6-0.2-1-0.2c-0.7,0-1.2,0.4-1.2,1.3v3.2h-1.6v-5.8h1.5v0.6
					c0.4-0.5,0.9-0.8,1.6-0.8C111,548,111.3,548.1,111.5,548.2z"/>
				<path class="st3" d="M116.9,549.6h-2.1v2.1c0,0.7,0.4,1,0.9,1c0.4,0,0.8-0.2,1.1-0.4l0.6,1.2c-0.5,0.3-1.1,0.6-1.9,0.6
					c-1.4,0-2.2-0.8-2.2-2.3v-2.3h-1.1v-1.4h1.1v-1.7h1.6v1.7h2.1V549.6z"/>
				<path class="st3" d="M120.1,546.3c0,0.6-0.4,1-1,1c-0.6,0-1-0.4-1-1c0-0.6,0.4-1,1-1C119.6,545.3,120.1,545.7,120.1,546.3z
					 M119.9,554h-1.6v-5.8h1.6V554z"/>
				<path class="st3" d="M126.6,549.1l-1.1,0.9c-0.4-0.4-0.7-0.6-1.2-0.6c-0.8,0-1.5,0.6-1.5,1.6c0,1,0.6,1.6,1.5,1.6
					c0.5,0,0.9-0.2,1.3-0.6l1.1,1c-0.5,0.7-1.4,1.1-2.3,1.1c-1.9,0-3.1-1.3-3.1-3.1c0-1.8,1.2-3.1,3.1-3.1
					C125.2,548,126.1,548.4,126.6,549.1z"/>
				<path class="st3" d="M129.5,546.3c0,0.6-0.4,1-1,1c-0.6,0-1-0.4-1-1c0-0.6,0.4-1,1-1C129.1,545.3,129.5,545.7,129.5,546.3z
					 M129.3,554h-1.6v-5.8h1.6V554z"/>
				<path class="st3" d="M137.1,551.1c0,1.8-1.2,3.1-2.8,3.1c-0.8,0-1.3-0.3-1.7-0.8v3H131v-8.2h1.5v0.6c0.4-0.5,0.9-0.8,1.7-0.8
					C135.9,548,137.1,549.4,137.1,551.1z M132.5,551.1c0,0.9,0.6,1.6,1.5,1.6c0.9,0,1.5-0.7,1.5-1.6c0-0.9-0.6-1.6-1.5-1.6
					C133.1,549.5,132.5,550.2,132.5,551.1z"/>
				<path class="st3" d="M144.1,554h-1.5v-0.6c-0.4,0.5-0.9,0.8-1.7,0.8c-1.6,0-2.8-1.3-2.8-3.1c0-1.8,1.2-3.1,2.8-3.1
					c0.8,0,1.4,0.3,1.7,0.8v-0.6h1.5V554z M139.6,551.1c0,0.9,0.6,1.6,1.5,1.6c0.9,0,1.5-0.7,1.5-1.6c0-0.9-0.6-1.6-1.5-1.6
					C140.2,549.5,139.6,550.2,139.6,551.1z"/>
				<path class="st3" d="M150,549.6h-2.1v2.1c0,0.7,0.4,1,0.9,1c0.4,0,0.8-0.2,1.1-0.4l0.6,1.2c-0.5,0.3-1.1,0.6-1.9,0.6
					c-1.4,0-2.2-0.8-2.2-2.3v-2.3h-1.1v-1.4h1.1v-1.7h1.6v1.7h2.1V549.6z"/>
				<path class="st3" d="M153.2,546.3c0,0.6-0.4,1-1,1c-0.6,0-1-0.4-1-1c0-0.6,0.4-1,1-1C152.7,545.3,153.2,545.7,153.2,546.3z
					 M153,554h-1.6v-5.8h1.6V554z"/>
				<path class="st3" d="M160.6,551.1c0,1.8-1.3,3.1-3.2,3.1c-1.8,0-3.2-1.3-3.2-3.1c0-1.8,1.3-3.1,3.2-3.1
					C159.2,548,160.6,549.3,160.6,551.1z M155.9,551.1c0,0.9,0.7,1.6,1.5,1.6c0.9,0,1.6-0.7,1.6-1.6c0-0.9-0.7-1.6-1.6-1.6
					C156.5,549.5,155.9,550.2,155.9,551.1z"/>
				<path class="st3" d="M167.4,550.3v3.7h-1.6v-3.2c0-0.8-0.4-1.3-1.1-1.3c-0.7,0-1.2,0.4-1.2,1.3v3.2h-1.6v-5.8h1.5v0.7
					c0.4-0.6,1.1-0.8,1.7-0.8C166.4,548,167.4,549,167.4,550.3z"/>
				<path class="st3" d="M177.7,554h-1.5v-0.6c-0.4,0.5-0.9,0.8-1.7,0.8c-1.6,0-2.8-1.3-2.8-3.1c0-1.8,1.2-3.1,2.8-3.1
					c0.8,0,1.4,0.3,1.7,0.8v-0.6h1.5V554z M172.8,545.5h1.9l1.2,1.9h-1.5L172.8,545.5z M173.2,551.1c0,0.9,0.6,1.6,1.5,1.6
					c0.9,0,1.5-0.7,1.5-1.6c0-0.9-0.6-1.6-1.5-1.6C173.8,549.5,173.2,550.2,173.2,551.1z"/>
				<path class="st3" d="M186.5,548.8v-3.4h1.6v8.7h-1.5v-0.6c-0.4,0.5-0.9,0.8-1.7,0.8c-1.6,0-2.8-1.3-2.8-3.1
					c0-1.8,1.2-3.1,2.8-3.1C185.6,548,186.2,548.3,186.5,548.8z M183.6,551.1c0,0.9,0.6,1.6,1.5,1.6c0.9,0,1.5-0.7,1.5-1.6
					c0-0.9-0.6-1.6-1.5-1.6C184.2,549.5,183.6,550.2,183.6,551.1z"/>
				<path class="st3" d="M195.2,551.1c0,0.2,0,0.4,0,0.5H191c0.2,0.8,0.8,1.2,1.5,1.2c0.5,0,1.1-0.2,1.5-0.6l0.9,1
					c-0.7,0.6-1.5,0.9-2.5,0.9c-1.8,0-3-1.2-3-3.1c0-1.8,1.2-3.1,3-3.1C194,548,195.2,549.3,195.2,551.1z M191,550.6h2.6
					c-0.1-0.7-0.6-1.2-1.3-1.2C191.6,549.4,191.2,549.8,191,550.6z"/>
				<path class="st3" d="M200.6,549.8c-0.5-0.2-1.2-0.5-1.9-0.5c-0.6,0-0.9,0.2-0.9,0.5c0,0.3,0.4,0.4,1,0.5l0.5,0.1
					c1.3,0.2,2,0.8,2,1.7c0,1.2-1,2-2.7,2c-0.8,0-1.8-0.2-2.6-0.7l0.6-1.2c0.5,0.3,1.1,0.6,2,0.6c0.7,0,1.1-0.2,1.1-0.5
					c0-0.3-0.3-0.4-1-0.5l-0.5-0.1c-1.3-0.2-2-0.8-2-1.8c0-1.2,0.9-1.9,2.5-1.9c0.9,0,1.7,0.2,2.4,0.6L200.6,549.8z"/>
				<path class="st3" d="M209.7,549.6h-2.1v2.1c0,0.7,0.4,1,0.9,1c0.4,0,0.8-0.2,1.1-0.4l0.6,1.2c-0.5,0.3-1.1,0.6-1.9,0.6
					c-1.4,0-2.2-0.8-2.2-2.3v-2.3h-1.1v-1.4h1.1v-1.7h1.6v1.7h2.1V549.6z"/>
				<path class="st3" d="M212.7,548.8c0.4-0.6,1-0.8,1.7-0.8c1.3,0,2.3,0.9,2.3,2.3v3.7h-1.6v-3.2c0-0.8-0.4-1.3-1.1-1.3
					c-0.7,0-1.2,0.4-1.2,1.3v3.2h-1.6v-8.7h1.6V548.8z"/>
				<path class="st3" d="M223.7,551.1c0,0.2,0,0.4,0,0.5h-4.1c0.2,0.8,0.8,1.2,1.5,1.2c0.5,0,1.1-0.2,1.5-0.6l0.9,1
					c-0.7,0.6-1.5,0.9-2.5,0.9c-1.8,0-3-1.2-3-3.1c0-1.8,1.2-3.1,3-3.1C222.5,548,223.7,549.3,223.7,551.1z M218.7,545.5h1.9
					l1.2,1.9h-1.5L218.7,545.5z M219.5,550.6h2.6c-0.1-0.7-0.6-1.2-1.3-1.2C220.1,549.4,219.6,549.8,219.5,550.6z"/>
				<path class="st3" d="M234.4,550.3v3.7h-1.6v-3.2c0-0.8-0.4-1.3-1.1-1.3c-0.7,0-1.2,0.4-1.2,1.3v3.2h-1.6v-3.2
					c0-0.8-0.4-1.3-1.1-1.3c-0.7,0-1.2,0.4-1.2,1.3v3.2H225v-5.8h1.5v0.7c0.4-0.6,1.1-0.8,1.7-0.8c0.8,0,1.5,0.4,1.9,1
					c0.5-0.7,1.2-1,2-1C233.5,548,234.4,549,234.4,550.3z"/>
				<path class="st3" d="M241.5,551.1c0,0.2,0,0.4,0,0.5h-4.1c0.2,0.8,0.8,1.2,1.5,1.2c0.5,0,1.1-0.2,1.5-0.6l0.9,1
					c-0.7,0.6-1.5,0.9-2.5,0.9c-1.8,0-3-1.2-3-3.1c0-1.8,1.2-3.1,3-3.1C240.3,548,241.5,549.3,241.5,551.1z M237.3,550.6h2.6
					c-0.1-0.7-0.6-1.2-1.3-1.2C237.9,549.4,237.4,549.8,237.3,550.6z"/>
				<path class="st3" d="M246.9,549.8c-0.5-0.2-1.2-0.5-1.9-0.5c-0.6,0-0.9,0.2-0.9,0.5c0,0.3,0.4,0.4,1,0.5l0.5,0.1
					c1.3,0.2,2,0.8,2,1.7c0,1.2-1,2-2.7,2c-0.8,0-1.8-0.2-2.6-0.7l0.6-1.2c0.5,0.3,1.1,0.6,2,0.6c0.7,0,1.1-0.2,1.1-0.5
					c0-0.3-0.3-0.4-1-0.5l-0.5-0.1c-1.3-0.2-2-0.8-2-1.8c0-1.2,0.9-1.9,2.5-1.9c0.9,0,1.7,0.2,2.4,0.6L246.9,549.8z"/>
				<path class="st3" d="M88.6,563.3v-3.4h1.6v8.7h-1.5v-0.6c-0.4,0.5-0.9,0.8-1.7,0.8c-1.6,0-2.8-1.3-2.8-3.1
					c0-1.8,1.2-3.1,2.8-3.1C87.7,562.5,88.2,562.8,88.6,563.3z M85.7,565.6c0,0.9,0.6,1.6,1.5,1.6c0.9,0,1.5-0.7,1.5-1.6
					c0-0.9-0.6-1.6-1.5-1.6C86.3,564,85.7,564.7,85.7,565.6z"/>
				<path class="st3" d="M93.9,559.8v3.6h-1.6v-3.6H93.9z"/>
				<path class="st3" d="M97.9,560.7c0,0.6-0.4,1-1,1c-0.6,0-1-0.4-1-1c0-0.6,0.4-1,1-1C97.4,559.7,97.9,560.2,97.9,560.7z
					 M97.7,568.5h-1.6v-5.8h1.6V568.5z"/>
				<path class="st3" d="M104.8,564.8v3.7h-1.6v-3.2c0-0.8-0.4-1.3-1.1-1.3c-0.7,0-1.2,0.4-1.2,1.3v3.2h-1.6v-5.8h1.5v0.7
					c0.4-0.6,1.1-0.8,1.7-0.8C103.9,562.5,104.8,563.4,104.8,564.8z"/>
				<path class="st3" d="M109.7,568.5h-1.8l-2.3-5.8h1.7l1.5,4.2l1.5-4.2h1.7L109.7,568.5z"/>
				<path class="st3" d="M118.2,565.6c0,0.2,0,0.4,0,0.5H114c0.2,0.8,0.8,1.2,1.5,1.2c0.5,0,1.1-0.2,1.5-0.6l0.9,1
					c-0.7,0.6-1.5,0.9-2.5,0.9c-1.8,0-3-1.2-3-3.1c0-1.8,1.2-3.1,3-3.1C117,562.5,118.2,563.7,118.2,565.6z M114,565h2.6
					c-0.1-0.7-0.6-1.2-1.3-1.2C114.6,563.9,114.1,564.3,114,565z"/>
				<path class="st3" d="M123.6,564.3c-0.5-0.2-1.2-0.5-1.9-0.5c-0.6,0-0.9,0.2-0.9,0.5c0,0.3,0.4,0.4,1,0.5l0.5,0.1
					c1.3,0.2,2,0.8,2,1.7c0,1.2-1,2-2.7,2c-0.8,0-1.8-0.2-2.6-0.7l0.6-1.2c0.5,0.3,1.1,0.6,2,0.6c0.7,0,1.1-0.2,1.1-0.5
					c0-0.3-0.3-0.4-1-0.5l-0.5-0.1c-1.3-0.2-2-0.8-2-1.8c0-1.2,0.9-1.9,2.5-1.9c0.9,0,1.7,0.2,2.4,0.6L123.6,564.3z"/>
				<path class="st3" d="M129.7,564.1h-2.1v2.1c0,0.7,0.4,1,0.9,1c0.4,0,0.8-0.2,1.1-0.4l0.6,1.2c-0.5,0.3-1.1,0.6-1.9,0.6
					c-1.4,0-2.2-0.8-2.2-2.3v-2.3h-1.1v-1.4h1.1v-1.7h1.6v1.7h2.1V564.1z"/>
				<path class="st3" d="M132.9,560.7c0,0.6-0.4,1-1,1c-0.6,0-1-0.4-1-1c0-0.6,0.4-1,1-1C132.5,559.7,132.9,560.2,132.9,560.7z
					 M132.7,568.5h-1.6v-5.8h1.6V568.5z"/>
				<path class="st3" d="M138.5,564.3c-0.5-0.2-1.2-0.5-1.9-0.5c-0.6,0-0.9,0.2-0.9,0.5c0,0.3,0.4,0.4,1,0.5l0.5,0.1
					c1.3,0.2,2,0.8,2,1.7c0,1.2-1,2-2.7,2c-0.8,0-1.8-0.2-2.6-0.7l0.6-1.2c0.5,0.3,1.1,0.6,2,0.6c0.7,0,1.1-0.2,1.1-0.5
					c0-0.3-0.3-0.4-1-0.5l-0.5-0.1c-1.3-0.2-2-0.8-2-1.8c0-1.2,0.9-1.9,2.5-1.9c0.9,0,1.7,0.2,2.4,0.6L138.5,564.3z"/>
				<path class="st3" d="M144.6,564.3c-0.5-0.2-1.2-0.5-1.9-0.5c-0.6,0-0.9,0.2-0.9,0.5c0,0.3,0.4,0.4,1,0.5l0.5,0.1
					c1.3,0.2,2,0.8,2,1.7c0,1.2-1,2-2.7,2c-0.8,0-1.8-0.2-2.6-0.7l0.6-1.2c0.5,0.3,1.1,0.6,2,0.6c0.7,0,1.1-0.2,1.1-0.5
					c0-0.3-0.3-0.4-1-0.5l-0.5-0.1c-1.3-0.2-2-0.8-2-1.8c0-1.2,0.9-1.9,2.5-1.9c0.9,0,1.7,0.2,2.4,0.6L144.6,564.3z"/>
				<path class="st3" d="M151.9,565.6c0,0.2,0,0.4,0,0.5h-4.1c0.2,0.8,0.8,1.2,1.5,1.2c0.5,0,1.1-0.2,1.5-0.6l0.9,1
					c-0.7,0.6-1.5,0.9-2.5,0.9c-1.8,0-3-1.2-3-3.1c0-1.8,1.2-3.1,3-3.1C150.8,562.5,151.9,563.7,151.9,565.6z M147.8,565h2.6
					c-0.1-0.7-0.6-1.2-1.3-1.2C148.3,563.9,147.9,564.3,147.8,565z"/>
				<path class="st3" d="M162.7,564.8v3.7h-1.6v-3.2c0-0.8-0.4-1.3-1.1-1.3c-0.7,0-1.2,0.4-1.2,1.3v3.2h-1.6v-3.2
					c0-0.8-0.4-1.3-1.1-1.3c-0.7,0-1.2,0.4-1.2,1.3v3.2h-1.6v-5.8h1.5v0.7c0.4-0.6,1.1-0.8,1.7-0.8c0.8,0,1.5,0.4,1.9,1
					c0.5-0.7,1.2-1,2-1C161.8,562.5,162.7,563.4,162.7,564.8z"/>
				<path class="st3" d="M169.7,565.6c0,0.2,0,0.4,0,0.5h-4.1c0.2,0.8,0.8,1.2,1.5,1.2c0.5,0,1.1-0.2,1.5-0.6l0.9,1
					c-0.7,0.6-1.5,0.9-2.5,0.9c-1.8,0-3-1.2-3-3.1c0-1.8,1.2-3.1,3-3.1C168.6,562.5,169.7,563.7,169.7,565.6z M165.6,565h2.6
					c-0.1-0.7-0.6-1.2-1.3-1.2C166.1,563.9,165.7,564.3,165.6,565z"/>
				<path class="st3" d="M176.5,564.8v3.7H175v-3.2c0-0.8-0.4-1.3-1.1-1.3c-0.7,0-1.2,0.4-1.2,1.3v3.2H171v-5.8h1.5v0.7
					c0.4-0.6,1.1-0.8,1.7-0.8C175.6,562.5,176.5,563.4,176.5,564.8z"/>
				<path class="st3" d="M182.3,564.1h-2.1v2.1c0,0.7,0.4,1,0.9,1c0.4,0,0.8-0.2,1.1-0.4l0.6,1.2c-0.5,0.3-1.1,0.6-1.9,0.6
					c-1.4,0-2.2-0.8-2.2-2.3v-2.3h-1.1v-1.4h1.1v-1.7h1.6v1.7h2.1V564.1z"/>
				<path class="st3" d="M192.4,568.5h-1.5v-0.6c-0.4,0.5-0.9,0.8-1.7,0.8c-1.6,0-2.8-1.3-2.8-3.1c0-1.8,1.2-3.1,2.8-3.1
					c0.8,0,1.4,0.3,1.7,0.8v-0.6h1.5V568.5z M187.5,559.9h1.9l1.2,1.9h-1.5L187.5,559.9z M187.9,565.6c0,0.9,0.6,1.6,1.5,1.6
					c0.9,0,1.5-0.7,1.5-1.6c0-0.9-0.6-1.6-1.5-1.6C188.5,564,187.9,564.7,187.9,565.6z"/>
				<path class="st3" d="M198.6,568.5h-1.6v-8.7h1.6V568.5z"/>
				<path class="st3" d="M206.3,565.6c0,1.8-1.3,3.1-3.2,3.1c-1.8,0-3.2-1.3-3.2-3.1c0-1.8,1.3-3.1,3.2-3.1
					C204.9,562.5,206.3,563.8,206.3,565.6z M201.5,565.6c0,0.9,0.7,1.6,1.5,1.6c0.9,0,1.6-0.7,1.6-1.6c0-0.9-0.7-1.6-1.6-1.6
					C202.2,564,201.5,564.6,201.5,565.6z"/>
				<path class="st3" d="M213.1,564.8v3.7h-1.6v-3.2c0-0.8-0.4-1.3-1.1-1.3c-0.7,0-1.2,0.4-1.2,1.3v3.2h-1.6v-5.8h1.5v0.7
					c0.4-0.6,1.1-0.8,1.7-0.8C212.1,562.5,213.1,563.4,213.1,564.8z"/>
				<path class="st3" d="M218.8,563.3v-0.7h1.5v5.4c0,1.9-1.2,3-3.2,3c-0.9,0-1.9-0.2-2.6-0.7l0.6-1.3c0.6,0.4,1.2,0.6,1.9,0.6
					c1,0,1.7-0.5,1.7-1.5v-0.4c-0.4,0.5-1,0.8-1.8,0.8c-1.4,0-2.7-1.2-2.7-3c0-1.8,1.3-3,2.7-3C217.8,562.5,218.4,562.8,218.8,563.3
					z M215.9,565.5c0,0.8,0.6,1.5,1.5,1.5c0.9,0,1.5-0.7,1.5-1.5c0-0.9-0.6-1.5-1.5-1.5C216.5,563.9,215.9,564.6,215.9,565.5z"/>
				<path class="st3" d="M229.2,564.1h-2.1v2.1c0,0.7,0.4,1,0.9,1c0.4,0,0.8-0.2,1.1-0.4l0.6,1.2c-0.5,0.3-1.1,0.6-1.9,0.6
					c-1.4,0-2.2-0.8-2.2-2.3v-2.3h-1.1v-1.4h1.1v-1.7h1.6v1.7h2.1V564.1z"/>
				<path class="st3" d="M235.9,565.6c0,0.2,0,0.4,0,0.5h-4.1c0.2,0.8,0.8,1.2,1.5,1.2c0.5,0,1.1-0.2,1.5-0.6l0.9,1
					c-0.7,0.6-1.5,0.9-2.5,0.9c-1.8,0-3-1.2-3-3.1c0-1.8,1.2-3.1,3-3.1C234.8,562.5,235.9,563.7,235.9,565.6z M231.8,565h2.6
					c-0.1-0.7-0.6-1.2-1.3-1.2C232.3,563.9,231.9,564.3,231.8,565z"/>
				<path class="st3" d="M241.2,562.6l-0.2,1.6c-0.3-0.1-0.6-0.2-1-0.2c-0.7,0-1.2,0.4-1.2,1.3v3.2h-1.6v-5.8h1.5v0.6
					c0.4-0.5,0.9-0.8,1.6-0.8C240.7,562.5,241,562.5,241.2,562.6z"/>
				<path class="st3" d="M251.7,564.8v3.7h-1.6v-3.2c0-0.8-0.4-1.3-1.1-1.3c-0.7,0-1.2,0.4-1.2,1.3v3.2h-1.6v-3.2
					c0-0.8-0.4-1.3-1.1-1.3c-0.7,0-1.2,0.4-1.2,1.3v3.2h-1.6v-5.8h1.5v0.7c0.4-0.6,1.1-0.8,1.7-0.8c0.8,0,1.5,0.4,1.9,1
					c0.5-0.7,1.2-1,2-1C250.8,562.5,251.7,563.4,251.7,564.8z"/>
				<path class="st3" d="M258.8,565.6c0,0.2,0,0.4,0,0.5h-4.1c0.2,0.8,0.8,1.2,1.5,1.2c0.5,0,1.1-0.2,1.5-0.6l0.9,1
					c-0.7,0.6-1.5,0.9-2.5,0.9c-1.8,0-3-1.2-3-3.1c0-1.8,1.2-3.1,3-3.1C257.6,562.5,258.8,563.7,258.8,565.6z M254.6,565h2.6
					c-0.1-0.7-0.6-1.2-1.3-1.2C255.2,563.9,254.7,564.3,254.6,565z"/>
			</g>
		</g>
	</g>
	<rect x="184.9" y="156" class="st5" width="43.6" height="7.3"/>
	<rect x="230.2" y="156" class="st5" width="43.6" height="7.3"/>
	<rect x="275.5" y="156" class="st4" width="43.6" height="7.3"/>
	<rect x="320.8" y="156" class="st4" width="43.6" height="7.3"/>
	<rect x="366.1" y="156" class="st4" width="43.6" height="7.3"/>
	<rect x="411.4" y="156" class="st4" width="43.6" height="7.3"/>
	<g>
		<rect x="372.6" y="285.2" class="st5" width="187.5" height="58.9"/>
		<g>
			<path class="st3" d="M397,319.5h-2.6l-4-10.6h2.2l3,8.4l3-8.4h2.2L397,319.5z"/>
			<path class="st3" d="M408.6,315.9c0,2.2-1.7,3.9-4,3.9c-2.3,0-3.9-1.6-3.9-3.9s1.7-3.9,3.9-3.9
				C406.9,312,408.6,313.7,408.6,315.9z M402.7,315.9c0,1.2,0.8,2,1.9,2c1.1,0,1.9-0.8,1.9-2c0-1.2-0.8-2-1.9-2
				C403.5,313.9,402.7,314.7,402.7,315.9z"/>
			<path class="st3" d="M412.2,319.5h-2v-10.9h2V319.5z"/>
			<path class="st3" d="M421.1,315.9c0,0.2,0,0.5,0,0.7h-5.2c0.2,1.1,1,1.5,1.9,1.5c0.6,0,1.3-0.3,1.8-0.7l1.2,1.3
				c-0.8,0.8-1.9,1.1-3.1,1.1c-2.2,0-3.8-1.5-3.8-3.8s1.5-3.9,3.7-3.9C419.6,312,421.1,313.6,421.1,315.9z M415.9,315.2h3.2
				c-0.2-0.9-0.7-1.5-1.6-1.5C416.6,313.7,416,314.3,415.9,315.2z"/>
			<path class="st3" d="M427.9,314h-2.6v2.7c0,0.9,0.5,1.2,1.1,1.2c0.5,0,1-0.2,1.4-0.5l0.7,1.5c-0.6,0.4-1.4,0.8-2.4,0.8
				c-1.8,0-2.7-1-2.7-2.9V314h-1.4v-1.8h1.4V310h2v2.2h2.6V314z"/>
			<path class="st3" d="M438.2,314H436v5.6h-2V314h-1.4v-1.8h1.4v-0.9c0-1.7,0.9-2.8,2.6-2.8c1,0,1.7,0.3,2.2,0.7l-0.8,1.5
				c-0.4-0.2-0.8-0.4-1.3-0.4c-0.6,0-0.9,0.3-0.9,1v0.9h2.3V314z"/>
			<path class="st3" d="M446.9,315.9c0,2.2-1.7,3.9-4,3.9c-2.3,0-3.9-1.6-3.9-3.9s1.7-3.9,3.9-3.9
				C445.2,312,446.9,313.7,446.9,315.9z M441,315.9c0,1.2,0.8,2,1.9,2c1.1,0,1.9-0.8,1.9-2c0-1.2-0.8-2-1.9-2
				C441.9,313.9,441,314.7,441,315.9z"/>
			<path class="st3" d="M455.5,314.9v4.7h-2v-4c0-1.1-0.5-1.6-1.4-1.6c-0.8,0-1.5,0.6-1.5,1.7v4h-2v-7.3h1.9v0.9
				c0.5-0.8,1.3-1.1,2.2-1.1C454.3,312,455.5,313.2,455.5,314.9z"/>
			<path class="st3" d="M462.7,313v-4.3h2v10.9h-1.9v-0.8c-0.5,0.6-1.2,1-2.2,1c-2,0-3.5-1.7-3.5-3.9s1.5-3.9,3.5-3.9
				C461.5,312,462.2,312.4,462.7,313z M459,315.9c0,1.1,0.7,2,1.9,2c1.1,0,1.9-0.9,1.9-2c0-1.2-0.8-2-1.9-2
				C459.8,313.9,459,314.8,459,315.9z"/>
			<path class="st3" d="M472,314.3c-0.6-0.3-1.5-0.6-2.3-0.6c-0.7,0-1.1,0.3-1.1,0.7c0,0.4,0.5,0.5,1.2,0.6l0.6,0.1
				c1.6,0.2,2.5,1,2.5,2.2c0,1.5-1.2,2.5-3.4,2.5c-1,0-2.3-0.2-3.3-0.9l0.8-1.5c0.6,0.4,1.4,0.7,2.5,0.7c0.9,0,1.4-0.3,1.4-0.7
				c0-0.4-0.4-0.6-1.2-0.7l-0.6-0.1c-1.7-0.2-2.5-1-2.5-2.2c0-1.5,1.2-2.4,3.1-2.4c1.2,0,2.1,0.2,3.1,0.7L472,314.3z"/>
			<path class="st3" d="M483.4,313v-4.3h2v10.9h-1.9v-0.8c-0.5,0.6-1.2,1-2.2,1c-2,0-3.5-1.7-3.5-3.9s1.5-3.9,3.5-3.9
				C482.2,312,482.9,312.4,483.4,313z M479.7,315.9c0,1.1,0.7,2,1.9,2c1.1,0,1.9-0.9,1.9-2c0-1.2-0.8-2-1.9-2
				C480.4,313.9,479.7,314.8,479.7,315.9z"/>
			<path class="st3" d="M494.2,315.9c0,0.2,0,0.5,0,0.7H489c0.2,1.1,1,1.5,1.9,1.5c0.6,0,1.3-0.3,1.8-0.7l1.2,1.3
				c-0.8,0.8-1.9,1.1-3.1,1.1c-2.2,0-3.8-1.5-3.8-3.8s1.5-3.9,3.7-3.9C492.8,312,494.2,313.6,494.2,315.9z M489,315.2h3.2
				c-0.2-0.9-0.7-1.5-1.6-1.5C489.7,313.7,489.2,314.3,489,315.2z"/>
			<path class="st3" d="M504.4,314h-2.3v5.6h-2V314h-1.4v-1.8h1.4v-0.9c0-1.7,0.9-2.8,2.6-2.8c1,0,1.7,0.3,2.2,0.7l-0.8,1.5
				c-0.4-0.2-0.8-0.4-1.3-0.4c-0.6,0-0.9,0.3-0.9,1v0.9h2.3V314z"/>
			<path class="st3" d="M513.1,315.9c0,2.2-1.7,3.9-4,3.9c-2.3,0-3.9-1.6-3.9-3.9s1.7-3.9,3.9-3.9
				C511.4,312,513.1,313.7,513.1,315.9z M507.2,315.9c0,1.2,0.8,2,1.9,2c1.1,0,1.9-0.8,1.9-2c0-1.2-0.8-2-1.9-2
				C508,313.9,507.2,314.7,507.2,315.9z"/>
			<path class="st3" d="M521.6,314.9v4.7h-2v-4c0-1.1-0.5-1.6-1.4-1.6c-0.8,0-1.5,0.6-1.5,1.7v4h-2v-7.3h1.9v0.9
				c0.5-0.8,1.3-1.1,2.2-1.1C520.5,312,521.6,313.2,521.6,314.9z"/>
			<path class="st3" d="M528.9,313v-4.3h2v10.9h-1.9v-0.8c-0.5,0.6-1.2,1-2.2,1c-2,0-3.5-1.7-3.5-3.9s1.5-3.9,3.5-3.9
				C527.7,312,528.4,312.4,528.9,313z M525.2,315.9c0,1.1,0.7,2,1.9,2c1.1,0,1.9-0.9,1.9-2c0-1.2-0.8-2-1.9-2
				C526,313.9,525.2,314.8,525.2,315.9z"/>
			<path class="st3" d="M538.2,314.3c-0.6-0.3-1.5-0.6-2.3-0.6c-0.7,0-1.1,0.3-1.1,0.7c0,0.4,0.5,0.5,1.2,0.6l0.6,0.1
				c1.6,0.2,2.5,1,2.5,2.2c0,1.5-1.2,2.5-3.4,2.5c-1,0-2.3-0.2-3.3-0.9l0.8-1.5c0.6,0.4,1.4,0.7,2.5,0.7c0.9,0,1.4-0.3,1.4-0.7
				c0-0.4-0.4-0.6-1.2-0.7l-0.6-0.1c-1.7-0.2-2.5-1-2.5-2.2c0-1.5,1.2-2.4,3.1-2.4c1.2,0,2.1,0.2,3.1,0.7L538.2,314.3z"/>
		</g>
		<rect x="467" y="345.8" class="st4" width="93.2" height="5.9"/>
		<rect x="372.5" y="345.8" class="st4" width="93.2" height="5.9"/>
	</g>
	<g>
		<rect x="77.8" y="285.2" class="st5" width="187.5" height="58.9"/>
		<g>
			<path class="st3" d="M138,310.4h-2.6l-4-10.6h2.2l3,8.4l3-8.4h2.2L138,310.4z"/>
			<path class="st3" d="M149.5,306.8c0,2.2-1.7,3.9-4,3.9c-2.3,0-3.9-1.6-3.9-3.9s1.7-3.9,3.9-3.9
				C147.9,302.9,149.5,304.6,149.5,306.8z M143.6,306.8c0,1.2,0.8,2,1.9,2c1.1,0,1.9-0.8,1.9-2c0-1.2-0.8-2-1.9-2
				C144.5,304.8,143.6,305.6,143.6,306.8z"/>
			<path class="st3" d="M153.1,310.4h-2v-10.9h2V310.4z"/>
			<path class="st3" d="M162,306.8c0,0.2,0,0.5,0,0.7h-5.2c0.2,1.1,1,1.5,1.9,1.5c0.6,0,1.3-0.3,1.8-0.7l1.2,1.3
				c-0.8,0.8-1.9,1.1-3.1,1.1c-2.2,0-3.8-1.5-3.8-3.8c0-2.3,1.5-3.9,3.7-3.9C160.5,302.9,162,304.5,162,306.8z M156.8,306.1h3.2
				c-0.2-0.9-0.7-1.5-1.6-1.5C157.5,304.6,157,305.2,156.8,306.1z"/>
			<path class="st3" d="M168.8,304.9h-2.6v2.7c0,0.9,0.5,1.2,1.1,1.2c0.5,0,1-0.2,1.4-0.5l0.7,1.5c-0.6,0.4-1.4,0.8-2.4,0.8
				c-1.8,0-2.7-1-2.7-2.9v-2.8h-1.4v-1.8h1.4V301h2v2.2h2.6V304.9z"/>
			<path class="st3" d="M181.9,306.2h-5.3v4.3h-2.1v-10.6h7.8v1.9h-5.7v2.4h5.3V306.2z"/>
			<path class="st3" d="M193.6,310.4h-2l-5.4-7.1l0,7.1h-2.1v-10.6h2l5.4,7.1v-7.1h2.1V310.4z"/>
			<path class="st3" d="M200.3,299.9c2.5,0,4,0.9,4,2.9c0,1.1-0.6,1.9-1.5,2.2c1,0.3,1.8,1.2,1.8,2.4c0,2-1.4,3-4,3H196v-10.6H200.3
				z M198.1,301.7v2.5h2.2c1,0,1.9-0.2,1.9-1.2c0-1-0.8-1.2-1.9-1.2H198.1z M198.1,306.1v2.5l2.4,0c1.2,0,1.9-0.3,1.9-1.3
				c0-1-0.7-1.3-1.9-1.3H198.1z"/>
			<path class="st3" d="M124.5,319.4c-2,0.9-3,2.8-3,4.9c0,2.1,1,4,3,4.9l-0.6,1.8c-2.6-1-4.4-3.5-4.4-6.7s1.8-5.6,4.4-6.7
				L124.5,319.4z"/>
			<path class="st3" d="M133.6,324.3h-5.3v4.3h-2.1V318h7.8v1.9h-5.7v2.4h5.3V324.3z"/>
			<path class="st3" d="M145.3,328.6h-2l-5.4-7.1l0,7.1h-2.1V318h2l5.4,7.1V318h2.1V328.6z"/>
			<path class="st3" d="M152,318c2.5,0,4,0.9,4,2.9c0,1.1-0.6,1.9-1.5,2.2c1,0.3,1.8,1.2,1.8,2.4c0,2-1.4,3-4,3h-4.6V318H152z
				 M149.8,319.9v2.5h2.2c1,0,1.9-0.2,1.9-1.2c0-1-0.8-1.2-1.9-1.2H149.8z M149.8,324.2v2.5l2.4,0c1.2,0,1.9-0.3,1.9-1.3
				c0-1-0.7-1.3-1.9-1.3H149.8z"/>
			<path class="st3" d="M167,322v-4.3h2v10.9H167v-0.8c-0.5,0.6-1.2,1-2.2,1c-2,0-3.5-1.7-3.5-3.9s1.5-3.9,3.5-3.9
				C165.8,321.1,166.5,321.4,167,322z M163.3,324.9c0,1.1,0.7,2,1.9,2c1.1,0,1.9-0.9,1.9-2c0-1.2-0.8-2-1.9-2
				C164,322.9,163.3,323.8,163.3,324.9z"/>
			<path class="st3" d="M177.8,324.9c0,0.2,0,0.5,0,0.7h-5.2c0.2,1.1,1,1.5,1.9,1.5c0.6,0,1.3-0.3,1.8-0.7l1.2,1.3
				c-0.8,0.8-1.9,1.1-3.1,1.1c-2.2,0-3.8-1.5-3.8-3.8c0-2.3,1.5-3.9,3.7-3.9C176.4,321.1,177.8,322.6,177.8,324.9z M172.6,324.2h3.2
				c-0.2-0.9-0.7-1.5-1.6-1.5C173.3,322.8,172.8,323.3,172.6,324.2z"/>
			<path class="st3" d="M188.4,323h-2.6v2.7c0,0.9,0.5,1.2,1.1,1.2c0.5,0,1-0.2,1.4-0.5l0.7,1.5c-0.6,0.4-1.4,0.8-2.4,0.8
				c-1.8,0-2.7-1-2.7-2.9V323h-1.4v-1.8h1.4v-2.2h2v2.2h2.6V323z"/>
			<path class="st3" d="M192.4,318.9c0,0.7-0.6,1.3-1.3,1.3c-0.7,0-1.3-0.5-1.3-1.3s0.5-1.3,1.3-1.3
				C191.9,317.6,192.4,318.2,192.4,318.9z M192.1,328.6h-2v-7.3h2V328.6z"/>
			<path class="st3" d="M201,324.9c0,0.2,0,0.5,0,0.7h-5.2c0.2,1.1,1,1.5,1.9,1.5c0.6,0,1.3-0.3,1.8-0.7l1.2,1.3
				c-0.8,0.8-1.9,1.1-3.1,1.1c-2.2,0-3.8-1.5-3.8-3.8c0-2.3,1.5-3.9,3.7-3.9C199.6,321.1,201,322.6,201,324.9z M195.8,324.2h3.2
				c-0.2-0.9-0.7-1.5-1.6-1.5C196.5,322.8,196,323.3,195.8,324.2z"/>
			<path class="st3" d="M207.6,321.2l-0.3,2c-0.3-0.1-0.8-0.2-1.2-0.2c-0.9,0-1.5,0.6-1.5,1.6v4h-2v-7.3h1.9v0.8
				c0.5-0.7,1.2-1,2.1-1C207,321.1,207.4,321.1,207.6,321.2z"/>
			<path class="st3" d="M214.1,323.3c-0.6-0.3-1.5-0.6-2.3-0.6c-0.7,0-1.1,0.3-1.1,0.7c0,0.4,0.5,0.5,1.2,0.6l0.6,0.1
				c1.6,0.2,2.5,1,2.5,2.2c0,1.5-1.2,2.5-3.4,2.5c-1,0-2.3-0.2-3.3-0.9l0.8-1.5c0.6,0.4,1.4,0.7,2.5,0.7c0.9,0,1.4-0.3,1.4-0.7
				c0-0.4-0.4-0.6-1.2-0.7l-0.6-0.1c-1.7-0.2-2.5-1-2.5-2.2c0-1.5,1.2-2.4,3.1-2.4c1.2,0,2.1,0.2,3.1,0.7L214.1,323.3z"/>
			<path class="st3" d="M215.8,329.2c2-0.9,3-2.8,3-4.9s-1-4-3-4.9l0.6-1.8c2.6,1,4.4,3.5,4.4,6.7s-1.8,5.6-4.4,6.7L215.8,329.2z"/>
		</g>
		<rect x="172.2" y="345.8" class="st4" width="93.2" height="5.9"/>
		<rect x="77.7" y="345.8" class="st4" width="93.2" height="5.9"/>
	</g>
	<g>
		<circle class="st2" cx="466.1" cy="272" r="7.6"/>
		<path class="st3" d="M466.1,265.4c3.6,0,6.6,3,6.6,6.6c0,3.6-3,6.6-6.6,6.6s-6.6-3-6.6-6.6C459.5,268.4,462.4,265.4,466.1,265.4
			 M466.1,263.3c-4.8,0-8.7,3.9-8.7,8.7c0,4.8,3.9,8.7,8.7,8.7c4.8,0,8.7-3.9,8.7-8.7C474.8,267.2,470.9,263.3,466.1,263.3
			L466.1,263.3z"/>
	</g>
	<g>
		<path class="st2" d="M171,280.6c-4.2,0-7.6-3.4-7.6-7.6s3.4-7.6,7.6-7.6c4.2,0,7.6,3.4,7.6,7.6S175.2,280.6,171,280.6z"/>
		<path class="st3" d="M171,266.3c3.6,0,6.6,3,6.6,6.6c0,3.6-3,6.6-6.6,6.6c-3.6,0-6.6-3-6.6-6.6C164.4,269.3,167.3,266.3,171,266.3
			 M171,264.2c-4.8,0-8.7,3.9-8.7,8.7c0,4.8,3.9,8.7,8.7,8.7s8.7-3.9,8.7-8.7C179.7,268.1,175.8,264.2,171,264.2L171,264.2z"/>
	</g>
	<line class="st1" x1="320" y1="205.7" x2="320" y2="167.8"/>
</g>
</svg>
