<?xml version="1.0" encoding="utf-8"?>
<!-- Generator: Adobe Illustrator 23.0.1, SVG Export Plug-In . SVG Version: 6.00 Build 0)  -->
<svg version="1.1" id="Layer_1" xmlns="http://www.w3.org/2000/svg" xmlns:xlink="http://www.w3.org/1999/xlink" x="0px" y="0px"
	 viewBox="0 0 250 250" style="enable-background:new 0 0 250 250;" xml:space="preserve">
<style type="text/css">
	.st0{clip-path:url(#SVGID_2_);fill:#213332;}
	.st1{clip-path:url(#SVGID_2_);fill:#FFFFFF;}
	.st2{clip-path:url(#SVGID_2_);fill:#EB5B36;}
	.st3{clip-path:url(#SVGID_2_);fill:#203331;}
</style>
<g>
	<defs>
		<rect id="SVGID_1_" width="250" height="250"/>
	</defs>
	<clipPath id="SVGID_2_">
		<use xlink:href="#SVGID_1_"  style="overflow:visible;"/>
	</clipPath>
	<path class="st0" d="M146.41,197.54c-49.37,0-89.54-40.17-89.54-89.54s40.17-89.54,89.54-89.54c49.38,0,89.54,40.17,89.54,89.54
		S195.79,197.54,146.41,197.54 M146.42,18.46c-43.83,0-71.16,45.72-71.16,89.54s27.34,89.54,71.16,89.54
		c43.83,0,79.48-45.72,79.48-89.54C225.9,64.17,190.24,18.46,146.42,18.46"/>
	<path class="st0" d="M146.41,197.54c-30.24,0-53.92-39.33-53.92-89.54c0-50.21,23.69-89.54,53.92-89.54
		c30.22,0,53.9,39.33,53.9,89.54C200.31,158.21,176.64,197.54,146.41,197.54 M146.41,18.46c-23.77,0-40.36,46.46-40.36,89.54
		c0,43.08,16.58,89.54,40.36,89.54c23.76,0,39.49-46.46,39.49-89.54C185.91,64.92,170.18,18.46,146.41,18.46"/>
	<path class="st0" d="M146.41,197.54h-5.03l5.03-179.08c49.38,0,89.54,40.17,89.54,89.54S195.79,197.54,146.41,197.54 M146.41,18.84
		l5.03,178.31c41.49-2.61,69.05-47.02,69.05-89.16C220.49,65.86,187.91,21.45,146.41,18.84"/>
	<path class="st0" d="M60.69,124.02c0,21.69,43.48,35.22,85.16,35.22c41.68,0,85.16-13.53,85.16-35.22
		c0,24.44-38.2,44.32-85.16,44.32S60.69,148.46,60.69,124.02"/>
	<path class="st0" d="M231.58,94.39c0-21.69-43.48-35.22-85.16-35.22c-41.68,0-85.16,13.53-85.16,35.22
		c0-24.44,38.2-44.32,85.16-44.32S231.58,69.95,231.58,94.39"/>
	<path class="st0" d="M231.58,113.33c0-6.81-43.48-11.05-85.16-11.05c-41.68,0-85.16,4.25-85.16,11.05
		c0-7.67,38.2-13.91,85.16-13.91S231.58,105.66,231.58,113.33"/>
	<path class="st1" d="M77.68,230.89l-0.34,10.39l9.84-4l1.66-0.67l1.51-0.66c0.99-0.45,1.97-0.9,2.94-1.37
		c1.94-0.93,3.82-1.95,5.68-3c3.72-2.11,7.35-4.39,10.81-6.96c3.47-2.54,6.8-5.33,9.97-8.32c3.15-3.02,6.07-6.33,8.76-9.85
		c5.35-7.05,9.57-15.25,11.81-24.04c2.33-8.77,2.57-17.99,1.29-26.72c-1.34-8.75-4.1-17.05-7.73-24.74
		c-3.58-7.73-7.97-14.92-12.81-21.68c-9.7-13.52-21.09-25.4-33.08-36.43l-3.44-3.16l-3.26,3.03c-2.79,2.59-5.29,5.11-7.82,7.75
		c-2.51,2.62-4.96,5.3-7.35,8.02c-4.78,5.45-9.34,11.09-13.61,16.97c-8.51,11.74-16,24.44-20.65,38.43
		c-2.28,6.98-3.83,14.3-3.94,21.75c-0.12,7.43,1.28,14.96,4.36,21.72c3.04,6.79,7.73,12.67,13.15,17.51
		c5.43,4.85,11.59,8.71,17.96,11.99L77.68,230.89z"/>
	<path class="st2" d="M82.39,86.86c0,0,92.06,77.05,0,122.3"/>
	<path class="st2" d="M82.39,86.86c0,0-92.06,77.05,0,122.3"/>
	<path class="st3" d="M106.91,148.96c-0.64,2.48-1.71,4.9-3.05,7.21c-1.34,2.31-3,4.53-4.98,6.52c-1.97,1.99-4.23,3.85-6.76,5.33
		c-1.25,0.81-2.58,1.42-3.94,2.07c-1.36,0.64-2.77,1.09-4.21,1.63l-1.64-13.12c1.01,0.07,2.08,0.24,3.13,0.25
		c1.04-0.01,2.14,0.03,3.2-0.12c2.17-0.17,4.33-0.71,6.48-1.5c2.16-0.78,4.27-1.89,6.26-3.28
		C103.39,152.56,105.29,150.92,106.91,148.96"/>
	<path class="st3" d="M106.91,169.48c-0.64,2.48-1.71,4.9-3.05,7.21c-1.34,2.31-3,4.53-4.98,6.52c-1.97,2-4.23,3.85-6.76,5.33
		c-1.25,0.81-2.58,1.42-3.94,2.07c-1.36,0.64-2.77,1.09-4.21,1.63l-1.64-13.12c1.01,0.07,2.08,0.25,3.13,0.25
		c1.04-0.01,2.14,0.03,3.2-0.12c2.17-0.17,4.33-0.71,6.48-1.49c2.16-0.78,4.27-1.89,6.26-3.28
		C103.39,173.08,105.29,171.44,106.91,169.48"/>
	<path class="st3" d="M63.93,210.56c-5.62-2.88-11.04-6.28-15.83-10.56c-4.77-4.26-8.91-9.44-11.59-15.43
		c-2.72-5.96-3.95-12.59-3.84-19.14c0.09-6.57,1.46-13.02,3.47-19.17c4.11-12.32,10.71-23.52,18.2-33.86
		c3.76-5.18,7.78-10.15,11.99-14.95c2.11-2.4,4.27-4.75,6.48-7.07c2.23-2.32,4.43-4.55,6.89-6.83l2.88-2.67l3.03,2.79
		c10.56,9.71,20.6,20.18,29.15,32.1c4.27,5.95,8.13,12.29,11.29,19.1c3.19,6.78,5.63,14.1,6.81,21.8c1.12,7.7,0.91,15.82-1.14,23.55
		c-1.98,7.74-5.69,14.97-10.41,21.18c-2.37,3.1-4.94,6.02-7.72,8.68c-2.79,2.64-5.72,5.09-8.78,7.33c-3.04,2.26-6.25,4.27-9.52,6.13
		c-1.64,0.93-3.3,1.82-5.01,2.64c-0.85,0.42-1.71,0.81-2.59,1.21l-1.33,0.58l-1.46,0.59l-8.68,3.53l0.3-9.15
		c0.25-7.69,0.58-15.37,0.95-23.06c0.39-7.69,0.8-15.37,1.35-23.06l0.82-11.53l0.67-11.53c0.48-7.69,0.99-15.37,1.63-23.06h1.32
		c0.64,7.69,1.15,15.37,1.63,23.06l0.67,11.53l0.82,11.53c0.55,7.68,0.96,15.37,1.35,23.06c0.37,7.69,0.7,15.37,0.95,23.06
		l-8.38-5.63l0.96-0.48l1.07-0.55c0.72-0.38,1.43-0.77,2.15-1.18c1.42-0.82,2.85-1.66,4.24-2.55c2.79-1.77,5.46-3.72,8.04-5.74
		c2.58-2.02,5.01-4.21,7.28-6.5c2.29-2.28,4.41-4.68,6.3-7.21c1.88-2.54,3.63-5.15,5.06-7.91c1.42-2.76,2.62-5.61,3.52-8.56
		c1.78-5.89,2.42-12.15,1.83-18.48c-0.61-6.33-2.31-12.69-4.85-18.82c-1.23-3.08-2.77-6.07-4.33-9.05
		c-1.64-2.95-3.38-5.86-5.27-8.69c-7.54-11.37-16.81-21.78-26.71-31.55l5.91,0.12c-2.23,1.89-4.54,4.03-6.75,6.14
		c-2.22,2.13-4.4,4.31-6.53,6.53c-4.26,4.45-8.34,9.08-12.17,13.89c-7.6,9.64-14.46,19.99-18.87,31.33
		c-2.17,5.66-3.73,11.56-4.11,17.55c-0.4,5.98,0.41,12.03,2.62,17.62c1.08,2.8,2.53,5.47,4.25,7.97c1.73,2.49,3.64,4.89,5.84,7.04
		c4.33,4.36,9.42,8,14.78,11.16L63.93,210.56z"/>
</g>
</svg>
