<?xml version="1.0" encoding="utf-8"?>
<!-- Generator: Adobe Illustrator 23.0.1, SVG Export Plug-In . SVG Version: 6.00 Build 0)  -->
<svg version="1.1" id="Layer_1" xmlns="http://www.w3.org/2000/svg" xmlns:xlink="http://www.w3.org/1999/xlink" x="0px" y="0px"
	 viewBox="0 0 250 250" style="enable-background:new 0 0 250 250;" xml:space="preserve">
<style type="text/css">
	.st0{clip-path:url(#SVGID_2_);fill:#213332;}
	.st1{clip-path:url(#SVGID_2_);fill:#FFFFFF;}
	.st2{clip-path:url(#SVGID_2_);fill:#EC5B36;}
</style>
<g>
	<defs>
		<rect id="SVGID_1_" width="250" height="250"/>
	</defs>
	<clipPath id="SVGID_2_">
		<use xlink:href="#SVGID_1_"  style="overflow:visible;"/>
	</clipPath>
	<path class="st0" d="M114.47,204.03c-49.37,0-89.54-40.17-89.54-89.54s40.17-89.54,89.54-89.54c49.38,0,89.54,40.17,89.54,89.54
		S163.84,204.03,114.47,204.03 M114.47,24.96c-43.83,0-71.16,45.72-71.16,89.54c0,43.82,27.34,89.54,71.16,89.54
		c43.83,0,79.48-45.72,79.48-89.54C193.95,70.67,158.29,24.96,114.47,24.96"/>
	<path class="st0" d="M114.47,204.03c-30.24,0-53.92-39.33-53.92-89.54c0-50.21,23.69-89.54,53.92-89.54
		c30.22,0,53.9,39.33,53.9,89.54C168.36,164.7,144.69,204.03,114.47,204.03 M114.47,24.96c-23.77,0-40.35,46.46-40.35,89.54
		c0,43.08,16.58,89.54,40.35,89.54c23.76,0,39.49-46.46,39.49-89.54C153.96,71.41,138.23,24.96,114.47,24.96"/>
	<path class="st0" d="M114.47,204.03h-5.03l5.03-179.08c49.38,0,89.54,40.17,89.54,89.54S163.84,204.03,114.47,204.03 M114.47,25.34
		l5.03,178.31c41.49-2.61,69.05-47.02,69.05-89.16C188.54,72.36,155.96,27.94,114.47,25.34"/>
	<path class="st0" d="M28.75,130.51c0,21.69,43.48,35.23,85.16,35.23c41.68,0,85.16-13.53,85.16-35.23
		c0,24.44-38.2,44.32-85.16,44.32C66.95,174.83,28.75,154.95,28.75,130.51"/>
	<path class="st0" d="M199.63,100.89c0-21.69-43.48-35.22-85.16-35.22c-41.68,0-85.16,13.53-85.16,35.22
		c0-24.44,38.2-44.32,85.16-44.32S199.63,76.45,199.63,100.89"/>
	<path class="st0" d="M199.63,119.83c0-6.81-43.48-11.05-85.16-11.05c-41.68,0-85.16,4.25-85.16,11.05
		c0-7.67,38.2-13.91,85.16-13.91S199.63,112.16,199.63,119.83"/>
	<path class="st1" d="M175.66,225.41c-8.06-2.28-58.43-20.03-58.43-106.67v-6.44c0-2.05,1.79-3.72,3.99-3.72h6.91
		c22.5,0,43.88-16.62,44.1-16.79l0.5-0.4c3.77-3.06,9.39-3.04,13.14,0.04l0.56,0.46c0.15,0.12,20.82,16.46,42.85,16.46l11.6-0.01
		v10.16c0.9,89.94-54.04,106.23-58.11,107.31l-3.54,1L175.66,225.41z"/>
	<path class="st2" d="M228.84,121.01v2.76c0.81,86.9-47.39,100.94-49.44,101.5l-0.92,0.25l-1.24-0.52
		c-4.16-2.37-29-7.35-43.42-66.44C164.2,130.02,228.84,121.01,228.84,121.01"/>
	<path class="st0" d="M178.51,226.02l-1.29-0.54c-4.15-1.17-52.18-16.66-52.18-105.01v-2.87h2.86c25.15,0,48.16-19.36,48.4-19.56
		l1.84-1.6l1.84,1.62c0.22,0.19,22.85,19.65,47.94,19.29h2.87v2.86c0.85,90.37-49.29,104.97-51.43,105.55L178.51,226.02z
		 M135.85,125.8c0.99,81.46,40.34,98.43,42.93,99.19c6.22-2.27,41.09-22.36,41.33-99.42c-22.04-0.92-36.03-22.04-41.96-26.72
		C172.17,103.5,157.88,124.67,135.85,125.8"/>
	<path class="st1" d="M177.57,108.26c0.81,8.93,1.23,17.86,1.51,26.79c0.18,4.47,0.21,8.93,0.31,13.4l0.09,13.39l-0.13,13.39
		c-0.12,4.46-0.16,8.93-0.36,13.39c-0.31,8.93-0.76,17.86-1.61,26.79c-0.82-8.93-1.24-17.86-1.51-26.79
		c-0.18-4.46-0.21-8.93-0.31-13.39l-0.08-13.4l0.13-13.39c0.12-4.46,0.17-8.93,0.36-13.39
		C176.28,126.12,176.73,117.19,177.57,108.26"/>
</g>
</svg>
