<?xml version="1.0" encoding="utf-8"?>
<!-- Generator: Adobe Illustrator 23.0.1, SVG Export Plug-In . SVG Version: 6.00 Build 0)  -->
<svg version="1.1" id="Layer_1" xmlns="http://www.w3.org/2000/svg" xmlns:xlink="http://www.w3.org/1999/xlink" x="0px" y="0px"
	 viewBox="0 0 200 200" style="enable-background:new 0 0 200 200;" xml:space="preserve">
<style type="text/css">
	.st0{clip-path:url(#SVGID_2_);fill:#EB5B36;}
	.st1{clip-path:url(#SVGID_2_);fill:#203232;}
	.st2{clip-path:url(#SVGID_2_);fill:#FFFFFF;}
	.st3{clip-path:url(#SVGID_2_);fill:#213332;}
	.st4{clip-path:url(#SVGID_2_);fill:#EA5B34;}
</style>
<g>
	<defs>
		<rect id="SVGID_1_" width="200" height="200"/>
	</defs>
	<clipPath id="SVGID_2_">
		<use xlink:href="#SVGID_1_"  style="overflow:visible;"/>
	</clipPath>
	<path class="st0" d="M155.79,129.08c-24.67,18.49-59.67,13.48-78.16-11.19C59.14,93.22,64.15,58.23,88.82,39.73
		s59.66-13.48,78.16,11.19C185.47,75.59,180.46,110.59,155.79,129.08"/>
	<path class="st1" d="M71.36,120.75c-11.57-14.38-16.69-33.72-12.24-53.06c7.71-33.46,41.21-54.43,74.68-46.74
		c16.22,3.74,30.01,13.56,38.83,27.66c8.83,14.1,11.64,30.8,7.9,47.02c-3.73,16.21-13.55,30.01-27.66,38.83
		c-14.1,8.83-30.8,11.64-47.02,7.91C91.72,139.12,79.82,131.26,71.36,120.75 M132.28,27.54c-29.84-6.86-59.71,11.83-66.58,41.67
		c-6.87,29.84,11.83,59.71,41.67,66.58c14.46,3.33,29.35,0.83,41.92-7.04c12.57-7.87,21.34-20.17,24.66-34.63
		c3.33-14.46,0.83-29.35-7.04-41.92C159.04,39.63,146.74,30.87,132.28,27.54"/>
	<path class="st2" d="M147.62,114.88c-18.77,15.11-46.24,12.14-61.34-6.64C71.17,89.47,74.14,62.01,92.91,46.9
		c18.77-15.11,46.23-12.14,61.34,6.64C169.36,72.31,166.39,99.77,147.62,114.88"/>
	<path class="st3" d="M120.41,124.57c-22.51,0-40.83-18.31-40.83-40.83s18.32-40.83,40.83-40.83c22.51,0,40.83,18.31,40.83,40.83
		S142.92,124.57,120.41,124.57 M120.41,42.92c-19.98,0-32.45,20.84-32.45,40.83c0,19.98,12.46,40.82,32.45,40.82
		s36.24-20.84,36.24-40.83S140.39,42.92,120.41,42.92"/>
	<path class="st3" d="M120.41,124.57c-13.79,0-24.59-17.93-24.59-40.83c0-22.89,10.8-40.83,24.59-40.83
		c13.78,0,24.57,17.93,24.57,40.83C144.98,106.64,134.19,124.57,120.41,124.57 M120.41,42.92c-10.84,0-18.4,21.18-18.4,40.83
		c0,19.64,7.56,40.82,18.4,40.82c10.83,0,18.01-21.18,18.01-40.83C138.42,64.1,131.24,42.92,120.41,42.92"/>
	<path class="st3" d="M120.41,124.57h-2.29l2.29-81.65c22.51,0,40.83,18.31,40.83,40.82C161.24,106.25,142.92,124.57,120.41,124.57
		 M120.41,43.09l2.29,81.3c18.92-1.19,31.48-21.44,31.48-40.65C154.18,64.53,139.33,44.28,120.41,43.09"/>
	<path class="st3" d="M81.33,91.05c0,9.89,19.82,16.06,38.83,16.06s38.83-6.17,38.83-16.06c0,11.14-17.42,20.21-38.83,20.21
		S81.33,102.19,81.33,91.05"/>
	<path class="st3" d="M159.24,77.54c0-9.89-19.82-16.06-38.83-16.06s-38.83,6.17-38.83,16.06c0-11.14,17.42-20.21,38.83-20.21
		S159.24,66.4,159.24,77.54"/>
	<path class="st3" d="M159.24,86.17c0-3.1-19.82-5.04-38.83-5.04s-38.83,1.94-38.83,5.04c0-3.5,17.42-6.34,38.83-6.34
		S159.24,82.68,159.24,86.17"/>
	<polygon class="st1" points="80.91,125.43 55.3,144.91 76.36,120.58 	"/>
	<path class="st1" d="M66.53,120.13c-8.24,9.02-16.82,17.67-25.29,26.44c-4.26,4.36-8.55,8.69-12.9,12.96l-1.63,1.6
		c-0.25,0.25-0.59,0.57-0.75,0.76c-0.2,0.21-0.4,0.42-0.56,0.65c-0.69,0.9-1.16,1.96-1.34,3.08c-0.39,2.24,0.33,4.61,1.95,6.2
		c1.63,1.64,3.97,2.56,6.3,2.33c1.15-0.1,2.29-0.43,3.3-1.01c0.51-0.28,0.97-0.64,1.42-1.02l1.67-1.54
		c4.49-4.12,8.97-8.24,13.54-12.27c9.09-8.12,18.31-16.1,27.88-23.71c-8.11,9.15-16.57,17.94-25.16,26.58
		c-4.27,4.35-8.63,8.61-12.98,12.88l-1.65,1.6c-0.7,0.63-1.44,1.22-2.25,1.69c-1.62,0.96-3.45,1.57-5.33,1.74
		c-3.75,0.38-7.66-1.06-10.29-3.77c-2.71-2.71-3.99-6.83-3.22-10.59c0.35-1.88,1.18-3.67,2.37-5.16c0.58-0.76,1.33-1.42,1.83-1.89
		l1.68-1.55c4.46-4.15,8.99-8.23,13.54-12.28C47.76,135.75,57.02,127.8,66.53,120.13"/>
	<polygon class="st4" points="113.6,83.33 113.92,83.32 113.69,83 	"/>
</g>
</svg>
